<?xml version="1.0" encoding="utf-8"?>
<!-- Generator: Adobe Illustrator 24.0.1, SVG Export Plug-In . SVG Version: 6.00 Build 0)  -->
<svg version="1.1" xmlns="http://www.w3.org/2000/svg" xmlns:xlink="http://www.w3.org/1999/xlink" x="0px" y="0px"
	 viewBox="0 0 1000 356.9" style="enable-background:new 0 0 1000 356.9;" xml:space="preserve">
<style type="text/css">
	.st0{fill:#FFE87B;}
	.st1{fill:#1E1E1C;}
	.st2{fill:#1E1E1C;stroke:#1E1E1C;stroke-width:0.25;stroke-miterlimit:10;}
	.st3{fill:#1E1E1C;stroke:#1E1E1C;stroke-width:0.15;stroke-miterlimit:10;}
	.st4{fill:#FFFFFF;}
	.st5{stroke:#1E1E1C;stroke-miterlimit:10;}
	.st6{fill:none;stroke:#1E1E1C;stroke-width:3;stroke-linecap:round;stroke-linejoin:round;stroke-miterlimit:10;}
	.st7{stroke:#000000;stroke-width:1.5;stroke-miterlimit:10;}
</style>
<g id="Calque_2">
	<g>
		<path class="st0" d="M227.8,149.1c-18.7,0-29.8,6.9-43.6,19.6c-8.7,8-15.8,20.7-10.6,31.3c1.6,3.4,4.4,6.2,7.1,8.8
			c20.4,20,42.8,37.8,66.8,53.1c14.6,9.3,31.3,18,48.5,15.3c11-1.7,20.7-8,29.4-14.9c6.3-5,12.6-11,13.9-18.9
			c1.9-11.4-7-21.3-14.8-29.8c-8.2-8.9-8.2-5.1-15.2-2.5L260.4,229l-7.1-0.8L227.8,149.1z"/>
	</g>
	<g>
		<path class="st0" d="M621.1,281.6c-0.1,0.2-0.5,0.5-0.7,1.2c-0.2,0.7,0.3,1.6,0.7,5.2c0.3,3.4,1.1,6.7,2.7,9.7
			c5.6,10.4,19.3,13.7,31.1,12.3c18.2-2.2,34.5-13,47-26.5c10.9-11.8,16.3-14.5,16-28.9c0-1.6-5.1,7.7-9.4,7.9
			c-6.6,0.3-18.8-24.1-18.8-24.1l-7.2,16.8l-17.2-16.8l-17.2,11.3c-2.3,7.3-1.3,31.1-1.3,31.1S622.5,279.9,621.1,281.6z"/>
	</g>
	<g>
		<path class="st0" d="M599.7,147.6c1-8.1,3.8-19.4-3.5-16.4c-2.6,1.1-17.3-1.6-20.1-1.8c-3.6-0.3-16.5,2.5-17.7-1
			c-2-5.9-2.1-10.1,10.6-21.5s30.4-15.1,47.4-16.1c14.7-0.9,29.9,0.1,43.4,6.1c13.5,6,14.9,9.1,19.1,14.3
			c0.8,0.9-20.2,17.3-20.9,18.3c-0.7,1-15-10.2-15.4-11.3l-9.7,23.1l-32.2-19L599.7,147.6z"/>
	</g>
</g>
<g id="Calque_1">
	<path d="M541.5,77.8c-12.3-5-24.5-10.1-37-14.7c-10.9-4-21.9-7.4-33.1-10.2c-7.8-2-15.7-3.7-23.6-5.3c-1.2-0.3-2.3,0.5-2.4,1.8
		c-0.7,11.3,4.3,21.9,8.4,32.2c-10.6,1.5-21.1,3.5-31.6,5.6c-16.7,3.3-33.4,6.7-50.1,10.2c-18.8,3.9-37.7,8-56.5,11.9
		c-17.6,3.7-35.2,7.4-52.8,11c-13,2.6-26,5.3-39,7.5c-1.1,0.2-2.3,0.4-3.4,0.5c-0.3,0-0.6,0.2-0.8,0.4c-0.5,0.4-0.8,1-0.5,1.9
		c3.4,9.2,6.3,18.5,9.3,27.8c3.8,11.8,7.4,23.6,11.2,35.4c3.1,9.6,6.1,19.3,9.5,28.8c1,2.8,2,5.9,4.9,7.3c3.3,1.6,7.2,0.6,10.4-0.5
		c8.4-3,16.7-6.3,25-9.4c16.9-6.4,33.9-12.8,50.7-19.4c7.6-3,15.2-5.9,22.9-8.8c9.7-3.6,19.4-7.2,29.1-10.8
		c10.9-4.1,21.8-8.1,32.7-12.2c10.3-3.8,20.5-7.7,30.7-11.7c7.8-3,15.6-6.1,23.3-9.4c0.8-0.3,1.6-0.7,2.3-1
		c7.5,10.4,12.3,23.1,23.1,30.6c1.1,0.7,2.4-0.1,2.8-1.1c4.5-12.9,9.9-25.5,15.4-38c5.1-11.6,10.2-23.2,14.1-35.2
		c2.5-7.5,4.6-15.2,6.3-23C543,79.1,542.5,78.2,541.5,77.8z M527,118c-4.7,11.7-10.1,23.2-15,34.8c-2.8,6.6-5.4,13.2-7.7,19.9
		c-9.4-7.6-13.8-19.8-20.9-29.2c-0.6-0.8-1.6-1.2-2.6-0.7c-6.5,2.9-13.1,5.5-19.9,8.2c-9.6,3.8-19.3,7.5-29,11.1
		c-10.8,4.1-21.5,8.1-32.3,12.1c-10.1,3.7-20.1,7.5-30.2,11.2c-7.6,2.8-15.2,5.7-22.7,8.6c-14.3,5.5-28.5,11.2-42.8,16.6
		c-8.3,3.2-16.7,6.3-25,9.4c-4.1,1.6-8.3,3.1-12.4,4.7c-3,1.1-7.1,3.3-10.3,2.1c-2.4-0.8-3-4-3.8-6.2c-0.7-2-1.4-4-2.1-5.9
		c-1.6-4.9-3.2-9.8-4.8-14.7c-3.7-11.5-7.3-23.1-11-34.7c-3.2-10.2-6.4-20.4-9.9-30.4c-0.4-1.1-0.8-2.2-1.2-3.3
		c11.6-1.9,23.1-4.2,34.6-6.5c17.2-3.5,34.4-7.1,51.6-10.7c18.9-4,37.7-8,56.6-12c17.1-3.6,34.3-7.2,51.5-10.6
		c12-2.4,24-4.8,36.1-6.5c0.5-0.1,1-0.1,1.5-0.2c0.1,0,0.2,0,0.4-0.1c0,0,0,0,0,0c0.2,0,0.5-0.1,0.7-0.1c0,0,0,0,0,0
		c0.2,0,0.3,0,0.5-0.1c0.4-0.1,0.7-0.4,1-0.7c0,0,0.1-0.1,0.1-0.2c0,0,0.1-0.1,0.1-0.1c0,0,0-0.1,0.1-0.1c0.2-0.4,0.2-0.8,0.1-1.2
		c-3.8-9.9-9.1-20.2-9.1-30.9c12.3,2.5,24.5,5.3,36.5,9c11.1,3.4,21.9,7.4,32.6,11.7c6.9,2.7,13.8,5.6,20.6,8.4
		C535.9,93.5,531.9,105.9,527,118z"/>
	<path d="M310.1,166.6c0.6,0.1,1.3,0.2,2,0.1c0.4-0.1,0.8-0.1,1.2-0.2c0.4-0.1,0.8-0.3,1.2-0.5c0.6-0.3,1.1-0.7,1.6-1.1
		c0.5-0.4,0.9-1,1.2-1.5c0.3-0.6,0.4-1.3,0.3-1.9c-0.2-0.6-0.6-1.2-1.1-1.5c-0.6-0.3-1.3-0.5-1.9-0.3c-0.6,0.2-1.2,0.6-1.5,1.1
		c-0.1,0.2-0.2,0.3-0.3,0.5c0.1-0.2,0.3-0.3,0.4-0.5c-0.2,0.3-0.4,0.5-0.7,0.7c0.2-0.1,0.3-0.3,0.5-0.4c-0.3,0.2-0.6,0.4-1,0.6
		c0.2-0.1,0.4-0.2,0.6-0.3c-0.3,0.1-0.7,0.2-1.1,0.3c0.2,0,0.4-0.1,0.7-0.1c-0.4,0-0.7,0-1.1,0c0.2,0,0.4,0.1,0.7,0.1
		c-0.1,0-0.2,0-0.2,0c-0.7-0.1-1.3-0.1-1.9,0.3c-0.5,0.3-1,0.9-1.1,1.5c-0.1,0.6-0.1,1.4,0.3,1.9C308.9,166,309.4,166.5,310.1,166.6
		L310.1,166.6z"/>
	<g>
		<path d="M264.8,153.8c-6.6,1.8-10.1,8.9-9.7,15.4c0.2,3.9,1.5,7.5,3.2,11c1.5,3,3.2,6,5.7,8.4c4.4,4.2,11.6,5.9,16.6,1.6
			c2.7-2.3,3.2-6,3-9.4c-0.2-3.7-0.9-7.4-2.1-10.9c-1.3-3.9-3-7.9-5.4-11.2c-2.1-2.9-5.3-5.9-9.2-5.4c-1,0.1-1.9,0.8-1.9,1.9
			c0,0.9,0.9,2,1.9,1.9c2.6-0.3,4.6,1.6,6,3.7c1.7,2.4,3.1,5.2,4.1,7.9c1.1,2.9,1.9,5.9,2.4,9c0.4,2.7,0.9,6.1-0.5,8.5
			c-2.3,4.1-8.3,3.1-11.4,0.6c-2.1-1.7-3.7-4-5-6.3c-1.5-2.7-2.7-5.5-3.4-8.5c-1.3-5.5,0.3-12.8,6.5-14.6
			C268.1,156.8,267.1,153.2,264.8,153.8L264.8,153.8z"/>
		<path d="M294.3,178.1c-1.4-4-2.9-8-4.3-12c-1.4-3.9-2.9-7.7-4.1-11.6c-0.3-1-0.5-1.9-0.7-2.9c-0.1-0.4-0.2-0.9-0.3-1.4
			c0-0.1,0-0.4-0.1-0.5c0.1,0.1-0.7,0.4-0.1,0.1c1.8-0.6,3.4-1.5,5.4-1.7c3.3-0.3,6.1,1.6,5.4,5.2c-0.4,2-1.7,3.6-3,5.1
			c-1.3,1.4-2.7,3.3-4.5,3.9c-2.3,0.7-1.3,4.4,1,3.6c2.3-0.7,4-2.5,5.6-4.2c1.6-1.7,3.1-3.6,4-5.7c1.7-4.2,0.4-9.1-4-10.9
			c-2.1-0.9-4.5-0.8-6.7-0.3c-1.2,0.3-2.3,0.7-3.4,1.2c-1,0.4-2.1,0.8-2.8,1.7c-1.3,1.9-0.2,5,0.4,6.9c0.7,2.4,1.5,4.8,2.4,7.2
			c2.1,5.8,4.2,11.5,6.2,17.3C291.5,181.3,295.1,180.4,294.3,178.1L294.3,178.1z"/>
		<path d="M305.4,150.7c1.8,9,4.2,17.9,7.2,26.5c0.8,2.3,4.4,1.3,3.6-1c-3-8.7-5.4-17.5-7.2-26.5
			C308.5,147.3,304.9,148.3,305.4,150.7L305.4,150.7z"/>
		<path d="M317.3,178.4c1.5-0.3,3-0.5,4.4-0.8c0.4-0.1,0.9-0.5,1.1-0.9c0.2-0.4,0.3-1,0.2-1.4c-0.1-0.5-0.4-0.9-0.9-1.1
			c-0.5-0.2-0.9-0.3-1.4-0.2c-1.5,0.3-3,0.5-4.4,0.8c-0.4,0.1-0.9,0.5-1.1,0.9c-0.2,0.4-0.3,1-0.2,1.4c0.1,0.5,0.4,0.9,0.9,1.1
			C316.4,178.5,316.8,178.5,317.3,178.4L317.3,178.4z"/>
		<path d="M307.6,150.5c3.1-0.5,6.2-1.3,9.2-2.5c0.9-0.3,1.6-1.3,1.3-2.3c-0.3-0.9-1.3-1.7-2.3-1.3c-3,1.1-6.1,2-9.2,2.5
			c-1,0.2-1.6,1.4-1.3,2.3C305.6,150.2,306.6,150.6,307.6,150.5L307.6,150.5z"/>
		<path d="M336.5,172.2c-3.5-9.2-6.5-18.6-8.9-28.2c-1,0.6-2.1,1.2-3.1,1.8c4.5,3.7,9.1,7.3,13.6,11c4.1,3.3,8.1,7.2,13.2,9
			c1.3,0.5,2.8-1,2.3-2.3c-3.4-8.4-6.8-16.8-10.2-25.2c-0.4-0.9-1.3-1.6-2.3-1.3c-0.9,0.2-1.7,1.4-1.3,2.3
			c3.4,8.4,6.8,16.8,10.2,25.2c0.8-0.8,1.5-1.5,2.3-2.3c-2.2-0.8-4.2-2.2-6-3.7c-2.1-1.7-4.2-3.3-6.2-5c-4.3-3.4-8.5-6.9-12.8-10.3
			c-1.4-1.1-3.6-0.1-3.1,1.8c2.4,9.6,5.3,19,8.9,28.2c0.4,0.9,1.3,1.6,2.3,1.3C336.1,174.3,336.8,173.2,336.5,172.2L336.5,172.2z"/>
		<path d="M366.9,127.8c-4.3,0.6-5.4,5.8-3.6,9.1c2.2,4,6.7,4.4,10.1,6.9c2.9,2.1,3.9,6,3.7,9.4c-0.1,3.1-1.5,9.2-5.8,8.4
			c-2.4-0.5-3.4,3.1-1,3.6c4.8,0.9,8.4-2.6,9.8-6.9c1.2-3.8,1.2-8.2-0.3-11.9c-0.7-1.8-1.8-3.5-3.2-4.8c-1.6-1.5-3.6-2.3-5.6-3.2
			c-1.7-0.8-3.8-1.8-4.6-3.6c-0.6-1.4-0.1-3,1.5-3.3c1-0.1,1.6-1.4,1.3-2.3C368.9,128,367.9,127.6,366.9,127.8L366.9,127.8z"/>
		<path d="M385.5,121.7c-3.1,0.2-5.2,2.6-6.1,5.4c-1,3.3-0.5,7,0.1,10.3c1,5.3,2.6,11.1,6.6,14.9c3.9,3.8,11.7,5.6,14.7-0.3
			c1.4-2.7,1.6-6.3,1.3-9.3c-0.3-3.2-1.2-6.3-2.4-9.3c-1.5-3.4-3.4-6.5-5.7-9.3c-2-2.5-5.2-5.3-8.3-2.8c-0.8,0.6-0.7,2,0,2.7
			c0.8,0.8,1.9,0.6,2.7,0c-0.2,0.1,0.4,0.2,0.6,0.3c0.5,0.2,0.8,0.6,1.2,1c0.8,0.9,1.6,1.9,2.3,2.8c1.5,2,2.8,4.2,3.8,6.5
			c1.9,4.3,3,9.3,2,14c-0.5,2.1-1.6,3.5-3.8,3.6c-2,0-3.8-0.9-5.2-2.2c-3-2.8-4.4-6.8-5.3-10.7c-0.6-2.7-1.2-5.4-1.1-8.2
			c0-1.7,0.5-5.5,2.9-5.7C387.9,125.3,388,121.5,385.5,121.7L385.5,121.7z"/>
		<path d="M400.8,120.8c1.5,4.6,2.7,9.3,4.5,13.7c1.6,3.9,4,7.7,8,9.5c3.7,1.7,8.6,1.2,10.9-2.6c2.2-3.6,1.1-8.6,0.1-12.4
			c-1.3-5.2-3.6-10.2-5.8-15.1c-0.4-0.9-1.8-1.1-2.6-0.7c-1,0.5-1.1,1.6-0.7,2.6c1.6,3.6,3.3,7.3,4.5,11.1c1.1,3.3,2.3,7.2,1.8,10.7
			c-0.5,3.4-3.7,4.3-6.6,3c-3.2-1.4-5-4.6-6.2-7.7c-1.6-4.3-2.9-8.8-4.3-13.1C403.7,117.5,400,118.5,400.8,120.8L400.8,120.8z"/>
		<path d="M427.3,115.9c2.7,9.2,5.5,18.3,8.2,27.5c0.7,2.3,4.3,1.3,3.6-1c-2.7-9.2-5.5-18.3-8.2-27.5
			C430.3,112.6,426.6,113.6,427.3,115.9L427.3,115.9z"/>
		<path d="M432.1,114.9c1.9-1.1,4.8-0.5,5.7,1.6c1.1,2.3-1.1,5.1-3.5,5c-1.9-0.1-2.5,2.6-0.9,3.5c6.9,3.9,13.9,7.5,21,10.9
			c2.2,1,4.1-2.2,1.9-3.2c-7.1-3.4-14.2-7-21-10.9c-0.3,1.2-0.6,2.3-0.9,3.5c4.9,0.1,8.9-5.3,7.1-9.9c-1.7-4.3-7.3-6.1-11.2-3.7
			C428.1,113,430,116.2,432.1,114.9L432.1,114.9z"/>
		<path d="M459.3,97.9c-1.9,0.9-3.7,1.9-5.1,3.5c-1.4,1.6-2,3.6-2.3,5.7c-0.6,4.7,0.8,9.3,2.7,13.6c1.6,3.8,3.7,7.8,7.4,10
			c3.3,2,7.8,2,10.7-0.7c1.8-1.6-0.9-4.3-2.7-2.7c-2,1.9-5.3,1.1-7.2-0.6c-2.5-2.1-4-5.4-5.2-8.3c-1.4-3.3-2.4-6.9-2.1-10.5
			c0.1-1.5,0.5-3,1.6-4.2c1.1-1.2,2.7-1.9,4.1-2.6C463.4,100,461.5,96.8,459.3,97.9L459.3,97.9z"/>
		<path d="M475.3,92.5c-2.8,0-5.5,1.2-7.3,3.3c-0.3,0.4-0.5,0.8-0.5,1.3c0,0.5,0.2,1,0.5,1.3c0.7,0.6,2,0.8,2.7,0
			c0.3-0.4,0.7-0.7,1.1-1c-0.1,0.1-0.3,0.2-0.4,0.3c0.6-0.4,1.2-0.8,1.8-1.1c-0.1,0.1-0.3,0.1-0.4,0.2c0.7-0.3,1.4-0.5,2.1-0.6
			c-0.2,0-0.3,0-0.5,0.1c0.3,0,0.7-0.1,1-0.1c1,0,1.9-0.9,1.9-1.9C477.1,93.3,476.4,92.5,475.3,92.5L475.3,92.5z"/>
		<path d="M468,98.1c3.1,8.9,6.2,17.8,9.5,26.6c0.8,2.2,4.5,1.3,3.6-1c-3.3-8.8-6.5-17.7-9.5-26.6C470.9,94.8,467.2,95.8,468,98.1
			L468,98.1z"/>
		<path d="M480.7,126c2.5-0.8,5-1.8,7.4-3c0.9-0.5,1.2-1.7,0.7-2.6c-0.6-0.9-1.6-1.2-2.6-0.7c-0.5,0.3-1.1,0.6-1.6,0.8
			c-0.3,0.1-0.5,0.3-0.8,0.4c-0.2,0.1-0.3,0.1-0.5,0.2c-0.4,0.2,0.4-0.2-0.1,0c-1.1,0.5-2.3,0.9-3.5,1.2c-0.9,0.3-1.6,1.3-1.3,2.3
			C478.7,125.6,479.7,126.3,480.7,126L480.7,126z"/>
		<path d="M477.8,111.8c0.8-0.3,1.6-0.7,2.5-1c0.2-0.1,0.5-0.2,0.6-0.3c0.2-0.1,0.4-0.3,0.5-0.5c0.1-0.2,0.2-0.4,0.2-0.7
			c0.1-0.2,0-0.5,0-0.7c-0.1-0.5-0.4-0.9-0.9-1.1c-0.1-0.1-0.3-0.1-0.4-0.2c-0.3-0.1-0.7-0.1-1,0c-0.8,0.3-1.6,0.7-2.5,1
			c-0.2,0.1-0.5,0.2-0.6,0.3c-0.2,0.1-0.4,0.3-0.5,0.5c-0.1,0.2-0.2,0.4-0.2,0.7c-0.1,0.2,0,0.5,0,0.7c0.1,0.5,0.4,0.9,0.9,1.1
			c0.1,0.1,0.3,0.1,0.4,0.2C477.1,111.9,477.4,111.9,477.8,111.8L477.8,111.8z"/>
	</g>
	<path d="M390.3,179.6c-1,23.8-0.6,47.6,1.4,71.3c0.5,5.9,1,11.8,1.7,17.6c0.3,2.6,0.3,5.4,1.9,7.6c1.4,2,3.5,3.2,5.6,4.3
		c9.4,4.8,20,6.3,30.4,6.9c23.3,1.4,46.7,0.8,69.9-1.1c11.8-0.9,23.5-2.4,35.3-3.9c11.6-1.4,23.1-2,34.7-1.4
		c22.6,1.1,45.3,5.1,68,2.4c2.8-0.3,5.6-0.8,8.4-1.3c0.8-0.2,1.4-1,1.4-1.8c0.2-10,0.4-20.1,0.6-30.1c0-2.4-3.7-2.4-3.8,0
		c-0.2,10-0.4,20.1-0.6,30.1c0.5-0.6,0.9-1.2,1.4-1.8c-22,4.2-44.5,0.9-66.6-0.7c-11.2-0.8-22.5-1.2-33.7-0.2c-11.5,1-23,2.9-34.5,4
		c-23.1,2.3-46.3,3.1-69.4,2.4c-10.4-0.3-21-0.6-31-3.5c-2.4-0.7-4.7-1.5-7-2.6c-2-0.9-4.5-1.9-5.9-3.7c-0.7-0.9-0.9-2.1-1-3.2
		c-0.2-1.5-0.3-3-0.5-4.5c-0.3-2.9-0.6-5.7-0.9-8.6c-2.2-23.2-2.9-46.5-2.3-69.8c0.1-2.9,0.2-5.7,0.3-8.6
		C394.1,177.2,390.4,177.2,390.3,179.6L390.3,179.6z"/>
	<g>
		<path class="st4" d="M526.4,126.5c18.4,1.1,36.9,2.2,55.3,3.2c6.4,0.3,12.9,0.7,18.9,2.7"/>
		<path d="M526.4,128.4c19.4,1.2,38.9,2.2,58.4,3.3c5.2,0.3,10.4,0.9,15.4,2.5c2.3,0.7,3.3-2.9,1-3.6c-9-2.9-18.8-2.7-28.2-3.3
			c-9.9-0.5-19.8-1.1-29.6-1.7c-5.6-0.3-11.3-0.7-16.9-1C524,124.5,524,128.3,526.4,128.4L526.4,128.4z"/>
	</g>
	<g>
		<path d="M435.4,181.1c-4.9,0.7-8.6,4.4-11,8.6c-2.8,4.9-4.1,10.6-5,16.1c-1.1,6.4-1.5,13-1,19.5c0.4,6,1.2,12.5,3.4,18.2
			c1,2.5,2.3,5,4.3,6.8c2.2,1.9,4.9,3,7.7,3.4c5.4,0.8,11.9-0.7,15.7-4.8c4-4.3,4.4-10.4,4.5-16c0.2-6.7,0-13.5-0.6-20.2
			c-0.7-7.3-1.8-14.7-3.5-21.9c-0.7-3.1-1.9-6.3-4.4-8.4c-2.3-2-5.6-3-8.5-1.9c-0.9,0.4-1.6,1.3-1.3,2.3c0.3,0.9,1.4,1.7,2.3,1.3
			c5.2-2.1,7.6,4.7,8.4,8.5c1.3,5.8,2.3,11.8,3,17.7c0.6,5.9,1,11.9,0.9,17.8c0,4.9,0.3,10.7-1.7,15.3c-2,4.6-6.9,6.6-11.7,6.7
			c-2.4,0.1-4.9-0.3-7-1.6c-2-1.2-3.4-3.2-4.3-5.4c-2.1-4.8-2.8-10.3-3.3-15.5c-0.5-5.7-0.5-11.5,0.2-17.2c0.7-5.7,1.8-11.8,4.2-17
			c1.9-4.1,4.9-8,9.7-8.7c1-0.1,1.6-1.4,1.3-2.3C437.4,181.4,436.4,181,435.4,181.1L435.4,181.1z"/>
		<path d="M468.6,245.3c-0.8-18.3-1.7-36.6-2.5-54.9c-1.2,0.3-2.3,0.6-3.5,0.9c8,12.5,12.1,26.9,19,39.9c1.9,3.7,4.1,7.2,6.6,10.5
			c1.1,1.5,3.4,1,3.5-0.9c1.3-18.5,0.9-37.1-1.4-55.5c-0.1-1-0.8-1.9-1.9-1.9c-0.9,0-2,0.9-1.9,1.9c2.3,18.4,2.8,37,1.4,55.5
			c1.2-0.3,2.3-0.6,3.5-0.9c-8.9-11.9-13.3-26.2-19.6-39.5c-1.8-3.8-3.8-7.4-6-11c-1-1.5-3.6-1-3.5,0.9c0.8,18.3,1.7,36.6,2.5,54.9
			C465,247.7,468.7,247.7,468.6,245.3L468.6,245.3z"/>
		<path d="M506.3,183.7c0.5,9.9,0.9,19.9,1.4,29.8c0.2,5,0.5,9.9,0.7,14.9c0.1,2.5,0.2,5,0.3,7.5c0.1,1.9,0.1,4,1.1,5.8
			c1.2,2.2,3.5,2.9,5.9,3.1c2.8,0.2,5.6-0.1,8.3-0.5c1-0.1,1.6-1.4,1.3-2.3c-0.3-1.1-1.3-1.5-2.3-1.3c-2.2,0.3-4.4,0.4-6.6,0.4
			c-0.8,0-1.8,0-2.6-0.4c-0.7-0.4-0.9-1.2-1.1-1.9c-0.4-1.9-0.3-3.9-0.4-5.8c-0.1-2.2-0.2-4.5-0.3-6.7c-0.4-9-0.8-18.1-1.3-27.1
			c-0.2-5.1-0.5-10.3-0.7-15.4C509.9,181.3,506.2,181.3,506.3,183.7L506.3,183.7z"/>
		<path d="M540.1,193.5c-1.2,16.7-1.1,33.5,0.4,50.2c0.2,2.4,4,2.4,3.8,0c-1.5-16.7-1.7-33.5-0.4-50.2
			C544,191.1,540.2,191.1,540.1,193.5L540.1,193.5z"/>
		<path d="M559.6,240.5c-1.1-18.3-1.5-36.5-1.1-54.8c-1.1,0.4-2.1,0.9-3.2,1.3c2.7,3.5,4.5,7.6,6.1,11.7c1.8,4.6,3.6,9.1,5.4,13.7
			c3.7,9.4,7.4,18.8,11.1,28.1c0.8,1.9,3.5,1.7,3.7-0.5c1.4-19.5,1.7-39.1,1-58.7c-0.1-2.4-3.8-2.4-3.8,0c0.7,19.6,0.3,39.2-1,58.7
			c1.2-0.2,2.5-0.3,3.7-0.5c-3.8-9.7-7.6-19.4-11.5-29.1c-1.8-4.7-3.7-9.3-5.5-14c-1.7-4.3-3.7-8.5-6.6-12.2
			c-1.1-1.3-3.2-0.2-3.2,1.3c-0.3,18.3,0,36.6,1.1,54.8C556,242.9,559.8,242.9,559.6,240.5L559.6,240.5z"/>
		<path d="M595.2,210.4c0,10.6,0.4,21.1,1.4,31.6c0.2,2.4,4,2.4,3.8,0c-0.9-9.7-1.3-19.4-1.4-29.2
			C597.5,212.2,596.3,211.4,595.2,210.4z"/>
		<path d="M598.6,243.6c4.9-0.5,9.7-0.9,14.6-1.4c1-0.1,1.9-0.8,1.9-1.9c0-0.9-0.9-2-1.9-1.9c-4.9,0.5-9.7,0.9-14.6,1.4
			c-1,0.1-1.9,0.8-1.9,1.9C596.8,242.6,597.6,243.7,598.6,243.6L598.6,243.6z"/>
		<path d="M599.3,213.1c0.1,0.4,0.2,0.8,0.5,1.1c0.4,0.3,0.8,0.5,1.3,0.5h2.4C602.1,214.3,600.6,213.8,599.3,213.1z"/>
	</g>
	<path d="M743.7,265.8C743.7,265.8,743.6,265.8,743.7,265.8c-0.9,0-1.5-0.5-1.8-1.2l-9.4-22.3L710,265.2c-0.4,0.4-0.9,0.6-1.5,0.6
		c-0.6,0-1.1-0.3-1.5-0.7l-18.6-23l-4.8,14.1c-0.2,0.7-0.8,1.2-1.5,1.3c-0.7,0.1-1.4-0.1-1.9-0.6L665,240.5l-33.3,20
		c-0.6,0.3-1.3,0.4-1.9,0.1c-0.6-0.3-1-0.8-1.1-1.5l-4.9-27.1l-22.5,5.3c-0.7,0.2-1.5-0.1-2-0.7c-0.5-0.6-0.6-1.4-0.3-2.1l8.4-18
		l-28-10.1c-0.7-0.3-1.2-0.9-1.3-1.7s0.3-1.5,0.9-1.9l18.4-11.9l-25.3-20.8c-0.6-0.5-0.8-1.3-0.7-2c0.2-0.7,0.7-1.3,1.5-1.5
		l25.9-6.3v-39.3c0-0.7,0.4-1.4,1-1.8c0.6-0.4,1.4-0.3,2,0.1l30.2,19.1l8-21.5c0.2-0.6,0.7-1.1,1.3-1.2c0.6-0.2,1.3,0,1.8,0.3
		l14.7,11.5l27.5-26.3c0.4-0.4,1.1-0.6,1.7-0.5c0.6,0.1,1.1,0.5,1.4,1l15.6,27.7l27.8-18.4c0.5-0.4,1.2-0.4,1.8-0.2
		c0.6,0.2,1.1,0.8,1.2,1.4l4.1,17.1l33.6-16.8c0.6-0.3,1.3-0.3,1.8,0c0.6,0.3,1,0.9,1,1.5l3.8,31.1l14-8.4c0.6-0.4,1.4-0.4,2,0
		c0.6,0.4,1,1,1,1.7v15.7l22.5-6c0.8-0.2,1.6,0.1,2.1,0.7c0.5,0.6,0.6,1.5,0.2,2.2l-8.9,17.9l25.3,7.7c0.8,0.2,1.3,0.9,1.4,1.7
		c0.1,0.8-0.3,1.6-0.9,2l-30.2,18.3l15.1,32.6c0.3,0.7,0.2,1.5-0.3,2.1c-0.5,0.6-1.2,0.9-2,0.7l-25.9-5.5l-13.5,31
		c-0.3,0.6-0.8,1-1.5,1.2c-0.7,0.1-1.3-0.1-1.8-0.6l-19.5-19.8l-13.1,24.3C745.1,265.4,744.4,265.8,743.7,265.8z M687.8,235.9
		c0.6,0,1.2,0.3,1.6,0.7l19.4,24.1l23-23.4c0.5-0.5,1.1-0.7,1.8-0.6c0.7,0.1,1.2,0.6,1.5,1.2l8.9,21.2l12.4-23
		c0.3-0.6,0.8-0.9,1.5-1c0.6-0.1,1.3,0.1,1.7,0.6l19.3,19.6l13-29.8c0.4-0.9,1.3-1.4,2.2-1.2l23.6,5l-14.2-30.6
		c-0.4-0.9-0.1-2,0.8-2.6l27.9-16.9l-23.2-7c-0.6-0.2-1-0.6-1.3-1.1c-0.2-0.5-0.2-1.2,0-1.7l8-16L795,159c-0.6,0.2-1.2,0-1.7-0.3
		c-0.5-0.4-0.8-1-0.8-1.6v-14.8l-13.7,8.2c-0.6,0.3-1.3,0.4-1.9,0.1c-0.6-0.3-1-0.9-1.1-1.6l-3.8-31.4l-33.3,16.7
		c-0.5,0.3-1.2,0.3-1.7,0c-0.6-0.3-1-0.8-1.1-1.4l-4-16.8l-27.2,18c-0.5,0.3-1,0.4-1.6,0.3s-1-0.5-1.3-1L686.4,106l-26.9,25.7
		c-0.7,0.7-1.8,0.7-2.6,0.1L643,121.1l-7.9,21.2c-0.2,0.6-0.7,1-1.2,1.2c-0.6,0.2-1.2,0.1-1.7-0.2l-29.2-18.5V162
		c0,0.9-0.6,1.7-1.5,1.9l-23.5,5.7l24.3,20c0.5,0.4,0.8,1,0.7,1.7c0,0.6-0.4,1.2-0.9,1.6l-17.3,11.2l26.2,9.5c0.5,0.2,1,0.6,1.2,1.1
		c0.2,0.5,0.2,1.1,0,1.6l-7.6,16.3l20.5-4.9c0.5-0.1,1.1,0,1.6,0.3c0.5,0.3,0.8,0.8,0.9,1.3l4.7,26.3l32.2-19.4
		c0.8-0.5,1.8-0.3,2.5,0.4l14.1,15.1l4.9-14.4c0.2-0.7,0.8-1.2,1.5-1.3C687.5,235.9,687.6,235.9,687.8,235.9z M600.9,162L600.9,162
		L600.9,162z"/>
	<path d="M661.4,159.7c-5.3,0.2-10.7,0.2-16,0.1c-0.4-0.1-0.8-0.1-1.1,0c-1.5,0.1-2,1.7-1.4,2.8c-0.6,15.8-1.2,31.5-1.7,47.3
		c-0.1,2.4,3.7,2.4,3.8,0c0.3-9.2,0.7-18.4,1-27.6c0.3,0.1,0.5,0.1,0.8,0.2c2.8,0.1,5.6,0.2,8.4,0.4c1.2,0.1,2.3-0.9,2.2-1.9
		c-0.1-1.1-1-1.8-2.2-1.9c-2.8-0.1-5.6-0.2-8.4-0.4c-0.2,0-0.5,0-0.7,0.1c0.2-5.1,0.4-10.2,0.6-15.3c5,0.1,9.9,0,14.9-0.1
		C663.8,163.4,663.8,159.6,661.4,159.7z"/>
	<path d="M698.9,214.4c-7.6-10-11.3-22.3-18.8-32.4c1.9,0.5,3.8,0.7,5.8,0.6c3.3-0.3,7.2-1.5,8.9-4.6c1.7-3.2,0.8-7.5-0.6-10.6
		c-1.4-3.1-3.6-5.5-6.5-7.2c-3-1.8-6.6-3.1-10.1-3.3c-1-0.1-1.6,0.6-1.8,1.4c0,0.2-0.1,0.3-0.1,0.5c-2.1,18.1-4.2,36.1-6.3,54.2
		c-0.1,1,0.9,1.9,1.9,1.9c1.1,0,1.8-0.9,1.9-1.9c1.1-9.8,2.3-19.6,3.4-29.4c7.7,10.1,11.5,22.6,19.1,32.7c0.6,0.8,1.6,1.2,2.6,0.7
		C699,216.5,699.5,215.2,698.9,214.4z M691.6,171.4c0.3,1.5,0.7,3.6-0.2,4.9c-0.8,1.3-2.5,1.8-3.9,2.2c-3.4,0.9-7,0.2-10-1.8
		c-0.1,0-0.1-0.1-0.2-0.1c0.6-5.3,1.2-10.6,1.8-15.8c2.5,0.5,4.9,1.6,7,2.8C688.9,165.4,690.8,168.2,691.6,171.4z M676.8,180.7
		c0.1,0,0.1,0.1,0.2,0.1c-0.1,0.1-0.2,0.1-0.2,0.2C676.8,180.9,676.8,180.8,676.8,180.7z"/>
	<path d="M714.8,162.1c5.8,0,11.6,0,17.4,0c2.4,0,2.4-3.8,0-3.8c-6.4,0-12.8,0-19.3,0c-1.6,0-2.1,1.7-1.6,2.8
		c-0.2,0.3-0.3,0.6-0.3,0.9c-0.4,17.2-0.2,34.4,0.8,51.5c0,0.5,0.2,0.9,0.5,1.2c0.3,0.4,0.8,0.6,1.4,0.7c6.1,0.3,12.2-0.5,18.2-1.6
		c1-0.2,1.6-1.4,1.3-2.3c-0.3-1-1.3-1.5-2.3-1.3c-5.1,1-10.3,1.6-15.4,1.5c-0.4-7.6-0.7-15.2-0.8-22.9c1.9,0.4,3.9,0.4,5.8-0.1
		c1-0.2,1.6-1.4,1.3-2.3c-0.3-1-1.3-1.6-2.3-1.3c-0.3,0.1-0.6,0.1-0.8,0.2c-0.8,0.1-1.7,0.1-2.5,0c-0.4-0.1-0.8-0.1-1.3-0.3
		c-0.1,0-0.2,0-0.2,0C714.5,177.5,714.6,169.8,714.8,162.1z"/>
	<path d="M762.2,211.8c-5.3,0.4-10.6,0.5-15.9,0.3c0-7.3,0.1-14.6,0.3-21.9c0.3,0.1,0.6,0.1,0.9,0c0.3,0,0.5-0.1,0.8-0.1
		c1.6-0.2,3.1-0.2,4.7-0.1c0.5,0,1-0.2,1.3-0.5c0.3-0.3,0.6-0.9,0.5-1.3c0-0.5-0.2-1-0.5-1.3c-0.4-0.4-0.8-0.5-1.3-0.5
		c-2.1-0.2-4.2-0.1-6.2,0.3c0.2-7,0.5-14.1,1-21.1c1.6-0.1,3.2-0.2,4.8-0.3c1.1-0.1,2.2-0.1,3.3-0.1c0.5,0,1,0,1.6,0
		c0.3,0,0.6,0,0.9,0.1c0.1,0,0.3,0,0.4,0c-0.2,0-0.1,0,0.1,0c1,0.2,2-0.3,2.3-1.3c0.2-0.9-0.3-2.2-1.3-2.3
		c-4.6-0.7-9.2,0.2-13.9,0.2c-1,0-1.9,0.9-1.9,1.9c-1.1,16.9-1.6,33.8-1.5,50.8c0,1.8,2,2.2,3.1,1.4c0.1,0,0.2,0,0.3,0
		c5.4,0.2,10.9,0.1,16.3-0.3c1-0.1,1.9-0.8,1.9-1.9C764.1,212.7,763.2,211.7,762.2,211.8z"/>
</g>
</svg>
