<?xml version="1.0" encoding="utf-8"?>
<!-- Generator: Adobe Illustrator 24.0.1, SVG Export Plug-In . SVG Version: 6.00 Build 0)  -->
<svg version="1.1" id="Calque_1" xmlns="http://www.w3.org/2000/svg" xmlns:xlink="http://www.w3.org/1999/xlink" x="0px" y="0px"
	 viewBox="0 0 1000 666" style="enable-background:new 0 0 1000 666;" xml:space="preserve">
<style type="text/css">
	.st0{fill:#1E1E1C;}
	.st1{fill:#1E1E1C;stroke:#1E1E1C;stroke-width:0.25;stroke-miterlimit:10;}
	.st2{fill:#1E1E1C;stroke:#1E1E1C;stroke-width:0.15;stroke-miterlimit:10;}
</style>
<g>
	<g id="Calque_1_1_">
		<path class="st0" d="M643.2,139c0-3.6-0.6-7.2-1.8-10.5c-0.8-1.4-2.6-1.9-4-1.1c-1,0.4-2,0.9-3,1.4c-4.5-8.1-8.9-16.1-13.4-24.2
			c-3.3-6.1-8.4-16-16.7-15.7c-7.5,0.4-12.3,10.1-15.9,15.5c-5.2,7.8-9.8,15.9-13.7,24.4c-1.9,3.8,4,7.4,5.7,3.3
			c3.1-6.7,6.5-13.1,10.4-19.3c2-3.3,4.1-6.4,6.3-9.6c1.6-2.2,4-7.1,7-7.7c3-0.6,6.4,4.5,8,6.8c2.1,3.2,3.8,6.5,5.6,9.8l11.2,20.2
			l-1.2,0.8c-1.2,0.4-2.1,1.3-2.6,2.5c-0.7,1.8,0.1,3.9,1.8,4.8c3.2,2.5,6.6,4.9,10,7.2c1.7,1.1,4.2,2.2,5.9,0.3
			C644.6,146,643.4,141.4,643.2,139z"/>
		<path class="st0" d="M670.3,192.4c-3.8-8.9-8.5-17.3-12.7-25.9c-1.9-3.8-7.6-0.5-5.7,3.3c3.4,6.8,6.8,13.7,10.1,20.5
			c1.8,3.1,3.2,6.5,4.1,10c0.5,1.6,0.5,3.3,0,4.9c-0.8,1.6-2.6,1.8-4.2,2.2c-12.4,3.2-25.2,5-38,5.4c-0.1,0-0.3,0-0.4,0l-0.2-2.5
			c0.3-1.3-0.1-2.6-0.9-3.6c-1.3-1.5-3.5-1.9-5.2-0.9c-4.2,1.5-8.3,3.3-12.2,5.4c-1.7,0.9-3.5,2.7-2.5,4.9c1,2.1,5.9,4,8.3,5.1
			c3,1.7,6.2,3,9.6,3.6c2,0,2.7-1.2,3-3c0.1-0.8,0.2-1.7,0.2-2.5h0.2c7.7-0.1,15.3-0.8,22.9-2c3.7-0.7,7.4-1.4,11.1-2.3
			c3.9-0.4,7.7-1.6,11.1-3.4C675.3,207.4,672.8,198.1,670.3,192.4z"/>
		<path class="st0" d="M572.8,209.8c-6.7,0.1-13.4-0.4-20-1.5c-3-0.3-5.9-0.8-8.9-1.5c-3.2-0.9-3.3-3-2.1-5.7c2.8-5.6,6-11,9.5-16.2
			c3.4-5.7,6.7-11.3,10.1-16.9l1.5,0.6c0.9,0.7,2.1,1,3.3,0.9c2.3-0.3,3.2-2,3.4-4.1c0.3-4.1,0.3-8.2,0.2-12.3c0-1.9-0.3-4.4-2.6-5
			c-2.3-0.5-5.2,2.3-7,3.7c-3.3,2.2-6.2,4.9-8.7,8c-0.9,1.2-0.7,3,0.6,3.9c0.1,0.1,0.3,0.2,0.4,0.3c0.8,0.6,1.7,1.1,2.6,1.5
			c-4.1,6.9-8.2,13.7-12.3,20.7c-3.2,5.4-9.3,12.5-8.5,19.4s8.1,7.9,13.7,8.9c8.1,1.5,16.3,2.2,24.5,2.2
			C576.9,216.3,577,209.7,572.8,209.8z"/>
		<path class="st1" d="M610.6,164.6c-0.6-0.6-1.9-1.8-3.8-3.4l-1.3-1.1l-0.8-0.7l0.8-0.9c2.5-3,3.8-6.8,3.7-10.6
			c0-1.1-0.1-2.3-0.3-3.4c-0.2-3.3-2-6.2-4.8-7.8c-1.2-0.5-2.5-0.8-3.8-0.8c-0.7,0-1.4,0.1-2.1,0.3c-1.7,0.6-2.6,1.6-2.6,2.8
			c0,0.6,0.3,1.2,0.9,1.5c0.7,0.4,1.6,0.5,2.5,0.3c0.6-0.2,1.3-0.3,1.9-0.3c0.9,0,3.5,0,3.5,7.4c0.1,1.4,0,2.9-0.4,4.3
			c-0.6,2-1.9,3.8-3.7,4.9c-1.6,1-2.3,1.9-2.3,3c0,1,1,2,3.4,3.3c5.1,2.1,8.4,7.1,8.3,12.6c0.4,5-2.8,9.7-7.7,11.1
			c-1.3,0.3-2.6,0.5-4,0.4c-2.6,0-3.3,0.3-3.7,0.7c-0.8,0.8-0.9,2-0.1,2.8c0,0,0.1,0.1,0.1,0.1c0.6,0.7,1.4,1.2,2.3,1.2h2.6
			c1.6,0,3.2-0.4,4.6-1.1h0.1c3-1.3,5.6-3.2,7.7-5.7c1.8-2.7,2.6-5.8,2.4-9C614.6,172.1,613.3,167.9,610.6,164.6z"/>
		<path class="st0" d="M576,234.6c-2.1-1.7-4.7-2.7-7.3-3h-0.5c-1.1,0.2-2,1.1-2.1,2.2c-0.1,0.7-0.1,1.5,0,2.2c0,2.6,0,6.1,0.3,10.5
			c0,2.6,0.2,8.1,0.3,16.4c0.1,13.5,0.2,14.1,0.3,14.4c0.1,0.6,0.3,1.1,0.7,1.5c0.4,0.4,1,0.7,1.5,0.7c0.8-0.1,1.6-0.4,2.2-1.1
			l0.3-0.4v-8.4v-4.2c0-3,0-3.6,0-3.6c0.5-0.5,1-0.9,1.6-1.2c1.1-0.7,2.2-1.5,3.3-2.4c1.6-1.2,3-2.7,4.1-4.4
			c0.9-1.5,1.5-3.1,1.8-4.8c0.1-0.8,0.2-1.5,0.2-2.3c0-2.4-0.6-4.8-1.7-6.9C579.8,237.7,578.1,235.9,576,234.6z M577.7,247.2
			c0,0.6-0.1,1.3-0.2,1.9c-0.7,2.3-2.1,4.4-4,5.9l-2.1,1.6c0-1.4-0.2-3.8-0.4-8.4c0-1.2,0-3-0.2-5.3c-0.2-2.4,0-3.9-0.2-4.3v-1.7
			h0.4c3,1.2,5.2,3.6,6.2,6.6C577.6,244.6,577.8,245.9,577.7,247.2z"/>
		<path class="st0" d="M614.9,238.4c-0.3,0.6-0.6,1.3-0.7,2c-0.4,1.6-0.8,3.1-1.3,4.6c-4.1,13.4-6.9,22.3-8.4,26.6
			c-0.5-1.4-1.5-4-3.4-8.9c-8.7-23.2-9.2-23.6-9.5-24c-0.4-0.5-1-0.8-1.7-0.8c-1.1,0-2,0.8-2.1,1.9c0,0.1,0,0.2,0,0.3
			c0.2,1.3,0.6,2.5,1.2,3.7c0.2,0.5,0.6,1.5,1.1,3l1.1,3c2.7,7.7,5.3,14.5,7.7,20.3c3.7,8.9,4.2,9.5,4.6,9.8
			c0.4,0.3,0.9,0.5,1.4,0.5c1,0,1.8-0.7,2.2-1.6c0.3-0.6,1.1-2.2,9.7-30.8c1-2.6,1.7-5.4,2.1-8.2c0-0.6-0.2-1.2-0.6-1.7
			c-0.9-0.9-2.3-0.9-3.2,0C615,238.3,615,238.4,614.9,238.4z"/>
		<path class="st0" d="M638.3,275.2c-1.3-0.1-2.7-0.4-3.9-0.9c-0.9-0.5-1.7-1.2-2.3-2.1c-2.5-4.6-3.6-9.8-3.1-15
			c-0.1-3.6,0.2-7.1,0.9-10.6c0.6-2.5,1.7-4.9,3.3-6.9c0.7-1.1,1.7-1.9,3-2.2c2.1-0.5,2.6-1.5,2.6-2.3c0-0.6-0.4-1.2-0.9-1.5
			c-0.4-0.4-1-0.6-1.6-0.7h-0.4c-0.4,0-0.8,0-1.2,0c-2.6,0.8-4.7,2.6-5.9,5.1c-2.4,3.8-3.8,8.2-4.1,12.7c-0.2,2-0.3,4.1-0.2,6.1
			c-0.1,2.2-0.1,4.4,0,6.6c0.4,4.4,2,8.6,4.6,12.2c2.3,2.7,5.7,4.2,9.2,4.2h0.4c2,0,2.7-1.2,2.7-2.2
			C641.1,276.5,640.7,275.5,638.3,275.2z"/>
	</g>
	<g id="Calque_1_3_">
		<path class="st1" d="M400.7,185c-3.2-0.7-6.4-1-9.6-0.8c-1.7,0-5.9,0-8-0.2c3.5-4.9,6.7-10.1,9.7-15.4c3.1-4.4,5.9-9.1,8.3-14
			c0.7-2.3,1-4.8,1.1-7.2v-1.2c0-5.6-2.2-9.4-6.5-11.1c-1.4-0.6-3-0.8-4.5-0.7c-2.5-0.1-4.9,0.4-7.1,1.6l0,0c-0.6,0.4-1,1.1-1.1,1.8
			c0,0.7,0.3,1.7,2.5,1.7c0.7,0,1.4-0.1,2.1-0.4c0.4-0.2,0.8-0.3,1.3-0.3c0.4,0,0.8-0.1,1.1-0.4h0.4c1,0,2,0.1,3,0.4
			c1.2,0.2,2.3,0.9,3,2c0.9,1.8,1.3,3.9,1.2,5.9c0,2.4-0.4,4.7-1.1,6.9c-2.8,5.7-6.1,11.1-9.8,16.3c-10.2,15.2-10.2,15.5-10.2,15.9
			c-0.1,1.2,0.7,2.2,1.9,2.5c0.7,0.2,4.3,0.3,11.8,0.5h3h5.7c0.8,0.1,1.6,0,2.3-0.3c0.3-0.2,1.4-0.8,1.3-1.8S401.2,185.2,400.7,185z
			"/>
		<path class="st0" d="M363.3,207.2c-6.5,0.1-13-0.2-19.4-0.9c-3.4-0.4-6.7-0.9-10.1-1.5c-2.3-0.4-3,0-2.3-2.4
			c0.4-1.5,0.9-2.9,1.4-4.3c4.2-10,8.9-19.7,14.1-29.1c1.8,0.7,3.6,1.2,5.5,1.6c1,0.2,2-0.4,2.3-1.4c0-0.1,0-0.3,0.1-0.4
			c0.2-4.5,0-9.1-0.3-13.6c-0.2-2.4-0.2-6.2-3-7.3c-2.7-1.1-4.1,1.6-5.4,3.3c-0.7,0.9-1.4,1.8-2,2.7s-2.3,2.6-3.4,3.9
			c-1.1,1.2-2,2.5-2.7,3.9c-0.4,0.6-0.5,1.3-0.2,2c0.5,0.6,1.1,1.1,1.7,1.5l1.5,1c-2.7,5.1-5.3,10.2-7.7,15.3
			c-3.3,6.7-7.7,14-8.9,21.5c-1.2,8.1,7.6,8.2,13.5,9.1c8.3,1.2,16.7,1.8,25.1,1.7c1.8-0.1,3.2-1.7,3.1-3.5
			C366.1,208.7,364.9,207.4,363.3,207.2z"/>
		<path class="st0" d="M455.4,192c-3-7.3-5.9-14.5-8.9-21.8c-1.6-3.9-8-2.2-6.4,1.8l6.8,16.8c1.1,2.7,2.2,5.3,3.2,8
			c0.5,1.4,2.5,6.3,1.1,7.6c-1.2,0.4-2.4,0.7-3.6,0.7l-4.2,0.7c-3.5,0.5-6.9,0.9-10.4,1.2c-5.7,0.4-11.5,0.6-17.2,0.4
			c-0.2-2.3,0-5.7-2.1-7.2c-2.1-1.6-4.6-0.2-6.7,0.9c-3.9,2.2-7.7,4.5-11.3,7.1c-0.4,0.2-3.9,2-1.3,5c2.3,1.4,4.7,2.7,7.1,3.8
			c3.5,2,7.2,3.4,11,4.4c1.7,0.3,3.4-0.8,3.7-2.6c0,0,0,0,0-0.1c0.2-1.5,0.3-3.1,0.1-4.6c7.2,0.2,14.4-0.1,21.5-0.9
			c3.6-0.4,7.2-0.9,10.8-1.6c2.9-0.1,5.7-1.1,7.9-3C460.5,204,457.2,196.3,455.4,192z"/>
		<path class="st0" d="M434.6,140.6c-0.5-3.9-1.6-7.8-3.3-11.3c-0.7-1.4-2.3-1.9-3.7-1.2c-0.2,0.1-0.4,0.3-0.6,0.4
			c-0.4,0.2-0.7,0.6-1.1,0.9c-0.4,0-0.8,0.1-1.2,0.2c-4.8-8.7-9.8-17.2-15.1-25.6c-4.3-6.6-10-19.9-19.9-13.9
			c-6.4,3.9-11,11.8-14.9,18c-4.5,7.1-8.7,14.4-12.7,21.8c-2.1,3.7,3.6,7.1,5.7,3.3c6.5-11.8,13.1-24.5,22.2-34.5
			c1-1.2,2.7-3.2,4.4-3.5c2.2-0.4,3.7,3.2,4.7,4.7c2.6,3.8,5.1,7.7,7.6,11.6c4.5,7.2,8.7,14.4,12.8,21.8c-1.6,1.4-2.7,3.4-3,5.5
			c-0.8,2.4,1.4,4,3.2,5.3c2.7,2.1,12.3,9.5,15.5,5.1C436.6,147.2,435.1,142.9,434.6,140.6z"/>
		<path class="st0" d="M365.3,235.3c-0.6-0.9-1.9-1.1-2.7-0.5l0,0c-0.7,0.7-1,1.6-0.9,2.6c0,0.5,0,2.4,0.4,5.7
			c0.3,4.4,0.4,7.3,0.4,8.5v1.7h-10v-7.4c0-8.7-0.2-9.2-0.4-9.6c-0.3-0.7-1-1.2-1.8-1.2c-1,0-1.8,0.6-2.1,1.6c0,0.3-0.2,0.6-0.2,21
			v20.7l0.3,0.3c0.5,0.6,1.3,1,2.1,1c0.6-0.1,1.2-0.4,1.5-0.9c0.2-0.4,0.4-0.6,0.5-11.3v-9.2h10.6c0,0.4,0,1,0,1.8
			c0,1.9,0.2,4.9,0.3,9c0.1,4.2,0.2,7.4,0.4,8.5c0,1.2,0.6,2.3,1.5,3c0.3,0.2,0.7,0.3,1.1,0.4c0.2,0,0.4,0,0.5,0
			c0.6-0.2,1-0.7,1.2-1.2v-0.3c0-0.4,0-0.7,0-1.1c0-1.9-0.5-11.4-1.5-29.1C366,236.3,365.7,235.7,365.3,235.3z"/>
		<path class="st0" d="M390,239.6c-0.7-1-1.5-1.9-2.4-2.7c-0.9-0.9-1.9-1.7-3-2.4c-2.3-1.5-5-2.3-7.7-2.4c-0.6,0-1.1,0-1.7,0.2
			c-0.7,0.1-1.3,0.6-1.6,1.3c-0.2,0.8-0.3,1.6-0.3,2.4c0,1.9,0,5.4,0.4,10.8c0.4,5.4,0.4,8.6,0.4,9.9c-0.1,7,0.3,14,1.1,21
			c0.2,0.9,1,1.9,3.3,2h0.5c7.9,0.1,14.6-5.9,15.3-13.8c0.3-2.1,0.4-4.1,0.3-6.2c0-2.5-0.1-5-0.3-7.4
			C393.8,247.7,392.4,243.5,390,239.6z M389.5,265.8c-0.7,4.6-4.3,8.2-8.9,8.9c-0.5,0.1-1,0.2-1.5,0.2c-0.5-4.4-0.7-8.8-0.8-13.2
			c0-0.4,0-2.7,0-6.9s-0.2-7.7-0.3-10.8c-0.1-3.1-0.3-5.3-0.4-6.5c0-0.4,0-0.7,0-0.9c0.6,0.1,1.1,0.2,1.7,0.4l0,0
			c2.3,0.7,4.4,2,5.9,3.8c2.9,4.1,4.5,9,4.6,14.1c0,1.7,0.1,3,0.1,4.3C390.1,261.4,390,263.6,389.5,265.8z"/>
		<path class="st0" d="M409.8,234.1c-2.1-1.7-4.7-2.7-7.3-3H402c-1.1,0.2-2,1.1-2.1,2.2c-0.1,0.7-0.1,1.5,0,2.2
			c0,2.6,0,6.1,0.3,10.5c0,2.6,0.2,8.1,0.3,16.4c0.1,13.5,0.3,14.1,0.3,14.4c0.1,0.6,0.3,1.1,0.7,1.5c0.4,0.4,1,0.7,1.5,0.7
			c0.8-0.1,1.6-0.4,2.2-1.1l0.3-0.4l-0.1-8.4v-4.2c0-3,0.1-3.6,0-3.6c0.5-0.5,1-0.9,1.6-1.2c1-0.7,2.2-1.5,3.3-2.4
			c1.6-1.2,3-2.7,4.1-4.4c0.9-1.5,1.6-3.1,1.8-4.8c0.1-0.8,0.2-1.5,0.2-2.3c0-2.4-0.6-4.8-1.7-6.9
			C413.5,237.3,411.9,235.4,409.8,234.1z M411.5,246.7c0,0.6-0.1,1.3-0.2,1.9c-0.7,2.3-2.1,4.4-4,5.9c-0.8,0.7-1.5,1.2-2.1,1.6
			c0-1.4-0.2-3.8-0.4-8.4c0-1.2-0.1-3-0.2-5.3c0-2.4-0.1-3.9-0.2-4.3v-1.7h0.4c3,1.2,5.2,3.6,6.2,6.6
			C411.4,244.1,411.6,245.4,411.5,246.7z"/>
		<path class="st0" d="M432.8,275.1c-1.2-0.2-2.4-0.3-3.6-0.4h-2.6c-0.2-1.2-0.2-2.4-0.3-3.7c-0.1-3-0.2-5.4-0.2-7.8
			c0-0.8,0-1.7,0-2.5v-0.8c1,0,2.5-0.3,3-1.3c0.2-0.4,0.4-0.8,0.4-1.2c0-0.8-0.4-2.2-3.4-2.2l0,0l0,0c0-0.2,0-1.8-0.2-9.5V238h0.3
			c1-0.1,2-0.2,3-0.1c4.1,0,5-0.3,5.3-1c0.8-0.8,0.7-2.1-0.1-2.8c0,0-0.1-0.1-0.1-0.1c-0.6-0.5-1.3-0.5-3.6-0.5c-1.2,0-2.3,0-3.3,0
			h-1.1H425c-0.6,0-1.1,0-1.7,0l-0.4,0.1c-0.3,0.1-0.5,0.2-0.8,0.4c-0.2,0.2-0.4,0.4-0.6,0.6v0.3c-0.3,2.1-0.4,4.2-0.2,6.3
			c0,6.2,0,13.7,0.3,22.4c0.2,13.3,0.5,13.8,0.6,14.2c0.3,0.8,1,1.4,1.8,1.5c1.5,0.1,3,0.1,4.4,0l0,0h4.9l0.3-0.6
			c0.6-1,0.8-1.6,0.6-2.2C434.1,275.7,433.5,275.2,432.8,275.1z"/>
	</g>
	<g id="Calque_1_4_">
		<path class="st0" d="M786.3,209.7c-6.7,0.3-13.4,0-20.1-0.9c-4.9-0.6-15.6,0-13.3-7.9c1.2-2.9,2.7-5.7,4.5-8.3
			c1.6-2.7,3.2-5.5,4.7-8.2c2.5-4.6,4.9-9.4,7.2-14.1c1.8,0.8,3.8,0.9,5.7,0.5c2.5-0.9,2.7-3,2.8-5.3c0.3-4,0.8-8.1,0.8-12
			c0.1-1.3-0.4-2.5-1.2-3.5c-0.2-0.6-0.6-1-1.2-1.1c-3-0.8-5.3,1.6-7.4,3.3c-2.8,2.1-5.5,4.3-7.9,6.8c-1.4,1.5-3.4,3.6-2.3,5.9
			c1.1,1.6,2.7,2.7,4.5,3.3c-3,5.9-5.8,11.6-8.9,17.2c-3.1,5.6-9.3,12.7-8,20.1c1.3,7.4,7.7,8.5,13.7,9.3c8.8,1.4,17.7,1.9,26.6,1.7
			C790.5,216.1,790.5,209.5,786.3,209.7z"/>
		<path class="st0" d="M850.4,134.6c0-1.9-0.2-3.8-0.7-5.7c0-0.3,0-0.6-0.2-0.9c-1.5-3.1-4.3-1.9-6.7-0.6c-2.7-6.8-6-13.5-9.8-19.8
			c-3.5-5.9-8-15.1-14.8-17.7c-7.5-3-12.4,4.2-16.1,9.5c-5.5,7.4-9.8,15.7-14.5,23.7c-0.8,1.6-0.2,3.6,1.4,4.5
			c1.5,0.8,3.3,0.3,4.3-1.1c3.6-6.3,7.1-12.6,11-18.8c1.7-2.8,3.6-5.6,5.7-8.2c2.2-3,4.2-5.1,7.6-2.3c4.7,3.9,8.1,10.9,11.1,16.1
			c3.2,5.6,6,11.4,8.4,17.4c-1.9,1-3.5,2.5-4.6,4.3c-1.6,3.3,1.8,5.7,4,7.5c1.7,1.5,3.6,2.9,5.5,4.2c1.4,1.3,3,2.2,4.8,2.6
			c3.4,0.2,3.8-4.7,3.9-7.1C850.7,139.7,850.6,137.1,850.4,134.6z"/>
		<path class="st0" d="M881.5,190.9c-3.2-7.4-6.9-14.6-11.2-21.5c-1-1.5-3.1-1.9-4.6-0.9c-1.4,0.9-1.9,2.8-1.1,4.3
			c3.4,5.5,6.5,11.3,9.3,17.1c1.3,2.9,2.4,5.8,3.4,8.9c0.6,2.1,2.7,7.3,1,9c-1.7,1.8-6.4,1.2-8.3,1.3c-3.3,0.2-6.7,0.5-10,0.7
			c-6.9,0.4-13.8,0.4-20.7,0c0.5-2.6-0.2-5.2-2-7.2c-2.7-2-7.2,1-9.7,2.2c-2.5,1.2-8.1,3.1-9.7,5.9c-1.6,2.8,0.6,4.3,2.7,5.4
			c4.1,2.1,8.3,3.9,12.6,5.5c4.9,1.7,6.2-1.3,6.3-5.2c8.5,0.5,17,0.4,25.5-0.1c5.7-0.4,15.5,0.6,19.2-4.9S883.7,196.2,881.5,190.9z"
			/>
		<path class="st1" d="M827.2,174.8c-0.3-0.3-0.9-0.6-4.6-0.6l0,0h-3v-2.4c0-2.8-0.4-3.6-0.7-4l0,0c-0.8-0.8-2.1-0.8-3,0
			c-0.3,0.3-0.5,0.8-0.6,4v2.3h-1.2c-0.6,0.1-1.2,0.1-1.7,0c-1.9,0.2-3.9-0.1-5.7-0.8c0,0,0-0.1,0-0.8c0-0.6,0-0.5,0-0.9
			s0-1,0.1-1.8c0.1-0.8,0-1.5,0.2-2.2c0.4-5.2,0.9-12.2,1.2-20.7l0.3-7.8l-0.6-0.4c-0.9-0.9-1.6-1.3-2.1-1.3c-1.3,0-1.6,1.7-1.7,2.3
			c-0.2,1.1-0.4,3.4-0.6,6.9c0,2.5-0.3,4.4-0.4,5.9l0,0c-0.8,10.3-1.1,17-1.1,20.2c-0.1,1,0,2,0.4,3c0.9,1,2.1,1.6,3.4,1.8
			c2.8,0.5,5.6,0.9,8.5,1h1v2c0,5.4,0.5,6.6,0.9,7.1c0.4,0.4,0.9,0.7,1.5,0.7h0.7c0.8-0.2,1.4-1,1.4-1.8v-8h2.3
			c1.3,0,2.6-0.1,3.9-0.4c0.7-0.3,1.2-0.8,1.5-1.4C827.9,176.1,827.8,175.3,827.2,174.8z"/>
		<path class="st0" d="M783.2,275.5h-1.4c0-1.8-0.3-7.7-0.4-23.8c-0.1-14.3-0.2-14.5-0.4-14.8c-0.3-1-1.1-1.6-2.1-1.7
			c-0.5,0-0.9,0.3-1.2,0.6c-0.5,0.4-0.6,0.5-0.6,18.6c0,21,0.2,22,0.3,22.3c0.1,1.3,0.7,2.4,1.8,3.2c0.2,0,0.4,0.2,3.3,0.4h2.1
			c0.6,0,1.1-0.1,1.6-0.4c0.6-0.4,1-1,1.1-1.8c0-0.7-0.3-1.3-0.8-1.7C785.6,275.7,784.4,275.3,783.2,275.5z"/>
		<path class="st0" d="M809.3,240.2c-0.7-1-1.5-1.9-2.4-2.7c-0.9-0.9-1.9-1.7-3-2.4c-2.3-1.5-5-2.3-7.7-2.4c-0.6,0-1.1,0-1.7,0.2
			c-0.7,0.1-1.3,0.6-1.6,1.3c-0.2,0.8-0.3,1.6-0.3,2.4c0,1.9,0,5.5,0.4,10.8c0.4,5.3,0.4,8.6,0.4,9.9c-0.1,7,0.2,14,1.1,21
			c0.2,0.9,1,1.9,3.3,2h0.5c7.9,0.1,14.6-5.9,15.3-13.8c0.3-2.1,0.4-4.1,0.3-6.2c0-2.5-0.1-5-0.3-7.4
			C813,248.3,811.6,244,809.3,240.2z M808.9,266.4c-0.7,4.6-4.3,8.2-8.9,8.9c-0.5,0.1-1,0.2-1.5,0.2c-0.5-4.4-0.7-8.8-0.8-13.2
			c0-0.4,0-2.7,0-6.9c0-4.1-0.2-7.7-0.3-10.8c0-2.2-0.2-4.3-0.5-6.5c0-0.4,0-0.7,0-0.9c0.6,0.1,1.1,0.2,1.7,0.4l0,0
			c2.3,0.7,4.4,2,5.9,3.8c2.9,4.1,4.5,9,4.6,14.1c0,1.7,0.1,3,0.1,4.3C809.5,261.9,809.3,264.2,808.9,266.4z"/>
		<path class="st0" d="M829.1,234.6c-2.1-1.7-4.7-2.7-7.3-3h-0.5c-1.1,0.2-2,1.1-2.1,2.2c-0.1,0.7-0.1,1.5,0,2.2
			c0,2.5,0,6.1,0.3,10.5c0,2.6,0.2,8.1,0.3,16.4c0.1,13.5,0.3,14.1,0.3,14.4c0.1,0.6,0.3,1.1,0.7,1.5c0.4,0.4,1,0.7,1.5,0.7
			c0.8-0.1,1.6-0.4,2.2-1.1l0.3-0.4l-0.1-8.4v-4.2c0-3,0-3.6,0-3.6c0.5-0.5,1-0.9,1.6-1.2c1-0.7,2.2-1.5,3.3-2.4
			c1.6-1.2,3-2.7,4.1-4.4c0.9-1.5,1.5-3.1,1.8-4.8c0.1-0.8,0.2-1.5,0.2-2.3c0-2.4-0.6-4.8-1.7-6.9
			C832.7,237.8,831.1,236,829.1,234.6z M830.7,247.2c0,0.6-0.1,1.3-0.2,1.9c-0.7,2.3-2.1,4.4-4,5.9c-0.8,0.7-1.5,1.2-2.1,1.6
			c0-1.4-0.2-3.8-0.4-8.4c0-1.2,0-3-0.2-5.3c-0.2-2.4,0-3.9-0.2-4.3v-1.7h0.4c3,1.1,5.2,3.6,6.2,6.6
			C830.6,244.7,830.8,245.9,830.7,247.2z"/>
		<path class="st0" d="M852,275.6c-1.2-0.2-2.4-0.3-3.6-0.4h-2.6c-0.2-1.2-0.2-2.4-0.3-3.7c0-2.8-0.2-5.4-0.2-7.8c0-0.8,0-1.7,0-2.5
			v-0.8c1,0,2.5-0.3,3-1.3c0.2-0.4,0.4-0.8,0.4-1.2c0-0.8-0.4-2.2-3.4-2.2l0,0l0,0c0-0.2,0-1.5-0.2-9.5v-7.7h0.3c1-0.1,2-0.2,3-0.1
			c4.1,0,5-0.3,5.3-1c0.8-0.8,0.8-2,0-2.8c-0.1-0.1-0.1-0.1-0.2-0.2c-0.4-0.4-1.2-0.7-3.5-0.7c-1.2,0-2.3,0-3.3,0h-1.1h-1.1
			c-0.6,0-1.1,0-1.7,0l-0.4,0.1c-0.3,0.1-0.6,0.2-0.8,0.4c-0.2,0.2-0.4,0.4-0.5,0.6v0.3c-0.5,2.1-0.7,4.3-0.6,6.5
			c0,6.2,0,13.8,0.2,22.4c0.3,13.3,0.5,13.8,0.7,14.2c0.3,0.8,1,1.4,1.8,1.5c1.5,0.1,3,0.1,4.4,0l0,0h4.9l0.3-0.6
			c0.6-1,0.8-1.6,0.6-2.2C853.3,276.3,852.7,275.8,852,275.6z"/>
	</g>
	<g id="Calque_1_6_">
		<path class="st0" d="M150.5,214c-7,0.8-14,1.2-21,1.2c-4.8,0-12.6,0-12.1-6.7c0.5-3.4,1.4-6.7,2.7-9.9c1-3.1,2.1-6.3,3.2-9.4
			c1.9-5.4,4-10.8,6.2-16c2.3,1.1,5.1,0.8,7.1-0.8c1.1-1.4,1.6-3.3,1.4-5.1c0-3.4,0.2-6.8,0.2-10.2c0-2.7-0.8-7.1-4.7-5.6
			c-2.3,1.3-4.3,3.1-5.9,5.1c-1.3,1.3-2.5,2.7-3.6,4.1c-1.2,1.3-2.2,2.7-3.1,4.1c-2,3.2-0.4,4.9,2.6,5.9c-2.5,6.1-4.9,12.2-7.1,18.5
			c-1.5,4.2-3,8.5-4.2,12.7c-1.5,3.6-1.8,7.6-0.9,11.3c2,5.9,8.2,8,13.8,8.5c8.5,0.5,16.9,0.1,25.3-1
			C154.7,220.1,154.8,213.5,150.5,214z"/>
		<path class="st0" d="M218,143.9c0-0.4,0-0.7,0-1.1c0.1-0.7,0.1-1.5,0-2.2c0-3-0.2-6.1-0.5-9.2c-0.2-2.5-0.4-5.4-3-6.6
			c-2.2-0.8-4.6-0.4-6.4,1.1c-3.7-5.9-7.4-11.8-11.2-17.7c-4.6-6.8-10.3-15.7-18.7-18.3c-9-2.7-14.3,4.6-18.6,11.2
			c-5.6,8.9-10.6,18.1-15.1,27.5c-1.8,3.8,3.9,7.2,5.7,3.3c3.6-7.6,7.5-15,11.8-22.3c3.5-5.8,8.4-17.4,16.7-12.3
			c6.8,4.1,11.2,12.1,15.2,18.5c2.8,4.4,5.7,8.9,8.5,13.3c-0.6,0.4-1.3,0.9-1.8,1.4c-1.8,1.3-2.6,3.5-2.2,5.7
			c0.8,2.7,4.1,4.1,6.3,5.4c2.2,1.3,7.6,5.3,10.8,4.8c0.8,0.1,1.6-0.3,2-1c0-0.1,0-0.2,0-0.3C217.8,144.8,218,144.3,218,143.9z"/>
		<path class="st0" d="M242.9,192.9c-3.4-8.2-7.3-16.2-11.8-23.9c-1-1.5-3.1-1.9-4.6-0.9c-1.4,0.9-1.9,2.8-1.1,4.3
			c3.6,6.1,6.9,12.3,9.7,18.8c1.5,3.4,3,6.8,4.1,10.3c0.6,1.4,1.2,2.9,1.6,4.5c0.4,2.1,0,2.7-1.8,3.8c-6.4,2.9-13.4,4.5-20.5,4.5
			c-6.1,0.4-12.3,0.4-18.5,0.5c0-4.7-0.8-9.8-6.5-7.5c-3.8,1.7-7.4,3.9-10.7,6.5c-1.8,1.3-5.2,3.2-4,5.9c0.1,0.3,0.3,0.5,0.4,0.7
			c0.3,0.7,0.9,1.2,1.6,1.4c2.5,1.6,5.2,2.7,8.1,3.3c2.4,0.9,6.3,3.4,8.9,1.8c1.6-1.4,2.3-3.5,2-5.6c7.9-0.2,15.8,0,23.6-0.9
			c4.1-0.4,8.1-1.2,12-2.4c3.7-0.8,7.1-2.5,10-5C250.4,207.6,245.2,198.5,242.9,192.9z"/>
		<path class="st1" d="M180,166c-0.2-25.8-0.3-26.3-0.3-26.6l0,0c-0.5-2.1-1.7-2.5-2.7-2.5h-0.5h-0.2h-0.2c-0.3,0-0.6,0.1-3.5,3
			c-1.3,1.2-2.6,2.6-3.7,4c-0.4,0.6-0.7,1.2-0.7,2c-0.1,1,0.6,2,1.7,2.1c0.1,0,0.2,0,0.4,0c0.6,0,1.4-0.3,3.5-2.7
			c0.7-0.7,1.1-1.2,1.4-1.6c0,2.3,0,8.5,0.2,23.3l0.3,24.6l0.7,0.8c0.4,0.5,0.9,0.8,1.5,0.8c0.3,0,0.7-0.1,0.9-0.4
			c0.8-0.6,1.3-1.6,1.3-2.6L180,166z"/>
		<path class="st0" d="M158.5,234.7c-2.1-1.7-4.7-2.7-7.3-3h-0.5c-1.1,0.2-2,1.1-2.1,2.2c-0.1,0.7-0.1,1.5,0,2.2
			c0,2.6,0,6.1,0.3,10.5c0,2.6,0.2,8.1,0.3,16.4c0,13.5,0.2,14.1,0.3,14.4c0.1,0.6,0.3,1.1,0.7,1.5c0.4,0.4,1,0.7,1.5,0.7
			c0.8-0.1,1.6-0.4,2.2-1.1l0.3-0.4l-0.1-8.4v-4.2c0-3,0-3.6,0-3.6c0.5-0.5,1-0.9,1.6-1.2c1.1-0.7,2.2-1.5,3.3-2.4
			c1.6-1.2,3-2.7,4.1-4.4c0.9-1.5,1.5-3.1,1.8-4.8c0.1-0.8,0.2-1.5,0.2-2.3c0-2.4-0.6-4.8-1.7-6.9
			C162.2,237.9,160.6,236.1,158.5,234.7z M160.2,247.3c0,0.6-0.1,1.3-0.2,1.9c-0.7,2.3-2.1,4.4-4,5.9l-2.1,1.6
			c0-1.4-0.2-3.8-0.4-8.4c0-1.2-0.1-3-0.2-5.3c0-2.4,0-3.9-0.2-4.3v-1.7h0.4c3,1.1,5.3,3.6,6.2,6.6
			C160.1,244.8,160.3,246.1,160.2,247.3z"/>
		<path class="st0" d="M177.6,238.3c4.1,0,5-0.3,5.4-1c0.8-0.8,0.7-2-0.1-2.8c-0.1-0.1-0.1-0.1-0.2-0.2c-0.4-0.4-1-0.4-3.4-0.4
			c-1.2,0-2.3,0-3.3,0h-1.1h-1.1c-0.6,0-1.1,0-1.7,0l-0.4,0.1c-0.3,0.1-0.6,0.2-0.8,0.4c-0.2,0.2-0.4,0.4-0.5,0.6l-0.1,0.3
			c-0.3,2.1-0.3,4.2-0.2,6.3c0,6.2,0,13.7,0.2,22.4c0.3,13.3,0.5,13.8,0.7,14.2c0.3,0.8,1,1.4,1.8,1.5c1.5,0.1,3,0.1,4.4,0l0,0h5
			l0.3-0.6c0.5-0.6,0.7-1.4,0.6-2.2c-0.2-0.8-0.8-1.4-1.6-1.5c-1.2-0.1-2.4-0.1-3.6-0.1h-2.6c0-0.5-0.1-1.6-0.3-3.7
			c0-3-0.2-5.4-0.2-7.8c0-1.2,0-2,0-2.5v-0.8c1,0,2.5-0.3,3-1.3c0.2-0.4,0.3-0.8,0.3-1.2c0-0.8-0.4-2.2-3.4-2.2h-0.2l0,0
			c0-0.2,0-1.8-0.2-9.5v-7.7h0.3C175.6,238.5,176.6,238.4,177.6,238.3z"/>
		<path class="st0" d="M209.1,235.8c-0.4-0.4-1.2-0.6-2.6-0.6s-3,0-4.3,0c-3.9-0.1-7.7,0.1-11.6,0.5c-0.9,0.2-1.6,1-1.5,2
			c0,0.8,0.4,1.5,1.1,1.8c1.5,0.4,3,0.6,4.6,0.4h2.5v12.8c0,6.2,0,12.5,0,19c0,7,0.2,7.3,0.5,7.6c0.4,0.6,1.1,1,1.8,0.9
			c0.3,0,1.2,0,1.6-0.6c0.4-0.6,0.5-0.5,0.6-21c0-12.4,0-17.2,0-18.9h0.7l3.5-0.2c0.8,0,1.6-0.1,2.4-0.3c0.7-0.3,1.2-0.8,1.4-1.5
			C210,237.1,209.7,236.3,209.1,235.8z"/>
	</g>
</g>
<g>
	<g id="Calque_1_2_">
		<path class="st2" d="M292.1,452.4c-1.4-2.2-3.3-4.1-5.6-5.5c-1.7-0.9-3.5-1.4-5.3-1.5h-0.6v-12.5h0.7c1-0.1,2-0.2,3-0.2
			c3,0,4.3-0.8,4.3-2.3c0.1-1-0.5-2-1.4-2.3c-1.4-0.2-2.8-0.3-4.2-0.1c-1.6-0.1-3.1,0-4.7,0.2c-1.1,0.2-2,0.9-2.3,1.9
			c-0.1,0.4-0.4,0.9-0.5,9.2v4.5c0,3.7,0.3,4.8,0.8,5.3c0.5,0.6,1.7,1.1,3.7,1.3c2.4,0,4.6,1,6.3,2.7c2.4,2.5,3.7,5.8,3.5,9.3
			c0,1,0,1.8,0,2.4c-1,8.3-4.9,13.4-12.1,15.9c-1.6,0.5-3.6,1.4-3.6,3.1c0,0.7,0.4,1.4,1.1,1.7c0.5,0.3,1.1,0.5,1.7,0.6
			c2.2-0.2,4.2-0.9,6.1-1.9c5.3-2.7,9.2-7.4,11-13.1c0.8-2.5,1.2-5.1,1.2-7.8C294.9,459.4,294,455.7,292.1,452.4z"/>
		<path class="st0" d="M257.1,500.6c-6.9,0.1-13.8-0.1-20.7-0.8c-3-0.3-7.8,0-10.3-2.3c-2-2.5-2.6-5.8-1.6-8.9
			c2-6.7,4.7-13.2,8.1-19.4c2-4.2,4-8.4,6.2-12.6l0.6,0.3c2,1.1,4.5,2.3,6.2,0.7c1.1-0.7,1.9-1.9,2.1-3.3c0.7-3.3,4-22.2-4.1-19.6
			c-3.9,1.8-7.4,4.4-10.3,7.6c-2.2,2-5.5,4.2-3.9,7.6c0.8,1.5,2,2.7,3.5,3.5c-2.7,5.6-5.5,11.1-8.1,16.8c-3.3,7-8.1,15.5-7.2,23.6
			c0.8,7.3,5.9,11.2,12.8,12.1c8.8,1.1,17.7,1.6,26.6,1.4c1.9,0,3.4-1.5,3.5-3.4C260.6,502.2,259,500.6,257.1,500.6L257.1,500.6z"/>
		<path class="st0" d="M324.1,419.3c-1.9-2.6-4.7-1.7-7.1-0.6c-7.8-14.1-14.1-29.8-27.2-39.9c-3-2.4-6.6-4.9-10.6-3
			c-4,1.9-6.6,6.8-9.1,10.2c-6.1,8.5-11.4,17.6-15.9,27.1c-1.8,3.8,3.9,7.2,5.7,3.3c3.7-7.9,8-15.5,12.9-22.7
			c2.2-3.9,4.8-7.6,7.9-10.8c3-2.5,7.2,2.7,9.4,4.9c9.2,9.3,14.4,21.8,20.7,33.3c-1.9,0.7-3.5,1.9-4.6,3.6c-0.7,1.3-0.4,3,0.7,4
			c1.1,3.1,5.1,5.5,7.2,7.7c2.1,2.3,5.1,6.1,8.5,4.5c3.4-1.6,2.7-6.4,3-9.1C325.7,428.3,326.5,422.5,324.1,419.3z"/>
		<path class="st0" d="M350.5,483.1c-3.5-8.3-7.5-16.4-11.8-24.4c-2-3.7-7.7-0.4-5.7,3.3c3.6,6.7,7,13.4,10,20.4
			c1.6,3.5,3,7,4.5,10.5c0.4,1,0.9,1.5,0.4,2.4c-0.4,0.9-2.4,1.2-3,1.4c-2,0.7-4,1.1-6.1,1.4c-11.1,1.5-22.5,1.4-33.7,2.2
			c-0.3-3.5-1.5-6.7-4.7-7.1c-3.2-0.4-6.2,1.9-8.6,3.2c-2.4,1.3-6.8,3.2-8.2,5.9c-3.3,6.6,9.5,8.6,13.2,9.5c2.4,0.5,5.6,1.8,7.5-0.6
			c0.8-1.3,1.1-2.9,0.9-4.5c6.1-0.4,12.3-0.7,18.4-1.1c7.7-0.4,16.1-0.3,23.4-3c3.3-1.2,7.8-3.2,7.9-7.3
			C355.4,491.6,352.1,486.7,350.5,483.1z"/>
		<path class="st0" d="M277.4,520.8c-2.1-1.7-4.7-2.7-7.3-3h-0.5c-1.1,0.2-2,1.1-2.1,2.2c-0.1,0.7-0.1,1.5,0,2.2
			c0,2.6,0,6.1,0.3,10.5c0,2.6,0.2,8.1,0.3,16.5c0.1,13.4,0.2,14.1,0.3,14.4c0.1,0.6,0.3,1.1,0.7,1.5c0.4,0.4,0.9,0.7,1.5,0.7
			c0.8,0,1.6-0.4,2.2-1.1l0.3-0.4l-0.1-8.4v-4.2c0-3,0.1-3.6,0-3.6c0.5-0.5,1-0.9,1.6-1.2c1.1-0.7,2.2-1.6,3.3-2.4
			c1.6-1.2,2.9-2.7,4-4.3c0.9-1.5,1.5-3.1,1.8-4.8c0.1-0.8,0.2-1.5,0.2-2.3c0-2.4-0.6-4.8-1.7-6.9C281,524,279.4,522.2,277.4,520.8z
			 M279.1,533.4c0,0.6,0,1.3-0.2,1.9c-0.7,2.3-2.1,4.3-4,5.8l-2.1,1.6c0-1.3-0.2-3.8-0.4-8.4c0-1.2,0-3-0.2-5.3
			c-0.2-2.4,0-3.9-0.2-4.3V523h0.4c3,1.2,5.2,3.6,6.2,6.6C279,530.9,279.1,532.1,279.1,533.4z"/>
		<path class="st0" d="M303.7,526.2c-1.1-2.2-2.7-4-4.7-5.4c-2.1-1.7-4.7-2.7-7.3-3h-0.5c-1.1,0.2-2,1.1-2.1,2.2
			c-0.1,0.7-0.1,1.5,0,2.2c0,2.6,0,6.1,0.3,10.5c0,2.6,0.2,8.1,0.3,16.5c0,13.4,0.2,14.1,0.3,14.4c0.1,0.6,0.3,1.1,0.7,1.5
			c0.4,0.4,0.9,0.7,1.5,0.7c0.8,0,1.6-0.4,2.2-1.1l0.3-0.4l-0.3-8.3v-4.3c0-3,0.1-3.6,0-3.6c0.5-0.5,1-0.9,1.6-1.2
			c1.1-0.7,2.2-1.6,3.3-2.4c1.6-1.2,3-2.7,4.2-4.3c0.9-1.5,1.5-3.1,1.8-4.8c0.1-0.8,0.2-1.5,0.2-2.3
			C305.4,530.7,304.8,528.3,303.7,526.2z M300.7,533.4c0,0.6,0,1.3-0.2,1.9c-0.7,2.3-2.1,4.3-4,5.8l-2.2,1.6c0-1.3-0.2-3.8-0.4-8.4
			c0-1.2,0-3-0.2-5.3c-0.2-2.4,0-3.9-0.2-4.3V523h0.4c3,1.2,5.3,3.7,6.3,6.8C300.6,531,300.7,532.2,300.7,533.4L300.7,533.4z"/>
	</g>
	<g id="Calque_1_5_">
		<path class="st0" d="M756.5,430.9c0.5-4,0.2-8-0.9-11.8c-1.3-3.1-4.7-2.4-8.2-0.6c-4.1-7.3-8.7-14.3-13.7-21
			c-4.9-7.2-10.7-13.8-17.2-19.7c-5.9-4.6-13.2-5.2-17.9,1.3c-2.3,3.8-4.3,7.7-5.9,11.8l-6.8,13.7c-1.8,3.8,3.8,7.2,5.7,3.3
			c3.4-7.1,6.8-14.2,10.3-21.3c1.4-3,3.1-6.8,6.9-5.7c3.3,1.5,6.1,3.8,8.2,6.7c9.6,10.5,17.9,22,24.8,34.4l-3,2.3
			c-0.4,0.3-0.6,0.7-0.6,1.2c-0.3,0.7-0.4,1.6-0.2,2.4c0.8,3,5.2,5.2,7.5,6.8c2.3,1.6,6.4,5.5,9,4.3
			C757.3,437.7,756.5,432.9,756.5,430.9z"/>
		<path class="st0" d="M778.7,483.9c-1.2-8.7-5.9-17.2-8.9-25.3c-1.5-3.9-7.9-2.2-6.4,1.8c2.6,6.7,5.6,13.4,7.8,20.3
			c2,6.2,1.8,13.8-5.9,15c-6.1,0.7-12.2,0.9-18.3,0.7c-5.5,0-11,0-16.4-0.5c0-1.2,0.1-2.5,0.1-3.7c0-2.4-0.3-4.3-3-4.5
			c-3.7-0.3-7.8,1.8-11.1,3.1c-2.4,0.9-7.3,1.8-8.2,4.8c-0.9,2.9,1.2,3.7,3,4.8c3.9,2.4,8,4.6,12.2,6.7c1.9,0.9,4.2,2.1,5.7,0
			c0.7-1.4,1.1-2.9,1-4.4c6.9,0.5,13.8,0.6,20.7,0.4c6.5-0.2,14.8,0.8,20.7-2.4S779.6,490.2,778.7,483.9z"/>
		<path class="st0" d="M688.8,496.7c-6.4,0.8-12.9,1-19.3,0.4c-4.4-0.5-13.8-1.8-16-6.2c-1.4-2.6,1.7-7.5,2.7-10l4.3-10.6l6.2-15.6
			c2.4,1,5.3,2.1,7,0.2c1.7-2,1.4-7.1,1.3-9.7c-0.1-2.7,0-8.2-2-10.9c-0.6-1-1.8-1.5-3-1.3c-0.5-0.1-1.1,0-1.5,0.4
			c-3.3,2.7-6.3,5.7-8.9,9.1c-1.3,1.7-4.4,4.7-3.2,7.2c1.1,1.5,2.6,2.5,4.3,3c-2.8,6.6-5.5,13.3-8.2,20c-1.7,4.3-3.8,8.7-5.2,13.1
			c-1.2,3.1-0.8,6.6,1,9.3c3.7,5.2,11.8,7.3,17.7,8.3c7.6,1,15.3,1,22.9,0C693,502.9,693.1,496.3,688.8,496.7z"/>
		<path class="st1" d="M726,424.9c-0.8-0.4-1.7-0.6-2.5-0.5h-1.6H719h-3.5c-6.2,0.2-6.8,0.3-7,0.3h-0.4c-0.7,0.2-1.3,0.8-1.4,1.6
			c-0.2,0.8,0.1,1.6,0.6,2.2c0.2,0.2,0.5,0.3,0.8,0.3h7h6.1c-0.6,1.6-2.6,6.1-8.1,17.7c-3.8,8-6.7,14.3-8.6,18.9
			c-1.2,2.3-2.1,4.8-2.6,7.4c0,2.4,1.6,2.7,2.3,2.7c1.7,0,2.5-2.3,2.7-3c0.5-1.8,1.2-3.6,1.9-5.3c1.9-4.6,3.4-8,4.3-9.9
			c3-6.1,5.9-12.3,8.7-18.4c4.8-11,4.9-11.8,5-12.2C726.7,426,726.4,425.3,726,424.9z"/>
		<path class="st0" d="M676.5,528c-0.9-3.9-3.5-7.1-7.1-8.9c-1.2-0.5-2.5-0.7-3.8-0.6c-0.7,0-1.4,0-2,0l0,0c-2,0.2-3.9,1.1-5.3,2.6
			c-2.4,2.5-3.9,5.8-4,9.3c-0.3,2.9-0.4,5.7-0.4,8.6c-0.1,0.7,0,1.4,0.2,2.1c0,0.3,0,1.1,0,3.7c0.1,3.4,0.5,6.8,1.4,10.1
			c0.4,2,1.2,3.8,2.1,5.6c0.9,1.4,2.1,2.6,3.5,3.4c1.5,0.9,3.3,1.4,5.1,1.4c2.5,0.1,4.9-0.8,6.7-2.5c2.3-2.3,3.8-5.2,4.4-8.4
			c0.7-3.7,1-7.4,0.9-11.2c0-4.1-0.2-7.2-0.4-9.2C677.6,532,677.1,530,676.5,528z M673.5,539c-0.1,1.3,0,2.6,0.2,3.8v0.2
			c0,3.3-0.2,6.5-0.8,9.8c-0.4,2.4-1.5,4.6-3.1,6.4c-1,0.9-2.4,1.4-3.8,1.4c-0.8,0-1.5-0.1-2.3-0.4c-1.4-0.8-2.5-2.1-3-3.7
			c-1.1-2.9-1.7-5.9-2-9c-0.3-2.3-0.3-5.3-0.3-9.1c-0.1-2.9,0.1-5.8,0.4-8.6c0.1-3.2,2.2-5.9,5.3-6.8c0.4,0,0.8,0,1.2,0
			c1.5,0,3,0.6,4.1,1.7l0,0c1.5,1.6,2.5,3.5,3,5.6C673.2,533.1,673.6,536.1,673.5,539L673.5,539z"/>
		<path class="st0" d="M701.2,520.4c-1.5,0-3,0-4.3,0c-3.9-0.1-7.8,0.1-11.6,0.5c-1.1,0.3-1.7,1.4-1.4,2.5c0.2,0.6,0.5,1,1,1.3
			c1.5,0.4,3,0.6,4.6,0.4h2.4v12.8c0,6.2,0,12.5,0,19c0,7,0.2,7.3,0.5,7.6c0.4,0.6,1.1,1,1.8,0.9c0.3,0,1.2,0,1.6-0.6
			c0.4-0.6,0.5-0.5,0.6-21c0-12.4,0-17.2,0-18.9h0.7l3.5-0.2c0.8,0,1.6-0.1,2.4-0.3c0.7-0.3,1.2-0.8,1.4-1.5c0.2-0.7,0-1.5-0.6-2
			C703.3,520.6,702.6,520.4,701.2,520.4z"/>
		<path class="st0" d="M727,521.1c-0.6-0.9-1.9-1.1-2.8-0.5l0,0c-0.7,0.7-1,1.6-0.9,2.6c0,0.5,0,2.4,0.4,5.7
			c0.3,4.4,0.4,7.3,0.4,8.5v1.7h-10v-7.4c0-8.7-0.2-9.2-0.4-9.6c-0.3-0.7-1-1.2-1.8-1.2c-1,0-1.8,0.6-2.1,1.6
			c-0.1,0.3-0.2,0.6-0.2,21v20.7l0.3,0.3c0.5,0.6,1.3,1,2.1,1c0.6-0.1,1.1-0.4,1.5-0.9c0.2-0.4,0.4-0.6,0.5-11.3V544h10.6
			c0,0.4,0,1,0,1.8c0,1.9,0.2,4.9,0.3,9c0.1,4.2,0.2,7.4,0.4,8.5c0.1,1.2,0.6,2.2,1.5,3c0.3,0.2,0.7,0.3,1.1,0.4c0.2,0,0.3,0,0.5,0
			c0.6-0.2,1-0.7,1.2-1.2v-0.3c0-0.4,0-0.7,0-1.1c0-1.9-0.5-11.4-1.5-29.1C727.7,522.1,727.4,521.5,727,521.1z"/>
		<path class="st0" d="M742.5,523.5c4.1,0,5-0.3,5.3-1c0.8-0.8,0.7-2-0.1-2.8c-0.1-0.1-0.1-0.1-0.2-0.2c-0.4-0.4-1.2-0.4-3.5-0.4
			c-1.2,0-2.3,0-3.3,0h-1.1h-1.1c-0.6,0-1.1,0-1.7,0l-0.4,0.1c-0.3,0.1-0.6,0.2-0.8,0.4c-0.2,0.2-0.4,0.4-0.5,0.6l0,0.4
			c-0.3,2.1-0.3,4.2-0.2,6.3c0,6.2,0,13.7,0.2,22.4c0.3,13.3,0.5,13.8,0.7,14.2c0.3,0.8,1,1.4,1.8,1.5c1.5,0.1,3,0.1,4.4,0l0,0h5
			l0.3-0.6c0.5-0.6,0.7-1.4,0.6-2.2c-0.2-0.8-0.8-1.4-1.6-1.5c-1.2-0.1-2.4-0.2-3.7-0.2h-2.6c0-0.5-0.1-1.6-0.3-3.7
			c0-3-0.2-5.4-0.2-7.8c0-1.2,0-2,0-2.5v-0.8c1,0,2.5-0.3,3-1.3c0.2-0.4,0.4-0.8,0.4-1.2c0-0.8-0.4-2.2-3.4-2.2l0,0l0,0
			c0-0.2,0-1.8-0.2-9.5v-7.7h0.3C740.7,523.6,741.6,523.5,742.5,523.5z"/>
		<path class="st0" d="M770.4,557.9c-0.8-2.6-1.8-5.1-3-7.5c-0.7-1.7-1.9-3.2-3.3-4.4l-1.1-0.9l0,0c1.6-0.9,3-2.1,4.1-3.6
			c1.2-1.4,2-3.1,2.4-4.9c0.1-0.6,0.1-1.3,0-1.9c0-1.9-0.2-3.9-0.6-5.8c-0.6-2.9-2-5.5-4.1-7.5c-1.6-1.7-3.7-3-5.9-3.8
			c-0.9-0.4-1.8-0.6-2.7-0.6c-0.7,0-1.4,0.3-1.8,0.8l-0.2,0.3l0,0c-0.5,2.7-0.6,5.5-0.4,8.3c0,5.5,0,10.8-0.2,15.8
			c0,1.7,0,4.1,0,7.1c0,3.7,0,6.3,0,7.9c0,3.3,0.2,5.3,0.3,5.9c0,1,0.6,1.8,1.4,2.3c0.3,0.1,0.6,0.2,0.9,0.2c0.8,0,1.5-0.5,1.9-1.2
			c0-0.3,0.2-0.4,0.2-2.8c0-2.4,0-4.6,0-6.6c0-2.7,0-5.4,0-7.8l0.5,0.3c2.1,1.5,3.8,3.5,4.9,5.9c0.6,1.4,1.3,3.3,2.1,5.6
			c1.7,5.2,2.1,5.4,2.3,5.5c0.8,0.8,2.1,0.8,3,0c0.4-0.4,0.7-1,0.7-1.7C771.5,561.1,771.1,559.4,770.4,557.9z M761.5,540.5l-2.3,0.9
			l-0.9,0.3v-1.2c0-7.1,0-12.5,0-16.5c0-0.7,0-1.1,0-1.5c4.3,2.2,6.9,6.7,6.5,11.5c0.1,0.8,0.1,1.5,0,2.3c-0.3,0.7-0.6,1.3-1.1,1.8
			C763.2,539,762.4,539.8,761.5,540.5L761.5,540.5z"/>
	</g>
	<g id="Calque_1_7_">
		<path class="st1" d="M515.2,453.5c-1.1-2.1-2.7-3.8-4.7-5.1c-2-1.5-4.2-2.5-6.6-3c-0.5-0.1-1-0.1-1.5,0c-2.7,0.1-5.2,1.3-7,3.3
			l0,0c0.2-3.2,0.6-6.4,1.2-9.5c0.6-3.3,1.4-6.6,2.5-9.8c1.9-4.6,4.3-6.9,7.2-6.9c1.3,0.1,2.6-0.2,3.6-1l0,0
			c0.4-0.5,0.6-1.2,0.3-1.8c-0.2-0.7-0.8-1.1-1.5-1.3c-0.8-0.2-1.5-0.3-2.3-0.2c-0.8,0-1.7,0.1-2.5,0.2c-4.1,1.2-7.4,4.3-8.9,8.2
			c-2.3,5.7-3.7,11.6-4.3,17.7c-0.3,2.8-0.5,5.6-0.4,8.5c-0.1,3.1,0.1,6.1,0.5,9.2c0.4,4,2,7.7,4.5,10.8c1.7,1.7,3.9,2.9,6.2,3.5
			c1,0.3,2.1,0.4,3.2,0.4c3-0.2,5.7-1.6,7.6-4c1.1-1.2,2-2.6,2.6-4.1c0.6-2,0.9-4,1-6.1c0.1-2.3,0.2-3.7,0.2-4.3
			C516.2,456.8,515.8,455.1,515.2,453.5z M511.5,458.9c0,1.2-0.1,2.3-0.3,3.5c-0.2,1.8-0.5,3.7-1,5.4c-0.5,1.1-1.2,2.1-2.1,3
			c-0.9,1-2.1,1.7-3.5,1.8c-0.7,0-1.3-0.1-1.9-0.3c-2.5-0.6-4.5-2.4-5.5-4.7c-0.6-1.2-0.8-2.4-0.9-3.7c0-0.2,0-1.2,0.4-3.9
			c0.3-2.5,0.9-4.9,1.9-7.2c0.5-1.2,1.5-2.1,2.8-2.5c0.4-0.1,0.8-0.2,1.2-0.2c0.8,0,1.6,0.2,2.3,0.6c1.9,0.7,3.6,1.9,5,3.3
			C511,455.3,511.5,457.1,511.5,458.9z"/>
		<path class="st0" d="M543,419.6c-0.8-4.5-4.6-3.8-8.2-2.1c-3.6-8.3-7.9-16.3-12.6-23.9c-2.9-4.7-6-9.3-9.4-13.6
			c-2.2-3.5-6.3-5.4-10.4-4.8c-4.2,1-6.4,5.1-8.6,8.4c-3,4.6-6.3,9.1-9.5,13.6c-6,8-11.6,16.4-16.6,25c-2.1,3.7,3.6,7,5.7,3.3
			c4.1-7.1,8.6-14,13.5-20.5c5.1-7.1,9.8-14.5,14.9-21.5c1.4-1.8,2.5-2.6,4.5-1c1.5,1.4,2.8,3.1,3.9,4.8c2.7,3.8,5.3,7.7,7.7,11.8
			c4.1,6.8,7.8,13.9,11,21.1c-1.8,0.6-3.4,1.8-4.4,3.4c-1,2.5,1.4,4.9,3,6.6c2.2,2.7,4.7,5.1,7.5,7.1c1.6,1.2,4.1,3.3,6.1,1.7
			c2-1.6,1.7-5.7,1.9-7.8C543.5,427.5,543.5,423.5,543,419.6z"/>
		<path class="st0" d="M565.3,482c-2.9-7.9-6.3-15.6-10.2-23.1c-2-3.8-7.7-0.4-5.7,3.3c3.2,6.2,6.1,12.6,8.6,19.2
			c1.1,3,2.2,5.9,3.2,8.9c1.2,3.7,1.1,6.2-3,7c-6.6,0.9-13.2,1.3-19.8,1.4c-5.1,0.3-10.1,0.8-15.2,1c0-0.9,0-1.8,0-2.6
			c-0.2-2.5-0.6-5.9-3.6-6.2c-3-0.3-7.1,2-9.9,3.3s-7.6,2.7-9,5.4c-1.2,2.3,0.4,4.3,2.3,5.3c3.9,1.9,8,3.6,12.1,5
			c1.9,0.8,5,2.3,6.5,0v-0.2l0,0c0.1-0.1,0.1-0.2,0.2-0.3c0.4-1,0.7-2,0.9-3.1c6.9-0.3,13.8-0.9,20.7-1.4c4.4-0.3,8.9-0.4,13.2-0.9
			c3-0.1,6-1,8.5-2.6C571.5,496.6,567.5,488,565.3,482z"/>
		<path class="st0" d="M475.7,499.6c-8.1,0.1-16.1-0.4-24.1-1.7c-3.8-0.5-7.4-1.5-10.9-3c-4.6-2.3-3.6-6.5-1.6-10.4
			c3.9-7.6,8.4-14.8,12.5-22.2c1.4,0.8,2.9,1.5,4.5,1.9c1.6,0.7,3.5,0.1,4.2-1.5c0.2-0.3,0.3-0.7,0.3-1.1c0.7-2.2,1.1-4.6,1-6.9
			c0.6-3.3,0.9-6.6,1.1-9.9c0.2-1.4-0.6-2.8-2-3.2c-1.8-0.6-3.8,0.7-5.3,1.4c-2.9,1.5-5.8,3.2-8.5,5.1c-2.6,1.8-6.6,4-3.8,7.5
			c0.9,1.1,1.9,2.1,3,3c-1.7,3.2-3.5,6.3-5.3,9.5c-3.6,6.5-9.9,14.1-10.1,21.8c-0.3,9.2,8.9,12.1,16.2,13.8
			c9.5,1.8,19.1,2.7,28.8,2.5c1.8,0,3.3-1.5,3.3-3.3C479,501.1,477.5,499.6,475.7,499.6z"/>
		<path class="st0" d="M490,520.6c-2.1-1.7-4.7-2.7-7.3-3h-0.5c-1.1,0.2-2,1.1-2.1,2.2c-0.1,0.7-0.1,1.5,0,2.2c0,2.6,0,6.1,0.3,10.5
			c0,2.6,0.2,8.1,0.3,16.4c0.1,13.5,0.3,14.1,0.3,14.4c0.1,0.6,0.3,1.1,0.7,1.5c0.4,0.4,1,0.7,1.5,0.7c0.8-0.1,1.6-0.4,2.2-1.1
			l0.3-0.4l-0.1-8.4v-4.2c0-3,0.1-3.6,0-3.6c0.5-0.5,1-0.9,1.6-1.2c1-0.7,2.2-1.5,3.3-2.4c1.6-1.2,3-2.7,4.1-4.4
			c0.9-1.5,1.5-3.1,1.8-4.8c0.1-0.8,0.2-1.5,0.2-2.3c0-2.4-0.6-4.8-1.7-6.9C493.7,523.7,492.1,521.9,490,520.6z M491.7,533.1
			c0,0.6-0.1,1.3-0.2,1.9c-0.7,2.3-2.1,4.4-4,5.9c-0.8,0.7-1.5,1.2-2.1,1.6c0-1.4-0.2-3.8-0.4-8.4c0-1.2-0.1-3-0.2-5.3
			c0-2.4,0-3.9-0.2-4.3v-1.7h0.4c3,1.2,5.2,3.6,6.2,6.6C491.6,530.6,491.8,531.9,491.7,533.1z"/>
		<path class="st0" d="M515.8,540.2c-1.2-1.3-2.5-2.6-3.8-3.8c-2-1.6-3.8-3.4-5.4-5.5c-0.3-0.6-0.4-1.3-0.4-1.9c0-1.5,0.5-2.9,1.5-4
			c0.8-0.8,1.8-1.5,3-1.9c0.6-0.2,1.2-0.4,1.7-0.8c0.5-0.4,0.7-0.9,0.7-1.5c0-1.7-1.7-2.4-3.8-1.7c-2.1,0.6-4,1.8-5.3,3.5
			c-1.5,1.7-2.4,4-2.3,6.3c0,0.4,0,0.9,0,1.3c0.3,2.3,1.5,4.4,3.3,5.9c0.4,0.4,1.8,1.7,4,4c1.1,1.1,2,2.2,3,3.4
			c0.6,0.8,1,1.7,1.3,2.6c0.6,1.7,0.9,3.6,0.8,5.4c0,0.9-0.1,1.8-0.3,2.6c-0.4,1.6-1.1,3.1-2.2,4.3c-1.2,1.2-2.7,2-4.3,2.4
			c-4,0.9-4.7,1.3-4.9,1.5c-0.5,0.4-0.8,1-0.7,1.7c0,0.5,0.1,1,0.4,1.4c0.4,0.6,1.1,0.9,1.8,0.8c0.9,0,1.8-0.1,2.7-0.4l2.3-0.7
			c1-0.3,2-0.6,3-1.1c1.2-0.6,2.2-1.4,3.1-2.4c2.7-2.6,4.3-6.2,4.3-10C519.3,547.4,518.1,543.5,515.8,540.2z"/>
	</g>
</g>
</svg>
