<?xml version="1.0" encoding="utf-8"?>
<!-- Generator: Adobe Illustrator 24.0.1, SVG Export Plug-In . SVG Version: 6.00 Build 0)  -->
<svg version="1.1" xmlns="http://www.w3.org/2000/svg" xmlns:xlink="http://www.w3.org/1999/xlink" x="0px" y="0px"
	 viewBox="0 0 1000 550.2" style="enable-background:new 0 0 1000 550.2;" xml:space="preserve">
<style type="text/css">
	.st0{fill:#FFE87B;}
	.st1{fill:#1E1E1C;}
	.st2{fill:#1E1E1C;stroke:#1E1E1C;stroke-width:0.25;stroke-miterlimit:10;}
	.st3{fill:#1E1E1C;stroke:#1E1E1C;stroke-width:0.15;stroke-miterlimit:10;}
	.st4{fill:#FFFFFF;}
	.st5{stroke:#1E1E1C;stroke-miterlimit:10;}
	.st6{fill:none;stroke:#1E1E1C;stroke-width:3;stroke-linecap:round;stroke-linejoin:round;stroke-miterlimit:10;}
	.st7{stroke:#000000;stroke-width:1.5;stroke-miterlimit:10;}
</style>
<g id="Calque_2">
</g>
<g id="Calque_1">
	<g>
		<path d="M184.8,246.1c-1.9-4-3.6-7.7-5.4-11.3c-2.1-4.1-0.9-8.1,3.3-9.9c2.6-1.2,5.5-2.2,8.4-1c1.2,0.5,2.3,1.7,2.9,2.8
			c2.1,3.9,3.9,7.9,5.9,11.8c0.2,0.4,0.9,0.7,1.3,0.7c2.9-0.2,5.7-0.4,8.6-0.9c3.1-0.5,6-1,8.9,0.8c2.4-2.1,3.9-4,3.5-7.8
			c-0.8-7.5-0.8-15-1-22.5c-0.1-3.1,1.2-5.5,4-6.8c4.6-2.2,9.4-4.1,14-6.3c5.1-2.4,10.2-4.7,15-7.4c3.4-1.9,6.5-2.4,10.1-1.1
			c1.6,0.6,3.4,0.9,5.4,1.4c0.3-1.7,0.5-3.2,0.8-4.6c1-5.9,2.9-11.6,6.9-16.1c1.8-2.1,4.1-3.8,6.5-5.2c2.9-1.7,4.8-0.9,6.6,2
			c0.5,0.9,1.2,1.8,1.9,2.4c1.4,1.2,2.7,1.2,4.5,0.2c3-1.6,3.7-3.6,4.1-6.9c1.1-10.8,2.6-21.5,6.5-31.7c1.9-4.9,5.1-8.6,9.6-11.3
			c6.7-3.9,13.5-7.5,21.3-8.2c5.5-0.5,11.1-0.7,16.3,1.8c1.5,0.7,3,2.2,3.7,3.8c2,4.8,3.6,9.8,5.4,14.7c0.3,0.8,0.6,1.6,0.9,2.5
			c2.8-3.6,5.3-7,8-10.4c1-1.2,2.1-2.4,3.4-3.4c2.2-1.7,3.5-1.2,5.1,1c1.8,2.6,3.9,5,6.1,7.7c2-2.3,3.8-4.2,5.5-6.3
			c2-2.5,4.3-2.9,7.3-2c3.1,1,6.3,1.8,9.7,2.7c0.7-4.6,3.6-5.8,7.5-5.5c0.7,0.1,1.4-0.1,2.2-0.1c4.4-0.1,4.6,0,5.8,4.1
			c0.6,1.8,1.4,3,3.5,3.4c2.1,0.5,3.9,1.7,5.9,2.5c0.8,0.3,1.6,0.4,2.8,0.6c-1.3-5.5,0.2-10.2,1.7-15.1c0.3-1-0.3-2.4-0.7-3.6
			c-0.2-0.6-0.8-1.2-1.3-1.7c-2.6-2.6-3.1-5.5-1.5-8.8c2.3-4.7,4.3-9.5,6.9-13.9c2.2-3.7,4.5-3.8,8.1-1.3c3.7,2.6,7.9,2.2,12,2.3
			c2.7,0.1,5.4-0.5,8.1-0.7c3.9-0.3,5,0.8,7.1,4c1.4,2,3.9,3.5,6.2,4.6c3.4,1.6,5.9,3.6,5.5,7.8c0,0.5,0.5,1,0.8,1.5
			c0.1,0.2,0.5,0.2,0.6,0.4c2,4.7,6.5,3.3,10.1,4c3.9,0.7,7.7,0.8,10.9,3.7c0.9,0.8,2.9,0.5,4.4,0.5c2.3,0,4.8-0.4,6.6,1.4
			c1.4,1.4,2.4,3.1,3.8,5c6-3.3,12.8-2.9,19.6-2.9c3.6,0,5.9,1.5,6.6,5c0.6,2.9,0.7,5.8,0.9,8.8c0.2,3.3,0.7,3.5,4,2.8
			c4.4-1.1,8.9-1.9,13.4-2.6c3.5-0.6,6.3,1.3,9,3.3c2.3,1.7,4.5,3.6,6.7,5.3c0.2-0.1,0.4-0.1,0.5-0.2c3-4.4,4.1-4.7,9.4-3.5
			c9.5,2.2,18.6,5.1,27.5,9.2c5.4,2.5,11.3,4,17.1,5.6c8.4,2.3,16.8,4.6,24.5,8.8c4.7,2.6,4.9,2.3,3.4,7.4c-2.4,8.5-4.5,17-8.7,24.9
			c-0.4,0.8-0.1,2,0.1,3c0.5,1.7,1.2,3.4,1.9,5.4c0.8-0.2,1.9-0.4,2.9-0.7c10.2-3.1,20.6-3.7,31.1-1.2c3.7,0.9,6.7,2.7,8.8,5.8
			c2.9,4.4,6,8.8,8.1,13.6c1.5,3.5,1.4,7.6,2,11.5c0.1,0.4,0.1,0.8,0.1,1.4c1.6,0.1,3.2,0.2,4.7,0.4c5.7,0.5,7,2.4,5.9,8
			c-0.1,0.4-0.1,0.8-0.1,1.3c4.4,1.8,9.7-0.5,13.7,3c6.4-1.3,13.1-2.6,19.7-4c11.4-2.4,22.8-4.2,34.4-5c4.6-0.3,9.3-0.5,13.9-0.5
			c1.7,0,3.4,1,5.2,1.5c2.2,0.5,4.5,1,6.8,1.4c1.6,0.3,3.3,0.6,5,0.9c3.5,0.8,7,4.8,7,8.4c0,4.4,0.7,8.9-1.3,13.3
			c-0.5,1.2,0.2,3,0.4,4.5c0.3,2.3,0.5,4.6,0.8,7.6c1.5-2,2.6-3.4,3.6-4.9c2.6-3.8,5-7.8,7.9-11.5c2.2-2.8,4.9-5.3,7.5-7.8
			c3.1-3,7-3.3,11-2.5c2.6,0.5,4,2.4,4.9,4.5c2,4.4,4.1,8.9,5.6,13.5c0.9,2.6,0.9,5.5,0.9,8.3c0,3.5-0.6,7-0.7,10.4
			c-0.1,2.6,0.1,4.8,2.6,6.7c2.5,1.8,3.5,4.7,3.5,7.9c0,2.2-0.1,4.5,0,6.7c0,1,0.4,2.1,0.7,3.1c0.2,0,0.4,0,0.6,0
			c0.7-1.5,1.4-2.9,2.2-4.4c0.2-0.4,0.4-0.7,0.7-1c1.3-1.3,2.2-3.6,4.5-2.8c2.2,0.8,1.5,3,1.4,4.6c-0.1,2.3,1,3.2,2.9,3.6
			c1.3,0.3,2.8,0.3,4,0.9c1.2,0.6,2.7,1.6,2.9,2.7c0.2,0.9-1.1,2.2-1.8,3.2c-0.2,0.4-0.7,0.5-1.4,1c1.6,0.1,2.8,0,4,0.2
			c2.1,0.3,3.2,1.7,3.3,3.8c0.1,2.1-1.4,3-3.2,3.2c-1.3,0.2-2.6,0.1-3.8,0.3c-1.3,0.3-2.5,0.8-3.8,1.2c0,0.3,0,0.6,0,0.9
			c0.8,0.6,1.6,1.2,2.5,1.7c3.6,1.9,6.3,4.7,8.2,8.2c0.9,1.6,1.8,2,3.1,0.7c2.4-2.2,5.3-2.1,8.2-1.7c2.4,0.3,4.9,3.4,5.3,6.8
			c0.2,1.3,0.1,2.6,0.1,3.8c0,3,0,3,3.1,2.9c1,0,2.1-0.1,3.1-0.1c3.1,0,4.9,1.5,5.6,4.5c0.3,1.2,0.6,2.5,0.9,3.7
			c0.2,0.6,0.5,1.1,0.6,1.4c3.5-0.9,6.8-1.8,10.7-2.8c0.1-0.8,0.5-2.3,0.7-3.9c0.2-1.5,0.7-2.1,2.5-2.1c3.5,0.1,6.6,1.2,9.5,2.8
			c1.8,1,2.3,2.3,1.3,4.2c-0.1,0.2-0.2,0.4-0.3,0.6c-1.6,2.7-1.5,4.9,0.5,7.7c4.3,6.1,4.8,13.2,2,20c-5.9,14.5-12.3,28.7-18.6,43
			c-0.4,0.9-1.1,1.8-1.7,2.9c2,0.2,3.8,0.4,5.7,0.7c4.4,0.5,6.5,3.2,6.1,7.6c-0.6,6.2-3.8,10.9-7.9,15.3c-3.7,4-7.6,7.8-11.2,11.9
			c-1.8,2-3.2,4.4-4.6,6.7c-1.8,2.9-3.3,6-5.1,9c-3.3,5.5-8.3,6.9-14,4.2c-8.8-4.2-17.6-8.4-26.4-12.7c-1.9-0.9-3.6-2.1-5.3-3.4
			c-3.9-2.9-7.9-2.9-12.2-1c-1.6,0.7-3.6,1.1-5.3,0.9c-4.2-0.7-5.5-3.9-3.6-7.7c0.5-1.1,0.5-2.5,0.7-3.8c0.2-2.3,0.4-4.6,0.6-7
			c-0.3,0-0.8,0-1.3,0c-6.8,0.7-13.6,0.5-20.3-0.9c-3.3-0.7-4.8,0.6-5.2,3.9c-0.2,1.8-0.9,3.5-1.5,5.2c-0.2,0.6-1,1.4-1.5,1.4
			c-2,0-3.1,0.9-4,2.7c-0.2,0.4-1.4,0.6-1.9,0.4c-0.5-0.2-0.8-1.1-0.8-1.7c0-0.8,0.4-1.7,0.2-3c-0.6,0.4-1.1,0.9-1.7,1.2
			c-1,0.4-2.3,1.3-3,1c-1.4-0.7-0.7-2,0.1-3c0.3-0.4,0.6-1,0.6-1.5c0.1-3.7,2.1-5.8,6-5.7c2.3,0,4.3-0.3,5.9-2.7
			c-7-2.1-14-4.2-20.9-6.3c-0.1,0.2-0.3,0.5-0.4,0.7c0.4,0.6,0.8,1.3,1.2,1.9c1.8,2.6,2.3,5.3,1.6,8.4c-0.6,2.6-0.5,5.4-0.9,8.2
			c-0.1,1.1-0.5,2.2-1,3.2c-2.4,5.8-4.5,7-10.7,7.3c-9.4,0.4-18.5-1.1-27.6-2.9c-11.1-2.1-22.2-4-33.3-6.3c-5-1.1-9.9-2.8-14.6-4.7
			c-1.4-0.6-2.3-2.6-3.5-4.1c-0.5,0.2-1.4,0.4-2.2,0.9c-5.3,2.9-10.1,1.8-14.9-1.4c-1.4-0.9-3.2-1.6-4.8-1.7
			c-3.2-0.2-4.6,1.3-4.8,4.6c-0.1,2-0.2,4.1-1,5.8c-2,4.2-5.7,5.5-10.5,4.2c-3.8-1-7.5-2.3-11.3-3.2c-0.9-0.2-2.2,0.1-3,0.6
			c-4.6,3-9.2,6.1-13.8,9.2c-2.9,2-5.9,1.8-8.8,0.2c-4.1-2.3-7.4-5.6-10.1-9.4c-1.6-2.2-0.4-4.5,0.8-6.5c0.9-1.5,2-2.8,2.8-3.9
			c-1.6-2-3.1-3.7-4.4-5.6c-2.7-3.9-4.9-4.6-8.8-2.1c-6.9,4.4-14.8,5.9-22.7,7.4c-1.9,0.4-3.7,0.8-5.6,1.4c-0.5,0.2-1,0.7-1.4,1.2
			c-0.3,0.4-0.5,0.8-0.7,1.3c-3.2,6.6-6.6,7.6-12.7,3.6c-1.4-0.9-2.8-1-3.9,0.3c-1.4,1.6-2.7,3.4-3.9,5.2c-1.8,2.7-4.5,3.5-6.9,1.4
			c-1.9-1.7-3.1-4.1-4.4-6.4c-0.7-1.2-1-2.7-1.7-3.9c-0.8-1.3-2-1.2-2.6,0.1c-0.7,1.4-1.1,3-1.4,4.5c-0.3,2.1-0.1,4.2-0.3,6.2
			c-0.7,6-6.6,8.4-11.4,4.7c-1.4-1.1-2.6-2.7-4.1-3.7c-2.4-1.6-5.3-2.5-7.4-4.4c-3.7-3.2-7.6-2.9-11.9-2.4c-7.6,1-15.2,1-22.7-0.8
			c-0.5-0.1-1.1-0.1-1.8-0.1c-0.2,1.3-0.3,2.6-0.5,3.8c-0.6,3.7-2.2,5.3-6.1,5.2c-3.6-0.1-7.2-0.5-10.7-1c-3.9-0.5-7.7-1.3-11.6-1.8
			c-6.4-0.8-12.4-3.1-18.4-5.4c-3.4-1.3-6.9-2.4-10.6-3.7c-1.1,3.4-2,6.1-2.9,8.9c-0.9,2.8-1.9,3.4-4.8,3.2c-4-0.3-7-2.6-10.1-4.8
			c-5.5-3.9-10.9-7.9-16.4-11.7c-5.1-3.6-10.7-3.2-16.4-2c-0.2,0-0.3,0.1-0.5,0.2c-5.1,1.3-6.1,3.7-3.2,8.2c0.9,1.4,2.2,2.5,3.5,3.6
			c4,3.4,8.2,6.6,12.1,10.2c1.8,1.7,3.3,4,4.2,6.3c1.3,3.1-0.6,5.3-3.9,4.8c-1.4-0.2-2.8-0.8-4-1.6c-4.2-2.6-8.3-5.4-12.5-8.1
			c-4.2-2.7-8.5-4-13.6-3.2c-8.5,1.3-16.8,0.1-24.4-4.4c-2.4-1.4-3.5-1-5.3,1c-6,6.6-13.3,10.5-22.5,9.7c-1.3-0.1-2.9-0.8-3.8-1.7
			c-4.5-4.7-8.6-9.8-13.3-14.2c-4.6-4.2-9.7-7.8-14.7-11.6c-0.4-0.3-1-0.3-1.5-0.3c-0.5,0-1.2,0.4-1.6,0.2c-3.4-1.2-5.7-0.3-7.1,3.1
			c-0.2,0.6-1.3,1.3-1.9,1.2c-1.8-0.3-3.6-1-5.4-1.4c-2.6-0.6-2.4-2.6-2.7-4.5c0.2,2.2,0.5,4.4,0.7,6.6c0.5,5.4-2.1,8.2-7.4,6.9
			c-5-1.2-9.2-3.7-10.9-9.1c-0.9-3-2.6-3.5-5.2-1.8c-1,0.7-1.9,1.5-2.8,2.2c-2.1,1.6-4.3,2.7-7,2.6c-5.6-0.2-8.1-3.6-6.4-9
			c0.3-1.1,0.7-2.1,1.3-3.6c-8.9,0.4-17.5-0.1-25.9-3c-1.1,4.3-2.1,8.3-3.2,12.2c-1.3,4.3-2.6,8.6-4.1,12.8c-1.1,3.1-3.8,4.4-7,4.5
			c-3.2,0.1-4.7-2-2.9-4.6c2.7-4,3.3-8.6,4.3-13.1c0.9-4,1.5-8,2.3-12c0.4-2.3,0.4-2.4-2.2-2.8c-2.2,5.2-4.4,10.5-6.7,15.7
			c-1.1,2.5-2.4,4.9-3.7,7.3c-2,3.6-7.1,5.5-11,4.2c-1.8-0.6-2.6-1.9-1.9-3.8c0.3-1,0.9-1.9,1.6-2.7c3.4-4.2,5.8-9,7.5-14.1
			c1.2-3.4,2.3-6.8,3.6-10.4c-3-1.4-5.9-2.7-9.1-4.1c-1,1.9-1.9,3.8-3,5.6c-2.5,4.4-5.5,5.7-10.5,4.5c-1.5-0.4-2.9-0.7-4.7-1.2
			c0.1,1.4,0.3,2.5,0.3,3.5c0.2,3.9-1.7,6.1-5.6,5.8c-3.6-0.3-7.2-1.5-10.8-1.9c-3.1-0.4-6.3-0.6-9.4-0.5
			c-5.5,0.3-10.9,0.8-16.2-1.1c-0.8-0.3-1.7-0.6-2.4-1.1c-5.1-4.4-11.5-5.9-17.8-7.5c-3.2-0.8-6.5-0.4-9.6,0.9
			c-9.1,4-18.4,4.5-27.7,0.7c-1.4-0.6-2.8-1.3-3.9-2.3c-3.1-2.9-6.2-5.8-10.2-7.5c-1.7-0.7-2.2-2.2-1.5-3.8c1.9-4.5,3.5-9.2,6-13.3
			c3.7-6,10.6-6.3,15.4-1.3c0.3,0.3,0.7,0.7,1,1.1c4.4,5,9.1,5.5,14.7,1.7c2.2-1.5,4.2-3.2,6.5-4.6c2.5-1.5,5.1-2.6,7.6-4
			c0.9-0.5,1.9-1.3,2.1-2.2c4-13.3,8.1-26.6,11.1-40.3c1.5-6.7,4.2-13.1,6.6-19.5c1.2-3.1,3.4-5.3,6.8-6.3c0.8-0.2,1.7-1.1,2.1-1.9
			c0.8-1.8,1.3-3.8,2-5.7c0.6-1.8,1.8-2.9,3.8-2.6c2.9,0.4,5.9,0.8,8.7,1.6c1,0.3,2.1,2,2.3,3.2c0.3,1.8-0.1,3.8-0.3,5.7
			c-0.4,3.3-0.5,3.3,3.1,3.9c1.3-3.5,2.6-7.2,4.1-10.7c1.7-3.9,3.4-7.8,5.6-11.4c1-1.8,3-3.1,4.7-4.3c2.1-1.5,4.4-1,6.6,0
			c3.6,1.6,4.2,1.1,5.6-2.5c1.6-4.1,3.7-8.1,5.4-12.2c0.3-0.7,0.2-1.7,0.1-2.5c0-0.5-0.5-1.1-0.5-1.6c-0.1-4.3-2.8-6-6.5-7.1
			c-1.5-0.4-2.9-1.4-4.1-2.4c-1.9-1.7-2.4-3.9-1.5-6.3c1-2.4,2.7-3.6,5.3-3.9c4-0.6,8-1.4,12-2.3c3.1-0.7,3.3-1.4,1.9-4.1
			c-1.6-3.2-0.9-6.3,0.8-9.1C177.3,249.5,180.2,247,184.8,246.1z M276.8,378.8c0-3.3,0-6.4,0-9.5c0-10.8-2.9-20.7-8.4-29.9
			c-3.8-6.4-9.4-10.7-16.8-12.1c-4.1-0.7-8.2-1.2-12.4-1.5c-7-0.5-14.1-0.7-21.1-1.1c-2.7-0.2-5.5-0.5-8-0.7c-0.5,5,1,8.7,5.8,10.4
			c0.1,0,0.2,0.1,0.2,0.1c0.3,0.9,0.5,1.8,0.7,2.7c-0.9,0.1-1.9,0.6-2.5,0.2c-1.5-0.7-3.1-1.5-4.2-2.7c-2.2-2.5-4.7-2-7.6-1.6
			c-0.2,3.4-0.2,6.6,1.4,9.7c0.6,1.1,1.2,2.5-0.4,3c-0.7,0.2-2.4-0.8-2.6-1.6c-0.9-3-1.6-6.2-1.9-9.3c-0.2-1.8-0.5-2.6-2.3-3.2
			c-2-0.6-3,0.7-4.2,1.5c-0.8,0.6-1.4,1.6-2.3,2.1c-0.6,0.3-1.9,0.3-2.3-0.1c-0.4-0.4-0.4-1.8,0-2.3c0.9-1.2,2.1-2.2,3.3-3.1
			c2.7-2,3-3.1,1.6-6.7c-6.2,1.3-12.7,2.1-18.8,3.9c-7,2.1-9.4,6.4-9.7,13.8c0,0.8,0.5,2,1.2,2.5c7.8,6,14.3,13,19.2,21.6
			c0.7,1.3,1.4,3.1,1.1,4.5c-1.1,5.7-2.1,11.5-3.9,17c-3.3,10.1-7.1,20.1-10.6,30.1c-1.3,3.8-1.2,4.3,2.6,5.7
			c7.2,2.7,14.4,5.3,21.7,7.7c2.1,0.7,4.4,0.9,7,1.5c-0.9-1.5-1.6-2.5-2.1-3.7c-0.6-1.3-2.3-3-0.3-4.2c2.1-1.2,2.6,1.1,3.3,2.4
			c3.5,6.6,9.5,9.5,16.7,7.9c-0.5-1.8-1.2-3.6-1.5-5.5c-0.1-0.8,0.7-1.7,1-2.5c0.7,0.5,1.8,0.8,2.2,1.4c0.7,1.3,1,2.7,1.3,4.1
			c0.4,2.3,1.4,3.4,3.9,2.8c1.3-0.3,2.7-0.1,4.1-0.4c2.2-0.4,5.1-0.3,6.4-1.7c2.7-2.9,4.6-6.6,6.8-10c0.3-0.5,0.4-1.3,0.8-1.7
			c0.5-0.4,1.5-0.9,2-0.7c0.5,0.2,1,1.2,1,1.9c0,0.7-0.3,1.6-0.7,2.3c-1.5,2.8-3,5.5-4.7,8.5c10-1.7,18.9-5.2,24.3-15.3
			c-1.6-1.9-3.5-4.2-5.4-6.5c-5.9-6.9-6.6-14.4-2.7-22.4c1-2,0.9-3.4-0.7-5c-1.9-2.1-1.7-3.7,0.5-5.5c1.8-1.4,3.7-2.5,5.6-3.7
			c2.8-1.8,4.3-1.7,5.9,1.2C271.8,377.8,273.8,378.9,276.8,378.8z M830.2,406.8c0.1-0.2,0.3-0.5,0.4-0.7c-0.8-1.1-1.4-2.3-2.4-3.1
			c-5.8-4.7-6.7-11.8-9.1-18.2c-0.9-2.3,0.7-4.2,3.1-3.9c2.3,0.3,4.7,1.1,6.6,2.4c3,1.9,5.6,4.4,8.3,6.6c4.6,3.7,8.6,7.9,14.8,9.5
			c4.2,1.1,8,4,12,6.1c0-0.4,0.1-1.2,0.1-2c0.1-5,0.1-9.9,0.4-14.9c1-17.9,2-35.8,3.1-53.7c0.1-1.9-0.3-3-2.4-2.8
			c-8,0.8-15.6-1.2-22.9-4.1c-9.5-3.6-18.1-8.5-25-16.2c-1.6-1.7-3.2-3.5-5-5.5c-1.1,1.7-2,3.1-2.8,4.4
			c-7.7,12.6-15.4,25.1-22.9,37.7c-3,4.9-5.8,10-8.1,15.3c-1.1,2.5-1.5,5.9-0.8,8.6c0.9,3.5,3.1,6.6,4.9,9.8
			c0.9,1.8,1.7,3.8,3.1,5.1c3.2,3,6.8,5.7,10.3,8.5c0.4-1.8,0.7-3.6,1.3-5.1c0.5-1,1.5-2.4,2.5-2.5c1-0.1,2.4,0.8,3.1,1.6
			c1.6,1.8,2.2,4.2,4.2,5.9c2.9,2.5,4.9,5.8,7.5,8.6c0.7,0.8,2,1.1,3.1,1.3c2.8,0.4,5.7,0.7,8.5,0.9
			C827.5,406.7,828.8,406.7,830.2,406.8z M479.9,420c-0.4-0.8-0.8-1.4-1.1-2.1c-0.6-1.2-1.1-2.7,0.4-3.3c0.6-0.2,2.1,0.8,2.6,1.6
			c2.2,3.5,3.9,7.2,6.2,10.5c4.6,6.6,7,13.8,7.5,21.7c0.1,1.8,0.9,2.4,2.6,2.8c7.8,1.8,15.7,1.8,23.6,0.6c1.2-0.2,2.4-0.3,3.6-0.4
			c-0.1-0.7-0.1-0.9-0.1-1.2c-1.5-8.7,2.4-15.2,10.8-17.7c3.8-1.2,7.8-2.4,10.5-5.6c1.7-2.1,3.2-4.6,3.9-7.2c0.3-1-1.8-2.7-2.9-4.1
			c-0.1-0.1-0.3-0.2-0.3-0.3c-0.1-0.9-0.1-1.7-0.1-2.6c0.9,0,2-0.3,2.6,0.1c1,0.7,1.6,2,2.6,2.8c0.6,0.5,1.8,0.8,2.4,0.5
			c6.1-2.9,11.3-2,16.2,2.8c1,1,2.2,1.7,3.2,2.5c0.2-0.2,0.4-0.4,0.5-0.5c-1.3-1.9-2.7-3.7-3.7-5.7c-0.4-0.8,0-2,0.1-3
			c0.9,0.4,2.2,0.5,2.7,1.1c1.9,2.5,4,5.1,5.3,8c1.1,2.4,2.5,2.5,4.7,2.1c3.1-0.5,4.9,1.2,4.8,4.4c-0.1,1.6-0.7,3.2-1.1,5
			c1.6,0,3.3,0,5.1,0c0.4-0.9,0.6-2,1.2-2.8c0.6-0.7,1.6-0.9,2.5-1.3c0.2,0.8,0.7,1.7,0.7,2.5c-0.5,4.1-1.1,8.1-1.7,12.5
			c4.4-0.8,8-1.5,11.4-2.2c-0.3-1.3-0.8-2.3-0.7-3.3c0.5-3.4,1.1-6.8,1.9-10.1c0.2-0.9,1.4-1.5,2.1-2.3c0.4,1,1.3,2,1.2,3
			c-0.5,4-1.4,8-2.1,12.1c0.9-0.2,1.8-0.3,2.6-0.7c5.2-2.4,10.4-4.9,15.7-7.1c5.9-2.5,9.1-7.1,9.7-13.2c0.6-5.7,0.1-11.5,0.1-16.7
			c-1.2-1-2.3-1.8-3.2-2.8c-1.8-1.8-3.5-3.7-5.1-5.7c-0.5-0.6-0.5-1.6-0.7-2.5c0.9-0.2,2-0.7,2.5-0.4c1.3,0.8,2.3,1.9,3.3,3
			c1,1.1,1.9,2.4,2.9,3.6c0.2-0.1,0.4-0.2,0.6-0.3c-0.3-4.6-0.4-9.3-1-13.9c-0.6-5-1.5-10.3-4.9-13.8c-3.6-3.6-8.3-6.4-12.9-8.5
			c-6.4-3-13.4-3.6-20.4-3.5c-11.1,0.2-22.3,0.4-33.4,0.6c-2.7,0-5.5,0-8.2,0.1c-14.7,0.6-29.4,0.9-44.1,2.2
			c-8.5,0.8-16.8,3-25.1,5.1c-13.3,3.4-24.1,11.3-34.7,19.6c-3.1,2.4-5.5,5.5-6.2,9.5c-1.1,6.4-1.4,12.8,0.1,19.4
			c1.4,0.1,2.7,0.1,4.1,0.2c-0.2-3-0.4-5.7-0.4-8.4c0-0.8,0.9-1.6,1.3-2.5c0.7,0.7,1.6,1.3,2.1,2.1c0.3,0.6,0.1,1.6,0.2,2.4
			c0.2,1.8,0.2,3.7,0.6,5.5c0.1,0.7,1,1.5,1.7,1.6c3.4,0.5,6.8,0.8,10.5,1.1c-0.5-1-1.1-1.8-1.2-2.6c-0.1-0.9,0.4-1.9,0.6-2.9
			c0.8,0.4,2.1,0.7,2.4,1.3C470.6,417.7,474.6,419.5,479.9,420z M149.3,429.3c2.6,0.4,4.6,0.7,6.6,1.2c4,0.9,5.6,0.4,7.4-3.3
			c1.6-3.4,3-6.9,4.3-10.4c3.3-9.4,6.6-18.9,9.8-28.4c1.6-4.8,3.1-9.7,4.6-14.7c0.9-3.3,0.8-6.5-1.6-9.3c-3.7-4.4-7.2-9-11-13.3
			c-3.9-4.4-8.8-7.4-14.7-8.6c-3-0.6-5.9-1.3-8.9-2.2c-7.8-2.4-15.5-5-23.4-7.2c-6.2-1.8-10.4-0.7-12,4c-2.2,6.2-4.5,12.3-6.4,18.6
			c-3.2,10.9-6,21.9-8.9,32.9c-0.8,2.8-1.5,5.7-2.2,8.2c3.8,3.1,7.6,2.8,11.4,0.8c1-0.5,2.2-0.9,3.4-1.2c6.3-1.3,11.3,1.2,14.5,7.2
			c1.6,3,2.6,6.3,4.4,9c3.7,5.6,9.4,8.5,15.5,10.8C145.3,424.6,148.1,426.3,149.3,429.3z M620.6,358.9c0.8-0.7,1.4-1.5,2.2-2
			c6-3.4,12-6.8,18-10c1.5-0.8,2.2-1.5,1.9-3.4c-0.2-1.3,0.5-2.8,0.9-4.2c1-3,2.2-5.9,3.1-9c0.9-3.1,1.4-6.4,2.2-9.5
			c1.3-5.3,3-10.5,4.2-15.7c3.7-16.2,8.2-32.3,9.5-49c0.4-4.9,0.1-9.8,0.1-14.7c-0.2,0-0.4-0.1-0.7-0.1c-0.6,1.9-1.3,3.7-1.9,5.6
			c-3,10.4-4.9,21.1-9.3,31c-0.6,1.4-0.9,2.9-1.3,4.4c-4.2,14.3-8.7,28.5-14.9,42.1c-3.9,8.4-7.8,16.7-11.9,24.9
			c-0.4,0.8-1.8,1.1-2.7,1.7c-0.3-1-0.9-2-0.9-3c0-0.8,0.5-1.7,0.9-2.4c2.8-5.7,5.8-11.4,8.4-17.2c5.4-11.6,10.3-23.5,13.8-35.8
			c1.9-6.5,4.2-13,6.1-19.5c2.7-9,5.3-18.1,7.9-27.2c0.1-0.3,0-0.6,0-0.9c-0.3,0.1-0.5,0.2-0.6,0.3c-7.4,10-14.9,19.8-22,30
			c-5,7.1-9.4,14.7-14.1,22c-3.2,5.1-6.6,10.1-9.7,15.2c-3.2,5.3-6.3,10.7-9.4,16.1c-3.3,5.9-6.5,11.9-9.8,17.9
			c-0.7,1.3-1.6,2.4-3.2,1.5c-1.5-0.9-0.9-2.2-0.2-3.4c5.3-9.5,10.4-19.2,15.9-28.6c5.7-9.7,11.7-19.3,17.9-28.8
			c5.8-8.9,11.8-17.6,17.9-26.2c3.9-5.5,8.2-10.7,12.2-16.1c1.4-1.9,2.6-4,3.9-6.1c-0.3-0.2-0.6-0.5-0.9-0.7
			c-7,9.9-16.3,17.8-23.5,27.6c-7.3,9.8-15.5,18.8-22.7,28.6c-7.2,9.9-13.9,20.2-20.6,30.5c-6.6,10.2-14.1,19.9-19.4,30.7
			c8.6,0,17.1,0,25.6,0c8.2,0,16.4-0.4,24.1,2.9C618.5,358.5,619.6,358.6,620.6,358.9z M525.1,316.8c-0.5-3.2-2.5-3-4.6-3
			c-2,0-4.2-0.2-5-2.5c-0.8-2.3,0.4-4.1,2.1-5.5c2-1.6,4-3.2,6.1-4.7c3.1-2.2,6.6-2.9,10.2-1.7c0.9,0.3,2.2,1.2,2.3,2.1
			c0.2,1-0.6,2.2-1.1,3.1c-0.3,0.5-1.1,0.7-1.6,1c-0.9,0.6-2.4,0.8-1.5,2.4c0.7,1.3,1.2,3,3.3,2.1c2.6-1,4.7-0.2,6.3,2
			c1.9,2.4,3.7,4.7,5.9,7.4c1.9-5.5,3.6-10.7,5.4-15.8c1.9-5.6,3.8-11.2,5.9-16.7c3-7.7,6.3-15.4,9.5-23.1c0.8-1.9,1.4-3.9,2-5.7
			c-1.8,0.2-3.6,0.9-5.1,0.4c-3.8-1.2-7.7-2.4-11.1-4.4c-2.5-1.5-4.2-2-6.6-0.3c-2.3,1.5-5,2-7.4,0.1c-2.4-1.8-1.9-4.4-1.4-6.8
			c0.8-3.6-0.4-4.9-4-3.9c-1.4,0.4-3,0.9-4.1,1.8c-3.1,2.6-6,5.5-8.9,8.3c-4.1,3.8-8.1,7.6-12.2,11.4c-0.7,0.7-1.8,1-2.8,1.3
			c-7.8,2.7-12.6-1.4-11.1-9.5c0.2-1.1,0.2-2.2,0.3-3.5c-0.6,0.1-0.9,0.1-0.9,0.2c-4.8,7.2-7.6,15-6.3,23.8c0.3,2,1.6,3.9,2.9,5.6
			c1,1.3,2.5,2.3,3.7,3.4c4.8,4.1,5.3,8.4,1.6,13.5c-1.9,2.6-3.9,5.1-5.6,7.8c-2.4,3.7-4.1,7.8-4,12.4c0,1.2,0.4,1.9,1.7,2.1
			c6.9,1.1,13.1,4.2,19.3,7c6.1,2.8,12.2,5.4,18.3,8.2c0.1-0.9-0.2-1.4-0.4-1.8c-1.9-3.4-3.9-6.8-5.8-10.3c-1.8-3.4-1.1-5.2,2.4-6.9
			C523.4,317.7,524.3,317.2,525.1,316.8z M453.7,220.6c-0.2,0.1-0.5,0.2-0.7,0.3c0.8,0.5,1.6,1,2.4,1.5c3.9,2.5,7.9,4.9,11.7,7.6
			c1,0.7,1.9,2.4,1.8,3.6c-0.9,8.9-1.9,17.8-3.3,26.7c-1.5,9.3-3.4,18.6-5.1,27.8c-0.1,0.7-0.2,1.7,0.2,2.2
			c5.1,6.6,8.6,14,11.4,21.8c0.5,1.3,4.8,5.8,6.1,6.5c0.9,0.5,1.8,1,2.7,1.5c0.7,0.4,1.5,0.6,2.7,1.1c-1.6-6,1.5-10.3,3.7-14.7
			c1.6-3.1,4.1-5.7,6.1-8.6c2.9-4,2.6-6.1-1.1-9.3c-0.9-0.7-1.6-1.5-2.5-2.2c-3.6-2.8-5-6.7-5.3-11.1c-0.5-7.2,1.4-13.8,4.9-20
			c0.8-1.5,1.7-3,2.2-4.1c-3-2.6-5.8-4.7-8.1-7.2c-1.6-1.7-2.5-4.1-3.9-6.1c-1.8-2.8-2.7-5.8-1.6-8.9c2.1-5.7,4.3-11.4,6.9-16.8
			c4.3-8.7,12.4-10.6,21.2-11.1c1.2-2.1-0.2-3.1-2-3.3c-2.8-0.4-2.9-2-2.4-4.1c0.3-1.1,0.5-2.2,0.8-3.3c0.9-3.7,0.6-7.2-1.2-10.5
			c-1.6-2.9-1.9-5.9-1.5-9.1c0.6-5.2-2.1-8.2-7.3-8.2c-0.5,0-1,0-1.4,0c-2.3,0.1-4-0.8-5.2-2.8c-0.6-1-1.2-1.9-1.9-2.8
			c-1.2-1.8-2.9-2.9-5.1-2.6c-1.9,0.3-3.6,1-5.5,1.5c-2.2,0.5-2.2,1.9-1.9,3.8c0.6,3.7,1,7.4,1.3,11.1c0.4,4.6,0.6,9.2,0.8,13.8
			c0.1,1.4,0.2,2.8,0,4.1c-0.5,2.7-1.9,5-4.7,5.9c-2.6,0.8-4.5-0.6-6.1-2.4c-1.4-1.6-2.7-3.4-4.3-4.9c-1.9-1.9-4-3.6-6-5.4
			c-0.3,0.1-0.6,0.2-0.8,0.3c-0.2,4-0.8,8.1-0.5,12.1c0.5,6.4,1.9,12.8,2.6,19.2C454.3,216,453.9,218.3,453.7,220.6z M506.2,204.7
			c-2.9,0.6-5.3,1.3-7.7,1.7c-3.9,0.7-7,2.8-8.8,6.1c-2.7,5.2-5.1,10.7-7.3,16.1c-0.6,1.5-0.8,3.8-0.1,5.1c2.6,5,5,10.4,10.9,12.9
			c6,2.5,7.1,5,6.1,11.3c-0.7,4.3,1.1,5.9,5.4,4.7c0.7-0.2,1.5-0.4,2-0.8c3.7-3.2,7.4-6.3,11-9.6c3.4-3.2,6.4-6.7,9.8-9.8
			c2.6-2.3,5.8-3.4,9.3-3.4c4.1,0,6.9,3.3,6.2,7.3c-0.1,0.8-0.5,1.6-0.5,2.3c0,0.7-0.1,1.8,0.3,2.2c0.5,0.3,1.5,0.1,2.2-0.1
			c0.5-0.1,1-0.5,1.5-0.8c3.8-2.1,5.4-1.7,9.1,0.5c3.2,1.9,6.9,3.7,10.6,4.1c2,0.2,4.4-2.4,6.5-4c2.2-1.7,3.7-4.2,3.4-7.1
			c-0.3-2.8-2.9-3.3-5.1-4.1c-3-1-4.1-2.5-3.8-5.8c0.2-2-0.5-3.4-2.2-4.4c-1.3-0.7-2.6-1.3-3.8-2c-1.5-0.8-3-1.5-4.4-2.5
			c-3.6-2.6-3.5-10.3,1.8-11.1c0.8-0.1,1.6-1,2-1.8c0.9-1.9,1.6-3.8,2.2-5.8c1.6-6.1-1-9.7-7.3-10.1c-2.7-0.2-4.9-1-7-2.7
			c-5-3.9-8-3.6-12.8,0.6c-2.6,2.3-5.2,4.6-8.2,6.2c-3.4,1.8-7.3,2.7-11,4c-2.1,0.7-3.8,1.6-4.4,4.1c-0.5,2-1.2,4-2.1,5.8
			c-0.3,0.7-1.5,1.3-2.2,1.2c-0.6,0-1.3-1.1-1.5-1.8c-0.3-0.9-0.1-1.9-0.1-2.9C505.9,208.7,506.1,206.9,506.2,204.7z M877,323.1
			c-3.5,1.9-6,3.8-6.1,8.6c-0.1,12.4-1,24.8-1.6,37.2c-0.6,12.1-1.1,24.2-2.1,36.2c-0.4,4.8,2.5,6.7,5.1,9.2
			c0.4-2.5,0.6-4.9,1.2-7.2c0.2-0.8,1.4-1.3,2.2-1.9c0.4,0.9,1.1,1.8,1.1,2.6c-0.2,3.6-0.7,7.1-1,10.7c0,0.3,0.2,0.8,0.4,1.1
			c1.3,1.5,2.7,2.9,4.4,4.8c0.9-1.1,1.5-2.2,2.4-3c1.3-1.2,1.6-2.2,0.8-3.9c-1-2.2-1.5-4.5-2-6.9c-0.3-1.3-0.5-3,1.5-3.2
			c1.8-0.1,1.6,1.5,1.9,2.7c0.6,2.5,1.5,4.9,2.3,7.6c1.9-1.2,3.2-2,4.5-2.8c-0.4-2.1-1-4.1-1.1-6.2c0-0.7,1.1-1.4,1.7-2.1
			c0.5,0.7,1.3,1.3,1.6,2c0.5,1.5,0.8,3,1.1,4.4c0.5,0.1,0.6,0.1,0.6,0.1c0.4-0.1,0.8-0.2,1.2-0.3c4.5-1.1,8.6-0.9,12.4,2.3
			c2.9,2.4,6.2,4.4,9.7,5.1c1.2-1.9,2.2-3.6,3.2-5.3c0.8-1.5,1.9-3,2-4.6c0.7-8.8-0.8-17.2-5.4-24.9c-2.4-4.1-4.9-8.4-6.3-12.9
			c-3-9.4-5.3-19-8.1-28.4c-1.3-4.4-3.3-8.6-5.2-12.8c-1.8-3.9-5-6.4-8.7-8c-1.4,0.8-2.7,1.6-4.1,2.4c0.1,0.5,0.2,1.2,0.4,1.8
			c0.8,1.8,1.7,3.6,2.5,5.4c0.6,1.2,1.4,2.6-0.2,3.3c-0.6,0.3-2-0.8-2.7-1.5c-0.7-0.7-1.1-1.8-1.5-2.7c-0.7-1.5-1.3-3-2-4.4
			c-0.3,0-0.5,0-0.8,0c-0.8,2.5-1.5,5-2.5,7.4c-0.3,0.7-1.3,1.1-2,1.7c-0.5-0.8-1.3-1.6-1.3-2.4c0-1.2,0.4-2.6,1-3.7
			C878.8,328.1,878.9,325.7,877,323.1z M605.8,229.2c7.9,2.7,15.7,5.2,23.4,7.9c3.2,1.1,6.3,2.6,9.5,3.9c1.1,0.5,2.1,1.1,3.2,1.7
			c1.5,0.8,2.5,0.5,3.6-0.9c2.6-3.4,5.5-6.7,9.5-8.7c0.5-0.3,1-1.2,0.9-1.7c-0.3-3.1,1.1-5.6,2.4-8.2c1.5-3.3,4.1-4.5,7.5-4.4
			c2.8,0.1,4.3,1.4,4.1,4.2c-0.1,2.1-0.9,4.2-1.5,6.3c-0.5,1.8-1.6,3.6-1.6,5.5c-0.2,5.7,0.1,11.5,0,17.3c0,2.2,0.8,3,2.8,3.7
			c4,1.4,7.9,2.9,11.8,4.7c4.4,2.1,8.6,4.5,13,6.7c0.9-0.8,1.6-1.4,2.3-2.1c-1.3-1.6-2.6-2.9-3.7-4.4c-0.8-1.1-1.5-2.5-0.1-3.3
			c0.7-0.4,2.2,0,3.1,0.5c1.5,0.9,2.8,2.1,4.6,3.5c0-2.6-0.2-4.5,0.1-6.4c0.1-1,1-1.8,1.5-2.7c0.9,0.6,2.2,1,2.7,1.8
			c0.9,1.5,1.3,3.2,2,4.9c1.5-1.8,2.6-3.6,4.2-5c0.9-0.8,2.5-0.7,3.8-1c0.2,1.3,0.6,2.7,0.5,3.9c-0.1,1.3-0.7,2.6-1.1,3.8
			c6.2,1.1,10.7,4.1,14.1,9.4c-0.1-1.7,0-3.2-0.4-4.6c-1-3.3-2.4-6.4-3.5-9.7c-0.3-0.9-0.3-2.1-0.1-3.1c0.8-4.5,3.3-7.9,7.4-10
			c0.8-0.4,1.5-0.8,2.3-1.2c-2-0.6-3.9-0.7-5.8-0.8c-5.6-0.4-6.6-1.5-5.4-7c0.4-1.7-0.1-2.6-1.9-2.8c-2.1-0.2-4.2-0.2-6.2-0.5
			c-2.7-0.4-3.1-1.4-3.2-4.1c-0.2-3.7-0.1-7.7-1.5-11.1c-2-4.7-4.9-9-7.9-13.1c-1.3-1.8-3.6-3.3-5.8-4c-11.4-3.3-22.6-1.9-33.9,2.1
			c0.9,2.7,1.6,5.3,2.5,7.8c0.6,1.6,0.5,2.8-1,3.8c-0.8,0.6-1.5,1.2-2.3,1.8c-1.7,1.2-2.7,0.9-3.4-1.1c-0.1-0.4-0.3-0.8-0.5-1.1
			c-0.2,0-0.4-0.1-0.6-0.1c-0.5,1.6-1.2,3.2-1.6,4.8c-0.5,1.8-1.1,3.4-3.6,2.9c-0.4-0.1-0.9,0.2-1.2,0.5c-1.6,1.5-3.1,3-4.7,4.4
			c-1.7,1.5-3.2,3.8-5.8,1.1c-0.2-0.2-0.8-0.1-1.2-0.1c-9.7-0.3-19.3-0.6-29-0.8c-0.6,0-1.3,0.5-1.7,1
			C607.6,226.3,606.8,227.7,605.8,229.2z M320.7,320.5c0.3-0.2,0.5-0.3,0.8-0.5c-4.1-7.6-8.2-15.2-12.3-22.6
			c-1.7,2.1-3.3,4.6-5.3,6.5c-10.4,9.6-23.6,11.2-36.8,12.4c-0.6,0.1-1.3-0.8-2-1.3c0.5-0.7,0.8-1.6,1.5-1.9
			c1.1-0.4,2.3-0.4,3.5-0.6c6.2-1.2,12.6-1.8,18.5-3.7c7.5-2.3,14.1-6.5,17.6-14.2c1.8-3.9,1-8.4-2.1-11.2c-2.5-2.2-5.4-3.7-8.9-3.7
			c-4.9,0-9.7-0.2-14.6,0c-10.9,0.5-21.7,1.3-32.6,2.1c-2,0.1-4,0.7-6.3,1.1c2.9,5.4,5.7,10.6,8.5,15.8c0.6,1.2,1.3,2.5-0.2,3.4
			c-1.5,0.9-2.3-0.4-2.9-1.6c-3.1-5.9-5.9-11.9-9.3-17.6c-2.1-3.5-4.8-6.6-7.6-9.5c-2.3-2.4-4.9-1.7-6.4,1.3c-0.5,1-0.9,2.1-1.2,3.1
			c-2,5.6-3.8,11.2-5.9,16.7c-1.4,3.7-3,7.4-4.5,11.1c0.6,0.3,0.9,0.4,1.2,0.6c1,0.7,1.9,1.4,2.9,2.1c-0.8,1-1.5,2.2-2.5,2.9
			c-3.1,2-4.1,5.1-5,8.9c5.6,0.6,10.9,1.4,16.2,1.8c7.3,0.5,14.7,0.6,22.1,1.1c8.4,0.5,15.8,3.6,21.2,10.2c2.1,2.6,3.7,3.3,7,2.4
			c11.1-2.7,20.4-8.4,28.1-16.7c2.2-2.4,4.5-3.2,7.5-2.1C314.1,318.1,317.4,319.3,320.7,320.5z M783.6,426.3c0-0.9,0-1.2,0-1.5
			c-1.1-7.4-2-14.9-3.5-22.3c-0.6-3.2-2.2-6.3-3.9-9.1c-1.6-2.7-4-3.3-6.2-2.3c-3.8,1.8-6.7,3.1-6.5,7.3c0.2,4.6-0.2,9.3-0.5,13.9
			c-0.1,1.4-0.9,2.5-2.3,1.9c-0.7-0.3-1.4-1.7-1.4-2.6c0.1-4.6,0.9-9.2,0.7-13.8c-0.3-5.8-2.4-10.9-8.5-13.1c-3-1-6.2-1.9-9.3-2.1
			c-4.2-0.3-7.6,1.9-10.2,4.4c2.1,2.8,4,5.1,5.6,7.6c1.2,1.9,2.2,4.1,3,6.3c1.9,5.3,3.7,10.6,5.5,15.9c0.4,1.2,0.3,2.7-1.3,2.8
			c-0.7,0-1.5-1.2-2.1-2c-0.3-0.3-0.2-0.9-0.4-1.4c-2.3-7.8-4.8-15.5-9.3-22.3c-1-1.6-3.1-3.3-4.8-3.5c-6.8-0.6-13.8-1-20.5,1
			c-6.5,1.9-12.1,5.7-16.3,10.8c3.2,3.2,6.4,6,9.3,9.1c2.9,3.3,2.5,7.5-1,10.1c-3.2,2.5-6.8,4.6-10.1,6.9c-0.9,0.6-1.6,1.7-2.2,2.7
			c-1.4,2.2-2.2,4.9-4,6.7c-2.7,2.8-6,5-9.1,7.4c1.1,3.6-2.6,5.2-3.3,8.1c3.3,1.1,6.6,2.4,10,3.3c3.9,1,6.4-1,6.7-5
			c0.1-1,0.1-2.1,0.2-3.1c0.3-3.6,2.8-6.2,6.4-6.8c3.1-0.5,5.9,0.1,8.4,2.1c3.8,2.9,7.7,3.5,12.1,1.2c3.2-1.7,3.6-1.7,3.1-5.4
			c-0.8-6.2,1.1-11.6,4.1-16.8c0.3-0.5,1.1-1,1.7-1.1c1.4-0.2,2.8-0.3,4.3-0.3c6.9-0.4,13.7-0.7,20.6-1.2c3.4-0.2,6.7-0.6,10.1-0.8
			c1.8-0.1,3.2,0.7,3.5,2.6c0.2,1.4,1.1,1.8,2.3,1.9c3.7,0.3,7.3,0.7,11,1.1C778,425.2,780.7,425.8,783.6,426.3z M528.6,179.4
			c1.4-1.5,2.5-2.8,3.7-4c1.9-1.8,3.7-3.8,5.8-5.3c0.7-0.5,2.5-0.4,3.2,0.1c0.7,0.5,0.8,1.9,0.9,2.9c0,0.7-0.4,1.6-0.9,2.2
			c-3,3.7-5.9,7.3-9.1,10.8c-2.1,2.3-2.2,2.7,0.1,5c0.3-0.2,0.6-0.5,0.9-0.7c5.5-4.9,10.6-5.3,16.5-0.9c2.1,1.5,4.2,2.3,6.8,2.5
			c7,0.6,11.2,5.7,10.2,12.7c-0.5,3.5-2,6.9-3.4,10.2c-0.5,1.1-2,2-3.3,2.6c-2.2,1-2.7,2.8-0.8,4.3c1.2,0.9,2.7,1.4,4,2.1
			c3.9,1.9,7.9,3.8,7.9,9.2c7.9-5,11-5.2,19.2-1.4c0.8,0.3,1.7,0.5,2.5,0.4c4.8-0.3,8.5-2.6,11.5-6.2c3.6-4.3,3.5-7.9-0.2-11.9
			c-0.1-0.1-0.2-0.2-0.3-0.4c-1.6-1.9-1.5-3,0.4-4.7c0.5-0.5,0.9-1.3,0.9-1.9c0-1.6-0.3-3.2-0.5-4.8c-0.2-1.8-0.4-3.6-0.8-5.4
			c-0.4-2.2-1.3-4.3-1.5-6.5c-0.3-3.2-0.2-6.4-0.1-9.5c0.3-5.6-3.2-10.5-9-12.5c-3.5-1.2-7.1-2.1-10.4-3.6c-2.3-1-3.8-1-4.8,1.3
			c-0.4,1-0.1,2.3-0.3,3.5c-0.1,0.8-0.6,1.5-0.9,2.2c-0.7-0.3-1.5-0.6-2.2-1c-0.4-0.3-0.5-1-0.7-1.5c-0.8-3.9-4.6-4.1-7.2-5.7
			c-0.3-0.2-1.2,0.4-1.5,0.8c-1.1,1.7-2,3.6-3.1,5.3c-0.4,0.7-1.3,1-2,1.5c-0.5-0.8-1.4-1.5-1.5-2.3c0-0.9,0.6-2,1.1-2.8
			c0.8-1.4,1.8-2.8,2.7-4.1c-0.8-0.9-1.6-1.8-2.1-2.4c-12.1,4.4-25.1,7-33.7,18C527.3,177.9,527.8,178.4,528.6,179.4z M300.7,401
			c-4.1-1-4.2-0.9-6.6-4.6c-4.2-6.6-9.2-12-17.4-13.7c-3.7-0.8-6.7-1.2-9.5,2c-1.3,1.5-3.6,2.2-4.6,3.8c-3.4,5.3-4.1,13.2,0.7,18.9
			c1.2,1.4,2.4,2.8,3.6,4.2c2,2.2,3.6,4.5,3.6,7.6c0,1.7,0.8,2.5,2.7,2.4c3.9-0.1,4,0.1,5.1,3.9c0.3,0.9,0.3,1.9,0.7,2.8
			c0.3,0.7,1,1.5,1.7,1.6c3.6,0.6,5.2,2.1,4.8,5.5c-0.5,3.9,1.5,6,4.3,8.1c4.6,3.5,9.2,7,13.4,10.9c3.6,3.4,6.7,7.3,10,11
			c1.7,1.8,3.4,3.5,6.3,3.4c10.8-0.6,20.4-8.5,22.8-19.4c0.2-1-0.1-2.6-0.8-3.2c-9-8.1-18-16.1-27.2-24c-2.2-1.9-4.8-3.2-7.1-5
			c-2.3-1.7-2.5-3.1-1.4-5.6c0.3-0.7,0.4-1.4,0.6-2.2C298.3,409.2,298.3,409.2,300.7,401z M508.3,110.7c-1.2-0.4-2.1-0.7-2.9-0.8
			c-4.2-0.5-8.4-1-12.6-1.3c-3.2-0.2-7.6-4.2-7.3-7.4c0.4-3.4-1-4.8-4-6c-3.3-1.2-6.8-2.6-7.7-6.8c-0.1-0.5-1.2-1-1.9-1
			c-3.7,0-7.4,0.4-11,0.2c-4.2-0.3-8.6,0.1-12.1-2.9c-1.5-1.2-2.7-1-3.5,0.6c-2,3.9-3.8,7.9-5.8,11.8c-1.4,2.8-1.3,5.1,1.1,7.3
			c2.8,2.6,2.9,5.8,1.6,9.3c-1.6,4.4-2.5,8.9-0.3,13.5c1.3,2.7,2.3,3.2,4.9,1.8c3.7-1.9,6.1-1.4,8.5,2c1,1.4,1.6,3.1,2.6,4.6
			c0.6,0.9,1.5,2,2.3,2.2c3.6,0.5,7.4,1.4,10.8,0.8c4.8-0.9,8.7,0,12.4,2.8c3.8,2.9,8,3,12.4,2.5c4.6-0.6,9.2-1.2,13.8,0.4
			c1,0.3,2.3,0.3,3.3,0c2.6-0.6,5.1-1.5,7.6-2.1c1.4-0.3,1.7-1,1.8-2.3c0.1-2.2,0.6-4.4,0.7-6.7c0.2-4.9,0.5-9.8,0.2-14.7
			c-0.1-1.7-1.5-4.2-2.8-4.6c-3.2-1-7.1-1.5-10.1,0.4c-5.4,3.3-11.1,4.7-16.9,2.1c-5.6-2.5-11.2-3.6-17.2-3.1
			c-2.7,0.2-4.8-1-6.6-2.9c-1.1-1.3-2.2-2.6-3.1-4c-3.6-5.9-8.4-9.3-15.7-8.5c-0.7,0.1-1.6-0.9-2.3-1.4c0.7-0.6,1.3-1.7,2-1.8
			c6.6-0.9,12.2,1.1,16.4,6.4c1.6,2.1,3.1,4.3,4.7,6.4c1.4,1.9,3.3,3,5.6,2.6c6-0.9,11.4,1.3,16.8,3
			C498.9,114.6,503.6,114.7,508.3,110.7z M433,453.4c0.1-0.3,0.2-0.6,0.3-0.9c-2.6-4.4-6.2-7.8-11-9.5c-11.8-4.2-21.4-11.3-29-21.3
			c-1.5-2-3.8-4-6.1-4.9c-8.6-3.4-17.4-6.5-26.2-9.3c-5.4-1.7-11.1-1.6-16.2,1c-5.7,3-11.1,6.4-16.5,9.7c-2.3,1.4-4.5,3-6.9,4.6
			c2,1.8,3.7,3.3,5.5,4.9c5.6,5,11.1,10.1,16.8,15.1c2.8,2.5,3.1,5.4,1.9,8.7c-0.6,1.6-1.2,3.3-1.8,4.8c7.5,5.5,16,7,24.8,5.8
			c6.5-0.9,12,0.7,17.2,4.2c3.8,2.6,7.6,5,11.5,7.5c0.7,0.5,1.6,0.7,2.5,1.1c0.2-0.2,0.3-0.4,0.5-0.6c-1-1.4-1.8-3-3-4.1
			c-3.8-3.4-7.6-6.6-11.5-9.8c-3-2.4-5.6-5-6.7-8.8c-1-3.6-0.3-6.6,2.9-8.4c2.5-1.4,5.2-2.3,8-3c11.5-2.7,21.9-0.4,31,7.3
			c2.2,1.8,4.8,3.2,7.4,4.5C429.7,452.9,431.4,453,433,453.4z M334.5,188.6c1.2-2.1,2-4.4,3.6-6.2c1.6-1.9,3.5-3.9,5.7-4.8
			c3.5-1.5,7.4-1.8,11.3-0.8c0.9,0.2,2,0.4,2.8,0c5.6-2.9,11.2-5.8,15-10.1c-5.5-16-10.9-31.6-16.3-47.2c-1.9,1.6-3.5,3.4-5.4,4.6
			c-8.1,5.1-17.2,7.3-26.5,8.5c-4.7,0.6-9.6,0.9-14-2.8c-4,11.1-5.5,22.3-6.6,33.4c2.8,0,5.3-0.1,7.8,0c6.1,0.2,11.6,7.8,9.3,13.4
			c-2,5.1,0.1,9.2,1.9,13.8C327,184.2,328.3,186.2,334.5,188.6z M449.8,219c0.3-0.1,0.6-0.2,0.8-0.3c0-1.5,0.2-2.9,0-4.4
			c-0.4-3.2-1.1-6.3-1.5-9.5c-0.9-7.1-2.2-14.1-0.7-21.2c0.7-3.5,0.4-6.8-1.5-9.9c-0.7-1.2-0.6-2.8-0.9-4.2c-0.3-1.4-0.3-3-1-4.1
			c-1.8-3-3.7-5.8,0.8-8.4c-0.9-0.4-1.4-0.6-1.8-0.7c-3.9-1-5-2.2-5.6-6.2c-0.2-1.3-0.2-2.7-0.2-4.1c-0.1-6.7-2.3-12.5-7.2-17.2
			c-2.5-2.4-5.2-3.6-8.6-2.2c-1.3,0.5-2.8,0.8-4.2,0.9c-6,0.6-9.1,3.6-9.7,9.6c-0.5,4.9-0.4,9.7,1,14.5c1.1,3.8,0.4,4.8-3.1,6.2
			c-0.7,0.3-1.2,0.8-2,1.3c5.7,2.2,6.2,3.3,3.5,6.5c0.5,4.1,1.9,7.9,0.7,11.7c-0.7,2.2-0.9,4.1,0.6,6.1c0.8,1.1,0.9,2.7,1,4.1
			c0.7,9.4,1.3,18.8,2,28.7c6.5-3.3,12.9-3.8,19.4-3.8C438.3,212.6,444.4,214.9,449.8,219z M730.9,347.9c1,4.8,1.9,9,2.8,13.3
			c0.8,3.9-0.3,6-3.7,7.9c-2.4,1.4-4.8,2.8-7.5,4.4c3.2,1.4,6.3,2.2,8.6,4c2.6,2.1,5.3,2.1,8.1,1.7c4.9-0.7,9.3,0.9,13.8,2.4
			c4.6,1.6,7.6,5.1,9.3,9.7c1.9-1.1,3.6-2.2,5.4-3.1c3.1-1.6,6.2-1.6,9,0.7c3,2.4,5.1,5.4,5.9,9.1c1,4.3,1.6,8.7,2.5,13
			c0.1,0.6,0.9,1.6,1.4,1.7c2.4,0.1,4.8-0.1,7.2-0.3c1.7-0.1,2.6-1.1,2.5-2.9c-0.2-2.8-0.3-5.6-0.5-8.4c0-0.4-0.2-0.8-0.4-1
			c-1.4-1.3-2.9-2.6-4.4-3.8c-5.6-4.1-10.6-8.7-13.2-15.4c-0.3-0.7-0.9-1.3-1.3-2c-3.5-5.4-4-11.2-1.1-16.9
			c3.4-6.6,7.2-13,10.9-19.4c1.9-3.2,3.8-6.4,5.9-9.8c-4.6-3.3-9.6-3.9-14.6-4.1c-1.7,0-3.6,0.7-5.2,1.5c-4.7,2.1-9.4,4.3-14.1,6.5
			c-0.9,0.4-1.9,0.9-2.8,1.3c-5.5,2.3-11.1,4.6-16.6,6.9C736.1,345.8,733.6,346.8,730.9,347.9z M300.5,192.6c-0.1,0-0.3,0.1-0.4,0.1
			c0.9,3.7,1.4,7.6,2.9,11.1c4,9.2,10.5,16.6,17.7,23.4c1.4,1.3,2.7,1.9,4.6,0.7c1-0.6,2.5-0.7,3.7-0.7c5.9,0.1,11,2.5,15.9,5.6
			c2.5,1.6,4.7,4.4,7.3,4.8c2.7,0.4,5.7-1.6,8.6-2.5c0.1,0,0.4,0,0.5-0.1c0.4-0.3,0.9-0.6,1-1.1c0.8-3.2,3.1-5.2,5.7-6.8
			c3.9-2.5,8.1-4.6,11.5-7.6c3.9-3.4,7.2-7.5,10.6-11.4c1.1-1.3,2-3.1,0.4-4.8c-1.5-1.6-3.1-0.7-4.6,0c-2.8,1.2-5.5,2.6-8.2,3.9
			c-6.8,3.2-12.6,0.3-14.1-7.1c-0.1-0.7-0.2-1.4-0.3-2.1c-0.9-4.6-1.4-9.3-4.1-13.4c-4-6.1-14.6-6-18.5,0.2c-2.5,4-3.5,8.3-4,12.9
			c-0.5,4.5-1.3,9.1-2.7,13.3c-1.3,4.1-4.8,4.5-7.8,1.3c-2.4-2.6-4.7-5.4-7.1-8.1c-2.3-2.6-4.4-5.3-6.9-7.7
			c-2.6-2.5-5.4-4.7-8.4-6.8c-2-1.4-3.1-0.7-3.3,1.7C300.5,191.6,300.5,192.1,300.5,192.6z M129.4,435.8c0-0.2,0-0.3,0-0.5
			c1.9,0.4,3.9,0.9,5.8,1.3c3.1,0.7,6.2,1.4,9.4,2c1.4,0.3,2.9,0.3,2.9-1.8c-0.1-3.2-1.4-8.4-6.1-10c-2.7-0.9-5.4-2.1-7.9-3.5
			c-5.8-3.2-10.5-7.5-12.6-14.2c-0.6-2-1.9-3.9-3-5.7c-1.6-2.5-4.1-4.1-7.1-3.7c-2.7,0.4-5.4,1.1-8,2.1c-3.1,1.1-5.8,1-8.8-0.3
			c-1.9-0.8-4.3-0.9-6.2-0.5c-2.1,0.5-4.1,1.8-5.9,3c-2.5,1.6-4.8,3.5-7.3,5.1c-5.2,3.4-13.9,4.6-18.6-2.5c-0.2-0.3-0.5-0.6-0.8-0.9
			c-3.6-3.7-7.8-3.5-10.5,1c-1.9,3.2-3.2,6.8-4.8,10.2c-0.7,1.4,0.1,2.1,1.3,2.8c2.3,1.4,4.6,2.9,6.5,4.7c2.6,2.5,5.5,4,8.9,5
			c5.3,1.5,10.6,1.3,15.9-0.1c3.4-0.9,6.6-2.8,10-3.1c9.1-1,17.3,2.2,24.8,7.2c2.8,1.8,5.7,2.9,9,2.8
			C120.7,436.3,125.1,436,129.4,435.8z M407.2,431.7c4.1,2.1,8,4.3,12.1,6.1c5.7,2.4,11.3,5,15.2,10.1c0.5,0.6,1.5,1,2.3,1
			c4.6-0.2,8.7,1.7,12.9,3.2c5.1,1.9,10.3,3.6,15.5,4.9c4.6,1.1,9.5,1.7,14.2,2.3c3.2,0.4,6.5,0.6,9.8,0.7c0.7,0,2-0.7,2.2-1.3
			c0.5-1.8,0.7-3.8,0.8-5.7c0.2-6.3-0.9-12.5-3.6-18.2c-2.4-5.1-5.2-10.1-11.3-11.6c-5-1.2-10-2.2-15-3c-12.1-1.8-24.2-2.6-36.2,0.7
			C419,422.9,412.2,425.1,407.2,431.7z M273.2,339.8c1.5,4,3.1,7.9,4.3,11.8c0.7,2.2,2,3,4,3.5c3.1,0.8,6.2,1.5,9.1,2.8
			c5.7,2.5,11.3,5.2,17,7.9c4,1.9,10.4,1.1,13.7-1.8c2.8-2.5,5.9-4.1,9.8-3.8c1.9,0.2,3.4-0.6,4.5-2.2c2.3-3.4,4.7-6.6,9.4-7.1
			c-0.2-5.9-0.8-11.7,5.1-15.9c-1.8-0.7-3-1.1-4.3-1.6c-7-2.4-14.1-4.7-21.1-7.2c-5-1.8-9.7-4-14.7-5.9c-1-0.4-2.9-0.1-3.6,0.6
			c-7.5,7.6-15.8,13.8-26.2,16.8C277.8,338.5,275.4,339.2,273.2,339.8z M458.4,356.7c-1.2-2.4-0.6-4.6,1.8-6.3
			c3.5-2.6,3.3-2.5,2.5-6.4c-1.6-7.1-4.2-13.8-7.3-20.3c-1.7-3.6-3.7-7.1-6-10.3c-3.6-5.2-7.7-10-11-15.4c-3.5-5.4-8-9.6-13.2-13
			c-1.1-0.7-2.7-1.2-3.9-1c-2.1,0.5-4,1.6-6.4,2.7c0,0.2-0.1,1,0,1.8c0.9,10,1.7,19.9,2.7,29.9c0.5,5,1.6,9.9,2.1,14.9
			c0.4,3.9,0.5,4.4,4.4,5.5c0.3,0.1,0.6,0.1,0.9,0.2c3.3,0.9,5.6,3.8,5.7,7.2c0,0.6-0.1,1.4,0.3,1.8c1.7,1.9,3.6,3.7,5.3,5.6
			c1.5-2.5,5.4-5.6,8.4-6.6c4.5-1.5,8.1,0.2,10,4.6c0.6,1.5,1,3.2,1.5,4.8C456.7,357.8,457.4,357.8,458.4,356.7z M794.2,329.3
			c1.8-2.9,3.7-5.8,5.5-8.8c6.1-10.5,12.2-21,18.4-31.5c1-1.7,0.7-2.5-0.9-3.4c-4.4-2.6-9.1-4-14.1-4.4c-6-0.6-11.2,0.9-14.4,6.5
			c-0.3,0.5-0.8,1.1-1.4,1.3c-4.6,2.3-9.2,4.8-14.6,3.1c-1.5-0.4-2.9-1-4.4-1.1c-1.1-0.1-2.5,0.1-3.2,0.8c-2.3,2.2-4.6,4.5-6.6,7
			c-0.9,1.2-1.9,3-1.7,4.2c1.1,5.2-1.2,10-1,15.5c-0.3-0.3-0.2-0.1,0,0c5,2.5,10,5.1,15,7.6c0.4,0.2,1,0.2,1.4,0
			C780,323.4,786.9,326.1,794.2,329.3z M372.9,332.3c0-0.2-0.1-0.4-0.1-0.6c-4.5,0.9-9.2,1.4-13.5,2.8c-3,0.9-5.8,2.7-8.4,4.6
			c-2.7,2.1-3,6-0.9,7.8c5.2,4.3,10.6,8,17.9,7.5c3.9-0.3,6.9,1.3,8,5.3c0.5,1.9,1.7,2.2,3.5,1.3c2.8-1.4,4.3-1.1,6.3,1.3
			c0.9,1,1.7,2.2,2.1,3.5c0.8,2.7,2.6,3.9,5.3,4c0.8,0,1.6,0,2.4,0.2c1.7,0.4,2.6-0.2,3.5-1.7c1.4-2.5,3.3-4.8,6.5-4.7
			c6.4,0.1,11.6-2.9,16.2-6.8c1.8-1.5,3.3-3.7,4.4-5.9c2.3-4.6,1.5-6.5-3.2-8.4c-0.3-0.1-0.6-0.3-0.9-0.4
			c-8.3-4.3-17.3-6.3-26.4-7.7C388.2,333,380.5,332.9,372.9,332.3z M360.2,179.8c3.8,4.2,5.3,9.1,6.1,14.2c0.3,1.8,0.6,3.6,0.9,5.4
			c0.9,4.5,3.6,6.1,7.9,4.7c4.1-1.4,8-3.2,12.1-4.6c4-1.3,7.8,2,7.1,6.1c-0.3,1.5-0.8,3.2-1.8,4.4c-3.5,4.1-7,8.2-11,11.7
			c-3.7,3.3-8,5.8-12.1,8.6c-1.5,1-3.1,2-3.1,4.2c3,0.8,6,1.7,9,2.5c0.4-0.9,1-1.9,1.2-3c1.1-4.1,3.3-6.7,7.4-8.6
			c5-2.3,9.7-4.8,15.2-5.7c3.6-0.6,7.1-1.6,10.6-2.4c-0.3-1.4-0.5-2.2-0.6-3.1c-0.7-7.2-1.5-14.5-2.2-21.7c-0.1-1.3-0.5-2-1.8-2.3
			c-2.1-0.6-3.3-2.2-3.5-4.2c-0.3-3.4-2.2-4.7-5.3-5.1c-2.2-0.3-3.8-1.4-4-3.8c-0.1-1.3,0.2-2.5,0.2-3.8c0.2-3.7,0.7-7.4,0.5-11.1
			c-0.1-1.4-1.2-3.3-2.5-4c-3.8-2.3-8.1-1.9-11.9,0c-3.5,1.7-3.6,2.7-2,6.4c0.6,1.3,0.7,2.4-0.5,3.4c-2.5,2.2-4.8,4.7-7.5,6.7
			C366.1,176.7,363.2,178.1,360.2,179.8z M219.2,245.3c0.2,0.2,0.4,0.4,0.6,0.6c1.3,0,2.6-0.1,3.8,0c3.5,0.5,6.7,1.4,9,4.4
			c2.5,3.3,5.2,6.5,7.6,9.8c0.8,1.1,1.6,2.7,1.3,3.8c-0.9,3.4-2.3,6.6-3.5,9.8c-0.2,0.6-0.6,1.4-0.4,1.9c1.2,2.9,2.8,3.7,6,3.2
			c1.2-0.2,2.3-0.6,3.5-0.7c11.7-0.8,23.3-1.5,35-2.2c0.4,0,0.8-0.1,1.3-0.2c-1.2-8.7,2-16.3,5.4-23.8c0.2-0.4,0.2-1,0.2-1.5
			c-0.3-1.8-0.9-3.5-1.1-5.3c-0.4-3.1-0.7-6.2-0.9-8.9c-6.6-0.5-13,0.5-18.7-3.5c-1.1,3.2-2,6.2-3,9.2c-0.9,2.9-1.7,5.7,1.8,7.6
			c0.5,0.3,0.3,1.6,0.4,2.5c-0.9,0-2,0.3-2.5-0.1c-1.6-1.2-2.9-2.8-4.5-4c-0.9-0.8-2.2-1.7-3.2-1.7c-3.8,0.1-7.7,0.6-12,1.1
			c1.7,1.2,2.9,2,3.9,3c0.4,0.5,0.6,1.8,0.2,2.3c-0.3,0.5-1.7,0.7-2.2,0.4c-4.8-3.2-10.1-5.7-13.9-10.1c-1.2-1.4-2.6-2.6-3.9-3.9
			c-1.9-1.7-4.1-1.9-5.7,0C221.9,241,220.6,243.2,219.2,245.3z M803.5,232.9c-12.5,1.5-24.8,2.7-36.9,4.6c-9.5,1.5-18.9,4-28.3,6.4
			c-2.7,0.7-5.3,2.3-7.6,3.9c-2,1.4-3.1,3.8-2.6,6.3c0.5,2.7,3.2,2.5,5.1,3.3c0.3,0.1,0.6,0.1,0.9,0.1c9.6-0.1,19.2,0,28.8-0.4
			c5.3-0.2,10.5-1.2,15.8-1.6c8.1-0.6,16.3-1.1,24.4-1.6c7.3-0.4,14-2.3,20.2-6.2c2.7-1.6,4.1-4.7,3.6-7.3c-0.6-3.2-3.2-3.4-5.7-3.8
			c-3.5-0.6-7.1-1.2-10.6-2C808.2,234.3,805.8,233.5,803.5,232.9z M193.5,319.5c-1.6-1.4-2.7-2.2-3.7-3.2c-1-1.1-2-2.3-2.9-3.5
			c-2.4-3.2-2.6-5.9-0.3-9c3.2-4.2,7.3-7.5,12.3-9.3c4.1-1.5,6.5,0.7,5.5,5c-0.4,1.7-1.1,3.4-1.6,5.1c2.2-0.2,4.1-0.5,6.3-0.7
			c2.5-6.2,5-12.6,7.6-19c-3-1.4-5.7-1.3-8.5-0.5c-3.4,1.1-6.8,2.3-10.3,3.1c-1.4,0.3-3.3,0.4-4.5-0.3c-2.3-1.3-4.2-3.4-6.4-5
			c-0.8-0.6-2.2-1.2-2.8-0.9c-2,0.9-4.1,2-5.6,3.6c-5.8,6.2-11.2,12.7-13.3,21.3c-1.3,5.2-4.1,6.2-9.2,4.3c-3.4-1.3-5.3-0.8-7.5,2.2
			c-0.8,1-1.5,2.1-2,3.3c-2.4,5.7-4.6,11.4-6.9,17.1c-0.2,0.5-0.2,1.2-0.4,2c7.2,1.9,14.2,3.7,21.3,5.5c0.1-0.5,0.2-0.8,0.3-1.1
			c1.2-9.6,5.5-14.5,15-16.6C181.3,321.6,187,320.7,193.5,319.5z M726.1,345c-27.1,17.4-55.9,30.6-82.1,47.3c2.8,3,5.6,6.1,8.6,9.1
			c1.3,1.3,3,2.3,3.9,2.9c2.4-1.4,4.1-2.5,6-3.5c1.3-0.6,2.7-1,4-1.5c6.8-2.9,12.5-8.1,19.9-9.9c0.9-0.2,1.7-0.8,2.5-1.3
			c2.5-1.4,4.9-3,7.4-4.3c4.6-2.5,9.5-4.7,14-7.4c6.2-3.6,12.2-7.4,18.2-11.2c0.8-0.5,1.4-2.1,1.2-3
			C728.8,356.7,727.5,351.2,726.1,345z M585.3,427.3c-2.9,0-5.1,0.4-7.1-0.1c-2.1-0.5-4-1.6-5.8-2.7c-1.9-1.2-3.7-2.7-5.4-4.3
			c-4.5-4.1-12.2-1.9-14.3,3.7c-0.9,2.4-2.5,4.7-4.4,6.4c-3.3,3.1-7.7,4.5-12,5.8c-4.4,1.3-7.6,5.1-7.9,9.5c-0.3,5,1.4,7.6,6.5,9.7
			c3.3,1.3,6.3,3.1,8.7,5.8c0.7,0.8,1.5,1.4,2.3,2.1c2.6,2,5.1,1.1,5.7-2.1c0.4-2.1,0-4.4,0.4-6.4c0.5-2.4,1.2-4.8,2.5-6.8
			c1.7-2.6,5.3-2.6,7.2-0.1c1.2,1.5,1.8,3.5,2.7,5.3c0.7,1.4,1.3,2.9,2.2,4.2c1,1.3,2.1,1.4,3.2-0.3c1.4-2,2.9-4.1,4.7-5.8
			c2.2-2.2,4.9-2.1,7.5-0.3c0.7,0.5,1.4,1.1,2.2,1.4c1.6,0.5,3.4,0.8,4.2-1c1.4-2.9,2.8-5.9,3.5-9.1c0.9-3.7-0.8-5.5-4.5-5.6
			c-3.7-0.1-5.1-2.6-3.4-5.9C584.5,429.7,584.8,428.6,585.3,427.3z M724,426.8c-3.6,5.1-4.3,13.9,3.2,16.9c5.1,2,10.5,3.7,15.9,4.3
			c9.2,1,18.5,1.4,27.3,4.8c7.1,2.8,14.4,4.3,22,4.1c7.4-0.2,10-1.9,12.5-8.6c2.1-5.7,1.7-7.9-2.6-11.2c-5.2-4.1-11.2-6.4-17.7-7.4
			c-2.8-0.4-5.5-0.8-8.3-1.2c-4.4-0.6-8.8-1.1-13.5-1.6c0,3.6-2,4-4.4,3.7c-3.3-0.3-6.6-0.5-10.1-0.8c1.7,4.8,0.1,9.1-1.3,13.3
			c-0.6,2-2.4,2.4-4.1,1c-1.5-1.2-2.9-2.6-4.1-4C734.6,435.1,730,430.4,724,426.8z M533.9,345.1c-1.6-1.1-2.7-2.1-4.1-2.8
			c-8.2-3.7-16.5-7.3-24.8-11c-6.2-2.7-12.4-5.5-19.3-6.4c-2.7-0.4-5.3-1.7-7.9-2.6c-1.2-0.4-2.4-1-3.6-1.5
			c-0.2,0.6-0.3,0.7-0.3,0.9c0,0.7-0.1,1.4,0,2.2c0.2,8.3-2.4,16-6.1,23.2c-1.5,2.8-2.6,6.4-6.4,7.4c0,0,0,0.3,0-0.2
			c2.7,0,5.4-0.1,8,0c1.2,0.1,2.3,0.7,3.5,0.8c3.9,0.3,4.4,0.8,4.5,4.8c0,1.8,0.9,2.5,2.6,1.6c1.3-0.6,2.4-1.6,3.7-2.2
			c3.1-1.4,5.3-0.3,5.9,2.8c8.3-1.7,16.7-3.4,25.1-5.1c0-6.7,2.1-8.8,9.3-9.9C527,346.5,530.1,345.8,533.9,345.1z M424.5,249.8
			c-0.9-0.4-1.7-0.8-2.5-1.1c-5.2-2-10.5-3.8-15.6-6.1c-7.1-3.1-14-6.6-21.1-9.8c-3.7-1.7-3.7-1.6-5.3,2c-0.7,1.5-1.7,3-2.6,4.4
			c-0.5,0.7-1.3,1.4-1.5,2.1c-1.3,7.5-2.4,15-3.8,22.4c-1.2,6-2.2,12.3-4.7,17.8c-1.4,3.2,0.6,4.8,0.4,7.7c0.7-0.6,1-0.8,1.2-1
			c5.4-6.8,11-13.1,19.2-16.9c9.1-4.2,17.8-8.9,28.3-7.6c0.7,0.1,1.5,0.2,2.1,0c0.6-0.2,1.3-0.6,1.5-1.1
			C421.5,258.6,423,254.4,424.5,249.8z M827.1,258.6c-3.2,1.1-6.3,1.7-9,3c-6.6,3.2-13.4,5.3-20.6,5.8c-10.9,0.7-21.9,1.4-32.8,2.2
			c-5.6,0.4-11.3,0.8-17.2,1.2c0.5,6.8,0.9,13.3,1.4,20.4c1.6,0.8,4,1.8,6.2,3.1c1.6,0.9,2.7,0.6,3.7-0.7c0.4-0.6,0.9-1.1,1.4-1.7
			c2.9-3.7,6.2-5.5,11.3-3.8c6.5,2.2,12.3,0.8,16.5-5.1c0.6-0.8,1.5-1.5,2.3-2.1c5.6-4.1,11.9-4.1,18.2-2.4
			c4.5,1.2,8.8,3.2,13.4,4.9c1.9-3,4.1-6.4,6.3-9.9c0.2-0.3,0.4-0.7,0.4-1.1C828,267.8,827.5,263.2,827.1,258.6z M947.3,431.6
			c0.3-2.1-1.1-2.9-3-3.3c-6.9-1.1-13.8-2.4-20.8-3.3c-6.2-0.8-11.4-3.5-16.4-7c-2.8-2-5.9-2.8-9.1-1.6c-7.2,2.6-13.4,6.8-17.4,13.3
			c-3.9,6.3-9,10.6-16.1,12.9c-3.9,1.2-5.7,5.1-5,9.2c0.3,1.5-0.4,3.2-0.7,4.8c-0.2,0.9-0.7,2.3-0.4,2.6c0.7,0.6,1.8,0.7,2.8,0.7
			c0.6,0,1.2-0.5,1.8-0.7c5.3-2.4,10.4-2.2,15.2,1.3c1.7,1.2,3.4,2.4,5.3,3.3c8.7,4.3,17.4,8.4,26.2,12.6c3.9,1.9,7,1,9.2-2.7
			c1.7-2.8,3.2-5.7,4.9-8.5c1.5-2.5,2.8-5.1,4.7-7.2c3.7-4.3,7.8-8.2,11.7-12.4C943.8,441.6,947,437.5,947.3,431.6z M385.8,228.9
			c3.8,2,7.2,4.2,10.9,5.8c9,3.8,18.1,7.3,27.2,10.9c0.8,0.3,1.9,0.4,2.7,0.2c6.1-2.2,12.2-4.4,18.2-6.7c4.4-1.7,8.7-3.6,13.1-5.3
			c1.8-0.7,3.8-1.2,5.8-1.8c-0.3-0.4-0.4-0.6-0.6-0.7c-6.1-3.8-12.2-7.7-18.4-11.4c-8.5-5.2-17.6-4.6-26.7-2.1
			c-5.8,1.6-11.4,3.7-17.2,5.1C395.6,224.2,390.4,225.6,385.8,228.9z M442.6,414.8c-0.5-7.9-1.2-15.6,1.4-23.2
			c0.2-0.6-0.1-1.4-0.4-2c-1.8-3.7-4.6-6.3-8.6-7.1c-3.9-0.8-7.9-1-11.8-1.5c-2.3-0.3-3.1,1-3.1,2.9c0,2.4,0.1,4.8,0.4,7.2
			c0.7,4.9,0,6.1-4.8,7.2c-0.8,0.2-1.6,0.3-2.4,0.4c-4.8,0.4-9.6,0.8-14.3,1.3c-1.7,0.2-3.4,0.7-5.1,1c0,0.3,0.1,0.6,0.1,0.9
			c0.7,0.2,1.3,0.3,2,0.5c1.6,0.5,3.3,0.8,4.7,1.7c2.4,1.6,2,3.8-0.6,4.9c-1.2,0.5-2.5,1-3.9,1.5c1.6,3.2,0.2,5-2.7,6.1
			c3.8,4.2,7.4,8.3,11.1,12.5C414.9,417.4,429,416.9,442.6,414.8z M416.1,335.2c-1.8-16.3-3.6-32.6-5.5-49.1c-1.3-0.2-3-0.1-4.3-0.7
			c-3.9-1.7-7,0.3-9.6,2.5c-5.7,4.9-10,11-12.5,18.2c-2.4,7.2-2.5,14.6-3,22c0,0.4,0.7,1.2,1.3,1.3c1,0.3,2.1,0.2,3.1,0.3
			c5,0.6,10,0.9,15,1.8C405.8,332.5,410.9,333.9,416.1,335.2z M727.7,274.5c-0.7-0.5-1.1-0.9-1.6-1.2c-2.1-1.2-5.1-1.7-4.3-5.3
			c0-0.1-0.2-0.4-0.4-0.5c-2-1.3-3.8-3.1-6.6-2.9c-3.8,0.2-4.6-0.5-4.7-3.7c-1.4,1.9-2.5,4.3-5.6,2.4c0.1,2.9-1.4,3.8-3.8,4
			c-1.2,0.1-2.9,1-3.4,2c-1.8,3.6-3.3,7.4-4.7,11.1c-0.4,1-0.3,2.3-0.4,3.8c0.7-0.4,0.9-0.6,1.2-0.7c1.3-0.4,2.6-0.7,3.9-1
			c0.2,1.3,0.5,2.6,0.4,4c-0.1,2.4-0.4,4.8-0.5,7.1c0,0.4,0.2,1.1,0.5,1.2c2.1,0.8,1.5,2.6,1.6,4.1c0.1,1.4,0,2.8,0,4.6
			c2.6-2.5,2.7-2.4,4.6,0.1c0.3,0.4,1,0.6,1.6,0.9c4.5,1.9,9.4-0.8,14,0.9c0.2,0.1,0.7-0.4,1-0.5c1.7-0.8,3.3-1.5,5.5-2.5
			c0.3-3.8,4.3-2.7,7.2-3.2c-1.9-3.9-1.5-4.8,2.3-6.2c-0.4-1-1.1-2.1-1-3c0.2-3-1.8-7.6-4.7-8.5c-3-0.9-3.6-3.3-4.9-5.5
			C725.9,275.5,726.7,275,727.7,274.5z M348.5,350.3c-0.9,17.9-2.1,35.4,0.3,52.5c4.5,0.4,8.8,0.1,12.7,1.2
			c8.2,2.3,16.3,5.1,24.3,8.2c2.5,1,4.7,0.8,7.2,0.3c-1.2-3.3,0.3-5.2,3.8-6.3c-1.7-0.5-3-0.5-3.8-1.1c-1.1-0.9-2.4-2.1-2.5-3.3
			c-0.1-1.2,0.9-2.8,1.9-3.8c0.7-0.7,2-1,3.1-1.1c5.9-0.7,11.8-1.3,17.7-1.8c4.1-0.3,4.4-0.6,3.8-4.5c-0.1-0.6-0.2-1.2-0.3-2.2
			c-1.4,0.7-2.6,1.5-4,2c-6.5,2.3-12.6,5.7-19.9,4.9c-2.9-0.3-4.5-1.7-5.4-4c-0.6-1.7-1.5-1.7-2.9-2c-6.4-1.2-12.9-2.4-19.2-3.9
			c-3.2-0.8-5.5-3-6.7-6.3c-2.6-7.5-5-15.1-5.5-23C352.8,352.8,350.8,351.9,348.5,350.3z M319.4,419.5c9.1-5.6,17.4-10.7,25.9-15.8
			c-2-15.9-1.2-32.5-1-49.2c-1.8,1.1-3.5,2.2-4.5,3.7c-2.5,3.9-5.5,6-10.5,5.7c-4.4-0.3-9.2,5.3-9.3,9.7
			c-0.2,11.4-0.5,22.9-0.7,34.3C319.4,411.5,319.4,415.2,319.4,419.5z M225.5,234.1c0.3-0.1,0.7-0.3,1-0.4c1.8,1,3.7,1.9,5.4,3.1
			c1.2,0.9,2.4,2,3.3,3.2c3.1,4.1,7.3,4.5,11.9,3.8c4.7-0.7,9.4-1.9,14.1-0.4c1.6-5.1,3.1-10.1,4.6-15c1.1-3.8,2.8-5.3,6.8-4.9
			c2.8,0.3,5.6,1.2,8.3,1.9c0.8,0.2,1.6,0.6,2.9,1.1c-0.3-3.6-0.6-6.8-1-10c-0.1-0.5-1.2-1.3-1.7-1.3c-3.7,0.4-7.5,0.6-11.2,1.5
			c-8.2,1.9-16.3,2.5-24.4-0.2c-3.6-1.2-7-2.8-10.5-4.1c-3.3-1.3-6.6-2.6-10.6-4.1C224.8,217.3,225.2,225.7,225.5,234.1z
			 M729.5,339.2c0.1-0.2,0.3-0.3,0.4-0.5c-1-2.8-2-5.7-2.9-8.5c-2.1-6.5-4.1-12.9-6.3-19.4c-0.2-0.6-0.7-1.2-1.3-1.4
			c-1-0.4-2.1-0.5-3.2-0.8c0.1,0.2,0.1,0.4,0.2,0.6c-1.4,0.4-2.9,1.4-4.1,1.1c-3.4-0.8-6.7-2.1-10-3.2c-0.6,1.4-0.7,2.3-1.2,2.8
			c-0.7,0.7-1.7,1.6-2.6,1.6c-0.7,0-1.5-1.2-1.9-2c-0.4-0.9-0.5-2-0.5-3c0-2.1-0.7-3.2-3-3.3c-1.4,0-2.8-0.6-4.1-1.2
			c-4.4-2.1-8.6-4.6-13.2-6.3c-5-1.8-10.2-2.9-15.4-4.4c-0.9,4-1.5,7.6-2.6,11.1c-0.7,2.3,0.1,3.3,2,4.2c7.7,3.8,15.3,7.7,22.9,11.6
			c1.3,0.7,2.8,1.1,3.8,2c1.2,1.3,2.2,1,3.5,0.5c2.9-1.2,6-1.9,8.9-0.6c4.1,1.8,8.2,3.7,11.9,6.1c5.4,3.6,10.4,7.7,15.7,11.5
			C727.3,338.3,728.5,338.7,729.5,339.2z M423.4,264.4c0.9,0.3,1.6,0.6,2.3,0.8c8.3,2.6,15.9,6.2,22,12.7c1.5,1.6,3,3.2,4.5,4.6
			c1.5,1.5,3.1,2.8,4.9,4.4c5.2-17,4.9-34.3,8-51.6c-3.2,1-5.8,1.8-8.4,2.8c-7.6,2.9-15.2,6-22.8,8.9c-2.8,1.1-5.8,1.5-6.7,5.4
			C426.4,256.4,424.8,260.2,423.4,264.4z M226.9,204.6c0,0.3,0.1,0.5,0.1,0.8c5.4,2.2,10.8,4.4,16.2,6.6c6.8,2.8,13.9,3.6,21.2,2.2
			c4.1-0.8,8.2-1.5,12.3-2.2c2.1-0.4,4.3-0.3,6.4-0.8c2.9-0.7,5.7-2,8.6-2.7c2.6-0.6,4.9-1.6,6.6-3.6c0.4-0.5,0.8-1.4,0.7-2
			c-0.6-3-1.4-6.1-2.1-9c-2.4,0.3-4.8,0.8-7.1,0.9c-9.1,0.4-17.8-1.9-26.4-4.3c-2.7-0.8-4.8-0.6-7.3,0.8c-5.1,2.8-10.4,5.3-15.7,7.8
			C235.9,200.9,231.4,202.7,226.9,204.6z M279.7,358.1c0.3,7.3,0.6,13.8,0.8,20.4c0,1.3,0.4,2.1,1.7,2.4c5,1.5,8.6,4.7,11.5,9
			c1.3,2,2.7,4,4.2,5.8c0.5,0.6,1.5,1.2,2.3,1.3c3.4,0.6,4.9,3.2,3.5,6.3c-0.3,0.7-0.7,1.4-1.1,2.4c1.4-0.1,2.4-0.1,3.5-0.2
			c2.8-0.1,4,0.9,4,3.7c0,1.1-0.5,2.2-0.6,3.2c-0.1,0.6-0.1,1.6,0.2,1.8c2,1.5,4.1,2.9,6.7,4.7c0-8.7,0-16.7,0-24.7
			c0-8,0-16.1,0-24.3c-4.2,0.9-8,0.3-11.7-1.6c-5.3-2.8-10.8-5.2-16.3-7.6C285.7,359.6,282.7,359,279.7,358.1z M692.6,324.3
			c-4.3,1.1-63.6,33.1-68.2,36.7c4.6,3.7,10.5,6,12.7,12.6c6.4-4,12.4-7.9,18.5-11.7c7.5-4.7,14.9-9.4,22.4-13.9
			c4.7-2.8,9.8-5.2,14.6-7.8c0.7-0.4,1.5-1.5,1.5-2.2C693.7,333.5,693.1,329,692.6,324.3z M273.2,189.2c2.2,0.5,4,1,5.9,1.3
			c5.6,0.9,11.1,1.3,16.6-0.3c0.5-0.2,1.2-0.5,1.4-1c2.4-4.3,5.2-5.2,9.3-2.3c2.9,2.1,5.8,4.3,8.3,6.9c4.6,4.9,8.9,10,13.4,15.1
			c0.5,0.6,1.2,1.1,1.9,1.6c2-2.7,3.7-11.5,3.5-17.8c-1.8-1-3.7-1.9-5.7-3c-0.8,1.3-1.3,2.7-2.3,3.7c-0.7,0.8-2,1.5-3,1.4
			c-0.9-0.1-2-1.2-2.5-2.1c-0.9-1.9-1.3-3.9-2.2-5.8c-1.7-3.7-1.5-7.2-0.2-11c1.3-3.7-2-8.9-6-9.3c-4.5-0.4-8.8,0.6-12.6,3
			c-4.5,2.8-8.2,2.1-11.1-2.3c-1.7-2.5-1.9-2.6-4.4-0.8C276.1,172.1,274.3,180.3,273.2,189.2z M502.7,164.9c0-0.1,0-0.3,0-0.4
			c2.6-0.1,5.1-0.3,7.7-0.4c0.3,0,0.6-0.1,0.9-0.3c3.8-2.4,6.2-2,8.6,1.7c1.5,2.3,2.6,4.8,3.8,7.2c0.7,1.4,1.6,1.8,2.6,0.5
			c3.5-4.7,8.6-7.4,13.6-10.1c1.9-1,2.2-1.9,1.8-3.7c-1.8-7.5-6.1-13.3-12.4-17.7c-0.9-0.7-2.3-0.7-3.7-1.2c0,3.4-1.9,4.5-4.3,5
			c-2.2,0.5-4.3,1.4-6.5,1.7c-2.2,0.3-4.4,0.3-6.6,0.3c-3.9,0-7.8-0.6-11.6-0.2c-4.8,0.5-9.5,0.7-13.7-2.1
			c-3.8-2.5-7.4-4.8-12.2-2.9c-0.4,0.2-0.9,0-1.4,0c0.6,3.6,1.2,7.1,1.9,10.8c1.2-0.6,2.1-1,3.1-1.4c3.8-1.5,7.6-1.5,10.9,1.2
			c1.4,1.2,2.3,3,3.6,4.4c0.7,0.8,2,1.6,2.9,1.5c5-0.5,8.9,0.8,10.9,5.8C502.5,164.8,502.6,164.8,502.7,164.9z M322.3,298.2
			c0.4,3,0.6,6,1.2,9c0.1,0.6,1.4,1.1,2.3,1.5c0.1,0.1,0.9-1,1.1-1.7c0.3-1.1,0.2-2.4,0.8-3.2c1-1.3,2.3-2.7,3.8-3.3
			c1.8-0.7,2.6,1.2,3.7,2.4c1,1,2.6,2.1,4,2.1c2.1,0,4.2-0.8,6.2-1.5c0.4-0.2,0.7-1.5,0.5-2.2c-1.7-6.7-4.1-13.4-5-20.2
			c-1.3-9.9-1.4-19.9-2-29.9c-0.2-3.9-1.6-7.3-4.3-10.1c-1.9-1.9-5.4-2.4-6.9-0.6c-1.7,2.1-3.5,4.6-4,7.1c-1,4.5-1.1,9.2-1.6,13.8
			c-0.1,0.7-0.3,1.4-0.4,2.1c0,0.8-0.1,1.7,0.3,2.2c2,2.8,4.3,5.4,6.3,8.1c0.5,0.7,1,1.9,0.8,2.6c-1.3,4.7-2.4,9.5-4.6,13.8
			C323.2,292.9,322,295.2,322.3,298.2z M446.8,161.7c2.8,0.9,2.4,3.6,2.7,6c0.1,1,0,2.2,0.4,3.1c1.3,2.7,2.1,6.1,4.2,7.8
			c4.2,3.3,7.9,7,11.4,11c0.6,0.7,2,1.6,2.7,1.4c0.9-0.3,1.6-1.6,2.2-2.6c0.3-0.6,0.3-1.6,0.2-2.4c-1.1-5.4-0.8-10.9-1.1-16.3
			c-0.4-8.1-2-16.2-3.2-24.2c-0.6-3.7-0.7-3.8-4.5-3.9c-3.6,0-6.1-1.6-7.5-4.9c-0.5-1.2-1.1-2.3-1.8-3.4c-1.1-1.9-2.5-2.1-4.4-1
			c-3.4,2-6.1,1.4-8.6-1.6c-0.5-0.6-1.5-0.9-2.1-1.2c1.4,3.8,2.9,7.3,3.8,10.8c0.6,2.5,0.4,5.2,0.7,7.9c0.5,4.2,0.8,4.3,4,4.9
			c2.6,0.5,3.5,1.7,3.1,4.2C448.6,158.7,447.6,160,446.8,161.7z M562.4,153.4c-1.9-6-2.2-9.1-1.3-12.8c0.5-1.9,1.4-3.4,3.5-3.9
			c2.1-0.5,3.2,0.8,4.3,2.3c1.4,1.9,2.9,3.8,4.5,5.6c1.5,1.6,3.1,2,5.1,0.5c0.8-0.6,1.8-1.3,2.8-1.3c3.2,0,3.6-2.1,4.2-4.5
			c-2.6-2.1-5.1-4.2-7.7-6.2c-2.2-1.7-4.7-3-7.5-2.5c-4.1,0.8-8.1,1.7-12.1,2.8c-4.9,1.4-7.6-0.5-7.7-5.6c-0.1-2.6-0.2-5.3-0.6-7.9
			c-0.3-2.2-1.7-3.3-4-3.2c-3.1,0.2-6.3-0.1-9.4,0.4c-2.7,0.4-5.2,1.3-7.8,2.1c-1.3,0.4-1.7,1.3-1.7,2.8c0.1,3.2,0.1,6.4-0.1,9.6
			c-0.1,1.8-0.7,3.6-1,5.1c11.6,4.1,16.8,12.9,19.8,24c3.6-1.1,7.2-2.2,11-3.4c-2.4-2.1-4.9-3.5-6.4-5.6c-1.5-2.1-2-4.9-2.9-7.4
			c-0.8,0.4-1.4,0.8-2,1c-4.1,1.6-7-0.3-6.9-4.6c0-2.7,0.2-5.4,0.5-8.1c0.3-3.1,0.6-6.2,1-9.2c0.1-0.9,0.7-1.7,1.1-2.5
			c0.8,0.6,2.2,1.1,2.3,1.8c0.3,1.8,0.1,3.8-0.1,5.7c-0.4,3.7-1.1,7.4-1.3,11.2c-0.2,3.1,0.6,3.5,3.3,2c3.7-2.1,5.3-1.5,6.1,2.6
			c0.7,4.1,2.4,7.2,6.1,9.1c0.9,0.5,1.5,1.5,2.3,2.4C560.5,154.7,561.5,154.1,562.4,153.4z M421.8,273.9c0.7,2.2,1.2,3.9,1.8,5.6
			c0.2,0.4,0.5,1,0.9,1.2c6.9,3.6,12.4,8.6,16.6,15.2c3.4,5.2,7.4,10,10.9,15.1c2.3,3.3,4.5,6.7,6.1,10.3c3,6.8,5.5,13.8,8.2,20.5
			c-0.1,0.2,0.1,0,0.2-0.2c4.5-10.5,5.5-21.1,1-31.9c-3.5-8.4-7.5-16.2-14.8-22.1c-2.2-1.8-4.2-4-6.3-6c-4.7-4.6-9.5-9.1-16.1-11
			c-0.6-0.2-1.4-0.5-1.8-0.3C426.2,271.5,423.8,272.8,421.8,273.9z M360.1,329.6c-1.1-11.3-2.3-13.8,5.9-36.9
			c-2.6,0.1-5.2,0.5-7.8,0.4c-5.1-0.2-6.7,1-7.4,6.2c-0.9,6.5-4.9,9.7-11.5,9.4c-3.3-0.2-6-1.4-7.9-4.5c-0.6,1.6-0.6,3.1-1.1,4.4
			c-0.6,1.3-1.5,3.3-2.7,3.5c-3.8,0.9-6.8,0.3-7.6-4.2c-0.6-3-0.6-6.2-0.9-9.3c-0.1-0.7,0-1.7-0.4-2c-1.9-1.1-3.9-1.9-6.5-3.2
			c0.6,2,0.8,3.4,1.4,4.7c2.7,5.1,5.7,10,8.3,15.2c1.2,2.5,1.9,5.2,2.9,7.8c0.3,0.8,0.8,1.8,1.5,2.1c4.6,1.8,9.3,3.4,14,5
			c3.4,1.2,7.1,1.9,10.2,3.6c2.9,1.6,5.1,0.7,7.5-0.6C358.6,330.6,359.3,330.1,360.1,329.6z M551.7,326.6c1.7-4.8,3.3-9.3,4.9-13.8
			c1.4-3.9,2.7-4.4,6.5-2.7c0.9,0.4,1.8,1,2.8,1.5c6.3,3,12.5,5.9,18.9,9c0.7-1.1,1.4-2.1,2.3-3.4c-3.2-1.8-6.1-3.4-9.1-5
			c-4.1-2.2-8.2-4.3-12.3-6.5c-1.4-0.8-2.4-2-1.9-3.7c1.5-4.4,3-8.8,4.6-13.2c0.9-2.4,2.2-3,4.5-2c4,1.7,7.9,3.6,11.8,5.3
			c4.9,2.1,9.8,4.2,14.9,6.4c0.6-0.9,1.2-1.8,1.7-2.6c-0.3-0.2-0.4-0.4-0.6-0.4c-9-3.7-18-7.5-27-11.2c-1.6-0.7-2.2-1.5-1.6-3.3
			c1.2-3.5,2-7.1,3.1-10.6c1-3.3,1.8-6.6,3-9.8c1.6-4.2,3.1-4.8,7.4-3.4c4.2,1.5,8.5,2.8,12.6,4.5c3.2,1.3,6.2,3,9.2,4.6
			c3,1.6,6,3.4,9.1,4.9c3,1.5,3.1,1.4,4.8-1.8c-5.2-2.6-10.5-5-15.6-7.8c-6.4-3.5-12.7-6.7-20.1-7.4c-0.5,0-1.3-1.3-1.2-1.9
			c0.4-2,1-3.9,1.6-5.9c1.1-3.3,2.4-6.6,3.4-10c0.2-0.6-0.2-1.7-0.7-2.1c-5.2-3.5-10.1-3-14.8,1.6c7.3,5.5,7.8,7.9,2.8,16.1
			c-0.9,1.4-1.6,3-2.2,4.5c-2,5.3-3.8,10.5-5.7,15.8c-0.5,1.4-1.1,2.8-1.7,4.2c-2.2,4.9-4.7,9.6-6.6,14.7
			c-3.6,10-6.8,20.2-10.4,30.2C549.7,323.6,550,325,551.7,326.6z M785.5,416.4c0.9,0.8,1.4,1.5,1.9,1.6c4.9,0.5,9.8,1.1,14.8,1.1
			c6.1-0.1,12.1-1.2,18.2-1.3c4.8-0.1,9.4,1.4,12.3,5.8c1.1,1.7,2.1,1.9,3.9,1.4c7.3-1.9,14.5-3.8,21.8-5.5c3.8-0.9,4.5-0.6,6.4,2.8
			c2.4,4.2,4.5,8.6,7,13.2c1.6-2.1,3.1-4,4.7-5.9c1.5-1.8,1.2-3.4-0.3-4.9c-5.2-5.6-10.2-11.6-15.9-16.6c-3.3-2.9-7.9-4.4-11.9-6.5
			c-2.7-1.4-5.7-2.6-8.1-4.4c-3.6-2.7-6.8-5.9-10.2-8.7c-1.9-1.5-3.9-2.8-6.2-4.4c-0.1,3.7,1.5,5.5,5.1,8.4
			c5.3,4.3,10.3,8.9,15.3,13.5c0.8,0.7,1.3,1.8,1.6,2.9c0.9,2.9-0.7,5.3-3.6,5.9c-0.9,0.2-1.7,0.3-2.6,0.3
			c-7.9,0.1-15.8,0.2-23.8,0.1c-3.6,0-6.7-1.4-8.4-4.7c-1.3-2.5-2.2-5.3-3.3-8c-1.2-3.2-2.4-6.5-3.6-9.7c-0.7,1-1.1,1.9-1.1,2.9
			c0,4.6,0,9.3,0,13.9c0,3.8-1.5,5.6-5.3,6.2C791.6,416.1,788.9,416.2,785.5,416.4z M356.6,356.3c0,0.2-0.1,0.8,0,1.4
			c1.7,6.8,3.4,13.6,5.4,20.4c0.5,1.5,2.2,3.2,3.7,3.7c6.1,1.7,12.3,2.8,18.4,4.2c1.3,0.3,1.9-0.3,2.5-1.5c0.9-1.9,1.6-3.9,4.1-4.7
			c7.8-2.4,15.5-4.9,23.3-7.5c2.6-0.9,5.2-1.6,7,1.4c2-1.2,3.8-2.2,5.5-3.3c0.5-0.3,1.1-1.1,1.2-1.6c0.1-4.1,0.1-8.2,0.1-12.4
			c-0.4-0.1-0.8-0.3-1.2-0.4c-0.6,0.8-1,1.7-1.7,2.3c-4.9,4.2-10.1,8.1-16.9,8.3c-3.3,0.1-5.1,1.5-6.7,4.1c-0.8,1.2-2.5,2.7-3.8,2.6
			c-7.6-0.1-11.4-0.2-13.3-7.2c-0.1-0.4-0.4-0.7-0.6-1c-0.8-1.1-1.6-1.5-3-0.8c-3.9,1.8-6.2,1-7.7-3.1c-0.9-2.5-2.5-3.2-4.8-3.4
			C364.3,357.3,360.5,356.7,356.6,356.3z M640.7,389.9c22-15.2,46.7-25,68.8-40.1c-1-0.7-1.9-1.4-2.9-2c-2.3-1.2-4.7-2.3-7-3.6
			c-1.8-1.1-3.4-1.7-5.5-0.3c-2.2,1.5-4.7,2.4-7,3.7c-7.4,4.3-14.8,8.6-22.1,13c-7.9,4.8-15.6,9.7-23.4,14.6
			c-0.8,0.5-1.6,1.1-2.3,1.8c-0.4,0.4-0.6,1.1-0.5,1.6C639.3,382.1,640,385.7,640.7,389.9z M300.6,207.2c-3.7,5.2-9.8,4.1-14.5,6.2
			c0.4,4.9,0.8,9.6,1.2,14.3c0.1,0.7,0.5,1.3,0.7,2c0.7,1.9,1.9,3.7,2.2,5.6c0.7,3.9,0.9,7.9,1.3,12.1c0.8-0.4,1.3-0.7,1.8-0.9
			c5.5-2.1,6.7-2,10.2,1.2c1.6,1.5,3.4,2.8,5,4c1.7-3.8,3-7.5,4.9-10.9c1.9-3.4,4.4-6.4,6.7-9.7
			C312.3,224.4,305.9,216.6,300.6,207.2z M525.3,327c2-1.7,3.9-3.5,5.9-5.2c1.6-1.3,3.4-1.6,4.9,0c3.2,3.4,6.4,6.9,9.5,10.5
			c1.9,2.2,1.4,4.1-1.3,5.4c-3.2,1.6-6.6,2.9-10.7,2c1.7,2.1,3.1,3.8,4.4,5.6c1.4,1.9,0.7,4-1.6,3.9c-4.4-0.1-8.7,0.5-13.1,1.4
			c-4.4,0.8-6,3-4.7,7.3c2.5-0.2,5.1-0.3,7.6-0.5c10.9-0.6,21.9-1.2,32.8-1.7c1.8-0.1,3-0.3,3.6-2.2c0.3-0.9,1.2-1.7,1.9-2.3
			c2.1-1.6,2.6-3.5,1.3-5.8c-0.7-1.3-1.4-2.5-2.1-3.8c-1.6-3.2-3.8-5.5-7.6-5.8c-4-0.4-6-3.1-7.8-6.3c-2.8-4.9-5.9-9.7-9.1-14.3
			c-1.8-2.5-2.8-2.3-5.4-0.4c-2.4,1.8-4.7,3.6-7.2,5.1C522.2,322.5,522.1,322.3,525.3,327z M404.1,180.6c0.3-1.2,1.1-2.8,1.2-4.6
			c0.1-1.7,0.1-3.8-0.8-4.9c-1-1.1-1.1-2.1-1.3-3.3c-0.2-1.8-0.2-3.6-0.8-5.2c-0.9-2.4-2.6-4.6-3.4-7c-1.5-4.2-2.5-8.6-4-12.8
			c-0.7-2-1.5-4.2-2.9-5.8c-4.6-5.4-9.5-10.5-14.8-16.3c-3.2,4.6-6.5,9.1-9.7,13.6c-1.3,1.8-1.2,3.6-0.4,5.7
			c1.1,2.8,1.8,5.6,2.8,8.4c1.1,3,2.2,6.1,3.5,9.6c4.1-4.9,9.2-4.7,14.3-4.5c3.9,0.2,7.9,3.1,8.4,6.7c0.6,3.8,1.9,7.6,0.2,11.5
			c-0.4,1-0.5,2.2-0.7,3.3c-0.3,1.5,0.1,2.3,1.7,2.8C399.7,178.5,401.9,179.6,404.1,180.6z M473.7,359c-1.9-0.5-3.6-1-5.3-1.4
			c-3.2-0.7-5.9,0.7-8.5,2.4c-3.3,2.1-5.8,1.2-7-2.5c-0.4-1.2-0.7-2.5-1.1-3.7c-1.4-4-3.6-4.9-7.4-3c-0.9,0.5-1.7,1.2-2.5,1.8
			c-1.5,1-2.9,2.1-4.4,3.2c0.5,0.8,1.3,2,1.9,3.1c1.6,2.8,1.5,4.3-0.8,6.6c-1.7,1.7-3.7,3.2-5.6,4.8c-1.1,0.9-2,6.5-1,7.5
			c0.2,0.2,0.5,0.3,0.8,0.4c5.7,1.2,10.8,3.6,13.7,8.9c9.9-8.6,20.2-16.2,32.4-21.4C474.3,364.2,474.1,363.9,473.7,359z M377.7,329
			c0.1-1.6,0.1-2.8,0.3-4.1c0.7-5.7,0.9-11.6,2.4-17.1c2.8-10.7,8.5-19.6,18.5-25.2c0.5-0.3,1-1.2,1-1.8c-0.1-0.7-0.6-1.6-1.2-1.9
			c-3.1-1.4-6.3-1.8-9.8-1.9c-3.2-0.1-5.7,0.6-7.8,2.9c-2.1,2.2-4.1,4.5-6.1,6.7c-3.7,4-6.4,8.6-8,13.8c-1.2,4-2.1,8-3.2,12.1
			c-1.5,5.6-0.3,11.2,0,16.5C368.4,329,372.9,329,377.7,329z M616.6,275.4c-4.5-2.7-8.8-5.6-13.4-7.7c-6.2-2.8-12.8-5-19.2-7.3
			c-0.5-0.2-1.9,0.4-2.1,1c-2,6.2-3.9,12.5-5.7,18.8c-0.1,0.4,0.6,1.4,1.2,1.6c2.2,1,4.4,1.8,6.6,2.8c6,2.5,12.1,5.1,18.1,7.5
			c0.6,0.3,1.9,0.2,2.2-0.3C608.4,286.4,612.5,280.8,616.6,275.4z M951.8,386.8c1.3-2.9,2.4-5.3,3.6-7.8c2.4-5,2.6-10.2,0.8-15.2
			c-1-2.8-2.8-6.1-5.2-7.5c-2.9-1.7-5.6-4.6-10.1-3.4c-3.7,0.9-6.7,2.1-8.7,5.2c-4,6.2-7.9,12.4-11.7,18.7c-1.4,2.4-1,4.1,1.2,6
			c1.9-2.1,3.7-4.2,5.6-6.3c1.2-1.3,2.8-1.8,4.4-1c5,2.6,9.8,5.3,14.7,8C948.1,384.6,949.8,385.6,951.8,386.8z M820.6,291.4
			c0.4,0.4,0.6,0.8,0.9,1c7.3,6.3,15.3,11.3,24.1,15.1c6,2.6,12.4,3.8,18.9,3.9c2.2,0,3.4-0.6,3.2-3.1c-0.1-1.8,0.2-3.7,0.4-5.5
			c0.2-2.1,0.3-4.2,0.5-6.6c-8.1,1.3-14.8-1.9-21.2-5.5c-6.4-3.5-12.5-7.7-18.9-11.8C826,283,823.3,287.2,820.6,291.4z M582.7,151.5
			c2.8,1.1,4.4,1,5.7-1.3c1.1-2.1,2.6-4,3.9-6c1.7-2.8,4.3-3.5,7.3-2.8c5.8,1.2,11.5,2.6,16.6,6c1.8,1.2,3.9,2.3,5.9,3.1
			c10.2,3.9,20.5,7.8,30.8,11.6c3.2,1.2,4.1,2.3,3.8,5.7c-0.1,1.2-0.3,2.4-0.7,3.5c-1.8,4.7-3.7,9.4-5.7,14
			c-0.6,1.5-1.7,2.8-2.7,4.4c2.2,0.1,4,0.2,5.9,0.3c1.5,0.1,2.3-0.5,3-1.8c4.6-8.4,7.1-17.6,9.6-26.8c0.2-0.6-0.3-1.8-0.9-2
			c-5.3-2.8-10.7-5.4-16.5-7c-8.8-2.5-17.8-4.7-26.3-8.2c-8.3-3.4-16.5-6.5-25.2-8.4c-5.5-1.2-5.5-1.3-7.9,3.9
			c-0.8,1.8-1.5,3.7-2.5,5.4C585.6,147.2,584.2,149.2,582.7,151.5z M867.4,315c-9.2,0-18-1.6-26.2-5.6c-8.1-3.9-15.5-8.8-22.5-14.7
			c-1.2,1.9-2.1,3.7-3.2,5.2c-1.4,2-2.2,3.9,0.5,5.5c0.6,0.3,0.9,1.1,1.4,1.6c4.2,5.2,9.1,9.6,15,12.5c6.5,3.1,13.1,6.1,19.9,8.1
			c4.7,1.4,9.9,0.9,14.9,1.3C867.4,324.1,867.4,319.8,867.4,315z M635.4,252.9c-2.6-1.1-5.2-1.8-7.5-3c-6.7-3.6-13.1-7.8-20.6-9.6
			c-4.7-1.1-9.5-1.9-14-2.8c-1.8,4.6-3.4,8.9-5.1,13.3c13.3,2.4,23.7,11.4,36.3,15.7C628.1,262.1,631.6,257.6,635.4,252.9z
			 M655.3,193.8c-16.8-1.7-33.4-1.3-50.1-4.8c1,5.1,2,9.9,3.1,15.3c9.6,1.7,19.9,3.5,30.5,5.3c2.4-2.1,5.4-4.4,8.1-7
			C649.8,199.8,652.4,196.9,655.3,193.8z M267.1,423.3c-2.5,3.4-6,6.5-10.5,8.6c-6.5,2.9-13.4,4.4-20.4,4.9c-3.6,0.3-5.9,1.3-6.5,5
			c-0.2,1.4-0.5,3.7,0.1,4.1c1.3,0.8,3.3,0.8,4.9,0.6c1-0.1,1.9-1.1,2.8-1.7c1-0.7,2-1.7,3-2.4c4.2-2.7,8.7-1.5,10,2.9
			c1,3.5,3.3,5.5,6.2,6.8c1.4,0.6,3.2,0.5,4.8,0.7c0.2-1.5,0.6-3,0.5-4.5c0-2.5-0.4-5.1-0.4-7.6c0.1-2.2,1.5-3.3,3.7-3.3
			c2.2,0,3.2,1.2,3.5,3.2c0.1,0.9,0.1,1.9,0.2,2.8c1.2,0.5,2.4,0.9,3.3,1.3c1.4-1.5,2.5-3.5,4.1-4.1c1.7-0.7,3.9-0.2,5.6-0.2
			c0-1.5-0.1-3.1,0-4.7c0.1-1.7-0.4-2.4-2.3-2.4c-2.7,0-3.7-1.1-4.1-3.7c-0.1-0.9-0.3-1.7-0.5-2.6c-0.2-1.7-1.1-2.3-2.9-2.3
			C270.8,424.7,269.2,423.9,267.1,423.3z M868.4,276.7c0.3-2.5,0.8-4.9,0.8-7.3c0.1-3,0.4-6.2-0.4-9c-1.4-4.6-3.5-8.9-5.5-13.3
			c-0.5-1-1.6-2.2-2.6-2.5c-2.9-0.7-5.5-0.3-8.1,1.7c-5.9,4.6-9.3,11.1-13.5,17C846.7,270.2,861.3,276.9,868.4,276.7z M318.3,261.7
			c0.5-4.4,0.9-8.3,1.3-12.2c0.4-4,1.7-7.6,4.5-10.6c3.7-4,9.4-4.1,13.2-0.2c3.6,3.7,5.1,8.2,5.2,13.3c0.2,6,0.3,12,0.7,18
			c0.4,5.5,1.1,11,1.9,16.4c0.5,2.9,1.6,5.7,2.4,8.5c2.8-4.8,6.5-6.2,11.5-5.3c1.7,0.3,3.4,0.3,5.1,0.4c0.3-0.1,0.5-0.2,0.8-0.3
			c-3.4-1.8-3.6-4.2-2.3-6.3c-3.3-1.1-6.4-2-9.5-3.2c-1.1-0.4-2-1.4-3.1-1.9c-2.8-1-3.7-3.1-3.5-5.8c0.7-10.1,1.3-20.3,2.2-30.4
			c0.1-1.7-0.3-2.5-1.4-3.4c-4.6-3.8-9.8-6.6-15.7-7.9c-2.4-0.5-4.7-0.4-6.6,1.3c-6.4,5.9-11.1,12.8-12.6,21.5c-0.1,0.6,0,1.5,0.4,2
			C314.5,257.6,316.3,259.5,318.3,261.7z M630.7,188.4c-0.9-7.4-1.6-14.6-2.7-21.8c-0.5-3.2-1.5-6.4-2.4-9.5
			c-0.2-0.7-0.9-1.6-1.6-1.9c-4.4-2.4-8.7-4.7-13.2-6.8c-1.9-0.9-3.9-1.5-5.9-2.2c2.3,8.1,4.5,15.8,6.6,23.5c1.2,4.2,2,8.6,3.4,12.7
			c0.6,1.8,1.5,3.2-1.1,4.7C620,187.6,625.4,188,630.7,188.4z M294.5,276c1.1,0.1,1.9,0.1,2.7,0.3c5.7,1.1,10.4,3.8,12.5,9.3
			c0.9,2.4,2.3,3.6,4.2,4.6c0.9,0.5,1.9,0.9,2.7,1.5c1.2,0.8,2,0.7,3-0.5c3.7-4.3,4.9-9.4,5.8-14.8c0.1-0.6-0.4-1.3-0.8-1.8
			c-4.7-5.4-9.2-10.8-14.1-16c-2.5-2.6-5.4-4.8-8.7-7.7C302.8,260.6,300,268.5,294.5,276z M196.7,284.5c0.1-0.3,0.3-0.5,0.4-0.8
			c-0.3-0.9-0.7-1.7-1-2.6c-1.2-3.1-2.6-6-3.5-9.2c-2.1-6.8-4-13.7-6.1-20.5c-0.2-0.7-1.1-1.7-1.7-1.7c-3.7,0.1-9.7,6.6-6.9,11.4
			c2.2,3.6,1,6.6-3,7.7c-4.3,1.3-8.8,2-13.3,2.8c-1.4,0.3-2.7,0.4-3.1,2c-0.4,1.8,0.7,2.7,2,3.4c1.4,0.6,2.8,1.2,4.2,1.7
			c3.1,0.9,4.9,2.8,5.3,6.1c0.1,0.9,0.5,1.7,0.8,3.1c1.2-1.3,2.3-2.1,2.9-3.2c2-3.2,5.1-5.1,8.3-6.7c2.9-1.4,4.6-1.1,6.9,1.2
			c1.5,1.5,3.2,2.9,4.9,4.2C194.7,284.2,195.8,284.3,196.7,284.5z M640.8,395.6c0,1.1,0,1.8,0,2.5c0,5.8,0.3,11.5,0,17.3
			c-0.3,7.8-2,15.1-9.3,19.6c-0.1,0-0.1,0.1-0.1,0.2c2.3,2.7,4.5,5.4,7,8.3c0.9-1.3,1.5-1.9,2-2.6c2.6-4.6,5.3-9.2,7.8-13.8
			c1.8-3.4,1.7-3.5,4.9-1.6c2.6-3.8,5.2-7.7,7.7-11.5c0.9-1.4,1.8-2.1,3.5-1.4c1.1,0.4,2.7,1,3.8-0.8c-2.3-0.6-4.3-1.3-6.4-1.7
			c-5.5-1-10-3.7-13.2-8.3C646.6,398.9,644.1,397.1,640.8,395.6z M210.7,280.1c-0.4-1.1-0.6-2-0.9-2.9c-3.6-10.5-7.1-21.1-11-31.5
			c-1.7-4.7-4.1-9.2-6-13.2c-3.7,0.7-6.5,1.3-9.5,1.9c0.2,0.5,0.4,1.2,0.7,1.8c3.7,7.3,5.9,15,8.1,22.8c2.1,7.6,5.1,15,7.9,22.4
			c0.2,0.5,1.4,1.2,1.9,1.1C204.8,281.8,207.6,280.9,210.7,280.1z M217.3,248.8c-2.2,5.1-4.5,10.5-6.8,15.8
			c-0.8,1.9-0.5,3.7,0.3,5.5c1,2.3,2.1,4.7,2.7,7.2c0.6,2.3,1.9,3.6,4.1,4.2c1.2-3.1,2.1-6.3,3.6-9.2c2.1-4.2,6.8-5.1,10.6-2.4
			c1,0.7,2,1.6,3.5,2.8c0.9-2.7,1.8-5.1,2.6-7.5c0.5-1.4,0.1-2.5-0.9-3.7c-2.2-2.4-4.5-4.7-6-7.4c-1.9-3.6-4.9-4.6-8.4-4.9
			C220.9,249.3,219.5,249.1,217.3,248.8z M351.5,246.6c-0.6,7.6-1,15-1.7,22.4c-0.4,3.7,0.7,6.1,4.2,7.8c2.8,1.4,5.5,2.7,8.6,2.3
			c0.6-0.1,1.5-0.6,1.7-1.1c3-6.7,4.3-13.8,5.3-21c0.2-1.4,0.3-2.8,0.5-4.5C363.1,253.2,357.9,248.9,351.5,246.6z M916.6,374.8
			c0.3,0,0.6-0.1,0.9-0.1c2.6-3.9,5.2-7.7,7.6-11.6c2.7-4.4,6.1-8.7,2.4-14.2c-0.2-0.2-0.1-0.6-0.2-0.9c-0.2-1.8-1.2-2.5-3-2.4
			c-1.7,0.1-3.4,0.3-5,0.2c-2.8-0.2-3.9-1.6-4-4.4c0-1.6,0.1-3.2,0-4.8c-0.2-3.2-1.9-4.8-4.9-4.3c-1.9,0.3-3.6,1.6-5.2,2.3
			c2.1,7.2,4,13.8,5.8,20.4C913,361.4,914.8,368.1,916.6,374.8z M869.4,292.3c-0.2-3.3-0.4-6.6-0.5-9.8c0-1.7-0.9-2.1-2.3-2.3
			c-5.4-0.7-10.5-2.2-15.2-5c-4.3-2.6-8.7-5.2-12.9-7.9c-1.1-0.7-1.8-0.7-2.5,0.4c-1.3,2-2.5,3.9-3.9,5.8c-1.3,1.6-0.9,2.7,0.7,3.7
			c6.8,4.5,13.3,9.5,20.9,12.7C858.5,291.9,863.4,294.1,869.4,292.3z M648.8,433.6c-2.8,4.5-5.6,8.9-8.4,13.3
			c-1.3,2-2.8,3.8-3.9,5.8c-0.5,0.8-0.9,2.5-0.4,3c2.6,2.7,5.3,5.4,8.2,7.7c1.7,1.3,3.8,1.4,5.8,0c3.4-2.3,6.9-4.3,10.3-6.7
			c2.6-1.8,5-3.9,7.8-6.1C658.9,447.6,654,443.2,648.8,433.6z M634.5,189.2c2.8,0,5.4,0.1,8,0c0.5,0,1.1-0.5,1.5-1
			c4.9-5.6,6.5-12.7,9-19.5c0.7-2.1-0.1-3-2.1-3.6c-5.2-1.7-10.3-3.6-15.4-5.4c-1.8-0.6-3.6-1.3-5.2-1.9c0.7,5.3,1.4,10.4,2.1,15.5
			C633,178.5,633.7,183.6,634.5,189.2z M868.1,436.9c-1.9-3.9-3.9-7.9-5.8-11.9c-0.9-2-2.1-2.6-4.3-2c-7.6,2-15.3,3.8-22.4,5.6
			c-0.3,4.3-0.5,7.9-0.7,11.6C844.9,442.9,860.8,442,868.1,436.9z M950.4,390c-1.2-0.5-2.1-0.9-3-1.4c-5.2-2.9-10.4-5.9-15.6-8.9
			c-1.3-0.7-2.1-0.9-3.1,0.3c-1.5,1.9-3,3.7-4.4,5.7c-0.4,0.6-0.4,1.7-0.2,2.4c1,3.6,2.1,7.2,3.4,10.7c0.4,1,1.2,2.2,2.2,2.6
			c3.9,1.8,8,3.3,12,4.9c1.3,0.5,2.1,0.1,2.6-1.2C946.3,400.1,948.3,395.1,950.4,390z M569.5,343.8c4.5-6.7,8.9-13.3,13.5-20.1
			c-7.7-3.7-15.1-7.2-22.7-10.8c-2.2,6.2-4.3,12.1-6.5,18.1c3.1,1.3,6.7,2.1,9.2,4.2C565.8,337.4,567.4,340.8,569.5,343.8z
			 M667.4,446.8c0.7-1.1,0.9-2,1.6-2.5c2.9-2.1,5.9-4.1,8.8-6.2c1.5-1.1,2.9-2.4,4.1-3.5c-6.7-5.6-13.1-10.9-19.5-16.3
			c-0.1,0-0.3,0.1-0.3,0.2c-2.9,5-5.9,10.1-8.7,15.2c-0.2,0.4,0.1,1.5,0.5,1.9c2.9,3.2,5.8,6.4,8.9,9.3
			C664,445.8,665.9,446.1,667.4,446.8z M321.4,129.1c7.8,0.1,20.4-3.3,27.2-7.5c1.6-1,3.1-2.3,4.2-3.8c2.1-2.6,1.6-4.2-1.7-4.6
			c-4.4-0.5-8.9-0.9-13.3-0.4c-8.7,0.9-16,5.2-22.8,10.4c-0.9,0.7-1.6,2.6-1.3,3.7c0.2,0.9,1.9,1.7,3.1,2
			C318.3,129.3,319.9,129.1,321.4,129.1z M689.6,276.4c-7.9-3.5-15.8-7-23.9-10.6c-0.7,3.4-1.2,6.3-1.8,9.2c-1.3,6-1.3,6,4.6,8
			c0.1,0,0.2,0,0.2,0.1c7.4,3.2,14.7,6.4,22.1,9.6c0.8,0.4,1.6,0.9,2.6,1.4c0-1.2,0-2,0-2.9c0-0.9,0.1-1.8,0.2-2.8
			c-4.1,2.2-5.3,1.6-5.1-2.9C688.7,282.5,689.2,279.5,689.6,276.4z M786.8,421.8c0.7,1.9-0.8,4.2,2.2,5.3c4.5,1.6,8.8,3.7,13.2,5.5
			c0.8,0.3,1.7,0.8,2.4,0.5c3.6-1.3,6.9-0.5,10.2,1.2c1.9,0.9,4.1,1.4,6.8,2.2c-0.9-6.9,2.3-9.9,8.6-10.3c-1.2-1.4-2.2-2.5-3.5-3.2
			c-5.2-2.8-10.7-1.8-16.2-1.3c-4.7,0.4-9.4,1-14.1,1.1C793.4,422.9,790.3,422.2,786.8,421.8z M589.1,314.1
			c2.8-4.2,5.6-8.4,8.4-12.6c-8.6-3.8-17.1-7.6-25.8-11.5c-1.2,3.7-2.3,7.2-3.5,10.6c-0.5,1.5-0.2,2.4,1.1,3.1
			C575.8,307.1,582.4,310.6,589.1,314.1z M640.3,221.6c1-3.7,0.8-5.9-1.5-7.6c-2-1.5-4.1-2.9-7-2.7c-1.7,0.1-3.5-0.5-5.2-0.8
			c-6-1-11.9-2.1-17.6-3.1c-1,1.7-1.8,3-2.8,4.5c3.3,2.1,4.5,5.2,3.6,9.6C620.2,221.6,630.1,221.6,640.3,221.6z M612.8,187.1
			c-0.9-2.7-1.7-5-2.4-7.4c-1.5-5.7-2.6-11.4-4.3-17c-1.7-5.6-3.7-11.1-5.8-16.5c-0.8-2-3.4-2.2-4.7-0.5c-1.8,2.3-3.3,4.8-4.8,7
			c1.9,1.5,3.6,2.6,5,4.1c0.6,0.7,0.9,2.5,0.5,3.2c-0.4,0.7-2,1.2-3.1,1.1c-2.1-0.2-4-1-6.1-1.3c-1.5-0.2-3,0-4.5,0
			c0,0.2-0.1,0.4-0.1,0.6c0.7,0.3,1.3,0.7,2,1c3.5,1.2,7,2.2,10.4,3.6c5.1,2.2,9.4,5.4,10.5,11.3c0.5,2.7,0.1,5.6,0.1,8.8
			C607.7,185.7,610.2,186.4,612.8,187.1z M767.6,329c0-0.4,0-0.8-0.1-1.3c-11.5-5.1-23-10.2-34.7-15.5c0.2,3,0.8,4.8,3.6,5
			c1,0.1,1.9,0.8,2.8,1.2c5.8,2.8,11.7,5.6,17.5,8.4c0.9,0.4,1.9,0.6,2.6,1.2c0.7,0.6,1,1.6,1.4,2.4c-0.9,0.3-2,1-2.7,0.7
			c-5.3-2.2-10.5-4.6-15.7-7.1c-2.4-1.1-4.7-2.5-7-3.7c-0.2,0.2-0.3,0.4-0.5,0.5c3,6,3.8,12.9,8.4,18.3c4.3-1.9,8.2-3.8,12.3-5.5
			C759.5,332.2,763.6,330.7,767.6,329z M712.7,348.6c4.1-2.4,8-4.7,11.8-7c-5.7-6-23.5-17.4-27.8-17.8c0.5,4.8,1,9.6,1.6,14.4
			c0,0.4,0.3,0.8,0.6,1c2.7,1.5,5.3,3.3,8.2,4.3C709.6,344.5,711.7,345.6,712.7,348.6z M726.3,386.3c0.1-0.3,0.2-0.5,0.3-0.8
			c-4.3-1.8-8.6-3.6-12.9-5.4c-0.5-0.2-1.3-0.1-1.8,0.1c-7.1,3.8-14.2,7.7-21.2,11.6c-0.9,0.5-1.8,1-2.8,1.4
			c-3.4,1.6-6.8,3-10.2,4.7c-5.2,2.6-10.3,5.5-15.6,8.3c1.1,0.3,2,0.6,2.9,0.8c6.1,1.8,6.3,1.7,10.1-3.2c3.1-4,5.1-4.6,10.2-3.3
			c1.5,0.4,2.6,0.4,3.9-1.1c3.9-4.9,9.2-8.3,15-10.5c3.3-1.3,7-1.7,10.5-2.1C718.5,386.5,722.4,386.5,726.3,386.3z M402.7,155.5
			c3.8-1.7,3.5-1.7,3-5.5c-0.6-3.9-0.9-8-0.8-11.9c0.2-4.4,1.6-8.5,5.3-11.4c0.3-0.3,0.7-1,0.5-1.3c-0.2-0.5-0.8-0.9-1.3-1.1
			c-3.5-0.9-7-1.5-10.5-2.5c-1.5-0.4-2.6-0.3-3.6,1c-1.3,1.6-2.6,3.1-3.9,4.5c-1.3,1.4-1.4,2.6,0.2,3.9c3.6,3.1,5.9,7.1,7.1,11.7
			C399.9,147.2,401.3,151.3,402.7,155.5z M654.3,317.5c-1.3,5.1-2.6,10.4-4.1,15.6c-0.7,2.3-0.1,3.4,2.2,3.9
			c1.1,0.2,2.1,1.1,3.3,1.7c6.6-3.5,13.3-7.1,20.3-10.9C668.6,324.3,661.6,321,654.3,317.5z M730,260.2c-0.2,0.3-0.4,0.5-0.6,0.8
			c0.8,0.7,1.5,1.8,2.4,2c3.7,0.9,7.5,1.5,11.2,2.2c0.7,0.1,1.5,0.1,2,0.5c2.5,2,5.3,1.4,8.1,1.1c2.9-0.3,5.9-0.8,8.8-1
			c9.5-0.4,19-0.7,28.5-1c0-0.2,0-0.4,0-0.6c-1.7-0.3-3.6-0.1-5.1-0.9c-1.4-0.7-2.2-2.4-3.3-3.6c0.1-0.2,0.3-0.5,0.4-0.7
			c-1.1,0-2.2-0.1-3.3,0c-8.6,0.6-17.2,1.4-25.8,1.9C745.6,261.5,737.8,262.6,730,260.2z M676.1,407.7c-2.2,2.9-4.6,6-6.9,9.2
			c-1,1.3-0.6,2.3,0.6,3.2c3.9,3.1,7.6,6.3,11.5,9.5c0.4,0.3,0.9,0.5,1.4,0.7c2.3-4.5,7.3-5.6,10.5-8.7c-3.3-1.8-6.9-3-9.7-5.3
			C680.7,414,678.7,410.8,676.1,407.7z M752.2,316.7c1.5-5.6,1.8-11.1,0.8-13.1c-6.1,0.2-10.1-5-15.8-5.6c-0.1,5.2-3.9,5-7.5,5.1
			c-0.1,4.3,3.4,5.3,6,6.6c3.9,2.1,8.1,3.4,12.2,5.1C749.3,315.4,750.7,316,752.2,316.7z M730.5,277.5c1.9,2.1,4.2,4,5.5,6.4
			c2.1,3.7,5.6,4.3,9.4,5.9c-0.5-6.7-1-13-1.6-19.2c-0.1-0.5-0.7-1.4-1.2-1.5c-3.6-0.7-7.1-1.3-10.7-1.9
			C731,270.7,733.6,274.7,730.5,277.5z M209.9,308.9c-3.5-2.1-5.5-1.7-7.4,1.5c-0.3,0.5-0.4,1.3-0.9,1.7c-0.8,0.8-1.8,1.4-2.7,2.1
			c-0.7-1-2-2.1-2-3.1c0.2-2.1,1-4.1,1.7-6.2c0.8-2.4,1.8-4.7,2.7-7c-0.2-0.2-0.5-0.3-0.7-0.5c-4.6,2-8.8,4.6-11.5,9.1
			c-0.5,0.9-0.2,2.7,0.4,3.7c1.2,1.9,2.9,3.4,4.3,5.1c1.5,1.8,3,3.5,4.8,5.7c0.7-0.2,2.1-0.6,3.5-0.8c2.2-0.4,3.3-1.7,4.1-3.8
			C207.1,313.8,208.6,311.5,209.9,308.9z M398.1,392c4.9-1.9,10-3.9,15.1-5.9c2.1-0.8,4-1.8,3.9-4.6c0-0.8,0.5-1.7,1.1-2.3
			c1-1,1.2-1.8,0.4-3.1c-0.9-1.4-2-1-3.1-0.6c-4.8,1.6-9.5,3.2-14.3,4.8c-1.9,0.7-3.8,1.4-5.5,2C396.5,385.5,397.2,388.5,398.1,392z
			 M643.7,222.1c0.5-0.4,0.8-0.7,1.1-0.9c1.8-1.7,3.3-4.2,5.4-5c2.7-1,3-3,4-5c2-3.9,3.8-4.2,7.1-1.4c0.1,0.1,0.3,0,0.7-0.1
			c-1.2-4.9-2.3-9.7-3.4-14.5c-0.1,0-0.2,0-0.3,0.1c-4.6,3.4-7.2,8.9-12.5,11.5c-0.1,0.1-0.3,0.3-0.2,0.4c0.3,2.6-1.4,3.2-3.5,3.6
			c-0.3,0.1-0.6,0.6-1.1,1.1C645.2,214.4,643.2,218.4,643.7,222.1z M928.3,404.9c-0.4,3-0.4,6-1.3,8.6c-0.9,2.7-2.7,5.1-4.2,7.8
			c4.6,0.9,9,1.8,12.9,2.6c2.2-4.8,4.3-9.2,6.3-13.7C937.4,408.5,932.9,406.7,928.3,404.9z M722,444.9c0.2,1.7,0.2,3.3,2.2,3.9
			c4.4,1.3,8.6,3,13.1,4c11.7,2.4,23.6,4.5,35.3,6.7c8.9,1.6,17.8,3.2,26.9,2c2.4-0.3,3.5-1.2,4-3.4c-2.7,0.8-5.6,2-8.5,2.3
			c-8.4,0.7-16.6-0.6-24.5-3.7c-8.1-3.2-16.5-4.4-25.1-4.8C737.1,451.4,729.5,449,722,444.9z M298.4,255.6c0-1.2,0.2-2.4-0.1-3.6
			c-0.2-1-0.9-1.9-1.4-2.9c-1.1,0.6-2.6,0.8-3.2,1.7c-4.3,6.5-7,13.6-7,21.5c0,1.4,0.1,3.6,0.9,4.1c1.9,1.1,2.5-1.3,3.5-2.4
			C296.2,268.9,298,262.5,298.4,255.6z M509.3,205.6c1.6-3,2.8-5.8,4.4-8.3c0.8-1.3,2.3-2.2,3.5-3.3c1,1.1,1.9,2.1,2.9,3.2
			c0.2,0.2,0.3,0.4,0.5,0.7c3.4-0.8,6.9-1.4,9.2-4.5c-0.9-1.7-1.8-3.4-2.5-5.2c-0.3-0.7-0.1-1.9,0.3-2.3c2.9-2.9,6-5.7,8.9-8.6
			c1-1,1.7-2.4,2.5-3.6c-0.2-0.1-0.4-0.3-0.5-0.4c-0.5,0.5-1.1,1-1.6,1.5c-3.2,3.4-6.4,6.9-9.7,10.3c-2.4,2.5-5.3,2.4-7.8,0
			c-0.6-0.5-1.2-1-2-1.8c0.2,4.3,0.1,4.1-2.5,7.7C511.5,195.2,508.9,199.7,509.3,205.6z M641.2,246.6c-4.9-3-9.6-6-15.4-6.5
			c-0.9-0.1-1.7-0.5-2.5-0.8c-4.5-1.6-9-3.3-13.5-4.9c-2.3-0.8-4.7-1.6-7.1-2.4c-1.6,0.8-3.3,1.6-5.5,2.7c0.9,0.2,1.2,0.2,1.6,0.3
			c7.5,1,14.7,3.2,21.4,6.5c4.6,2.3,9.1,4.6,13.6,6.9C638.8,250.8,637.9,250.2,641.2,246.6z M870.6,322.3c3-1.2,5.3-2.1,7.5-3.1
			c0.4-0.2,0.8-1,0.8-1.5c0.1-4.1,0-8.1,0-12.1c-3.2-1-4.1-3.3-4.2-6c-0.1-2.4,0.1-4.8,0-7.2c-0.1-1.4-0.7-2.7-1-4.1
			c-0.3,0-0.6,0.1-1,0.1C872,299.5,871.3,310.7,870.6,322.3z M201.7,243.1c1.9,6,3.8,12.1,5.8,18.7c3.3-7,6.4-13.3,9.6-20.1
			c-1.8-0.2-3.3-0.5-4.7-0.4C209,241.8,205.5,242.4,201.7,243.1z M695.7,418.2c2.9,0.2,4.3-1.9,2.8-4c-4-5.4-8.8-9.7-15.8-10.8
			c-1.3-0.2-2.1,0.4-2.1,1.6c0,1,0,2.1,0.5,3C684.1,414.3,690,416.5,695.7,418.2z M352,242.5c6.3,2.9,11.6,7,18.7,6.4
			c0.6-3.1,1.1-5.9,1.6-8.7C365.9,236.9,357.5,238.5,352,242.5z M684.6,323c-9.6-4.9-18.9-9.5-28.3-14.2c-0.4,1.9-0.8,3.4-1.2,5.2
			c8.3,3.9,16.4,7.8,24.8,11.8C681.2,325.1,682.7,324.2,684.6,323z M739.7,340.5c-3.5-3.5-3.7-8.1-5-12.3c-1.9-6.1-4.3-12-6.5-18
			c-1-2.7-1.6-3.2-5-2.9c3.8,11.6,7.6,23.2,11.5,34.9c1.3-0.4,2.5-0.7,3.6-1.1C738.8,341,739.1,340.8,739.7,340.5z M423.6,268.3
			c-11-2.4-21.3-1.1-30.8,5c2.2,0.7,4.4,1.4,6.6,2.2c1.8,0.6,3.4,0.6,5.2-0.6c3.2-2.2,6.6-4,10.7-2c0.9,0.4,2.4,0.3,3.2-0.2
			C420.2,271.4,421.7,269.9,423.6,268.3z M808.4,403.1c1.2,6.7,4.1,9,10,8.7c4.9-0.2,9.8-0.2,14.7-0.3c2.6,0,5.1,0.1,7.7-0.1
			c1.7-0.1,2.2-1.1,1.3-2.6c-0.3-0.5-0.8-1-1.3-1.4c-3.6-3.3-7.2-6.6-10.8-9.9c-0.8-0.8-1.8-1.3-2.8-2c-0.2,0.2-0.3,0.3-0.5,0.5
			c0.9,1.1,1.8,2.1,2.7,3.2c1.4,1.8,3.1,3.5,4.2,5.5c1.6,3.1,0.3,5.2-3.1,5.5c-1.6,0.1-3.3-0.1-5-0.2c-2.9-0.3-5.7-0.8-8.6-0.8
			c-2,0-3.5-0.6-4.8-2.1C811.1,405.7,809.9,404.6,808.4,403.1z M891.4,314.5c0.1,0.1,0.2,0.2,0.3,0.2c0-0.1,0.1-0.1,0.1-0.2
			c0,0-0.1-0.1-0.1-0.1c-0.9-0.7-2.6-1.5-2.6-2.2c0.1-1.3,1-2.7,1.8-3.9c0.6-0.7,1.6-1.1,2.8-1.9c-4-1-8.1-1.3-8.9-6.5
			c-3.4,5.7-2.8,11.4-2.3,17.2c0,0.3,0.5,0.8,0.9,0.9c1.5,0.5,3,1,4,1.3C888.9,317.6,890.1,316,891.4,314.5z M666.6,258.6
			c-1.1,3.3-0.8,3.7,2.5,5.1c5,2.1,9.9,4.5,14.9,6.6c2.3,1,4.7,1.8,7.2,2.8c0.4-1.1,0.8-1.8,1.3-3
			C683.7,266.2,676.2,260.2,666.6,258.6z M533.4,324.3c-0.8,1-1.4,1.9-2.2,2.8c-0.7,0.8-1.7,1.4-2.4,2.3c-0.5,0.7-1.1,1.8-0.9,2.4
			c0.9,1.8,2.1,3.5,3.2,5.1c3.9-1.2,8.2,0.5,11.5-2.5C539.7,331.1,536.8,327.9,533.4,324.3z M181.5,429.3
			c-3.7,9.1-5.6,18.7-12.6,26.3c3.3,0.3,5.4-0.4,6.6-3c3-6.6,5.9-13.3,8.9-20c0.3-0.6,0.4-1.4,0.6-2.3
			C183.9,430,182.8,429.7,181.5,429.3z M564.9,140c-0.9,3.5-1.2,6.6-0.1,9.7c0.2,0.5,0.9,0.8,1.4,1c3.6,1.3,7.3,2.3,10.7,3.8
			c2.5,1.1,4.8,2.7,7.2,1.4c-1.2-0.6-3.3-1.1-4.1-2.3c-0.8-1.3-0.2-3.4-0.2-5C571.7,152.1,569.3,144.6,564.9,140z M803.3,263.1
			c1-0.2,2.1-0.4,3-0.7c5.7-2,11.4-4.1,17.1-6.2c2.4-0.9,4.7-4.9,4.5-7.2c-5.9,4.3-12.4,7.2-19.7,8c-1.9,0.2-3.1,0.6-3.2,2.9
			C804.9,260.9,803.9,261.9,803.3,263.1z M694.1,299.8c0.1-0.3,0.2-0.6,0.3-0.9c-9.8-6.8-21.1-10.4-32.1-14.7
			c-1.4,3.6-1.4,3.7,2.1,4.6c0.6,0.2,1.3,0.3,1.9,0.4c5.2,1.3,10.4,2.4,15.1,5.3c3,1.9,6.5,3.1,9.8,4.5
			C692.1,299.5,693.1,299.6,694.1,299.8z M403.9,279.8c0.8,0.7,1.6,1.9,2.4,2c3.8,0.2,7.6,0.3,11.4,0.1c0.8-0.1,1.9-1.6,2.2-2.7
			c0.2-0.5-0.9-2.1-1.7-2.2C413.3,276,408.1,274.8,403.9,279.8z M507.9,195.7c1.8-2.6,3.4-5.2,5.3-7.6c1.5-1.9,1.3-2.8-0.9-3.9
			c-1.6-0.8-3-2-4.5-3c-0.7-0.5-1.6-0.9-2.3-1.3c-0.1,0.2-0.3,0.3-0.4,0.5c1.6,3.8,1.5,7.6,0.4,11.5
			C504.6,194.9,504.7,194.9,507.9,195.7z M432.2,456.8c-6.1-0.8-10.9-4.1-15.4-7.9c-3.3-2.7-7.2-4.4-12-5.5
			c6.5,4.7,12.4,9.2,18.4,13.5c1.4,1,3,1.9,4.6,2.6C430.7,460.9,431.5,460.4,432.2,456.8z M730.7,426c0,0.2-0.1,0.3-0.1,0.5
			c4.5,4.6,8.9,9.3,13.7,14.2c0.4-2.2,0.9-3.8,1.1-5.6c0.1-1.7-0.3-3.4-2.2-4.1C739,429.3,734.9,427.7,730.7,426z M188.1,460.4
			c0.2,0.2,0.4,0.3,0.6,0.5c0.9-1,2-1.8,2.5-2.9c1-2.4,1.8-4.9,2.6-7.5c1.5-5.4,2.9-10.8,4.4-16.3c-1.3-0.3-2.2-0.5-3.2-0.7
			C191.9,442.4,192.5,452.1,188.1,460.4z M578.6,159.1c-3-1.4-5.9-2.9-8.8-4.1c-3.4-1.3-4.4-0.6-5.3,3.2c2.4,1.2,4.9,2.3,7.3,3.5
			C575.9,163.8,575.9,163.8,578.6,159.1z M128.7,331.5c0.3-2.2,0.8-4.3,0.8-6.4c0-2.6-2.5-1.7-3.9-2c-1.4-0.3-3.3-1.9-4.4,0.4
			c-0.8,1.7-1.2,3.5-1.8,5.2C122.6,329.7,125.5,330.6,128.7,331.5z M531.1,302.8c-3.1-0.8-9.8,3.3-12,7.1c0.2,0.1,0.3,0.3,0.5,0.4
			c0.3,0.1,0.7,0.2,0.9,0.1c3.5-0.9,6.3-0.4,7.3,3.8c1.1-0.7,1.8-1.2,2.4-1.6C527.2,306.2,527.2,306.2,531.1,302.8z M758.9,427.4
			c0.5-4.4,0.2-4.7-3.6-4.5c-1.9,0.1-3.8,0.3-5.7,0.6c-3.4,0.4-6.9,0.9-10.3,1.3c1.3,0.9,2.8,1.7,4.3,1.8c3.5,0.3,7,0.1,10.5,0.3
			C755.6,426.9,757.2,427.2,758.9,427.4z M285,232.7c0.2-0.4,0.4-0.7,0.6-1.1c-0.6-0.3-1.1-0.7-1.7-0.9c-3.7-1.8-7.2-3.9-11.5-3.6
			c-0.8,0.1-1.6,0.6-2.4,0.9c0.4,0.9,0.7,2.1,1.4,2.5C275.6,233.2,280.4,232.3,285,232.7z M514.5,165c-0.1,0.3-0.3,0.5-0.4,0.8
			c2.2,0.9,3.7,2.3,3.3,4.9c0,0.3,0.1,0.7,0.3,0.8c2.6,2,2.8,4.8,2.3,7.6c-0.4,2.4,0.7,3.8,2.5,4.6c2.1,0.9,2.8-1.1,3.6-1.9
			c-2-3.3-3.8-6.3-5.7-9.4c-1.1-1.9-2.1-3.9-3.4-5.7C516.4,165.9,515.3,165.5,514.5,165z M831.5,429.7c-1.5,0.3-2.7,0.7-4,0.8
			c-1.8,0.2-2.3,1.3-2.5,2.9c-0.4,3.5-0.2,3.7,3.6,5.1c1.6,0.6,2.6,0.2,2.8-1.3C831.7,434.8,831.5,432.4,831.5,429.7z M755,297.6
			c-4.2-1.8-8.3-3.5-12.4-5.2c-0.5,1.2-0.8,2.1-1.2,3c3.9,1.9,7.7,3.8,11.6,5.7C753.7,299.8,754.3,298.8,755,297.6z M197.2,325.1
			c-0.8,2.5,0.3,3.6,2.6,3.9c0.7,0.1,1.4,0.2,2.2,0.2c5.7,0.3,6.2-0.5,3.6-5.8c-0.1-0.1-0.2-0.2-0.4-0.4
			C202.5,323.7,199.9,324.4,197.2,325.1z M431.4,366.5c0.2,0.1,0.5,0.3,0.7,0.4c1.4-1.4,2.9-2.6,4.2-4.1c0.3-0.4,0.4-1.4,0.1-1.9
			c-1.5-2.5-3.2-4.9-5.1-7.7C431.4,358,431.4,362.2,431.4,366.5z M423,123.3c-1.5-1.8-0.5-4.2-2.9-4.2c-1.7,0-3.5,0.1-5.2,0.5
			c-0.6,0.1-1.4,1.3-1.4,1.9c0,0.8,0.8,2.3,1.2,2.4C417.3,123.8,419.8,123.5,423,123.3z M666.3,223c-3.9,0-7.7,6.1-6.2,8.9
			c0.3,0.5,2.5,0.7,2.6,0.5C664.1,229.4,665.1,226.4,666.3,223z M786.5,258.8c0,0.4,0.1,0.8,0.1,1.2c4.6,0.8,9.2,1.4,13.8,0
			c0.6-0.2,1-1.1,1.4-1.7C796.4,258.2,791.4,258.3,786.5,258.8z M717,376.7c0,0.2,0.1,0.3,0.1,0.5c3.6,1.8,7.2,3.7,10.8,5.5
			c1.8,0.9,3.3,0.7,4.6-1.1c-4.5-1.7-8.7-3.5-13.1-5.1C718.8,376.3,717.9,376.6,717,376.7z M516.1,174.2c-2,1.7-4,3.3-5.9,5
			c1.8,2.2,4.3,2.9,5.7,1.8C517.4,179.7,517.5,176.3,516.1,174.2z M507.9,176.2c3.5-0.9,6.2-3.9,6.2-7
			C510.3,168.2,507.4,171.4,507.9,176.2z M508.4,166.8c-0.1-0.2-0.2-0.5-0.3-0.7c-1.5,0.9-3.8,1.5-4.4,2.9c-1.2,2.8-1.3,5.9,0.5,9.4
			c0.5-2.6,0.6-4.7,1.3-6.5C506.1,170.1,507.4,168.5,508.4,166.8z M947,346.1c0,1.7-0.5,3.3,0.1,3.8c1.3,1.2,3.2,1.9,5,2.9
			c0.6-1.6,1.1-2.8,1.7-4.2C951.6,347.7,949.6,347,947,346.1z M266.9,376.5c-2.2,1.4-4.2,2.7-6.2,4.1c2.1,3.1,2.3,3.1,4.7,1.1
			c1-0.9,2-1.8,3.2-2.7C268,378,267.5,377.3,266.9,376.5z M190.1,227.5c-3.3-1.1-6.7,0.1-7.7,2.6
			C186.6,231.2,189.7,230.1,190.1,227.5z M392.2,384c-0.3,0-0.7-0.1-1-0.1c-0.2,0.7-0.7,1.8-0.4,2c1.8,1.5,0.6,2.6-0.9,4.2
			c1.3,0.6,2.2,1.1,3.2,1.5c0.3-1,0.8-2,0.7-3C393.5,387.1,392.7,385.5,392.2,384z M428.2,377.5c-0.1-1.4-0.1-2.4-0.2-3.8
			c-1.9,1.2-3.4,2.1-4.9,3c0.1,0.2,0.1,0.4,0.2,0.6C424.7,377.4,426.3,377.4,428.2,377.5z M646.8,343.4c1.9-1,3.4-1.8,5.2-2.8
			C648,339,647.5,339.3,646.8,343.4z"/>
		<path d="M615.5,477.3c-0.9,1.7-1.6,3-2.3,4.2c-1,1.8-2.5,2.7-4.4,1.8c-3.6-1.7-7.2-3.5-10.6-5.5c-1.8-1-2.3-2.9-1.4-4.8
			c1.2-2.4,2.5-4.8,3.9-7.1c0.3-0.5,1.6-0.7,2.3-0.5c1.2,0.4,2.3,1.2,3.3,1.9c12.9,8.4,25.7,16.8,38.6,25.2c0.5,0.3,1.2,0.6,1.3,1
			c0.3,0.8,0.5,1.9,0.2,2.5c-0.2,0.4-1.5,0.3-2.3,0.3c-0.4,0-0.8-0.6-1.2-0.8C634,489.5,624.9,483.5,615.5,477.3z M602.9,469.1
			c-0.7,1.1-1.3,1.9-1.8,2.7c-1.5,2.7-1.4,3.4,1.4,4.9c1.1,0.6,2.3,1.1,3.4,1.7c4.2,2,4.2,2,6-2.2c0.1-0.1,0-0.3,0-0.7
			C609.2,473.4,606.2,471.4,602.9,469.1z"/>
		<path d="M539.7,362.6c17.4,0,30.1-0.1,42.8,0c9.8,0.1,19.3,2.3,28.1,6.4c3.3,1.5,6.2,4,8.8,6.5c3.7,3.7,3.2,11.3-0.6,15.9
			c-3.8,4.6-8.6,7.3-14.2,9.3c-9.3,3.4-18.7,6-28.5,7.1c-5,0.6-10,0.9-15.1,1.2c-12.7,0.7-25.3-0.8-37.9-1.4
			c-14.3-0.7-28.6-1.2-43-1.6c-6-0.1-11.5-1.5-16.8-4.1c-3.7-1.8-5-4.6-3.8-8.8c0.5-1.8,1.4-3.7,2.5-5.1c4.3-5.6,9.2-10.7,15.7-13.9
			c10.4-5.1,21.5-8,32.8-9.3C521.7,363.6,533,363.1,539.7,362.6z M500.7,402c0.1,0.3,0.2,0.6,0.3,0.9c0.8,0.1,1.5,0.2,2.3,0.2
			c4.7,0.2,9.4,0.4,14.2,0.7c11.5,0.7,23,1.7,34.5,2c7.2,0.2,14.4-0.3,21.6-0.9c5-0.4,9.9-1.6,14.8-2.5c0.1-0.3,0.2-0.5,0.3-0.8
			c-1.6-1.2-3.1-2.6-4.8-3.5c-4.8-2.7-10.2-3.5-15.6-4.4c-6.8-1.2-13.6-1.5-20.3-0.9c-7.1,0.6-14.1,1.7-21.2,2.7
			c-5.5,0.8-10.9,1.6-16.3,2.9C507.1,399.1,503.9,400.7,500.7,402z M510.2,368.5c1.5,8.4,3,16.6,4.5,25c0.6-0.1,1.4-0.1,2.1-0.2
			c0.7-0.1,1.4-0.3,2.3-0.5c-0.6-8.6-3.3-16.6-5.2-24.8C512.5,368.1,511.5,368.3,510.2,368.5z M508.9,394.8c1.3,0.2,2-0.2,1.7-1.8
			c-0.5-3.5-0.8-7-1.4-10.4c-0.8-4.5-1.9-9-2.8-13.6c-1.2,0.2-2.1,0.5-3,0.6c-2.3,0.2-2.6,1.5-1.9,3.5
			C504,380.2,506.4,387.4,508.9,394.8z M587.6,366.5c-1.2,0-2.2,0-3.3,0c0,0.7,0,1.2,0,1.8c0.4,7.8,0.9,15.6,1.1,23.4
			c0,2.6,0.7,4.1,3.5,4.8C589.8,386.5,588.1,376.6,587.6,366.5z M604.3,397.2c1.2-0.7,3.2,0,3.1-2.5c-0.2-7-0.4-14-0.5-21.1
			c-0.1-2.4-1.3-3.6-3.6-3.5C603.6,379.1,603.9,388,604.3,397.2z M529,391.5c1.1-0.2,2.9,0.4,2.6-1.7c-0.9-6.7-1.7-13.5-2.8-20.1
			c-0.5-3.2-1.2-3.4-4.3-2.2C526,375.3,527.5,383.2,529,391.5z M493.5,401.9c-0.8-9.9-5.4-18.2-8.6-27.1c-2.1,0.1-1.8,1.3-1.4,2.5
			c2.4,8.3,4.8,16.7,7.3,25.2C491.6,402.4,492.6,402.1,493.5,401.9z M488.6,373.5c3.1,8.9,6,17.6,9,26.3c0.7-0.3,1.6-0.8,2.8-1.5
			c-3-8.6-5.9-17.1-8.9-25.7C490.1,373.1,489.3,373.3,488.6,373.5z M570.5,390.2c0-7.9-1.6-15.6-3.1-23.3c-0.1-0.4-1.7-0.7-2.6-0.7
			c-0.2,0-0.8,1.2-0.7,1.8c0.8,6.3,1.8,12.6,2.5,19C566.8,389.4,567.5,390.7,570.5,390.2z M581.1,393.3c0.4-0.2,0.8-0.5,1.2-0.7
			c-0.5-8.2-1-16.4-1.5-24.6c-0.1-2.2-1.4-2.3-2.9-1.8c0.3,8.3,0.6,16.4,1,24.6C578.9,391.6,580.3,392.5,581.1,393.3z M597.7,399
			c2.2,0,3-0.7,2.9-2.6c-0.5-8.9-0.9-17.7-1.4-26.6c0-0.6-0.9-1.1-1.6-2C597.7,378.7,597.7,388.8,597.7,399z M487,402.4
			c-2.4-8.5-4.8-16.7-7.1-25c-2.2,0.8-2.2,0.8-1.8,2.5c0.6,2.6,1.3,5.3,1.9,7.9c1.1,4.9,2.2,9.8,3.3,14.6
			C484.5,402.4,485.5,402.4,487,402.4z M532.2,366.7c1.1,7.9,2.2,15.7,3.3,23.7c1.7,0.1,2.9-0.1,2.6-2.3c-0.8-6.3-1.5-12.7-2.3-19
			C535.4,366,535.2,366.1,532.2,366.7z M525.5,392.1c-0.3-1.6-0.6-2.9-0.8-4.1c-1.2-6.2-2.4-12.4-3.6-18.5c-0.4-2.1-1.6-2.4-3.5-1.7
			c1.8,8.2,3.6,16.4,5.4,24.7C523.7,392.4,524.5,392.2,525.5,392.1z M591.3,367.3c0.1,2.7,0.2,5.2,0.4,7.8c0.2,2.9,0.7,5.7,0.7,8.6
			c0,5.3-0.3,10.5-0.4,15.8c0,0.5,0.4,1,0.6,1.6c0.6-0.4,1.3-0.7,1.7-1.2c0.3-0.4,0.1-1.1,0.1-1.6c-0.2-9.7-0.5-19.4-0.6-29.1
			C593.7,367.6,593.2,367,591.3,367.3z M544.7,389.2c0.2-7.6-1.5-14.6-3.1-21.7c-0.4-1.7-1.4-1.3-2.4-0.9c0.9,7.7,1.7,15.2,2.6,22.9
			C542.9,389.4,543.7,389.3,544.7,389.2z M558.4,366.5c0.3,6.7,0.7,13.1,0.9,19.5c0.1,3.2,0.3,3.5,3.9,2.8c-0.2-2.5-0.2-5.1-0.6-7.6
			c-0.6-4.3-1.4-8.5-2.2-12.8C560.2,367.3,559.9,365.9,558.4,366.5z M555.2,389.3c0.4-0.2,0.7-0.4,1.1-0.6c-0.5-7.4-1-14.7-1.5-22.1
			c-1.7,0-2.8,0-3.7,0c1,7.2,1.9,14.2,2.9,21.2C554,388.3,554.7,388.8,555.2,389.3z M472.3,381.9c1.3,6.4,2.5,12.2,3.7,18.1
			c0.5,2.7,0.8,2.9,3.6,2.1c-1.6-7.2-3.3-14.4-5-21.9C473.5,381,472.8,381.6,472.3,381.9z M505.7,396.1c-2.8-8.5-5.6-16.7-8.3-25
			c-0.4,0.1-0.9,0.1-1.4,0.3c-0.4,0.1-0.8,0.4-1,0.5c2.9,8.3,5.7,16.5,8.6,24.9C504,396.6,504.6,396.4,505.7,396.1z M574.2,366.1
			c-1.3,0-2.2,0-3.2,0c1.2,8.3,2.3,16.5,3.4,24.7c0.3,0,0.6,0,0.9-0.1C575,382.6,574.6,374.5,574.2,366.1z M549.8,389.2
			c0.3-0.2,0.6-0.4,0.9-0.6c-1.1-7.4-2.2-14.8-3.4-22.1c-0.6-0.1-0.9-0.2-1.2-0.2c-0.3,0-0.6,0.1-0.6,0.1c0.9,7.3,1.8,14.5,2.8,21.6
			C548.4,388.5,549.3,388.8,549.8,389.2z M610.8,372.8c0,7.3,0,14,0,20.7c0.4,0.1,0.7,0.1,1.1,0.2c0.3-1,1-2,1-2.9
			c-0.3-5.4-0.7-10.8-1.2-16.3C611.6,374,611.2,373.5,610.8,372.8z M471.9,401.8c0.3-0.2,0.6-0.4,0.9-0.6
			c-1.1-5.3-2.2-10.6-3.3-15.8c-0.3,0-0.5,0-0.8,0c-0.3,0.7-0.8,1.4-0.7,2c0.5,4.1,1.1,8.2,1.9,12.3
			C470.1,400.4,471.2,401.1,471.9,401.8z M464.9,390.2c-1.8,2.4-2.8,4.4-2.1,6.7c0.3,1,1.8,1.7,2.7,2.5c0.2-0.2,0.4-0.3,0.6-0.5
			C465.8,396.2,465.4,393.5,464.9,390.2z M616.6,387.8c2.9-3.5,2.4-8.5-0.9-10.6C616,380.7,616.3,384.2,616.6,387.8z"/>
		<path d="M490.2,416.4c0.4,0.3,1,0.5,1.3,0.9c2.9,3.4,5.8,6.8,8.5,10.4c0.5,0.7,0.2,2,0.3,3c-1-0.2-2.3-0.2-2.8-0.8
			c-2.9-3.1-5.6-6.4-8.3-9.7c-0.9-1-1.4-2.2-0.1-3.4C489.5,416.7,489.8,416.6,490.2,416.4z"/>
		<path d="M503.1,436.9c-1.7,4.5-3.2,8.8-4.9,13c-0.2,0.5-1.4,0.6-2.1,1c-0.3-0.9-1-1.9-0.8-2.6c1.2-4.2,2.6-8.4,4.1-12.5
			c0.2-0.6,1.6-1.4,1.9-1.2C502,435,502.4,435.9,503.1,436.9z"/>
		<path d="M515.7,431c-0.8-0.6-1.5-1-2-1.6c-2.9-3-5.9-5.9-8.7-9c-0.5-0.5-0.7-1.8-0.4-2.3c0.3-0.5,1.6-0.7,2.3-0.5
			c0.9,0.3,1.6,1,2.3,1.7c2.5,2.6,5,5.2,7.3,8c0.5,0.6,0.7,1.6,0.6,2.4C517.1,430.1,516.2,430.5,515.7,431z"/>
		<path d="M606.1,423c-0.7-0.4-1.3-0.7-1.8-1.2c-3-2.8-6.1-5.7-9-8.7c-0.5-0.5-0.3-1.8-0.5-2.7c1,0,2.3-0.3,2.9,0.2
			c3.1,2.8,6,5.7,8.9,8.7c0.6,0.6,0.7,1.7,0.7,2.5C607.4,422.2,606.6,422.6,606.1,423z"/>
		<path d="M536.7,426.3c0,1.8-1.5,2.7-2.5,1.7c-3.3-3.2-6.4-6.6-9.5-10.1c-0.3-0.4,0.1-1.4,0.2-2.1c0.9,0.1,2-0.1,2.6,0.4
			c1.7,1.5,3.2,3.3,4.8,5c1.1,1.2,2.3,2.3,3.3,3.4C536.1,425.2,536.4,425.9,536.7,426.3z"/>
		<path d="M518.4,435.9c-0.4,1.1-0.9,2.4-1.3,3.7c-0.9,2.7-1.6,5.5-2.7,8.2c-0.3,0.7-1.5,1.1-2.2,1.6c-0.4-0.9-1.2-2-1-2.7
			c1-3.5,2.2-7,3.5-10.5c0.3-0.7,0.8-1.5,1.4-1.9C517.1,433.5,518.4,434.3,518.4,435.9z"/>
		<path d="M582.9,413.5c0.3,0.2,1,0.5,1.5,1c2.4,2.2,4.8,4.4,7.2,6.7c0.6,0.5,1.2,1.2,1.4,1.9c0.2,0.6,0,1.5-0.4,1.9
			c-0.4,0.3-1.5,0.4-1.9,0c-3.2-2.8-6.3-5.7-9.3-8.7C580.2,415.2,581,413.5,582.9,413.5z"/>
		<path d="M607.5,406c0.8,0.5,1.6,0.7,2.2,1.2c2.6,2,5.3,4,7.8,6.3c0.7,0.6,1.4,2.3,1,2.9c-0.8,1.5-2.1,0.7-3.2-0.2
			c-2.8-2.3-5.6-4.4-8.4-6.8c-0.5-0.5-0.8-1.5-0.8-2.2C606.2,406.8,607,406.4,607.5,406z"/>
		<path d="M616.2,401.3c0.7,0.3,1.2,0.5,1.6,0.7c2.9,1.6,5.7,3.1,8.5,4.8c0.7,0.4,1.6,1.4,1.6,2.1c0.1,1.4-1,2.2-2.2,1.5
			c-3.4-1.8-6.8-3.8-10.1-5.9c-0.5-0.3-0.8-1.4-0.7-2C614.9,402.1,615.7,401.7,616.2,401.3z"/>
		<path d="M621,426.2c0,1.5,0.2,3.1-0.1,4.5c-0.1,0.7-1.1,1.3-1.7,1.9c-0.6-0.7-1.6-1.3-1.6-2c-0.2-3-0.1-6.1,0.1-9.1
			c0-0.7,1.1-1.3,1.7-1.9c0.6,0.6,1.5,1.2,1.7,2c0.3,1.5,0.1,3,0.1,4.5C621.1,426.2,621.1,426.2,621,426.2z"/>
		<path d="M627.2,416c0.7-0.7,1.5-1.5,2.2-2.2c0.6,0.8,1.5,1.5,1.8,2.4c0.4,1.4,0.6,3,0.5,4.5c-0.1,0.9-0.9,1.7-1.4,2.6
			c-0.7-0.7-1.8-1.3-2-2.1c-0.5-1.5-0.4-3.1-0.6-4.7C627.5,416.3,627.4,416.1,627.2,416z"/>
		<path d="M135.6,386.5c-6.4-1.5-12.9-2.8-19.3-4.4c-2.5-0.6-3.7-2.5-3.1-5.2c1.6-7.5,3.3-15,5-22.5c0.5-2.1,1.2-4.2,1.7-6.3
			c0.4-1.5,1-1.9,2.7-1.7c5.2,0.6,9.4,3.1,13,6.6c3.1,3,5.9,6.3,8.9,9.4c1.7,1.8,1.9,3.9,1.2,6.1c-1.7,5.1-3.5,10.1-5.3,15.2
			c-0.8,2.2-2.6,2.3-4.6,2.2C135.6,386.1,135.6,386.3,135.6,386.5z M127.2,381.2c2.8,0.5,5.3,0.9,7.8,1.3c1.2,0.2,2.1-0.1,2.5-1.5
			c1.5-4.4,3.2-8.7,4.6-13.1c0.3-1,0.1-2.5-0.6-3.2c-3.3-3.6-6.7-7.1-10.1-10.6c-0.4-0.4-1-0.6-1.7-1
			C127.3,362.3,127.1,371.6,127.2,381.2z M123.1,350.3c-0.5,1.6-1,3.1-1.4,4.7c-1.7,7-3.4,14-4.9,21c-0.2,0.9,0.2,2.4,0.9,2.8
			c1.8,0.9,3.8,1.4,6.1,2.2c0-1.8,0-3.1,0-4.3c-0.2-7.8,0.5-15.5,2.1-23.1C126.5,350.7,126.4,350.6,123.1,350.3z"/>
		<path d="M280.4,284c2,0.3,4.2,0.2,6.1,1c5.8,2.2,7.5,9.3,3.2,14c-1.9,2.1-4.4,4-7.1,5.1c-3.9,1.6-8.1,2.4-12.2,3.3
			c-2.5,0.6-4.7-0.7-5.9-2.8c-2-3.5-3.9-7.2-5.3-10.9c-1.1-2.9-0.3-3.7,2.7-4.5c1.8-0.5,3.7-1,5.4-2
			C271.4,284.8,275.8,284.1,280.4,284z M262.6,292.6c1.1,4,2.8,7.4,5.3,10.4c0.5,0.6,1.5,0.9,2.3,0.9c5.4-0.1,10.1-2.1,14.5-4.9
			c1-0.6,1.9-1.6,2.5-2.5c2.7-3.7,0.9-8.1-3.7-8.5c-2.7-0.3-5.7-0.5-8.3,0.2C271.1,289.2,267.1,291,262.6,292.6z"/>
		<path d="M437.9,164.6c0,2.2,0.1,4.3,0,6.5c-0.1,2.5-1.2,3.2-3.6,2.6c-1-0.2-2-0.3-3.1-0.3c-4.5,0-8.9,0.1-13.4,0
			c-2.3,0-3.8-1.6-3.8-3.6c-0.1-4-1.4-7.9-0.3-12c0.3-1.3-0.3-3,1.3-3.7c2.1-0.8,4.3-1.7,6.6-1.8c3.7-0.2,7.5,0.2,11.2,0.4
			c2.8,0.1,3.8,0.7,4.2,3.6c0.4,2.8,0.5,5.6,0.7,8.4C437.8,164.6,437.8,164.6,437.9,164.6z M416.4,157.4c0.3,3.8,0.6,7,0.7,10.1
			c0.1,1.9,0.7,2.7,2.8,2.3c1.5-0.3,3.2,0,4.7,0c3.2,0,6.3,0,9.7,0c-0.3-4.2-0.5-8.3-0.9-12.3c-0.1-0.5-1.2-1.3-1.9-1.3
			c-2.9-0.2-5.9,0.1-8.8-0.2C420.2,155.6,417.9,156,416.4,157.4z"/>
		<path d="M885.4,444.7c0.5,0.9,1.5,2.2,2,3.7c2.2,5.6-1.5,10.5-7.4,9.7c-4.7-0.6-9.1-1.8-12.3-5.7c-2.2-2.8-2.1-6.5,0.2-9.2
			c2.2-2.6,7.8-4.6,11.9-2.6c0.7,0.3,1.4,0.6,2.5,1.1c-0.5-1-0.8-1.5-1-2c-1.4-2.7-1.8-5.6,0.1-7.9c1.9-2.3,5-2.9,8-2.1
			c3.8,1,7.1,2.9,9.6,6c1.7,2.1,2.4,4.4,1.2,6.9c-1.2,2.6-3.4,3.9-6.2,3.7C891.1,445.8,888.2,445.2,885.4,444.7z M879.4,454.6
			c4,0.2,5.3-0.8,5-3.4c-0.3-3.3-2.5-5.5-5.2-7c-2.6-1.5-5.2-1.1-7.7,0.5c-2.2,1.5-2.5,4-0.7,5.9
			C873.3,453.4,876.7,454.2,879.4,454.6z M893.1,443c1.3-0.5,2.8-0.8,3.7-1.7c0.5-0.5,0.4-2.3-0.1-3c-2-3.1-5.1-4.8-8.7-5.3
			c-1.2-0.2-3,0.4-3.6,1.3c-0.6,0.9-0.3,2.7,0.2,3.8C886.3,441.4,889.3,442.6,893.1,443z"/>
		<path d="M905.7,471.3c-5.6-0.4-11.7-2.8-15.9-8.8c-1.6-2.3-1.7-5.3-0.3-7.2c1.5-2,4.1-2.6,7-1.8c0.7,0.2,1.5,0.2,2.3,0.2
			c5.1-0.5,9.7,0.4,13.6,4c2.9,2.8,3.9,5.7,2.6,9C913.7,469.9,911.3,471.3,905.7,471.3z M907.1,467.9c2.1,0.1,3.8-0.4,4.6-2.6
			c0.8-2.1-0.2-3.5-1.6-4.9c-2.5-2.5-5.4-3.5-8.9-3.5c-1.9,0-3.8-0.1-5.7,0c-1.1,0.1-2.2,0.4-3.2,0.7c0.3,1.2,0.2,2.6,0.9,3.5
			C896.6,465.8,901.6,467.4,907.1,467.9z"/>
		<path d="M939.4,438.3c-0.1,4.8-2.8,7.5-7.5,6.6c-4-0.7-8.1-1.8-11.9-3.3c-4.4-1.8-5.8-5-4.4-8.8c0.5-1.3,1.7-2.9,2.8-3.2
			c2.6-0.6,5.5-0.9,8.2-0.6c2.6,0.3,5.1,1.2,7.6,2.2C937.5,432.5,939.5,435.4,939.4,438.3z M932.5,442c2.5-0.4,3.4-1.2,3.4-3.5
			c0-2.3-1.4-3.5-3.3-4.2c-3.7-1.4-7.5-2.9-11.6-1.5c-0.7,0.3-1.9,0.6-2,1.1c-0.2,0.9-0.1,2.1,0.4,2.9c0.5,0.8,1.5,1.5,2.4,1.9
			C925.3,439.8,928.9,440.9,932.5,442z"/>
		<path d="M906.6,434.4c-3.8,0.2-7.2-1.1-10.5-3c-1-0.6-1.9-1.2-2.6-2c-2.2-2.3-2.7-5.6-1.5-7.7c1.3-2.2,4.2-3.1,7.5-2.3
			c3.5,0.8,7.1,1.6,9.6,4.4c1.4,1.6,2.8,3.6,3.3,5.6c0.9,3.2-0.9,5-4.2,5C907.8,434.4,907.2,434.4,906.6,434.4z M909.8,430.7
			c-1.1-1.7-1.8-3.1-2.9-4.2c-2.6-2.7-6-3.5-9.6-3.7c-2.1-0.1-2.9,1-2,3c0.4,0.8,1,1.5,1.6,2C900.6,430.2,904.5,431.4,909.8,430.7z"
			/>
		<path d="M918.8,457.3c-5.2-0.1-9.4-2.1-12.9-5.9c-1.7-1.9-2.1-4.1-1.8-6.5c0.5-3.5,3.9-4.9,6.9-3c0.6,0.4,1.4,0.8,2.1,0.9
			c5.1,0.7,8.6,3.8,11.3,7.8c1.9,2.8,0.2,6.1-3.2,6.7C920.4,457.4,919.6,457.3,918.8,457.3z M907.9,445c-0.6,3.1,0,4.4,3.1,6.4
			c3.2,2,6.6,3.2,10.5,2C920,449,913.2,444.9,907.9,445z"/>
	</g>
</g>
</svg>
