<?xml version="1.0" encoding="utf-8"?>
<!-- Generator: Adobe Illustrator 24.0.1, SVG Export Plug-In . SVG Version: 6.00 Build 0)  -->
<svg version="1.1" xmlns="http://www.w3.org/2000/svg" xmlns:xlink="http://www.w3.org/1999/xlink" x="0px" y="0px"
	 viewBox="0 0 1000 365.3" style="enable-background:new 0 0 1000 365.3;" xml:space="preserve">
<style type="text/css">
	.st0{fill:#95D2EF;}
	.st1{fill:#1E1E1C;}
	.st2{fill:#1E1E1C;stroke:#1E1E1C;stroke-width:0.25;stroke-miterlimit:10;}
	.st3{fill:#1E1E1C;stroke:#1E1E1C;stroke-width:0.15;stroke-miterlimit:10;}
	.st4{fill:#FFFFFF;}
	.st5{stroke:#1E1E1C;stroke-miterlimit:10;}
	.st6{fill:none;stroke:#1E1E1C;stroke-width:3;stroke-linecap:round;stroke-linejoin:round;stroke-miterlimit:10;}
</style>
<g id="Calque_2">
</g>
<g id="Calque_1">
	<path d="M237.8,179.3c-1.9,5.2-4.5,10.6-3.6,16.3c1,6.7,6.8,10.3,13.1,11.4c3.1,0.5,6.5,0.3,8.9-1.9c2.4-2.2,3-5.5,3.3-8.5
		c0.8-6.5,0.3-13.8-4.6-18.6c-4.7-4.6-13-4.9-16.8,0.9c-1.3,2,1.9,3.9,3.2,1.9c2.4-3.7,7.8-3.1,10.7-0.4c4,3.7,4.5,9.3,4,14.4
		c-0.2,2.3-0.4,5.2-1.9,7.1c-1.5,1.9-4.1,1.9-6.2,1.5c-4.8-0.9-9.4-3.3-10-8.6c-0.6-4.9,1.9-9.9,3.6-14.4
		C242.3,178,238.6,177,237.8,179.3L237.8,179.3z"/>
	<path d="M304.5,164.9c-0.4,3.3-0.2,6.6,1.1,9.7c1.1,2.5,3,5,5,6.8c4.9,4.2,13.8,7.9,19.3,2.7c4.8-4.5,4.5-13,2.3-18.7
		c-2.4-6-7.4-11.2-14-12.1C311.3,152.4,304.4,157.7,304.5,164.9c0,2.4,3.8,2.4,3.8,0c0-2.3,0.8-4.2,2.5-5.7c1.5-1.3,3.5-2.2,5.5-2.2
		c5.3-0.1,9.7,4,11.9,8.5c2.1,4.3,2.7,10.4,0.2,14.6c-3.1,5.3-10.5,2-14.3-0.7c-2.1-1.5-4-3.8-5-6.1c-1.2-2.6-1.2-5.6-0.8-8.4
		c0.1-1-0.9-1.9-1.9-1.9C305.2,163,304.6,163.9,304.5,164.9L304.5,164.9z"/>
	<path d="M236.3,116.9c-5.2,1.4-11.2,3.1-13.6,8.4c-1.3,2.9-1.4,6.5,0.4,9.2c1.7,2.6,4.6,4,7.6,4.6c3.6,0.8,7.3,0.9,11,0.8
		c2.1,0,4.2-0.1,6.3-0.3c1.8-0.2,3.6-0.4,5.2-1.3c3-1.6,4.3-5.4,4.4-8.7c0.2-3.1-0.8-6.4-2.6-8.9c-2-2.7-4.7-4.6-8-4.8
		c-3.4-0.3-6.8,0.6-10.1,0.8c-2.4,0.1-2.4,3.9,0,3.8c2.7-0.1,5.3-0.6,7.9-0.8c1.9-0.1,3.7,0,5.3,1.2c3.6,2.8,5.4,9.4,2.4,13.2
		c-0.8,1-2.1,1.4-3.3,1.6c-1.6,0.3-3.3,0.3-5,0.4c-3.3,0.1-6.6,0.1-9.9-0.2c-2.2-0.2-4.8-0.7-6.6-2.1c-1.9-1.4-2.5-3.7-1.9-5.9
		c1.4-5,7.2-6.3,11.6-7.5C239.6,119.9,238.6,116.3,236.3,116.9L236.3,116.9z"/>
	<path d="M133.7,180.1c-0.7,3.5-1.3,7.1-0.9,10.6c0.3,3.1,1.3,6.2,3,8.8c3.1,4.8,9.1,8.9,15,6.9c6.1-2,7.1-9,6.3-14.5
		c-0.4-3.2-1.5-6.4-3-9.3c-1.4-2.8-3.4-5.7-6-7.5C143,171.7,135.8,174.5,133.7,180.1c-0.8,2.3,2.8,3.2,3.6,1
		c1.2-3.3,5.7-4.8,8.6-2.9c2,1.3,3.5,3.6,4.6,5.6c1.3,2.3,2.1,4.7,2.7,7.2c0.7,3.6,1.1,9.5-2.8,11.5c-4,2.1-8.8-1.2-11.1-4.5
		c-1.5-2.2-2.5-4.7-2.8-7.4c-0.4-3.2,0.2-6.5,0.8-9.6C137.8,178.8,134.2,177.8,133.7,180.1L133.7,180.1z"/>
	<path d="M182.5,187.3c-4-0.5-7.5-3.5-9.2-7.1c-0.8-1.7-1.2-3.8-0.9-5.7c0.4-2.2,2.3-2.7,4.3-2.9c4.6-0.3,9.3,0.9,13.2,3.4
		c1.9,1.2,3.8,2.7,5.1,4.5c1.1,1.5,2.2,3.5,1.7,5.4c-0.5,2.2-3.1,2.8-5.1,2.9c-3,0.2-6.1,0-9.1-0.2c-2.4-0.2-2.4,3.6,0,3.8
		c3.3,0.3,6.7,0.5,10,0.1c2.7-0.3,5.5-1.3,7-3.7c3.4-5.4-1.7-11.5-5.8-14.6c-4.8-3.6-10.9-5.6-16.9-5.2c-2.8,0.2-5.9,1-7.4,3.6
		c-1.3,2.4-1.1,5.7-0.4,8.2c1.8,6.1,7.1,10.6,13.4,11.3c1,0.1,1.9-0.9,1.9-1.9C184.4,188.1,183.6,187.4,182.5,187.3L182.5,187.3z"/>
	<path d="M190.2,142.3c-4.8,3.5-6.7,10.1-4,15.5c1.4,2.9,4.1,5.1,6.8,6.7c2.9,1.7,6.1,3.2,9.3,4c3.3,0.8,6.8,0.7,9.8-0.9
		c2.8-1.5,4.5-4.2,4.7-7.4c0.4-6-4.6-11.4-8.8-15.2c-2.1-1.9-4.5-3.6-7.4-4.2C197.1,140,193.5,140.9,190.2,142.3
		c-0.9,0.4-1.1,1.8-0.7,2.6c0.5,1,1.6,1.1,2.6,0.7c2.2-0.9,4.6-1.6,7-1.2c1.9,0.3,3.6,1.2,5.1,2.4c1.6,1.2,3,2.8,4.4,4.3
		c1.6,1.8,3.2,3.7,4,6.1c0.8,2.2,0.7,4.7-1.1,6.4c-1.7,1.6-4.3,2.1-6.5,1.8c-2.7-0.3-5.4-1.5-7.8-2.7c-2.2-1.1-4.4-2.3-6.1-4.2
		c-3.4-3.6-3.1-9.8,1-12.8c0.8-0.6,1.2-1.6,0.7-2.6C192.3,142.2,191,141.7,190.2,142.3L190.2,142.3z"/>
	<path d="M270.6,203.9c-1.5,2.3-1.8,5.1-0.8,7.6c1.1,2.7,3.2,4.7,5.4,6.4c4.4,3.3,11.3,5.1,16.5,2.8c4.5-2,5.8-7.5,4.5-11.9
		c-1.6-5.2-6.5-8.3-11.1-10.4c-3-1.3-6.2-2.7-9.4-0.9C273.3,198.8,271.8,201.5,270.6,203.9c-1.1,2.2,2.2,4.1,3.2,1.9
		c0.8-1.6,1.7-3.4,3.1-4.6c1.7-1.3,3.6-0.6,5.3,0.1c3.6,1.5,7.7,3.5,9.7,7c1.4,2.5,1.6,6.4-0.8,8.4c-1.5,1.2-3.8,1.3-5.6,1.2
		c-2.1-0.1-4.2-0.7-6.1-1.7c-2.1-1.1-4.2-2.7-5.5-4.8c-1.2-1.9-1.4-3.7-0.1-5.6C275.1,203.7,271.9,201.8,270.6,203.9L270.6,203.9z"
		/>
	<path d="M333,213.3c-0.8,2.3-2.3,4.3-3.3,6.6c-1.2,2.6-1.7,5.6-1.3,8.4c0.4,3,1.9,5.7,4.8,6.8c2.9,1,6.1,0.1,8.7-1.4
		c5.1-2.8,8.9-7.7,10.8-13.2c1.9-5.6,1.8-13.6-4.6-16.1c-6.4-2.6-12.1,3.4-14.8,8.5c-1.2,2.1,2.1,4,3.2,1.9c1.2-2.1,2.7-4.1,4.6-5.6
		c1.3-1,2.7-1.9,4.5-1.6c5.3,0.8,4.9,7.5,3.8,11.3c-1.3,4.3-4,8.2-7.7,10.7c-1.8,1.3-4.2,2.6-6.5,2.2c-2.2-0.3-3-2.5-3.1-4.5
		c-0.1-2.4,0.4-4.6,1.5-6.7c1.1-2.1,2.3-4,3.1-6.2C337.4,212,333.8,211,333,213.3L333,213.3z"/>
	<path d="M557.8,189c-6-1.9-13.5,0.8-15.5,7.1c-1.9,5.7,1.8,11.9,6.1,15.4c4.7,3.8,11.4,6.4,17.5,5.2c3.1-0.6,5.6-2.7,6.4-5.8
		c0.8-2.8,0.5-6-0.5-8.7C569.4,195.9,563.9,191.2,557.8,189c-2.3-0.8-3.2,2.8-1,3.6c4.2,1.5,8,4.5,10.3,8.4c1.1,1.9,1.8,4,1.9,6.2
		c0,2.1-0.4,4.5-2.5,5.4c-2,0.9-4.6,0.7-6.7,0.3c-2.4-0.5-4.7-1.4-6.8-2.7c-3.7-2.3-7.4-6.2-7.4-10.8c-0.1-5.7,6.5-8.3,11.3-6.8
		C559.1,193.3,560.1,189.7,557.8,189L557.8,189z"/>
	<path d="M589.8,195.3c-1.7,2.5-2.6,5.3-3.2,8.2c-0.6,2.8-0.8,5.6,0.2,8.3c1,2.8,3.1,5,6,5.8c3,0.9,6.3,0.2,9.1-1.2
		c4.9-2.5,8.4-7.4,9.7-12.7c1.2-4.8,1.2-12.8-4-15.4c-6.2-3.1-13.8,2-17.6,6.7c-0.6,0.8-0.8,1.9,0,2.7c0.7,0.7,2,0.8,2.7,0
		c2.7-3.3,7.3-7,11.8-6.4c4.3,0.5,4.3,7.1,3.7,10.3c-0.8,4-2.9,7.9-6.3,10.4c-3.4,2.5-9,3.9-11.4-0.6c-1.1-2.1-0.9-4.5-0.4-6.7
		c0.6-2.7,1.3-5,2.8-7.3C594.4,195.1,591.2,193.3,589.8,195.3L589.8,195.3z"/>
	<path d="M639.8,189.1c-2.6,0.5-5,1.5-6.9,3.3c-0.7,0.6-1.2,1.3-1.9,1.9c-1,0.9-2.2,1.7-2.3,3.2c-0.1,1.7,1.2,3.2,2.1,4.5
		c1,1.3,2,2.6,3.1,3.8c2.2,2.4,4.6,4.4,7.3,6.2c4.7,3.2,13.1,7.9,17.6,2c3.7-4.8,2.2-12.6-0.7-17.5
		C654.3,190.4,646.8,186.9,639.8,189.1c-2.3,0.7-1.3,4.3,1,3.6c4.7-1.5,9.9,0.4,13,4.2c2.8,3.5,4.2,9,2.8,13.3
		c-1.9,5.7-8.9,1.5-12.2-0.5c-4.2-2.6-8-6.1-10.8-10.2c-0.2-0.3-0.5-0.7-0.7-1c-0.1-0.2-0.4-1-0.5-0.5c0-0.3,0.8-0.7,1.1-0.9
		c0.6-0.5,1.2-1.2,1.7-1.7c1.6-1.6,3.4-2.3,5.6-2.7C643.1,192.3,642.1,188.6,639.8,189.1L639.8,189.1z"/>
	<path d="M702.1,189.7c-2.9-1.5-6.3-1.3-9.2,0.1c-3,1.5-5.1,4.2-6.9,6.9c-1.8,2.8-3.5,5.9-4.5,9.2c-0.8,2.9-1.3,6.8,0.9,9.2
		c2.3,2.6,6.2,1.4,9.1,0.8c3.2-0.7,6.3-1.7,9.2-3.3c4.9-2.7,9.7-7.4,8.3-13.4c-0.2-0.8-0.5-1.6-0.8-2.4c0.2,0.4-0.2-0.4-0.2-0.4
		c-0.2-0.4,0,0.3,0,0c0-0.7,0-1.4-0.2-2c-0.8-2.7-3.7-3.9-6.1-4.8c-0.9-0.4-2.1,0.4-2.3,1.3c-0.3,1.1,0.4,1.9,1.3,2.3
		c0.9,0.4,1.9,0.8,2.7,1.4c0.1,0.1,0.2,0.2,0.3,0.3c0,0,0.4,0.5,0.2,0.2c0.1,0.1,0.1,0.2,0.2,0.3c0.2,0.4-0.1-0.3,0,0.1
		c0,0.1,0.1,0.3,0.1,0.4c0,0,0-0.5,0-0.1c0,0.2,0,0.4,0,0.6c0,0.5,0.1,0.9,0.2,1.4c0.6,1.9,1.6,3.7,0.8,5.7c-0.7,1.9-2.5,3.4-4,4.6
		c-3.9,3-9.3,4.5-14.2,5.1c-0.8,0.1-1.7,0.1-2.1-0.7c-0.5-1-0.3-2.4-0.2-3.5c0.4-2.7,1.7-5.3,3-7.7c1.4-2.5,2.9-5,5.2-6.8
		c2-1.6,4.8-2.5,7.2-1.3C702.3,194,704.2,190.8,702.1,189.7L702.1,189.7z"/>
	<path d="M734.3,190.3c-2.4,1.3-4.7,3.1-5.9,5.6c-1.3,2.9-0.3,5.9,1.1,8.6c2.5,4.8,7,8.5,12.1,10.3c5,1.8,12.2,2.1,15.2-3.2
		c3-5.5-0.1-11.4-4.1-15.4c-4.5-4.6-11.5-8.8-18-6.1c-0.9,0.4-1.6,1.3-1.3,2.3c0.2,0.9,1.4,1.7,2.3,1.3c4.4-1.7,8.9,0.4,12.3,3.3
		c3.1,2.6,6.9,6.5,6.2,10.9c-0.8,4.8-6,4.8-9.8,3.9c-4-1-7.6-3.4-10.1-6.7c-1.3-1.7-3.1-4.6-2.8-6.8c0.4-2.2,2.8-3.8,4.6-4.8
		C738.3,192.4,736.4,189.1,734.3,190.3L734.3,190.3z"/>
	<path d="M791.2,188.4c-6.8,0.7-12.1,5.5-14.6,11.7c-2,5-3.8,14.4,2.7,16.9c3.1,1.2,6.5,0.1,9.3-1.4c3.1-1.6,5.9-3.7,8.4-6
		c4.6-4.3,8.9-10.7,6-17.1c-0.9-2-2.7-4.2-4.9-4.7c-0.9-0.2-1.8,0-2.7,0.1C794,188.2,792.6,188.3,791.2,188.4
		c-2.4,0.1-2.4,3.9,0,3.8c1.2-0.1,2.4-0.2,3.6-0.3c0.4-0.1,0.8-0.1,1.2-0.2c0.2,0,1.2-0.2,0.7-0.1c0.2,0,0.4,0,0.6,0
		c-0.3,0-0.1-0.1,0.1,0c-0.4-0.3,0.1,0.1,0.3,0.2c0.3,0.2,0.3,0.2,0.6,0.5c4.1,3.6,0.9,9.5-2,12.7c-1.9,2.1-4,3.9-6.3,5.4
		c-2.1,1.4-4.4,2.8-6.9,3.3c-6.1,1-4.6-7.2-3.5-10.6c1.6-5.3,5.8-10.3,11.7-10.9c1-0.1,1.9-0.8,1.9-1.9
		C793,189.3,792.2,188.3,791.2,188.4L791.2,188.4z"/>
	<path d="M818.4,194.2c-2.6,5.6-0.3,12.3,3.7,16.6c4.2,4.4,10.6,6.4,16.6,5.1c2.9-0.6,5.6-2.3,6.6-5.2c1-2.9,0.1-6.1-1.3-8.7
		c-2.7-5-6.6-10.1-12-12.3c-2.1-0.9-4.5-1.2-6.7-0.8C822.3,189.6,820.1,191.8,818.4,194.2c-1.4,2,1.9,3.9,3.2,1.9
		c1-1.5,2.4-3,4.2-3.5c1.3-0.3,2.4-0.2,3.5,0.1c4.2,1.1,7.2,4.6,9.6,8c2.1,3.2,5.6,9.2,0.2,11.2c-4.3,1.6-9.6,0.4-13-2.5
		c-3.5-2.9-6.6-8.8-4.5-13.3C822.7,194,819.4,192.1,818.4,194.2L818.4,194.2z"/>
	<path d="M877.8,188.3c-6.7-1.7-11.2,4.5-14.4,9.4c-3,4.7-4.2,11.7-0.7,16.5c3.7,5.2,10.8,3.9,15.3,0.5c4.4-3.3,7.4-8.2,8.2-13.6
		c0.4-3.1,0.3-6.5-1.6-9.1c-1.7-2.4-4.3-3.8-7.2-3.7c-2.4,0.1-2.4,3.9,0,3.8c1.6-0.1,3,0.5,4,1.9c1.3,1.7,1.4,3.9,1.3,6
		c-0.3,4-2.3,7.8-5.2,10.5c-2.5,2.4-7.6,5.4-10.9,2.6c-3.2-2.7-2.6-8.6-0.8-11.9c1.2-2.2,2.8-4.4,4.5-6.3c1.7-1.8,4-3.5,6.6-2.8
		C879.2,192.5,880.2,188.9,877.8,188.3L877.8,188.3z"/>
	<path d="M572,212.4c5,1,10.2,1,15.2-0.2c1-0.2,1.6-1.4,1.3-2.3c-0.3-1-1.3-1.5-2.3-1.3c-4.3,1-8.8,1.1-13.2,0.2
		c-1-0.2-2,0.3-2.3,1.3C570.5,211,571,212.2,572,212.4L572,212.4z"/>
	<path d="M612,196.5c3-0.4,5.9-0.1,8.8,0.6c3,0.7,6,1.2,9.1,1c2.4-0.1,2.4-3.9,0-3.8c-3,0.2-5.8-0.3-8.8-1c-3-0.7-6.1-0.9-9.2-0.6
		c-1,0.1-1.9,0.8-1.9,1.9C610.1,195.6,611,196.7,612,196.5L612,196.5z"/>
	<path d="M658.7,212.8c3.5,1.5,7.5,1.2,11.2,1.3c2,0,4,0.1,5.9,0.1c2,0,3.9,0,5.7-0.9c0.9-0.4,1.1-1.8,0.7-2.6
		c-0.6-0.9-1.6-1.1-2.6-0.7c-1.4,0.6-3.2,0.4-4.7,0.4c-1.8,0-3.7-0.1-5.5-0.1c-3.3-0.1-6.7,0.2-9.8-1.1c-0.9-0.4-2.1,0.4-2.3,1.3
		C657.1,211.5,657.8,212.4,658.7,212.8L658.7,212.8z"/>
	<path d="M709.5,196.7c6.2-2.1,12.7-0.5,18.8,1.1c2.3,0.6,3.3-3,1-3.6c-6.7-1.8-14-3.5-20.8-1.1
		C706.2,193.9,707.2,197.5,709.5,196.7L709.5,196.7z"/>
	<path d="M756.1,211.5c3.3,0.2,6.6,0.3,9.9,0.2c3.3-0.1,6.7-0.4,9.9-1.4c2.3-0.7,1.3-4.3-1-3.6c-3,0.9-6.1,1.2-9.2,1.3
		c-3.2,0.1-6.4,0-9.6-0.2c-1-0.1-1.9,0.9-1.9,1.9C754.2,210.7,755.1,211.4,756.1,211.5L756.1,211.5z"/>
	<path d="M802.4,196.5c5-1.2,10.2-1.2,15.2,0.2c2.3,0.6,3.3-3,1-3.6c-5.6-1.5-11.5-1.6-17.1-0.2C799,193.5,800,197.1,802.4,196.5
		L802.4,196.5z"/>
	<path d="M842.8,213.4c3.1,0.4,6.4-0.1,9.5-0.8c3.1-0.6,6.1-1.4,9-2.5c0.9-0.4,1.6-1.3,1.3-2.3c-0.2-0.9-1.4-1.7-2.3-1.3
		c-2.8,1.1-5.8,1.9-8.8,2.5c-2.8,0.6-5.8,1-8.7,0.7c-1-0.1-1.9,1-1.9,1.9C841,212.7,841.8,213.3,842.8,213.4L842.8,213.4z"/>
	<g>
		<path d="M209,257.4c-0.4-2.4-0.7-5-1.2-7.8c-0.6-3.6-0.6-3.7-0.6-3.8c-0.3-0.6-1.1-0.7-1.5-0.3c-0.1,0.1-0.4,0.3-1.4,2
			c-0.4,0.6-0.7,1-0.9,1.3c-0.2-0.2-0.4-0.6-0.8-1.1c-1.1-1.7-1.2-1.7-1.2-1.7c-0.4-0.5-0.8-0.6-1.1-0.6c-0.3,0-0.5,0.1-0.7,0.4
			c-0.1,0.1-0.1,0.3-0.2,0.9c-0.1,0.8-0.1,1.7-0.2,2.6c-0.7,6.5-1.1,10-1.1,10.6c0,0.5,0.3,0.7,0.4,0.8c0.3,0.2,0.6,0.2,0.9-0.1
			c0.3-0.1,0.4-0.5,0.5-1.6c0.1-0.8,0.3-3.5,0.8-8.1c0.1-1.2,0.2-2,0.3-2.6c0,0,0.1,0.1,0.1,0.1c0.5,0.7,0.9,1.3,1.1,1.7
			c0.5,0.8,0.8,1.1,1.1,1.1c0.4,0,0.6-0.3,0.7-0.4c0.1-0.1,0.4-0.5,0.8-1.1c0.4-0.5,0.7-1.1,1.1-1.6c0.2,1.3,0.6,3.8,1.1,7.2
			c0.7,5.1,0.9,5.3,1.1,5.5c0.2,0.2,0.4,0.3,0.6,0.3c0.1,0,0.2,0,0.3-0.1c0.3-0.1,0.5-0.4,0.5-0.8c0-0.1,0-0.4-0.1-0.9
			C209.3,259.2,209.2,258.5,209,257.4z"/>
		<path d="M218.9,247.9c-0.5-1.6-1.3-2.6-2.5-3.1c-0.3-0.1-0.8-0.2-1.4-0.2c-0.3,0-0.5,0-0.7,0h0c-0.7,0.1-1.3,0.4-1.9,0.9
			c-0.8,0.8-1.3,1.9-1.4,3.2c-0.1,0.8-0.1,1.7-0.1,2.9c0,0.4,0,0.6,0.1,0.7c0,0.1,0,0.4,0,1.2c0,1.2,0.1,2.3,0.4,3.4
			c0.2,0.8,0.5,1.5,0.8,1.9c0.3,0.5,0.7,0.9,1.2,1.2c0.5,0.3,1.1,0.5,1.8,0.5c0.9,0,1.7-0.3,2.3-0.9c0.7-0.7,1.3-1.7,1.5-2.9
			c0.2-1.1,0.3-2.3,0.3-3.8c0-1.4-0.1-2.5-0.1-3.1C219.3,249.3,219.1,248.6,218.9,247.9z M214.5,258.7c-0.4-0.2-0.7-0.6-0.9-1.2
			c-0.3-0.7-0.5-1.7-0.7-3c-0.1-0.8-0.1-1.8-0.1-3.1c0-1.4,0-2.4,0.1-2.9c0.2-1.3,0.8-2,1.7-2.2c0.2,0,0.3,0,0.4,0
			c0.5,0,0.9,0.2,1.3,0.5l0,0c0.4,0.4,0.7,1,1,1.8c0.2,0.9,0.4,1.9,0.4,3c0,0.8,0,1.1,0.1,1.3l0,0.1c0,1.2-0.1,2.3-0.3,3.3
			c-0.2,0.9-0.5,1.6-1,2.1c-0.3,0.3-0.7,0.4-1.2,0.4C214.8,258.8,214.6,258.8,214.5,258.7z"/>
		<path d="M228.1,246.1c-0.2-0.8-0.7-0.9-0.9-0.9c-0.1,0-0.5,0.1-0.7,0.5c-0.1,0.2-0.1,0.4-0.1,0.7c0.1,1,0.2,2.5,0.3,4.5l0.1,2.1
			c0.1,1,0.1,2,0.2,2.8c-0.5-1.2-1.2-2.8-2-4.8c-1.6-4.1-2.1-4.9-2.4-5.2c-0.3-0.3-0.6-0.4-0.8-0.4c-0.3,0-0.7,0.1-0.8,1.1v0.1
			c0,0.7,0.1,3.1,0.3,7c0.3,6,0.3,6.1,0.3,6.3c0.2,0.7,0.6,0.8,0.9,0.8c0.2,0,0.4-0.1,0.7-0.5c0.1-0.1,0.1-0.2,0.1-0.8
			c0-1.1-0.1-3.9-0.3-8.1c0-0.3,0-0.6,0-0.9c0.6,1.6,1.3,3.3,2.1,5.2c1,2.3,1.5,3.6,1.8,4c0.3,0.6,0.5,0.9,0.8,1
			c0.1,0,0.2,0.1,0.4,0.1c0.2,0,0.3,0,0.4-0.1c0.4-0.2,0.5-0.7,0.5-1.7c0-0.7,0-1.7-0.1-2.9C228.5,250,228.2,246.8,228.1,246.1z"/>
		<path d="M238.3,247.9c-0.5-1.6-1.3-2.6-2.5-3.1c-0.3-0.1-0.8-0.2-1.4-0.2c-0.3,0-0.5,0-0.7,0h0c-0.7,0.1-1.3,0.4-1.9,0.9
			c-0.8,0.8-1.3,1.9-1.4,3.2c-0.1,0.8-0.1,1.7-0.1,2.9c0,0.4,0,0.6,0.1,0.7c0,0.1,0,0.4,0,1.2c0,1.2,0.1,2.3,0.4,3.4
			c0.2,0.8,0.5,1.5,0.8,1.9c0.3,0.5,0.7,0.9,1.2,1.2c0.5,0.3,1.1,0.5,1.8,0.5c0.9,0,1.7-0.3,2.3-0.9c0.7-0.7,1.3-1.7,1.5-2.9
			c0.2-1.1,0.3-2.3,0.3-3.8c0-1.4-0.1-2.5-0.1-3.1C238.7,249.3,238.5,248.6,238.3,247.9z M233.9,258.7c-0.4-0.2-0.7-0.6-0.9-1.2
			c-0.3-0.7-0.5-1.7-0.7-3c-0.1-0.8-0.1-1.8-0.1-3.1c0-1.4,0-2.4,0.1-2.9c0.2-1.3,0.8-2,1.7-2.2c0.2,0,0.3,0,0.4,0
			c0.5,0,0.9,0.2,1.3,0.5l0,0c0.4,0.4,0.7,1,1,1.8c0.2,0.9,0.4,1.9,0.4,3c0,0.8,0,1.1,0.1,1.3l0,0.1c0,1.2-0.1,2.3-0.3,3.3
			c-0.2,0.9-0.5,1.6-1,2.1c-0.3,0.3-0.7,0.4-1.2,0.4C234.2,258.8,234,258.8,233.9,258.7z"/>
		<path d="M251.2,257.4c-0.4-2.4-0.7-5-1.2-7.8c-0.6-3.6-0.6-3.7-0.6-3.8c-0.3-0.6-1.1-0.7-1.5-0.3c-0.1,0.1-0.4,0.3-1.4,2
			c-0.4,0.6-0.7,1-0.9,1.3c-0.2-0.2-0.4-0.6-0.8-1.1c-1.1-1.7-1.2-1.7-1.2-1.7c-0.4-0.5-0.8-0.6-1.1-0.6c-0.3,0-0.5,0.1-0.7,0.4
			c-0.1,0.1-0.1,0.3-0.2,0.9c-0.1,0.8-0.1,1.7-0.2,2.6c-0.7,6.5-1.1,10-1.1,10.6c0,0.5,0.3,0.7,0.4,0.8c0.3,0.2,0.6,0.2,0.9-0.1
			c0.3-0.1,0.4-0.5,0.5-1.6c0.1-0.8,0.3-3.5,0.8-8.1c0.1-1.2,0.2-2,0.3-2.6c0,0,0.1,0.1,0.1,0.1c0.5,0.7,0.9,1.3,1.1,1.7
			c0.5,0.8,0.8,1.1,1.1,1.1c0.4,0,0.6-0.3,0.7-0.4c0.1-0.1,0.4-0.5,0.8-1.1c0.4-0.5,0.7-1.1,1.1-1.6c0.2,1.3,0.6,3.8,1.1,7.2
			c0.7,5.1,0.9,5.3,1.1,5.5c0.2,0.2,0.4,0.3,0.6,0.3c0.1,0,0.2,0,0.3-0.1c0.3-0.1,0.5-0.4,0.5-0.8c0-0.1,0-0.4-0.1-0.9
			C251.4,259.2,251.3,258.5,251.2,257.4z"/>
		<path d="M257.7,246.2c0.3-0.5,0.1-0.9-0.1-1.1c-0.2-0.2-0.5-0.3-1.3-0.3c-0.4,0-0.8,0-1.1,0h-0.4c-0.2,0-0.3,0-0.4,0
			c-0.2,0-0.4,0-0.6,0.1l-0.1,0c-0.1,0-0.2,0.1-0.3,0.1c-0.1,0.1-0.1,0.1-0.2,0.2l-0.1,0.1c0,0.1-0.1,0.2-0.1,2.2
			c0,2.1,0,4.6,0.1,7.6c0.1,4.5,0.2,4.7,0.2,4.8c0.1,0.3,0.4,0.5,0.7,0.6c0.1,0,0.4,0,1.5,0c0,0,0,0,0,0l1.7,0l0.1-0.3
			c0.2-0.3,0.3-0.6,0.2-0.8c-0.1-0.3-0.3-0.5-0.6-0.6c-0.1,0-0.4-0.1-1.2-0.1c-0.4,0-0.6,0-0.8,0c0-0.2,0-0.5-0.1-1.1
			c0-1-0.1-1.8-0.1-2.6c0-0.4,0-0.7,0-0.9l0-0.2c0.4,0,0.8-0.1,1-0.5c0.1-0.1,0.1-0.3,0.1-0.5c0-0.3-0.1-0.9-1.2-0.9
			c0-0.2,0-0.9-0.1-3.1l0-2.5c0.3,0,0.6,0,0.9,0C257.2,246.6,257.5,246.4,257.7,246.2z"/>
		<path d="M264.2,255.5c-0.4-0.8-0.8-1.3-1.2-1.5l-0.3-0.2c0.5-0.3,0.9-0.7,1.3-1.2c0.5-0.6,0.7-1.2,0.8-1.7c0-0.1,0-0.3,0-0.7
			c0-0.8-0.1-1.4-0.2-2c-0.2-0.9-0.7-1.8-1.4-2.6c-0.6-0.6-1.3-1.1-2-1.3c-0.4-0.1-0.7-0.2-1-0.2c-0.4,0-0.6,0.2-0.7,0.3l-0.1,0.1v0
			c-0.1,0.2-0.1,0.8-0.1,2.8c0,1.9,0,3.7-0.1,5.3c0,0.6,0,1.4,0,2.4c0,1.3,0,2.1,0,2.7c0,1.1,0.1,1.8,0.1,2.1
			c0.1,0.4,0.2,0.7,0.6,0.9c0.1,0,0.2,0.1,0.4,0.1c0.3,0,0.6-0.2,0.8-0.5c0.1-0.1,0.1-0.2,0.1-1c0-0.8,0-1.6,0-2.2
			c0-0.8,0-1.7,0-2.4c0.7,0.4,1.2,1.1,1.6,1.9c0.2,0.5,0.5,1.1,0.7,1.9c0.6,1.8,0.7,1.9,0.8,1.9c0.3,0.3,0.8,0.3,1.2,0
			c0.2-0.2,0.3-0.4,0.3-0.7c0-0.2-0.1-0.6-0.5-1.7C264.9,256.8,264.5,256,264.2,255.5z M262.1,252.1c-0.1,0-0.3,0.1-0.8,0.3
			c0,0-0.1,0-0.1,0v-0.2c0-2.4,0-4.2,0.1-5.6c0-0.1,0-0.2,0-0.3c1.3,0.7,1.9,2,1.9,3.7c0,0.5,0,0.7,0,0.7c0,0,0,0.2-0.3,0.6
			C262.4,251.9,262.2,252,262.1,252.1z"/>
		<path d="M272.3,251.8c0-0.1-0.2-0.2-1.3-1.3c-1.5-1.4-1.7-1.7-1.8-1.8c-0.1-0.2-0.1-0.4-0.1-0.6c0-0.5,0.2-0.9,0.5-1.3
			c0.2-0.2,0.6-0.5,1-0.6c0.4-0.2,0.5-0.2,0.6-0.3c0.1-0.1,0.3-0.3,0.3-0.6c0-0.4-0.3-0.8-0.9-0.8c-0.2,0-0.4,0-0.6,0.1
			c-0.7,0.2-1.3,0.6-1.9,1.2c-0.5,0.6-0.8,1.4-0.8,2.2c0,0.2,0,0.4,0,0.5c0.1,0.8,0.5,1.5,1.2,2.1c0.1,0.1,0.6,0.6,1.4,1.3
			c0.5,0.5,0.9,0.9,1,1.1c0.2,0.2,0.3,0.5,0.4,0.8c0.2,0.5,0.3,1.1,0.3,1.8c0,0.4,0,0.6-0.1,0.9c-0.1,0.5-0.4,1-0.8,1.4
			c-0.4,0.4-0.9,0.7-1.4,0.8c-1.4,0.3-1.6,0.4-1.7,0.5c-0.1,0.1-0.3,0.3-0.3,0.7c0,0.2,0,0.4,0.1,0.5c0.1,0.2,0.4,0.3,0.7,0.3
			c0.4,0,0.8-0.1,0.9-0.1c0.1,0,0.3-0.1,0.8-0.2c0.5-0.1,0.8-0.3,1-0.4c0.4-0.2,0.8-0.5,1.1-0.8c1-1,1.5-2.1,1.5-3.5
			C273.5,254.1,273.1,252.8,272.3,251.8z"/>
	</g>
	<g>
		<path d="M688.7,245.1c-1-0.7-1.8-1-2.5-1l-0.2,0c-0.2,0-0.7,0.2-0.8,0.8c0,0.1,0,0.2,0,0.8c0,0.9,0,2.1,0.1,3.6
			c0,0.9,0.1,2.7,0.1,5.6c0.1,4.6,0.1,4.8,0.1,4.9c0.1,0.3,0.1,0.5,0.3,0.6c0.2,0.2,0.5,0.3,0.6,0.3c0.3,0,0.6-0.1,0.8-0.4l0.2-0.2
			l-0.1-4.4c0-0.8,0-1.1,0-1.2c0.1,0,0.2-0.2,0.5-0.3c0.4-0.2,0.7-0.5,1.1-0.8c0.6-0.5,1.1-1,1.4-1.5c0.3-0.5,0.5-1.1,0.6-1.7
			c0-0.2,0.1-0.5,0.1-0.8c0-0.8-0.2-1.6-0.6-2.4C689.9,246.2,689.4,245.6,688.7,245.1z M689.1,249.5c0,0.2,0,0.4-0.1,0.6
			c-0.2,0.7-0.6,1.3-1.3,1.9c-0.2,0.2-0.4,0.3-0.5,0.4c0-0.5-0.1-1.3-0.1-2.6c0-0.4,0-1-0.1-1.8c0-0.8,0-1.3-0.1-1.5l0-0.3
			c1,0.5,1.7,1.2,2,2.1C689,248.6,689.1,249,689.1,249.5z"/>
		<path d="M700.4,247.9c-0.5-1.6-1.3-2.6-2.5-3.1c-0.3-0.1-0.8-0.2-1.4-0.2c-0.3,0-0.5,0-0.7,0h0c-0.7,0.1-1.3,0.4-1.9,0.9
			c-0.8,0.8-1.3,1.9-1.4,3.2c-0.1,0.8-0.1,1.7-0.1,2.9c0,0.4,0,0.6,0.1,0.7c0,0.1,0,0.4,0,1.2c0,1.2,0.1,2.3,0.4,3.4
			c0.2,0.8,0.5,1.5,0.8,1.9c0.3,0.5,0.7,0.9,1.2,1.2c0.5,0.3,1.1,0.5,1.8,0.5c0.9,0,1.7-0.3,2.3-0.9c0.7-0.7,1.3-1.7,1.5-2.9
			c0.2-1.1,0.3-2.3,0.3-3.8c0-1.4-0.1-2.5-0.1-3.1C700.7,249.3,700.6,248.6,700.4,247.9z M696,258.7c-0.4-0.2-0.7-0.6-0.9-1.2
			c-0.3-0.7-0.5-1.7-0.7-3c-0.1-0.8-0.1-1.8-0.1-3.1c0-1.4,0-2.4,0.1-2.9c0.2-1.3,0.8-2,1.7-2.2c0.2,0,0.3,0,0.4,0
			c0.5,0,0.9,0.2,1.3,0.5l0,0c0.4,0.4,0.7,1,1,1.8c0.2,0.9,0.4,1.9,0.4,3c0,0.8,0,1.1,0.1,1.3l0,0.1c0,1.2-0.1,2.3-0.3,3.3
			c-0.2,0.9-0.5,1.6-1,2.1c-0.3,0.3-0.7,0.4-1.2,0.4C696.3,258.8,696.1,258.8,696,258.7z"/>
		<path d="M704.6,258.9c-0.1,0-0.3,0-0.4,0c0-0.7-0.1-2.6-0.1-8c-0.1-4.9-0.1-4.9-0.1-5c-0.2-0.6-0.6-0.7-0.8-0.7
			c-0.2,0-0.4,0.1-0.5,0.2c-0.2,0.2-0.2,0.2-0.2,6.4c0,7.1,0.1,7.5,0.1,7.6c0.1,0.4,0.2,1,0.7,1.2c0.1,0.1,0.1,0.1,1.2,0.1
			c0.2,0,0.5,0,0.7,0c0.2,0,0.4,0,0.6-0.2c0.3-0.2,0.4-0.4,0.4-0.7c0-0.2,0-0.4-0.3-0.7C705.6,259,705.2,258.9,704.6,258.9z"/>
		<path d="M713.7,245.1L713.7,245.1c-0.1,0.1-0.2,0.2-0.5,1c-0.2,0.5-0.4,1-0.6,1.5c-0.2,0.5-0.3,0.8-0.3,0.9
			c-0.2,0.6-0.2,0.7-0.2,0.7c0,0.1-0.1,0.2-0.1,0.3c-0.4-0.5-0.8-1.2-1.1-1.6c-1.5-2.1-1.5-2.1-1.6-2.2c-0.5-0.5-1-0.4-1.3,0
			c-0.1,0.2-0.2,0.4-0.2,0.6c0,0.2,0,0.3,1.9,3.1c1,1.5,1.4,2,1.5,2.2c0,0.2,0.1,1.1,0.1,4.3c0.1,4.4,0.1,4.4,0.1,4.6
			c0.1,0.2,0.2,0.4,0.3,0.5c0.1,0.1,0.3,0.2,0.5,0.2c0,0,0.1,0,0.1,0c0.4,0,0.5-0.2,0.6-0.3c0.2-0.2,0.2-0.5,0.2-0.8
			c0-0.1,0-0.2,0-0.4c0-0.2,0-0.4,0-0.7c0-0.3,0-0.6,0-0.9c0-0.4,0-1.8-0.1-4.3l-0.1-1.8l0.3-0.7c0.1-0.3,0.2-0.5,0.3-0.7
			c0.1-0.1,0.1-0.3,0.2-0.5c0.1-0.2,0.1-0.4,0.2-0.6c1.1-2.7,1.2-3.3,1.2-3.6C715.2,244.7,714.3,244.5,713.7,245.1z"/>
		<path d="M727.5,257.4c-0.4-2.4-0.7-5-1.2-7.8c-0.6-3.6-0.6-3.7-0.6-3.8c-0.3-0.6-1.1-0.7-1.5-0.3c-0.1,0.1-0.4,0.3-1.4,2
			c-0.4,0.6-0.7,1-0.9,1.3c-0.2-0.2-0.4-0.6-0.8-1.1c-1.1-1.7-1.2-1.7-1.2-1.7c-0.4-0.5-0.8-0.6-1.1-0.6c-0.3,0-0.5,0.1-0.7,0.4
			c-0.1,0.1-0.1,0.3-0.2,0.9c-0.1,0.8-0.1,1.7-0.2,2.6c-0.7,6.5-1.1,10-1.1,10.6c0,0.5,0.3,0.7,0.4,0.8c0.3,0.2,0.6,0.2,0.9-0.1
			c0.3-0.1,0.4-0.5,0.5-1.6c0.1-0.8,0.3-3.5,0.8-8.1c0.1-1.2,0.2-2,0.3-2.6c0,0,0.1,0.1,0.1,0.1c0.5,0.7,0.9,1.3,1.1,1.7
			c0.5,0.8,0.8,1.1,1.1,1.1c0.4,0,0.6-0.3,0.7-0.4c0.1-0.1,0.4-0.5,0.8-1.1c0.4-0.5,0.7-1.1,1.1-1.6c0.2,1.3,0.6,3.8,1.1,7.2
			c0.7,5.1,0.9,5.3,1.1,5.5c0.2,0.2,0.4,0.3,0.6,0.3c0.1,0,0.2,0,0.3-0.1c0.3-0.1,0.5-0.4,0.5-0.8c0-0.1,0-0.4-0.1-0.9
			C727.8,259.2,727.7,258.5,727.5,257.4z"/>
		<path d="M734,246.2c0.3-0.5,0.1-0.9-0.1-1.1c-0.2-0.2-0.5-0.3-1.3-0.3c-0.4,0-0.8,0-1.1,0h-0.4c-0.2,0-0.3,0-0.4,0
			c-0.2,0-0.4,0-0.6,0.1l-0.1,0c-0.1,0-0.2,0.1-0.3,0.1c-0.1,0.1-0.1,0.1-0.2,0.2l-0.1,0.1c0,0.1-0.1,0.2-0.1,2.2
			c0,2.1,0,4.6,0.1,7.6c0.1,4.5,0.2,4.7,0.2,4.8c0.1,0.3,0.4,0.5,0.7,0.6c0.1,0,0.4,0,1.5,0c0,0,0,0,0,0l1.7,0l0.1-0.3
			c0.2-0.3,0.3-0.6,0.2-0.8c-0.1-0.3-0.3-0.5-0.6-0.6c-0.1,0-0.4-0.1-1.2-0.1c-0.4,0-0.6,0-0.8,0c0-0.2,0-0.5-0.1-1.1
			c0-1-0.1-1.8-0.1-2.6c0-0.4,0-0.7,0-0.9l0-0.2c0.4,0,0.8-0.1,1-0.5c0.1-0.1,0.1-0.3,0.1-0.5c0-0.3-0.1-0.9-1.2-0.9
			c0-0.2,0-0.9-0.1-3.1l0-2.5c0.3,0,0.6,0,0.9,0C733.6,246.6,733.9,246.4,734,246.2z"/>
		<path d="M741.6,258c-0.4-1.2-0.8-2-1.1-2.6c-0.4-0.8-0.8-1.3-1.2-1.5l-0.3-0.2c0.5-0.3,0.9-0.7,1.3-1.2c0.5-0.6,0.7-1.2,0.8-1.7
			c0-0.1,0-0.3,0-0.7c0-0.8-0.1-1.4-0.2-2c-0.2-0.9-0.7-1.8-1.4-2.6c-0.6-0.6-1.3-1.1-2-1.3c-0.4-0.1-0.7-0.2-1-0.2
			c-0.4,0-0.6,0.2-0.7,0.3l-0.1,0.1v0c-0.1,0.2-0.1,0.8-0.1,2.8c0,1.9,0,3.7-0.1,5.3c0,0.6,0,1.4,0,2.4c0,1.3,0,2.1,0,2.7
			c0,1.1,0.1,1.8,0.1,2.1c0.1,0.4,0.2,0.7,0.6,0.9c0.1,0,0.2,0.1,0.4,0.1c0.3,0,0.6-0.2,0.8-0.5c0.1-0.1,0.1-0.2,0.1-1
			c0-0.8,0-1.6,0-2.2c0-0.8,0-1.7,0-2.4c0.7,0.4,1.2,1.1,1.6,1.9c0.2,0.5,0.5,1.1,0.7,1.9c0.6,1.8,0.7,1.9,0.8,1.9
			c0.3,0.3,0.8,0.3,1.2,0c0.2-0.2,0.3-0.4,0.3-0.7C742.1,259.5,742,259.1,741.6,258z M738.5,252.1c-0.1,0-0.3,0.1-0.8,0.3
			c0,0-0.1,0-0.1,0v-0.2c0-2.4,0-4.2,0.1-5.6c0-0.1,0-0.2,0-0.3c1.3,0.7,1.9,2,1.9,3.7c0,0.5,0,0.7,0,0.7c0,0,0,0.2-0.3,0.6
			C738.7,251.9,738.5,252,738.5,252.1z"/>
	</g>
	<g>
		<path d="M392.6,147.5c-1-0.7-1.8-1-2.5-1l-0.2,0c-0.2,0-0.7,0.2-0.8,0.8c0,0.1,0,0.2,0,0.8c0,0.9,0,2.1,0.1,3.6
			c0,0.9,0.1,2.7,0.1,5.6c0.1,4.6,0.1,4.8,0.1,4.9c0.1,0.3,0.1,0.5,0.3,0.6c0.2,0.2,0.5,0.3,0.6,0.3c0.3,0,0.6-0.1,0.8-0.4l0.2-0.2
			l-0.1-4.4c0-0.8,0-1.1,0-1.2c0.1,0,0.2-0.2,0.5-0.3c0.4-0.2,0.7-0.5,1.1-0.8c0.6-0.5,1.1-1,1.4-1.5c0.3-0.5,0.5-1.1,0.6-1.7
			c0-0.2,0.1-0.5,0.1-0.8c0-0.8-0.2-1.6-0.6-2.4C393.8,148.6,393.3,148,392.6,147.5z M392.9,151.9c0,0.2,0,0.4-0.1,0.6
			c-0.2,0.7-0.6,1.3-1.3,1.9c-0.2,0.2-0.4,0.3-0.5,0.4c0-0.5-0.1-1.3-0.1-2.6c0-0.4,0-1-0.1-1.8c0-0.8,0-1.3-0.1-1.5l0-0.3
			c1,0.5,1.7,1.2,2,2.1C392.9,151,392.9,151.4,392.9,151.9z"/>
		<path d="M404.2,150.3c-0.5-1.6-1.3-2.6-2.5-3.1c-0.3-0.1-0.8-0.2-1.4-0.2c-0.3,0-0.5,0-0.7,0h0c-0.7,0.1-1.3,0.4-1.9,0.9
			c-0.8,0.8-1.3,1.9-1.4,3.2c-0.1,0.8-0.1,1.7-0.1,2.9c0,0.4,0,0.6,0.1,0.7c0,0.1,0,0.4,0,1.2c0,1.2,0.1,2.3,0.4,3.4
			c0.2,0.8,0.5,1.5,0.8,1.9c0.3,0.5,0.7,0.9,1.2,1.2c0.5,0.3,1.1,0.5,1.8,0.5c0.9,0,1.7-0.3,2.3-0.9c0.7-0.7,1.3-1.7,1.5-2.9
			c0.2-1.1,0.3-2.3,0.3-3.8c0-1.4-0.1-2.5-0.1-3.1C404.6,151.7,404.5,151,404.2,150.3z M403.1,155.4c0,1.2-0.1,2.3-0.3,3.3
			c-0.2,0.9-0.5,1.6-1,2.1c-0.3,0.3-0.7,0.4-1.2,0.4c-0.4,0-0.6-0.1-0.7-0.1c-0.4-0.2-0.7-0.6-0.9-1.2c-0.3-0.7-0.5-1.7-0.7-3
			c-0.1-0.8-0.1-1.8-0.1-3.1c0-1.4,0-2.4,0.1-2.9c0.2-1.3,0.8-2,1.7-2.2c0.2,0,0.3,0,0.4,0c0.5,0,0.9,0.2,1.3,0.5l0,0
			c0.4,0.4,0.7,1,1,1.8c0.2,0.9,0.4,1.9,0.4,3C403,154.9,403,155.2,403.1,155.4L403.1,155.4z"/>
		<path d="M408.5,161.3c-0.1,0-0.3,0-0.4,0c0-0.7-0.1-2.6-0.1-8c-0.1-4.9-0.1-4.9-0.1-5c-0.2-0.6-0.6-0.7-0.8-0.7
			c-0.2,0-0.4,0.1-0.5,0.2c-0.2,0.2-0.2,0.2-0.2,6.4c0,7.1,0.1,7.5,0.1,7.6c0.1,0.4,0.2,1,0.7,1.2c0.1,0.1,0.1,0.1,1.2,0.1
			c0.2,0,0.5,0,0.7,0c0.2,0,0.4,0,0.6-0.2c0.3-0.2,0.4-0.4,0.4-0.7c0-0.2,0-0.4-0.3-0.7C409.5,161.4,409.1,161.3,408.5,161.3z"/>
		<path d="M417.6,147.4L417.6,147.4c-0.1,0.1-0.2,0.2-0.5,1c-0.2,0.5-0.4,1-0.6,1.5c-0.2,0.5-0.3,0.8-0.3,0.9
			c-0.2,0.6-0.2,0.7-0.2,0.7c0,0.1-0.1,0.2-0.1,0.3c-0.4-0.5-0.8-1.2-1.1-1.6c-1.5-2.1-1.5-2.1-1.6-2.2c-0.5-0.5-1-0.4-1.3,0
			c-0.1,0.2-0.2,0.4-0.2,0.6c0,0.2,0,0.3,1.9,3.1c1,1.5,1.4,2,1.5,2.2c0,0.2,0.1,1.1,0.1,4.3c0.1,4.4,0.1,4.4,0.1,4.6
			c0.1,0.2,0.2,0.4,0.3,0.5c0.1,0.1,0.3,0.2,0.5,0.2c0,0,0.1,0,0.1,0c0.4,0,0.5-0.2,0.6-0.3c0.2-0.2,0.2-0.5,0.2-0.8
			c0-0.1,0-0.2,0-0.4c0-0.2,0-0.4,0-0.7c0-0.3,0-0.6,0-0.9c0-0.4,0-1.8-0.1-4.3l-0.1-1.8l0.3-0.7c0.1-0.3,0.2-0.5,0.3-0.7
			c0.1-0.1,0.1-0.3,0.2-0.5c0.1-0.2,0.1-0.4,0.2-0.6c1.1-2.7,1.2-3.3,1.2-3.6C419.1,147.1,418.2,146.9,417.6,147.4z"/>
		<path d="M431.4,159.8c-0.4-2.4-0.7-5-1.2-7.8c-0.6-3.6-0.6-3.7-0.6-3.8c-0.3-0.6-1.1-0.7-1.5-0.3c-0.1,0.1-0.4,0.3-1.4,2
			c-0.4,0.6-0.7,1-0.9,1.3c-0.2-0.2-0.4-0.6-0.8-1.1c-1.1-1.7-1.2-1.7-1.2-1.7c-0.4-0.5-0.8-0.6-1.1-0.6c-0.3,0-0.5,0.1-0.7,0.4
			c-0.1,0.1-0.1,0.3-0.2,0.9c-0.1,0.8-0.1,1.7-0.2,2.6c-0.7,6.5-1.1,10-1.1,10.6c0,0.5,0.3,0.7,0.4,0.8c0.3,0.2,0.6,0.2,0.9-0.1
			c0.3-0.1,0.4-0.5,0.5-1.6c0.1-0.8,0.3-3.5,0.8-8.1c0.1-1.2,0.2-2,0.3-2.6c0,0,0.1,0.1,0.1,0.1c0.5,0.7,0.9,1.3,1.1,1.7
			c0.5,0.8,0.8,1.1,1.1,1.1c0.4,0,0.6-0.3,0.7-0.4c0.1-0.1,0.4-0.5,0.8-1.1c0.4-0.5,0.7-1.1,1.1-1.6c0.2,1.3,0.6,3.8,1.1,7.2
			c0.7,5.1,0.9,5.3,1.1,5.5c0.2,0.2,0.4,0.3,0.6,0.3c0.1,0,0.2,0,0.3-0.1c0.3-0.1,0.5-0.4,0.5-0.8c0-0.1,0-0.4-0.1-0.9
			C431.7,161.6,431.6,160.9,431.4,159.8z"/>
		<path d="M437.9,148.5c0.3-0.5,0.1-0.9-0.1-1.1c-0.2-0.2-0.5-0.3-1.3-0.3c-0.4,0-0.8,0-1.1,0h-0.4c-0.2,0-0.3,0-0.4,0
			c-0.2,0-0.4,0-0.6,0.1l-0.1,0c-0.1,0-0.2,0.1-0.3,0.1c-0.1,0.1-0.1,0.1-0.2,0.2l-0.1,0.1c0,0.1-0.1,0.2-0.1,2.2
			c0,2.1,0,4.6,0.1,7.6c0.1,4.5,0.2,4.7,0.2,4.8c0.1,0.3,0.4,0.5,0.7,0.6c0.1,0,0.4,0,1.5,0c0,0,0,0,0,0l1.7,0l0.1-0.3
			c0.2-0.3,0.3-0.6,0.2-0.8c-0.1-0.3-0.3-0.5-0.6-0.6c-0.1,0-0.4-0.1-1.2-0.1c-0.4,0-0.6,0-0.8,0c0-0.2,0-0.5-0.1-1.1
			c0-1-0.1-1.8-0.1-2.6c0-0.4,0-0.7,0-0.9l0-0.2c0.4,0,0.8-0.1,1-0.5c0.1-0.1,0.1-0.3,0.1-0.5c0-0.3-0.1-0.9-1.2-0.9
			c0-0.2,0-0.9-0.1-3.1l0-2.5c0.3,0,0.6,0,0.9,0C437.4,148.9,437.8,148.8,437.9,148.5z"/>
		<path d="M444.5,157.9c-0.4-0.8-0.8-1.3-1.2-1.5l-0.3-0.2c0.5-0.3,0.9-0.7,1.3-1.2c0.5-0.6,0.7-1.2,0.8-1.7c0-0.1,0-0.3,0-0.7
			c0-0.8-0.1-1.4-0.2-2c-0.2-0.9-0.7-1.8-1.4-2.6c-0.6-0.6-1.3-1.1-2-1.3c-0.4-0.1-0.7-0.2-1-0.2c-0.4,0-0.6,0.2-0.7,0.3l-0.1,0.1v0
			c-0.1,0.2-0.1,0.8-0.1,2.8c0,1.9,0,3.7-0.1,5.3c0,0.6,0,1.4,0,2.4c0,1.3,0,2.1,0,2.7c0,1.1,0.1,1.8,0.1,2.1
			c0.1,0.4,0.2,0.7,0.6,0.9c0.1,0,0.2,0.1,0.4,0.1c0.3,0,0.6-0.2,0.8-0.5c0.1-0.1,0.1-0.2,0.1-1c0-0.8,0-1.6,0-2.2
			c0-0.8,0-1.7,0-2.4c0.7,0.4,1.2,1.1,1.6,1.9c0.2,0.5,0.5,1.1,0.7,1.9c0.6,1.8,0.7,1.9,0.8,1.9c0.3,0.3,0.8,0.3,1.2,0
			c0.2-0.2,0.3-0.4,0.3-0.7c0-0.2-0.1-0.6-0.5-1.7C445.1,159.2,444.8,158.4,444.5,157.9z M442.4,154.4c-0.1,0-0.3,0.1-0.8,0.3
			c0,0-0.1,0-0.1,0v-0.2c0-2.4,0-4.2,0.1-5.6c0-0.1,0-0.2,0-0.3c1.3,0.7,1.9,2,1.9,3.7c0,0.5,0,0.7,0,0.7c0,0,0,0.2-0.3,0.6
			C442.6,154.3,442.4,154.4,442.4,154.4z"/>
		<path d="M449.4,154.5c0-2.5-0.1-4-0.1-4.7l0-1.4l-0.3-0.3c-0.2-0.2-0.4-0.3-0.6-0.3c-0.9,0-0.9,1.2-0.9,1.6l0,0.3
			c0,0.2,0,1.2,0.1,5.2c0.1,7.1,0.2,7.4,0.3,7.6c0.1,0.2,0.2,0.4,0.4,0.5c0.1,0.1,0.3,0.1,0.4,0.1c0.1,0,0.3,0,0.4-0.1
			c0.2-0.1,0.4-0.3,0.4-0.5c0-0.1,0.1-0.3,0.1-0.8c0,0,0-0.7,0-2.1C449.5,158.7,449.5,156.9,449.4,154.5z"/>
		<path d="M458.4,161.2l-1.2,0.1c-1.1,0.1-2.4,0.1-4,0.1c0.2-0.6,0.8-2,2.1-4.9c0.8-1.7,1.5-3.5,2.2-5.4c0.8-2.1,0.9-2.6,0.9-2.8
			c0-0.1,0-0.2-0.1-0.5c-0.2-0.3-0.6-0.5-1.5-0.5c-0.4,0-0.8,0-1.1,0c-1.4,0.1-2.3,0.1-2.7,0.2c-0.4,0-0.8,0.1-1,0.4
			c-0.2,0.3-0.2,0.7,0,1c0.2,0.3,0.7,0.3,1,0.3c0.5,0,1.2,0,2.1-0.1c0.2,0,0.4,0,0.6,0l0.5,0c0,0,0,0,0,0c-0.1,0.5-0.5,1.3-1.2,3.1
			c-0.7,1.7-1.6,3.9-2.7,6.5c-1.3,3-1.3,3.2-1.4,3.4c0,0.2,0,0.5,0.3,0.8c0.3,0.3,0.7,0.4,1.4,0.4c0.3,0,0.6,0,0.8,0
			c0.1,0,1.1,0,2.8-0.1l1.9-0.1l0.3-0.3c0.2-0.2,0.3-0.5,0.3-0.6c0-0.2-0.1-0.4-0.4-0.8L458.4,161.2z"/>
		<path d="M466.5,152.3c-1-3.9-1.2-4.1-1.4-4.2c-0.2-0.2-0.6-0.3-1.3,0.1c-0.3,0.2-0.6,0.5-0.7,0.9c0,0.1-0.2,0.9-1.2,5.9
			c-0.8,3.8-1.2,5.9-1.3,6.6c-0.1,0.5-0.1,0.7-0.1,0.8c0,0.1,0,0.3,0.1,0.4c0.2,0.4,0.6,0.4,0.7,0.4c0.3,0,0.6-0.2,0.7-0.5
			c0-0.1,0.1-0.2,0.5-2c0.2-1.1,0.5-2.2,0.7-3.3c0.1-0.6,0.2-1,0.2-1.3c0,0,0.1,0,0.1,0c1.5,0,1.9,0,1.9,0c0,0,0.1,0.2,0.3,0.9
			c1.3,5.2,1.5,5.7,1.6,5.9c0.1,0.3,0.3,0.5,0.6,0.6c0.1,0,0.2,0,0.2,0c0.1,0,0.3,0,0.4-0.1c0.3-0.2,0.4-0.4,0.4-0.7
			c0-0.1,0-0.4-0.6-2.8C467.7,156.6,467,154.1,466.5,152.3z M464.5,151.4c0,0.1,0,0.1,0,0.2c0.1,0.4,0.2,0.8,0.4,1.4
			c0.2,0.6,0.3,1,0.3,1.1c0,0.1,0.1,0.2,0.1,0.3c-0.2,0-0.4,0-0.6,0l-0.7,0c0.1-0.3,0.2-1,0.4-2.1
			C464.4,151.9,464.4,151.6,464.5,151.4z"/>
		<path d="M476.8,147.6c-0.5,0-1,0-1.5,0c-3.5,0.1-3.8,0.2-3.9,0.2c-0.4,0.1-0.6,0.4-0.6,0.8c0,0.3,0.2,0.6,0.5,0.7
			c0.2,0.1,0.4,0.2,1.6,0.2h0.7l0,4.2c0,2.1,0,4.2,0,6.4c0,2.4,0.1,2.5,0.2,2.7c0.2,0.2,0.4,0.4,0.7,0.4c0.1,0,0.5,0,0.6-0.2
			c0.2-0.2,0.2-0.2,0.2-7.2c0-3.9,0-5.6,0-6.3l0.1,0c0.4,0,0.8,0,1.2-0.1c0.7,0,0.7-0.1,0.9-0.1c0.4-0.2,0.5-0.4,0.6-0.6
			c0.1-0.3,0-0.6-0.2-0.8C477.6,147.7,477.3,147.6,476.8,147.6z"/>
		<path d="M481.5,154.5c0-2.5-0.1-4-0.1-4.7l0-1.4l-0.3-0.3c-0.2-0.2-0.4-0.3-0.6-0.3c-0.9,0-0.9,1.2-0.9,1.6l0,0.3
			c0,0.2,0,1.2,0.1,5.2c0.1,7.1,0.2,7.4,0.3,7.6c0.1,0.2,0.2,0.4,0.4,0.5c0.1,0.1,0.3,0.1,0.4,0.1c0.1,0,0.3,0,0.4-0.1
			c0.2-0.1,0.4-0.3,0.4-0.5c0-0.1,0.1-0.3,0.1-0.8c0,0,0-0.7,0-2.1C481.6,158.7,481.6,156.9,481.5,154.5z"/>
		<path d="M491.1,150.3c-0.5-1.6-1.3-2.6-2.5-3.1c-0.3-0.1-0.8-0.2-1.4-0.2c-0.3,0-0.5,0-0.7,0h0c-0.7,0.1-1.3,0.4-1.9,0.9
			c-0.8,0.8-1.3,1.9-1.4,3.2c-0.1,0.8-0.1,1.7-0.1,2.9c0,0.4,0,0.6,0.1,0.7c0,0.1,0,0.4,0,1.2c0,1.2,0.1,2.3,0.4,3.4
			c0.2,0.8,0.5,1.5,0.8,1.9c0.3,0.5,0.7,0.9,1.2,1.2c0.5,0.3,1.1,0.5,1.8,0.5c0.9,0,1.7-0.3,2.3-0.9c0.7-0.7,1.3-1.7,1.5-2.9
			c0.2-1.1,0.3-2.3,0.3-3.8c0-1.4-0.1-2.5-0.1-3.1C491.5,151.7,491.3,151,491.1,150.3z M489.9,155.4c0,1.2-0.1,2.3-0.3,3.3
			c-0.2,0.9-0.5,1.6-1,2.1c-0.3,0.3-0.7,0.4-1.2,0.4c-0.4,0-0.6-0.1-0.7-0.1c-0.4-0.2-0.7-0.6-0.9-1.2c-0.3-0.7-0.5-1.7-0.7-3
			c-0.1-0.8-0.1-1.8-0.1-3.1c0-1.4,0-2.4,0.1-2.9c0.2-1.3,0.8-2,1.7-2.2c0.2,0,0.3,0,0.4,0c0.5,0,0.9,0.2,1.3,0.5l0,0
			c0.4,0.4,0.7,1,1,1.8c0.2,0.9,0.4,1.9,0.4,3C489.9,154.9,489.9,155.2,489.9,155.4L489.9,155.4z"/>
		<path d="M501,158.4c-0.3-6-0.5-9.2-0.7-9.9c-0.2-0.8-0.7-0.9-0.9-0.9c-0.1,0-0.5,0.1-0.7,0.5c-0.1,0.2-0.1,0.4-0.1,0.7
			c0.1,1,0.2,2.5,0.3,4.5l0.1,2.1c0.1,1,0.1,2,0.2,2.8c-0.5-1.2-1.2-2.8-2-4.8c-1.6-4.1-2.1-4.9-2.4-5.2c-0.3-0.3-0.6-0.4-0.8-0.4
			c-0.3,0-0.7,0.1-0.8,1.1v0.1c0,0.7,0.1,3.1,0.3,7c0.3,6,0.3,6.1,0.3,6.3c0.2,0.7,0.6,0.8,0.9,0.8c0.2,0,0.4-0.1,0.7-0.5
			c0.1-0.1,0.1-0.2,0.1-0.8c0-1.1-0.1-3.9-0.3-8.1c0-0.3,0-0.6,0-0.9c0.6,1.6,1.3,3.3,2.1,5.2c1,2.3,1.5,3.6,1.8,4
			c0.3,0.6,0.5,0.9,0.8,1c0.1,0,0.2,0.1,0.4,0.1c0.2,0,0.3,0,0.4-0.1c0.4-0.2,0.5-0.7,0.5-1.7C501.1,160.5,501,159.6,501,158.4z"/>
	</g>
	<path d="M494.7,195.4c-0.3-1.1-1.3-1.5-2.3-1.9c-2.3-1-4.5-1.9-6.8-2.9c-0.7-0.3-1.6-0.1-1.8,0.7c-0.1,0.5-0.2,1-0.3,1.6
		c0,0,0,0,0,0c-0.3-0.1-0.7-0.1-1-0.2c-2.7-0.5-5.4-0.7-8.2-0.9c-6.3-0.4-12.6-0.3-19,0c-12.9,0.7-25.7,2.3-38.4,4.2
		c-5,0.8-10,1.6-14.9,2.6c-1.6,0.3-0.9,2.7,0.7,2.4c9.6-1.8,19.2-3.3,28.9-4.5c12.4-1.5,25-2.7,37.5-2.4c3.1,0.1,6.2,0.2,9.3,0.6
		c0.7,0.1,2.5,0.2,4.3,0.5c0,0.6,0,1.3,0,1.9c0.1,1,0.1,2.1,0.5,3c0.4,1.2,1.5,1.7,2.8,1.5c1-0.2,1.9-0.7,2.8-1.1c1-0.4,2-0.8,3-1.2
		c0.8-0.3,1.6-0.8,2.2-1.5C494.6,197.3,495,196.3,494.7,195.4z M485.7,199.6C485.7,199.6,485.7,199.5,485.7,199.6
		C485.7,199.5,485.7,199.5,485.7,199.6z"/>
</g>
</svg>
