<?xml version="1.0" encoding="utf-8"?>
<!-- Generator: Adobe Illustrator 24.0.1, SVG Export Plug-In . SVG Version: 6.00 Build 0)  -->
<svg version="1.1" xmlns="http://www.w3.org/2000/svg" xmlns:xlink="http://www.w3.org/1999/xlink" x="0px" y="0px"
	 viewBox="0 0 1000 550.2" style="enable-background:new 0 0 1000 550.2;" xml:space="preserve">
<style type="text/css">
	.st0{fill:#FFE87B;}
	.st1{fill:#1E1E1C;}
	.st2{fill:#1E1E1C;stroke:#1E1E1C;stroke-width:0.25;stroke-miterlimit:10;}
	.st3{fill:#1E1E1C;stroke:#1E1E1C;stroke-width:0.15;stroke-miterlimit:10;}
	.st4{fill:#FFFFFF;}
	.st5{stroke:#1E1E1C;stroke-miterlimit:10;}
	.st6{fill:none;stroke:#1E1E1C;stroke-width:3;stroke-linecap:round;stroke-linejoin:round;stroke-miterlimit:10;}
	.st7{stroke:#000000;stroke-width:1.5;stroke-miterlimit:10;}
</style>
<g id="Calque_2">
</g>
<g id="Calque_1">
	<path d="M295.5,320.5c0.2-4.4,0.2-8.6,0.6-12.8c0.7-6,1.6-11.9,4.2-17.4c1.1-2.3,2.7-3.8,4.9-4.5c1.5-0.5,3-0.9,4.7-1.4
		c0-1.6,0-3.2,0-4.8c0.1-2.1,0.7-3,2.7-3.4c3.6-0.7,7.2-0.3,10.6,1c1.4,0.5,2.2,1.7,2.1,3.2c-0.1,2,0.6,3.4,1.7,5
		c2.5,3.5,4.3,7.3,4.7,11.7c0,0.5,0.2,0.9,0.3,1.2c3.5,0.6,6.8,1.3,10.2,1.9c1.7,0.3,3.5,0.4,5.2,0.5c0.5,0,1.1-0.2,1.4-0.5
		c1-1.2,2.4-1.6,3.8-1.8c6-0.9,12.1-1.4,18.2-0.6c1.1,0.1,2.2,0.4,3.3,0.7c1.8,0.7,2.3,1.8,1.7,3.6c-0.3,1-0.7,2-1.1,3.1
		c3.1,0.7,6.1,1.4,9.2,2c5.6,1.2,6.8,3.1,5.5,8.6c-0.4,1.7-1.1,3.3-1.6,5c-0.1,0.3,0.2,0.8,0.4,1.6c0.5-0.8,0.8-1.2,1.1-1.7
		c0.8-1.2,1.6-2.4,2.5-3.5c2.3-2.8,5.1-3.5,8.8-3.1c3.9,0.5,7.8,0.3,11.7,0.2c2.2,0,4.3-0.2,6.5-0.4c4.1-0.4,8.1,0.6,12.1,1.3
		c3,0.6,4.4,2.4,4.5,5.6c0.1,2.6,0.2,5.1,0.4,7.7c0.3,3.5-0.8,6.3-3.5,8.5c-2.6,2.2-5.1,4.6-7.8,6.8c-6.4,5.3-12.8,10.6-19.2,15.8
		c-1.4,1.2-3,1.7-4.7,1.1c-2.5-0.9-4.9-1.9-7.3-3.1c-4.7-2.2-9.3-4.5-14.4-7c-0.3,0.5-0.5,1-0.9,1.4c-1.9,2-3.8,3.9-5.7,5.9
		c-2.1,2.2-4.1,4.4-6.2,6.7c-0.8,0.9-1.6,1.8-2.4,2.6c-1.5,1.5-3.1,3-4.6,4.6c-2.2,2.3-3.4,2.6-6.1,1.1c-5-2.8-10.1-5.6-15-8.5
		c-2.7-1.6-2.9-2.7-1.6-5.6c1.3-2.9,3-5.4,4.9-7.9c1.4-1.8,2.6-3.8,4-5.9c-2-1.6-1-3.8-1.5-6c-2.7-0.5-5.5-0.5-8.4,0.4
		c-0.2,1.9-0.3,3.7-0.5,5.5c-0.4,4.5-3.3,7-7.6,6.8c-4.3-0.2-8.6-0.4-12.9-0.5c-2.3-0.1-4.6,0-7.1,0c-0.6,2.8-1.2,5.3-1.6,7.9
		c-0.4,2.7-1.9,4.1-4.5,4.5c-4.8,0.7-9.6,1.6-14.5,1.9c-7.3,0.4-14.5,0.4-21.8,0.6c-3.1,0.1-3.9-0.5-4.7-3.6
		c-0.5-1.7-0.9-3.4-1.1-5.2c-0.9-8.5-1.7-17-2.7-25.5c-0.1-1.1-0.5-2.3-1-3.4c-1.3-2.6-1.2-5.1,0.7-6.6c0.9-0.7,2.3-1.2,3.5-1.3
		c7.5-0.4,15-0.7,22.5-0.3C286.6,320.7,291,320.5,295.5,320.5z M299.6,321.1c1.1,0,1.9,0,2.7,0c0.8,0,1.6,0,2.4,0
		c1.8,0.1,2.8,0.9,3.1,2.7c0.2,1.1,0.1,2.2,0.1,3.3c0,0.6-0.2,1.3-0.1,1.9c0.7,4.7,0.9,9.4,0.4,14.1c-0.1,1.3,0,2.7,0,4.2
		c1,0,1.9,0,2.8,0c1.8,0.1,3.7,0.2,5.5,0.2c3.7,0.1,7.5,0.3,11.2,0.4c2.3,0,3.3-0.7,3.5-3.1c0.3-2.9,0.4-5.8,0.3-8.6
		c-0.5-7.9-1.1-15.8-1.8-23.7c-0.4-5.2-1.1-10.3-1.6-15.5c-0.4-3.4-1.9-6.2-3.6-9.1c-0.6-1.1-1.4-1.7-2.7-1.5
		c-3.9,0.6-7.9,1-11.8,1.8c-5.7,1.2-5.3,1.2-7.4,6.8c-1.8,4.9-2.4,10.1-2.8,15.3C299.4,313.9,299.6,317.4,299.6,321.1z M264.3,362.2
		c4.5,0,8.9,0,13.3,0c7.4-0.1,14.7-0.9,21.9-2.1c2.2-0.4,2.2-0.4,2.7-2.7c1.2-5.6,2.2-11.3,2.3-17.1c0.1-3.4,0-6.8-0.8-10.7
		c-14.4,2.6-28.9,0.9-43.2,1.5C260.3,336.7,263,359,264.3,362.2z M344.7,353.3c2.6,0.3,5.3,0.5,7.8,1c4.3,0.9,6.7,3.7,7.6,8
		c0.2,0.8,0.3,1.5,0.5,2.5c1-1,1.8-1.7,2.5-2.5c2.1-2.3,4.1-4.7,6.4-6.9c5.4-5.2,10.1-10.9,14.3-17c1.1-1.6,2.2-3.3,3.4-4.9
		c1.7-2.4,1.6-3.6,0.2-6.1c-2.9-5.1-7.8-7.9-12.5-10.9c-2.5-1.6-4.1-1.3-6.1,1c-1.8,2-3.5,4-5.1,6.1c-4.5,5.8-9,11.6-12.2,18.3
		c-1,2.1-2.3,4-3.5,6C346.9,349.7,345.8,351.5,344.7,353.3z M387.1,340.4c3.1,1.7,6.1,3.3,9,4.9c2.8,1.5,5.3,1.1,7.6-1.1
		c4.6-4.5,9.2-8.9,14.4-12.6c3.7-2.6,7.1-5.5,10-8.9c0.9-1,1.6-2.1,2.3-3.1c-0.3-0.3-0.4-0.5-0.5-0.6c-3.9-0.7-7.8-1.5-11.9-1.2
		c-6.5,0.5-12.9,1-19.4,0c-1.2-0.2-2.2,0.2-3.1,1c-1.7,1.5-2.8,3.5-3.8,5.5c-0.5,1-0.6,1.8-0.2,2.9c1.3,2.9,0.9,5.7-1.1,8.3
		C389.3,337.1,388.2,338.8,387.1,340.4z M343.7,335.1c0-1.1,0-1.9,0-2.7c-0.2-4.4-0.4-8.8-0.6-13.1c-0.1-1.8,0.4-3.1,2-4
		c0.3-0.2,0.6-0.5,0.8-0.6c0.6-2.7-1.2-6,2.6-7.4c0-0.9-0.1-1.7-0.1-2.6c-2.7-0.4-5.3-0.7-7.9-1.1c-2.5-0.3-5-1.7-7.9-1
		c0.5,5.5,0.9,10.9,1.4,16.2c0.5,5.4,0.5,10.9,1.3,16.2C338.2,335.1,340.8,335.1,343.7,335.1z M381.8,347.7
		c4.7,2.3,9.1,4.5,13.6,6.7c1.7,0.8,3.5,1.6,5.2,2.4c0.9,0.4,1.7,0.4,2.5-0.3c2.4-2.1,4.9-4,7.4-6.1c2.5-2.1,4.9-4.3,7.4-6.4
		c4.1-3.4,8.2-6.8,12.3-10.3c0.8-0.7,1.5-1.8,1.6-2.8c0.2-1.8-0.1-3.7-0.2-6.1c-0.9,0.8-1.3,1.2-1.8,1.6c-2.5,2.3-4.9,4.8-7.7,6.8
		c-5.9,4.4-11.4,9.2-16.6,14.4c-0.9,0.9-2.1,1.5-3.2,1.9c-2.8,0.8-5.5,0.8-8.1-0.9c-1.2-0.8-2.5-1.4-3.7-2.2
		c-1.9-1.1-3.9-1.8-6.1-2.3C383.6,345.3,382.8,346.4,381.8,347.7z M347.9,339.3c0.2,0.1,0.3,0.1,0.5,0.2c0.4-0.7,0.8-1.3,1.1-2
		c1-1.7,1.8-3.4,2.9-5c2.9-4,5.9-8,8.8-12c0.4-0.6,0.8-1.2,1.3-2c-3.7-0.6-13.9-0.4-15.7,0.3C347.2,325.6,347.6,332.4,347.9,339.3z
		 M304.1,325.1c-3.2-0.2-6.3-0.4-9.4-0.5c-9.8-0.4-19.7-0.7-29.5-0.4c-1.8,0.1-3.5,0.1-5.3,0.4c-0.5,0.1-1.1,0.8-1.2,1.2
		c0,0.5,0.5,1.1,1,1.4c0.4,0.3,1.1,0.2,1.6,0.2c2.4,0,4.8,0,7.2,0c11.3,0,22.7,0.7,34-1C303.2,326.1,304,326.3,304.1,325.1z
		 M371.8,301.7c-6.8-1.1-13.1-0.7-19.4,0.6c0,1.6,0,3,0,4.3c6.1,0,12,0,18.1,0C371,305,371.4,303.5,371.8,301.7z M371.1,310.9
		c-7.2-1.4-14.1-0.5-21.1,0c0,1.2,0,2.2,0,3.4c0.6,0,1.1,0.1,1.5,0.1c4.5,0.1,9.1,0.2,13.6,0.3c0.4,0,0.9-0.2,1.3-0.4
		C367.9,313.3,369.3,312.2,371.1,310.9z M375,311.9c3.4,2.2,6.5,4.3,10,6.5c0.4-2,0.8-3.6,1.2-5.2c0.2-1-0.2-1.7-1.3-1.9
		c-3.2-0.7-6.5-1.4-9.9-2.2C375,310.2,375,311.1,375,311.9z M356.1,369.5c-0.1-0.3,0-0.6-0.1-0.8c-4-4.3-9-7-14.4-9.1
		c-1.2-0.5-1.5,0.4-1.6,1.7c5.1,2.7,10.1,5.5,15.2,8.3C355.3,369.7,355.7,369.5,356.1,369.5z M321.3,280.5c-2.5-0.6-4.9-1.1-7.3-0.6
		c0,1.3,0,2.4,0,3.6c2.6-0.3,5-0.6,7.5-1c0-0.5,0-0.9,0-1.3C321.6,281.1,321.4,280.8,321.3,280.5z M356.2,363.3c0.1-4-4-6.2-9.2-5.7
		C350.1,359.5,353,361.4,356.2,363.3z"/>
	<g>
		<path d="M643.9,106.4c0.7,0.2,1.7,0.5,2.8,0.8c1,0.3,1.9,0.5,2.7-0.3c3.1-3.4,7.5-4.4,11.4-6.4c1-0.5,1.9-1.1,2.9-1.6
			c1.1-0.6,2.3-1.1,3.5-1.6c2.3-0.9,4.6-1.8,6.9-2.6c1.2-0.4,2.4-0.7,3.7-0.9c0.9-0.1,1.7,0.4,1.9,1.5c0.1,1-0.3,1.7-1.3,2.1
			c-3.4,1.2-6.7,2.4-10.1,3.6c-0.6,0.2-1.3,0.3-1.8,0.7c-3.1,2.2-6.7,3.4-10,5c-1.6,0.7-3,1.8-4.3,3c-2,1.8-4.2,2.3-6.6,1.2
			c-2.2-1-4-0.4-5.7,1.1c-0.8,0.7-1.4,1.5-2.1,2.3c-0.7,0.8-1.5,1.2-2.5,0.5c-0.9-0.6-1.1-1.7-0.4-2.8
			C636.7,108.8,639.4,106.6,643.9,106.4z"/>
		<g>
			<path d="M671.4,391.1c-2.2-0.5-4.4-0.9-6.5-1.4c-4-1-7-3.3-9.7-6.3c-1.2-1.4-1.8-3.1-1.9-4.8c-0.3-3.5,0.2-6.8,2.3-9.8
				c2.2-3.2,4.4-6.5,6.5-9.7c-1.3-1.4-2.9-2.4-3.4-3.8c-0.6-1.4-0.1-3.3-0.1-5.2c-2-0.8-4.4-1.7-6.9-2.6c-0.3,0.7-0.6,1.2-0.8,1.8
				c-0.9,2.6-1.9,5.1-2.6,7.7c-0.7,2.5-2.4,4.1-4.6,5.3c-2,1.1-4.1,2.2-6.1,3.3c-1.2,0.7-2.4,1.3-3.4,2.2
				c-4.3,3.7-8.5,7.5-12.9,11.1c-2.8,2.3-5.8,4.4-8.8,6.6c-0.5,0.4-1.4,0.3-2,0.5c-6.7,2.1-13.6,1.3-20.5,1c-6-0.2-12-0.4-18-0.6
				c-1.2,0-2.4-0.3-3.6-0.4c-3.1-0.3-5-2.1-5.9-4.9c-1.2-3.8-2.3-7.7-3.4-11.5c-0.2-0.8-0.4-1.7-0.6-2.6c-1.1,0.2-2.2,0.5-3.2,0.7
				c-2.3,0.3-4.5-0.3-6.3-1.9c-1.8-1.6-3.9-2.2-6.1-2.3c-4.4-0.2-8-2-11.4-4.5c-4.1-3-5.9-7.2-6.3-12.1c-0.2-2.9,0.2-5.7,1-8.5
				c1.2-4.1,2.5-8.3,4.8-12c1-1.7,2.3-3.3,3.4-4.9c1-1.4,2-2.7,2.9-4.1c1.1-1.7,1.2-3.6,0.4-5.3c-2-4.4-0.9-8.5,1.3-12.3
				c1.1-1.9,2.7-3.6,4-5.3c0.8-1.1,1.6-2.3,2.6-3.7c-1.6-0.8-2.9-1.4-4.2-2c-0.9-0.4-1.8-0.8-2.6-1.3c-2.1-1.3-4.2-2.7-6.1-4.2
				c-1-0.8-1.9-1.9-2.6-3.1c-0.9-1.5-0.4-3.1,0.8-4.4c1.7-1.8,3.6-3.2,6-4.3c2.2-1,4-2.6,6.1-3.9c0.9-0.5,1.8-1.1,2.8-1.3
				c2.5-0.6,4.4,0.5,5.2,3c0.3,1.1,0.4,2.3,0.7,4.1c0.5-1.3,1-2.1,1.2-2.9c0.7-3.3,1.5-6.6,1.8-9.9c0.6-6.6,0.8-13.2,1.3-19.9
				c0.2-2.3,0.4-4.6,0.8-6.9c0.8-4.3,2.3-5.4,6.6-4.8c0.3,0,0.6,0.1,1.2,0.2c0.4-2.9,0.7-5.7,1.2-8.5c0.8-4.8,1.6-9.6,2.6-14.4
				c0.9-4.2,3.5-7,7.6-8.5c1.9-0.7,3.6-1.7,5.4-2.6c-0.2-2.4-0.4-4.6-0.6-6.8c-0.1-1.5-0.9-2.5-2-3.4c-1.5-1.4-2.3-3.1-2-5.1
				c0.1-0.7,0.4-1.4,0.8-1.9c1.4-1.3,2.8-2.6,4.3-3.8c0.2-0.2,0.5-0.4,0.8-0.6c2.8-1.8,4.5-1.6,6.9,1.4c0.1-0.4,0.3-0.6,0.2-0.9
				c-0.7-8,0.2-15.8,1.3-23.7c0.3-2.5,0.6-4.9,1-7.4c0.4-2.8,1.3-5.4,2.9-7.8c0.3-0.5,0.4-1.3,0.4-2c-0.2-1.7-0.5-3.3-0.7-5
				c-0.2-1.7,0.4-2.8,2-3.4c1.5-0.6,3-1.2,4.5-1.4c2.7-0.4,5.4-0.8,8.1-0.9c2.5-0.1,3.8,0.9,4.6,3.4c0.5,1.4,0.8,2.9,1.2,4.5
				c1.6-1.2,3.1-2.3,4.5-3.3c0.3-3.7,0.6-7.3,0.7-10.9c0-1.3-0.2-2.7-0.7-4c-1.1-2.8-2.4-5.6-3.6-8.4c-0.2-0.4-0.4-0.9-0.5-1.3
				c-0.2-0.9-0.1-1.8,0.7-2.4c0.9-0.6,1.6-0.3,2.4,0.2c1,0.7,2.1,1.3,3.3,2.1c0.7-0.8,1.2-1.4,1.7-2c1.3-1.8,3.1-2.8,5.2-3
				c3-0.3,5.7-1.4,8.3-2.9c4.9-3,10.2-5.3,15.7-7.2c3.8-1.4,7.7-2.5,11.6-3.8c0.6-0.2,1.3-0.3,1.8-0.7c5-3.1,10.7-4.1,16.2-5.9
				c1.1-0.4,2.2-0.6,3.3-0.7c2.4-0.3,3.5,0.8,3.4,3.2c0,1-0.3,2-0.5,3.1c-0.3,1.3-0.3,2.4,0.7,3.5c1.2,1.2,1.4,3,1,4.5
				c-0.4,1.7,0.1,3,0.8,4.3c0.4,0.8,0.8,1.5,1.4,2.6c0.6-1.1,1.1-2,1.6-2.8c2.5-4.4,5.5-5.7,10.4-4.6c0.4,0.1,0.8,0.2,1.2,0.2
				c3.5,0.7,4.2,0.4,6-2.7c1.4-2.3,3-4.4,5-6.3c2-1.9,4.1-3.9,4.4-6.9c0.1-1.1,0.6-2,1.8-2.3c1.3-0.3,2.1,0.5,2.8,1.4
				c0.6,0.8,1.1,1.6,1.6,2.4c0.9,1.6,2.2,2.4,4,2.8c5.7,1.3,11.3,2.6,17,4c0.5,0.1,0.9,0.2,1.4,0.4c5.3,2.2,10.9,3.1,16.3,4.5
				c0.1,0,0.2,0,0.2,0.1c5.5,1.5,7.4,4.6,5.8,10c-0.9,3.1,0.4,5.2,2.5,7.1c1,0.9,2,1.8,3.2,2.7c1.4-0.6,3-1.3,4.7-2
				c1-0.4,1.9-0.8,2.9-1.1c3-0.9,4.8-0.1,5.8,2.9c1,3.1,2.7,5.2,5.7,6.6c3.2,1.5,6.2,3.4,9.6,4.3c0.2,0,0.3,0.1,0.5,0.1
				c4.9,1.4,7.7,4.5,8.9,9.6c2.2,9.2,4.8,18.4,7.5,27.5c1.1,3.7,2.7,7.2,4,10.8c1.2,3.5,2.2,7,3.2,10.5c1.3,4.5,2.6,9.1,3.8,13.6
				c0.3,1.2,0.9,2,2.1,2.6c3.8,2,5.8,5.1,5.5,9.5c-0.1,1-0.2,2.1-0.3,3.1c-0.5,2.6-0.5,5,0.4,7.7c1.4,4,1,8-1.9,11.5
				c-0.6,0.7-1,1.6-1.6,2.7c1.2,0.1,2,0.1,2.8,0.1c2.5,0,4.9,0.6,7.2,1.6c3.9,1.7,5.6,5.1,5.9,9c0.3,3.1,0,6.4-0.5,9.5
				c-0.3,1.9-1.5,3.7-2.4,5.4c-0.6,1.1-1.5,2.1-2.3,3.2c0.7,1.3,1.9,2,3.1,2.6c2.9,1.5,5.8,3,8.8,4.4c4.3,2,8.6,3.9,12.9,5.8
				c1.2,0.5,2.3,1.1,3.4,1.8c0.7,0.5,1.4,1.1,1.8,1.9c2.6,4.1,1.9,12.2-1.5,15.7c-1.8,1.8-3.8,3.4-5.7,5.1c-1.3,1.2-2.6,2.4-3.7,3.7
				c-0.4,0.5-0.6,1.2-1,2c2.1,0.2,4.4-0.3,4.7,2.2c1.4,0.5,2.6,1,3.8,1.2c1,0.1,2-0.1,3-0.5c3.2-1.3,6.4-2.1,9.8-1.8
				c1,0.1,2.1,0.2,3,0.6c2.4,1,3.9,2.8,3.9,5.5c0,1.8,0.1,3.7-0.1,5.5c-0.1,1.7,0.5,2.8,1.9,3.5c4.5,2.2,6.3,6.1,6.9,10.8
				c0.1,0.5,0.3,0.9,0.4,1.3c0,1.1,0,2.2,0,3.4c-0.9,2.9-2.8,5-5,6.9c-3.5,3-6.9,6.2-11,8.5c-1.1,0.6-1.5,1.4-1.5,2.7
				c0.1,3-0.5,3.9-3.4,4.4c-1.6,0.3-3.2,0.5-4.7,0.7c0.3,2.4,0.9,4.7,0.9,6.9c0,2-0.6,4.1-1,6.1c-0.1,0.4-0.4,1-0.7,1.2
				c-1.8,1.1-3.6,2.5-5.6,3.1c-1.9,0.6-3.5,1.5-5.1,2.5c-0.7,0.5-1.5,1-2.2,1.4c-4,2.2-8.1,4.5-12.2,6.7c-2.6,1.3-5.4,2.5-8.1,3.6
				c-0.9,0.3-1.9,0.4-2.8,0.4c-5.2-0.1-9.1-2.7-12-6.9c-1.1-1.6-2-3.2-3.1-5c-4.5,3.8-9.9,5.2-15.2,7c-2.8,1-6,1-8.6,2.8
				c-0.5,0.4-1.7,0.1-2.4-0.2c-0.7-0.4-1.4-1.1-1.9-1.8c-0.8-1.2-1.9-2-3.2-2.4c-2.1-0.6-3.4-2-4-4.1c-0.4-1.3-1-2.3-2.1-3.1
				c-1.1-0.8-1.8-2.1-1.9-3.5c-0.1-2.1-1.1-3.6-2.7-4.8c-1.5-1-2.2-2.5-2-4.4c0.1-0.9,0-2,0.4-2.8c0.9-2.2,2-4.2,3-6.5
				c-4.1-0.4-8.4-1.3-12.9-1.5c0.6,1.4,1,2.5,1.4,3.6c0.9,2.1,0.9,4.3,0.7,6.6c-0.3,3.1-1.9,5.5-3.6,8c-2.2,3.1-5.1,4.8-8.9,4.9
				c-1.2,0.1-2.4,0.1-3.6,0.5c-2.6,0.8-5.3,1.5-7.7,2.6c-3.6,1.6-7.2,1.8-11,1.7c-1.6,0-3.2-0.3-4.6-1.2c-1.6-1-3.4-1.4-5.3-1.3
				c-1.2,0.1-2.4,0-3.6,0c-2.7,0.1-4.8-0.7-6.4-3c-1.4-1.9-3.4-2.7-5.7-2.6c-1.6,0.1-3.2,0.4-4.6,1c-4.3,2-8.6,3.9-12.7,6.3
				c-4.1,2.4-8.1,5.1-12,7.9c-4,3-8,5.7-13,7C672.3,391.1,671.8,391.1,671.4,391.1z M742.7,373.1c1.5-0.2,3.1-0.1,4.5-0.5
				c3-0.9,5.9-1.9,8.9-3c2-0.8,4.1-1.3,6.3-1.3c1.7,0,3.4-0.5,4.6-1.7c2.4-2.3,4.3-4.9,4.6-8.4c0.3-3-0.9-5.6-2.4-8.1
				c-0.7-1.3-1.6-2.6-2.3-3.9c-2.4-5.2-4.3-10.6-6.9-15.8c-1.1-2.1-2.6-3.5-5.1-3.7c-3.8-0.3-7.7-0.7-11.2-2.2
				c-2.8-1.1-5.4-1.1-8.1,0.3c-1.3,0.7-2.8,1.3-4.1,1.9c-4.2,1.8-8.4,3.4-12.8,4.6c-5.4,1.5-11,2.5-16.2,4.9c-2.2,1-4.1,2.1-5.6,3.9
				c-0.5,0.6-1.4,1.4-2.1,1.4c-2.1,0.2-4.3,0.6-6.2-0.1c-3.6-1.3-7.2-1-10.9-0.9c-0.9,0-1.6,0.3-2,1.1c-0.9,1.8-1.9,3.5-2.7,5.3
				c-0.8,1.7-1.2,3.5-2.2,5.1c-3.6,5.8-7.4,11.6-11.1,17.4c-0.6,0.9-1.2,1.9-1.7,2.9c-1.5,2.9-1.2,7.3,0.7,9.3
				c3.7,4.1,8.6,5.3,13.9,5.5c0.8,0,1.6-0.2,2.3-0.6c2.5-1.4,5.2-2.7,7.4-4.5c8.3-6.8,17.8-11.6,27.5-16c0.6-0.3,1.2-0.5,1.8-0.6
				c4.2-0.9,8.3-0.7,11.3,2.7c1.8,2,3.6,2.6,6,2.4c1-0.1,2.1-0.1,3.1,0c1.5,0.2,3.1,0.3,4.4,1.1
				C738.3,372.8,740.4,373.2,742.7,373.1z M798.7,343.6c-0.9,0-1.9,0.1-2.8,0c-1.1-0.1-2.3-0.1-3.3-0.5c-2.9-0.9-3.8-3.1-2.5-5.8
				c0.5-1.1,1.2-2,1.8-3.1c-2.5-2.6-0.3-4.4,1.1-6.4c-1.4-1.3-1.5-3.1-1.1-4.7c0.4-1.5,1.1-3,2-4.3c1.2-1.7,1.4-1.6,0.2-3.1
				c-0.8-1-1-2-0.9-3.1c0.1-0.9,0.3-1.9,0.8-2.7c0.8-1.4,0.6-2.5-0.4-3.7c-1.5-1.8-1.5-3.8-0.9-5.9c0.4-1.3,1-2.5,1.7-3.7
				c0.9-1.5,1-2.8-0.2-4.2c-1.4-1.8-2-3.8-1.7-6.1c0.3-2,0.6-4.1,1.2-6.1c0.6-2,0.5-3.7-1.1-5.2c-1.6-1.4-1.9-3.2-1.5-5.3
				c0.4-1.5,0.8-3,0.9-4.5c0.5-5.9-3.5-9-8.7-9.2c-6-0.2-12,0.5-17.9,0.6c-2.1,0-3.3,0.8-4.2,2.5c-0.4,0.8-0.8,1.5-1.2,2.4
				c-0.9,2.1-1.1,4.1,0.3,6.3c2.1,3.1,1.5,5.5-1.2,8.1c-2.2,2.1-2.8,4.7-1.4,7.4c1.6,3.3,1.3,6.1-1.4,8.7c-1.4,1.4-1.4,1.8-0.3,3.7
				c1.3,2.1,1.3,4.2,0,6.3c-0.3,0.5-0.6,0.9-0.9,1.4c-1.4,2.3-2,4.6,0,7.1c1.4,1.7,1.7,4,0.3,5.8c-1.7,2.1-1.2,4.1-0.6,6.2
				c5.2,1,7.1,2.6,9.1,7.5c0.3,0.7,0.6,1.3,0.9,1.9c0.8,1.8,1.7,3.6,2.5,5.4c1,2.4,2,4.8,3,7.1c3.4,0.5,6.6,1,9.8,1.3
				c3.4,0.4,6.8,0.7,10.3,1C793.6,347.2,796.3,346,798.7,343.6z M786.7,252.8c0.5,0.2,0.8,0.4,1.2,0.5c5.3,1.9,8,5.7,7.9,11.3
				c0,1.8-0.5,3.6-0.8,5.4c-0.2,1-0.3,1.9,0.5,2.7c2.5,2.3,3,5.2,2,8.3c-0.1,0.2,0,0.4,0.1,0.7c2.5-2.4,4.9-4.6,7.2-6.9
				c4.1-4.1,8.1-8.1,12.1-12.3c4.1-4.3,8.2-8.8,12.3-13.1c0.8-0.9,1.8-1.6,2.8-2.2c2.4-1.4,4.8-1.4,7.1,0.4c2.3,1.8,4.8,3.5,7.2,5.3
				c1.7-1.6,3.1-3.5,3.5-5.8c0.4-2.9,0.7-5.9,0.5-8.8c-0.2-3.2-2-5.5-5.3-6.2c-1.3-0.3-2.7-0.5-4-0.6c-1-0.1-1.9,0.1-2.9-0.1
				c-5.1-0.8-9.8-2.4-11.7-8.1c-0.8-2.3-2.5-3.8-4.9-4.5c-1-0.3-1.9-0.7-2.9-1c-4-1.1-7.9-2.5-12-3.2c-7.4-1.3-14.9-2-22.3-3.1
				c-4.8-0.7-8.8,0.6-12.4,3.7c-3.2,2.7-5.8,5.9-8.4,9.2c-2.5,3.2-4.1,6.4-3.3,10.6c0.4,2.4,0.4,5,1.1,7.3c1,3.3,2.5,6.4,3.8,9.6
				c0,0.1,0.2,0.1,0.5,0.1c0.1-1.3,0.2-2.6,0.2-3.8c0.1-2.2,1.2-3.9,3.3-4.6c4.1-1.3,8.2-2.1,12.5-1.1c2.9,0.7,4.1,1.9,4.5,4.8
				C786.3,248.9,786.5,250.8,786.7,252.8z M875.9,274.8c-1.3-0.8-2-1.4-2.8-1.8c-3.5-1.6-7-3.1-10.5-4.8c-4.2-2-8.4-4-12.5-6.1
				c-2.3-1.2-4.1-3-5.7-5c-1.2-1.5-2.7-2.7-4.1-4c-0.8-0.7-1.9-1.2-2.8-1.9c-2.2-1.6-2.9-1.6-5,0.1c-0.5,0.4-1,0.8-1.4,1.3
				c-3.8,4.1-7.6,8.2-11.4,12.3c-2.6,2.7-5.1,5.5-7.8,8.1c-3.5,3.5-7.2,6.8-10.7,10.3c-1.8,1.8-3.1,4-4.5,6c0.3,0.5,0.3,0.7,0.5,0.9
				c2.1,2.6,2.1,5.2,0.4,8c-0.5,0.9-1.1,1.8-1.3,2.8c-0.2,0.9-0.1,1.9,0.2,2.7c0.5,1.1,1.3,2.1,2.1,3.3c0.7-0.3,1.4-0.7,2.1-0.9
				c1.2-0.4,2.5-0.8,3.7-0.9c3.6-0.2,7.2-0.2,10.8-0.1c6.1,0.1,12.3,0.2,18.4,0.6c3.1,0.2,6,0.3,8-2.5c4.3-1.6,7.1-5.3,10.9-7.6
				c1.8-1.1,3.5-2.5,5.2-3.8c4.1-3.1,7.4-7,10.9-10.8c1.1-1.2,2.4-2.1,3.6-3.2C873.4,277,874.5,276.1,875.9,274.8z M726.7,302
				c-2.9,2.8-4.1,6.3-4.5,10.3c-0.2,1.9-0.5,3.8-1,5.7c-0.3,1.4-1.7,2.2-2.9,1.8c-0.9-0.3-1.5-1.6-1-3c0.6-1.7,0.8-3.6,1.2-5.3
				c0.4-1.9,0.8-3.8,1.4-5.6c1.1-3.3,3.4-5.9,5.8-8.1c-0.2-1.4-0.7-2.7-0.6-3.9c0.1-4.8,1.5-9.3,4-13.4c0.4-0.7,0.9-1.4,1.6-1.8
				c1-0.5,2.1-0.7,3.1-0.8c1.1,0,1.8,0.8,1.8,1.9c0.1,1.1-0.5,2-1.6,2.1c-1.6,0-2.3,1.1-2.7,2.3c-0.9,2.6-1.6,5.2-2.4,7.8
				c-0.6,1.9,0,3.5,1.4,5c2.2,2.2,3.2,4.9,3,8.1c-0.1,2.1-0.2,4.2-0.5,6.2c-0.5,3.6,0.7,6.6,3.3,9.2c3.4-1.2,6.6-0.2,9.8,0.9
				c1.4,0.5,2.9,0.7,4.4,1.1c0-1.4-0.1-2.6,0-3.6c0.1-1,0.3-2.2,0.9-2.9c1.3-1.6,1.1-2.9-0.1-4.3c-1.6-1.9-1.6-4.1-0.9-6.3
				c0.6-1.6,1.4-3.2,2.2-4.7c0.6-1,0.7-1.8,0-2.9c-1.9-3.1-1.7-5.4,0.8-8c1.8-2,1.9-2.3,0.8-4.6c-1.9-4.2-1.2-8.3,2.2-11.6
				c1.5-1.5,1.6-1.9,0.6-3.7c-0.8-1.6-1.5-3.3-2.4-5.4c-2.1-1.9-4.9-1.9-7.8-0.5c-0.3,0.1-0.6,0.2-0.9,0.3c-3.4,1.5-6.4,0.7-9.2-1.5
				c-1.4-1.1-2.7-2.2-4.2-3.3c-2.6-1.8-5.7-1.7-7.8,0.7c-2,2.2-4.2,2.6-6.9,2c-0.7-0.2-1.4-0.3-2.1-0.5c-1.4-0.3-2.5,0.1-3.4,1.2
				c-0.7,0.8-1.4,1.6-2.2,2.2c-2.4,1.8-2.8,4-2.1,6.8c1.1,4.3,0.4,8.3-2.7,11.6c-0.9,1-1,1.7-0.1,2.5c1.2-0.2,2.4-0.7,3.3-0.4
				c0.9,0.3,1.7,1.3,2.5,2c1-0.6,1.9-1.4,3-1.9c2.4-1.1,4.2,0,4.1,2.7c0,1-0.3,2.1-0.4,3.1c-0.1,0.6-0.2,1.3,0.1,1.9
				c1.3,3,0.7,6-0.5,8.9c-2.2,5.2-4.5,10.3-6.7,15.4c-2,4.5-4,9-6,13.7c9.4-2.7,19-4.2,27.6-9.1c-0.3-0.5-0.4-1-0.7-1.3
				c-2.3-3.4-2.9-7.1-2.2-11.2c0.3-2,0.1-4.1,0.1-6.2C728.5,302.8,727.6,302.4,726.7,302z M625.2,210c-0.9-2.9-1.6-5.5-2.4-8.1
				c-1.7-5.5-2.1-11.3-4.6-16.6c-0.7-1.6-0.3-3.1,0.9-4.5c2.1-2.3,4.5-4.1,7.5-4.9c1.1-0.3,2.1-0.6,3.3-1c-0.1-0.9-0.1-1.7-0.2-2.4
				c-0.2-1.7-0.5-3.5-0.8-5.2c-0.8-4.5-1.5-9-2.3-13.5c-0.5-2.5-1.4-4.9-3-7c-1.1-1.5-2.2-3-3.2-4.5c-1.4-2-2.8-4.1-4.4-6
				c-1.2-1.6-2.6-2.4-4.9-1.8c-3.7,1-7.5,1.5-11.3,2.1c-1.2,0.2-2,0.6-2.4,1.7c-0.7,2.1-1.6,4.2-1.9,6.4c-0.8,5.9-1.4,11.9-2.1,17.9
				c-0.7,6,0,11.9,1.1,17.9c1.1,5.7,1.9,11.5,2.9,17.2c0.7,3.9,1.4,7.8,2.3,11.7c0.1,0.6,0.6,1.3,1.2,1.6c0.9,0.5,1.9,0.8,3.1,1.2
				c1.3-2.5,3.4-4.2,5.7-5.7c2.5-1.6,5.2-1.9,8-0.9c2.6,1,4.6,2.5,5.7,5.2C624.2,210.5,624.7,210.3,625.2,210z M557.3,340.7
				c0.6,2.7,1.2,5.4,1.7,8.2c1.3,6.9,2.5,13.8,4,20.7c0.7,3.3,1.8,6.5,2.8,9.7c0.5,1.8,1.7,2.9,3.6,3c0.6,0.1,1.3,0.2,1.9,0.2
				c10.4,0.3,20.8,0.6,31.2,0.9c2.2,0.1,4.3-0.5,6.4-1.3c0.2-1.2,0.5-2.4,0.6-3.5c0.3-4.1,0.7-8.3,0.9-12.4
				c0.3-6.7,0.4-13.4,0.6-20.1c0-2-0.1-2.2-2.1-2.5c-1.7-0.2-3.5-0.4-5.2-0.4c-4.7,0.1-9.4,0.4-14.1,0.5c-3,0.1-6.1-0.1-9-1.2
				c-5-1.8-10-3.1-15.4-3.5C562.4,338.9,559.8,338.9,557.3,340.7z M583.6,319.1c0.1-2-0.6-3.8-1.9-5.3c-1.3-1.5-1.8-3.2-1.7-5.1
				c0.1-1.3,0.1-2.6,0.1-3.8c0-1.4,0.1-2.7-0.2-4.1c-0.9-5.2-2.8-6.4-8-5.6c-1.5,0.2-3,0.3-4.5,0.4c-2.3,0.1-4.2-0.9-5.6-2.7
				c-0.6-0.7-1.2-1.5-1.8-2.2c-1.6-1.7-3.6-2.3-5.7-1.6c-1.4,0.5-2.5,2-4.3,1.9c-0.2,0-0.5,0.5-0.8,0.9c-1.8,2.3-3.6,4.7-5.4,7
				c-0.7,1-1.5,1.9-2,3c-1.4,2.8-2.2,5.5-0.8,8.7c1.2,2.7,1.1,5.7-0.5,8.3c-1.2,1.8-2.5,3.5-3.8,5.3c-0.8,1.2-1.7,2.3-2.5,3.5
				c-2.5,4-3.9,8.4-5,12.9c-0.5,2-0.7,4.1-0.6,6.2c0.2,3.5,1.6,6.6,4.4,8.7c2.8,2.2,5.9,3.9,9.6,4c3.1,0.2,6,0.8,8.3,3.1
				c0.2,0.2,0.5,0.4,0.8,0.5c2,1.1,3.5,0.8,5.5-0.9c-0.2-1.2-0.5-2.4-0.7-3.7c-0.9-4.9-1.7-9.7-2.6-14.6c-0.3-1.6-0.8-3.1-1.2-4.6
				c-0.3-1-0.3-1.9,0.7-2.6c2.6-1.7,5.2-3.4,7.8-5.1c0.6-0.4,1.3-0.7,1.9-1.1c4.2-2.5,8.4-5.2,12.7-7.6
				C578.3,321.6,580.8,320.5,583.6,319.1z M710.4,132.7c-0.5-1.5-1-2.9-1.5-4.2c-0.9-2-2.1-4-2.8-6.1c-1.5-4.4-3.9-8.2-7.2-11.5
				c-1.1-1.1-2.2-2.3-3.3-3.5c-4.3-4.2-7.6-9-10-14.5c-0.3-0.8-0.1-1.8,0-2.7c0.1-0.5,0.4-1,0.5-1.1c-0.7-1.6-1.6-2.8-1.8-4.2
				c-0.2-1.4,0.2-3,0.3-4.8c-4.4,1.4-8.7,2.7-12.9,4.1c-0.2,0-0.3,0.1-0.4,0.2c-5.2,2.7-10.6,4.8-16.3,6.1c-1,0.2-2,0.6-2.9,1
				c-4.2,1.9-8.5,3.8-12.5,5.9c-3.3,1.8-6.5,3.4-10.3,3.7c-1.2,0.1-2.2,0.7-2.8,1.7c-1.2,1.9-2.8,3.3-5.4,3.3
				c0.8,1.7,1.4,3.2,2.2,4.8c2.7-1.2,4.7-0.3,6.3,1.6c0.7,0.8,1.3,1.6,1.9,2.4c1.1,1.4,2.2,2.9,3.3,4.3c2.7-1,5.1-1.9,7.6-2.7
				c7.4-2.3,15.1-3.3,22.8-4.3c1.5-0.2,3-0.5,4.5-0.7c2.2-0.4,4.4-0.9,6.6-1.2c2.6-0.3,4.5,0.8,5.5,3.3c0.6,1.4,1.3,2.8,1.7,4.2
				c1.4,4.4,2.6,8.9,3.9,13.1c1,0.8,2.2,1.5,2.9,2.5c0.7,1.1,0.9,2.5,1.3,3.5c1.6,0.9,3.1,1.6,4.5,2.4
				C699.8,134.3,703.6,133.4,710.4,132.7z M564,334.6c0,0.2,0.1,0.3,0.1,0.5c0.8,0.1,1.6,0.3,2.5,0.4c3.4,0.2,6.8,0.7,10.1,1.8
				c2.2,0.7,4.4,1.6,6.6,2c4.8,1,9.7,0.5,14.6,0.3c3.6-0.2,7.2-0.1,10.7,0.1c2.1,0.1,4.1,0.5,5.9-0.8c0.6-0.4,1.4-0.5,2-0.6
				c1.9-0.1,3.5-1,5.1-2c0.9-0.6,1.8-1.3,2.9-1.7c4.6-1.8,8.3-5.1,12.3-7.8c2.9-2,5.6-4.3,8.7-5.9c3.4-1.7,5.6-4.8,8.6-6.8
				c0.8-0.6,0.7-1.5-0.1-2c-0.8-0.5-1.7-1-2.6-1.2c-2.7-0.4-5.4-0.8-8.1-1c-4-0.4-8-0.7-11.9-1c-2.5-0.2-4.9-0.4-7.4-0.4
				c-3.7,0.1-7.5,0.4-11.2,0.4c-2.1,0-4,0.5-5.7,1.5c-2,1.1-4,2.3-6,3.5c-4.5,2.5-8.9,5-13.4,7.4c-3.2,1.7-6.6,3.2-9.9,4.8
				c-1.8,0.9-3.5,1.9-5.2,3C569.7,331,566.9,332.8,564,334.6z M680.7,226.7c2.8-6.2,5.5-12.5,7.4-19c-0.3-0.2-0.5-0.4-0.7-0.5
				c-5.4-2.8-10.3-6.1-14.4-10.6c-4-4.3-9-7.3-13.4-11.2c-0.1-0.1-0.3-0.1-0.7-0.2c-0.3,0.9-0.7,1.9-1.1,2.8
				c-1.5,4.3-2.9,8.6-4.4,12.9c-1.4,4.1-3.1,8.1-4.4,12.1c-2.4,7.1-5,14.1-8.6,20.7c-1.9,3.5-3.5,7.2-4.9,10.9
				c-0.7,1.7-0.8,3.6-1.2,5.4c2.4,0.8,3.2,0.6,5.3-0.2c2.6-1,5.2-2,8-2.5c1.8-0.4,3.9-0.4,5.7,0.2c2.4,0.7,4.5,2.1,6.9,3.3
				c0.1-1,0-2,0.2-2.9c0.3-2.1,0.3-4.3,2.3-5.8c0.3-0.2,0.4-0.8,0.4-1.3c0.3-2.9,0.5-5.9,0.9-8.8c0.7-5.2,2.4-6.5,7.6-6.4
				c0.6,0,1.1,0,1.7,0.1C675.7,226.1,678.1,226.4,680.7,226.7z M787,107.7c-8.8,2.8-16.1,8.2-24.4,11.3c0.4,1.1,0.8,1.9,0.9,2.8
				c0.4,2.1,1.6,3.4,3.4,4.3c4.7,2.3,8.3,6,11.7,9.7c0.6,0.7,1,1.6,1.3,2.5c1.3,4.6,2.6,9.2,3.8,13.8c0.2,0.6,0.5,1.1,0.8,1.9
				c0.7-0.3,1.2-0.6,1.8-0.8c1.9-0.8,3.7-0.6,5.6,0.2c2.1,0.8,4.1,1.7,6.2,2.5c2.6,0.9,5.1,1.9,7.8,2.3c4.9,0.7,9.5,2,14,4.1
				c0.4,0.2,0.8,0.2,1.5,0.5c-0.8-2.5-1.7-4.5-2.2-6.7c-2.5-9.2-5.1-18.3-7.4-27.5c-0.8-3.4-2.6-5.5-5.9-6.5c-0.2,0-0.3-0.1-0.5-0.2
				c-4.9-1.3-9.2-4-13.6-6.3c-1.5-0.8-2.5-1.9-3.1-3.5C788.2,110.6,787.6,109.3,787,107.7z M659.3,346.2c0.9-7.9,1.9-15.4,1.9-22.9
				c0-3.3,1.7-5.8,4.9-6.8c2.9-0.9,5.9-1.5,9-1.1c0.8,0.1,1.6,0.2,2.4,0.1c3.7-0.7,7.3-0.1,10.9,0.6c2,0.4,3.8,1.3,5.4,2.5
				c1.9,1.5,2.8,3.5,2.5,5.9c-0.2,1.5-0.5,3-0.7,4.5c-0.4,2.4-0.8,4.8-1.3,7.6c1.9-1.4,3.4-2.4,4.5-3.3c5.4-9.8,9.3-20,13.9-30.1
				c-0.9-0.3-1.5-0.5-2.1-0.6c-3.8-1.1-7.8-1.9-11.4-3.5c-5.8-2.5-11.9-4.2-17.8-6.2c-4.7-1.5-9.3-3-13.2-6c-0.5-0.4-1.2-0.6-2.1-1
				c-3.4,7.6-6.8,15-10.3,22.7c0.8,0.6,1.6,1,2,1.6c0.6,0.9,1.2,2,1.2,3c0.2,5.5-0.6,10.8-2.2,16.1c-1.4,4.6-2.6,9.2-3.9,13.8
				c0,0.1,0.1,0.3,0.1,0.5C654.9,344.5,656.9,345.3,659.3,346.2z M769.7,196.3c-3,1.3-5.8,2.3-8.4,3.6c-5.3,2.5-10.6,4.8-16.1,6.7
				c-5.2,1.7-10.4,3.7-15.5,5.6c-1.9,0.7-3.7,1.5-5.6,2c-2.9,0.8-5.3,2.5-7.8,4.1c-0.4,0.3-0.8,0.8-1,1.3c-1.5,4.4-3.1,8.7-4.4,13.2
				c-1.4,4.7-2.6,9.4-5,13.7c-0.3,0.5-0.4,1.1-0.7,1.9c1,0,1.8,0,2.6,0c0.8,0,1.2-0.4,1.8-1c1.8-2.1,3.7-4.1,5.7-6.1
				c2.1-2.1,4.8-3.4,7.7-4.1c1.6-0.4,3.1-0.7,4.7-1.1c2.4-0.6,4.2-1.9,5.3-4.1c0.5-0.9,1-1.8,1.5-2.7c2.3-3.6,5.8-5.4,10-5.6
				c3.8-0.2,6.9,1.6,9.9,3.6c0.7,0.5,1.4,1,1.9,1.3c4.6-8.4,10.3-15.4,18.7-20.2C773.3,204.5,771.6,200.6,769.7,196.3z M801.9,380.1
				c1.2-0.5,2.2-1,3.3-1.3c2.3-0.6,4.7-1.1,6.9-1.8c3.9-1.2,7.8-2.3,11.1-4.9c1.4-1.1,2.7-2.2,3.1-4.1c0.2-0.8,0.7-1.6,1.2-2.3
				c2.3-2.9,4.6-5.7,6.9-8.6c1.3-1.6,2.5-3.2,4.2-5.3c-0.6-0.4-1.2-0.8-1.7-1.1c-3-1.3-3.8-3.8-4.2-6.7c0-0.1-0.2-0.3-0.4-0.6
				c-2.6,0.1-4.3-1-4.2-3.7c-1.4-0.6-3-0.8-3.8-1.7c-0.8-0.9-0.8-2.4-1.3-3.9c-1.7,0.9-3.6,1.7-5.2,2.7c-4.8,2.9-9.6,6-14.5,9
				c-4.7,2.9-9.5,5.6-14.3,8.4c-1.9,1.1-2.2,3-2.6,4.9c-0.3,1.7,0.8,2.5,1.8,3.3c1.5,1.2,2.3,2.8,2.6,4.7c0.1,0.9,0.4,2.1,1,2.6
				c1.6,1.3,2.4,2.9,3.1,4.7c0.2,0.7,0.9,1.4,1.5,1.6C798.8,376.8,800.5,378.1,801.9,380.1z M774,109.4c-0.8-0.7-1.3-1.1-1.6-1.5
				c-1.1-1.2-2.4-2.4-3.2-3.8c-1-1.6-2.2-2.5-4-2.4c-2.2,0.1-4.2-0.3-6.4-0.9c-2.8-0.8-5.7-0.6-8.2,1.5c-1.5,1.2-3,2.4-4.5,3.6
				c-2.6,2-3.6,4.7-3.8,7.9c-0.1,2.2-0.5,4.5-1.1,6.6c-0.8,2.8-2,5.4-3,8.1c-1,2.9-2.9,5-5.5,6.4c-1.4,0.7-2.4,1.8-3.1,3.2
				c-0.8,1.7-1.5,3.3-2.3,5c-0.7,1.5-1,2.9,0.2,4.4c0.5,0.6,0.7,1.5,0.8,2.2c0.6,3.2,2.7,4.7,5.7,5.4c1.4,0.4,3,0.9,4.2,1.7
				c2.9,2.1,4.9,5,6,8.4c0.2,0.5,0.3,1,0.5,1.5c3.2-0.2,10.1-2.4,13.7-4.4c-0.5-1.5-1-3.1-1.6-4.7c-1.5-4.4-3.2-8.9-4.6-13.3
				c-0.5-1.5-0.7-3.1,0.2-4.7c2-3.6,3.6-7.4,6-10.7c2.2-3,2.5-5.6,0.8-8.8c-1.2-2.3-0.5-3.6,1.8-4.9c0.4-0.2,0.9-0.3,1.3-0.6
				C765.9,113.2,769.7,111.4,774,109.4z M613.5,380c2.8-2.4,5.4-4.6,8-6.7c3.1-2.6,6-5.3,9.2-7.7c3.2-2.3,6.7-4.3,10.2-6.3
				c2-1.1,3.5-2.5,4-4.7c0.1-0.5,0.4-1,0.6-1.6c3.2-9.2,6.1-18.5,8.4-28c0.5-2,0.7-4.1,1.2-6.7c-0.9,0.7-1.3,1-1.7,1.4
				c-1.6,1.8-3.6,3.1-5.7,4.3c-2.9,1.7-5.6,3.7-8.3,5.6c-4.2,2.9-8,6.3-12.9,8.2c-1,0.4-1.9,1.1-2.9,1.7c-1.9,1.2-3.9,2.2-6.2,2.5
				c-0.9,0.1-1.8,0.5-2.4,0.7C614.5,355.3,614,367.5,613.5,380z M774.7,160.4c-5.9,3-11.3,5.7-17.4,6.8c-0.2,0-0.4,0.2-0.7,0.3
				c-3.7,1.1-7.4,2.4-11.2,3.3c-4.4,1-8.8,1.6-13.3,0.3c-2-0.6-4.1-0.3-6.1,0.6c-2.8,1.3-3.5,3.8-1.5,6c3.3,3.8,6.8,7.4,10.2,11.1
				c0.4,0.4,0.8,0.8,1.2,1.2c1.1,1,1.4,0.9,2.7,0c2.3-1.5,4.6-3.2,7.2-4.2c3.2-1.3,6.6-2.5,10-3c3.6-0.5,7.3-0.9,10.9,0.4
				c1.9,0.6,3.8,0.5,5.7-0.1c1.9-0.6,3.7-1.3,5.3-2.6c2.4-1.9,5.1-2.8,8.3-2.2c0.9,0.2,1.9,0.1,2.9,0c3.4-0.5,6.8-1.1,10.1-1.8
				c2.6-0.5,4.4-2.2,6.1-4.3c-2.4-0.8-3.6-0.9-5.6-0.2c-2.7,0.9-5.3,1.9-8,2.6c-2.4,0.7-4.9,1-7.3,0.4c-2.8-0.7-4.1-2.2-4.3-5
				c-0.1-1.3,0.1-2.7,0.2-4.3C777.6,165.1,774.5,164.7,774.7,160.4z M882.8,349.7c0-0.5,0.1-0.9,0.1-1.3c-0.1-2.3,1-3.8,2.9-4.9
				c0.5-0.3,1-0.5,1.4-0.9c3.8-3.1,7.6-6.1,11.2-9.3c0.9-0.8,1.9-2.3,1.8-3.4c-0.2-4.3-0.7-8.5-5.1-10.8c-0.6-0.3-1-0.7-1.6-1.1
				c-1.7-1.3-2.5-3-2.4-5.2c0.1-1.8,0.1-3.7,0.1-5.5c0-1.9-0.9-2.8-2.7-3c-3.4-0.3-6.7,0.4-9.7,2c0.1,0.2,0.2,0.4,0.3,0.5
				c1.2,1.2,1.7,2.5,1.1,4.1c-0.6,1.6-2,1.8-3.5,1.9c-1.8,0.1-3.5,0.1-5.3,0.3c-1.4,0.1-2.7,0.4-3.2,2c-1.9,6.5-6.4,9.8-12.8,11
				c-0.2,0-0.4,0.2-0.7,0.4c2.5,2.2,1.5,4.4,0.2,6.2c0.6,1.8,1.1,3.3,1.7,4.9c0.3,0,0.7,0.1,1.2,0.1c2.4,0.1,4.6,0.6,6.5,2.1
				c3.3,2.8,6.8,5.3,10,8.2C876.8,350.3,879.4,350.8,882.8,349.7z M587.7,267.6c-0.1-1.3-0.2-2.4-0.3-3.5c-0.2-3.5,1.3-6.1,4.5-7.5
				c1.7-0.7,2.7-1.9,3.2-3.6c1-3.4,2.9-6.2,5.5-8.6c2.8-2.6,5-5.5,5.7-9.5c0.4-2.5,2-4.5,4.2-5.9c1.3-0.8,2.6-1.7,3.4-3.2
				c-1.4-1.6-3.3-1.8-5-2.3c-1.3-0.3-2.7-0.6-3.9-1c-1.9-0.7-2.3-1.4-2.3-3.4c0-0.6,0-1.1,0.1-1.7c0.1-0.9-0.3-1.7-1.1-1.9
				c-2.3-0.6-4.6-1.4-6.9-1.3c-1.8,0.1-3.7,0.9-4.9,2.7c-2.1,3.3-3.2,6.7-2.4,10.7c0.3,1.7,0.3,3.7-0.2,5.4
				c-1.6,6.1-4.3,11.5-10.1,14.8c-2,1.1-3.1,2.9-2.9,5.4c0.2,3.6,0.4,7.2,0.6,10.8c0.1,1.6,0.6,3.2,0.8,4.9
				C580,268.9,583.8,268.9,587.7,267.6z M698.4,177.8c-0.1-1.3-0.1-2.2-0.3-3c-1.2-8.1-2.4-16.3-3.6-24.4c-0.3-2.1-0.7-4.1-1.2-6.1
				c-0.4-1.8-1.3-3.1-3.3-3.2c-1.7-0.1-3.5-0.4-5.2-0.4c-5.4-0.2-10.7,0.2-15.9,1.6c-4.8,1.3-9.6,2.3-14.6,2.6
				c-4.7,0.3-9.4,0.9-14.1,1.3c-3.5,0.3-6.9,1.6-10.4,1.3c-0.3,0-0.7,0.3-0.7,0.3c0.8,3.7,1.8,7.2,2.4,10.7
				c0.9,4.9,1.6,9.7,2.5,14.9c2.9-1.1,5.5-2.1,8.2-3.2c0-1.7,0-3.2,0-4.7c0.1-1.8,0.1-3.5,0.4-5.3c0.1-0.9,0.7-1.8,1.3-2.4
				c3.1-3.2,6.9-4.4,11.3-4.2c4.1,0.2,8.1,0.4,12.2,0.4c5.8,0.1,11.7,0,17.5,0.1c3,0,5.9,0.7,8.3,2.6c1.5,1.2,2.2,2.7,1.6,4.6
				c-0.2,0.7-0.3,1.4-0.3,2.1c0.1,4.3,0.3,8.6,0.5,13C696,176.8,697,177.2,698.4,177.8z M621.9,137.8c0.9-0.2,1.6-0.4,2.3-0.5
				c5.3-0.8,10.5-1.9,15.8-2.4c3.7-0.3,7.3-0.7,10.9-1.6c5.1-1.3,10.2-2.6,15.6-2.4c3.4,0.1,6.9,0.1,10.3,0.1c2,0,4,0,6.2,0
				c-0.4-1.8-0.6-3.3-1.1-4.8c-1.1-3.5-2.4-6.9-3.5-10.4c-0.4-1.3-1.3-1.7-2.6-1.5c-0.5,0.1-0.9,0.2-1.4,0.3
				c-4.5,0.7-9,1.4-13.5,2.2c-5,0.9-10.1,1.5-15,2.9c-4.9,1.4-9.7,3.5-14.5,5.3c-3.8,1.4-7.2,3.5-10.4,5.8c-0.9,0.6-1.8,1.3-2.7,2
				C619.5,134.5,620.6,136.1,621.9,137.8z M734.9,103.2c2,0.6,3.5,1.1,5,1.6c0.9,0.3,1.6,0.1,2.3-0.6c2-1.8,4-3.4,6.1-5.1
				c3.5-2.8,7.5-3,11.6-1.9c2.6,0.7,5.2,0.6,7.8,0.7c0.2-0.6,0.4-1,0.5-1.5c0.8-3,0.1-4.3-3-5.1c-3.6-0.9-7.1-1.7-10.7-2.6
				c-1-0.2-2-0.6-3-1c-1.3-0.5-2.5-1.1-3.8-1.4c-5.7-1.4-11.5-2.8-17.2-4.1c-2.4-0.5-4.6-1.4-6.1-3.5c-0.2-0.2-0.4-0.4-0.6-0.6
				c-1,1.2-1.8,2.3-2.7,3.3c-2.7,3.2-5.9,6-7.8,9.9c-1.1,2.2-3.3,3-5.7,2.9c-1.6-0.1-3.2-0.4-4.7-0.7c-2.8-0.5-4.2,0-5.7,2.4
				c-0.9,1.6-1.7,3.2-2.6,4.9c3.4,3.6,6.7,7.2,10.2,10.9c0.6-1.7,1-3.2,1.6-4.7c1-2.8,1.8-3.1,4.7-2.5c0.1,0,0.3-0.1,0.6-0.2
				c0.3-1.2,0.6-2.5,1-3.8c0.7-2,2.1-3.1,4.2-2.7c2.4,0.4,4.7,1,7,1.6c2.6,0.7,5.1,1.6,7.7,2.4c-0.7-1.4-1.7-2.4-2.6-3.5
				c-0.7-0.7-1.4-1.4-2-2.1c-0.6-0.7-0.8-1.6-0.1-2.4c0.6-0.8,1.4-1,2.3-0.6c0.6,0.3,1.1,0.6,1.7,0.8c1.5,0.5,3,1,4.8,0.1
				c-0.8-0.3-1.4-0.4-2-0.7c-2.6-1.4-5.2-2.8-7.7-4.4c-1.2-0.8-1.3-2-0.6-2.9c0.7-0.9,1.5-1,2.8-0.3c0.3,0.2,0.7,0.5,1,0.7
				c2.8,1.9,5.7,3.6,9,4.3c0.8,0.2,1.6,0.4,2.2,0.9c1.3,1.1,2.7,2.2,3.7,3.6c1.1,1.6,0.1,3.2-1.9,3.3c-0.8,0-1.6-0.2-2.4-0.3
				c-1.4-0.1-2.8-0.1-4.8-0.2C736.6,100.2,736.7,101.7,734.9,103.2z M684.8,227.3c0.7,0.2,1.3,0.5,1.9,0.6c3,0.6,5.5,2,7.9,3.8
				c2.9,2.1,3.2,3.2,1.8,6.5c-1.2,2.9-2.4,5.9-3.6,8.6c0.5,1.4,1,2.6,1.5,4.1c1.8-0.5,3.7-0.9,5.5-1.5c0.4-0.1,0.8-0.6,0.9-1
				c1.9-4.4,4.1-8.6,5.5-13.3c1.9-6.7,4.3-13.2,6.4-19.8c1.1-3.4,2.1-6.8,3.1-10.3c-2.8-2.5-5.4-5-8-7.4c-2.4,1.5-4.7,3-7,4.4
				c-2.4,1.5-4.8,3.1-7.3,4.5c-1,0.6-1.4,1.4-1.8,2.4c-1.5,4.3-3.1,8.5-4.7,12.8C686.3,223.6,685.5,225.4,684.8,227.3z M761.4,252.7
				c-1-2.4-2.1-5.1-3.2-7.8c-0.6-1.6-1-3.4-1.3-5.1c-0.3-1.7-0.4-3.5-0.6-5.2c-0.1-0.5-0.4-1-0.8-1.4c-2.1-2.1-4.4-3.9-7.2-5.1
				c-2.3-1-4.6-1-7,0c-2.3,0.9-3.6,2.8-4.7,4.9c-1.8,3.8-4.9,6-9,6.9c-1.8,0.4-3.6,0.8-5.3,1.4c-4.1,1.5-6.9,4.7-9.6,7.9
				c6.9,4.9,5.8,4.6,7.8,9.1c0.5-0.3,1-0.6,1.3-1c3.1-3.7,9.5-4.4,13.9-0.7c1.3,1.1,2.7,2.2,4.2,3.2c1.3,0.9,2.7,1.3,4.3,0.6
				c1.2-0.5,2.4-0.9,3.6-1.2c2.4-0.7,4.7-0.8,7,0.5c0.4,0.3,1,0.4,1.2,0.5C757.7,257.9,759.3,255.6,761.4,252.7z M595.7,209.9
				c-0.6-3.4-1.3-6.9-1.9-10.3c-0.1-0.1-0.2-0.2-0.3-0.2c-1.9,0-3.8,0-5.7-0.1c-1.8-0.1-3.7-0.7-5.4-0.3c-1.7,0.3-3.2,1.7-5,2.3
				c-3.1,1.1-4.9,3.1-5.6,6.3c-0.1,0.5-0.3,0.9-0.4,1.4c-1.9,7.1-2.4,14.5-3.2,21.8c-0.4,3.6-0.7,7.1-1,10.7
				c-0.1,1.8,0.3,3.4,2.1,4.2c1.7,0.7,3.5,1.2,5.1-0.4c0.5-0.5,1.2-0.8,1.8-1.2c4.8-3.3,6.6-8.2,7.7-13.6c0.1-0.6,0-1.3-0.1-1.9
				c-1.3-4.9,0.2-9.3,2.7-13.4c1-1.5,2.2-2.7,3.9-3.4C592.2,211.1,593.9,210.5,595.7,209.9z M774,196.3c1.8-0.8,3.5-1.7,5.3-2.3
				c1.8-0.7,3.6-1.2,5.4-1.8c1.4-0.4,2.8-0.8,4-1.4c2.5-1.2,4.9-2.8,7.4-3.8c7.9-3.3,15.8-6.4,23.7-9.6c0.6-0.2,1.4-0.8,1.4-1.4
				c0.4-2.5,0.5-5,0-7.7c-0.8,0.3-1.4,0.5-2,0.8c-2.6,1.2-5.2,2.4-7.9,3.5c-1.5,0.6-2.7,1.3-3.8,2.6c-2.6,2.9-5.5,5.3-9.7,5.4
				c-2.2,0.1-4.4,0.6-6.6,1.1c-2.1,0.6-4.2,0.8-6.4,0.4c-1.3-0.3-2.5,0-3.7,0.7c-0.9,0.5-1.7,1.2-2.6,1.7c-4.1,2.4-8.4,3.8-13.3,2.4
				c-1.3-0.4-2.7-0.6-4-0.6c-2.9,0.1-5.8-0.1-8.4,1.5c-0.5,0.3-1.2,0.4-1.9,0.5c-4.8,0.6-8.6,3.1-12.1,6.3c0.7,2.6,1.3,5.1,2,7.7
				c0.6,0,1.3-0.3,1.8-0.1c1.5,0.7,2.9,0.1,4.2-0.4c3.9-1.6,7.8-3.4,11.7-5c3.2-1.4,6.5-2.8,9.7-4.1c2.2-0.9,3.2-0.4,4.4,1.6
				C773.3,194.9,773.6,195.5,774,196.3z M587.9,317.1c0.1,0,0.4-0.1,0.6-0.2c3.3-1.9,6.6-3.8,10-5.7c2.3-1.4,4.7-2.8,7-4.1
				c2.3-1.3,4.9-1.9,7.6-1.9c2.9,0.1,5.7-0.2,8.6-0.2c3.2,0,6.4-0.1,9.5,0.1c2.6,0.1,5.2,0.8,8,0.5c-0.1-1-0.1-1.8-0.2-2.7
				c-0.4-2.3-0.8-4.6-1.4-6.8c-0.9-3.8-1.6-4.2-5.6-3.8c-3.4,0.4-6.8,0.8-10.2,1.3c-1.3,0.2-2.7,0.4-4,0.7c-2.5,0.5-5,1-7.5,1.5
				c-1.3,0.3-2.7,0.3-4,0.7c-4.7,1.3-9.4,2.4-13.8,4.8c-1.3,0.7-2.8,1-4.3,1.5c-1.4,0.4-2.7,0.8-4.3,1.2c-0.1,1.9-0.1,3.7-0.1,5.5
				c0,0.5,0.1,1,0.4,1.4C585.4,312.9,586.6,315,587.9,317.1z M722.8,144c1.2-2.6,2.2-5,3.3-7.4c1-2.1,2.5-3.8,4.6-5
				c1.1-0.7,2.4-1.5,3-2.6c1.7-3.3,3.2-6.8,3.9-10.2c-0.5-1.1-1.1-1.9-1.3-2.8c-0.3-1-0.8-1.5-1.8-1.6c-1.1-0.1-2.3-0.1-3.3-0.4
				c-5.8-1.4-11.5-2.8-17.2-4.2c-1.3-0.3-2.5-0.8-3.9-1.2c-0.8,2.5-1.5,4.9-2.2,7.3c-0.1,0.5,0.1,1.1,0.3,1.6
				c1.2,2.9,2.4,5.8,3.8,8.5c1.2,2.5,1.9,5,2.2,7.8c0.3,2.1,1,4.2,2,6.1C717.5,142.2,720.1,143.1,722.8,144z M810.5,211.1
				c4.1,1.3,7.9,2.7,11.7,3.8c2.3,0.7,4.3,1.8,5.7,3.7c1,1.2,1.7,2.7,2.4,4.1c0.9,1.7,1.8,3.4,4.2,3.3c0.8-1.3,1.5-2.6,2.3-3.7
				c2.3-2.8,2.3-6,1-9c-0.9-2.1-1-4.1-0.6-6.3c0.3-1.9,0.5-3.8,0.5-5.7c0-2.7-1.8-4.9-4.4-5.5c-3.1-0.8-6.3-0.5-9.5-0.4
				c-2,0.1-4,0-5.9,0c-2.8,0-5.7,0-8.8,0C809.1,200.7,810,205.9,810.5,211.1z M633.5,288.3c-0.3-2.8-0.7-5.4-1.8-7.8
				c-0.2-0.5-0.9-1-1.4-1c-2-0.1-4-0.3-6-0.1c-6.5,0.8-13,1.8-19.4,2.7c-5.4,0.8-10.7,1.6-16.1,2.4c-4.4,0.6-8.5,1.9-12.4,4.1
				c0,0.9,0,1.7,0,2.6c4.8,0.8,6.5,4.4,7.4,8.7c2.9-0.7,5.6-1.3,8.2-2.5c1.7-0.9,3.5-1.6,5.3-2.3c7.2-2.9,15-2.9,22.3-5.2
				c0.8-0.3,1.7-0.1,2.6-0.2C625.9,289.3,629.6,288.8,633.5,288.3z M848,348.4c-0.4,0.4-0.7,0.6-0.9,0.8c-3.7,4-7.5,8-11.2,12.2
				c-1.9,2.1-3.5,4.4-5.2,6.6c-0.8,1.1-1.4,2.3-0.8,3.6c1.5,3.4,3.3,6.8,6.5,9c2.7,1.9,5.6,2.5,8.8,1c3.3-1.6,6.7-2.9,10-4.6
				c2.8-1.4,5.5-3.2,8.4-4.9C854.3,366.7,850.3,358.2,848,348.4z M626.8,275.2c-0.9-2.7-1.7-5.4-2.5-8c-0.4-1.1-1.2-1.2-2.3-1.3
				c-3.6-0.2-7.2,0.7-10.7,1.3c-7.1,1.3-14.1,2.9-21.1,4.2c-4.2,0.8-8.5,1.4-12.8,1.5c-2.8,0-5.7,0.9-8.5,1.4
				c-0.2,0-0.4,0.3-0.7,0.5c-0.5,5.7,1.4,11.3,1.4,17.2c1.2-0.3,2-0.5,2.9-0.8c0-1-0.1-1.9,0-2.8c0.1-1.4,0.6-2.7,2-3.3
				c3.7-1.5,7.3-3.3,11.3-3.9c6.2-0.9,12.5-1.9,18.7-2.9C611.8,277.2,619.2,276.2,626.8,275.2z M686.9,277.6c0.4-4.9,1-9.9,1.3-15
				c0.2-2.7,0.1-2.9-2.6-3.7c-3.7-1.2-7.5-2.3-11.3-3.2c-3.1-0.7-6.3-1-9.5-1.2c-2.7-0.2-3.5,0.4-4,3c-0.8,4-1.7,8-1.5,12.1
				c0.1,1.7-0.4,3.4,0.1,4.9c0.5,1.5,1.7,2.8,2.7,4.2c0.6,0.9,1.3,1.7,2,2.8c1.1-1.7,1.9-3,2.8-4.3c0.6-0.9,1-1.8,1.7-2.6
				c1.6-1.9,4.7-2.1,5.6,1c0.1,0.5,0.4,1,0.6,1.5c0.4-0.2,0.6-0.3,0.8-0.4c3.4-1.8,4.9-1.4,7.1,1.6c0.3,0.5,0.8,0.9,1.2,1.3
				C685,278.8,685.7,278.3,686.9,277.6z M662.3,181.9c-0.1,0.2-0.2,0.4-0.2,0.5c2.7,2.1,5.3,4.3,8,6.4c1.1,0.9,2.3,1.7,3.3,2.8
				c3.6,3.9,7.6,7.3,12.1,10.1c1.3,0.8,2.7,1.4,4.1,1.9c0.6,0.2,1.4,0,2-0.3c4-2.4,8-4.9,12-7.4c4-2.5,4-2.5,3.9-7.1
				c0-0.2,0-0.3,0-0.5c0.3-1.7-0.5-2.8-2-3.4c-2.1-1-4.2-2-6.3-2.8c-3.7-1.5-7.4-2.9-11.1-4.4c-3.1-1.3-6.2-2.5-8.9-4.6
				c-0.5-0.4-1.1-0.5-1.9-0.9c-0.5,1.8-1.1,3.4-1.5,5c-0.6,2.8-1,3.3-3.9,3.6C668.6,181.2,665.5,181.5,662.3,181.9z M643.6,306.1
				c3,0.4,5.7,0.7,8.5,1.1c3.4-7.4,6.7-14.7,9.9-22c-1.9-2.7-3.6-5.3-5.5-7.9c-0.6-0.9-1.4-1.8-2.4-2.3c-3.2-1.6-6.6-1.5-10-0.9
				c-0.5,0.1-1,0.5-1.4,0.8c-1.4,1.3-2.7,2.7-4.1,4c-0.8,0.9-1.5,1.8-2.3,2.8c0.2,1,0.3,2.1,0.5,3.2c0.4,2,0.6,4,2.5,5.5
				c0.7,0.6,1.1,1.7,1.4,2.7c0.5,1.6,1,3.2,1.3,4.9C642.6,300.6,643.1,303.3,643.6,306.1z M780.7,155.4c-1-3.7-2.1-7.2-3-10.7
				c-1.9-7-1.8-7-7.2-11.6c-2.2-1.9-4.7-3.2-7.2-4.6c-0.5,0.6-0.8,1-1,1.4c-2.2,3.8-4.4,7.6-6.4,11.5c-0.4,0.7-0.3,1.7,0,2.5
				c1.2,3.8,2.5,7.6,3.8,11.3c0.8,2.2,1.6,4.4,2.5,6.9c1-0.4,2.1-0.8,3.3-1.3c2.4-1.1,4.7-2.3,7.1-3.4c0.8-0.4,1.7-0.7,2.5-0.6
				C777.3,157,778.8,155.8,780.7,155.4z M563.9,232.9c-1.1-0.1-2-0.2-3-0.2c-1,2.8-1.2,5.5-1.3,8.2c-0.3,8.8-0.5,17.6-2.1,26.3
				c-0.8,4.5-2,8.9-5.8,12.1c0.1,2.1,0.3,4.2,0.4,6.5c5.3-1.5,9.2,0.1,12.2,4.3c0.2,0.3,0.7,0.5,1.5,1.1c-0.3-2.6-0.6-4.6-0.8-6.7
				c-0.3-3.1-0.6-6.2-0.8-9.3c-0.2-2.2,1.2-3.6,3.1-4.4c0.8-0.3,1.7-0.4,2.6-0.5c0.7-0.1,1.3-0.3,1.7-0.4
				c-0.5-6.7-0.9-13.1-1.4-19.8c0,0-0.3-0.1-0.6-0.2c-4.9-1.7-6.4-3.7-6.3-8.9C563.5,238.3,563.8,235.8,563.9,232.9z M775.4,199.8
				c1.2,2.7,2.3,5.1,3.3,7.3c2.1,0.2,4,0.2,5.8,0.5c5.4,0.8,10.7,1.6,16.1,2.4c1.9,0.3,3.8,0.4,5.8,0.5c-0.5-7.7-1.1-15.2-1.6-23.1
				c-3.4,1.6-6.6,3-9.7,4.5c-2.7,1.3-5.3,3.2-8.2,3.7C782.7,196.3,779.4,198.5,775.4,199.8z M692.2,254.2c-0.4,1.3-1.6,2.1-1.1,3.6
				c0.5,1.5,0.9,3.1,0.8,4.6c-0.2,4.7-0.6,9.4-1.2,14.1c-0.2,1.8,0.4,3,1.1,4.2c1.4-0.1,2.8-0.6,3.9-0.2c1.1,0.4,1.9,1.6,2.9,2.6
				c1-0.5,2.2-0.9,3.1-1.7c3-2.4,3.4-5.6,2.5-9.1c-1-3.8-0.3-7.1,2.8-9.7c0.9-0.7,1.7-1.5,2.4-2.3c1.5-1.7,3.3-2.8,5.6-2.6
				c0.2,0,0.4-0.2,0.6-0.3c-1.2-3-5.6-5.6-9-5.2c-2.8,0.4-5.7,1-8.4,1.7C696.3,254.3,694.5,254.7,692.2,254.2z M655,182.4
				c-4.8,3.1-10.2,3.7-15.2,4.9c-5.2,1.2-10.6,1.2-16,1.7c1.2,6.2,2.6,12.5,4.9,18.8c0.7-0.7,1.2-1.1,1.5-1.6c2.1-3.1,5.1-5,8.4-6.6
				c1.7-0.8,3.4-0.9,4.9,0.4c1.5,1.3,3.3,1.8,5.2,2.3c0.2-0.4,0.4-0.7,0.6-1.1c1.9-5.5,3.9-11,5.7-16.5
				C655.2,184.1,655,183.3,655,182.4z M838.5,326.6c0.4-0.2,0.7-0.2,0.9-0.4c1.7-1.3,3.4-2.7,5.1-4c1.3-0.9,2.6-1.8,4.1-2.4
				c1.7-0.7,3.6-1,5.4-0.3c1.1,0.4,1.8,1.5,2.9,2.4c2.1-0.6,4-2.2,5.7-3.8c0.8-0.8,1.2-2,1.8-3.1c0.3-0.7,0.2-1.3-0.3-2
				c-1.7-2.9-4.2-5-6.5-7.3c-0.9-0.8-2.2-1.5-3.4-1.7c-4.4-0.7-8.4,0.4-11.7,3.5c-2.4,2.3-3.4,5.3-4.6,8.3c-0.5,1.3-0.4,2.4,0.1,3.7
				c0.9,2.4,0.8,2.6-1.5,4.1C837.2,324.7,837.8,325.6,838.5,326.6z M690.5,164.2c-0.6,0.2-1.1,0.3-1.5,0.5c-2.2,1.2-4.7,1.5-7.2,1.4
				c-7.6-0.1-15.2-0.2-22.7-0.3c-1.4,0-2.8-0.4-4.2-0.6c-2.9-0.6-5.7-1.2-8.7-1.8c0,2.2,0,4.2,0,6.1c2.5,0.5,4.9,0.8,7.2,1.4
				c2.3,0.6,3.8,2.2,4.2,4.7c0.2,1.1,0.7,2.2,0.9,3.1c4.7-0.6,9-1.2,13.3-1.8c0.2-0.8,0.3-1.6,0.6-2.2c0.8-1.8,1.5-3.7,2.5-5.4
				c1.1-1.9,2.2-2.1,4-0.9c1.5,0.9,2.9,2,4.4,2.9c2.4,1.5,5.1,2.4,8,3.7C690.9,171,690.7,167.7,690.5,164.2z M834.6,340
				c1.1-2.5,1-2.5,0.3-4.8c-0.2-0.6-0.3-1.5,0-2.1c1.1-2,0.1-4-0.6-5.6c-1.1-2.4-3.1-4.4-5.5-5.8c-5.6-3.3-13.8-1.8-18.4,2.1
				c-1.7,1.5-2.8,3-2.7,5.3c0,1-0.2,2.1-0.3,3.1c-0.2,2.1-0.2,4.2,1.1,6.3c2.5-1.6,4.7-3.3,7.1-4.6c2.7-1.5,5.5-2.8,8.4-4
				c2-0.8,3.2,0.2,3.4,2.4c0.1,1,0,2,0,3c3.9,0.6,3.9,0.6,5,4.4C833.1,339.7,833.8,339.8,834.6,340z M713.9,299.5
				c1.9-3.2-1-5.9-0.1-8.9c-3,1.2-3.5,1.1-6-0.5c-0.5-0.3-1.2-0.3-1.8-0.2c-1.9,0.2-3.3-0.5-4.3-2.1c-0.3-0.5-0.6-0.9-0.7-1.2
				c-1.5,0.1-2.8,0.6-3.9,0.3c-1.1-0.3-1.9-1.5-2.5-2c-1.7-0.1-3.2,0.1-4.3-0.4c-1.1-0.5-1.9-1.8-2.8-2.7c-4,2.4-4.6,2.3-8.9-2.3
				c-1.5,0.6-2.9,1.4-4.4,1.7c-1.9,0.4-2.7-1.3-3.6-2.9c-1,1.5-1.8,2.9-2.7,4.3c3.6,2.4,7.1,4.7,11.2,6c5.8,1.7,11.6,3.5,17.2,5.7
				c5.1,2,10.4,3.6,15.7,5C712.8,299.4,713.3,299.4,713.9,299.5z M690.2,337.7c0.4-2.9,0.9-5.8,1.4-8.9c-4.3,1.4-8.3,1-12.3-0.1
				c-0.6-0.2-1.3-0.3-1.9-0.3c-4.1-0.1-8.3-0.3-12.1-2c-1,9-2,17.8-3,26.6c-0.2,1.4,0.7,1.8,2,1.9c1.7-2.8,4-5.3,4.8-8.7
				c0.7-2.5,1.9-4.7,3.4-6.8c1.3-1.7,2.8-2.5,5.1-2.6c4.1-0.2,8.1-0.4,12,1.1C689.7,337.9,689.8,337.8,690.2,337.7z M799,319.2
				c2.1,1.2,4.2,2.6,6.4,3.9c0.3-0.3,0.6-0.5,0.8-0.7c4.6-4.7,10.3-6.5,16.7-6.5c0.6,0,1.3-0.3,1.9-0.7c1.6-0.9,3.2-1.6,5-1
				c1.4,0.4,2.8,1,4.2,1.5c0.7-1.9,1.4-3.8,2.3-6c-2.7-0.1-4.9-0.2-7.2-0.2c-7-0.1-14.1-0.1-21.1-0.4c-4.1-0.2-7.4,1.5-11,3.4
				c0.6,1.1,1.3,2.1,1.6,3.2C798.8,316.6,798.8,317.9,799,319.2z M624.7,214.8c0.1,0.5,0,0.8,0.2,1c1.5,2.1,3.1,4.2,4.6,6.3
				c0.2,0.3,0.7,0.4,1.1,0.5c2.9,0.7,5.4,2.3,7.7,4.2c0.3,0.2,0.6,0.4,1,0.6c3.8-6.7,5.6-14,8-21c-2.1-1.2-4.1-2.3-6.2-3.3
				c-0.3-0.2-0.9,0-1.3,0.2c-2.4,1.1-4.6,2.4-6.2,4.7c-1.5,2.1-3.5,3.7-5.7,5C626.8,213.6,625.8,214.2,624.7,214.8z M667.2,241.3
				c7.4,0.9,14.8,1.4,22,4.1c1.4-3.3,2.7-6.5,4-9.6c-2.1-2.1-4.2-3.5-7-4c-4.5-0.9-9-1.6-13.5-2.2c-4.1-0.5-4.7,0-5.2,4.1
				C667.3,236.2,666.6,238.7,667.2,241.3z M875.8,359.4c0-1.6-1-4.5-2.7-6.7c-3.3-4.2-7.4-7.7-12.1-10.4c-1.8-1.1-3.8-1.1-5.8-0.3
				c-0.9,0.4-1.4,0.9-1.2,1.8c0.4,1.7,0.5,3.5,1.3,5c2.3,4.3,5.2,8.1,8.7,11.4c2.2,2.1,4.7,3.6,7.8,4
				C874.7,364.6,875.8,363.7,875.8,359.4z M787.4,157.1c-1.2,0.4-2.2,0.8-3.2,1.1c-1.1,0.4-2.1,0.7-3.1,1.2c-0.8,0.4-2.2,0-2.3,1.3
				c-0.1,1.4,1.4,1,2.1,1.5c0.2,0.1,0.4,0.2,0.7,0.3c2.2,1,2.9,2.4,2.5,4.8c-0.1,0.6-0.3,1.3-0.3,1.9c-0.1,1.9,0.4,2.5,2.3,2.5
				c1.7,0,3.4-0.2,5-0.6c2.5-0.7,4.9-1.6,7.3-2.4c3-1.1,6-0.9,8.9,0.3c1.2,0.5,2.2,0.6,3.4,0.1c1.1-0.5,2.3-0.8,3.3-1.3
				c1.2-0.6,2.4-1.3,3.6-1.9c0-0.2-0.1-0.4-0.1-0.6c-2.1-0.7-4.2-1.5-6.3-2c-4.3-1.1-8.8-1.6-13-3.3c-1.2-0.5-2.4-0.9-3.6-1.3
				c-1-0.3-1.9-0.6-3.1-1c0.1,0.8,0.2,1.3,0.2,1.7c0.2,1.3,0.5,2.7,0.7,4c0.1,1.1-0.3,1.9-1.4,2.2c-1.1,0.2-1.8-0.3-2.2-1.3
				c-0.2-0.4-0.2-0.9-0.3-1.4C788.1,160.9,787.7,159.1,787.4,157.1z M687,136.7c0.1-1.5-0.8-1.5-1.6-1.6c-5.4-0.2-10.8-0.5-16.3-0.6
				c-5.9-0.1-11.6,0.9-17.2,2.5c-3.2,0.9-6.6,1.5-9.9,1.6c-5.3,0.2-10.5,1.3-15.6,2.2c-0.6,0.1-1.2,0.3-2,0.6c0.9,1.2,1.6,2.1,2,2.7
				c2-0.2,3.6-0.4,5.3-0.6c1-0.1,2.1-0.2,3.1-0.3c5.5-0.7,11.1-1.8,16.6-2.1c5.8-0.3,11.4-1.3,17-2.7c4.2-1.1,8.4-1.8,12.8-1.7
				C683,136.7,685,136.7,687,136.7z M621.6,184.3c1.4,0.2,2.4,0.4,3.4,0.4c8.6,0.5,16.8-1.7,24.9-4c1.6-0.4,2.8-1.5,3.3-3.2
				c0.6-2,0.2-2.8-1.8-3.4c-0.8-0.2-1.7-0.3-2.6-0.5c-3.5-0.8-6.6,0.5-9.7,1.6c-4.1,1.4-8.2,3-12.3,4.6
				C624.8,180.7,623,181.8,621.6,184.3z M808.8,185.9c0,1.4,0,2.8,0,4.1c0,0.4,0.1,0.8,0.2,1.3c7.1,0.2,14.1,0.9,21.2,0
				c-1.5-5.5-3-10.8-4.6-16.7c-0.3,1.1-0.4,1.7-0.5,2.3c-0.2,2-1.5,3.1-3.2,3.8c-0.7,0.3-1.4,0.4-2.1,0.6
				C816.3,182.8,812.6,184.3,808.8,185.9z M838.5,340.9c3.1,1.5,6.2,1.3,9.2,1.7c1.1-1.3,1.8-2.9,3.5-3.6c1.3-0.5,1.2-2.2,0.1-3.3
				c-1.1-1.1-1.2-2.4-0.6-3.7c0.3-0.6,0.6-1.3,1-1.9c-3.3-1.2-3.7-2.4-1.9-5.4c0.2-0.3,0.3-0.6,0.5-0.9c-0.1-0.1-0.2-0.2-0.3-0.4
				c-0.9,0.6-1.9,1-2.7,1.7c-2.2,1.7-4.5,3.4-6.7,5.1c-1.3,1-2,2.8-1.7,3.9C839.6,336.4,839.2,338.5,838.5,340.9z M647.9,159.8
				c1.1,0.2,2.3,0.5,3.4,0.7c0.9,0.2,2,0.1,2.8,0.5c2.4,0.9,4.8,1.1,7.3,1c1.4,0,2.9,0,4.3,0.1c5.6,0.1,11.2,0.2,16.8,0.3
				c3,0.1,5.4-1.5,8.1-2.7c-2-1.7-4.1-1.8-6.2-1.9c-5.8-0.1-11.5,0-17.3-0.1c-4.2-0.1-8.5-0.2-12.7-0.4
				C652.1,157.3,649.8,157.8,647.9,159.8z M593.5,195.4c-0.7-5.6-1.6-10.7-2.9-15.8c-2.5,0.1-3.6-1.7-5-3.3c-2.1,1-3.4,2.8-5.2,4.4
				c0.5,0.7,0.7,1.3,1.2,1.6c2.3,2,3.1,4.6,3.1,7.5c0,1.2,0.2,2.4,0.5,3.6c0.3,1.3,1.2,2.1,2.6,2.1
				C589.5,195.4,591.3,195.4,593.5,195.4z M689.8,250.2c-5-3.2-21.1-5.9-25.3-4.2c-0.1,1.3-0.3,2.8-0.4,4c4.2,0.7,8,1.2,11.8,2
				c3.3,0.7,6.4,1.8,9.7,2.7c1.6,0.5,1.9,0.4,2.7-1.1C688.8,252.5,689.3,251.3,689.8,250.2z M533.8,278.5c1.2,2,9.9,7.3,13.5,8.4
				c1.1-1,1-2.3,0.9-3.5c-0.2-3.7-0.5-7.5-0.7-11.2c-0.1-0.7-0.3-1.5-0.5-2.6c-1,0.6-1.7,1-2.3,1.4c-2.2,1.4-4.4,2.9-6.7,4.1
				C536.3,276,534.9,277.1,533.8,278.5z M674.5,319.5c0-0.2,0-0.3-0.1-0.5c-2.4,0.4-4.9,0.7-7.2,1.3c-1.4,0.3-1.5,1.5-0.4,2.3
				c1,0.7,2.3,1.2,3.5,1.4c4.5,0.8,9.2,0.7,13.7,1.8c2.1,0.6,4.5,0.3,6.5-0.8c1.9-1,2-2.5,0.2-3.6c-0.7-0.4-1.4-0.9-2.1-1.1
				c-3.2-0.7-6.4-1.4-9.7-1.1C677.5,319.2,676,319.3,674.5,319.5z M796.4,322.2c-1,1.4-1.1,2.4-0.1,3.5c1.3,1.6,1.2,2.9-0.1,4.5
				c-0.3,0.4-0.7,0.8-1,1.3c1.6,1.8,1.2,3.4-0.1,5.1c-0.6,0.8-1.1,1.7-1.6,2.6c2.7,1,5.9,0.7,10.8-0.7c-0.9-2.8-0.8-5.8-0.3-8.7
				c0.1-0.5,0-1,0.1-1.4c0.1-1-0.2-1.7-1.1-2.2C800.7,324.9,798.6,323.5,796.4,322.2z M715.4,106.2c7.8,1.8,15.4,3.6,23.1,5.4
				c0.2-0.9,0.4-1.8,0.7-2.9c-7.6-2.5-14.7-5.6-22.7-6.9C716.2,103.3,715.8,104.6,715.4,106.2z M782.5,252.1c0.1-0.6,0.2-1,0.1-1.5
				c0-0.8-0.1-1.6-0.3-2.4c-0.3-1.8-0.5-2.2-2.4-2.3c-2-0.1-4,0-5.9,0.3c-4.3,0.6-4.4,0.1-4.6,5.4c0,0.2,0.1,0.4,0.2,0.6
				C772.2,252.8,778.7,252.8,782.5,252.1z M609.8,126c-2.7,0.3-5.1,0.3-7.4,0.8c-4.6,1-4.6,1.1-3.3,5.6c0,0.1,0.2,0.2,0.5,0.4
				c3.6-0.7,7.3-1.4,11.3-2.2C610.6,129.2,610.3,127.8,609.8,126z M736.1,199.8c0.1-0.1,0.3-0.2,0.4-0.3c-0.4-1.5-0.8-3.1-1.2-4.6
				c-0.1-0.4-0.4-0.8-0.8-1.2c-2.3-2.3-4.6-4.7-6.9-7c-1-1-1.9-2.2-3.5-3c0.2,1.6,0.4,2.9,0.5,4.3c0.1,1.5,0.7,2.7,1.9,3.7
				c2.1,1.7,4.1,3.6,6.1,5.4C733.8,198.1,735,199,736.1,199.8z M723.4,204.1c-1.6-1.8-2.8-3.1-3.9-4.6c-0.7-1-1.1-2.1-1.8-3.1
				c-0.4-0.7-0.8-1.5-1.9-1.8c-0.6,3.1-0.5,5.7,2.4,7.4c0.2,0.1,0.4,0.3,0.6,0.4c1,0.8,1.2,1.8,0.9,3c-0.2,0.7-0.5,1.3-0.7,2
				c-0.5,1.6-1,3.2-1.6,5.2c2.1-0.9,3.6-1.6,5.1-2.3C722.9,208.1,723.1,205.9,723.4,204.1z M706.2,162.2c-1.5,1.6-2.9,3.2-3.1,5.5
				c0,0.4-0.1,0.9-0.3,1.1c-1.8,1.4-1.2,3-0.7,4.6c1.5,0.6,2.9,1.1,4.3,1.7c0.9-1.8,1.7-3.5,2.4-4.9
				C707.8,167.4,707,164.8,706.2,162.2z M724.3,149.8c-0.1-2-2.3-1.9-3.8-2.5c-0.8-0.3-1.4-0.1-1.8,0.6c-0.8,1.4-1.6,2.9-2.3,4.4
				c-0.8,1.8,0,3.3,1.8,3.9c0.7,0.2,1.4,0.2,1.8,0.2C721.4,154.2,722.7,152.2,724.3,149.8z M720.6,170.7c1.8-1.2,3.7-2.4,5.6-3.6
				c-0.6-4-1.2-4.9-3.7-5.7c-0.8,1.2-1.5,2.5-2.4,3.5c-1,1.1-2.2,2-3.2,2.9C718.3,168.9,719.5,169.8,720.6,170.7z M876.2,280
				c-5.1,2.8-7.7,7.9-12.2,11.5c1.3,0.3,2.2,0.5,3.2,0.8c2.4-2.1,4.8-4.2,7.1-6.4C876,284.5,876.7,282.6,876.2,280z M868.1,303.8
				c-1.8-0.4-3.2-0.7-4.7-1c-0.1,1-0.8,2.2,0.2,3.4c1.1,1.4,2.4,2.7,3.4,3.8c2.5-0.4,4.7-0.8,6.9-1.2c-0.4-1-0.7-2-1-2.9
				C869.5,305.5,869.5,305.5,868.1,303.8z M713.1,157.7c-0.8,0.6-1.8,1.3-2.8,2.1c0,2.4,0.2,4.6,1.2,6.9c2.5-2,5.6-3.1,6.9-6
				C716.7,159.6,715,158.7,713.1,157.7z M646.5,264c0.5-0.2,0.9-0.4,1.2-0.6c3.6-1.9,3.6-1.9,3-5.8c-0.2-1.6-0.6-3.1-2-4.2
				c-1.2,1.5-2.4,2.9-3.5,4.3c-0.3,0.4-0.5,1.2-0.3,1.7C645.4,260.9,646,262.4,646.5,264z M709.3,180c0,1.1-0.8,2.3,0.3,3.1
				c1.3,1,1.6,2.3,1.5,3.8c0,0.9,0.1,1.7,0.1,2.5c1.5,0.7,2.2,0.1,2.6-1.2c0.9-2.6,1.3-5.4,1.2-8.3C713.2,180,711.3,180,709.3,180z
				 M612.9,242.9c-1-1.7-2-3.5-3.3-5.7c-0.6,3.9-2.6,6.4-4.9,8.6c0.5,1.2,0.9,2.1,1.4,3.1C610,246.5,611.3,245.3,612.9,242.9z
				 M704.1,151.4c0.9,0.6,1.9,1.2,2.8,1.8c0.9,0.7,1.8,1.5,2.6,2.3c1.7-1.5,2-1.8,1.7-2.8c-0.8-2.8-1.7-5.5-3.4-7.8
				C706.2,146.1,706.2,146.1,704.1,151.4z M623.3,124.2c2.7-1.2,5.1-2.3,7.6-3.4c-1.5-2-2.9-3.8-4.2-5.5c-0.7-0.9-1.5-1-2.6-0.3
				C623.9,117.9,623.6,120.9,623.3,124.2z M724.1,199.5c0.7-1.3,1.2-2.2,1.8-3.2c-0.7-0.6-1.4-1.2-2-1.8c-1.7-1.4-2.7-3.1-2.9-5.3
				c-0.1-1.8-0.4-3.6-0.6-5.5c-0.1-0.7,0.1-1.5-1.1-1.5c-0.6,2.8-1.2,5.5-1.8,8.4C720.8,192.6,721.7,196.4,724.1,199.5z M615.6,240
				c0.8-1.6,1.4-2.8,2-3.9c1.2-2.4,1.2-4.5-1-6.4c-0.1-0.1-0.3-0.1-0.5-0.2c-1.4,1.2-2.9,2.3-4.4,3.5
				C613,235.3,614.2,237.4,615.6,240z M733.7,159.1c-3.3-1-6-2.1-7.9-5c-0.7,1.3-1.2,2.2-1.7,3.2c3.8,2.7,3.8,2.7,6.2,8.6
				C731.4,163.6,732.5,161.5,733.7,159.1z M700.8,139.7c-2.7,2.5-4.3,5.1-2.2,8.8c0.6,0.1,1.4,0.3,2.2,0.5c1.2-2.3,2.3-4.6,3.4-6.9
				C703.2,141.4,702.1,140.6,700.8,139.7z M853.8,354.3c0.1,0.5,0.2,0.9,0.3,1.2c1.4,3.1,3,6,5.4,8.5c1.3,1.3,2.7,2.5,4.2,3.6
				c1.9,1.3,4,1.4,6.2,0.6c-3.4-1.2-6.5-2.9-8.9-5.5C858.5,359.9,856.3,357.2,853.8,354.3z M617.8,262c1.8,0,3.4,0,4.9,0
				c0.8,0,1.3-0.2,1.7-0.9c0.5-0.9,1.2-1.8,1.9-2.8c-1-1.1-2-2.1-2.9-3.1C619.8,257.9,618.7,259.2,617.8,262z M627.1,236.6
				c0.6-1.8,1.1-3.2,1.4-4.5c0.2-0.8,0.2-1.9-0.2-2.4c-0.8-1.2-2-2.2-3.1-3.2c-0.1-0.1-0.7,0.2-1,0.3c-0.1,1,0,2-0.4,2.7
				c-1,1.9-0.2,3.3,1,4.7C625.5,234.7,626.1,235.4,627.1,236.6z M621.8,236.5c-1.3,2.3-2.4,4.5-3.7,6.8c0.7,0.8,1.5,1.7,2.5,2.8
				c1.6-2.1,3-4,4.5-5.9C624,238.8,622.9,237.7,621.8,236.5z M705.6,157.3c-1.1-1.5-2.7-2.2-4.5-3c-0.6,0.5-1.3,0.9-1.9,1.4
				c0.3,2.4,0.6,4.7,1,7.3C702.1,161,703.8,159.3,705.6,157.3z M641.6,261.5c-2.1,1-3.9,1.9-5.8,2.9c0.7,1.5,1.2,2.7,1.8,3.9
				c2-0.5,3.9-0.7,5.5-2.1C642.6,264.6,642.1,263.2,641.6,261.5z M620.4,252c-3.7,1.6-7.5,2.9-10,6.6c1.1,0.9,2.1,1.7,3.5,2.9
				C614.7,257,618.2,255,620.4,252z M733.9,167.3c2.1,1.1,4.2,0.7,6.4,0.4c0.3-3-1.4-4.8-3.3-6.7
				C735.9,163.3,734.9,165.2,733.9,167.3z M603.4,264.6c0.8-2.2,1.5-4.2,2.2-6.4c-0.4-0.7-0.8-1.5-1.3-2.4c-1.8,1.5-3.4,2.8-4.3,4.7
				C600.7,262.3,601.4,263.9,603.4,264.6z M640.3,257.7c-0.7-1.1-1.1-1.8-1.6-2.4c-0.8-1-1.7-1.2-2.6-0.3c-1.3,1.3-2.5,2.7-3.8,4.1
				c0.4,0.5,0.9,1.3,1.5,2C636,259.9,638,258.9,640.3,257.7z M615.9,221.7c-1.9-1.4-3.4-2.4-4.7-3.7c-1.3-1.3-2.2-2.8-3.4-4.4
				c-1.2,1.7-1.1,3.6-1.2,5.5C609.6,219.9,612.5,220.7,615.9,221.7z M859.1,301.7c0.9-2.6,1.8-5.2,2.7-7.9c-2.7,2-5.4,4-8.1,6
				C855.7,300.6,857.4,301.2,859.1,301.7z M710.1,176c2.3,0,4.2,0,6.1,0c0.2-0.5,0.4-0.8,0.6-1.2c0.8-1.8,0.4-2.6-1.4-3
				c-0.9-0.2-1.8-0.2-2.9-0.4C711.7,172.9,711,174.3,710.1,176z M608.1,254.5c3.1-2,6.2-4,9.4-6.1c-0.7-0.8-1.4-1.5-1.8-2
				c-2.5,1.9-4.9,3.7-7.2,5.5C607.2,253,607.3,253,608.1,254.5z M736.8,205.1c-2.7-2.1-5.2-4-7.6-5.8c-0.1-0.1-0.3,0-0.6,0
				c-0.2,0.5-0.4,1.1-0.6,1.5c1.9,1.9,3.7,3.6,5.7,5.6C734.4,206,735.5,205.6,736.8,205.1z M656.3,260.6c0.3-1.4,0.5-2.9,0.9-4.3
				c0.6-2.5,0.3-2.9-2.1-3.5c-0.6-0.1-1.2-0.3-1.6-0.4c0.4,2.5,0.9,4.8,1.3,7.2C654.9,260.5,655.2,261,656.3,260.6z M630.7,246.3
				c-1-1.3-1.8-2.3-2.8-3.4c-1.7,2.2-3.2,4.1-4.8,6.1c0.4,0.3,0.6,0.6,0.7,0.5C626.1,248.6,628.3,247.5,630.7,246.3z M595.4,259.8
				c-3.3-0.3-5.3,3-3.5,7.4c1,0,1.6-0.2,1.8-1.4c0.3-1.5,0.9-3,1.4-4.5C595.3,260.8,595.3,260.3,595.4,259.8z M632.1,234.3
				c-0.8,1.9-1.4,3.5-2.1,5.1c0.8,0.9,1.5,1.7,2.4,2.7c0.8-1.7,1.4-3,2.1-4.5C633.8,236.6,633,235.6,632.1,234.3z M840.8,349.1
				c1.3-1,2.4-1.9,3.6-2.9c-2.6-0.5-4.9-0.9-7.8-1.5C837.7,347.3,839.9,347.7,840.8,349.1z M632.4,253.8c-0.8-1.1-1.5-2-2.1-2.9
				c-1.2,0.7-2.3,1.4-3.6,2.1c1.1,1.2,1.9,2.1,2.8,3c0.7-0.6,1.2-0.9,1.7-1.3C631.6,254.3,632,254.1,632.4,253.8z M711.5,138.8
				c-1.3-2.4-3.5-2.7-7-0.9C706.8,138.7,708.8,140.5,711.5,138.8z M620.8,217.9c0.2-0.1,0.3-0.2,0.5-0.2c-0.4-1.7-0.8-3.5-1.4-5.2
				c-0.5-1.5-1.1-1.9-2.9-2.4C618.2,212.8,619,215.6,620.8,217.9z M711.4,143.1c0.8,1.7,1.6,3.2,2.4,4.9c0.7-1,1.3-1.9,2-2.8
				c-0.9-0.9-1.7-1.8-2.5-2.7C712.7,142.7,712.1,142.9,711.4,143.1z M612.7,209.2c-0.7,0.5-1.2,1-1.8,1.4c1.2,2.1,1.8,4.3,4.4,5.6
				C614.4,213.8,613.6,211.7,612.7,209.2z M634.2,270.1c-0.5-1-0.9-1.9-1.3-2.8c-3,2.6-3.4,3.4-2.5,5.2
				C631.5,271.8,632.7,271,634.2,270.1z M601.9,249.2c-0.2,0-0.5-0.1-0.7-0.1c-0.9,2.1-1.9,4.1-2.8,6.2c0.2,0.1,0.4,0.3,0.6,0.4
				c1.2-1.4,2.4-2.8,3.7-4.3C602.4,250.8,602.2,250,601.9,249.2z M651.3,269.9c0-1.4,0-2.5,0-3.7c-2.2,0.6-3.4,1.3-3.7,2.1
				c-0.1,0.4,0.1,0.9,0.2,1.3C648.9,269.7,650,269.8,651.3,269.9z M633.6,228.3c-0.3,1.8,0.9,3.6,2.9,4.8
				C637.3,230.8,636.7,230.1,633.6,228.3z M628.4,266.2c0.8-0.9,1.5-1.8,2.3-2.7c-0.6-0.7-1.1-1.4-1.6-2.1
				C627,263.8,626.9,263.9,628.4,266.2z M634.6,277.5c2.1-2,2.1-2,0.9-3.8c-0.9,0.6-1.7,1.2-2.8,1.9
				C633.5,276.4,634.1,277,634.6,277.5z M726.8,209.1c1-0.4,1.8-0.7,2.7-1.1c-0.9-0.9-1.5-1.6-2.4-2.4c-0.2,1-0.3,1.7-0.4,2.4
				C726.7,208.2,726.8,208.4,726.8,209.1z M624.9,222.3c-1.4-1.5-1.4-1.5-4.2,1.4C622.3,223.2,623.5,222.8,624.9,222.3z
				 M705.2,180.4c0.1-1.8-0.1-1.9-2.6-2.1C702.8,179.9,704.1,179.9,705.2,180.4z M655.4,265.7C655.3,265.7,655.3,265.7,655.4,265.7
				c-0.1,1.4-0.1,2.8-0.1,4.2c0,0,0,0,0.1,0C655.4,268.5,655.4,267.1,655.4,265.7z M610,263.3c-0.6-0.6-1-0.9-1.7-1.4
				c-0.2,0.8-0.3,1.3-0.5,2.1C608.6,263.7,609.1,263.6,610,263.3z M644.4,252.6c-0.1-0.1-0.1-0.2-0.2-0.4c-0.7,0.2-1.3,0.5-2.2,0.8
				c0.4,0.5,0.7,0.9,1,1.4C643.6,253.7,644,253.2,644.4,252.6z"/>
			<path d="M721.7,349c1.4,1,2.8,2.2,4.4,3.1c0.7,0.4,1.7,0.6,2.4,0.4c1.8-0.6,3.5-1.5,5.2-2.3c4.3-2.2,8.6-4.5,13-6.7
				c0.3-0.2,0.8-0.3,1.1-0.3c1-0.1,1.9,0.1,2.3,1.2c0.4,1-0.1,1.9-1.3,2.5c-2.5,1.2-5.1,2.3-7.6,3.5c-1.6,0.8-3.2,1.5-4.6,2.6
				c-2.1,1.6-4.4,2.6-6.9,3.3c-2.5,0.7-4.9,0.7-6.8-1.6c-0.5-0.6-1.4-1.1-2.2-1.3c-4.3-0.8-8.6-1.5-13-2.2c-1.2-0.2-2.4,0.2-3.6,0.3
				c-2.1,0.1-4.1,0.4-6.2,0.3c-3.5-0.3-6.9-0.2-9.8,2c-0.1,0-0.1,0.1-0.2,0.1c-6.2,2.1-9.4,7.1-12.2,12.5c-0.4,0.8-0.5,1.7-0.9,2.5
				c-0.4,0.9-1.1,1.4-2.1,1.2c-1-0.2-1.6-0.8-1.6-1.8c0-0.8,0.2-1.6,0.5-2.3c1.6-3.7,3.7-7.1,6.4-10.1c1.2-1.3,2.5-2.5,4-3.4
				c2.3-1.4,4.8-2.6,7.2-3.7c2.6-1.2,5.3-1,8-0.8c2.3,0.1,4.6,0.2,6.9-0.3c3.3-0.7,6.5,0.2,9.8,0.5c1.2,0.1,2,0,3-0.8
				c3-2.4,6.1-4.6,9.1-7c1.5-1.2,3.1-1.5,4.9-1.7c1.3-0.1,2.2,0.5,2.4,1.5c0.2,1-0.5,2-1.8,2.1c-2.4,0.2-3.9,1.6-5.5,3.1
				C724.7,346.5,723.1,347.8,721.7,349z"/>
			<path d="M811.8,243.6c0.2-1.6,0.4-3.1,0.6-4.7c0.2-1.9-0.8-3.3-2.3-4.1c-1.5-0.8-3.2-1.6-4.8-2c-5-1.4-10.1-2.6-15.1-3.9
				c-0.9-0.2-1.8-0.7-2.5-1.2c-0.8-0.6-0.9-1.5-0.4-2.4c0.5-0.8,1.2-0.9,2.1-0.7c5.7,1.5,11.4,3,17.1,4.5c1.8,0.5,3.5,1.2,5.1,2.1
				c3.8,2.1,5.2,5.1,4.5,9.4c-0.1,0.9-0.1,1.7-0.2,2.7c1,0.4,1.8,0.8,2.7,1.2c1.5,0.8,2.1,2,1.7,3.3c-0.3,1.2-1.3,1.9-3,1.8
				c-1.2-0.1-2.5-0.4-3.7-0.8c-2.2-0.8-4.3-1.7-6.4-2.8c-2.9-1.4-5-0.4-7,1.7c-0.4,0.4-0.7,0.9-1.1,1.2c-0.7,0.6-1.5,0.6-2.2,0.1
				c-0.8-0.5-0.9-1.3-0.6-2.1c0.1-0.4,0.4-0.9,0.7-1.2c1.6-1.4,3.1-2.8,4.8-3.9c0.9-0.5,2.4-0.5,3.5-0.3
				C807.4,242.1,809.6,242.9,811.8,243.6z"/>
			<path d="M832,263.7c0.3-1.7,0.5-3.5,0.8-5.2c0.1-0.6,0.2-1.3,0.4-1.9c0.4-1,1.3-1.6,2.3-1.3c1,0.3,1.4,1,1.4,2
				c-0.1,1.1-0.4,2.2-0.5,3.3c-0.1,0.9-0.2,1.7-0.4,2.9c1.2,0.5,2.4,0.9,3.6,1.3c0.7,0.2,1.4,0.3,2.1,0.6c1.3,0.5,1.8,1.5,1.3,2.6
				c-0.5,1.1-1.5,1.6-2.8,1.2c-1.2-0.4-2.4-0.8-3.6-1.4c-1.5-0.7-2.7-0.8-3.9,0.4c-0.1,0.1-0.1,0.1-0.2,0.1
				c-0.9,0.6-1.8,0.7-2.6-0.1c-0.7-0.7-0.8-1.9,0-2.8C830.5,264.9,831.3,264.3,832,263.7z"/>
			<path d="M745.1,300.5c-0.1,0.3-0.3,1.1-0.7,1.6c-0.9,1-2.6,0.5-2.9-1c-0.2-1.2-0.7-2-1.8-2.6c-1.8-1.1-2.3-3-2.5-4.9
				c-0.1-1.3,0.5-2.2,1.5-2.3c1.1-0.2,2.2,0.5,2.3,1.8c0.1,1.6,0.9,2.4,2.2,3.2C744.6,297,745,298.5,745.1,300.5z"/>
			<path d="M540.8,337.1c0.3-0.8,0.7-2.4,1.5-3.7c1.5-2.5,3.1-4.9,4.9-7.1c2.6-3,3.3-6.3,2.4-10c-0.2-0.8-0.2-1.7-0.2-2.6
				c-0.1-3.2,1-4.8,4-6.1c1-0.4,1.9-0.4,2.5,0.5c0.6,0.9,0.3,1.8-0.5,2.6c-0.1,0.1-0.1,0.1-0.2,0.2c-2.6,1.1-2.2,3.2-1.8,5.2
				c0.9,4.5,0.1,8.5-2.9,12.1c-1.7,2.1-3.2,4.4-4.7,6.6c-1.6,2.3-1.4,4.5,0.2,6.7c0.4,0.5,0.7,1,1.1,1.6c0.6,0.9,0.7,1.8-0.1,2.6
				c-0.7,0.7-2.1,0.7-2.8-0.2C542.4,343.2,540.9,340.9,540.8,337.1z"/>
			<path d="M570.3,322.2c-0.1,0.5,0,1-0.2,1.4c-0.2,0.9-0.8,1.3-1.7,1.3c-0.9,0-1.5-0.4-1.8-1.3c-0.1-0.5-0.2-0.9-0.2-1.4
				c-0.1-1.3-0.6-2.5-1.7-3.3c-0.5-0.3-0.9-0.7-1.2-1.2c-0.5-0.8-0.5-1.7,0.2-2.4c0.7-0.6,1.4-0.7,2.2-0.2
				C568.6,316.8,570.3,319,570.3,322.2z"/>
			<path d="M789.1,131.7c-2.5-0.1-4.6-0.8-6.4-2.4c-1.8-1.7-2.4-3.8-1.7-6.1c0.7-2.3,2.5-4.4,4.8-4.5c3.5-0.2,7.2,0.3,9.9,3.2
				c2.3,2.5,1.3,7.4-1.9,8.7C792.2,131.3,790.6,131.4,789.1,131.7z M789.4,127.6c0.3,0,0.7,0,1.2,0c1.1-0.1,2-0.5,2.2-1.8
				c0.2-1.1-0.4-1.8-1.3-2.3c-1.7-1-3.5-1-5.3-0.8c-0.6,0.1-1.4,0.9-1.5,1.6c-0.2,0.6,0.1,1.6,0.6,2.1
				C786.3,127.6,787.7,127.7,789.4,127.6z"/>
			<path d="M792.3,356.1c1.1,0.1,1.8,0.6,1.8,1.6c0,1.2,0.7,1.6,1.6,2.1c1.5,0.7,2.3,2,2.4,3.6c0.1,1.6,0.5,2.9,2.1,3.8
				c0.8,0.5,1.3,1.4,1.9,2.2c0.8,1.2,1.4,2.4,3,2.8c1,0.3,1.2,1.4,0.8,2.4c-0.5,1.2-1.8,1.8-3,1.2c-1-0.6-2-1.4-2.7-2.3
				c-1.2-1.7-2.4-3.3-4.1-4.6c-0.9-0.7-1.3-2.2-1.5-3.4c-0.3-1.3-0.7-2.3-2-2.9c-1.9-1-2.7-2.7-2.3-4.6
				C790.6,356.8,791.2,356.2,792.3,356.1z"/>
			<path d="M828.3,357.9c-0.3-0.4-1.1-0.9-1.4-1.6c-0.6-1.6-1.1-3.2-1.3-4.8c-0.3-1.7-1.2-2.9-2.7-3.7c-0.9-0.4-1.7-0.9-2.5-1.4
				c-1.2-0.8-1.4-2-0.8-2.9c0.6-0.9,1.5-1,2.7-0.3c0.6,0.3,1.1,0.7,1.7,0.9c3.1,1.4,5,3.7,5.4,7.3c0.1,1.2,0.8,2.4,1.1,3.6
				C831.1,356.6,830.2,357.9,828.3,357.9z"/>
			<path d="M749,127.5c-1.4-4.3-1.2-8.5,0.3-12.6c0.4-1,0.9-2.1,1.7-2.9c0.5-0.5,1.6-0.8,2.3-0.7c1.3,0.1,1.8,1.7,1,2.8
				c-2.9,3.7-2.8,7.8-1.7,12.1c0.5,1.8,0.6,3.6,0.8,5.4c0.1,0.9-0.4,1.5-1.3,1.8c-0.9,0.3-1.5,0-2.1-0.7c-1.5-1.6-2.3-1.7-3.8-0.2
				c-0.4,0.4-0.7,0.8-1.1,1.4c0.5,0.4,0.9,0.7,1.4,1c3,2.2,3,4.8,0,6.9c-0.9,0.6-1.8,1.1-2.6,1.7c-0.8,0.7-1.5,1.6-2.4,2.6
				c1,0.6,1.6,1,2.3,1.4c0.9,0.6,2,1.1,2.9,1.7c1.3,1,1.9,2.4,1.6,4c-0.3,1.5-0.8,2.9-1.3,4.3c-0.3,0.9-1.1,1.3-2.1,1.1
				c-1-0.2-1.6-0.9-1.5-1.9c0.1-0.9,0.4-1.7,0.6-2.5c0.6-1.9,0.6-2-1.2-3c-0.8-0.4-1.6-0.8-2.3-1.3c-2.7-1.8-3.3-4.4-1.3-7
				c1.2-1.5,2.9-2.7,4.4-4c0.3-0.3,0.6-0.5,1.1-0.9c-0.8-0.5-1.4-1-2-1.4c-2.2-1.5-2.4-2.9-0.8-5C743.5,129.6,745.6,127.5,749,127.5
				z"/>
			<path d="M878.1,333.3c0.3,1,0.5,2,0.7,2.9c1-0.3,2-0.8,3-0.9c1-0.1,2.1-0.2,3.1,0.1c1,0.2,1.6,1.1,1.4,2.2
				c-0.2,1-0.9,1.5-1.9,1.4c-1.7-0.2-3.1,0.5-4.6,1.2c-3,1.3-5.9,0.9-8.3-1c-1.1-0.9-1.9-2.3-2.6-3.6c-0.5-0.9-0.1-1.9,0.9-2.4
				c0.9-0.5,1.7-0.1,2.4,0.9c0.5,0.7,1,1.5,1.7,2.2c-1.2-2.3,0.1-3.8,1.3-5.2c0.8-1,1.8-1.8,2.8-2.6c0.9-0.8,1.3-1.6,0.8-2.7
				c-0.4-1-1.3-1.1-2.2-1.1c-3,0.2-6,0.4-8.5,2.2c-1.3,0.9-2.3,2.4-3.3,3.7c-0.9,1.1-1.6,1.6-2.5,1.2c-1-0.4-1.4-1.6-0.9-2.9
				c1.4-3.1,3.8-5.4,7.1-6.4c2.8-0.9,5.8-1.2,8.7-1.5c2.6-0.2,4.4,1.1,5.2,3.4c0.9,2.4,0.7,4.6-1.2,6.4
				C880.3,331.4,879.2,332.3,878.1,333.3z"/>
			<path d="M745.6,247.5c1.1-0.1,2.4-0.3,3.7-0.4c0.5-0.1,1.3-0.2,1.6,0.1c1.3,1.2,2.7,2.4,3.6,3.9c0.8,1.2-0.8,2.9-2.4,2.6
				c-1.1-0.2-2.1-1-3.4-1.7c-1.3,0.2-3.1,0.1-4.9,0.7c-2,0.7-3.6-0.9-3.2-3.1c0.2-1.1,0.7-2.1,0.9-3.2c0.2-1.2,0.3-2.5,0.4-3.8
				c-1.9-0.2-3.1,0.7-4.2,1.5c-2,1.5-3.9,3.1-5.8,4.6c-0.5,0.4-1,0.8-1.6,1c-0.8,0.4-1.6,0.1-2.1-0.6c-0.6-0.7-0.5-1.5-0.1-2.2
				c0.1-0.1,0.2-0.3,0.3-0.4c3.3-2.4,6-5.5,9.8-7.2c0.9-0.4,1.8-0.7,2.7-0.8c2.2-0.3,3.8,0.7,4.3,2.8
				C745.6,243.1,745.5,245.1,745.6,247.5z"/>
		</g>
	</g>
	<g>
		<path d="M138.8,280.1c0.4-1.2,0.7-2.4,1.1-3.5c0.6-1.6,1.7-2.6,3.4-3.1c2-0.5,3.9-0.7,5.9-0.3c2,0.4,4.1,0.8,6.1,1.4
			c0.9,0.2,1.8,0.6,2.7,1c1.5,0.8,2.3,2,2,3.7c-0.2,1.7-0.9,3.5-0.7,5.2c0.3,1.6,1.7,3.1,2.2,4.7c1.1,2.9,1.7,6,1.8,9.1
			c0.1,9,0.4,18.1,0.6,27.1c0.2,8.6,0.3,17.3,0.5,25.9c0,3.5-0.4,7-1.5,10.4c-1.3,3.6-3.5,6.3-7.6,6.6c-5.6,0.4-11.2,1.2-16.7,1
			c-4.2-0.2-8.3-0.1-12.4-0.2c-1.7,0-3.3-0.3-5-0.6c-4.4-0.8-7.1-3.6-8.5-7.6c-0.8-2.1-1.2-4.3-1.4-6.5c-0.9-11.2-1.1-22.4-0.7-33.6
			c0.1-3.7,1.1-7.1,2.7-10.3c1.4-2.8,2.9-5.5,4.4-8.3c3.4-6.2,7.7-11.7,12.2-17.2C132.7,281.6,134.1,280.9,138.8,280.1z M159.5,296
			c-0.5-2-1-3.6-1.4-5.2c-0.6-2.4-2.2-3.7-4.4-4.7c-4-1.7-8.2-2.1-12.4-2.2c-3.6-0.1-6.7,1-9,4.1c-2.9,4-6.1,7.8-8.8,12
			c-2.6,4.1-4.9,8.4-7.1,12.8c-1.2,2.4-2,5-2.1,7.8c-0.6,11.4-0.2,22.7,0.7,34c0.1,1.7,0.5,3.5,1.1,5.1c1,2.8,2.8,4.9,5.9,5.3
			c1.7,0.2,3.3,0.4,5,0.4c3,0.1,6.1-0.3,9.1,0c6.4,0.7,12.8,0,19.1-0.9c0.7-0.1,1.6-0.4,2.1-0.9c2.1-2,2.6-4.6,2.8-7.5
			c-2,0.3-3.6,0.6-5.3,0.9c-6.9,1.1-11.7-2.9-11.6-9.8c0.1-3.7,0.5-7.3,0.9-11c0.8-7.5,1.6-15.1,2.4-22.6c0.4-4,0.9-7.9,1.5-11.9
			c0.6-4,3.2-5.9,7.2-5.8C156.5,296,157.8,296,159.5,296z M160.3,352c0.5-3.6-0.5-49.3-1.1-52.2c-1.2,0-2.5,0-3.7,0
			c-2.6-0.1-3.4,0.5-3.7,3c-0.7,5.4-1.2,10.8-1.8,16.2c-0.6,5.6-1.3,11.3-1.8,16.9c-0.4,4-0.9,7.9-1,11.9c-0.1,3.7,2.3,5.8,6,5.5
			C155.5,353.1,157.9,352.5,160.3,352z M156.3,278.7c-3.3-0.7-6.4-1.3-9.4-1.9c-0.4-0.1-0.8,0-1.2,0.1c-2.1,0.3-2.3,0.6-2.4,2.8
			c4.1,0.9,8.2,1.7,12.4,2.6C155.8,281.3,156,280.2,156.3,278.7z"/>
		<path d="M126.8,331.8c-1.6-0.2-3.2-0.3-4.7-0.6c-2-0.5-3-1.9-3.1-4c-0.1-3.9,1.1-7.4,2.5-10.9c2-5,4.9-9.5,7.9-14
			c1-1.5,1.8-3,2.8-4.5c0.7-1,1.4-2,2.3-2.7c2-1.5,4.7-0.6,5.4,1.8c0.3,1.1,0.4,2.4,0.1,3.5c-1.8,8.4-3.7,16.8-5.5,25.3
			c-0.2,0.7-0.3,1.4-0.6,2.1c-1.1,2.7-2.7,3.8-5.7,3.9c-0.5,0-1,0-1.4,0C126.9,331.7,126.8,331.8,126.8,331.8z M122.9,327.4
			c2,0.7,4.1,0.5,6.1,0.3c0.6-0.1,1.2-1,1.5-1.7c0.4-1,0.5-2.2,0.8-3.2c1.7-7.5,3.3-15.1,5-22.6c0.1-0.3,0-0.6,0.1-1
			c-1.4,1.7-2.6,3.5-3.7,5.3c-3.4,5.2-6.8,10.4-8.7,16.4C123.3,323,122.6,325,122.9,327.4z"/>
	</g>
	<g>
		<path d="M114.9,469.3c-0.4-0.8-0.8-1.4-1.2-1.6l-0.3-0.3c0.5-0.3,1-0.7,1.4-1.3c0.5-0.6,0.8-1.2,0.9-1.8c0-0.1,0-0.2,0-0.7
			c0-0.8-0.1-1.5-0.2-2.1c-0.2-1-0.7-1.9-1.5-2.8c-0.6-0.7-1.4-1.1-2.1-1.4c-0.4-0.1-0.7-0.2-1-0.2c-0.4,0-0.6,0.2-0.7,0.3l-0.1,0.1
			v0c-0.1,0.2-0.1,0.9-0.2,3c0,2,0,3.9-0.1,5.8c0,0.6,0,1.5,0,2.6c0,1.4,0,2.3,0,2.9c0,1.2,0.1,1.9,0.1,2.2c0.1,0.5,0.2,0.8,0.6,0.9
			c0.1,0,0.3,0.1,0.4,0.1c0.3,0,0.6-0.2,0.8-0.5c0.1-0.1,0.1-0.2,0.1-1.1c0-0.9,0-1.7,0-2.4c0-0.9,0-1.8,0-2.7c0,0,0,0,0,0
			c0.7,0.5,1.3,1.2,1.8,2.1c0.2,0.5,0.5,1.2,0.8,2c0.7,1.9,0.8,2,0.9,2c0.3,0.3,0.8,0.3,1.2,0c0.2-0.2,0.3-0.4,0.3-0.7
			c0-0.2-0.1-0.6-0.5-1.8C115.6,470.8,115.2,469.9,114.9,469.3z M111.7,466v-0.3c0-2.6,0-4.6,0.1-6c0-0.1,0-0.3,0-0.4
			c1.4,0.8,2.1,2.1,2.1,4.1c0,0.6,0,0.8,0,0.8c0,0-0.1,0.2-0.4,0.6c-0.4,0.6-0.6,0.8-0.7,0.8c-0.1,0-0.4,0.1-0.8,0.3
			C111.8,466,111.7,466,111.7,466z"/>
		<path d="M121.1,459.6c1.5,0,1.9-0.1,2-0.4c0.3-0.5,0.1-1-0.1-1.1c-0.2-0.2-0.6-0.3-1.3-0.3c-0.5,0-0.9,0-1.2,0h-0.4
			c-0.2,0-0.3,0-0.4,0c-0.2,0-0.5,0-0.6,0.1l-0.2,0c-0.1,0-0.2,0.1-0.3,0.1c-0.1,0.1-0.2,0.1-0.2,0.2l-0.1,0.1
			c0,0.1-0.1,0.2-0.1,2.3c0,2.3,0,5,0.1,8.2c0.1,4.9,0.2,5.1,0.2,5.2c0.1,0.3,0.4,0.6,0.7,0.6c0.1,0,0.4,0,1.6,0c0,0,0,0,0,0l1.9,0
			l0.1-0.3c0.2-0.4,0.3-0.6,0.2-0.9c-0.1-0.3-0.3-0.6-0.7-0.6c-0.1,0-0.4-0.1-1.3-0.1c-0.4,0-0.7,0-0.9,0c0-0.2-0.1-0.6-0.1-1.3
			c-0.1-1-0.1-2-0.1-2.8c0-0.4,0-0.7,0-0.9l0-0.2c0.4,0,0.9-0.1,1.1-0.5c0.1-0.1,0.1-0.3,0.1-0.5c0-0.3-0.1-0.9-1.3-0.9
			c0-0.2,0-1-0.1-3.4l0-2.7h0C120.4,459.6,120.7,459.6,121.1,459.6z"/>
		<path d="M130.4,473c-0.6-0.1-1.1-0.2-1.4-0.3c-0.3-0.2-0.6-0.4-0.8-0.7c-0.8-1.1-1.2-3-1.2-5.5c0-1.6,0.1-2.9,0.3-3.9
			c0.2-0.9,0.6-1.8,1.2-2.5c0.3-0.4,0.7-0.7,1-0.8c0.8-0.2,1-0.6,1-0.9c0-0.2-0.1-0.4-0.3-0.6c-0.2-0.2-0.4-0.3-0.6-0.3l-0.2,0
			c-0.2,0-0.3,0-0.4,0c-0.8,0.1-1.5,0.8-2.2,1.9c-0.8,1.2-1.3,2.8-1.5,4.7c-0.1,0.5-0.1,1.2-0.1,2.2c0,1.3,0,2.1,0.1,2.4
			c0.3,2.1,0.9,3.5,1.6,4.5c0.8,1,2,1.5,3.4,1.6h0.1c0.8,0,1.1-0.5,1.1-0.9C131.5,473.7,131.4,473.1,130.4,473z"/>
		<path d="M140.5,457.8c-0.2,0-0.4,0.1-0.7,0.3l0,0c-0.1,0.1-0.2,0.2-0.5,1c-0.2,0.5-0.4,1-0.6,1.6c-0.2,0.5-0.3,0.8-0.4,1
			c-0.2,0.6-0.2,0.7-0.2,0.8c0,0,0,0.1-0.2,0.4c-0.2-0.3-0.6-0.9-1.2-1.7c-1.6-2.3-1.7-2.3-1.7-2.4c-0.5-0.5-1-0.5-1.4,0
			c-0.1,0.2-0.2,0.4-0.2,0.6c0,0.2,0,0.3,2.1,3.3c1.1,1.6,1.5,2.2,1.6,2.3c0,0.2,0.1,1.2,0.1,4.6c0.1,4.7,0.1,4.8,0.1,4.9
			c0.1,0.2,0.2,0.4,0.3,0.5c0.1,0.1,0.3,0.2,0.5,0.2c0,0,0.1,0,0.1,0c0.4,0,0.6-0.2,0.6-0.3c0.2-0.2,0.2-0.5,0.2-0.8
			c0-0.1,0-0.3,0-0.5c0-0.2,0-0.4,0-0.8c0-0.3,0-0.7,0-1c0-0.4,0-1.9-0.1-4.7l-0.1-2l0.4-0.7c0.1-0.3,0.3-0.6,0.3-0.7
			c0.1-0.2,0.1-0.3,0.2-0.5c0.1-0.2,0.2-0.4,0.3-0.7c1.2-2.9,1.3-3.6,1.3-3.9C141.3,458,140.9,457.8,140.5,457.8z"/>
		<path d="M148.4,473c-0.6-0.1-1.1-0.2-1.4-0.3c-0.3-0.2-0.6-0.4-0.8-0.7c-0.8-1.1-1.2-3-1.2-5.5c0-1.6,0.1-2.9,0.3-3.9
			c0.2-0.9,0.6-1.8,1.2-2.5c0.3-0.4,0.7-0.7,1-0.8c0.8-0.2,1-0.6,1-0.9c0-0.2-0.1-0.4-0.3-0.6c-0.2-0.2-0.4-0.3-0.6-0.3l-0.2,0
			c-0.2,0-0.3,0-0.4,0c-0.8,0.1-1.5,0.8-2.2,1.9c-0.8,1.2-1.3,2.8-1.5,4.7c-0.1,0.5-0.1,1.2-0.1,2.2c0,1.3,0,2.1,0.1,2.4
			c0.3,2.1,0.9,3.5,1.6,4.5c0.8,1,2,1.5,3.4,1.6h0.1c0.8,0,1.1-0.5,1.1-0.9C149.5,473.7,149.4,473.1,148.4,473z"/>
		<path d="M153.6,473c-0.2,0-0.3,0-0.4,0c0-0.7-0.1-2.8-0.1-8.6c-0.1-5.2-0.1-5.3-0.1-5.4c-0.3-0.6-0.7-0.7-0.9-0.7
			c-0.2,0-0.4,0.1-0.5,0.3l0,0c-0.2,0.2-0.2,0.2-0.2,6.9c0,7.7,0.1,8,0.1,8.2c0.1,0.4,0.2,1,0.7,1.2c0.1,0.1,0.1,0.1,1.2,0.1
			c0.3,0,0.5,0,0.8,0c0.2,0,0.4-0.1,0.7-0.2c0.3-0.2,0.4-0.5,0.4-0.7c0-0.2-0.1-0.4-0.3-0.7C154.6,473.2,154.3,473.1,153.6,473z"/>
		<path d="M159.7,459.6c1.5,0,1.9-0.1,2-0.4c0.3-0.5,0.1-1-0.1-1.1c-0.2-0.2-0.6-0.3-1.3-0.3c-0.5,0-0.9,0-1.2,0h-0.4
			c-0.2,0-0.3,0-0.4,0c-0.2,0-0.5,0-0.6,0.1l-0.2,0c-0.1,0-0.2,0.1-0.3,0.1c-0.1,0.1-0.2,0.1-0.2,0.2l-0.1,0.1
			c0,0.1-0.1,0.2-0.1,2.3c0,2.3,0,5,0.1,8.2c0.1,4.9,0.2,5.1,0.2,5.2c0.1,0.3,0.4,0.6,0.7,0.6c0.1,0,0.4,0,1.6,0c0,0,0,0,0,0l1.9,0
			l0.1-0.3c0.2-0.4,0.3-0.6,0.2-0.9c-0.1-0.3-0.3-0.6-0.7-0.6c-0.1,0-0.4-0.1-1.3-0.1c-0.4,0-0.7,0-0.9,0c0-0.2-0.1-0.6-0.1-1.3
			c-0.1-1-0.1-2-0.1-2.8c0-0.4,0-0.7,0-0.9l0-0.2c0.4,0,0.9-0.1,1.1-0.5c0.1-0.1,0.1-0.3,0.1-0.5c0-0.3-0.1-0.9-1.3-0.9
			c0-0.2,0-1-0.1-3.4l0-2.7h0C159,459.6,159.3,459.6,159.7,459.6z"/>
		<path d="M169.9,460.2c-0.2-0.3-0.5-0.6-0.9-1c-0.4-0.4-0.8-0.7-1.1-0.9c-1-0.6-2-0.9-2.9-0.9c-0.3,0-0.5,0-0.6,0.1
			c-0.4,0.1-0.6,0.4-0.6,0.5c0,0.1-0.1,0.3-0.1,0.9c0,0.7,0,2,0.1,4c0.1,1.9,0.1,3.1,0.1,3.6c0.1,4.4,0.2,6.9,0.4,7.7
			c0.1,0.3,0.3,0.8,1.3,0.8h0.2c1,0,2-0.3,2.9-0.8c1.4-0.8,2.3-2.3,2.7-4.3c0.1-0.4,0.1-1.1,0.1-2.3c0-1.3,0-2.2-0.1-2.7
			C171.3,463,170.7,461.4,169.9,460.2z M166,473.1c-0.1-0.4-0.1-1.4-0.3-4.7c0-0.2,0-1-0.1-2.5c0-1.5-0.1-2.8-0.1-3.9
			c0-1.1-0.1-1.9-0.2-2.4c0-0.1,0-0.1,0-0.2c0.1,0,0.3,0.1,0.5,0.1l0,0c0.9,0.3,1.6,0.7,2.1,1.4c0.9,1.1,1.5,2.8,1.7,5.1
			c0,0.6,0.1,1.1,0.1,1.6c0,1.5-0.1,2.1-0.1,2.4c-0.4,1.8-1.5,2.9-3.1,3.2C166.3,473,166.2,473.1,166,473.1z"/>
		<path d="M298.4,460.2c-0.2-0.3-0.5-0.6-0.9-1c-0.4-0.4-0.8-0.7-1.1-0.9c-1-0.6-2-0.9-2.9-0.9c-0.3,0-0.5,0-0.6,0.1
			c-0.4,0.1-0.6,0.4-0.6,0.5c0,0.1-0.1,0.3-0.1,0.9c0,0.7,0,2,0.1,4c0.1,1.9,0.1,3.1,0.1,3.6c0.1,4.4,0.2,6.9,0.4,7.7
			c0.1,0.3,0.3,0.8,1.3,0.8h0.2c1,0,2-0.3,2.9-0.8c1.4-0.8,2.3-2.3,2.7-4.3c0.1-0.4,0.1-1.1,0.1-2.3c0-1.3,0-2.2-0.1-2.7
			C299.7,463,299.2,461.4,298.4,460.2z M294.5,473.1c-0.1-0.4-0.1-1.4-0.3-4.7c0-0.2,0-1-0.1-2.5c0-1.5-0.1-2.8-0.1-3.9
			c0-1.1-0.1-1.9-0.2-2.4c0-0.1,0-0.1,0-0.2c0.1,0,0.3,0.1,0.5,0.1l0,0c0.9,0.3,1.6,0.7,2.1,1.4c0.9,1.1,1.5,2.8,1.7,5.1
			c0,0.6,0.1,1.1,0.1,1.6c0,1.5-0.1,2.1-0.1,2.4c-0.4,1.8-1.5,2.9-3.1,3.2C294.7,473,294.6,473.1,294.5,473.1z"/>
		<path d="M310.3,461.2c-0.5-1.7-1.4-2.8-2.6-3.3c-0.3-0.2-0.8-0.2-1.5-0.2c-0.3,0-0.6,0-0.8,0h0c-0.8,0.1-1.4,0.4-2,1
			c-0.9,0.8-1.4,2-1.5,3.5c-0.1,0.8-0.1,1.9-0.1,3.2c0,0.4,0,0.6,0.1,0.8c0,0.1,0,0.4,0,1.3c0,1.2,0.2,2.5,0.5,3.7
			c0.2,0.9,0.5,1.6,0.8,2.1c0.3,0.5,0.8,0.9,1.3,1.3c0.6,0.4,1.2,0.5,1.9,0.5c1,0,1.9-0.3,2.5-0.9c0.8-0.7,1.3-1.8,1.6-3.1
			c0.2-1.1,0.3-2.5,0.3-4.1c0-1.5-0.1-2.6-0.1-3.4C310.7,462.7,310.5,461.9,310.3,461.2z M306.1,459.4c0.5,0,1,0.2,1.4,0.6l0,0
			c0.4,0.4,0.8,1.1,1.1,2c0.3,1,0.4,2.1,0.4,3.2c0,0.9,0,1.2,0.1,1.4l0,0.1c0,1.3-0.1,2.5-0.3,3.5c-0.2,1-0.6,1.8-1.1,2.3
			c-0.3,0.3-0.8,0.5-1.3,0.5c-0.4,0-0.7-0.1-0.8-0.1c-0.4-0.2-0.8-0.6-1-1.3c-0.3-0.7-0.5-1.8-0.7-3.3c-0.1-0.8-0.1-2-0.1-3.3
			c0-1.6,0.1-2.6,0.2-3.1c0.3-1.4,0.9-2.2,1.9-2.4C305.9,459.4,306,459.4,306.1,459.4z"/>
		<path d="M325.8,458c-0.2,0-0.5,0.1-0.7,0.4l0,0c-0.1,0.2-0.2,0.6-0.3,1c-0.3,2.3-0.7,4.6-1.2,6.9c-0.6,2.8-0.8,4.3-1,5.2
			c0,0,0,0,0,0c-0.8-1.2-1.3-2.1-1.6-2.7c-0.1-0.3-0.3-0.5-0.5-0.6c-0.3-0.1-0.6-0.1-0.7,0c-0.1,0.1-0.3,0.2-0.5,0.5
			c0,0.1-0.2,0.5-0.8,1.8c-0.3,0.7-0.5,1.3-0.7,1.6c0,0,0,0,0,0c-0.4-1-0.9-2.5-1.5-4.4c-0.6-2-1.1-3.8-1.4-5.4
			c-0.8-3.3-0.9-3.5-1-3.6c-0.2-0.2-0.5-0.2-0.6-0.2c-0.2,0-0.4,0.1-0.5,0.4c-0.1,0.1-0.1,0.3-0.1,0.4c0,0.1,0,0.2,0.4,2.2
			c0.8,3.5,1.7,6.8,2.7,9.9c0.6,1.7,1,2.8,1.3,3.3c0.2,0.3,0.4,0.4,0.6,0.4c0,0,0.1,0,0.1,0c0.2,0,0.5-0.1,0.7-0.3
			c0.3-0.2,0.7-0.8,1.8-3.6c0-0.1,0-0.1,0.1-0.2c0.1,0.2,0.2,0.4,0.4,0.7l1.2,2c0.4,0.8,0.8,1.1,1.2,1.1c0.7,0,0.9-0.9,1-1.2
			c0.2-0.7,0.7-3.2,1.4-7.6c1.2-6.6,1.2-6.9,1.2-7.1C326.6,458.2,326.2,458,325.8,458z"/>
		<path d="M335.9,459.1c-0.2-0.8-0.7-0.9-0.9-0.9c-0.2,0-0.5,0.1-0.7,0.6c-0.1,0.2-0.1,0.5-0.1,0.7c0.1,1.1,0.2,2.7,0.3,4.8l0.1,2.2
			c0.1,1.2,0.1,2.3,0.2,3.2c0,0,0,0,0,0.1c-0.6-1.3-1.3-3.1-2.2-5.4c-1.8-4.4-2.3-5.3-2.6-5.6c-0.3-0.3-0.6-0.5-0.9-0.5
			c-0.3,0-0.7,0.1-0.8,1.1v0.1c0,0.8,0.1,3.4,0.3,7.6c0.3,6.4,0.3,6.6,0.4,6.7c0.2,0.8,0.7,0.9,0.9,0.9c0.2,0,0.5-0.1,0.7-0.5
			c0.1-0.1,0.1-0.2,0.1-0.8c0-1.2-0.1-4.1-0.3-8.7c0-0.5,0-0.9,0-1.2c0.7,1.7,1.5,3.7,2.4,5.8c1,2.4,1.7,3.8,1.9,4.3
			c0.3,0.6,0.5,1,0.8,1.1c0.1,0.1,0.2,0.1,0.4,0.1c0.2,0,0.3,0,0.4-0.1c0.4-0.2,0.5-0.8,0.5-1.8c0-0.8,0-1.8-0.1-3.1
			C336.3,463.4,336.1,459.9,335.9,459.1z"/>
		<path d="M342.4,465.5H339l-0.2,0.2c-0.2,0.1-0.3,0.4-0.3,0.6c0,0.3,0.1,0.6,0.4,0.9l0.1,0.1h3.5l0.3-0.3c0.1-0.1,0.6-0.7-0.2-1.4
			L342.4,465.5z"/>
		<path d="M350,473c-0.6-0.1-1.1-0.2-1.4-0.3c-0.3-0.2-0.6-0.4-0.8-0.7c-0.8-1.1-1.2-3-1.2-5.5c0-1.6,0.1-2.9,0.3-3.9
			c0.2-0.9,0.6-1.8,1.2-2.5c0.3-0.4,0.7-0.7,1-0.8c0.8-0.2,1-0.6,1-0.9c0-0.2-0.1-0.4-0.3-0.6c-0.2-0.2-0.4-0.3-0.6-0.3l-0.2,0
			c-0.2,0-0.3,0-0.4,0c-0.8,0.1-1.5,0.8-2.2,1.9c-0.8,1.2-1.3,2.8-1.5,4.7c-0.1,0.5-0.1,1.2-0.1,2.2c0,1.3,0,2.1,0.1,2.4
			c0.3,2.1,0.9,3.5,1.6,4.5c0.8,1,2,1.5,3.4,1.6h0.1c0.8,0,1.1-0.5,1.1-0.9C351.1,473.7,351,473.1,350,473z"/>
		<path d="M360.1,457.8c-0.2,0-0.4,0.1-0.7,0.3l0,0c-0.1,0.1-0.2,0.2-0.5,1c-0.2,0.5-0.4,1-0.6,1.6c-0.2,0.5-0.3,0.8-0.4,1
			c-0.2,0.6-0.2,0.7-0.2,0.8c0,0,0,0.1-0.2,0.4c-0.2-0.3-0.6-0.9-1.2-1.7c-1.6-2.3-1.7-2.3-1.7-2.4c-0.5-0.5-1-0.5-1.4,0
			c-0.1,0.2-0.2,0.4-0.2,0.6c0,0.2,0,0.3,2.1,3.3c1.1,1.6,1.5,2.2,1.6,2.3c0,0.2,0.1,1.2,0.1,4.6c0.1,4.7,0.1,4.8,0.1,4.9
			c0.1,0.2,0.2,0.4,0.3,0.5c0.1,0.1,0.3,0.2,0.5,0.2c0,0,0.1,0,0.1,0c0.4,0,0.6-0.2,0.6-0.3c0.2-0.2,0.2-0.5,0.2-0.8
			c0-0.1,0-0.3,0-0.5c0-0.2,0-0.4,0-0.8c0-0.3,0-0.7,0-1c0-0.4,0-1.9-0.1-4.7l-0.1-2l0.4-0.7c0.1-0.3,0.3-0.6,0.3-0.7
			c0.1-0.2,0.1-0.3,0.2-0.5c0.1-0.2,0.2-0.4,0.3-0.7c1.2-2.9,1.3-3.6,1.3-3.9C361,458,360.5,457.8,360.1,457.8z"/>
		<path d="M368,473c-0.6-0.1-1.1-0.2-1.4-0.3c-0.3-0.2-0.6-0.4-0.8-0.7c-0.8-1.1-1.2-3-1.2-5.5c0-1.6,0.1-2.9,0.3-3.9
			c0.2-0.9,0.6-1.8,1.2-2.5c0.3-0.4,0.7-0.7,1-0.8c0.8-0.2,1-0.6,1-0.9c0-0.2-0.1-0.4-0.3-0.6c-0.2-0.2-0.4-0.3-0.6-0.3l-0.2,0
			c-0.2,0-0.3,0-0.4,0c-0.8,0.1-1.5,0.8-2.2,1.9c-0.8,1.2-1.3,2.8-1.5,4.7c-0.1,0.5-0.1,1.2-0.1,2.2c0,1.3,0,2.1,0.1,2.4
			c0.3,2.1,0.9,3.5,1.6,4.5c0.8,1,2,1.5,3.4,1.6h0.1c0.8,0,1.1-0.5,1.1-0.9C369.1,473.7,369,473.1,368,473z"/>
		<path d="M373.2,473c-0.2,0-0.3,0-0.4,0c0-0.7-0.1-2.8-0.1-8.6c-0.1-5.2-0.1-5.3-0.1-5.4c-0.3-0.6-0.7-0.7-0.9-0.7
			c-0.2,0-0.4,0.1-0.5,0.3l0,0c-0.2,0.2-0.2,0.2-0.2,6.9c0,7.7,0.1,8,0.1,8.2c0.1,0.4,0.2,1,0.7,1.2c0.1,0.1,0.1,0.1,1.2,0.1
			c0.3,0,0.5,0,0.8,0c0.2,0,0.4-0.1,0.7-0.2c0.3-0.2,0.4-0.5,0.4-0.7c0-0.2-0.1-0.4-0.3-0.7C374.3,473.2,373.9,473.1,373.2,473z"/>
		<path d="M379.4,459.6c1.5,0,1.9-0.1,2-0.4c0.3-0.5,0.1-1-0.1-1.1c-0.2-0.2-0.6-0.3-1.3-0.3c-0.5,0-0.9,0-1.2,0h-0.4
			c-0.2,0-0.3,0-0.4,0c-0.2,0-0.5,0-0.6,0.1l-0.2,0c-0.1,0-0.2,0.1-0.3,0.1c-0.1,0.1-0.2,0.1-0.2,0.2l-0.1,0.1
			c0,0.1-0.1,0.2-0.1,2.3c0,2.3,0,5,0.1,8.2c0.1,4.9,0.2,5.1,0.2,5.2c0.1,0.3,0.4,0.6,0.7,0.6c0.1,0,0.4,0,1.6,0c0,0,0,0,0,0l1.9,0
			l0.1-0.3c0.2-0.4,0.3-0.6,0.2-0.9c-0.1-0.3-0.3-0.6-0.7-0.6c-0.1,0-0.4-0.1-1.3-0.1c-0.4,0-0.7,0-0.9,0c0-0.2-0.1-0.6-0.1-1.3
			c-0.1-1-0.1-2-0.1-2.8c0-0.4,0-0.7,0-0.9l0-0.2c0.4,0,0.9-0.1,1.1-0.5c0.1-0.1,0.1-0.3,0.1-0.5c0-0.3-0.1-0.9-1.3-0.9
			c0-0.2,0-1-0.1-3.4l0-2.7h0C378.6,459.6,379,459.6,379.4,459.6z"/>
		<path d="M389.6,460.2c-0.2-0.3-0.5-0.6-0.9-1c-0.4-0.4-0.8-0.7-1.1-0.9c-1-0.6-2-0.9-2.9-0.9c-0.3,0-0.5,0-0.6,0.1
			c-0.4,0.1-0.6,0.4-0.6,0.5c0,0.1-0.1,0.3-0.1,0.9c0,0.7,0,2,0.1,4c0.1,1.9,0.1,3.1,0.1,3.6c0.1,4.4,0.2,6.9,0.4,7.7
			c0.1,0.3,0.3,0.8,1.3,0.8h0.2c1,0,2-0.3,2.9-0.8c1.4-0.8,2.3-2.3,2.7-4.3c0.1-0.4,0.1-1.1,0.1-2.3c0-1.3,0-2.2-0.1-2.7
			C390.9,463,390.4,461.4,389.6,460.2z M385.7,473.1c-0.1-0.4-0.1-1.4-0.3-4.7c0-0.2,0-1-0.1-2.5c0-1.5-0.1-2.8-0.1-3.9
			c0-1.1-0.1-1.9-0.2-2.4c0-0.1,0-0.1,0-0.2c0.1,0,0.3,0.1,0.5,0.1l0,0c0.9,0.3,1.6,0.7,2.1,1.4c0.9,1.1,1.5,2.8,1.7,5.1
			c0,0.6,0.1,1.1,0.1,1.6c0,1.5-0.1,2.1-0.1,2.4c-0.4,1.8-1.5,2.9-3.1,3.2C385.9,473,385.8,473.1,385.7,473.1z"/>
		<path d="M631.9,458.1c-1.1-0.7-2-1.1-2.7-1.1l-0.2,0c-0.3,0-0.7,0.2-0.9,0.9c0,0.1-0.1,0.2-0.1,0.8c0,1,0,2.3,0.1,3.9
			c0,0.9,0.1,3,0.1,6c0.1,4.9,0.1,5.2,0.1,5.3c0.1,0.3,0.1,0.5,0.3,0.6c0.2,0.2,0.5,0.3,0.6,0.3c0.3,0,0.6-0.1,0.9-0.4l0.2-0.2
			l-0.1-3.1v-1.6c0-0.8,0-1.2,0-1.3c0.1-0.1,0.2-0.2,0.5-0.4c0.4-0.3,0.8-0.6,1.2-0.9c0.7-0.6,1.2-1.1,1.5-1.6
			c0.3-0.5,0.6-1.1,0.7-1.8c0-0.2,0.1-0.5,0.1-0.9c0-0.9-0.2-1.8-0.6-2.6C633.2,459.3,632.6,458.6,631.9,458.1z M629.9,459.2
			c1.1,0.5,1.9,1.3,2.2,2.4c0.1,0.4,0.2,0.8,0.2,1.3c0,0.3,0,0.5-0.1,0.7c-0.2,0.7-0.7,1.4-1.4,2.1c-0.3,0.2-0.5,0.4-0.6,0.5
			c0-0.5-0.1-1.4-0.1-2.9c0-0.4,0-1.1-0.1-1.9c0-0.9-0.1-1.4-0.1-1.6L629.9,459.2C629.9,459.2,629.9,459.2,629.9,459.2z"/>
		<path d="M638.1,471.2c0-1-0.1-2.9-0.1-5.5c-0.1-2.7-0.1-4.3-0.1-5l0-1.5l-0.3-0.3c-0.2-0.2-0.4-0.3-0.6-0.3
			c-0.9,0-0.9,1.3-0.9,1.7l0,0.4c0,0.1,0,1,0.1,5.6c0.1,7.7,0.2,8,0.3,8.2c0.1,0.2,0.2,0.4,0.4,0.5c0.1,0.1,0.3,0.1,0.5,0.1
			c0.1,0,0.3,0,0.4-0.1c0.2-0.1,0.4-0.3,0.5-0.5c0-0.1,0.1-0.3,0.1-0.9c0,0,0-0.8-0.1-2.2L638.1,471.2z"/>
		<path d="M642.1,473c-0.2,0-0.3,0-0.4,0c0-0.7-0.1-2.8-0.1-8.6c-0.1-5.2-0.1-5.3-0.1-5.4c-0.3-0.6-0.7-0.7-0.9-0.7
			c-0.2,0-0.4,0.1-0.5,0.3l0,0c-0.2,0.2-0.2,0.2-0.2,6.9c0,7.7,0.1,8,0.1,8.2c0.1,0.4,0.2,1,0.7,1.2c0.1,0.1,0.1,0.1,1.2,0.1
			c0.3,0,0.5,0,0.8,0c0.2,0,0.4-0.1,0.7-0.2c0.3-0.2,0.4-0.5,0.4-0.7c0-0.2,0-0.4-0.3-0.7C643.1,473.2,642.8,473.1,642.1,473z"/>
		<path d="M647.7,473c-0.2,0-0.3,0-0.4,0c0-0.7-0.1-2.8-0.1-8.6c-0.1-5.2-0.1-5.3-0.1-5.4c-0.3-0.6-0.7-0.7-0.9-0.7
			c-0.2,0-0.4,0.1-0.5,0.3l0,0c-0.2,0.2-0.2,0.2-0.2,6.9c0,7.7,0.1,8,0.1,8.2c0.1,0.4,0.2,1,0.7,1.2c0.1,0.1,0.1,0.1,1.2,0.1
			c0.3,0,0.5,0,0.8,0c0.2,0,0.4-0.1,0.7-0.2c0.3-0.2,0.4-0.5,0.4-0.7c0-0.2-0.1-0.4-0.3-0.7C648.8,473.2,648.4,473.1,647.7,473z"/>
		<path d="M653.2,471.2c0-1-0.1-2.9-0.1-5.5c-0.1-2.7-0.1-4.3-0.1-5l0-1.5l-0.3-0.3c-0.2-0.2-0.4-0.3-0.6-0.3
			c-0.9,0-0.9,1.3-0.9,1.7l0,0.4c0,0.1,0,1,0.1,5.6c0.1,7.7,0.2,8,0.3,8.2c0.1,0.2,0.2,0.4,0.4,0.5c0.1,0.1,0.3,0.1,0.5,0.1
			c0.1,0,0.3,0,0.4-0.1c0.2-0.1,0.4-0.3,0.5-0.5c0-0.1,0.1-0.3,0.1-0.9c0,0,0-0.8-0.1-2.2L653.2,471.2z"/>
		<path d="M662.5,459.1c-0.2-0.8-0.7-0.9-0.9-0.9c-0.2,0-0.5,0.1-0.7,0.6c-0.1,0.2-0.1,0.5-0.1,0.7c0.1,1.1,0.2,2.7,0.3,4.8l0.1,2.2
			c0.1,1.2,0.1,2.3,0.2,3.2c0,0,0,0,0,0.1c-0.6-1.3-1.3-3.1-2.2-5.4c-1.8-4.4-2.3-5.3-2.6-5.6c-0.3-0.3-0.6-0.5-0.9-0.5
			c-0.3,0-0.7,0.1-0.8,1.1v0.1c0,0.8,0.1,3.4,0.3,7.6c0.3,6.4,0.3,6.6,0.4,6.7c0.2,0.8,0.7,0.9,0.9,0.9c0.2,0,0.5-0.1,0.7-0.5
			c0.1-0.1,0.1-0.2,0.1-0.8c0-1.2-0.1-4.1-0.3-8.7c0-0.5,0-0.9,0-1.2c0.7,1.7,1.5,3.7,2.4,5.8c1,2.4,1.7,3.8,1.9,4.3
			c0.3,0.6,0.5,1,0.8,1.1c0.1,0.1,0.2,0.1,0.4,0.1c0.2,0,0.3,0,0.4-0.1c0.4-0.2,0.5-0.8,0.5-1.8c0-0.8,0-1.8-0.1-3.1
			C662.9,463.4,662.7,459.9,662.5,459.1z"/>
		<path d="M671.9,466.3c-0.7,0-1.1,0.1-1.3,0.3c-0.3,0.3-0.3,0.5-0.3,0.7c0,0.2,0.1,0.4,0.3,0.7c0.2,0.2,0.5,0.2,1,0.2h0.1
			c0,0.2,0,0.5,0,0.9c0,1.9-0.1,2.6-0.2,2.9c0,0.1-0.1,0.3-0.3,0.4c-0.1,0.2-0.3,0.3-0.4,0.3c-0.1,0-0.2,0.1-0.3,0.2
			c-0.3,0-0.6,0-0.8-0.1c-0.9-0.2-1.6-0.8-2.1-2c-0.5-1-0.7-2.7-0.7-5.2c0-1.5,0.1-2.6,0.3-3.2c0.2-0.7,0.5-1.3,0.8-1.9
			c0.4-0.6,0.7-1,1.2-1.3c0.4-0.3,0.9-0.4,1.4-0.5c0.4,0,0.7-0.1,0.8-0.3c0.2-0.2,0.3-0.5,0.3-0.6c0-0.2-0.1-0.4-0.3-0.6
			c-0.3-0.3-0.6-0.3-0.9-0.3c-0.3,0-0.6,0.1-1,0.2c-0.8,0.2-1.6,0.7-2.3,1.5c-1.2,1.3-1.9,3.1-2,5.3c0,0.5-0.1,1.1-0.1,1.8
			c0,1.2,0,2.2,0.1,3.1c0.1,0.8,0.3,1.6,0.6,2.5c0.3,0.9,0.7,1.6,1.1,2.1c0.4,0.4,0.9,0.8,1.5,1.1c0.6,0.3,1.3,0.5,1.8,0.5
			c0.4,0,1-0.1,1.6-0.5c0.3-0.2,0.7-0.5,1-0.8c0.3-0.4,0.5-0.8,0.6-1.2c0-0.2,0.1-0.6,0.1-2.5c0-0.5,0-1.1,0-1.7
			c0-0.9-0.1-1.4-0.5-1.6C672.9,466.4,672.7,466.3,671.9,466.3z"/>
		<path d="M689.8,459.3c-0.3,0-0.5,0.2-0.7,0.5c-0.1,0.2-0.1,0.5,0,0.7c0,0,0,0.2,0,1c0,0.6,0,2.3-0.1,5.1c0,2-0.1,3.2-0.1,3.6
			c0,0.4-0.1,0.7-0.3,1.1c-0.5,1-1.1,1.5-1.8,1.5c-0.4,0-0.7-0.1-1-0.4c-0.5-0.5-0.9-1.1-1.1-1.9c-0.3-0.9-0.5-2.5-0.6-4.7
			c-0.2-3.2-0.3-5-0.3-5.5c-0.1-0.8-0.2-1.1-0.5-1.3c-0.2-0.1-0.5-0.2-1,0.2l0,0c-0.2,0.2-0.3,0.5-0.3,1c0,0.6,0,1.6,0.1,3
			c0,0.3,0,0.8,0.1,1.4c0,0.6,0.1,1.1,0.1,1.5c0,0.4,0,0.7,0,0.9c0.1,2.5,0.5,4.2,1.1,5.4c0.6,1.1,1.3,1.7,2.1,2.1
			c0.3,0.1,0.7,0.2,1.3,0.2c0.5,0,1-0.1,1.3-0.3c0.5-0.3,1.1-0.7,1.5-1.3c0.5-0.6,0.8-1.2,1-1.8c0.1-0.5,0.3-1.8,0.3-7.3
			c0-3.5-0.1-3.8-0.1-3.9C690.6,459.3,690.1,459.3,689.8,459.3z"/>
		<path d="M696.5,458.1c-1.1-0.7-2-1.1-2.7-1.1l-0.2,0c-0.3,0-0.7,0.2-0.9,0.9c0,0.1-0.1,0.2-0.1,0.8c0,0.9,0,2.2,0.1,3.9
			c0,1,0.1,3,0.1,6c0.1,4.9,0.1,5.2,0.1,5.3c0.1,0.3,0.1,0.5,0.3,0.6c0.2,0.2,0.5,0.3,0.6,0.3c0.3,0,0.6-0.1,0.9-0.4l0.2-0.2
			l-0.1-3.1v-1.6c0-0.8,0-1.2,0-1.3c0.1-0.1,0.2-0.2,0.5-0.4c0.4-0.3,0.8-0.6,1.2-0.9c0.7-0.6,1.2-1.1,1.5-1.6
			c0.3-0.5,0.6-1.1,0.7-1.8c0-0.2,0.1-0.5,0.1-0.9c0-0.9-0.2-1.8-0.6-2.6C697.8,459.3,697.3,458.6,696.5,458.1z M694.6,459.2
			c1.1,0.5,1.9,1.3,2.2,2.4c0.1,0.4,0.2,0.8,0.2,1.3c0,0.3,0,0.5-0.1,0.7c-0.2,0.7-0.7,1.4-1.4,2.1c-0.3,0.2-0.5,0.4-0.6,0.5
			c0-0.5-0.1-1.4-0.1-2.9c0-0.4,0-1.1-0.1-1.9c0-0.9-0.1-1.4-0.1-1.6L694.6,459.2C694.6,459.2,694.6,459.2,694.6,459.2z"/>
		<path d="M709.4,465.6c-0.1-2.7-0.1-4.3-0.1-5l0-1.5l-0.3-0.3c-0.2-0.2-0.4-0.3-0.7-0.3c-0.9,0-0.9,1.3-0.9,1.7l0,0.4
			c0,0.3,0.1,2.2,0.1,5.6c0.1,7.7,0.2,8,0.3,8.2c0.1,0.2,0.2,0.4,0.4,0.5c0.1,0.1,0.3,0.1,0.5,0.1c0.1,0,0.3,0,0.4-0.1
			c0.2-0.1,0.4-0.3,0.5-0.5c0-0.1,0.1-0.3,0.1-0.9c0,0,0-0.8-0.1-2.3C709.5,470.1,709.4,468.3,709.4,465.6z"/>
		<path d="M718.8,459.1c-0.2-0.8-0.7-0.9-0.9-0.9c-0.2,0-0.5,0.1-0.7,0.6c-0.1,0.2-0.1,0.5-0.1,0.7c0.1,1.1,0.2,2.7,0.3,4.8l0.1,2.2
			c0.1,1.2,0.1,2.3,0.2,3.2c0,0,0,0,0,0.1c-0.6-1.3-1.3-3.1-2.2-5.4c-1.8-4.4-2.3-5.3-2.6-5.6c-0.3-0.3-0.6-0.5-0.9-0.5
			s-0.7,0.1-0.8,1.1v0.1c0,0.8,0.1,3.4,0.3,7.6c0.3,6.4,0.3,6.6,0.4,6.7c0.2,0.8,0.7,0.9,0.9,0.9c0.2,0,0.5-0.1,0.7-0.5
			c0.1-0.1,0.1-0.2,0.1-0.8c0-1.2-0.1-4.1-0.3-8.7c0-0.5,0-0.9,0-1.2c0.7,1.7,1.5,3.7,2.4,5.8c1,2.4,1.7,3.8,1.9,4.3
			c0.3,0.6,0.5,1,0.8,1.1c0.1,0.1,0.2,0.1,0.4,0.1c0.2,0,0.3,0,0.4-0.1c0.4-0.2,0.5-0.8,0.5-1.8c0-0.8,0-1.8-0.1-3.1
			C719.2,463.4,718.9,459.9,718.8,459.1z"/>
		<path d="M730.4,473c-0.2,0-0.3,0-0.4,0c0-0.7-0.1-2.8-0.1-8.6c-0.1-5.2-0.1-5.3-0.1-5.4c-0.3-0.6-0.7-0.7-0.9-0.7
			c-0.2,0-0.4,0.1-0.5,0.3l0,0c-0.2,0.2-0.2,0.2-0.2,6.9c0,7.7,0.1,8,0.1,8.2c0.1,0.4,0.2,1,0.7,1.2c0.1,0.1,0.1,0.1,1.2,0.1
			c0.3,0,0.5,0,0.8,0c0.2,0,0.4-0.1,0.7-0.2c0.3-0.2,0.4-0.5,0.4-0.7c0-0.2-0.1-0.4-0.3-0.7C731.4,473.2,731,473.1,730.4,473z"/>
		<path d="M740.1,463.3c-1.1-4.2-1.3-4.4-1.5-4.6c-0.2-0.2-0.7-0.3-1.3,0.1c-0.4,0.2-0.6,0.5-0.7,0.9c-0.1,0.2-0.5,2.4-1.3,6.3
			c-0.8,4-1.3,6.4-1.4,7.1c-0.1,0.5-0.1,0.7-0.1,0.8c0,0.1,0,0.3,0.1,0.5c0.2,0.4,0.6,0.5,0.8,0.5c0.3,0,0.6-0.2,0.8-0.5
			c0.1-0.1,0.1-0.4,0.5-2.1c0.3-1.2,0.5-2.4,0.7-3.6c0.1-0.7,0.2-1.2,0.3-1.4c0.1,0,0.1,0,0.2,0c1.6,0,2.1,0.1,2.1,0
			c0,0,0.1,0.2,0.3,1c1.4,5.7,1.6,6.2,1.7,6.3c0.1,0.3,0.3,0.6,0.6,0.6c0.1,0,0.1,0,0.2,0c0.1,0,0.3,0,0.4-0.1
			c0.3-0.2,0.4-0.4,0.4-0.8c0-0.1,0-0.4-0.7-3.1C741.3,468,740.6,465.2,740.1,463.3z M737.9,462.1c0,0.1,0.1,0.2,0.1,0.4
			c0.1,0.4,0.2,0.9,0.4,1.5c0.2,0.6,0.3,1,0.3,1.1c0,0.1,0.1,0.3,0.1,0.4c-0.2,0-0.4,0-0.7,0l-0.8,0c0,0,0,0,0,0
			c0.1-0.4,0.2-1,0.4-2.3C737.8,462.8,737.8,462.4,737.9,462.1z"/>
		<path d="M752.2,459.1c-0.2-0.8-0.7-0.9-0.9-0.9c-0.2,0-0.5,0.1-0.7,0.6c-0.1,0.2-0.1,0.5-0.1,0.7c0.1,1.1,0.2,2.7,0.3,4.8l0.1,2.2
			c0.1,1.2,0.1,2.3,0.2,3.2c0,0,0,0,0,0.1c-0.6-1.3-1.3-3.1-2.2-5.4c-1.8-4.4-2.3-5.3-2.6-5.6c-0.3-0.3-0.6-0.5-0.9-0.5
			c-0.3,0-0.7,0.1-0.8,1.1v0.1c0,0.8,0.1,3.4,0.3,7.6c0.3,6.4,0.3,6.6,0.4,6.7c0.2,0.8,0.7,0.9,0.9,0.9c0.2,0,0.5-0.1,0.7-0.5
			c0.1-0.1,0.1-0.2,0.1-0.8c0-1.2-0.1-4.1-0.3-8.7c0-0.5,0-0.9,0-1.2c0.7,1.7,1.5,3.7,2.4,5.8c1,2.4,1.7,3.8,1.9,4.3
			c0.3,0.6,0.5,1,0.8,1.1c0.1,0.1,0.2,0.1,0.4,0.1c0.2,0,0.3,0,0.4-0.1c0.4-0.2,0.5-0.8,0.5-1.8c0-0.8,0-1.8-0.1-3.1
			C752.6,463.4,752.4,459.9,752.2,459.1z"/>
		<path d="M761,460.2c-0.2-0.3-0.5-0.6-0.9-1c-0.4-0.4-0.8-0.7-1.1-0.9c-1-0.6-2-0.9-2.9-0.9c-0.3,0-0.5,0-0.6,0.1
			c-0.4,0.1-0.6,0.4-0.6,0.5c0,0.1-0.1,0.3-0.1,0.9c0,0.7,0,2,0.1,4l0.1,3.6c0.1,4.4,0.2,6.9,0.4,7.7c0.1,0.3,0.3,0.8,1.3,0.8h0.2
			c1,0,2-0.3,2.9-0.8c1.4-0.8,2.3-2.3,2.7-4.3c0.1-0.4,0.1-1.1,0.1-2.3c0-1.3,0-2.2-0.1-2.7C762.3,463,761.8,461.4,761,460.2z
			 M757.1,473.1c-0.1-0.4-0.1-1.4-0.3-4.7c0-0.2,0-1-0.1-2.5c0-1.5-0.1-2.8-0.1-3.9c0-1.1-0.1-1.9-0.2-2.4c0-0.1,0-0.1,0-0.2
			c0.1,0,0.3,0.1,0.5,0.1l0,0c0.9,0.3,1.6,0.7,2.1,1.4c0.9,1.1,1.5,2.8,1.7,5.1c0,0.6,0.1,1.1,0.1,1.6c0,1.5-0.1,2.1-0.1,2.4
			c-0.4,1.8-1.5,2.9-3.1,3.2C757.4,473,757.2,473.1,757.1,473.1z"/>
		<path d="M767.2,457.7c-1.8,0-2,0-2.1,0.1c-0.4,0.2-0.6,0.6-0.6,0.8c0,0.1-0.1,0.3-0.1,3.6c0,6.6,0.1,10.3,0.2,11.3
			c0.1,1.2,0.6,1.5,1,1.5c0.2,0,0.3-0.1,0.5-0.2l0.3-0.3V473c-0.1-3.3-0.1-5.6-0.1-6.7V466c0.4,0,0.6,0,0.8,0c0.4,0,0.7-0.1,0.9-0.4
			c0.2-0.2,0.3-0.3,0.3-0.5c0-0.2-0.2-0.4-0.3-0.5l-0.3-0.4h-1.5v-1.6c0-0.5,0-1,0-1.7c0-0.7,0-1,0-1.1v-0.2l1.2,0
			c1.3,0,1.6-0.1,1.7-0.1c0.4-0.1,0.6-0.4,0.6-0.8c0-0.3-0.1-0.6-0.4-0.8C769.3,457.8,769.1,457.7,767.2,457.7z"/>
		<path d="M773.6,465.6c-0.1-2.7-0.1-4.3-0.1-5l0-1.5l-0.3-0.3c-0.2-0.2-0.4-0.3-0.7-0.3c-0.9,0-0.9,1.3-0.9,1.7l0,0.4
			c0,0.3,0.1,2.2,0.1,5.6c0.1,7.7,0.2,8,0.3,8.2c0.1,0.2,0.2,0.4,0.4,0.5c0.1,0.1,0.3,0.1,0.5,0.1c0.1,0,0.3,0,0.4-0.1
			c0.2-0.1,0.4-0.3,0.5-0.5c0-0.1,0.1-0.3,0.1-0.9c0,0,0-0.8-0.1-2.3C773.7,470.1,773.6,468.3,773.6,465.6z"/>
		<path d="M777.7,473c-0.2,0-0.3,0-0.4,0c0-0.7-0.1-2.8-0.1-8.6c-0.1-5.2-0.1-5.3-0.1-5.4c-0.3-0.6-0.7-0.7-0.9-0.7
			c-0.2,0-0.4,0.1-0.5,0.3l0,0c-0.2,0.2-0.2,0.2-0.2,6.9c0,7.7,0.1,8,0.1,8.2c0.1,0.4,0.2,1,0.7,1.2c0.1,0.1,0.1,0.1,1.2,0.1
			c0.3,0,0.5,0,0.8,0c0.2,0,0.4-0.1,0.7-0.2c0.3-0.2,0.4-0.5,0.4-0.7c0-0.2-0.1-0.4-0.3-0.7C778.8,473.2,778.4,473.1,777.7,473z"/>
		<path d="M783.4,473c-0.2,0-0.3,0-0.4,0c0-0.7-0.1-2.8-0.1-8.6c-0.1-5.2-0.1-5.3-0.1-5.4c-0.3-0.6-0.7-0.7-0.9-0.7
			c-0.2,0-0.4,0.1-0.5,0.3l0,0c-0.2,0.2-0.2,0.2-0.2,6.9c0,7.7,0.1,8,0.1,8.2c0.1,0.4,0.2,1,0.7,1.2c0.1,0.1,0.1,0.1,1.2,0.1
			c0.3,0,0.5,0,0.8,0c0.2,0,0.4-0.1,0.7-0.2c0.3-0.2,0.4-0.5,0.4-0.7c0-0.2,0-0.4-0.3-0.7C784.4,473.2,784.1,473.1,783.4,473z"/>
		<path d="M792.1,465.3c0-0.1-0.2-0.2-1.4-1.4c-1.6-1.5-1.9-1.9-1.9-2c-0.1-0.2-0.1-0.4-0.1-0.7c0-0.5,0.2-1,0.5-1.4
			c0.3-0.3,0.6-0.5,1.1-0.7c0.4-0.2,0.6-0.2,0.6-0.3c0.1-0.1,0.3-0.3,0.3-0.6c0-0.7-0.7-1-1.5-0.7c-0.8,0.2-1.4,0.7-2,1.3
			c-0.6,0.7-0.9,1.5-0.9,2.3c0,0.2,0,0.4,0,0.5c0.1,0.8,0.5,1.6,1.2,2.2c0.2,0.1,0.6,0.6,1.5,1.4c0.6,0.6,0.9,1,1.1,1.2
			c0.2,0.2,0.3,0.5,0.5,0.9c0.2,0.5,0.3,1.2,0.3,1.9c0,0.4,0,0.7-0.1,0.9c-0.1,0.6-0.4,1.1-0.9,1.5c-0.4,0.4-0.9,0.7-1.5,0.8
			c-1.5,0.3-1.7,0.5-1.8,0.6c-0.1,0.1-0.3,0.3-0.3,0.7c0,0.2,0,0.4,0.1,0.6c0.1,0.2,0.4,0.3,0.7,0.3c0.5,0,0.8-0.1,1-0.2
			c0.1,0,0.4-0.1,0.8-0.2c0.5-0.1,0.9-0.3,1.1-0.4c0.4-0.2,0.8-0.5,1.2-0.9c1-1,1.6-2.3,1.6-3.7
			C793.3,467.8,792.9,466.4,792.1,465.3z"/>
	</g>
</g>
</svg>
