<?xml version="1.0" encoding="utf-8"?>
<!-- Generator: Adobe Illustrator 24.0.1, SVG Export Plug-In . SVG Version: 6.00 Build 0)  -->
<svg version="1.1" xmlns="http://www.w3.org/2000/svg" xmlns:xlink="http://www.w3.org/1999/xlink" x="0px" y="0px"
	 viewBox="0 0 1000 666" style="enable-background:new 0 0 1000 666;" xml:space="preserve">
<style type="text/css">
	.st0{fill:#95D2EF;}
	.st1{fill:#1E1E1C;}
	.st2{fill:#1E1E1C;stroke:#1E1E1C;stroke-width:0.25;stroke-miterlimit:10;}
	.st3{fill:#1E1E1C;stroke:#1E1E1C;stroke-width:0.15;stroke-miterlimit:10;}
	.st4{fill:#FFFFFF;}
	.st5{stroke:#1E1E1C;stroke-miterlimit:10;}
	.st6{fill:none;stroke:#1E1E1C;stroke-width:3;stroke-linecap:round;stroke-linejoin:round;stroke-miterlimit:10;}
</style>
<g id="Calque_2">
	<g>
		<path class="st0" d="M215.8,308.5c-1.6-7.4-11.7-10.2-18.5-6.9c-6.8,3.3-10.9,10.4-13.9,17.4c-9.4,21.9-13,45.8-15,69.6
			c-1,11.4-1.4,23.4,4.1,33.4s19.3,16.2,28.8,9.8c6.7-4.5,8.9-13.4,10.2-21.4c5.2-31,6.8-62.5,4.7-93.8"/>
	</g>
	<g>
		<path class="st0" d="M472.5,389.9c-2.8,1.5-5.6,3-8.4,4.4c-8,4.2-16.3,8.7-21.7,15.9c-5.4,7.3-6.9,18.3-1,25.2
			c5.3,6.1,14.3,7,22.3,7.2c29.1,0.6,59.9-3.7,82.6-21.9c3.2-2.6,6.4-5.7,7.3-9.8c0.6-2.6,0.1-5.3-0.8-7.8
			c-2.9-7.5-10.3-12.6-18.1-14.7s-16-1.7-24.1-1c-10.8,0.9-22,2.2-31.6,7.2"/>
	</g>
	<g>
		<path class="st0" d="M615.1,230.5c7.3,1.4,14.8-0.8,22.2-2c7.4-1.2,15.8-1.2,21.4,3.6c1.6,1.4,3,3.2,3.4,5.3
			c0.9,4.3-2.2,8.4-5.5,11.5c-13.7,12.4-34.7,16.5-52.2,10.3c-2.9-1-5.8-2.3-8-4.4c-4.5-4.1-5.7-11.2-2.9-16.6
			c2.8-5.3,9.5-8.5,15.6-7.3"/>
	</g>
	<g>
		<path class="st0" d="M762.4,429.7c-2.9,10.7-5.2,22.1-2.4,32.8c2.8,10.7,12.2,20.5,23.3,20.2c6.6-0.1,12.8-3.8,17.2-8.6
			c4.4-4.9,7.3-11,9.7-17.1c6.5-16.8,9.8-34.8,9.6-52.8c-0.1-10.2-1.6-21-8.1-28.9c-2.6-3.2-6.2-5.9-10.3-6.4
			c-9-1.1-15.8,7.9-19.6,16.1c-4.4,9.7-7.6,20-9.6,30.5"/>
	</g>
</g>
<g id="Calque_1">
	<path class="st1" d="M700.3,459.3c-1.3-0.7-2.7-1.1-4.2-1.3c-0.7-0.1-1.3-0.1-2-0.1c-0.8,0.1-1.6,0.1-2.3,0.6
		c-0.7,0.5-1.1,1.3-1.1,2.1c-0.1,0.3-0.1,0.7,0.1,1c0,0,0,0,0,0c0.1,0.3,0.2,0.6,0.4,0.8c0.1,0.2,0.3,0.4,0.4,0.5
		c-7.7,6.2-13.1,15.2-14.9,24.9c-0.3,1.6,2.1,2.2,2.4,0.7c1.7-9.3,6.8-17.8,14.1-23.7c0.5,0.5,1,1.1,1.6,1.5c0.5,0.4,1.3,0.5,1.8,0
		c1.6-1.6,3-3.4,4.2-5.3C701.1,460.5,700.9,459.6,700.3,459.3z M696.4,462.5c0.1,0,0.2,0.1,0.3,0.1c-0.1,0.1-0.2,0.2-0.3,0.3
		C696.4,462.7,696.4,462.6,696.4,462.5z M693.5,460.5c0,0.2,0,0.5,0.1,0.7c0,0,0,0.1,0,0.1c0,0,0,0.1,0,0.1c0,0,0,0,0,0
		c-0.2-0.2-0.3-0.5-0.5-0.8c0,0,0,0,0,0C693.2,460.6,693.4,460.5,693.5,460.5C693.4,460.5,693.5,460.5,693.5,460.5z"/>
	<path class="st1" d="M452.6,288.7c-1.2-1.6-3.2-1.9-4.8-0.8c-0.3,0.2-0.5,0.3-0.7,0.5c-7.4-8.9-11-20.6-9.8-32.1
		c0.2-1.6-2.3-1.6-2.5,0c-1.2,11.9,2.5,24.1,10.1,33.3c-0.1,0.1-0.2,0.2-0.2,0.4c0,0,0,0-0.1,0.1c0,0-0.1,0.1-0.1,0.1
		c-0.1,0-0.1,0-0.2,0c-0.7,0-1.3,0.6-1.3,1.3c0,0.4,0.2,0.7,0.4,0.9c0,0.1,0.1,0.2,0.2,0.3c1.3,1.6,3.1,2.8,5.1,3.5
		c1,0.3,2.2,0.6,3.2,0.3c1.3-0.3,1.8-1.6,1.8-2.9C453.8,291.9,453.6,290,452.6,288.7z"/>
	<path class="st1" d="M287.4,467.8c0.8-0.8,0.9-1.9,0.8-3c-0.2-2.4-0.4-4.8-0.6-7.2c-0.1-0.8-0.7-1.3-1.3-1.3c0,0,0-0.1-0.1-0.1
		c-0.4-0.5-1.3-0.6-1.8-0.1c-1.5,1.5-2.9,3.1-4.4,4.6c-0.7,0.7-1.5,1.4-1.7,2.4c-0.3,1,0.2,2,0.9,2.7c0.8,0.7,1.6,1.2,2.5,1.6
		c-4.4,13.2-12.4,25.2-23.1,34.2c-1.2,1,0.5,2.9,1.7,1.8c11-9.3,19.2-21.6,23.7-35.3c0.2,0,0.4,0.1,0.5,0.1
		C285.7,468.6,286.7,468.5,287.4,467.8z"/>
	<g>
		<path d="M505.7,306.2c5.2,0.3,9.3,0.2,13.4,0.8c3.9,0.6,7.9,1.6,11.5,3.5c2.7,1.4,5.4,2.8,7.4,5.2c0.3,0.4,0.7,0.7,0.9,1.1
			c0.8,1.1,1.3,2.4,2.7,3.1c0.6,0.3,0.9,1.2,1.1,1.9c0.5,1.5,1,2.9,1.9,4.3c1.2,2.2,2,4.7,2.9,7.1c0.5,1.2,0.8,2.4,1.3,3.6
			c1.5,3.3,1,6.4-0.5,9.4c-1.5,3.1-3.7,5.6-6.2,7.8c-0.3,0.3-0.5,0.7-0.5,1.1c-0.5,6.3-0.9,12.7-1.4,19c-0.3,4.3-0.7,8.6-1.1,12.9
			c-0.1,1.7-0.2,3.3-0.3,5c-0.3,6.3-0.6,12.5-1,18.8c-0.1,1.3-0.8,2.6-1.3,3.9c-0.1,0.3-0.5,0.7-0.8,0.9c-2.1,1.2-4.2,2.4-6.4,3.5
			c-1.6,0.8-3.4,1.2-5,1.8c-2.7,1.1-5.4,2.1-8,3.3c-3.2,1.5-6.3,2.9-9.7,3.6c-0.9,0.2-1.8,0.4-2.7,0.4c-6.2,0.2-12.4,0.1-18.5-1
			c-6.9-1.1-13.7-2.6-19.7-6.3c-0.2-0.1-0.3-0.2-0.5-0.3c-3.1-0.5-4.3-3-5.3-5.4c-2.7-6.4-4.2-13.2-5.8-20
			c-1.8-7.6-3.5-15.2-4.9-22.8c-1.2-6.6-1.9-13.3-2.9-19.9c-0.4-2.4-1.1-4.8-1.7-7.2c-0.1-0.3-0.3-0.8-0.2-1
			c0.6-1.4-0.2-2.6-0.5-3.9c-1.5-6.1-0.5-11.7,3.7-16.5c3.4-3.9,7.5-6.8,12.7-8.2c3.4-0.9,6.6-2.4,10-3.4c2.7-0.8,5.4-1.2,8.1-1.9
			c3.1-0.8,6.2-1.8,9.4-2.5c1.8-0.4,3.7-0.5,5.6-0.7C497.7,306.8,502.2,306.5,505.7,306.2z M449.2,347.4c0.3,2.1,0.5,4.2,0.9,6.3
			c1.3,8.2,2.5,16.4,4.1,24.6c1.6,8,3.5,16,5.5,23.9c1,3.9,2.3,7.8,3.6,11.6c0.4,1.1,1.2,2.1,2.1,2.9c0.9,0.7,2.1,1.1,3.2,1.6
			c2.2,0.9,4.3,2.1,6.5,2.7c8.4,2.6,17,3.5,25.8,3.4c4.2,0,8-1,11.8-2.8c2.1-1,4.3-2,6.5-2.8c2.7-1.1,5.5-2,8.3-3.1
			c1.5-0.6,2.9-1.8,4.4-2.4c1.7-0.6,2.1-1.9,2.3-3.4c0.1-0.9,0.3-1.9,0.3-2.9c0.2-5.2,0.4-10.5,0.6-15.7c0.1-1.3,0.1-2.6,0.2-4
			c0.4-4.7,0.7-9.5,1.1-14.2c0.2-3.1,0.4-6.2,0.7-9.3c0.2-2.2,0.4-4.5,0.7-7c-0.6,0.3-0.9,0.5-1.1,0.7c-2.6,1.8-5.2,3.6-7.8,5.4
			c-3.6,2.5-7.3,4.9-10.9,7.4c-1,0.7-2.1,1-3,0.6c-1.3-0.6-2.3-0.1-3.4,0.4c-0.8,0.3-1.6,0.6-2.3,1c-5.8,2.5-11.8,4.1-18.2,3.8
			c-2.1-0.1-3.8-0.7-4.9-2.7c-1.6-2.8-2.2-5.9-2.8-9c-0.9-4.2-1.8-8.4-2.6-12.5c-0.1-0.6-0.3-1-1.1-1c-2.2,0-4.4-0.1-6.6-0.2
			c-5-0.2-10.1-0.3-15.1-0.5c-1.1,0-2.3-0.3-3.4-0.6C452.7,348.9,451,348.1,449.2,347.4z M507.7,310.6c-6.7-0.6-11.8,0-16.9,0.6
			c-0.8,0.1-1.6,0.2-2.4,0.4c-3.2,0.8-6.4,1.9-9.7,2.6c-3.2,0.7-6.5,1.2-9.6,2.5c-2.5,1-5.1,2-7.8,2.7c-3.9,1-7.1,3-9.9,5.8
			c-2.3,2.3-3.8,4.8-4.3,8c-0.4,2.7,0,4.9,2.6,6.2c1.3,0.7,2.7,1.3,4.2,1.7c1.7,0.4,3.4,0.5,5.1,0.5c5.6,0.1,11.2-0.2,16.8,0.1
			c9.8,0.6,19.5-0.3,29.1-2.3c5.2-1.1,10.4-1.9,15.7-2.2c4-0.2,8-1,11.8-2.5c2.5-1,4.2-2.6,4.5-5.4c0.1-0.6,0.2-1.2,0.3-1.8
			c1-5.2-1-9.8-5.3-11.9c-2.8-1.5-5.6-3-8.8-3.7c-2-0.4-3.9-1.1-5.8-1.2C513.6,310.5,509.9,310.6,507.7,310.6z M538,341.6
			c-5.1,1.1-10.1,2.1-15,3.2c-2.5,0.5-4.9,1.2-7.4,1.8c-2.2,0.5-4.4,0.9-6.6,1.3c-3,0.6-6,1.5-9.1,1.8c-4.9,0.6-9.9,0.8-14.8,1.2
			c-0.2,0-0.4,0.1-0.5,0.1c0.9,4.6,1.8,9.1,2.8,13.7c0.4,1.9,0.9,3.7,1.5,5.5c0.3,0.9,0.6,1.9,1.8,2c1.8,0,3.7,0.2,5.5-0.1
			c4.1-0.5,8-1.7,11.8-3.4c1.3-0.6,2.5-1.1,3.8-1.6c-1.2-2.8-0.9-3.1,0.8-4.4c2.6-1.9,5.6-3.5,8.5-5c3.3-1.8,6.8-3.3,10.1-5.2
			c2.3-1.4,4.1-1.7,6.1,0.5c0.3-0.4,0.7-0.8,0.7-1.2C538,348.4,538,345.1,538,341.6z M521.6,341.1c0-0.1,0-0.2-0.1-0.3
			c-2.9,0.3-5.7,0.4-8.6,0.9c-4.4,0.7-8.7,1.6-13.1,2.4c-6.3,1.2-12.7,1.7-19.2,1.5c-4.3-0.1-8.6-0.3-12.9-0.4
			c-4.7-0.1-9.4,0-14.1,0c1.5,0.5,3,1,4.6,1.1c3.7,0.3,7.4,0.4,11.1,0.5c8,0.2,16,0.6,24.1-0.1c5-0.5,10-1.3,14.8-2.6
			c2.1-0.6,4.3-0.9,6.4-1.3C517,342.2,519.3,341.7,521.6,341.1z M543.6,333.4c-0.6,1.7-1.1,3.4-1.7,5.1c-0.2,0.5-0.3,1-0.3,1.5
			c0,1.7,0.1,3.4,0.2,5c0,1.2,0,2.4,0,3.5c2.1-2.3,4.4-4.7,4-7.9C545.5,338.2,544.4,335.8,543.6,333.4z M534.1,338.4
			c3,0.2,5-1.3,5.1-3.8C537.6,335.7,535.8,337.1,534.1,338.4z"/>
		<path class="st4" d="M449.2,347.4c1.8,0.7,3.5,1.5,5.3,2.1c1.1,0.4,2.3,0.6,3.4,0.6c5,0.2,10.1,0.4,15.1,0.5
			c2.2,0.1,4.4,0.2,6.6,0.2c0.8,0,0.9,0.4,1.1,1c0.9,4.2,1.7,8.4,2.6,12.5c0.7,3.1,1.3,6.2,2.8,9c1.1,2,2.8,2.6,4.9,2.7
			c6.4,0.3,12.4-1.2,18.2-3.8c0.8-0.3,1.6-0.6,2.3-1c1.1-0.5,2.1-1,3.4-0.4c1,0.4,2.1,0.1,3-0.6c3.6-2.5,7.2-4.9,10.9-7.4
			c2.6-1.8,5.2-3.6,7.8-5.4c0.2-0.2,0.5-0.3,1.1-0.7c-0.2,2.5-0.5,4.8-0.7,7c-0.3,3.1-0.4,6.2-0.7,9.3c-0.4,4.7-0.8,9.5-1.1,14.2
			c-0.1,1.3-0.2,2.6-0.2,4c-0.2,5.2-0.4,10.5-0.6,15.7c0,1-0.2,1.9-0.3,2.9c-0.2,1.5-0.6,2.8-2.3,3.4c-1.6,0.6-2.9,1.7-4.4,2.4
			c-2.7,1.1-5.5,2-8.3,3.1c-2.2,0.9-4.3,1.8-6.5,2.8c-3.7,1.8-7.6,2.7-11.8,2.8c-8.8,0.1-17.4-0.9-25.8-3.4
			c-2.2-0.7-4.3-1.8-6.5-2.7c-1.1-0.5-2.3-0.8-3.2-1.6c-0.9-0.7-1.8-1.8-2.1-2.9c-1.3-3.8-2.7-7.7-3.6-11.6
			c-2-7.9-3.9-15.9-5.5-23.9c-1.6-8.1-2.8-16.4-4.1-24.6C449.7,351.6,449.4,349.5,449.2,347.4z"/>
		<path class="st4" d="M507.7,310.6c2.2,0,5.9-0.1,9.6,0.1c2,0.1,3.9,0.8,5.8,1.2c3.2,0.6,6,2.2,8.8,3.7c4.2,2.2,6.2,6.7,5.3,11.9
			c-0.1,0.6-0.3,1.2-0.3,1.8c-0.3,2.8-2.1,4.4-4.5,5.4c-3.8,1.5-7.7,2.3-11.8,2.5c-5.3,0.3-10.5,1.1-15.7,2.2
			c-9.6,2-19.2,2.9-29.1,2.3c-5.6-0.3-11.2-0.1-16.8-0.1c-1.7,0-3.5-0.1-5.1-0.5c-1.4-0.3-2.8-1-4.2-1.7c-2.6-1.3-3-3.5-2.6-6.2
			c0.5-3.2,2-5.8,4.3-8c2.8-2.8,6-4.8,9.9-5.8c2.7-0.7,5.3-1.6,7.8-2.7c3.1-1.3,6.4-1.8,9.6-2.5c3.3-0.7,6.5-1.7,9.7-2.6
			c0.8-0.2,1.6-0.3,2.4-0.4C495.9,310.6,501,310,507.7,310.6z"/>
		<path class="st4" d="M538,341.6c0,3.5,0,6.8,0,10.1c0,0.4-0.4,0.8-0.7,1.2c-2.1-2.1-3.9-1.8-6.1-0.5c-3.2,2-6.7,3.4-10.1,5.2
			c-2.9,1.6-5.9,3.1-8.5,5c-1.7,1.2-2,1.5-0.8,4.4c-1.3,0.5-2.5,1-3.8,1.6c-3.8,1.7-7.7,2.9-11.8,3.4c-1.8,0.2-3.7,0.1-5.5,0.1
			c-1.2,0-1.5-1.1-1.8-2c-0.6-1.8-1.1-3.7-1.5-5.5c-1-4.5-1.8-9.1-2.8-13.7c0.2,0,0.4-0.1,0.5-0.1c4.9-0.4,9.9-0.6,14.8-1.2
			c3.1-0.4,6.1-1.2,9.1-1.8c2.2-0.4,4.4-0.8,6.6-1.3c2.5-0.6,4.9-1.3,7.4-1.8C527.9,343.7,532.9,342.7,538,341.6z"/>
		<path class="st4" d="M521.6,341.1c-2.3,0.5-4.6,1.1-6.8,1.6c-2.1,0.5-4.3,0.8-6.4,1.3c-4.9,1.3-9.8,2.1-14.8,2.6
			c-8,0.8-16.1,0.3-24.1,0.1c-3.7-0.1-7.4-0.2-11.1-0.5c-1.6-0.1-3.1-0.6-4.6-1.1c4.7,0,9.4-0.1,14.1,0c4.3,0.1,8.6,0.3,12.9,0.4
			c6.5,0.2,12.9-0.4,19.2-1.5c4.4-0.8,8.7-1.7,13.1-2.4c2.8-0.4,5.7-0.6,8.6-0.9C521.5,340.9,521.5,341,521.6,341.1z"/>
		<path class="st4" d="M534.1,338.4c1.7-1.3,3.5-2.6,5.1-3.8C539.1,337,537.1,338.5,534.1,338.4z"/>
	</g>
	<g>
		<path d="M578,203.3c0.4-2.7,1.1-3,4.9-2.2c0,0,0.1-0.1,0.1-0.1c-0.2-3.1,1.7-4.3,4.6-3.1c1.5,0.7,3,1.5,4.3,2.6
			c3.2,2.6,6.2,5.3,9.3,7.9c1.4,1.2,2.8,2.5,4.2,3.8c1.9,1.9,3,4,1.4,6.8c1.5,0.8,2.9,1.6,4.4,2.2c5.5,2.1,11,4.1,16.5,6.1
			c7.2,2.7,14.5,5.5,21.7,8.2c1.4,0.5,2.8,1,4,1.8c2.1,1.4,2.5,3.6,1.3,5.8c-1.8,3.1-4.5,4.7-8.2,4.9c-7.2,0.3-13.4-2.4-19.5-5.8
			c-2.8-1.6-5.7-3.2-8.5-5c-3.5-2.3-6.9-4.8-10.5-7c-2.6-1.6-5.4-3-8.1-4.3c-1.8-0.9-3.8-0.4-5.4,0.5c-4,2.3-8.4,0.8-11-2.3
			c-2.9-3.6-5.8-7.2-8.5-11c-1.8-2.5-2.6-5.5-2.3-8.6c0.1-1.1,0.5-2,1.5-2.4c1-0.5,2-0.2,2.8,0.4C577.2,202.7,577.5,202.9,578,203.3
			z M590.8,215.7c-1.6-2.3-3.2-4.5-4.9-6.8c-0.2-0.3-0.5-0.5-0.7-0.7c-0.1,0.1-0.2,0.2-0.3,0.2C587,210.8,588.9,213.2,590.8,215.7
			c0.2,0.4,0.5,0.8,0.5,1.2c0,0.8,0.1,1.8-0.3,2.3c-0.4,0.5-1.5,0.7-2.2,0.6c-0.7-0.1-1.4-0.7-1.9-1.3c-0.7-0.8-1.3-1.7-1.9-2.6
			c-1.1-1.5-2-3.1-3.2-4.4c-1.4-1.5-3.2-2.7-4.8-4.1c-0.2,0.1-0.3,0.3-0.5,0.4c1,1.7,2,3.4,3,5.1c0.3,0.5,0.7,1,1,1.5
			c1.9,2.4,3.8,4.9,5.8,7.3c2,2.3,3.6,2.5,6.4,1.3c2.7-1.2,5.6-1.9,8.5-0.6c3,1.4,6,3,8.9,4.7c3.5,2.2,6.9,4.7,10.4,6.9
			c2.7,1.7,5.5,3.3,8.4,4.9c5.4,3.1,11,5.5,17.4,5.3c2-0.1,3.5-0.8,4.7-2.4c0.6-0.8,0.4-1.3-0.5-1.6c-1-0.4-2-0.8-3-1.1
			c-6.9-2.6-13.9-5.3-20.8-7.8c-5.6-2.1-11.3-4.1-16.8-6.2c-2-0.8-4-2-5.8-3.2c-1.6-1.1-1.8-2.6-0.8-4.2c0.5-0.9,0.3-1.4-0.3-2
			c-1.5-1.4-3-2.9-4.6-4.2c-2-1.7-4.1-3.4-6.2-5.1c-0.5-0.4-1-0.9-1.5-1.3c0,0.4,0.2,0.6,0.3,0.9c1.8,2.3,3.6,4.7,5.4,7
			c1.4,1.8,0.7,3.7-1.5,4.3C593.2,217.2,591.9,216.8,590.8,215.7z"/>
		<path class="st4" d="M590.8,215.7c1.1,1.2,2.4,1.6,4,1.2c2.2-0.6,2.9-2.5,1.5-4.3c-1.8-2.3-3.6-4.7-5.4-7
			c-0.2-0.2-0.3-0.5-0.3-0.9c0.5,0.4,1,0.9,1.5,1.3c2.1,1.7,4.2,3.4,6.2,5.1c1.6,1.4,3.1,2.8,4.6,4.2c0.6,0.6,0.8,1.1,0.3,2
			c-1,1.7-0.7,3.2,0.8,4.2c1.8,1.3,3.8,2.4,5.8,3.2c5.6,2.2,11.2,4.2,16.8,6.2c7,2.6,13.9,5.2,20.8,7.8c1,0.4,2,0.7,3,1.1
			c0.8,0.3,1.1,0.8,0.5,1.6c-1.2,1.6-2.7,2.4-4.7,2.4c-6.4,0.2-12-2.2-17.4-5.3c-2.8-1.6-5.6-3.2-8.4-4.9c-3.5-2.2-6.8-4.7-10.4-6.9
			c-2.9-1.7-5.8-3.3-8.9-4.7c-2.8-1.3-5.7-0.5-8.5,0.6c-2.8,1.2-4.4,1-6.4-1.3c-2-2.3-3.9-4.8-5.8-7.3c-0.4-0.5-0.7-1-1-1.5
			c-1-1.7-2-3.4-3-5.1c0.2-0.1,0.3-0.3,0.5-0.4c1.6,1.4,3.3,2.6,4.8,4.1c1.3,1.3,2.2,2.9,3.2,4.4c0.6,0.9,1.2,1.8,1.9,2.6
			c0.5,0.6,1.2,1.2,1.9,1.3c0.7,0.1,1.8-0.1,2.2-0.6c0.4-0.5,0.3-1.5,0.3-2.3C591.3,216.4,591,216,590.8,215.7
			C590.8,215.6,590.8,215.7,590.8,215.7z"/>
		<path class="st4" d="M590.8,215.6c-1.9-2.4-3.9-4.8-5.8-7.2c0.1-0.1,0.2-0.2,0.3-0.2c0.2,0.2,0.5,0.4,0.7,0.7
			C587.6,211.1,589.2,213.4,590.8,215.6C590.8,215.7,590.8,215.6,590.8,215.6z"/>
	</g>
	<g>
		<path d="M290.3,368.6c-0.5,5.8-1,11.6-1.6,17.4c-0.7,6.8-1.4,13.5-2.1,20.3c-0.3,3.3-0.4,6.5-0.8,9.8c-0.3,2.8-0.7,5.6-1.3,8.4
			c-0.3,1.4-1,2.8-1.7,4c-0.8,1.4-2.2,1.9-3.8,1.9c-2,0-4.1-0.1-6.1-0.2c-1.7-0.1-2.6-1-2.8-2.7c-0.2-1.5-0.3-2.9-0.4-4.4
			c-0.2-3.7-0.4-7.4-0.5-11.1c-0.4-9.9-0.8-19.7-1.2-29.6c-0.1-3.2-0.3-6.5-0.5-9.7c0-0.4-0.1-0.9-0.2-1.4c-3.8,0.5-7.1,2-10.4,3.5
			c-2.9,1.3-5.1,3.3-6.6,6c-3.6,6.4-6.9,12.8-7.9,20.4c-1.3,10-3.3,19.9-4.9,29.9c-1.7,10.5-2.8,21.1-2.4,31.7
			c0.2,4.7-0.9,9.3-1.7,13.9c-0.5,2.5-1.5,3.3-4.1,3.3c-4,0-8-0.1-12-0.2c-1.3,0-1.8-0.7-2.2-1.9c-2.1-5.7-0.9-11.6-1.2-17.3
			c-0.1-1.2,0.4-2.5,0.6-3.8c0.4-2.8,1-5.6,1-8.4c0-8.4-0.4-16.9-0.4-25.3c0-7.2,0.4-14.4,0.2-21.6c-0.1-5.5-0.7-10.9-1.2-16.4
			c-0.3-4.1-0.8-8.2-1.3-12.3c-0.5-4.4-1.1-8.7-1.9-13.1c-0.3,2.4-0.6,4.7-0.9,7.1c-0.6,5-1.2,10.1-1.8,15.1
			c-0.5,4.1-0.8,8.2-1.4,12.3c-0.8,5.9-1.7,11.9-2.5,17.8c-0.6,4.7-0.9,9.4-1.4,14.1c-0.4,3.7-0.7,7.3-1.1,11
			c-0.2,1.6-0.3,3.3-0.4,4.9c-0.2,2.2-1.1,3.4-3.1,4c-2.5,0.8-5.1,1.6-7.7,2.4c-2.1,0.6-3.6-0.4-3.3-2.5c0.3-3.4,1-6.7,1.5-10
			c1.1-6.8,2.6-13.5,3.1-20.4c0.6-7.6,1.5-15.3,2.5-22.9c1-7.2,2.1-14.5,3.4-21.6c1.2-6.3,3-12.5,4.3-18.8c0.8-3.7,1.2-7.5,1.7-11.2
			c0.6-4.8,1.1-9.5,1.6-14.3c0.2-1.7,0.5-3.4,0.8-5.1c0-0.2,0-0.3,0-0.5c-0.8-4.6-1.7-9.3-2.5-13.9c-0.6-3-1.4-3.5-4.2-4.2
			c-3.5-0.9-7-2-10.4-3.2c-2.4-0.9-4.2-2.8-5.9-4.8c-3.6-4.5-5.7-9.9-8.2-15c-2.2-4.3-3.4-8.9-4.1-13.6c-1.1-7-0.9-13.9,1.7-20.6
			c1-2.6,1.7-5.4,2.9-8c1.8-3.9,4.2-7.3,8.1-9.5c2.1-1.2,4-2.9,5.9-4.5c4.6-3.8,9.5-6.8,15.3-8.4c3.7-1,7.3-2.4,10.9-3.5
			c5.6-1.7,11.4-1.4,17.1-1.3c5.5,0.1,10.8,1.3,16,2.6c5.7,1.4,11.3,3,16.7,5.4c3.5,1.5,6.5,3.7,9.5,6c3.4,2.6,7,4.9,10.1,7.7
			c3.4,3.1,6.3,6.8,9.3,10.3c1.6,1.8,3,3.7,4.5,5.4c3.6,4.1,6.4,8.6,9,13.4c1.3,2.4,2.8,4.7,4.2,7c1.5,2.4,3.9,3.6,6.5,4.5
			c4,1.3,8.1,2.8,12.1,4.1c3.5,1.1,7.1,2,10.8,2.8c3.5,0.8,5.8,2.6,7.1,6c1.6,4.4,2.3,8.9,2.4,13.5c0.1,4.7-0.4,9.3-0.5,14
			c-0.1,3.9,0.1,7.8,0.2,11.6c0,1.5,0.3,3,0.4,4.5c0.3,8.1,0.4,16.3-0.1,24.4c-0.3,5.7-0.2,11.4-0.1,17c0.1,7,0.2,14.1,0.5,21.1
			c0.2,4.9,0.8,9.8,1.1,14.7c0.3,4.5,0.4,9,0.5,13.5c0.2,6,0.3,12,0.5,18c0.1,3.7,0.5,7.3,0.6,11c0,1.6-0.4,3.3-0.9,4.9
			c-0.5,1.6-1.4,3-3.5,2.8c-0.3,0-0.6,0.3-0.9,0.5c-0.9,0.6-1.8,1.3-2.7,2c-2.1,1.4-3.7,1-4.9-1.1c-0.3-0.4-0.5-1-0.8-1.3
			c-2.2-1.9-2.5-4.5-2.7-7.1c-0.4-5.3-0.7-10.6-1-15.9c-0.3-5.8-0.5-11.7-1-17.5c-0.7-7.9-1.6-15.7-2.3-23.6
			c-0.7-7.6-1.1-15.3-1.8-22.9c-0.3-3.3-2-5.6-5.1-6.9c-3.8-1.5-7.7-1.2-11.6-0.4c-5,1-9.9,2.3-14.9,3.5c-3.1,0.8-6.3,1.6-9.4,2.5
			C290.5,368.4,290.4,368.5,290.3,368.6z M342.3,283.6c-0.7-0.2-1.2-0.3-1.6-0.5c-3.8-1-7.6-1.9-11.3-3c-3.2-0.9-6.3-2.1-9.4-3.3
			c-2.6-1-5.1-2-7.6-3.1c-0.8-0.4-1.6-1-2.1-1.7c-2.2-3.5-4.3-7.2-6.5-10.7c-1.7-2.7-3.3-5.5-5.2-8c-2.2-3-4.8-5.8-7.1-8.8
			c-3.7-4.9-7.8-9.4-12.9-12.9c-3.6-2.5-6.9-5.4-10.5-7.7c-6.2-4-13.4-5.6-20.5-7.5c-4.8-1.2-9.7-2.3-14.7-2.4
			c-5.3,0-10.6-0.5-15.7,1.1c-4.8,1.5-9.6,3-14.3,4.7c-1.6,0.5-3.2,1.2-4.5,2.2c-2.5,1.7-4.8,3.5-7.2,5.3c-1.7,1.3-3.3,2.8-5.2,3.9
			c-3.2,1.8-5.3,4.6-6.7,7.9c-1.3,2.9-2.2,6-3.2,9c-0.6,1.7-1.2,3.3-1.4,5.1c-0.6,5.2-0.5,10.4,0.8,15.5c0.7,2.5,1.3,5.1,2.3,7.5
			c1.8,4.2,3.9,8.2,6,12.2c2,3.8,4.6,7.1,8.9,8.4c2.7,0.9,5.3,1.7,8.1,2.3c3.6,0.8,6.1,2.5,6.7,6.4c0.8,4.8,1.8,9.6,2.6,14.4
			c1,5.8,2,11.6,2.8,17.5c0.7,5.3,1.2,10.6,1.7,16c0.3,3.3,0.6,6.5,0.9,9.8c0.3,3.1,0.9,6.3,1.2,9.4c0.5,4.2,0.9,8.3,1.3,12.5
			c0.4,5.1,1,10.2,1.1,15.3c0.1,8.9-0.2,17.8-0.2,26.6c0,7.1,0.4,14.2,0.4,21.3c0,2.6-0.2,5.3-0.8,7.8c-1.4,5.7-0.6,11.5-0.7,17.2
			c0,0.4,0,0.9,0.3,1.2c0.4,0.5,0.9,1.3,1.4,1.4c2.5,0.2,4.9,0.3,7.4,0.4c2.6,0,2.6,0,3.1-2.7c0-0.2,0.1-0.3,0.1-0.5
			c1.2-4.4,1.3-9,1.2-13.5c-0.1-6,0-12,0.8-17.9c1.3-9.2,2.7-18.5,4.1-27.7c0.8-5.4,1.8-10.7,2.8-16c0.7-3.7,1.5-7.3,3.4-10.5
			c1.5-2.6,2.8-5.3,4.2-7.9c1.4-2.6,3.3-4.9,5.8-6.4c4.2-2.5,8.7-4.5,13.6-5.3c1.1-0.2,2.1-0.4,3.1-0.7c2.3-0.8,4.7-1.3,7.2-1.2
			c7.7,0.3,15.1-1.1,22.4-3.3c5.3-1.6,10.8-2.7,16.3-3.9c4.3-0.9,8.6-0.9,12.9,0.7c4.4,1.7,7.5,5.8,7.6,10.5
			c0.1,3.4,0.3,6.8,0.5,10.2c0.4,5,0.9,10,1.4,15c0.3,3.5,0.6,7.1,0.9,10.6c0.4,3.5,0.9,6.9,1.2,10.4c0.4,6,0.7,12,1,18.1
			c0.3,5.2,0.6,10.4,1,15.7c0.1,2.4,1.3,4.3,3,5.9c0.7-0.5,1.4-1.1,2.1-1.4c2.6-1.1,3.8-2.6,3.7-5.4c-0.2-5.7-0.6-11.3-0.9-17
			c-0.2-5.1-0.2-10.2-0.3-15.2c-0.2-4.4-0.5-8.7-0.7-13c-0.5-7.8-1.1-15.5-1.3-23.3c-0.2-7.1-0.1-14.2-0.1-21.4c0-1.7,0.1-3.4,0.1-5
			c0.1-6.3,0.4-12.5,0.3-18.8c-0.1-8.1-0.5-16.2-0.7-24.3c-0.1-5.4,0.1-10.9-0.1-16.3c-0.1-2.3-0.9-4.6-1.3-6.9
			c-1.1,0.1-1.8,0.2-2.6,0.4c-0.4,0.1-0.9,0.4-1.1,0.8c-0.7,1.4-1.4,2.8-1.8,4.4c-0.5,1.8-0.7,3.7-0.8,5.6c-0.2,4.7-0.4,9.4-0.2,14
			c0.2,7.3,0.5,14.6-0.3,21.9c-0.3,2.5-0.9,4.9-3.2,6.4c-1.8,1.2-3.7,2.5-5.6,3.7c-2.5,1.5-5,3.2-7.6,4.4c-4.6,2.1-9.8,2.9-14.4,5.2
			c-0.9,0.5-1.9,0.7-2.8,1c-3.4,1.1-7,1.2-10.5,1.2c-2.3,0-4.7,0.5-7,0.7c-2.5,0.2-4.9,0.5-7.4,0.6c-5,0.1-10-0.3-15,0.1
			c-5.3,0.4-10.6,0.8-15.9,0.9c-2.9,0-5.7,0.5-8.6,0c-5.3-0.9-9.5-3.2-12.4-7.8c-0.3-0.4-0.6-0.7-0.9-1.1c-0.5-0.7-1.1-1.3-1.3-2
			c-0.7-2.1-1.2-4.3-1.8-6.4c-1.9-6.2-3.3-12.4-4.2-18.8c-0.8-5.2-2-10.3-3-15.5c-0.5-2.4-1.5-4.5-3.2-6.3c-2.5-2.6-5.4-4.3-8.6-5.7
			c-2.4-1.1-4.7-2.3-7-3.6c-2.8-1.6-4.7-4.1-5.7-7.2c-0.9-2.8-1.6-5.7-2.4-8.5c-1.7-5.5-1.4-11.1-1-16.8c0.2-2.1,1.4-3.1,3.4-2.7
			c0.8,0.2,1.8,0.8,2.3,1.5c1.8,2.8,3.8,5.7,5.2,8.7c2.6,5.6,5.1,11.3,6,17.5c0.4,2.5,0.7,5,1.1,7.3c2.6,1.7,5.4,3.4,8,5.4
			c2.2,1.7,4.1,3.8,4.9,6.5c1.1,4.1,2.1,8.2,2.9,12.3c1.1,5.7,1.9,11.5,3.1,17.2c0.6,3.1,1.8,6.1,2.4,9.1c0.7,3.4,2.5,6.1,4.7,8.7
			c1.5,1.8,3.3,3,5.5,3.6c2.8,0.8,5.6,1.1,8.6,0.9c5.7-0.6,11.4-0.8,17.1-1c5.6-0.2,11.2,0,16.8-0.1c1.4,0,2.7,0,4-0.3
			c3.7-0.9,7.5-1.3,11.3-1.1c1.2,0,2.5,0,3.7-0.1c3.9-0.5,7.4-2,10.9-3.5c1.6-0.7,3.2-1.2,4.9-1.6c2.7-0.7,5.4-1.6,7.7-3.2
			c1-0.7,1.9-1.4,3-2c2.8-1.4,5.6-2.7,7.2-5.6c0.5-0.9,1.1-1.8,1.3-2.8c0.3-1.8,0.4-3.6,0.4-5.4c0-8.1-0.2-16.2-0.2-24.2
			c0-4.6,0.3-9.2,1.5-13.7C337.3,287.4,338.7,284.7,342.3,283.6z M286.3,369.4c-2.9,0-5.7-0.1-8.4,0c-1.8,0-3.6,0.2-5.4,0.4
			c-1.1,0.1-1.4,0.6-1.2,1.8c0.3,1.4,0.3,2.8,0.4,4.2c0.3,8.3,0.6,16.5,0.9,24.8c0.4,8.3,0.8,16.7,1.2,25c0,0.7,0.3,1,1,1
			c1,0,1.9,0,2.9,0c1.9,0,2-0.1,2.7-1.8c0.1-0.3,0.3-0.7,0.3-1c0.4-2.6,0.9-5.3,1.2-7.9c0.4-3.2,0.5-6.4,0.8-9.7
			c0.7-6.9,1.4-13.8,2.1-20.7c0.4-3.8,0.8-7.5,1.1-11.3C286.2,372.5,286.2,370.8,286.3,369.4z M191.4,443.9c2.1-0.7,3.9-1.2,5.7-1.8
			c0.3-0.1,0.5-0.7,0.6-1c0.4-3.5,0.7-7,1-10.5c0.6-6.1,1-12.2,1.8-18.2c0.9-7.2,2-14.5,2.9-21.7c0.7-5.3,1.2-10.6,1.8-15.8
			c0.7-5.7,1.4-11.4,2.2-17.1c0.3-2.1,0.4-2.1-1.5-3c-0.1,0-0.1,0-0.2,0c-0.1,0.2-0.2,0.4-0.2,0.7c-1.2,5.2-2.6,10.4-3.6,15.6
			c-1.4,7.4-2.5,14.8-3.6,22.2c-1,7.2-1.9,14.3-2.4,21.5c-0.5,7.3-1.9,14.4-3.2,21.5C192.4,438.7,191.9,441.2,191.4,443.9z
			 M192.7,262c-0.1,3.9-0.4,7.8,0.8,11.6c1,3.1,1.7,6.3,2.7,9.4c1,3.3,3.8,4.9,6.6,6.5C201.7,279.4,198.3,270.3,192.7,262z
			 M208.7,334.4c0,0-0.1,0-0.1,0c-0.6,5.6-1.3,11.1-1.9,16.5c1.4,0.6,2.7,1.1,4.3,1.8C210.1,346.5,209.4,340.4,208.7,334.4z"/>
		<path class="st4" d="M342.3,283.6c-3.6,1.1-5,3.8-5.8,6.7c-1.2,4.4-1.5,9.1-1.5,13.7c0,8.1,0.2,16.2,0.2,24.2
			c0,1.8-0.1,3.6-0.4,5.4c-0.2,1-0.8,1.9-1.3,2.8c-1.6,2.9-4.4,4.2-7.2,5.6c-1.1,0.5-2,1.3-3,2c-2.3,1.6-5,2.5-7.7,3.2
			c-1.6,0.4-3.3,0.9-4.9,1.6c-3.5,1.5-7,3.1-10.9,3.5c-1.2,0.1-2.5,0.2-3.7,0.1c-3.8-0.2-7.6,0.2-11.3,1.1c-1.3,0.3-2.7,0.3-4,0.3
			c-5.6,0-11.2-0.1-16.8,0.1c-5.7,0.2-11.4,0.4-17.1,1c-3,0.3-5.8-0.1-8.6-0.9c-2.2-0.6-4-1.8-5.5-3.6c-2.1-2.6-4-5.3-4.7-8.7
			c-0.6-3.1-1.8-6.1-2.4-9.1c-1.1-5.7-2-11.5-3.1-17.2c-0.8-4.1-1.8-8.3-2.9-12.3c-0.8-2.7-2.7-4.8-4.9-6.5c-2.6-2-5.4-3.7-8-5.4
			c-0.3-2.3-0.7-4.8-1.1-7.3c-0.9-6.2-3.4-11.9-6-17.5c-1.4-3.1-3.4-5.9-5.2-8.7c-0.5-0.7-1.4-1.4-2.3-1.5c-2-0.4-3.2,0.6-3.4,2.7
			c-0.4,5.6-0.7,11.3,1,16.8c0.9,2.8,1.6,5.7,2.4,8.5c1,3.1,2.9,5.5,5.7,7.2c2.3,1.3,4.6,2.5,7,3.6c3.2,1.5,6.2,3.2,8.6,5.7
			c1.7,1.8,2.8,3.9,3.2,6.3c1,5.2,2.2,10.3,3,15.5c0.9,6.4,2.4,12.6,4.2,18.8c0.6,2.1,1.1,4.3,1.8,6.4c0.2,0.7,0.9,1.4,1.3,2
			c0.3,0.4,0.6,0.7,0.9,1.1c2.9,4.6,7.1,7,12.4,7.8c2.9,0.5,5.7,0,8.6,0c5.3-0.1,10.6-0.5,15.9-0.9c5-0.4,10,0,15-0.1
			c2.5,0,4.9-0.3,7.4-0.6c2.3-0.2,4.7-0.6,7-0.7c3.6,0,7.1-0.1,10.5-1.2c0.9-0.3,1.9-0.5,2.8-1c4.6-2.3,9.7-3.1,14.4-5.2
			c2.7-1.2,5.1-2.9,7.6-4.4c1.9-1.2,3.8-2.4,5.6-3.7c2.3-1.5,2.9-4,3.2-6.4c0.8-7.3,0.5-14.6,0.3-21.9c-0.1-4.7,0.1-9.4,0.2-14
			c0.1-1.9,0.3-3.8,0.8-5.6c0.4-1.5,1.1-2.9,1.8-4.4c0.2-0.4,0.7-0.7,1.1-0.8c0.7-0.2,1.5-0.2,2.6-0.4c0.5,2.3,1.3,4.6,1.3,6.9
			c0.2,5.4,0,10.9,0.1,16.3c0.2,8.1,0.6,16.2,0.7,24.3c0.1,6.3-0.2,12.5-0.3,18.8c0,1.7-0.1,3.4-0.1,5c0,7.1-0.2,14.2,0.1,21.4
			c0.3,7.8,0.9,15.6,1.3,23.3c0.3,4.3,0.6,8.7,0.7,13c0.2,5.1,0.1,10.2,0.3,15.2c0.2,5.7,0.6,11.3,0.9,17c0.1,2.8-1.1,4.4-3.7,5.4
			c-0.8,0.3-1.4,0.9-2.1,1.4c-1.7-1.6-2.8-3.5-3-5.9c-0.3-5.2-0.7-10.4-1-15.7c-0.3-6-0.6-12.1-1-18.1c-0.2-3.5-0.8-6.9-1.2-10.4
			c-0.4-3.5-0.6-7.1-0.9-10.6c-0.5-5-1-10-1.4-15c-0.3-3.4-0.4-6.8-0.5-10.2c-0.2-4.7-3.3-8.9-7.6-10.5c-4.2-1.6-8.6-1.6-12.9-0.7
			c-5.5,1.1-11,2.2-16.3,3.9c-7.3,2.2-14.7,3.5-22.4,3.3c-2.5-0.1-4.8,0.3-7.2,1.2c-1,0.4-2.1,0.6-3.1,0.7
			c-4.9,0.8-9.4,2.8-13.6,5.3c-2.5,1.5-4.4,3.8-5.8,6.4c-1.4,2.6-2.7,5.3-4.2,7.9c-1.9,3.3-2.7,6.9-3.4,10.5c-1,5.3-2,10.7-2.8,16
			c-1.4,9.2-2.8,18.5-4.1,27.7c-0.8,5.9-1,11.9-0.8,17.9c0.1,4.6,0,9.1-1.2,13.5c0,0.2-0.1,0.3-0.1,0.5c-0.4,2.7-0.4,2.7-3.1,2.7
			c-2.5,0-5-0.1-7.4-0.4c-0.5-0.1-1-0.8-1.4-1.4c-0.2-0.3-0.3-0.8-0.3-1.2c0.1-5.7-0.7-11.5,0.7-17.2c0.6-2.5,0.8-5.2,0.8-7.8
			c0-7.1-0.4-14.2-0.4-21.3c0-8.9,0.3-17.8,0.2-26.6c-0.1-5.1-0.7-10.2-1.1-15.3c-0.4-4.2-0.8-8.3-1.3-12.5
			c-0.4-3.1-0.9-6.2-1.2-9.4c-0.4-3.3-0.6-6.5-0.9-9.8c-0.5-5.3-1-10.7-1.7-16c-0.8-5.8-1.8-11.7-2.8-17.5
			c-0.8-4.8-1.8-9.6-2.6-14.4c-0.7-3.8-3.2-5.6-6.7-6.4c-2.7-0.6-5.4-1.4-8.1-2.3c-4.3-1.4-6.9-4.7-8.9-8.4c-2.1-4-4.2-8.1-6-12.2
			c-1.1-2.4-1.7-5-2.3-7.5c-1.3-5.1-1.5-10.3-0.8-15.5c0.2-1.7,0.9-3.4,1.4-5.1c1-3,1.9-6.1,3.2-9c1.4-3.3,3.5-6,6.7-7.9
			c1.9-1.1,3.5-2.6,5.2-3.9c2.4-1.8,4.7-3.7,7.2-5.3c1.4-0.9,3-1.6,4.5-2.2c4.8-1.6,9.5-3.2,14.3-4.7c5.1-1.6,10.4-1.1,15.7-1.1
			c5.1,0,9.9,1.1,14.7,2.4c7.1,1.8,14.3,3.4,20.5,7.5c3.7,2.4,7,5.2,10.5,7.7c5.1,3.6,9.2,8,12.9,12.9c2.3,3,4.8,5.8,7.1,8.8
			c1.9,2.6,3.5,5.3,5.2,8c2.2,3.6,4.3,7.2,6.5,10.7c0.5,0.7,1.3,1.4,2.1,1.7c2.5,1.1,5.1,2.1,7.6,3.1c3.1,1.2,6.2,2.3,9.4,3.3
			c3.7,1.1,7.5,2,11.3,3C341.1,283.3,341.6,283.4,342.3,283.6z M330.6,308.2c0.1,0,0.1,0,0.2,0c-0.2-3.3-0.3-6.5-0.5-9.8
			c-0.2-3.9-2.4-6.4-5.7-7.9c-3.4-1.5-6.9-2.8-10.4-4c-1.9-0.7-3.9-1.1-5.2-2.7c-1.1-1.3-2.1-2.8-2.7-4.3c-1.6-3.9-3.5-7.6-6.4-10.8
			c-1.5-1.6-2.9-3.3-4.4-5c-3.4-3.9-6.8-7.7-10.2-11.6c-2.7-3-5.9-4.5-10-4.1c-1.3,0.1-2.4,0.6-3.2,1.7c-1.3,1.8-2.2,3.7-2.7,5.8
			c-1.1,4.9-2.4,9.7-3.3,14.6c-0.8,4.4-1.5,8.9-1.7,13.4c-0.4,8.7,0.8,17.4,1.9,26c0.7,5.7,2.1,11.1,4.8,16.2c2,3.6,5.2,5.4,9,5.7
			c2.9,0.2,5.8-0.5,8.7-0.8c4.2-0.4,8.4-0.3,12.5,0.4c5.4,0.9,10.9,1.8,16.4,1.5c2.3-0.1,4.6,0,6.9,0.1c4.1,0.2,5-0.7,5.2-4.8
			c0-0.1,0-0.2,0-0.2C330.2,321.1,330.4,314.7,330.6,308.2z M227.9,229.3c-1.6,0.4-3.1,0.8-4.7,1.2c-1.4,0.3-2.2,1-2.2,2.4
			c0,1.4,0,2.8,0.4,4.1c1.5,6,3.3,11.8,4.6,17.8c2.2,10.1,4.1,20.3,6.3,30.4c1.2,5.5,2.6,10.9,3.9,16.4c0.6,2.7,1.2,5.4,1.9,8
			c0.9,3.3,1.9,6.7,3,9.9c0.2,0.7,0.8,1.4,1.4,1.9c1.5,1.2,3.3,0.4,3.6-1.5c0.1-0.8,0.1-1.7-0.1-2.5c-0.3-2.2-0.8-4.4-1.1-6.6
			c-0.5-3.1-1.1-6.1-1.5-9.2c-1-7.3-2-14.7-3-22.1c-0.6-4.1-1.4-8.1-2-12.2c-0.7-4.8-1.2-9.7-1.8-14.5c-0.5-4.4-1.1-8.9-1.7-13.3
			c-0.3-2-0.6-4.1-1.4-5.9C232.5,231.5,231,229.4,227.9,229.3z M203.1,239.1c-0.8,0.2-2.1,0.3-3.1,0.8c-0.7,0.3-1.3,1.2-1.5,2
			c-0.3,1.6-0.2,3.2,0.6,4.7c1,1.8,2.1,3.6,3.2,5.5c1.7,2.9,3.8,5.6,5.2,8.6c2.4,5.1,4.5,10.2,6.5,15.5c1.8,5,3.2,10.2,4.8,15.3
			c0.7,2,1.6,4,2.2,6.1c2.3,7.5,4.6,15,7,22.5c0.5,1.6,1.2,3.1,1.9,4.7c0.6,1.4,1.7,2,3.2,1.7c1.3-0.2,2.2-1.3,2.1-2.8
			c-0.1-1.6-0.3-3.3-0.9-4.8c-3.7-9.5-6.5-19.2-9-29c-2.7-10.5-4.9-21.1-7.3-31.7c-1.3-5.7-3-11.3-7.5-15.4
			C208.4,240.7,206.3,239.3,203.1,239.1z M259.7,237.8c0-4.4-0.2-4.6-3.2-5.4c-0.1,0-0.2,0-0.3-0.1c-1.3-1.2-3-0.9-4.6-1
			c-1.9,0-3.2,1-3.3,2.9c-0.2,1.7-0.1,3.4,0,5c0.4,3.7,1,7.4,1.3,11c0.5,4.6,0.9,9.3,1.3,14c0.6,6.8,1,13.5,1.6,20.3
			c0.5,5.7,1,11.5,1.6,17.2c0.4,3.6,1,7.3,1.6,10.9c0.2,1.3,0.5,2.6,1.1,3.7c0.5,1.1,1.6,1.6,2.9,1.3c1.2-0.3,1.6-1.3,1.7-2.4
			c0.1-0.5,0.1-1,0-1.4c-0.4-4.5-0.9-8.9-1.2-13.4c-0.6-7.8-1.3-15.5-1.8-23.3c-0.4-6-0.5-12.1-0.5-18.1c0-4.1,0.5-8.1,0.9-12.2
			C259,243.5,259.4,240,259.7,237.8z M223.3,459.2C223.4,459.2,223.4,459.2,223.3,459.2c0.1,0.9,0,1.8,0.1,2.6
			c0.1,1,0.7,1.7,1.8,1.8c1,0.1,1.6-0.5,1.9-1.5c0.1-0.5,0.1-0.9,0.2-1.4c0.1-1.7,0.1-3.4,0.2-5.1c0.3-4.8,0.7-9.6,1-14.5
			c0.4-5.9,0.9-11.9,1.3-17.8c0.3-4.5,0.8-8.9,1-13.4c0.4-7.4,0.6-14.8,2.1-22c0.3-1.3-0.4-2.4-1.5-2.6c-1.1-0.2-2,0.5-2.2,1.8
			c-0.4,2.4-0.9,4.8-1.1,7.2c-0.4,4.8-0.7,9.6-1.1,14.3c-0.4,5-0.7,10-1.1,15c-0.3,4.2-0.8,8.4-1.1,12.6c-0.3,3.8-0.4,7.7-0.7,11.5
			C223.9,451.6,223.6,455.4,223.3,459.2z"/>
		<path class="st4" d="M286.3,369.4c-0.1,1.5-0.2,3.1-0.3,4.7c-0.4,3.8-0.7,7.5-1.1,11.3c-0.7,6.9-1.4,13.8-2.1,20.7
			c-0.3,3.2-0.4,6.5-0.8,9.7c-0.3,2.7-0.8,5.3-1.2,7.9c-0.1,0.4-0.2,0.7-0.3,1c-0.7,1.8-0.8,1.8-2.7,1.8c-1,0-1.9,0-2.9,0
			c-0.7,0-0.9-0.3-1-1c-0.4-8.3-0.9-16.7-1.2-25c-0.4-8.3-0.6-16.5-0.9-24.8c-0.1-1.4-0.1-2.8-0.4-4.2c-0.2-1.1,0.1-1.7,1.2-1.8
			c1.8-0.2,3.6-0.4,5.4-0.4C280.6,369.3,283.4,369.4,286.3,369.4z"/>
		<path class="st4" d="M191.4,443.9c0.5-2.7,0.9-5.2,1.4-7.6c1.3-7.1,2.7-14.2,3.2-21.5c0.5-7.2,1.4-14.4,2.4-21.5
			c1-7.4,2.2-14.8,3.6-22.2c1-5.2,2.4-10.4,3.6-15.6c0.1-0.2,0.2-0.4,0.2-0.7c0.1,0,0.2,0,0.2,0c1.9,0.9,1.8,0.9,1.5,3
			c-0.8,5.7-1.5,11.4-2.2,17.1c-0.6,5.3-1.1,10.6-1.8,15.8c-0.9,7.2-2.1,14.5-2.9,21.7c-0.7,6.1-1.2,12.1-1.8,18.2
			c-0.3,3.5-0.6,7-1,10.5c0,0.4-0.3,0.9-0.6,1C195.4,442.7,193.5,443.2,191.4,443.9z"/>
		<path class="st4" d="M208.7,334.4c0.7,6,1.5,12.1,2.2,18.3c-1.6-0.6-2.8-1.2-4.3-1.8c0.6-5.4,1.3-10.9,1.9-16.5
			C208.6,334.5,208.6,334.4,208.7,334.4z"/>
		<path d="M330.6,308.2c-0.2,6.5-0.4,12.9-0.6,19.4c0,0.1,0,0.2,0,0.2c-0.2,4.1-1.2,4.9-5.2,4.8c-2.3-0.1-4.6-0.2-6.9-0.1
			c-5.6,0.3-11-0.6-16.4-1.5c-4.2-0.7-8.3-0.8-12.5-0.4c-2.9,0.3-5.8,1-8.7,0.8c-3.8-0.3-7-2.1-9-5.7c-2.8-5.1-4.1-10.5-4.8-16.2
			c-1.1-8.6-2.3-17.3-1.9-26c0.2-4.5,0.9-9,1.7-13.4c0.9-4.9,2.2-9.7,3.3-14.6c0.5-2.1,1.4-4.1,2.7-5.8c0.8-1.1,1.8-1.5,3.2-1.7
			c4.1-0.4,7.3,1.1,10,4.1c3.4,3.9,6.8,7.7,10.2,11.6c1.5,1.7,2.9,3.3,4.4,5c2.9,3.2,4.8,6.8,6.4,10.8c0.6,1.6,1.7,3,2.7,4.3
			c1.3,1.6,3.3,2,5.2,2.7c3.5,1.3,7,2.5,10.4,4c3.3,1.5,5.5,4,5.7,7.9c0.2,3.3,0.3,6.5,0.5,9.8C330.8,308.2,330.7,308.2,330.6,308.2
			z M326.8,308.3c0.1,0,0.1,0,0.2,0c-0.2-3.4-0.3-6.9-0.7-10.3c-0.1-0.9-0.6-2-1.3-2.6c-1.3-1.1-2.8-2-4.4-2.6
			c-3.1-1.2-6.3-2.2-9.5-3.4c-1.5-0.6-2.9-1.5-4.2-2.4c-2.2-1.5-3.3-3.9-4.3-6.2c-1.4-3.5-3.1-6.7-5.6-9.5
			c-3.7-4.1-7.2-8.3-10.9-12.5c-1.5-1.7-3.1-3.5-4.8-5.1c-0.7-0.7-1.7-1.3-2.6-1.6c-2.5-1-3.8-0.4-4.8,2c-0.3,0.6-0.5,1.3-0.6,1.9
			c-1.3,5.3-2.6,10.5-3.7,15.8c-0.7,3.6-1.2,7.2-1.3,10.8c-0.4,8.5,0.7,17,1.8,25.4c0.7,5.4,1.8,10.6,4.4,15.5
			c1.6,2.9,4.9,4.5,8.1,3.9c6.3-1.2,12.6-1.3,19-0.3c5.5,0.9,11,1.8,16.7,1.5c2.3-0.1,4.6,0.1,6.9,0.2c0.9,0,0.9-0.5,1-1.1
			C326.4,321.3,326.6,314.8,326.8,308.3z"/>
		<path d="M227.9,229.3c3.1,0.1,4.6,2.2,5.6,4.5c0.8,1.8,1.1,3.9,1.4,5.9c0.6,4.4,1.2,8.9,1.7,13.3c0.6,4.8,1.1,9.7,1.8,14.5
			c0.6,4.1,1.4,8.1,2,12.2c1.1,7.3,2,14.7,3,22.1c0.4,3.1,1,6.1,1.5,9.2c0.4,2.2,0.8,4.4,1.1,6.6c0.1,0.8,0.2,1.7,0.1,2.5
			c-0.2,1.9-2.1,2.6-3.6,1.5c-0.6-0.5-1.2-1.2-1.4-1.9c-1.1-3.3-2.1-6.6-3-9.9c-0.7-2.6-1.2-5.4-1.9-8c-1.3-5.5-2.8-10.9-3.9-16.4
			c-2.2-10.1-4-20.3-6.3-30.4c-1.3-6-3.1-11.9-4.6-17.8c-0.3-1.3-0.4-2.8-0.4-4.1c0-1.4,0.7-2.1,2.2-2.4
			C224.8,230.1,226.3,229.7,227.9,229.3z M224.8,233.8c0.1,0.7,0.1,1.4,0.3,2c1.5,5.9,3.3,11.7,4.6,17.6c2.2,9.7,4,19.5,6,29.3
			c0.6,2.8,1.4,5.6,2.1,8.3c0.1,0,0.2-0.1,0.3-0.1c-0.8-5.2-1.6-10.5-2.3-15.7c-0.9-6.1-1.9-12.2-2.7-18.4c-0.8-6-1.4-12.1-2.1-18.1
			c-0.1-1.1-0.4-2.2-0.8-3.2c-0.6-1.6-1.5-2.3-2.7-2.2C226.6,233.5,225.7,233.7,224.8,233.8z"/>
		<path d="M203.1,239.1c3.2,0.2,5.3,1.6,7.3,3.4c4.5,4.2,6.2,9.7,7.5,15.4c2.4,10.6,4.6,21.2,7.3,31.7c2.6,9.8,5.4,19.6,9,29
			c0.6,1.5,0.8,3.2,0.9,4.8c0.1,1.5-0.8,2.5-2.1,2.8c-1.5,0.3-2.6-0.2-3.2-1.7c-0.7-1.5-1.4-3.1-1.9-4.7c-2.3-7.5-4.6-15-7-22.5
			c-0.6-2.1-1.5-4-2.2-6.1c-1.6-5.1-3-10.3-4.8-15.3c-1.9-5.2-4.1-10.4-6.5-15.5c-1.4-3-3.4-5.7-5.2-8.6c-1.1-1.8-2.2-3.6-3.2-5.5
			c-0.8-1.5-0.9-3.1-0.6-4.7c0.1-0.7,0.8-1.6,1.5-2C201,239.4,202.3,239.3,203.1,239.1z M216.8,272.4c0.1-0.2,0.1-0.3,0.1-0.3
			c-1.2-5.6-2.5-11.1-3.7-16.7c-0.9-4.2-3-7.7-6.1-10.6c-1.3-1.2-2.8-2.1-5-1.6c0.2,0.7,0.3,1.4,0.7,2c0.8,1.4,1.5,2.8,2.4,4.1
			c3.6,5.1,6.6,10.5,8.9,16.3C215.1,267.9,215.9,270.1,216.8,272.4z"/>
		<path d="M259.7,237.8c-0.3,2.3-0.7,5.7-1,9.1c-0.4,4.1-0.8,8.1-0.9,12.2c0,6,0.1,12.1,0.5,18.1c0.5,7.8,1.2,15.5,1.8,23.3
			c0.4,4.5,0.8,8.9,1.2,13.4c0,0.5,0,1,0,1.4c-0.1,1.1-0.5,2.1-1.7,2.4c-1.2,0.3-2.3-0.2-2.9-1.3c-0.6-1.2-0.9-2.5-1.1-3.7
			c-0.6-3.6-1.2-7.2-1.6-10.9c-0.6-5.7-1.1-11.4-1.6-17.2c-0.6-6.8-1-13.5-1.6-20.3c-0.4-4.7-0.8-9.3-1.3-14c-0.4-3.7-1-7.4-1.3-11
			c-0.2-1.7-0.2-3.4,0-5c0.2-1.9,1.5-3,3.3-2.9c1.6,0,3.2-0.2,4.6,1c0.1,0.1,0.2,0.1,0.3,0.1C259.5,233.1,259.7,233.4,259.7,237.8z
			 M251.7,235.1c0.8,7,1.5,13.8,2.3,20.2c0.3-3.2,0.7-6.7,1.1-10.3c0.3-2.7,0.6-5.3,0.7-8c0-0.5-0.4-1.3-0.9-1.4
			C254,235.2,253,235.2,251.7,235.1z"/>
		<path d="M223.3,459.2c0.3-3.8,0.6-7.6,0.8-11.3c0.3-3.8,0.4-7.7,0.7-11.5c0.3-4.2,0.7-8.4,1.1-12.6c0.4-5,0.7-10,1.1-15
			c0.4-4.8,0.6-9.6,1.1-14.3c0.2-2.4,0.7-4.8,1.1-7.2c0.2-1.3,1.1-2,2.2-1.8c1.1,0.2,1.8,1.3,1.5,2.6c-1.5,7.3-1.7,14.6-2.1,22
			c-0.2,4.5-0.7,8.9-1,13.4c-0.5,5.9-0.9,11.9-1.3,17.8c-0.4,4.8-0.7,9.6-1,14.5c-0.1,1.7-0.1,3.4-0.2,5.1c0,0.5,0,1-0.2,1.4
			c-0.2,1-0.9,1.6-1.9,1.5c-1.1-0.1-1.7-0.7-1.8-1.8C223.4,460.9,223.4,460,223.3,459.2C223.4,459.2,223.4,459.2,223.3,459.2z"/>
	</g>
	<g>
		<path d="M750.8,335.5c0-1.9,0-3.6,0-5.3c0-2.6,0.9-3.9,3.4-4.7c5.8-1.8,11.7-2.3,17.6-1.7c4,0.4,5.8,2.4,6.3,6.5
			c0.3,2.3,0.5,4.5,0.8,6.8c0.1,0.9,0.4,1.5,1.1,2.1c2.2,1.5,3.3,3.9,3.8,6.3c0.8,3.4,1.4,6.9,1.9,10.3c1,6.3,1.9,12.6,2.8,19
			c0.6,4.6,1.2,9.2,1.6,13.8c0.7,7.1,1.3,14.2,1.9,21.2c0.5,6.5,0.9,13.1,1.3,19.6c0.2,4.3,0.3,8.6,0.2,12.8
			c-0.1,2.6-0.6,5.2-0.9,7.8c-0.1,0.5-0.3,1-0.5,1.4c-3,4.6-7,8-12.7,8.1c-10.3,0.3-20.5,0.3-30.8,0.5c-4.2,0.1-8.5,0.3-12.7,0.5
			c-1.5,0.1-2.9,0.4-4.4,0.7c-3.2,0.7-6.5,0.7-9.6-0.4c-1.5-0.5-2.9-1.4-4-2.5c-2.7-2.8-3.5-6.3-3.4-10.1c0.1-3.3-0.1-6.6-0.2-9.8
			c-0.1-2.2-0.3-4.4-0.4-6.6c-0.1-5.3-0.2-10.6-0.3-15.9c-0.1-4.6-0.3-9.3-0.2-13.9c0.2-6.8,1.3-13.4,3.5-19.9
			c1.5-4.6,3.2-9.2,4.9-13.7c0.7-2,1.7-3.9,2.8-5.7c2.2-3.7,4.6-7.4,6.9-11.1c1.5-2.4,3-4.9,4.7-7.2c1.6-2.2,3.4-4.2,5.4-6.1
			c2.3-2.1,5.1-3,8.3-3C750.2,335.6,750.6,335.5,750.8,335.5z M782,357.1c0-0.5,0.1-0.8,0-1.2c-0.4-2.5-0.6-5.1-1.3-7.6
			c-0.5-1.9-1.1-4-2.4-5.4c-2.6-2.9-6.3-4.5-10.2-4.8c-3-0.3-6.1,0.1-9.1,0.3c-3.4,0.3-6.8,0.6-10.1,1.1c-1.1,0.1-2.2,0.5-3.2,1
			c-2.6,1.3-4.4,3.4-6,5.7c-1.8,2.5-3.4,5.1-5,7.7c-2.3,3.6-4.6,7.1-6.8,10.7c-1,1.6-1.9,3.3-2.5,5c-1.8,4.8-3.6,9.6-5.1,14.5
			c-2,6.4-3.1,13-3.1,19.8c0,5.8,0.1,11.6,0.3,17.4c0.2,7.5,0.5,14.9,0.7,22.4c0.1,2.4,0.1,4.9,0.2,7.3c0.1,3,2.7,6,5.7,6.6
			c0.9,0.2,1.9,0.3,2.9,0.2c2.5-0.2,5-0.7,7.5-0.9c4.6-0.3,9.3-0.6,13.9-0.7c4-0.1,8,0.1,12,0.1c4.5,0,9-0.1,13.4-0.2
			c2-0.1,3.9-0.2,5.8-0.5c6.6-0.9,10.7-6.2,10-12.8c-0.5,0.2-1,0.3-1.5,0.5c-1.1,0.4-2.3,1.1-3.4,1c-4.3,0-8.5-0.2-12.8-0.5
			c-3-0.3-5-2.1-5.6-5.1c-0.6-2.7-1.2-5.4-1.3-8.2c-0.2-5.9-0.1-11.8-0.1-17.8c0-2.7,0.1-5.4,0.3-8c0.3-3.9,0.8-7.7,1.1-11.6
			c0.2-2.1,0.1-4.2,0.3-6.2c0.4-3.8,0.9-7.5,1.2-11.3c0.4-4.9,1.6-9.5,4.3-13.7C774.4,358.5,777.3,356.1,782,357.1z M782.5,361.2
			c-2.9-1.2-5-0.2-6.6,2c-1.9,2.7-3.2,5.7-3.7,9c-0.5,3.6-0.8,7.3-1.2,11c-0.3,3-0.6,6-0.9,8.9c-0.1,1.4-0.1,2.7-0.2,4.1
			c-0.3,3.4-0.9,6.8-1,10.2c-0.2,7.2-0.3,14.4-0.2,21.6c0.1,3.3,0.8,6.6,1.3,9.8c0.2,1.4,1.1,2.1,2.6,2.3c1.2,0.1,2.4,0.2,3.6,0.3
			c4.2,0.4,8.3,0.6,12.3-1.2c0.9-0.4,1.3-0.8,1.2-1.8c-0.4-6.6-0.6-13.2-1-19.7c-0.4-6.6-0.9-13.2-1.5-19.8
			c-0.5-6-1.1-11.9-1.8-17.9C784.6,373.7,783.5,367.5,782.5,361.2z M754.8,335c6.9-0.7,13.6-2.1,20.3,1c-0.4-2.4-0.7-4.4-1-6.4
			c-0.1-0.8-0.5-1.3-1.3-1.5c-0.7-0.2-1.5-0.5-2.2-0.5c-5.1-0.5-10.2,0-15.1,1.6c-0.3,0.1-0.7,0.4-0.7,0.7
			C754.7,331.5,754.8,333.3,754.8,335z"/>
		<path class="st4" d="M782,357.1c-4.7-0.9-7.7,1.5-9.9,5c-2.6,4.2-3.8,8.8-4.3,13.7c-0.3,3.8-0.9,7.5-1.2,11.3
			c-0.2,2.1-0.1,4.2-0.3,6.2c-0.3,3.9-0.8,7.7-1.1,11.6c-0.2,2.7-0.3,5.4-0.3,8c0,5.9-0.1,11.8,0.1,17.8c0.1,2.7,0.7,5.5,1.3,8.2
			c0.6,3,2.6,4.8,5.6,5.1c4.2,0.4,8.5,0.5,12.8,0.5c1.1,0,2.3-0.7,3.4-1c0.5-0.2,1-0.3,1.5-0.5c0.7,6.6-3.4,11.9-10,12.8
			c-1.9,0.3-3.9,0.4-5.8,0.5c-4.5,0.1-9,0.2-13.4,0.2c-4,0-8-0.2-12-0.1c-4.6,0.1-9.3,0.4-13.9,0.7c-2.5,0.2-5,0.7-7.5,0.9
			c-0.9,0.1-1.9-0.1-2.9-0.2c-3-0.5-5.5-3.5-5.7-6.6c-0.1-2.4-0.1-4.9-0.2-7.3c-0.2-7.5-0.5-14.9-0.7-22.4
			c-0.2-5.8-0.2-11.6-0.3-17.4c0-6.8,1.1-13.4,3.1-19.8c1.5-4.9,3.3-9.7,5.1-14.5c0.7-1.7,1.6-3.4,2.5-5c2.2-3.6,4.5-7.2,6.8-10.7
			c1.7-2.6,3.2-5.2,5-7.7c1.6-2.3,3.4-4.4,6-5.7c1-0.5,2.1-0.8,3.2-1c3.4-0.4,6.7-0.8,10.1-1.1c3-0.2,6.1-0.6,9.1-0.3
			c3.9,0.3,7.5,1.9,10.2,4.8c1.3,1.4,1.9,3.5,2.4,5.4c0.6,2.5,0.9,5,1.3,7.6C782.1,356.2,782,356.6,782,357.1z M734.6,405.1
			c1.6-0.2,3.6-0.2,5.5-0.7c4.4-1.1,7.9-3.5,9-8.3c0.6-2.8,1.2-5.7,1.5-8.6c0.9-6.8,1.6-13.6,2.3-20.5c0.3-3.1,0.6-6.1,0.8-9.2
			c0.1-1.8-0.9-3-2.5-3.5c-1.7-0.5-3.5-0.8-5.1,0.6c-2.7,2.4-4.7,5.2-6.4,8.4c-1.7,3.2-3.1,6.5-4.6,9.7c-0.8,1.8-1.6,3.6-2.3,5.5
			c-0.8,2-1.3,4.1-2.1,6.1c-2.2,5.3-3.6,10.7-3.5,16.5c0,2.1,0.6,3.1,2.7,3.6C731.3,405,732.8,404.9,734.6,405.1z"/>
		<path class="st4" d="M782.5,361.2c1,6.2,2,12.5,2.8,18.8c0.8,5.9,1.3,11.9,1.8,17.9c0.6,6.6,1.1,13.2,1.5,19.8
			c0.4,6.6,0.7,13.2,1,19.7c0.1,1-0.3,1.4-1.2,1.8c-4,1.8-8.1,1.6-12.3,1.2c-1.2-0.1-2.4-0.2-3.6-0.3c-1.4-0.2-2.3-0.8-2.6-2.3
			c-0.5-3.3-1.3-6.5-1.3-9.8c-0.1-7.2,0-14.4,0.2-21.6c0.1-3.4,0.7-6.8,1-10.2c0.1-1.4,0.1-2.7,0.2-4.1c0.3-3,0.6-6,0.9-8.9
			c0.4-3.7,0.7-7.3,1.2-11c0.5-3.3,1.8-6.3,3.7-9C777.5,361.1,779.7,360,782.5,361.2z"/>
		<path class="st4" d="M754.8,335c0-1.7-0.1-3.5-0.1-5.2c0-0.2,0.4-0.6,0.7-0.7c4.9-1.6,10-2,15.1-1.6c0.7,0.1,1.5,0.3,2.2,0.5
			c0.8,0.2,1.2,0.7,1.3,1.5c0.3,2,0.6,4,1,6.4C768.5,332.9,761.8,334.3,754.8,335z"/>
		<path d="M734.6,405.1c-1.8-0.2-3.3-0.1-4.6-0.4c-2-0.5-2.6-1.5-2.7-3.6c-0.1-5.8,1.3-11.2,3.5-16.5c0.8-2,1.4-4.1,2.1-6.1
			c0.7-1.9,1.5-3.7,2.3-5.5c1.5-3.3,2.9-6.6,4.6-9.7c1.6-3.1,3.7-6,6.4-8.4c1.6-1.4,3.4-1.1,5.1-0.6c1.6,0.5,2.6,1.7,2.5,3.5
			c-0.2,3.1-0.5,6.1-0.8,9.2c-0.7,6.8-1.5,13.6-2.3,20.5c-0.4,2.9-0.9,5.7-1.5,8.6c-1.1,4.8-4.6,7.1-9,8.3
			C738.2,404.9,736.2,404.9,734.6,405.1z M731.1,401.3c3.1-0.3,5.8-0.3,8.4-0.8c2.3-0.5,4.5-1.7,5.4-4.1c0.6-1.7,1.1-3.4,1.3-5.2
			c0.6-4.3,1-8.6,1.5-12.8c0.3-2.3,0.7-4.6,0.9-6.9c0.4-3.5,0.7-7,1-10.5c0.1-0.8,0.2-1.7,0.1-2.5c-0.1-0.8-0.6-0.9-1.2-0.3
			c-0.9,1-1.9,1.9-2.7,3c-3.2,4-4.6,8.9-6.9,13.3c-0.6,1.2-1.2,2.4-1.7,3.7c-1.8,5.4-3.8,10.7-5.4,16.1
			C731.2,396.4,731.3,398.7,731.1,401.3z"/>
	</g>
	<g>
		<g>
			<g>
				<path class="st1" d="M663,170.8c-1.7,11-8.5,20.9-18.1,26.5c-1.4,0.8-0.1,3,1.3,2.2c10.2-5.8,17.5-16.3,19.3-28
					C665.6,169.9,663.2,169.2,663,170.8L663,170.8z"/>
			</g>
		</g>
		<g>
			<g>
				<path class="st1" d="M642.3,195.7c0.7,1.2,1.4,2.3,2.1,3.5c0.3,0.5,0.6,1.1,1,1.6c0.2,0.2,0,0.1,0.1-0.2c0-0.1,0.1-0.2,0.2-0.3
					c-0.2,0.2,0.1,0-0.1,0.1c-0.1,0-0.2,0.1-0.3,0.1c-1.3,0.3-2.6,0.6-4,0.9c-0.6,0.1-1.2,0.3-1.8,0.4c-0.1,0-0.3,0.1-0.4,0.1
					c-0.4,0.1,0.2,0-0.2,0c-0.4,0,0,0,0,0c-0.1,0-0.1,0,0,0c0.1,0,0.1,0.1,0.1,0.1c0.1,0.1,0,0.3,0,0.1c-0.1,0.2,0-0.1,0-0.1
					c0.1-0.3-0.1,0.1,0.1-0.2c0-0.1,0.1-0.2,0.1-0.2c0.3-0.6,0.8-1.2,1.1-1.8c0.7-1.1,1.4-2.2,2.1-3.3c0.1-0.1,0.1-0.2,0.2-0.4
					c0,0,0-0.1,0.1-0.1c-0.1,0.1-0.1,0.1,0,0c0,0.2-0.3,0,0,0c-0.2-0.1,0,0,0,0c0,0-0.1,0-0.1,0c0.1,0,0.2,0,0,0
					c0,0,0.3,0.2,0.2,0.1c0,0,0.3,0.3,0.2,0.2c0.1,0.1,0.2,0.3,0.3,0.5c0.6,1.1,1,2.2,1.5,3.4c0.1,0.2,0.1,0.3,0.2,0.5
					c0.1,0.2,0.1,0.2,0.1,0.1c0,0.2,0.1,0.2,0,0.1c0,0,0.1-0.4,0.1-0.4c0.1-0.1,0.1-0.1,0,0c0.1,0,0.1,0,0,0
					c-0.6,0.2-1.3,0.2-1.9,0.4c-1.5,0.3-3,0.5-4.5,0.8c0.5,0.4,1.1,0.8,1.6,1.2c0.1-1.1,0.5-2.3,1-3.3c-0.8-0.3-1.5-0.6-2.3-1
					c-0.3,1.2-0.1,2.6,0.6,3.7c0.6,0.8,1.6,0.8,2.2,0c0.8-1,1-2.4,0.8-3.6c-0.8,0.2-1.6,0.4-2.4,0.7c0.3,1,0.9,1.7,1.7,2.3
					c0.6,0.4,1.3,0.1,1.7-0.4c1-1.4,0.8-3.6-0.5-4.8c-0.8-0.8-2-0.2-2.1,0.9c-0.1,1.7,0.8,3.4,2.3,4.1c0.5,0.3,1.4,0.2,1.7-0.4
					c0.3-0.8,0.4-1.6,0.2-2.4c-0.3-0.8-0.8-1.4-1.5-1.8c-1-0.5-2.1,0.3-1.8,1.4c0.3,1.3,1.2,2.4,2.4,2.9c0.6,0.3,1.3,0.2,1.7-0.4
					c0.3-0.5,0.2-1.4-0.4-1.7c-0.2-0.1-0.4-0.2-0.6-0.3c0.1,0.1-0.1,0-0.1-0.1c-0.1-0.1-0.2-0.1-0.2-0.2c0.1,0.1,0,0,0,0
					c-0.1-0.1-0.1-0.2-0.2-0.3c0-0.1-0.1-0.3-0.1-0.1c0-0.1-0.1-0.2-0.1-0.4c-0.6,0.5-1.2,0.9-1.8,1.4c0,0,0.3,0.2,0.2,0.1
					c-0.1-0.1,0.1,0.1,0.1,0.1c0.2,0.2,0-0.1,0,0.1c0,0,0.1,0.3,0,0.1c0,0.1,0,0.1,0.1,0.2c0.1,0.3,0-0.1,0,0.1c0,0.1,0,0.2,0,0.1
					c0,0.1-0.1,0.4,0,0.1c0.6-0.1,1.1-0.3,1.7-0.4c-0.1,0-0.3-0.2-0.3-0.2c0.1,0-0.2-0.1-0.2-0.2c0,0-0.3-0.3-0.2-0.2
					c-0.1-0.1-0.1-0.2-0.2-0.3c0,0-0.1-0.4-0.1-0.2c0-0.1-0.1-0.2-0.1-0.4c-0.1-0.3,0,0.1,0-0.2c0-0.2,0-0.3,0-0.5
					c-0.7,0.3-1.4,0.6-2.1,0.9c0.1,0.1,0.1,0.1,0.2,0.2c-0.1-0.1-0.1-0.1,0,0c0.1,0.1,0.1,0.2,0.2,0.3c0,0.1,0,0.1,0,0
					c0,0.1,0,0.1,0.1,0.2c0,0.1,0,0.4,0,0.1c0,0.1,0,0.2,0,0.3c0,0.3,0.1-0.1,0,0.1c0,0.1-0.1,0.3,0,0.1c-0.1,0.1-0.1,0.3-0.2,0.4
					c0.6-0.1,1.1-0.3,1.7-0.4c0.1,0.1-0.2-0.1-0.2-0.1c0,0-0.2-0.3-0.1-0.2c-0.1-0.1-0.1-0.2-0.2-0.3c-0.1-0.2,0,0-0.1-0.2
					c-0.2-0.6-0.9-1.1-1.5-0.9c-0.7,0.2-1,0.9-0.9,1.5c0,0.1,0,0.2,0,0.1c0,0.1,0,0.2,0,0.3c0,0,0,0.3,0,0.2c0-0.1-0.1,0.2-0.1,0.2
					c-0.1,0.4-0.2,0.5-0.5,0.9c0.7,0,1.4,0,2.2,0c-0.2-0.4-0.3-0.5-0.4-0.9c0-0.2,0,0.1,0-0.1c0-0.1,0-0.2,0-0.3
					c0-0.2,0-0.2,0.1-0.4c0.3-1.3-1.6-2.3-2.3-1c-0.7,1.4-1.2,2.9-1.3,4.5c-0.1,0.9,0.9,1.3,1.6,1.2c1.6-0.3,3.3-0.6,4.9-0.8
					c0.7-0.1,1.5-0.2,2.2-0.6c0.8-0.5,1.2-1.4,1-2.3c-0.2-0.8-0.7-1.6-1-2.4c-0.3-0.7-0.6-1.4-1-2.1c-0.7-1.5-2.4-2.7-4-1.9
					c-0.7,0.4-1.1,1.2-1.6,1.8c-0.5,0.7-0.9,1.4-1.4,2.2c-0.4,0.7-0.9,1.4-1.3,2.1c-0.4,0.6-0.8,1.3-0.8,2.1
					c-0.1,0.9,0.4,1.7,1.2,2.1c0.8,0.4,1.6,0.3,2.4,0.1c1.6-0.4,3.3-0.7,4.9-1.1c0.8-0.2,1.7-0.3,2.3-0.9c0.3-0.3,0.6-0.8,0.6-1.3
					c0-0.6-0.3-1.1-0.5-1.5c-1-1.6-2-3.3-3-4.9c-0.4-0.6-1.1-0.8-1.7-0.4C642.2,194.3,641.9,195.1,642.3,195.7L642.3,195.7z"/>
			</g>
		</g>
	</g>
	<g>
		<path class="st5" d="M196.4,515.1c0.4-0.1,0.6-0.2,0.8-0.2c0.3,0,0.4,0,0.5,0.1c0.2,0.2,0.2,0.3,0,0.5c-0.1,0.1-0.2,0.2-0.5,0.2
			c-0.6,0.1-1.1,0.2-1.5,0.5c-0.4,0.3-0.8,0.7-1.2,1.3c-0.4,0.6-0.6,1.2-0.8,1.9c-0.2,0.6-0.3,1.6-0.3,3.1c0,2.3,0.2,4,0.7,5
			c0.5,1.2,1.3,1.9,2.3,2.1c0.2,0.1,0.5,0.1,0.8,0.1c0.2,0,0.3,0,0.3,0s0.1-0.1,0.2-0.2c0.2-0.1,0.4-0.2,0.5-0.4
			c0.2-0.2,0.3-0.4,0.3-0.6c0.1-0.4,0.2-1.4,0.2-2.8c0-0.6,0-1-0.1-1.3h-0.5c-0.3,0-0.6,0-0.6-0.1c-0.2-0.2-0.2-0.4,0-0.6
			c0.1-0.1,0.4-0.1,0.9-0.1c0.5,0,0.8,0,0.9,0.1c0.2,0.1,0.3,0.5,0.3,1.1c0,0.6,0,1.1,0,1.6c0,1.3-0.1,2-0.1,2.2
			c-0.1,0.3-0.2,0.6-0.5,0.9c-0.2,0.3-0.5,0.5-0.7,0.7c-0.5,0.3-0.9,0.4-1.3,0.4c-0.5,0-1-0.1-1.5-0.4c-0.5-0.3-1-0.6-1.3-0.9
			c-0.4-0.4-0.7-1-1-1.8s-0.5-1.5-0.5-2.2c-0.1-0.8-0.1-1.7-0.1-2.8c0-0.6,0-1.2,0-1.6c0.2-1.9,0.8-3.5,1.8-4.6
			C195.1,515.6,195.8,515.2,196.4,515.1z"/>
		<path class="st5" d="M205.3,516.7c0.3-0.2,0.6-0.2,0.7-0.1c0.2,0.2,0.6,1.5,1.2,4c0.5,1.8,1.1,4.3,2,7.6c0.4,1.6,0.6,2.5,0.6,2.7
			c0,0.1-0.1,0.2-0.2,0.3c-0.2,0.1-0.4,0-0.5-0.3c-0.1-0.4-0.7-2.3-1.5-5.8c-0.2-0.6-0.3-1-0.3-1.1c0-0.1-0.1-0.1-0.3-0.2
			c-0.3,0-1-0.1-2.1-0.1c-0.3,0-0.5,0-0.5,0s-0.1,0.6-0.3,1.6c-0.2,1.1-0.4,2.2-0.7,3.3s-0.4,1.7-0.4,1.9c-0.1,0.2-0.2,0.2-0.3,0.2
			s-0.2-0.1-0.3-0.2c0-0.1,0-0.1,0-0.2c0-0.1,0-0.3,0.1-0.7c0.1-0.7,0.5-2.9,1.3-6.6s1.1-5.7,1.2-5.9
			C204.9,517,205.1,516.8,205.3,516.7z M206.2,519.5c-0.3-1.2-0.5-1.8-0.5-1.8c-0.1-0.1-0.1,0-0.2,0c0,0.1-0.2,0.9-0.5,2.5
			s-0.5,2.4-0.5,2.6c0,0.1,0.2,0.1,0.5,0.1c0.3,0,0.5,0,0.7,0c0.8,0,1.3,0,1.3-0.1c0,0-0.1-0.3-0.2-0.8c0-0.1-0.1-0.5-0.3-1.1
			C206.4,520.3,206.3,519.9,206.2,519.5z"/>
		<path class="st5" d="M212.6,515.2c0.1-0.1,0.2-0.1,0.3-0.1c0.2,0,0.5,0.1,0.8,0.2c0.6,0.2,1.3,0.6,1.8,1.2
			c0.7,0.7,1.1,1.5,1.3,2.3c0.1,0.5,0.2,1.1,0.2,1.9c0,0.3,0,0.5,0,0.6c-0.1,0.5-0.3,1-0.7,1.5c-0.4,0.5-0.8,0.9-1.3,1.1
			c-0.3,0.1-0.4,0.2-0.4,0.3c0.2,0.1,0.3,0.2,0.4,0.3s0.2,0.2,0.3,0.2s0.1,0.1,0.1,0.1c0.3,0.2,0.7,0.7,1,1.3c0.3,0.5,0.6,1.3,1,2.5
			c0.3,0.8,0.4,1.3,0.4,1.5c0,0.1,0,0.2-0.1,0.3c-0.2,0.2-0.3,0.2-0.5,0c-0.1,0-0.3-0.6-0.7-1.7c-0.3-0.8-0.5-1.4-0.7-1.9
			c-0.4-0.9-1-1.6-1.8-2.1c-0.2-0.2-0.4-0.2-0.5-0.2c-0.1,0-0.2,0-0.2,0.1c0,0.9,0,1.9,0,3c0,0.7,0,1.4,0,2.2c0,0.5,0,0.7,0,0.8
			c-0.1,0.2-0.3,0.2-0.5,0.1c-0.1,0-0.2-0.2-0.2-0.5s-0.1-0.9-0.1-2c0-0.5,0-1.4,0-2.7c0-1,0-1.8,0-2.4c0-1.7,0.1-3.5,0.1-5.4
			C212.5,516.2,212.5,515.3,212.6,515.2C212.6,515.2,212.6,515.2,212.6,515.2z M216.1,520.4c0-2-0.8-3.4-2.3-4.3
			c-0.2-0.1-0.4-0.2-0.4-0.2c-0.1,0-0.1,0.3-0.1,1c0,1.4-0.1,3.2-0.1,5.6v0.9c0.1,0,0.3-0.1,0.8-0.3c0.5-0.2,0.8-0.3,0.8-0.3
			c0.2-0.1,0.5-0.4,0.8-0.9c0.2-0.3,0.4-0.6,0.4-0.7C216.1,521.2,216.1,520.9,216.1,520.4z"/>
		<path class="st5" d="M220.6,515.4c0.1,0,0.3-0.1,0.5-0.1c0.8,0,1.6,0.3,2.4,0.8c0.3,0.2,0.6,0.4,0.9,0.8c0.4,0.3,0.6,0.6,0.8,0.9
			c0.7,1.1,1.2,2.5,1.4,4.1c0.1,0.5,0.1,1.3,0.1,2.5c0,1,0,1.7-0.1,2c-0.3,1.8-1.1,3-2.3,3.6c-0.8,0.5-1.6,0.7-2.5,0.7h-0.2
			c-0.4,0-0.7-0.2-0.8-0.4c-0.2-0.7-0.3-3-0.3-7c0-0.4-0.1-1.6-0.1-3.4s-0.1-3-0.1-3.6c0-0.3,0-0.6,0.1-0.7
			C220.4,515.5,220.5,515.5,220.6,515.4z M222,516.3c-0.3-0.1-0.5-0.2-0.8-0.2c-0.2,0-0.3,0-0.3,0.1c0,0,0,0.3,0,0.6
			c0.1,0.4,0.1,1.1,0.2,2.2s0.1,2.3,0.1,3.6c0,1.4,0.1,2.2,0.1,2.3c0.1,2.9,0.2,4.4,0.3,4.7c0,0.1,0.2,0.2,0.4,0.2
			c0.1,0,0.3,0,0.5-0.1c1.7-0.3,2.8-1.4,3.3-3.3c0.1-0.4,0.2-1.1,0.2-2.3c0-0.4,0-0.9-0.1-1.5c-0.2-2.2-0.7-3.9-1.6-5
			C223.7,517,222.9,516.6,222,516.3z"/>
		<path class="st5" d="M230.8,515.8c0.3,0,0.7,0,1.1,0c0.5,0,0.8,0,0.9,0.1c0.2,0.1,0.2,0.3,0,0.5c-0.1,0.1-0.6,0.2-1.5,0.2
			c-0.4,0-0.7,0-1,0.1l-0.4,0l0,3c0,2,0.1,3.1,0.1,3.3l0,0.3h0.4c0.5,0,0.8,0.1,0.8,0.4c0,0.1,0,0.2-0.1,0.2
			c-0.1,0.1-0.3,0.2-0.8,0.3l-0.3,0l0,0.6c0,0.2,0,0.4,0,0.9c0,0.8,0,1.7,0.1,2.7s0.1,1.5,0.2,1.5c0,0,0.4,0.1,1.2,0.1
			c0.6,0,1,0.1,1.1,0.1s0.2,0.1,0.3,0.3c0,0.1,0,0.2-0.2,0.5l-1.4,0c-0.8,0-1.3,0-1.5,0c-0.2,0-0.3-0.1-0.3-0.3
			c-0.1-0.1-0.1-1.7-0.2-4.7c-0.1-3-0.1-5.5-0.1-7.6c0-1.2,0-1.9,0.1-2c0,0,0.1-0.1,0.1-0.1c0,0,0.1,0,0.1-0.1c0.1,0,0.1,0,0.2,0
			s0.1,0,0.2,0s0.2,0,0.3,0c0.1,0,0.2,0,0.3,0S230.7,515.8,230.8,515.8z"/>
		<path class="st5" d="M240.9,516.8c0-0.1,0-0.3,0.1-0.4c0.1-0.2,0.1-0.2,0.2-0.2c0.2,0,0.3,0.2,0.4,0.5c0.1,0.7,0.3,4,0.7,9.8
			c0.1,1.2,0.1,2.2,0.1,2.9c0,0.8-0.1,1.2-0.3,1.3c-0.1,0.1-0.2,0.1-0.3,0c-0.1-0.1-0.3-0.3-0.5-0.8c-0.2-0.5-0.8-1.8-1.8-4
			c-0.9-2.1-1.6-3.9-2.3-5.6c-0.5-1.2-0.7-1.9-0.8-2c0-0.1-0.1-0.1-0.1,0.1c0,0.1,0,0.2,0,0.4c0,0.3,0,1.3,0.1,3
			c0.2,4.3,0.3,7,0.3,8.1c0,0.3,0,0.5,0,0.6c-0.1,0.1-0.1,0.2-0.2,0.2c-0.2,0-0.3-0.2-0.4-0.5c0-0.1-0.1-2.2-0.3-6.1
			c-0.2-4-0.3-6.3-0.3-7v-0.1c0-0.4,0.1-0.6,0.3-0.6c0.1,0,0.3,0.1,0.5,0.3c0.3,0.3,1.1,2,2.3,5c1.5,3.9,2.5,6.2,3,7.1l0-0.3
			c0-0.4,0-1.1-0.1-2c0-0.9-0.1-1.9-0.2-3c-0.1-1.1-0.1-1.8-0.1-2.1C241.1,519.3,241,517.8,240.9,516.8z"/>
		<path class="st5" d="M254.3,515.5c0.1,0,0.2,0,0.3,0c0,0,0,0,0.1,0c0,0,0.1,0,0.1,0c0.1,0,0.2,0,0.3,0.1s0.2,0.2,0.2,0.2
			c0,0.2-0.2,0.3-0.6,0.4c-0.4,0.1-0.8,0.4-1.2,0.9c-0.6,0.8-1,1.6-1.2,2.5c-0.2,0.9-0.3,2.1-0.3,3.7c0,2.4,0.4,4.2,1.2,5.3
			c0.3,0.4,0.6,0.7,0.9,0.8c0.4,0.2,0.8,0.3,1.5,0.4c0.4,0,0.6,0.2,0.6,0.4c0,0.3-0.2,0.4-0.5,0.4h-0.1c-1.2,0-2.1-0.5-2.8-1.3
			c-0.7-0.8-1.1-2.1-1.4-4c0-0.3-0.1-1-0.1-2.2c0-0.9,0-1.6,0.1-2c0.2-1.7,0.6-3.1,1.3-4.1C253.2,516.1,253.8,515.6,254.3,515.5z"/>
		<path class="st5" d="M263.4,516.2c0.2-0.1,0.3-0.1,0.5,0.1c0.1,0.1,0.2,1.6,0.4,4.4c0.3,5.9,0.5,9.2,0.5,9.8c0,0.1,0,0.2,0,0.3v0
			c-0.1,0.2-0.2,0.3-0.4,0.2c-0.2-0.1-0.3-0.4-0.4-0.8c0-0.4-0.1-1.3-0.1-2.8c0-1.4-0.1-2.4-0.1-3.1c0-0.5,0-0.8,0-0.9v-0.1h-4.3
			l0,3.5c0,2.3-0.1,3.6-0.1,3.6c-0.2,0.2-0.4,0.2-0.6-0.1v-6.8c0-4.6,0-6.9,0-7c0.1-0.2,0.2-0.3,0.3-0.3c0.1,0,0.2,0.1,0.3,0.2
			c0.1,0.2,0.1,1.2,0.1,3.1v2.9h4.1v-0.9c0-0.4,0-1.4-0.1-2.9c-0.1-1.1-0.1-1.8-0.1-1.9C263.3,516.5,263.3,516.3,263.4,516.2z"/>
		<path class="st5" d="M270.3,516.7c0.3-0.2,0.6-0.2,0.7-0.1c0.2,0.2,0.6,1.5,1.2,4c0.5,1.8,1.1,4.3,2,7.6c0.4,1.6,0.6,2.5,0.6,2.7
			c0,0.1-0.1,0.2-0.2,0.3c-0.2,0.1-0.4,0-0.5-0.3c-0.1-0.4-0.7-2.3-1.5-5.8c-0.2-0.6-0.3-1-0.3-1.1c0-0.1-0.1-0.1-0.3-0.2
			c-0.3,0-1-0.1-2.1-0.1c-0.3,0-0.5,0-0.5,0s-0.1,0.6-0.3,1.6c-0.2,1.1-0.4,2.2-0.7,3.3s-0.4,1.7-0.4,1.9c-0.1,0.2-0.2,0.2-0.3,0.2
			s-0.2-0.1-0.3-0.2c0-0.1,0-0.1,0-0.2c0-0.1,0-0.3,0.1-0.7c0.1-0.7,0.5-2.9,1.3-6.6s1.1-5.7,1.2-5.9
			C270,517,270.1,516.8,270.3,516.7z M271.2,519.5c-0.3-1.2-0.5-1.8-0.5-1.8c-0.1-0.1-0.1,0-0.2,0c0,0.1-0.2,0.9-0.5,2.5
			s-0.5,2.4-0.5,2.6c0,0.1,0.2,0.1,0.5,0.1c0.3,0,0.5,0,0.7,0c0.8,0,1.3,0,1.3-0.1c0,0-0.1-0.3-0.2-0.8c0-0.1-0.1-0.5-0.3-1.1
			C271.4,520.3,271.3,519.9,271.2,519.5z"/>
		<path class="st5" d="M277.4,517.8v-0.3c0-0.7,0.1-1.1,0.4-1.1c0.1,0,0.2,0,0.3,0.1l0.1,0.2l0,1.2c0,0.7,0,2.2,0.1,4.7
			s0.1,4.2,0.1,5.1c0,1.4,0,2.1,0,2.1c0,0.3,0,0.5,0,0.6s-0.1,0.2-0.2,0.2c-0.1,0.1-0.2,0.1-0.3,0c-0.1-0.1-0.2-0.1-0.2-0.3
			c-0.1-0.3-0.2-2.8-0.2-7.4C277.5,519.7,277.4,518,277.4,517.8z"/>
		<path class="st5" d="M281.2,515.2c0.1-0.1,0.2-0.1,0.3-0.1c0.2,0,0.5,0.1,0.8,0.2c0.6,0.2,1.3,0.6,1.8,1.2
			c0.7,0.7,1.1,1.5,1.3,2.3c0.1,0.5,0.2,1.1,0.2,1.9c0,0.3,0,0.5,0,0.6c-0.1,0.5-0.3,1-0.7,1.5c-0.4,0.5-0.8,0.9-1.3,1.1
			c-0.3,0.1-0.4,0.2-0.4,0.3c0.2,0.1,0.3,0.2,0.4,0.3s0.2,0.2,0.3,0.2s0.1,0.1,0.1,0.1c0.3,0.2,0.7,0.7,1,1.3c0.3,0.5,0.6,1.3,1,2.5
			c0.3,0.8,0.4,1.3,0.4,1.5c0,0.1,0,0.2-0.1,0.3c-0.2,0.2-0.3,0.2-0.5,0c-0.1,0-0.3-0.6-0.7-1.7c-0.3-0.8-0.5-1.4-0.7-1.9
			c-0.4-0.9-1-1.6-1.8-2.1c-0.2-0.2-0.4-0.2-0.5-0.2c-0.1,0-0.2,0-0.2,0.1c0,0.9,0,1.9,0,3c0,0.7,0,1.4,0,2.2c0,0.5,0,0.7,0,0.8
			c-0.1,0.2-0.3,0.2-0.5,0.1c-0.1,0-0.2-0.2-0.2-0.5s-0.1-0.9-0.1-2c0-0.5,0-1.4,0-2.7c0-1,0-1.8,0-2.4c0-1.7,0.1-3.5,0.1-5.4
			C281,516.2,281.1,515.3,281.2,515.2C281.2,515.2,281.2,515.2,281.2,515.2z M284.7,520.4c0-2-0.8-3.4-2.3-4.3
			c-0.2-0.1-0.4-0.2-0.4-0.2c-0.1,0-0.1,0.3-0.1,1c0,1.4-0.1,3.2-0.1,5.6v0.9c0.1,0,0.3-0.1,0.8-0.3c0.5-0.2,0.8-0.3,0.8-0.3
			c0.2-0.1,0.5-0.4,0.8-0.9c0.2-0.3,0.4-0.6,0.4-0.7C284.7,521.2,284.7,520.9,284.7,520.4z"/>
		<path class="st5" d="M291.2,515.5c0.2,0,0.3-0.1,0.4-0.1c0.2,0,0.4,0.1,0.4,0.3c0,0.1,0,0.2-0.1,0.2c-0.1,0-0.2,0.1-0.5,0.2
			c-0.5,0.2-0.9,0.5-1.2,0.8c-0.4,0.5-0.6,1-0.6,1.6c0,0.3,0.1,0.6,0.2,0.8c0.1,0.2,0.7,0.9,1.9,2c0.7,0.7,1.1,1.1,1.2,1.2
			c0.7,0.9,1,2.1,1,3.6c0,1.2-0.4,2.2-1.3,3.1c-0.3,0.3-0.6,0.6-1,0.8c-0.2,0.1-0.5,0.2-0.9,0.3s-0.7,0.2-0.8,0.2
			c-0.2,0.1-0.5,0.1-0.8,0.1c-0.2,0-0.3,0-0.3-0.1c0-0.1-0.1-0.2-0.1-0.3s0-0.2,0.1-0.3c0.1-0.1,0.6-0.3,1.5-0.5
			c0.6-0.1,1.2-0.4,1.7-0.9c0.5-0.5,0.8-1,1-1.6c0.1-0.3,0.1-0.6,0.1-1c0-0.8-0.1-1.4-0.3-2c-0.1-0.4-0.3-0.7-0.5-1
			s-0.6-0.7-1.1-1.2c-0.8-0.8-1.2-1.2-1.4-1.4c-0.6-0.5-0.9-1.1-1-1.8c0-0.1,0-0.2,0-0.4c0-0.7,0.2-1.3,0.7-1.9
			C290.1,516,290.6,515.7,291.2,515.5z"/>
	</g>
	<g>
		<path class="st5" d="M401.7,230.3c0.1-0.2,0.2-0.3,0.5-0.3c0.5,0,1.1,0.3,1.8,0.8c0.9,0.7,1.3,1.7,1.3,3c0,1.4-0.5,2.5-1.6,3.4
			c-0.3,0.3-0.5,0.4-0.5,0.4s0.2,0.1,0.5,0.4c0.7,0.4,1.2,0.8,1.6,1.2c0.4,0.4,0.7,1,0.8,1.6c0.1,0.4,0.1,0.8,0.1,1.4
			c0,0.2,0,0.4,0,0.6c-0.2,0.7-0.6,1.2-1.2,1.7c-0.7,0.5-1.5,0.7-2.3,0.7c-0.1,0-0.1,0-0.3,0c-0.1,0-0.2,0-0.2,0
			c-0.3,0-0.4-0.1-0.4-0.3c0-0.1,0-0.3-0.1-0.7c-0.1-2.4-0.2-5.9-0.2-10.6C401.6,231.5,401.7,230.4,401.7,230.3z M403,231.1
			c-0.2-0.1-0.3-0.1-0.4-0.1h-0.2v2.9c0,2,0,3,0.1,3h0c0.1,0,0.4-0.2,0.9-0.6s0.7-0.7,0.8-1c0.3-0.5,0.4-1,0.4-1.6
			c0-0.4,0-0.8-0.1-1c-0.1-0.3-0.3-0.7-0.6-1C403.6,231.5,403.3,231.3,403,231.1z M405.6,242c0-0.8-0.2-1.5-0.7-2.1
			s-1.1-1.1-1.8-1.4c-0.3-0.1-0.4-0.2-0.5-0.2c-0.1,0-0.1,0.1-0.1,0.3c0,0,0,0.1,0,0.2s0,0.2,0,0.3c0,0.1,0,0.5,0,1.4
			c0,0.8,0,1.6,0.1,2.4c0,0.7,0.1,1.2,0.1,1.3l0,0.2l0.4,0c0.7,0,1.4-0.4,2-0.9C405.4,243,405.6,242.6,405.6,242z"/>
		<path class="st5" d="M409.1,231.6c0.1-0.1,0.3-0.2,0.4-0.1c0.1,0.1,0.1,0.3,0.2,0.8s0.1,2.2,0.3,5.1c0.1,2.1,0.3,3.5,0.5,4.4
			c0.2,0.8,0.6,1.5,1.1,2c0.4,0.3,0.8,0.5,1.2,0.5c0.9,0,1.6-0.6,2.1-1.7c0.2-0.4,0.3-0.8,0.3-1.2c0-0.4,0.1-1.5,0.1-3.4
			c0-2.6,0.1-4.1,0.1-4.7c0-0.6,0-1,0-1.1c0-0.1,0-0.3,0-0.4s0.1-0.2,0.3-0.2c0.2,0,0.4,0.1,0.5,0.4c0.1,0.2,0.1,1.4,0.1,3.5
			c0,3.8-0.1,6-0.3,6.6c-0.1,0.6-0.4,1.1-0.8,1.6s-0.8,0.8-1.3,1.1c-0.3,0.1-0.6,0.2-1,0.2c-0.5,0-0.8,0-1-0.1
			c-0.6-0.3-1.2-0.8-1.7-1.7c-0.5-1-0.9-2.6-1-4.8c0-0.2,0-0.5,0-0.8s-0.1-0.8-0.1-1.4s-0.1-1-0.1-1.3c-0.1-1.3-0.1-2.2-0.1-2.8
			C408.9,231.9,409,231.7,409.1,231.6z"/>
		<path class="st5" d="M422,230c0.1,0,0.2,0,0.3,0c0,0,0,0,0.1,0c0,0,0.1,0,0.1,0c0.1,0,0.2,0,0.3,0.1c0.1,0.1,0.2,0.2,0.2,0.2
			c0,0.2-0.2,0.3-0.6,0.4c-0.4,0.1-0.8,0.4-1.2,0.9c-0.6,0.8-1,1.6-1.2,2.5c-0.2,0.9-0.3,2.1-0.3,3.7c0,2.4,0.4,4.2,1.2,5.3
			c0.3,0.4,0.6,0.7,0.9,0.8c0.4,0.2,0.8,0.3,1.5,0.4c0.4,0,0.6,0.2,0.6,0.4c0,0.3-0.2,0.4-0.5,0.4h-0.1c-1.2,0-2.1-0.5-2.8-1.3
			c-0.7-0.8-1.1-2.1-1.4-4c0-0.3-0.1-1-0.1-2.2c0-0.9,0-1.6,0.1-2c0.2-1.7,0.6-3.1,1.3-4.1C420.9,230.7,421.5,230.1,422,230z"/>
		<path class="st5" d="M426.5,229.6c0.1,0,0.1-0.1,0.2-0.1c0.2,0,0.3,0.2,0.3,0.5c0.2,1.2,0.3,2.5,0.4,3.9c0.1,1,0.1,1.4,0.1,1.4
			c0,0,0.2-0.2,0.5-0.7c1.5-2.3,2.4-3.8,2.8-4.4c0.1-0.3,0.3-0.4,0.4-0.4c0,0,0.1,0,0.2,0.1c0.1,0.1,0.1,0.2,0.1,0.3
			s-0.1,0.3-0.2,0.6c-0.4,0.6-1.3,2.1-2.7,4.3c-0.4,0.5-0.5,0.9-0.5,1.1c0,0.2,0.2,0.5,0.5,0.9c0.3,0.4,1.3,1.7,2.9,3.8
			c1.3,1.8,2,2.8,2.2,3.1c0.1,0.3,0.1,0.5-0.1,0.6c-0.1,0.1-0.2,0.1-0.3,0.1c-0.1,0-0.3-0.1-0.4-0.4c-0.2-0.4-1.6-2.3-4.2-5.7
			l-1-1.4l0,0.4v0.2c0,0.7,0,1.7,0.1,2.9c0.1,1.9,0.1,3.1,0.1,3.8c0,0.4,0,0.6-0.1,0.6c-0.1,0.1-0.2,0.1-0.3,0.1
			c-0.1,0-0.2-0.1-0.3-0.1c-0.1-0.1-0.2-1.4-0.3-3.9c0-1.9-0.2-4.1-0.3-6.5c-0.2-2.5-0.3-4-0.3-4.5
			C426.4,229.8,426.4,229.6,426.5,229.6z"/>
		<path class="st5" d="M437.9,230.3c0.3,0,0.7,0,1.1,0c0.5,0,0.8,0,0.9,0.1c0.2,0.1,0.2,0.3,0,0.5c-0.1,0.1-0.6,0.2-1.5,0.2
			c-0.4,0-0.7,0-1,0.1l-0.4,0l0,2.9c0,2.1,0.1,3.1,0.1,3.3l0,0.3h0.4c0.5,0,0.8,0.1,0.8,0.4c0,0.1,0,0.2-0.1,0.2
			c-0.1,0.1-0.3,0.2-0.8,0.3l-0.3,0l0,0.6c0,0.1,0,0.4,0,0.9c0,0.8,0,1.7,0.1,2.6c0,1,0.1,1.5,0.2,1.6c0,0,0.4,0.1,1.2,0.1
			c0.6,0,1,0.1,1.1,0.1c0.1,0,0.2,0.1,0.3,0.3c0,0.1,0,0.2-0.2,0.5l-1.4,0c-0.8,0-1.3,0-1.5,0c-0.2,0-0.3-0.1-0.3-0.3
			c-0.1-0.1-0.1-1.7-0.2-4.7c-0.1-3-0.1-5.5-0.1-7.6c0-1.2,0-1.9,0.1-2c0,0,0.1-0.1,0.1-0.1s0.1,0,0.1-0.1c0.1,0,0.1,0,0.2,0
			s0.1,0,0.2,0s0.2,0,0.3,0s0.2,0,0.3,0S437.8,230.3,437.9,230.3z"/>
		<path class="st5" d="M446.8,230.8c0.5,0,1,0,1.5,0c0.3,0,0.6,0,0.6,0.1c0.1,0.1,0.1,0.2,0.1,0.3c0,0.1-0.1,0.2-0.3,0.3
			c0,0-0.3,0-0.7,0.1c-0.4,0-0.8,0-1.2,0.1l-0.6,0c0,0,0,2.3-0.1,6.8s0,6.8-0.1,6.8c0,0.1-0.1,0.1-0.3,0.1c-0.1,0-0.2,0-0.3-0.1
			c-0.1-0.1-0.1-0.9-0.1-2.4c0-2.2,0-4.3,0-6.4l0-4.7h-1.2c-0.8,0-1.2,0-1.4-0.1c-0.1,0-0.2-0.1-0.2-0.3c0-0.2,0.1-0.3,0.2-0.3
			C443.2,230.9,444.5,230.8,446.8,230.8z"/>
		<path class="st5" d="M453.9,230.1c0.2,0,0.3-0.1,0.4-0.1c0.2,0,0.4,0.1,0.4,0.3c0,0.1,0,0.2-0.1,0.2c-0.1,0-0.2,0.1-0.5,0.2
			c-0.5,0.2-0.9,0.5-1.2,0.8c-0.4,0.5-0.6,1-0.6,1.6c0,0.3,0.1,0.6,0.2,0.8c0.1,0.2,0.7,0.9,1.9,2c0.7,0.7,1.1,1.1,1.2,1.2
			c0.7,0.9,1,2.1,1,3.6c0,1.2-0.4,2.2-1.3,3.1c-0.3,0.3-0.6,0.6-1,0.8c-0.2,0.1-0.5,0.2-0.9,0.3s-0.7,0.2-0.8,0.2
			c-0.2,0.1-0.5,0.1-0.8,0.1c-0.2,0-0.3,0-0.3-0.1c0-0.1-0.1-0.2-0.1-0.3s0-0.2,0.1-0.3c0.1-0.1,0.6-0.3,1.5-0.5
			c0.6-0.1,1.2-0.4,1.7-0.9c0.5-0.5,0.8-1.1,1-1.6c0.1-0.3,0.1-0.6,0.1-1c0-0.8-0.1-1.4-0.3-2c-0.1-0.4-0.3-0.7-0.5-1
			c-0.2-0.3-0.6-0.7-1.1-1.2c-0.8-0.8-1.2-1.2-1.4-1.4c-0.6-0.5-0.9-1.1-1-1.8c0-0.1,0-0.2,0-0.4c0-0.7,0.2-1.3,0.7-1.9
			C452.8,230.6,453.3,230.2,453.9,230.1z"/>
	</g>
	<g>
		<path class="st5" d="M628.7,142.2c0.1,0,0.3-0.1,0.5-0.1c0.8,0,1.6,0.3,2.4,0.8c0.3,0.2,0.6,0.4,0.9,0.8c0.4,0.3,0.6,0.6,0.8,0.9
			c0.7,1.1,1.2,2.5,1.4,4.1c0.1,0.5,0.1,1.3,0.1,2.5c0,1,0,1.7-0.1,2c-0.3,1.8-1.1,3-2.3,3.6c-0.8,0.5-1.6,0.7-2.5,0.7h-0.2
			c-0.4,0-0.7-0.2-0.8-0.4c-0.2-0.6-0.3-3-0.3-7c0-0.4-0.1-1.6-0.1-3.4c-0.1-1.8-0.1-3-0.1-3.6c0-0.3,0-0.6,0.1-0.7
			C628.5,142.3,628.6,142.2,628.7,142.2z M630.1,143c-0.3-0.1-0.5-0.2-0.8-0.2c-0.2,0-0.3,0-0.3,0.1c0,0,0,0.3,0,0.6
			c0.1,0.4,0.1,1.1,0.2,2.2s0.1,2.3,0.1,3.6s0.1,2.2,0.1,2.3c0.1,2.9,0.2,4.4,0.3,4.7c0,0.1,0.2,0.2,0.4,0.2c0.1,0,0.3,0,0.5-0.1
			c1.7-0.3,2.8-1.4,3.3-3.3c0.1-0.4,0.2-1.1,0.2-2.3c0-0.4,0-0.9-0.1-1.5c-0.2-2.2-0.7-3.9-1.6-5C631.8,143.8,631,143.3,630.1,143z"
			/>
		<path class="st5" d="M637.3,144.5v-0.3c0-0.7,0.1-1.1,0.4-1.1c0.1,0,0.2,0,0.3,0.1l0.1,0.1l0,1.2c0,0.6,0,2.2,0.1,4.7
			s0.1,4.2,0.1,5.1c0,1.4,0,2.1,0,2.1c0,0.3,0,0.5,0,0.6c0,0.1-0.1,0.2-0.2,0.2c-0.1,0.1-0.2,0.1-0.3,0c-0.1-0.1-0.2-0.1-0.2-0.3
			c-0.1-0.3-0.2-2.8-0.2-7.4C637.4,146.5,637.3,144.7,637.3,144.5z"/>
		<path class="st5" d="M643.3,142.2c0.2,0,0.3-0.1,0.4-0.1c0.2,0,0.4,0.1,0.4,0.3c0,0.1,0,0.2-0.1,0.2c-0.1,0-0.2,0.1-0.5,0.2
			c-0.5,0.2-0.9,0.5-1.2,0.8c-0.4,0.5-0.6,1-0.6,1.6c0,0.3,0.1,0.6,0.2,0.8c0.1,0.2,0.7,0.9,1.9,2c0.7,0.7,1.1,1.1,1.2,1.2
			c0.7,0.9,1,2.1,1,3.6c0,1.2-0.4,2.2-1.3,3.1c-0.3,0.3-0.6,0.6-1,0.8c-0.2,0.1-0.5,0.2-0.9,0.3s-0.7,0.2-0.8,0.2
			c-0.2,0.1-0.5,0.1-0.8,0.1c-0.2,0-0.3,0-0.3-0.1c0-0.1-0.1-0.2-0.1-0.3s0-0.2,0.1-0.3c0.1-0.1,0.6-0.3,1.5-0.5
			c0.6-0.1,1.2-0.4,1.7-0.9c0.5-0.5,0.8-1.1,1-1.6c0.1-0.3,0.1-0.6,0.1-1c0-0.8-0.1-1.4-0.3-2c-0.1-0.4-0.3-0.7-0.5-1
			c-0.2-0.3-0.6-0.7-1.1-1.2c-0.8-0.8-1.2-1.2-1.4-1.4c-0.6-0.5-0.9-1.1-1-1.8c0-0.1,0-0.2,0-0.4c0-0.7,0.2-1.3,0.7-1.9
			C642.1,142.8,642.7,142.4,643.3,142.2z"/>
		<path class="st5" d="M649,141.8h0.1c0.6,0,1.4,0.3,2.3,0.9c0.6,0.4,1.1,1,1.5,1.7c0.4,0.7,0.5,1.4,0.5,2.2c0,0.3,0,0.5,0,0.7
			c-0.1,0.6-0.3,1.1-0.6,1.5c-0.3,0.4-0.7,0.9-1.3,1.4c-0.4,0.3-0.7,0.6-1.1,0.8c-0.4,0.2-0.6,0.4-0.6,0.5c-0.1,0.1-0.1,0.6-0.1,1.4
			v1.5l0,2.7c-0.2,0.2-0.3,0.3-0.5,0.3c-0.1,0-0.2,0-0.3-0.1c-0.1-0.1-0.1-0.2-0.1-0.3c0-0.2-0.1-1.8-0.1-4.8c0-2.8-0.1-4.7-0.1-5.6
			c-0.1-1.5-0.1-2.7-0.1-3.5c0-0.4,0-0.6,0-0.6C648.6,142,648.8,141.8,649,141.8z M650,142.9c-0.3-0.1-0.4-0.1-0.5-0.1h-0.1l0,1
			c0,0.2,0,0.7,0.1,1.5c0,0.8,0,1.4,0.1,1.8c0.1,2.3,0.2,3.4,0.2,3.4h0c0.3-0.1,0.7-0.4,1.3-0.8c0.8-0.7,1.3-1.4,1.5-2.2
			c0-0.2,0.1-0.4,0.1-0.7c0-0.5-0.1-0.9-0.2-1.3C652,144.2,651.2,143.4,650,142.9z"/>
		<path class="st5" d="M658.8,142.3c0.2,0,0.4,0,0.7,0c0.5,0,0.9,0.1,1.2,0.2c1,0.4,1.7,1.4,2.2,2.8c0.2,0.7,0.4,1.3,0.4,2
			c0.1,0.6,0.1,1.7,0.1,3.1c0,1.4-0.1,2.7-0.3,3.7c-0.3,1.1-0.7,2-1.4,2.6c-0.5,0.5-1.2,0.8-2,0.8c-0.5,0-1.1-0.1-1.5-0.4
			c-0.5-0.3-0.8-0.6-1.1-1c-0.3-0.4-0.5-1-0.7-1.8c-0.3-1.1-0.4-2.2-0.4-3.3c0-0.9,0-1.4-0.1-1.4c0,0,0-0.2,0-0.5
			c0-1.2,0-2.1,0.1-2.9c0.1-1.3,0.5-2.2,1.3-2.9C657.7,142.6,658.2,142.4,658.8,142.3z M661,143.7c-0.5-0.5-1-0.7-1.7-0.7
			c-0.1,0-0.3,0-0.5,0.1c-1.1,0.3-1.8,1.1-2.1,2.6c-0.1,0.5-0.1,1.5-0.1,3c0,1.3,0,2.3,0.1,3.1c0.2,1.4,0.4,2.4,0.7,3.2
			c0.3,0.7,0.7,1.2,1.2,1.4c0.2,0.1,0.5,0.1,0.9,0.1c0.6,0,1.2-0.2,1.5-0.5c0.6-0.5,1-1.3,1.2-2.4c0.2-1,0.3-2.1,0.3-3.4l0-0.2
			c0,0,0-0.4,0-1.2c0-1.1-0.1-2.1-0.4-3.1C661.9,144.8,661.5,144.1,661,143.7z"/>
		<path class="st5" d="M668.3,142.2c0.2,0,0.3-0.1,0.4-0.1c0.2,0,0.4,0.1,0.4,0.3c0,0.1,0,0.2-0.1,0.2c-0.1,0-0.2,0.1-0.5,0.2
			c-0.5,0.2-0.9,0.5-1.2,0.8c-0.4,0.5-0.6,1-0.6,1.6c0,0.3,0.1,0.6,0.2,0.8c0.1,0.2,0.7,0.9,1.9,2c0.7,0.7,1.1,1.1,1.2,1.2
			c0.7,0.9,1,2.1,1,3.6c0,1.2-0.4,2.2-1.3,3.1c-0.3,0.3-0.6,0.6-1,0.8c-0.2,0.1-0.5,0.2-0.9,0.3s-0.7,0.2-0.8,0.2
			c-0.2,0.1-0.5,0.1-0.8,0.1c-0.2,0-0.3,0-0.3-0.1c0-0.1-0.1-0.2-0.1-0.3s0-0.2,0.1-0.3c0.1-0.1,0.6-0.3,1.5-0.5
			c0.6-0.1,1.2-0.4,1.7-0.9c0.5-0.5,0.8-1.1,1-1.6c0.1-0.3,0.1-0.6,0.1-1c0-0.8-0.1-1.4-0.3-2c-0.1-0.4-0.3-0.7-0.5-1
			c-0.2-0.3-0.6-0.7-1.1-1.2c-0.8-0.8-1.2-1.2-1.4-1.4c-0.6-0.5-0.9-1.1-1-1.8c0-0.1,0-0.2,0-0.4c0-0.7,0.2-1.3,0.7-1.9
			C667.1,142.8,667.7,142.4,668.3,142.2z"/>
		<path class="st5" d="M676.6,143.4c0.3-0.2,0.6-0.2,0.7-0.1c0.2,0.2,0.6,1.5,1.2,4c0.5,1.8,1.1,4.3,2,7.6c0.4,1.6,0.6,2.5,0.6,2.7
			c0,0.1-0.1,0.2-0.2,0.3c-0.2,0.1-0.4,0-0.5-0.3c-0.1-0.4-0.7-2.3-1.5-5.8c-0.2-0.6-0.3-1-0.3-1.1c0-0.1-0.1-0.1-0.3-0.2
			c-0.3,0-1-0.1-2.1-0.1c-0.3,0-0.5,0-0.5,0s-0.1,0.6-0.3,1.6c-0.2,1.1-0.4,2.2-0.7,3.3s-0.4,1.7-0.4,1.9c-0.1,0.2-0.2,0.2-0.3,0.2
			s-0.2-0.1-0.3-0.2c0-0.1,0-0.1,0-0.2c0-0.1,0-0.3,0.1-0.7c0.1-0.7,0.5-2.9,1.3-6.6c0.8-3.7,1.1-5.7,1.2-5.9
			C676.3,143.7,676.4,143.5,676.6,143.4z M677.5,146.2c-0.3-1.2-0.5-1.8-0.5-1.9c-0.1-0.1-0.1,0-0.2,0.1s-0.2,0.9-0.5,2.5
			c-0.3,1.6-0.5,2.4-0.5,2.6c0,0.1,0.2,0.1,0.5,0.1c0.3,0,0.5,0,0.7,0c0.8,0,1.3,0,1.3-0.1c0,0-0.1-0.3-0.2-0.8
			c0-0.1-0.1-0.5-0.3-1.1C677.7,147.1,677.6,146.6,677.5,146.2z"/>
		<path class="st5" d="M683.7,142.5c0.1-0.2,0.2-0.3,0.5-0.3c0.5,0,1.1,0.3,1.8,0.8c0.9,0.7,1.3,1.7,1.3,3c0,1.4-0.5,2.5-1.6,3.4
			c-0.3,0.3-0.5,0.4-0.5,0.4s0.2,0.1,0.5,0.4c0.7,0.4,1.2,0.8,1.6,1.2c0.4,0.4,0.7,1,0.8,1.6c0.1,0.4,0.1,0.8,0.1,1.4
			c0,0.2,0,0.4,0,0.6c-0.2,0.7-0.6,1.2-1.2,1.7c-0.7,0.5-1.5,0.7-2.3,0.7c-0.1,0-0.1,0-0.3,0c-0.1,0-0.2,0-0.2,0
			c-0.3,0-0.4-0.1-0.4-0.3c0-0.1,0-0.3-0.1-0.7c-0.1-2.4-0.2-5.9-0.2-10.6C683.6,143.7,683.6,142.6,683.7,142.5z M685,143.3
			c-0.2-0.1-0.3-0.1-0.4-0.1h-0.2v2.9c0,2,0,3,0.1,3h0c0.1,0,0.4-0.2,0.9-0.6s0.7-0.7,0.8-1c0.3-0.5,0.4-1,0.4-1.6
			c0-0.4,0-0.8-0.1-1c-0.1-0.3-0.3-0.7-0.6-1C685.5,143.6,685.3,143.4,685,143.3z M687.6,154.2c0-0.8-0.2-1.5-0.7-2.1
			s-1.1-1.1-1.8-1.4c-0.3-0.1-0.4-0.2-0.5-0.2c-0.1,0-0.1,0.1-0.1,0.3c0,0,0,0.1,0,0.2s0,0.2,0,0.3c0,0.1,0,0.5,0,1.4
			c0,0.8,0,1.6,0.1,2.4c0,0.7,0.1,1.2,0.1,1.3l0,0.2l0.4,0c0.7,0,1.4-0.4,2-0.9C687.4,155.2,687.6,154.7,687.6,154.2z"/>
		<path class="st5" d="M690.9,143c0.1-0.1,0.1-0.1,0.2-0.1c0.1,0,0.3,0.1,0.4,0.3c0,0.1,0.1,1.7,0.1,4.9c0,5.5,0.1,8.3,0.2,8.4
			c0,0,0.3,0.1,0.8,0.1c0.5,0,0.8,0.1,0.9,0.2c0.2,0.2,0.2,0.4-0.1,0.6c-0.1,0.1-0.2,0.1-0.3,0.1c-0.2,0-0.5,0-0.7,0
			c-0.6,0-0.9-0.1-1-0.1c-0.2-0.1-0.3-0.4-0.4-0.8c-0.1-0.3-0.1-2.8-0.1-7.5C690.9,145.1,690.9,143.1,690.9,143z"/>
		<path class="st5" d="M697.7,142.5c0.3,0,0.7,0,1.1,0c0.5,0,0.8,0,0.9,0.1c0.2,0.1,0.2,0.3,0,0.5c-0.1,0.1-0.6,0.2-1.5,0.2
			c-0.4,0-0.7,0-1,0.1l-0.4,0l0,2.9c0,2.1,0.1,3.1,0.1,3.3l0,0.3h0.4c0.5,0,0.8,0.1,0.8,0.4c0,0.1,0,0.2-0.1,0.2
			c-0.1,0.1-0.3,0.2-0.8,0.3l-0.3,0l0,0.6c0,0.1,0,0.4,0,0.9c0,0.8,0,1.7,0.1,2.6c0,1,0.1,1.5,0.2,1.6c0,0,0.4,0.1,1.2,0.1
			c0.6,0,1,0.1,1.1,0.1c0.1,0,0.2,0.1,0.3,0.3c0,0.1,0,0.2-0.2,0.5l-1.4,0c-0.8,0-1.3,0-1.5,0c-0.2,0-0.3-0.1-0.3-0.3
			c-0.1-0.1-0.1-1.7-0.2-4.7c-0.1-3-0.1-5.5-0.1-7.6c0-1.2,0-1.9,0.1-2c0,0,0.1-0.1,0.1-0.1s0.1,0,0.1-0.1c0.1,0,0.1,0,0.2,0
			s0.1,0,0.2,0s0.2,0,0.3,0s0.2,0,0.3,0S697.6,142.5,697.7,142.5z"/>
		<path class="st5" d="M711.9,142.2c0.1,0,0.2,0,0.3,0c0,0,0,0,0.1,0c0,0,0.1,0,0.1,0c0.1,0,0.2,0,0.3,0.1c0.1,0.1,0.2,0.2,0.2,0.2
			c0,0.2-0.2,0.3-0.6,0.4c-0.4,0.1-0.8,0.4-1.2,0.9c-0.6,0.8-1,1.6-1.2,2.5c-0.2,0.9-0.3,2.1-0.3,3.7c0,2.4,0.4,4.2,1.2,5.3
			c0.3,0.4,0.6,0.7,0.9,0.8c0.4,0.2,0.8,0.3,1.5,0.4c0.4,0,0.6,0.2,0.6,0.4c0,0.3-0.2,0.4-0.5,0.4H713c-1.2,0-2.1-0.5-2.8-1.3
			c-0.7-0.8-1.1-2.1-1.4-4c0-0.3-0.1-1-0.1-2.2c0-0.9,0-1.6,0.1-2c0.2-1.7,0.6-3.1,1.3-4.1C710.7,142.8,711.3,142.3,711.9,142.2z"/>
		<path class="st5" d="M716.4,143.7c0.1-0.1,0.3-0.2,0.4-0.1c0.1,0.1,0.1,0.3,0.2,0.8s0.1,2.2,0.3,5.1c0.1,2.1,0.3,3.5,0.5,4.4
			c0.2,0.8,0.6,1.5,1.1,2c0.4,0.3,0.8,0.5,1.2,0.5c0.9,0,1.6-0.6,2.1-1.7c0.2-0.4,0.3-0.8,0.3-1.2c0-0.4,0.1-1.5,0.1-3.4
			c0-2.6,0.1-4.1,0.1-4.7c0-0.6,0-1,0-1.1c0-0.1,0-0.3,0-0.4s0.1-0.2,0.3-0.2c0.2,0,0.4,0.1,0.5,0.4c0.1,0.2,0.1,1.4,0.1,3.5
			c0,3.8-0.1,6-0.3,6.6c-0.1,0.6-0.4,1.1-0.8,1.6s-0.8,0.8-1.3,1.1c-0.3,0.1-0.6,0.2-1,0.2c-0.5,0-0.8,0-1-0.1
			c-0.6-0.3-1.2-0.8-1.7-1.7c-0.5-1-0.9-2.6-1-4.8c0-0.2,0-0.5,0-0.8s-0.1-0.8-0.1-1.4s-0.1-1-0.1-1.3c-0.1-1.3-0.1-2.2-0.1-2.8
			C716.3,144,716.3,143.8,716.4,143.7z"/>
		<path class="st5" d="M730.3,143c0.5,0,1,0,1.5,0c0.3,0,0.6,0,0.6,0.1c0.1,0.1,0.1,0.2,0.1,0.3c0,0.1-0.1,0.2-0.3,0.3
			c0,0-0.3,0-0.7,0.1c-0.4,0-0.8,0-1.2,0.1l-0.6,0c0,0,0,2.3-0.1,6.8s0,6.8-0.1,6.8c0,0.1-0.1,0.1-0.3,0.1c-0.1,0-0.2,0-0.3-0.1
			c-0.1-0.1-0.1-0.9-0.1-2.4c0-2.2,0-4.3,0-6.4l0-4.7h-1.2c-0.8,0-1.2,0-1.4-0.1c-0.1,0-0.2-0.1-0.2-0.3c0-0.2,0.1-0.3,0.2-0.3
			C726.7,143.1,728,143,730.3,143z"/>
		<path class="st5" d="M739.3,143c0.5,0,1,0,1.5,0c0.3,0,0.6,0,0.6,0.1c0.1,0.1,0.1,0.2,0.1,0.3c0,0.1-0.1,0.2-0.3,0.3
			c0,0-0.3,0-0.7,0.1c-0.4,0-0.8,0-1.2,0.1l-0.6,0c0,0,0,2.3-0.1,6.8s0,6.8-0.1,6.8c0,0.1-0.1,0.1-0.3,0.1c-0.1,0-0.2,0-0.3-0.1
			c-0.1-0.1-0.1-0.9-0.1-2.4c0-2.2,0-4.3,0-6.4l0-4.7h-1.2c-0.8,0-1.2,0-1.4-0.1c-0.1,0-0.2-0.1-0.2-0.3c0-0.2,0.1-0.3,0.2-0.3
			C735.7,143.1,736.9,143,739.3,143z"/>
		<path class="st5" d="M744.1,143c0.1-0.1,0.1-0.1,0.2-0.1c0.1,0,0.3,0.1,0.4,0.3c0,0.1,0.1,1.7,0.1,4.9c0,5.5,0.1,8.3,0.2,8.4
			c0,0,0.3,0.1,0.8,0.1c0.5,0,0.8,0.1,0.9,0.2c0.2,0.2,0.2,0.4-0.1,0.6c-0.1,0.1-0.2,0.1-0.3,0.1c-0.2,0-0.5,0-0.7,0
			c-0.6,0-0.9-0.1-1-0.1c-0.2-0.1-0.3-0.4-0.4-0.8c-0.1-0.3-0.1-2.8-0.1-7.5C744,145.1,744,143.1,744.1,143z"/>
		<path class="st5" d="M750.9,142.5c0.3,0,0.7,0,1.1,0c0.5,0,0.8,0,0.9,0.1c0.2,0.1,0.2,0.3,0,0.5c-0.1,0.1-0.6,0.2-1.5,0.2
			c-0.4,0-0.7,0-1,0.1l-0.4,0l0,2.9c0,2.1,0.1,3.1,0.1,3.3l0,0.3h0.4c0.5,0,0.8,0.1,0.8,0.4c0,0.1,0,0.2-0.1,0.2
			c-0.1,0.1-0.3,0.2-0.8,0.3l-0.3,0l0,0.6c0,0.1,0,0.4,0,0.9c0,0.8,0,1.7,0.1,2.6c0,1,0.1,1.5,0.2,1.6c0,0,0.4,0.1,1.2,0.1
			c0.6,0,1,0.1,1.1,0.1c0.1,0,0.2,0.1,0.3,0.3c0,0.1,0,0.2-0.2,0.5l-1.4,0c-0.8,0-1.3,0-1.5,0c-0.2,0-0.3-0.1-0.3-0.3
			c-0.1-0.1-0.1-1.7-0.2-4.7c-0.1-3-0.1-5.5-0.1-7.6c0-1.2,0-1.9,0.1-2c0,0,0.1-0.1,0.1-0.1s0.1,0,0.1-0.1c0.1,0,0.1,0,0.2,0
			s0.1,0,0.2,0s0.2,0,0.3,0s0.2,0,0.3,0S750.8,142.5,750.9,142.5z"/>
		<path class="st5" d="M755.7,141.9c0.1-0.1,0.2-0.1,0.3-0.1c0.2,0,0.5,0.1,0.8,0.2c0.6,0.2,1.3,0.6,1.8,1.2
			c0.7,0.7,1.1,1.5,1.3,2.3c0.1,0.5,0.2,1.1,0.2,1.9c0,0.3,0,0.5,0,0.6c-0.1,0.5-0.3,1-0.7,1.5c-0.4,0.5-0.8,0.9-1.3,1.1
			c-0.3,0.1-0.4,0.2-0.4,0.3c0.2,0.1,0.3,0.2,0.4,0.3c0.1,0.1,0.2,0.2,0.3,0.2c0.1,0,0.1,0.1,0.1,0.1c0.3,0.2,0.7,0.7,1,1.3
			c0.3,0.5,0.6,1.3,1,2.5c0.3,0.8,0.4,1.3,0.4,1.5c0,0.1,0,0.2-0.1,0.3c-0.2,0.1-0.3,0.2-0.5,0c-0.1,0-0.3-0.6-0.7-1.7
			c-0.3-0.8-0.5-1.4-0.7-1.9c-0.4-0.9-1-1.6-1.8-2.1c-0.2-0.1-0.4-0.2-0.5-0.2c-0.1,0-0.2,0-0.2,0.1c0,0.9,0,1.9,0,3
			c0,0.7,0,1.4,0,2.2c0,0.5,0,0.7,0,0.8c-0.1,0.2-0.3,0.2-0.5,0.1c-0.1,0-0.2-0.2-0.2-0.5c0-0.3-0.1-0.9-0.1-2c0-0.5,0-1.4,0-2.6
			c0-1,0-1.8,0-2.4c0-1.7,0.1-3.5,0.1-5.4C755.6,142.9,755.6,142,755.7,141.9C755.7,141.9,755.7,141.9,755.7,141.9z M759.3,147.2
			c0-2-0.8-3.4-2.3-4.3c-0.2-0.1-0.4-0.2-0.4-0.2c-0.1,0-0.1,0.3-0.1,1c0,1.4-0.1,3.2-0.1,5.6v0.9c0.1,0,0.3-0.1,0.8-0.3
			c0.5-0.2,0.8-0.3,0.8-0.3c0.2-0.1,0.5-0.4,0.8-0.9c0.2-0.3,0.4-0.6,0.4-0.7C759.3,147.9,759.3,147.6,759.3,147.2z"/>
		<path class="st5" d="M769.3,142.6c0.1-0.1,0.2-0.1,0.3-0.1c0.2,0,0.3,0.1,0.3,0.4c0,0.3-0.4,1.5-1.2,3.4c-0.1,0.3-0.2,0.5-0.3,0.6
			c-0.1,0.2-0.1,0.3-0.2,0.5c-0.1,0.1-0.2,0.4-0.3,0.7l-0.4,0.8l0.1,1.9c0.1,2.5,0.1,4,0.1,4.3c0,0.3,0,0.6,0,0.9c0,0.3,0,0.5,0,0.7
			c0,0.2,0,0.3,0,0.4c0,0.2,0,0.4-0.1,0.4c0,0.1-0.1,0.1-0.3,0.1c-0.1,0-0.2,0-0.3-0.1c0,0-0.1-0.1-0.1-0.2c0-0.1-0.1-1.5-0.1-4.4
			c0-2.8-0.1-4.3-0.1-4.4c-0.1-0.2-0.6-1-1.5-2.3c-1.2-1.8-1.8-2.7-1.8-2.8c0-0.1,0-0.2,0.1-0.3s0.1-0.1,0.2-0.1
			c0.1,0,0.2,0.1,0.3,0.2c0,0,0.5,0.7,1.5,2.1c1,1.4,1.5,2.1,1.5,2.1h0c0.1,0,0.2-0.2,0.4-0.5c0.2-0.3,0.3-0.5,0.3-0.6
			c0,0,0.1-0.3,0.2-0.6c0-0.1,0.1-0.4,0.3-0.9c0.2-0.5,0.4-1,0.6-1.5S769.3,142.6,769.3,142.6z"/>
	</g>
	<g>
		<path class="st5" d="M628.4,506.1c0.1-0.2,0.2-0.3,0.5-0.3c0.5,0,1.1,0.3,1.8,0.8c0.9,0.7,1.3,1.7,1.3,3c0,1.4-0.5,2.5-1.6,3.4
			c-0.3,0.3-0.5,0.4-0.5,0.4s0.2,0.1,0.5,0.4c0.7,0.4,1.2,0.8,1.6,1.2c0.4,0.4,0.7,1,0.8,1.6c0.1,0.3,0.1,0.8,0.1,1.3
			c0,0.2,0,0.4,0,0.6c-0.2,0.7-0.6,1.2-1.2,1.7s-1.5,0.7-2.3,0.7c-0.1,0-0.1,0-0.3,0c-0.1,0-0.2,0-0.2,0c-0.3,0-0.4-0.1-0.4-0.3
			c0-0.1,0-0.3-0.1-0.7c-0.1-2.4-0.2-5.9-0.2-10.6C628.3,507.3,628.3,506.2,628.4,506.1z M629.7,506.9c-0.2-0.1-0.3-0.1-0.4-0.1
			h-0.2v3c0,2,0,3,0.1,3h0c0.1,0,0.4-0.2,0.9-0.6s0.7-0.7,0.8-1c0.3-0.5,0.4-1,0.4-1.6c0-0.4,0-0.8-0.1-1c-0.1-0.3-0.3-0.7-0.6-1
			C630.2,507.3,629.9,507,629.7,506.9z M632.3,517.8c0-0.8-0.2-1.5-0.7-2.1c-0.5-0.6-1.1-1-1.8-1.3c-0.3-0.1-0.4-0.2-0.5-0.2
			c-0.1,0-0.1,0.1-0.1,0.3c0,0,0,0.1,0,0.2s0,0.2,0,0.3c0,0.1,0,0.5,0,1.4c0,0.8,0,1.6,0.1,2.4c0,0.7,0.1,1.2,0.1,1.3l0,0.2l0.4,0
			c0.7,0,1.4-0.4,2-0.9C632.1,518.8,632.3,518.4,632.3,517.8z"/>
		<path class="st5" d="M638.5,505.9c0.2,0,0.4,0,0.7,0c0.5,0,0.9,0.1,1.2,0.2c1,0.4,1.7,1.3,2.2,2.8c0.2,0.7,0.4,1.3,0.4,2
			c0.1,0.6,0.1,1.7,0.1,3.1c0,1.4-0.1,2.7-0.3,3.7c-0.3,1.2-0.7,2-1.4,2.7c-0.5,0.5-1.2,0.8-2,0.8c-0.5,0-1.1-0.1-1.5-0.4
			c-0.5-0.3-0.8-0.6-1.1-1c-0.3-0.4-0.5-1-0.7-1.8c-0.3-1.1-0.4-2.2-0.4-3.3c0-0.9,0-1.4-0.1-1.4c0,0,0-0.2,0-0.5
			c0-1.2,0-2.1,0.1-2.9c0.1-1.3,0.5-2.2,1.3-2.9C637.4,506.2,637.9,506,638.5,505.9z M640.8,507.3c-0.5-0.5-1-0.7-1.7-0.7
			c-0.1,0-0.3,0-0.5,0c-1.1,0.3-1.8,1.1-2.1,2.6c-0.1,0.5-0.1,1.5-0.1,3c0,1.3,0,2.3,0.1,3.1c0.2,1.4,0.4,2.4,0.7,3.2
			c0.3,0.7,0.7,1.2,1.2,1.4c0.2,0.1,0.5,0.2,0.9,0.2c0.6,0,1.2-0.2,1.5-0.5c0.6-0.5,1-1.3,1.2-2.4c0.2-1,0.3-2.1,0.3-3.4l0-0.2
			c0,0,0-0.4,0-1.2c0-1.1-0.1-2.1-0.4-3.1C641.6,508.4,641.3,507.7,640.8,507.3z"/>
		<path class="st5" d="M649.8,506.6c0.5,0,1,0,1.5,0c0.3,0,0.6,0,0.6,0.1c0.1,0.1,0.1,0.2,0.1,0.3c0,0.1-0.1,0.2-0.3,0.3
			c0,0-0.3,0-0.7,0.1s-0.8,0-1.2,0.1l-0.6,0c0,0,0,2.3-0.1,6.8s0,6.8-0.1,6.8c0,0-0.1,0.1-0.3,0.1c-0.1,0-0.2,0-0.3-0.2
			c-0.1-0.1-0.1-0.9-0.1-2.4c0-2.2,0-4.3,0-6.4l0-4.7h-1.2c-0.8,0-1.2,0-1.4-0.1c-0.1,0-0.2-0.1-0.2-0.3c0-0.2,0.1-0.3,0.2-0.3
			C646.2,506.7,647.5,506.6,649.8,506.6z"/>
		<path class="st5" d="M658.7,506.6c0.5,0,1,0,1.5,0c0.3,0,0.6,0,0.6,0.1c0.1,0.1,0.1,0.2,0.1,0.3c0,0.1-0.1,0.2-0.3,0.3
			c0,0-0.3,0-0.7,0.1s-0.8,0-1.2,0.1l-0.6,0c0,0,0,2.3-0.1,6.8s0,6.8-0.1,6.8c0,0-0.1,0.1-0.3,0.1c-0.1,0-0.2,0-0.3-0.2
			c-0.1-0.1-0.1-0.9-0.1-2.4c0-2.2,0-4.3,0-6.4l0-4.7h-1.2c-0.8,0-1.2,0-1.4-0.1c-0.1,0-0.2-0.1-0.2-0.3c0-0.2,0.1-0.3,0.2-0.3
			C655.1,506.7,656.4,506.6,658.7,506.6z"/>
		<path class="st5" d="M663.5,506.6c0.1-0.1,0.1-0.1,0.2-0.1c0.1,0,0.3,0.1,0.4,0.3c0,0.1,0.1,1.7,0.1,4.8c0,5.5,0.1,8.3,0.2,8.4
			c0,0,0.3,0.1,0.8,0.1c0.5,0,0.8,0.1,0.9,0.2c0.2,0.2,0.2,0.4-0.1,0.6c-0.1,0.1-0.2,0.1-0.3,0.1c-0.2,0-0.5,0-0.7,0
			c-0.6,0-0.9-0.1-1-0.1c-0.2-0.1-0.3-0.4-0.4-0.8c-0.1-0.3-0.1-2.8-0.1-7.5C663.5,508.7,663.5,506.7,663.5,506.6z"/>
		<path class="st5" d="M670.3,506.1c0.3,0,0.7,0,1.1,0c0.5,0,0.8,0,0.9,0.1c0.2,0.1,0.2,0.3,0,0.5c-0.1,0.1-0.6,0.2-1.5,0.2
			c-0.4,0-0.7,0-1,0.1l-0.4,0l0,3c0,2,0.1,3.1,0.1,3.3l0,0.3h0.4c0.5,0,0.8,0.1,0.8,0.4c0,0.1,0,0.2-0.1,0.2
			c-0.1,0.1-0.3,0.2-0.8,0.3l-0.3,0l0,0.6c0,0.2,0,0.4,0,0.9c0,0.8,0,1.7,0.1,2.7s0.1,1.5,0.2,1.5c0,0,0.4,0.1,1.2,0.1
			c0.6,0,1,0.1,1.1,0.1s0.2,0.1,0.3,0.3c0,0.1,0,0.2-0.2,0.5l-1.4,0c-0.8,0-1.3,0-1.5,0c-0.2,0-0.3-0.1-0.3-0.3
			c-0.1-0.1-0.1-1.7-0.2-4.7c-0.1-3-0.1-5.5-0.1-7.6c0-1.2,0-1.9,0.1-2c0,0,0.1-0.1,0.1-0.1c0,0,0.1,0,0.1-0.1c0.1,0,0.1,0,0.2,0
			s0.1,0,0.2,0s0.2,0,0.3,0c0.1,0,0.2,0,0.3,0S670.2,506.1,670.3,506.1z"/>
		<path class="st5" d="M677.4,505.8c0.2,0,0.3-0.1,0.4-0.1c0.2,0,0.4,0.1,0.4,0.3c0,0.1,0,0.2-0.1,0.2c-0.1,0-0.2,0.1-0.5,0.2
			c-0.5,0.2-0.9,0.5-1.2,0.8c-0.4,0.5-0.6,1-0.6,1.6c0,0.3,0.1,0.6,0.2,0.8c0.1,0.2,0.7,0.9,1.9,2c0.7,0.7,1.1,1.1,1.2,1.2
			c0.7,0.9,1,2.1,1,3.6c0,1.2-0.4,2.2-1.3,3.1c-0.3,0.3-0.6,0.6-1,0.8c-0.2,0.1-0.5,0.2-0.9,0.3s-0.7,0.2-0.8,0.2
			c-0.2,0.1-0.5,0.1-0.8,0.1c-0.2,0-0.3,0-0.3-0.1c0-0.1-0.1-0.2-0.1-0.3s0-0.2,0.1-0.3c0.1-0.1,0.6-0.3,1.5-0.5
			c0.6-0.1,1.2-0.4,1.7-0.9c0.5-0.5,0.8-1,1-1.6c0.1-0.3,0.1-0.6,0.1-1c0-0.8-0.1-1.4-0.3-2c-0.1-0.4-0.3-0.7-0.5-1
			s-0.6-0.7-1.1-1.2c-0.8-0.8-1.2-1.2-1.4-1.4c-0.6-0.5-0.9-1.1-1-1.8c0-0.1,0-0.2,0-0.4c0-0.7,0.2-1.3,0.7-1.9
			C676.2,506.4,676.8,506,677.4,505.8z"/>
	</g>
</g>
</svg>
