<?xml version="1.0" encoding="utf-8"?>
<!-- Generator: Adobe Illustrator 24.0.1, SVG Export Plug-In . SVG Version: 6.00 Build 0)  -->
<svg version="1.1" xmlns="http://www.w3.org/2000/svg" xmlns:xlink="http://www.w3.org/1999/xlink" x="0px" y="0px"
	 viewBox="0 0 1000 365.3" style="enable-background:new 0 0 1000 365.3;" xml:space="preserve">
<style type="text/css">
	.st0{fill:#95D2EF;}
	.st1{fill:#FCDE8A;}
	.st2{fill:#1E1E1C;}
	.st3{fill:#1E1E1C;stroke:#1E1E1C;stroke-width:0.25;stroke-miterlimit:10;}
	.st4{fill:#1E1E1C;stroke:#1E1E1C;stroke-width:0.15;stroke-miterlimit:10;}
	.st5{fill:#FFFFFF;}
	.st6{stroke:#1E1E1C;stroke-miterlimit:10;}
	.st7{fill:none;stroke:#1E1E1C;stroke-width:3;stroke-linecap:round;stroke-linejoin:round;stroke-miterlimit:10;}
</style>
<g id="Calque_2">
</g>
<g id="Calque_1">
	<g>
		<path d="M351.5,264.7c-1.8,0-2,0-2.1,0.1c-0.4,0.2-0.6,0.6-0.6,0.8c0,0.1-0.1,0.3-0.1,3.6c0,6.6,0.1,10.3,0.2,11.3
			c0.1,1.2,0.6,1.5,1,1.5c0.2,0,0.3-0.1,0.5-0.2l0.3-0.3V280c-0.1-3.3-0.1-5.6-0.1-6.7v-0.4c0.4,0,0.6,0,0.8,0
			c0.4,0,0.7-0.1,0.9-0.4c0.2-0.2,0.3-0.3,0.3-0.5c0-0.2-0.2-0.4-0.3-0.5l-0.3-0.4h-1.5v-1.6c0-0.5,0-1,0-1.7c0-0.6,0-1,0-1.1v-0.2
			l1.2,0c1.3,0,1.6-0.1,1.7-0.1c0.4-0.1,0.6-0.4,0.6-0.8c0-0.3-0.1-0.6-0.4-0.8C353.6,264.8,353.5,264.7,351.5,264.7z"/>
		<path d="M358.7,266.6c1.5,0,1.9-0.1,2-0.4c0.3-0.5,0.1-1-0.1-1.1c-0.2-0.2-0.6-0.3-1.3-0.3c-0.5,0-0.9,0-1.2,0h-0.4
			c-0.2,0-0.3,0-0.4,0c-0.2,0-0.5,0-0.6,0.1l-0.2,0c-0.1,0-0.2,0.1-0.3,0.1c-0.1,0.1-0.2,0.1-0.2,0.2l-0.1,0.1
			c0,0.1-0.1,0.2-0.1,2.3c0,2.3,0,5,0.1,8.2c0.1,4.9,0.2,5.1,0.2,5.2c0.1,0.3,0.4,0.6,0.7,0.6c0.1,0,0.4,0,1.6,0c0,0,0,0,0,0l1.9,0
			l0.1-0.3c0.2-0.4,0.3-0.6,0.2-0.9c-0.1-0.3-0.3-0.6-0.7-0.6c-0.1,0-0.4-0.1-1.3-0.1c-0.4,0-0.7,0-0.9,0c0-0.2-0.1-0.6-0.1-1.3
			c-0.1-1-0.1-2-0.1-2.8c0-0.4,0-0.7,0-0.9l0-0.2c0.4,0,0.9-0.1,1.1-0.5c0.1-0.1,0.1-0.3,0.1-0.5c0-0.3-0.1-0.9-1.3-0.9
			c0-0.2,0-1-0.1-3.4l0-2.7h0C358,266.6,358.4,266.6,358.7,266.6z"/>
		<path d="M365.5,266.6c1.5,0,1.9-0.1,2-0.4c0.3-0.5,0.1-1-0.1-1.1c-0.2-0.2-0.6-0.3-1.3-0.3c-0.5,0-0.9,0-1.2,0h-0.4
			c-0.2,0-0.3,0-0.4,0c-0.2,0-0.5,0-0.6,0.1l-0.2,0c-0.1,0-0.2,0.1-0.3,0.1c-0.1,0.1-0.2,0.1-0.2,0.2l-0.1,0.1
			c0,0.1-0.1,0.2-0.1,2.3c0,2.3,0,5,0.1,8.2c0.1,4.9,0.2,5.1,0.2,5.2c0.1,0.3,0.4,0.6,0.7,0.6c0.1,0,0.4,0,1.6,0c0,0,0,0,0,0l1.9,0
			l0.1-0.3c0.2-0.4,0.3-0.6,0.2-0.9c-0.1-0.3-0.3-0.6-0.7-0.6c-0.1,0-0.4-0.1-1.3-0.1c-0.4,0-0.7,0-0.9,0c0-0.2-0.1-0.6-0.1-1.3
			c-0.1-1-0.1-2-0.1-2.8c0-0.4,0-0.7,0-0.9l0-0.2c0.4,0,0.9-0.1,1.1-0.5c0.1-0.1,0.1-0.3,0.1-0.5c0-0.3-0.1-0.9-1.3-0.9
			c0-0.2,0-1-0.1-3.4l0-2.7h0C364.8,266.6,365.1,266.6,365.5,266.6z"/>
		<path d="M377.3,271.8c-0.2-1.8-0.8-3.4-1.6-4.7c-0.2-0.3-0.5-0.6-0.9-1s-0.8-0.7-1.1-0.9c-1-0.6-2-0.9-2.9-0.9
			c-0.3,0-0.5,0-0.6,0.1c-0.4,0.1-0.6,0.4-0.6,0.5c-0.1,0.2-0.1,0.5-0.1,0.9c0,0.7,0,2,0.1,4l0.1,3.6c0.1,4.4,0.2,6.9,0.4,7.7
			c0.1,0.3,0.3,0.8,1.3,0.8h0.2c1,0,2-0.3,2.9-0.8c1.4-0.8,2.3-2.3,2.7-4.3c0.1-0.4,0.1-1.1,0.1-2.3
			C377.4,273.3,377.4,272.4,377.3,271.8z M371.8,280c-0.1-0.4-0.1-1.4-0.3-4.7c0-0.2,0-1-0.1-2.5c0-1.5-0.1-2.8-0.1-3.9
			c0-1.1-0.1-1.9-0.2-2.4c0-0.1,0-0.1,0-0.2c0.1,0,0.3,0.1,0.5,0.1l0,0c0.9,0.3,1.6,0.7,2.1,1.4c0.9,1.1,1.5,2.8,1.7,5.1
			c0,0.6,0.1,1.1,0.1,1.6c0,1.5-0.1,2.1-0.1,2.4c-0.4,1.8-1.5,2.9-3.1,3.2C372.1,280,372,280,371.8,280z"/>
	</g>
	<g>
		<path d="M587.9,267.2c-0.2-0.3-0.5-0.6-0.9-1s-0.8-0.7-1.1-0.9c-1-0.6-2-0.9-2.9-0.9c-0.3,0-0.5,0-0.6,0.1
			c-0.4,0.1-0.6,0.4-0.6,0.5c-0.1,0.2-0.1,0.5-0.1,0.9c0,0.7,0,2,0.1,4l0.1,3.6c0.1,4.4,0.2,6.9,0.4,7.7c0.1,0.3,0.3,0.8,1.3,0.8
			h0.2c1,0,2-0.3,2.9-0.8c1.4-0.8,2.3-2.3,2.7-4.3c0.1-0.4,0.1-1.1,0.1-2.3c0-1.3,0-2.2-0.1-2.7C589.3,270,588.7,268.4,587.9,267.2z
			 M584,280.1c-0.1-0.4-0.1-1.4-0.3-4.7c0-0.2,0-1-0.1-2.5c0-1.5-0.1-2.8-0.1-3.9c0-1.1-0.1-1.9-0.2-2.4c0-0.1,0-0.1,0-0.2
			c0.1,0,0.3,0.1,0.5,0.1l0,0c0.9,0.3,1.6,0.7,2.1,1.4c0.9,1.1,1.5,2.8,1.7,5.1c0,0.6,0.1,1.1,0.1,1.6c0,1.5-0.1,2.1-0.1,2.4
			c-0.4,1.8-1.5,2.9-3.1,3.2C584.3,280,584.2,280,584,280.1z"/>
		<path d="M593.5,278.2c0-1-0.1-2.9-0.1-5.5c-0.1-2.7-0.1-4.3-0.1-5l0-1.5l-0.3-0.3c-0.2-0.2-0.4-0.3-0.7-0.3
			c-0.9,0-0.9,1.3-0.9,1.7l0,0.4c0,0.3,0.1,2.1,0.1,5.6c0.1,7.7,0.2,8,0.3,8.2c0.1,0.2,0.2,0.4,0.4,0.5c0.1,0.1,0.3,0.1,0.5,0.1
			c0.1,0,0.3,0,0.4-0.1c0.2-0.1,0.4-0.3,0.5-0.5c0-0.1,0.1-0.3,0.1-0.9c0,0,0-0.4,0-1.1L593.5,278.2z"/>
		<path d="M599.4,280.1c-0.1,0-0.4-0.1-1.3-0.1c-0.4,0-0.7,0-0.9,0c0-0.2-0.1-0.6-0.1-1.3c-0.1-1-0.1-2-0.1-2.8c0-0.4,0-0.7,0-0.9
			l0-0.2c0.4,0,0.9-0.1,1.1-0.5c0.1-0.1,0.1-0.3,0.1-0.5c0-0.3-0.1-0.9-1.3-0.9c0-0.2,0-1-0.1-3.4l0-2.7h0c0.3,0,0.6-0.1,1-0.1
			c1.5,0,1.9-0.1,2-0.4c0.3-0.5,0.1-1-0.1-1.1c-0.2-0.2-0.6-0.3-1.3-0.3c-0.5,0-0.9,0-1.2,0H597c-0.2,0-0.3,0-0.4,0
			c-0.2,0-0.5,0-0.6,0.1l-0.2,0c-0.1,0-0.2,0.1-0.3,0.1c-0.1,0.1-0.2,0.1-0.2,0.2l-0.1,0.1c0,0.1-0.1,0.2-0.1,2.3c0,2.3,0,5,0.1,8.2
			c0.1,4.9,0.2,5.1,0.2,5.2c0.1,0.3,0.4,0.6,0.7,0.6c0.1,0,0.4,0,1.6,0c0,0,0,0,0,0l1.9,0l0.1-0.3c0.2-0.4,0.3-0.6,0.2-0.9
			C600,280.4,599.8,280.2,599.4,280.1z"/>
	</g>
	<g>
		<path d="M718.1,280.2c-0.6-0.1-1.1-0.2-1.4-0.3c-0.3-0.1-0.6-0.4-0.8-0.7c-0.8-1.1-1.2-3-1.2-5.5c0-1.6,0.1-2.9,0.3-3.9
			c0.2-0.9,0.6-1.8,1.2-2.5c0.3-0.4,0.7-0.7,1-0.8c0.8-0.2,1-0.6,1-0.9c0-0.2-0.1-0.4-0.3-0.6c-0.2-0.2-0.4-0.3-0.6-0.3l-0.2,0
			c-0.2,0-0.3,0-0.4,0c-0.8,0.1-1.5,0.8-2.2,1.9c-0.8,1.2-1.3,2.8-1.5,4.7c-0.1,0.5-0.1,1.2-0.1,2.2c0,1.3,0,2.1,0.1,2.4
			c0.3,2.1,0.9,3.5,1.6,4.5c0.8,1,2,1.5,3.4,1.6h0.1c0.8,0,1.1-0.5,1.1-0.9C719.2,280.9,719.1,280.4,718.1,280.2z"/>
		<path d="M729.5,268.4c-0.5-1.7-1.4-2.8-2.6-3.3c-0.3-0.2-0.8-0.2-1.5-0.2c-0.3,0-0.6,0-0.8,0h0c-0.8,0.1-1.4,0.4-2,1
			c-0.9,0.8-1.4,2-1.5,3.5c-0.1,0.8-0.1,1.9-0.1,3.2c0,0.4,0,0.6,0.1,0.8c0,0.1,0,0.4,0,1.3c0,1.2,0.2,2.5,0.5,3.7
			c0.2,0.9,0.5,1.6,0.8,2.1c0.3,0.5,0.8,0.9,1.3,1.3c0.6,0.4,1.2,0.5,1.9,0.5c1,0,1.9-0.3,2.5-0.9c0.8-0.7,1.3-1.8,1.6-3.1
			c0.2-1.1,0.3-2.5,0.3-4.1c0-1.5-0.1-2.6-0.1-3.4C729.9,269.9,729.7,269.1,729.5,268.4z M724.7,280.1c-0.4-0.2-0.8-0.6-1-1.3
			c-0.3-0.7-0.5-1.8-0.7-3.3c-0.1-0.8-0.1-2-0.1-3.3c0-1.6,0.1-2.6,0.2-3.1c0.3-1.4,0.9-2.2,1.9-2.4c0.2,0,0.3,0,0.4,0
			c0.5,0,1,0.2,1.4,0.6l0,0c0.4,0.4,0.8,1.1,1.1,2c0.3,1,0.4,2.1,0.4,3.2c0,0.9,0,1.2,0.1,1.4l0,0.1c0,1.3-0.1,2.5-0.3,3.5
			c-0.2,1-0.6,1.8-1.1,2.3c-0.3,0.3-0.8,0.5-1.3,0.5C725.1,280.2,724.8,280.1,724.7,280.1z"/>
		<path d="M740.3,268.4c-0.5-1.7-1.4-2.8-2.6-3.3c-0.3-0.2-0.8-0.2-1.5-0.2c-0.3,0-0.6,0-0.8,0h0c-0.8,0.1-1.4,0.4-2,1
			c-0.9,0.8-1.4,2-1.5,3.5c-0.1,0.8-0.1,1.9-0.1,3.2c0,0.4,0,0.6,0.1,0.8c0,0.1,0,0.4,0,1.3c0,1.2,0.2,2.5,0.5,3.7
			c0.2,0.9,0.5,1.6,0.8,2.1c0.3,0.5,0.8,0.9,1.3,1.3c0.6,0.4,1.2,0.5,1.9,0.5c1,0,1.9-0.3,2.5-0.9c0.8-0.7,1.3-1.8,1.6-3.1
			c0.2-1.1,0.3-2.5,0.3-4.1c0-1.5-0.1-2.6-0.1-3.4C740.7,269.9,740.5,269.1,740.3,268.4z M735.6,280.1c-0.4-0.2-0.8-0.6-1-1.3
			c-0.3-0.7-0.5-1.8-0.7-3.3c-0.1-0.8-0.1-2-0.1-3.3c0-1.6,0.1-2.6,0.2-3.1c0.3-1.4,0.9-2.2,1.9-2.4c0.2,0,0.3,0,0.4,0
			c0.5,0,1,0.2,1.4,0.6l0,0c0.4,0.4,0.8,1.1,1.1,2c0.3,1,0.4,2.1,0.4,3.2c0,0.9,0,1.2,0.1,1.4l0,0.1c0,1.3-0.1,2.5-0.3,3.5
			c-0.2,1-0.6,1.8-1.1,2.3c-0.3,0.3-0.8,0.5-1.3,0.5C735.9,280.2,735.7,280.1,735.6,280.1z"/>
		<path d="M744.9,280.3c-0.2,0-0.3,0-0.4,0c0-0.7-0.1-2.8-0.1-8.6c-0.1-5.2-0.1-5.3-0.1-5.4c-0.3-0.6-0.7-0.7-0.9-0.7
			c-0.2,0-0.4,0.1-0.5,0.3c-0.2,0.2-0.2,0.2-0.2,6.9c0,7.7,0.1,8,0.1,8.2c0.1,0.4,0.2,1,0.7,1.2c0.1,0.1,0.1,0.1,1.2,0.1
			c0.3,0,0.5,0,0.8,0c0.2,0,0.4-0.1,0.7-0.2c0.3-0.2,0.4-0.5,0.4-0.7c0-0.2-0.1-0.4-0.3-0.7C746,280.4,745.6,280.3,744.9,280.3z"/>
		<path d="M750.4,278.4c0-1-0.1-2.9-0.1-5.5c-0.1-2.7-0.1-4.3-0.1-5l0-1.5l-0.3-0.3c-0.2-0.2-0.4-0.3-0.7-0.3
			c-0.9,0-0.9,1.3-0.9,1.7l0,0.4c0,0.3,0.1,2.1,0.1,5.6c0.1,7.7,0.2,8,0.3,8.2c0.1,0.2,0.2,0.4,0.4,0.5c0.1,0.1,0.3,0.1,0.5,0.1
			c0.1,0,0.3,0,0.4-0.1c0.2-0.1,0.4-0.3,0.5-0.5c0-0.1,0.1-0.3,0.1-0.9c0,0,0-0.4,0-1.1L750.4,278.4z"/>
		<path d="M759.7,266.4c-0.2-0.8-0.7-0.9-0.9-0.9c-0.2,0-0.5,0.1-0.7,0.6c-0.1,0.2-0.1,0.5-0.1,0.7c0.1,1.1,0.2,2.7,0.3,4.8l0.1,2.2
			c0.1,1.2,0.1,2.3,0.2,3.2c0,0,0,0,0,0.1c-0.6-1.3-1.3-3.1-2.2-5.4c-1.8-4.4-2.3-5.3-2.6-5.6c-0.3-0.3-0.6-0.5-0.9-0.5
			c-0.3,0-0.7,0.1-0.8,1.1v0.1c0,0.8,0.1,3.4,0.3,7.6c0.3,6.4,0.3,6.6,0.4,6.7c0.2,0.8,0.7,0.9,0.9,0.9c0.2,0,0.5-0.1,0.7-0.5
			c0.1-0.1,0.1-0.2,0.1-0.8c0-1.2-0.1-4.1-0.3-8.7c0-0.5,0-0.9,0-1.2c0.7,1.7,1.5,3.7,2.4,5.8c1,2.4,1.7,3.8,1.9,4.3
			c0.3,0.6,0.5,1,0.8,1.1c0.1,0.1,0.2,0.1,0.4,0.1c0.2,0,0.3,0,0.4-0.1c0.4-0.2,0.5-0.8,0.5-1.8c0-0.8,0-1.8-0.1-3.1
			C760.1,270.6,759.8,267.1,759.7,266.4z"/>
		<path d="M770.3,273.8c-0.2-0.2-0.5-0.3-1.3-0.3c-0.7,0-1.1,0.1-1.3,0.3c-0.3,0.3-0.3,0.5-0.3,0.7c0,0.2,0.1,0.4,0.3,0.7
			c0.2,0.2,0.5,0.2,1,0.2h0.1c0,0.2,0,0.5,0,0.9c0,1.9-0.1,2.6-0.2,2.9c0,0.1-0.1,0.3-0.3,0.4c-0.1,0.2-0.3,0.3-0.4,0.3
			c-0.1,0-0.2,0.1-0.3,0.2c0,0-0.1,0-0.1,0c-0.3,0-0.5,0-0.7-0.1c-0.9-0.2-1.6-0.8-2.1-2c-0.5-1-0.7-2.7-0.7-5.2
			c0-1.5,0.1-2.6,0.3-3.2c0.2-0.7,0.5-1.3,0.8-1.9c0.4-0.6,0.7-1,1.2-1.3c0.4-0.3,0.9-0.4,1.4-0.5c0.4,0,0.7-0.2,0.8-0.3
			c0.2-0.2,0.3-0.5,0.3-0.6c0-0.2-0.1-0.4-0.3-0.6c-0.3-0.3-0.6-0.3-0.9-0.3c-0.3,0-0.6,0.1-1,0.2c-0.8,0.2-1.6,0.7-2.3,1.5
			c-1.2,1.3-1.9,3.1-2,5.3c0,0.5-0.1,1.1-0.1,1.8c0,1.2,0,2.2,0.1,3.1c0.1,0.8,0.3,1.6,0.6,2.5c0.3,0.9,0.7,1.6,1.1,2.1
			c0.4,0.4,0.9,0.8,1.5,1.1c0.6,0.3,1.3,0.5,1.8,0.5c0.4,0,1-0.1,1.6-0.5c0.3-0.2,0.6-0.5,1-0.8c0.3-0.4,0.5-0.8,0.6-1.2
			c0-0.2,0.1-0.6,0.1-2.5c0-0.5,0-1.1,0-1.7C770.8,274.5,770.6,274,770.3,273.8z"/>
	</g>
	<path d="M820.9,193.7c-0.1-1-0.8-1.9-1.9-1.9c-1.8,0-3.6,0-5.4,0c-4.9,0-9.8,0-14.8,0c-7.3,0-14.7,0-22,0c-9,0-18,0-27.1,0
		c-9.9,0-19.9,0-29.8,0c-10.2,0-20.4,0-30.6,0.1c-9.6,0-19.3,0.1-28.9,0.1c-8.5,0.1-16.9,0.1-25.4,0.2c-6.5,0.1-13,0.2-19.5,0.3
		c-3.8,0.1-7.6,0.2-11.3,0.5c0-0.8,0-1.5,0-2.3c0.1-5.3,0.2-10.6,0.4-15.9c0-0.3,0-0.5-0.1-0.7c0-0.1,0.1-0.3,0.1-0.4
		c0-1.1-0.9-1.7-1.9-1.9c-8.5-1.1-16.8-2.9-25-5.4c-1.3-0.4-2.2,0.6-2.3,1.6c-0.3,0.4-0.4,1-0.3,1.5c0.2,1.3,0.4,2.6,0.7,3.8
		c-22.7-1.8-45.4-2.1-68.2-2.2c-23-0.1-46.1-0.1-69.1-0.1c-46.1,0.1-92.1,0.5-138.2,2.1c-7.7,0.3-15.5,0.6-23.2,0.9
		c8.7-10.2,15.9-21.6,22.6-33.2c7.2-12.6,14.1-25.5,21.5-38c4.4-7.4,8.9-14.7,13.5-21.9c0.8-1.2-0.3-2.8-1.6-2.8
		c-5-0.2-10-0.4-14.9-0.5c-11.9-0.4-23.9-0.8-35.8-1.3c-14.5-0.5-28.9-1-43.4-1.5c-12.5-0.4-25-0.9-37.4-1.3
		c-6-0.2-12.1-0.7-18.1-0.6c-0.1,0-0.2,0-0.3,0c-0.9,0-2,0.9-1.9,1.9c0.8,7.5,4.7,14.3,8.2,20.8c3.6,6.8,7.5,13.4,11.5,20
		c7.9,13,16.1,25.8,23.9,38.9c4.3,7.2,8.4,14.4,12.3,21.8c-4.8,0.3-9.6,0.6-14.4,0.9c-1.1,0.1-1.7,0.9-1.8,1.7
		c-1.3,1.1-1.9,2.7-2.1,4.5c-0.3,2.4-0.3,4.9-0.4,7.3c-0.1,2.2-0.2,4.4-0.3,6.7c-8.8,0-17.6,0.3-26.4,1c-2.4,0.2-2.4,3.9,0,3.8
		c8.7-0.7,17.5-1,26.2-1c-0.1,1.7-0.1,3.3-0.2,5c-0.1,4.1-0.2,8.2-0.3,12.3c-3-0.1-6.1-0.1-9.1-0.1c-6.3,0-12.3,1.7-18.6,0.6
		c-2.4-0.4-3.4,3.2-1,3.6c3.1,0.6,6.2,0.8,9.3,0.5c3.3-0.3,6.5-0.9,9.8-0.9c3.2,0,6.3,0.1,9.5,0.1c-0.1,5.1-0.1,10.2,0,15.2
		c0,1,0.6,1.5,1.3,1.7c0.2,0.1,0.3,0.1,0.5,0.1c22.8,2.6,45.9,3,68.8,3.1c23.1,0.1,46.3,0.4,69.4,0.7c47,0.5,94.1,1.1,141.1,1.6
		c26.4,0.3,52.8,0.6,79.1,0.9c0,0.5-0.1,1-0.1,1.5c0,0.4,0.1,0.7,0.2,0.9c0.1,0.9,0.7,1.7,1.8,1.6c7.1-0.5,14.3-0.6,21.5-0.3
		c0.9,0,1.4-0.4,1.7-1.1c0.1-0.2,0.2-0.5,0.2-0.8c0.2-5.7,0.3-11.4,0.5-17.1c0.1,0,0.1,0,0.2,0c13.8,0.2,27.5,0.3,41.3,0.2
		c18.2,0,36.5-0.1,54.7-0.2c18.6-0.1,37.3-0.3,55.9-0.4c14.8-0.1,29.7-0.3,44.5-0.4c6.9-0.1,13.8,0.1,20.6-0.2c0.1,0,0.2,0,0.3,0
		c1,0,1.9-0.9,1.9-1.9C822.5,216.1,821.8,204.9,820.9,193.7z M604.3,196.7c0.7-0.1,1.4-0.1,2-0.1c1.9-0.1,3.9-0.2,5.8-0.2
		c6-0.2,11.9-0.3,17.9-0.4c8-0.1,16.1-0.2,24.1-0.3c9.4-0.1,18.9-0.1,28.3-0.2c10.1,0,20.2-0.1,30.3-0.1c10.1,0,20.2,0,30.3,0
		c9.3,0,18.5,0,27.8,0c7.8,0,15.5,0,23.3,0c5.6,0,11.1,0,16.7,0c2.1,0,4.3,0.1,6.5,0.1c0.6,7.5,1.1,15,1.5,22.6l-215,1.9
		c0.1-7.8,0.2-15.6,0.3-23.4C604.2,196.7,604.3,196.7,604.3,196.7z M240.9,174.9c-13.9-26.6-31.3-51.1-45.9-77.3
		c-2-3.6-4-7.3-5.9-11c-1.6-3.1-3-6.4-3.7-9.8c4.2,0.2,8.5,0.3,12.7,0.5c11.9,0.4,23.9,0.8,35.8,1.3c14.5,0.5,28.9,1,43.4,1.5
		c12.5,0.4,25,0.9,37.4,1.3c4.1,0.1,8.2,0.3,12.3,0.4c0.9,0,1.8,0.1,2.7,0.2c-7.6,11.9-14.9,24.1-21.8,36.4
		c-6.8,12.1-13.2,24.4-20.8,36c-4.3,6.6-8.9,12.9-14.1,18.8c-0.4,0.4-0.5,0.8-0.5,1.3c-10.6,0.5-21.1,1-31.6,1.7
		C241.2,175.7,241.1,175.3,240.9,174.9z M222.3,193.7c0.1-2.5,0.2-5,0.4-7.4c0.1-1.3-0.2-3.8,1.1-4.6c0.3-0.2,0.6-0.5,0.7-0.8
		c45.7-3.1,91.5-4.7,137.3-5.4c46.1-0.7,92.1-0.6,138.2-0.5c25.6,0,51.2,0.2,76.7,2.2c0.3,1.4,0.7,2.9,1,4.3c-0.5,0-1,0.3-1.4,0.9
		c-0.4,0.7-0.8,1.4-1.2,2.1c-0.2-0.1-0.5-0.2-0.9-0.2c-15.5-0.1-30.9,0.3-46.3,0.9c-0.3-0.4-0.6-0.6-1-0.7c-0.9-0.3-1.6,0.2-2.1,0.9
		c-12.3,0.5-24.6,1.1-36.9,1.7c0.6-1.1,1.1-2.1,1.7-3.2c1.2-2.1-2.1-4-3.2-1.9c-1,1.8-1.9,3.5-2.8,5.3c-13.1,0.6-26.2,1.2-39.4,1.5
		c0.8-1.4,1.6-2.8,2.4-4.3c1.2-2.1-2-4-3.2-1.9c-1.2,2.1-2.4,4.2-3.6,6.2c-15.1,0.3-30.2,0.3-45.3,0.3c0.8-1.5,1.5-3,2.3-4.5
		c1.1-2.1-2.1-4-3.2-1.9c-1.1,2.1-2.2,4.3-3.3,6.4c-5.1,0-10.2,0-15.3,0c-10.3,0-20.5,0-30.8,0c0.8-1.3,1.6-2.6,2.4-3.9
		c1.3-2-2-3.9-3.2-1.9c-1.2,1.9-2.4,3.9-3.6,5.8c-10.3,0-20.6,0.1-30.9,0.2c-5.3,0.1-10.7,0.2-16,0.3c0.5-0.9,0.9-1.7,1.4-2.6
		c1.1-2.1-2.1-4-3.2-1.9c-0.8,1.5-1.6,3.1-2.4,4.6c-17.6,0.5-35.2,1.5-52.7,3.4c0.3-1.4,0.6-2.9,0.9-4.3c0.5-2.4-3.1-3.4-3.6-1
		c-0.7,3.3-1.4,6.7-2.1,10c-3-0.1-6-0.2-9-0.2C222.2,196.2,222.2,195,222.3,193.7z M569.5,230.2c-4.9-0.1-9.8-0.2-14.8-0.2
		c2.9-6.8,6.4-13.3,10.1-19.7c2.6-4.6,5.3-9.2,7.9-13.9C572.9,207.8,572.5,219.2,569.5,230.2z M467.5,228.2
		c5.7-12.7,11.8-25.1,18.4-37.4c4.6-0.2,9.3-0.4,13.9-0.7c7.9-0.4,15.7-0.7,23.6-1.1c-3,7.7-6,15.4-9.1,23c-1.7,4.3-3.4,8.6-5.1,13
		c-0.5,1.3-1.1,2.7-1.6,4C494.2,228.8,480.8,228.5,467.5,228.2z M232.3,210.1c0.9-4.4,1.8-8.8,2.8-13.2c17.2-1.9,34.4-2.9,51.6-3.4
		c-4.8,9.6-9.4,19.3-13.6,29.1c-14.4-0.5-28.7-0.9-43.1-1.4c0-0.1,0.1-0.3,0.1-0.4C230.8,217.2,231.6,213.6,232.3,210.1z M291,193.3
		c15.5-0.4,31.1-0.5,46.6-0.5c-5.8,10.1-11,20.5-15.5,31.3c-6-0.2-12-0.4-18-0.6c-9-0.3-18-0.6-27-0.8
		C281.4,212.7,286,202.9,291,193.3z M341.9,192.8c8.3,0,16.6,0,24.9,0c7.2,0,14.4,0,21.6,0c-5.1,10.7-9.6,21.7-13.4,32.9
		c-16.3-0.5-32.6-1-49-1.5C330.7,213.4,336,202.9,341.9,192.8z M392.6,192.8c13.8,0,27.6,0,41.4-0.2c1.2,0,2.5,0,3.7-0.1
		c-6.5,11.5-13.1,22.9-19.6,34.4c-13-0.4-26.1-0.7-39.1-1.1C382.9,214.5,387.4,203.5,392.6,192.8z M442,192.5
		c13.2-0.3,26.3-0.8,39.5-1.4c-6.4,12.2-12.4,24.5-18.1,37.1c-8.8-0.2-17.6-0.4-26.4-0.7c-4.9-0.1-9.8-0.3-14.7-0.4
		C428.9,215.5,435.4,204,442,192.5z M513.8,223.3c1.6-4,3.2-8,4.7-12c2.9-7.4,5.9-14.9,8.8-22.3c15-0.6,30.1-1,45.1-0.9
		c0,0.4,0,0.7,0,1.1c-3.7,6.5-7.5,13.1-11.2,19.6c-3.9,6.9-7.6,13.8-10.6,21.1c-13.1-0.2-26.1-0.4-39.2-0.7
		C512.3,227.2,513,225.3,513.8,223.3z M221.7,208.1c0.1-2.3,0.1-4.6,0.2-6.9c2.8,0,5.6,0.1,8.3,0.2c-0.6,2.7-1.1,5.4-1.7,8.1
		c-0.6,3-1.3,6.1-1.9,9.1c-1.7,0-3.5-0.1-5.2-0.1C221.6,215.1,221.6,211.6,221.7,208.1z M578.3,241.8c-47-0.5-94.1-1.1-141.1-1.6
		c-46.8-0.5-93.7-1.3-140.5-1.5c-25.1-0.1-50.3-0.2-75.3-2.9c0-4.5,0-9,0.1-13.5c1.5,0,3,0.1,4.4,0.1c-0.7,2.8-1.4,5.8-1.5,8.6
		c-0.1,2.4,3.7,2.4,3.8,0c0.1-1.7,0.5-3.3,0.8-4.9c0.1-0.4,0.2-0.9,0.3-1.3c0.2,0.1,0.4,0.1,0.6,0.1c13.9,0.4,27.8,0.9,41.6,1.3
		c-0.4,0.9-0.8,1.9-1.2,2.8c-0.4,0.9,0.4,2.1,1.3,2.3c1.1,0.3,1.9-0.4,2.3-1.3c0.5-1.2,1-2.5,1.6-3.7c15,0.5,30.1,0.9,45.1,1.4
		c-0.6,1.4-1.1,2.8-1.7,4.2c-0.4,1,0.4,2,1.3,2.3c1.1,0.3,1.9-0.4,2.3-1.3c0.7-1.7,1.3-3.4,2-5c12.6,0.4,25.3,0.8,37.9,1.2
		c3.8,0.1,7.6,0.2,11.4,0.3c-0.5,1.6-1,3.1-1.5,4.7c-0.7,2.3,2.9,3.3,3.6,1c0.6-1.9,1.2-3.7,1.8-5.6c12.8,0.4,25.5,0.8,38.3,1.1
		c-0.7,1.2-1.3,2.3-2,3.5c-1.2,2.1,2,4,3.2,1.9c1-1.8,2-3.5,3-5.3c13.9,0.4,27.7,0.8,41.6,1.1c-0.3,0.8-0.7,1.6-1,2.4
		c-0.4,0.9-0.3,2,0.7,2.6c0.8,0.5,2.2,0.3,2.6-0.7c0.6-1.4,1.2-2.8,1.8-4.1c9.9,0.2,19.7,0.5,29.6,0.7c3.5,0.1,7.1,0.1,10.6,0.2
		c-0.6,1.5-1,3.1,0.4,4.3c1.7,1.5,4.2-0.8,2.9-2.4c0.1-0.2,0.2-0.5,0.3-0.7c0.1-0.4,0.3-0.7,0.4-1.1c13.1,0.3,26.2,0.5,39.3,0.7
		c-0.1,0.3-0.2,0.6-0.4,1c-0.8,2.3,2.8,3.3,3.6,1c0.2-0.6,0.5-1.3,0.7-1.9c5.6,0.1,11.2,0.2,16.8,0.3c0.8,0,1.4-0.4,1.6-1
		c0.6-0.1,1.1-0.5,1.3-1.3c3.8-13.5,3.7-27.6,3.3-41.5c0.8-1.5,1.7-3,2.5-4.4c2.3,8.5,5,17,6.4,25.8c-1.3,5.9-2.6,11.8-4,17.8
		c-0.9,4.1-2.1,8.3-2.8,12.6C578.4,241.8,578.4,241.8,578.3,241.8z M581.7,245.7c0.2-2.4,0.7-4.7,1.2-7c0.7-3,1.3-6,2-9
		c1.3-5.9,2.6-11.8,3.9-17.7c0.1-0.3,0.1-0.6,0-0.8c0-0.1,0-0.1,0-0.2c-2.1-13.7-7.4-26.6-9.7-40.2c7.1,2,14.4,3.5,21.8,4.5
		c-0.7,18.7-0.7,37.4-1.1,56.1c-0.1,4.6-0.2,9.3-0.4,13.9C593.6,245.2,587.6,245.3,581.7,245.7z M762,226.1
		c-18.4,0.2-36.8,0.3-55.2,0.4c-18.5,0.1-37.1,0.2-55.6,0.2c-14.5,0-28.9,0-43.4-0.2c-1.3,0-2.6,0-3.9-0.1c0,0-0.1,0-0.1,0
		c0-1.1,0-2.3,0.1-3.4l215.2-1.9c0.1,1.5,0.2,2.9,0.3,4.4c-5,0.1-10,0.1-15,0.2C790.2,225.9,776.1,226,762,226.1z"/>
</g>
</svg>
