<?xml version="1.0" encoding="utf-8"?>
<!-- Generator: Adobe Illustrator 24.0.1, SVG Export Plug-In . SVG Version: 6.00 Build 0)  -->
<svg version="1.1" xmlns="http://www.w3.org/2000/svg" xmlns:xlink="http://www.w3.org/1999/xlink" x="0px" y="0px"
	 viewBox="0 0 1000 365.3" style="enable-background:new 0 0 1000 365.3;" xml:space="preserve">
<style type="text/css">
	.st0{fill:#95D2EF;}
	.st1{fill:#FCDE8A;}
	.st2{fill:#1E1E1C;}
	.st3{fill:#1E1E1C;stroke:#1E1E1C;stroke-width:0.25;stroke-miterlimit:10;}
	.st4{fill:#1E1E1C;stroke:#1E1E1C;stroke-width:0.15;stroke-miterlimit:10;}
	.st5{fill:#FFFFFF;}
	.st6{stroke:#1E1E1C;stroke-miterlimit:10;}
	.st7{fill:none;stroke:#1E1E1C;stroke-width:3;stroke-linecap:round;stroke-linejoin:round;stroke-miterlimit:10;}
</style>
<g id="Calque_2">
</g>
<g id="Calque_1">
	<path d="M179.8,227c1.1-10,3.2-19.9,6.3-29.6c1.5-4.8,3.2-9.5,5.2-14.1c0.8-1.9,1.6-4.2,3-5.8c0.4-0.4,0.9-1.1,1.6-1.1
		c0.8,0,1.4,1,1.7,1.6c2.3,3.7,5.2,9.6,1.4,13.3c1,0.3,2.1,0.6,3.1,0.8c-0.8-2.9-0.9-5.8-0.2-8.7c0.6-2.6,1.9-5.7,4.1-7.3
		c0.6-0.4,1.8-1.2,2.4-0.6c0.5,0.4,0.6,1.5,0.7,2.1c0.2,0.9,0.4,1.8,0.6,2.7c0.3,1.7,0.5,3.4,0.5,5.1c0,0.9,0,1.9,0,2.8
		c0,0.4-0.2,1.1-0.1,1.4c0.2,0.4-0.5,0.2,0.2,0c0.3,0,0.7,0,1,0c0.1,0-0.2-0.5-0.2-0.8c-0.1-0.5-0.1-0.9-0.1-1.4
		c0.1-1.1,0.4-2.1,0.8-3.1c0.7-1.7,1.5-3.5,2.6-5c0.8-1.1,2-2.5,3.4-2.6c1.6-0.1,2.6,1.8,3.2,3c1.9,3.9,2.5,8.3,3.1,12.6
		c0.7,4.8,1.3,9.5,1.8,14.3c0.5,5.4,0.9,10.8,1.1,16.1c0.1,2.4,3.9,2.4,3.8,0c-0.4-10-1.4-20.1-2.9-30c-0.7-4.6-1.3-9.2-3.1-13.5
		c-1.5-3.5-4.3-7.4-8.7-6.1c-3.7,1-5.8,5-7.3,8.2c-0.9,2.1-1.8,4.3-1.7,6.6c0,2,0.8,4.7,3.1,5.2c4.9,1,3.7-8.3,3.5-10.8
		c-0.3-2.3-0.6-4.6-1.3-6.8c-0.6-2-1.8-3.7-4.1-3.9c-4.5-0.5-7.6,4.2-9.1,7.8c-1.9,4.4-2.2,9.3-0.8,13.8c0.4,1.4,2.1,1.8,3.1,0.8
		c4.1-4.1,3.2-10.1,0.9-14.9c-1-2.1-2.3-4.8-4.5-6c-2.2-1.1-4.7-0.2-6.3,1.5c-1.8,2-2.7,4.6-3.8,7c-1.2,2.8-2.3,5.6-3.3,8.4
		c-2,5.5-3.7,11.1-5,16.8c-1.6,6.6-2.7,13.3-3.5,20.1c-0.1,1,0.9,1.9,1.9,1.9C179,228.8,179.7,228,179.8,227L179.8,227z"/>
	<path d="M266.2,113.9c0.1,10.1,1.2,20.1,3.4,30c0.9,4,2,8.7,6.2,10.5c1.9,0.8,4,0.9,5.8-0.2c1.7-1.1,2.8-2.9,3.3-4.8
		c1.3-4.4,0.1-9.2-3-12.5c-1-1.1-2.7-0.5-3.1,0.8c-1,3.5-1,7.3,0.3,10.8c1.2,3.2,3.4,6.4,7,6.8c1.5,0.2,3.2-0.3,4.3-1.3
		c1.3-1.2,1.7-2.9,1.9-4.5c0.5-4,0.2-8-0.6-12c-0.3-1.5-2.7-1.9-3.4-0.4c-1.8,3.7-1.8,7.9,0.1,11.5c1.8,3.5,6,6.3,9.8,4.2
		c3.3-1.8,4.2-6.1,5.2-9.5c1.3-4.7,2.4-9.4,3.5-14.1c1.2-5.4,2.3-10.7,3.3-16.1c0.4-2.4-3.2-3.4-3.6-1c-1.8,10.2-4.1,20.3-6.8,30.2
		c-0.6,2.3-1.8,9.1-5.7,7.2c-3.6-1.8-4.1-7.2-2.6-10.5c-1.1-0.1-2.3-0.3-3.4-0.4c0.6,2.8,0.8,5.6,0.7,8.5c-0.1,1.8,0,5.1-2.6,4.6
		c-2.2-0.4-3.3-3.2-3.8-5c-0.7-2.6-0.7-5.2,0.1-7.8c-1,0.3-2.1,0.6-3.1,0.8c2,2.1,2.8,5.3,2.2,8.1c-0.3,1.2-0.8,2.9-2,3.4
		c-1.2,0.5-2.7-0.2-3.5-1.1c-1.1-1.2-1.7-2.8-2.1-4.3c-0.5-1.9-0.9-3.9-1.3-5.9c-0.8-4-1.4-8-1.8-12c-0.5-4.6-0.7-9.2-0.8-13.9
		C269.9,111.5,266.1,111.5,266.2,113.9L266.2,113.9z"/>
	<path d="M265.9,218.8c0.7-7,2-14,3.7-20.9c0.9-3.4,1.9-6.8,3-10.2c0.5-1.6,1.1-3.1,1.7-4.7c0.6-1.5,1.2-3.1,2.3-4.3
		c0.8-0.8,2-1.5,3.2-1.3c1.2,0.3,1.9,1.4,2.4,2.4c1.4,2.7,1.8,6.1,0.9,9c-0.1,0.5-0.4,0.8-0.6,1.2c-0.2,0.3,0,0.2-0.1,0
		c-0.5-1.3,0-3,0.3-4.2c0.8-2.9,2.4-5.8,4.1-8.2c0.6-0.8,1.7-2.3,2.7-1.3c1,1,1.6,2.7,2.1,4c1,3.3,0.9,6.8-0.3,10.1
		c1.1-0.1,2.3-0.3,3.4-0.4c-1.8-2.7-2.3-6.1-1.2-9.2c0.5-1.3,1.4-3.1,2.9-3.6c1.4-0.4,2.8,0.5,3.7,1.5c2.5,2.6,2.6,6.9,2.7,10.3
		c0.1,4.4,0.2,8.7,0.3,13.1c0.1,5.1,0.2,10.2,0.3,15.2c0.1,2.4,3.8,2.4,3.8,0c-0.1-5.3-0.2-10.7-0.4-16c-0.1-5.2,0-10.4-0.4-15.6
		c-0.4-4.3-1.7-9.1-5.7-11.4c-1.8-1-3.9-1.4-5.9-0.6c-2,0.8-3.4,2.6-4.3,4.5c-2,4.3-1.7,9.6,0.9,13.6c0.9,1.4,2.9,1.1,3.4-0.4
		c1.4-3.8,1.5-8.1,0.3-12c-1-3.3-3.5-8.3-7.8-6.9c-1.8,0.6-3.1,2.1-4,3.6c-1.2,1.8-2.2,3.7-3.1,5.6c-1.4,3.1-3.4,8.6-0.4,11.4
		c1.5,1.4,3.7,1.2,5.1-0.1c1.4-1.3,1.9-3.2,2.1-5c0.6-4-0.4-8.6-3-11.8c-2.7-3.3-7.2-3-10.1-0.2c-1.6,1.5-2.4,3.5-3.2,5.5
		c-0.8,2.1-1.6,4.2-2.3,6.4c-3.3,10-5.4,20.4-6.5,30.9c-0.1,1,0.9,1.9,1.9,1.9C265.1,220.7,265.8,219.8,265.9,218.8L265.9,218.8z"/>
	<path d="M398.9,117.5c-0.5,5-1.7,10-0.7,15c0.1,0.8,1,1.4,1.8,1.4c3.3-0.1,6.7-0.2,10-0.3c0.8,0,1.6,0,2.4-0.1c0.9,0,1.8,0,2.6-0.2
		c1.7-0.5,2.3-2,2.4-3.7c0.1-3.3,0.1-6.7,0.2-10c0-1.5,0.3-3.4-0.7-4.6c-1.2-1.5-3-1.1-4.6-0.9c-3.8,0.5-7.7,1-11.5,1.5
		C399.7,115.8,398.9,116.4,398.9,117.5c0,0.9,0.9,2,1.9,1.9c2.9-0.4,5.8-0.7,8.6-1.1c1.4-0.2,2.9-0.4,4.3-0.5c0.1,0,0.6,0,0.6-0.1
		c0,0-0.6-0.4-0.5-0.5c-0.1,0,0,0.7,0,0.8c0,0.4,0,0.8,0,1.3c0,2.8-0.1,5.6-0.1,8.4c0,0.7,0,1.4,0,2.1c0,0.2,0,0.4,0,0.4
		c0,0,0.3-0.2,0.3-0.3c0-0.2-3.9,0.1-4.2,0.1c-3.2,0.1-6.5,0.2-9.7,0.2c0.6,0.5,1.2,0.9,1.8,1.4c-0.4-2.1-0.2-4.6,0-6.9
		c0.2-2.4,0.6-4.8,0.8-7.1c0.1-1-0.9-1.9-1.9-1.9C399.6,115.7,399,116.5,398.9,117.5L398.9,117.5z"/>
	<path d="M573.3,121.3c-0.3,2.6-0.4,5.3-0.3,8c0.1,1.3,0.2,2.7,0.3,4c0.1,0.8,0.1,1.6,0.7,2.2c0.5,0.6,1.1,0.7,1.9,0.8
		c2.7,0.1,5.4,0.1,8.1,0.1c2.7,0,5.5,0.1,8.2-0.3c1-0.2,1.5-1.4,1.3-2.3c-1.2-4.6-1.7-9.3-1.6-14.1c0-1.3-1.2-2-2.4-1.8
		c-4.7,0.7-9.6,1.2-14.4,1.6C574.2,119.5,573.3,120.2,573.3,121.3c0,1,0.9,1.9,1.9,1.9c5.1-0.4,10.3-0.9,15.4-1.7
		c-0.8-0.6-1.6-1.2-2.4-1.8c-0.1,5.1,0.5,10.1,1.8,15.1c0.4-0.8,0.9-1.5,1.3-2.3c-2.5,0.4-5.2,0.2-7.7,0.2c-1.3,0-2.6,0-3.9,0
		c-0.6,0-1.3,0-1.9,0c-0.3,0-0.6,0-1,0c-0.2,0-0.3,0-0.5,0c-0.4,0-0.4,0-0.2,0c0.3,0.2,0.6,0.3,0.8,0.5c0-0.1-0.1-0.1-0.1-0.2
		c0.2,0.3,0.3,0.6,0.5,0.8c-0.3-0.8-0.3-1.9-0.4-2.8c-0.1-1.1-0.1-2.1-0.1-3.2c0-2.1,0.1-4.3,0.3-6.4c0.1-1-0.9-1.9-1.9-1.9
		C574.1,119.4,573.4,120.3,573.3,121.3L573.3,121.3z"/>
	<path d="M689.9,189.9c0.2-5.7,0.2-11.4-0.2-17c0-0.6-0.4-1.2-0.9-1.6c-0.3-0.6-1-0.9-1.7-1c-4.3-0.6-8.6-0.8-13-0.6
		c-1,0-1.9,0.8-1.9,1.9c0,1,0.9,1.9,1.9,1.9c3.9-0.1,7.9,0,11.8,0.5c0.2,4.7,0.3,9.4,0.2,14.1c-4.1,0-8.4,0.4-12.2-0.2
		c-1-0.2-2,0.3-2.3,1.3c-0.2,0.9,0.3,2.2,1.3,2.3c5,0.8,10,0.1,15,0.3c0.7,0,1.4-0.4,1.7-1.1c0,0,0,0,0,0
		C689.8,190.4,689.9,190.2,689.9,189.9z"/>
	<path d="M744.9,175.1c-0.4,3.2-0.6,6.4-0.6,9.6c0,1.5,0,3,0,4.6c0,1.4,0.3,2.8,1.6,3.6c1,0.6,2.2,0.8,3.3,1
		c1.7,0.3,3.4,0.5,5.1,0.7c3.1,0.3,6.3,0.4,9.4,0.3c1.6-0.1,3.2-0.2,4.8-0.4c1.4-0.1,2.9-0.2,4.2-0.9c2.9-1.5,2.3-5,2.2-7.7
		c-0.1-3.2-0.1-6.5-0.2-9.7c0-1.4-0.1-2.8-1.4-3.6c-1.2-0.8-3-0.8-4.4-0.8c-3.5,0.2-7,1.2-10.5,1.5c-3.7,0.3-7.5,0.3-11.2,0
		c-2.4-0.2-2.4,3.6,0,3.8c5.3,0.4,10.6,0.2,15.8-0.6c1.3-0.2,2.5-0.5,3.8-0.7c1.4-0.2,2.6-0.2,3.9-0.2c0.6,0,0.3,0.4,0.2-0.2
		c0,0.3,0,0.7,0,1c0,0.7,0,1.3,0,2c0,1.3,0,2.7,0.1,4c0,1.3,0,2.7,0.1,4c0,0.7,0,1.3,0,2c0,0.5,0.1,1.2,0,1.6
		c-0.3,0.7-1.5,0.6-2.2,0.7c-1.4,0.2-2.7,0.3-4.1,0.4c-5.2,0.3-10.5,0-15.7-0.9c-0.1,0-1.2-0.2-1.2-0.2c-0.1-0.1,0-1,0-1.3
		c0-1.4,0-2.9,0-4.3c0.1-3,0.3-6.1,0.6-9.1c0.1-1-0.9-1.9-1.9-1.9C745.7,173.2,745,174,744.9,175.1L744.9,175.1z"/>
	<path d="M841.7,192.6c-2.1,0.6-4.3,0.8-6.5,0.6c-0.5,0-0.9-0.1-1.4-0.2c-0.3-0.1-0.7-0.1-1-0.2c0,0-0.1,0-0.1,0
		c0-0.2,0-0.5-0.1-0.7c0-0.6-0.1-1.2-0.1-1.8c-0.2-4.3-0.3-8.7-0.2-13c2.2-0.2,4.3-0.6,6.4-1.2c0.9-0.3,1.6-1.3,1.3-2.3
		c-0.3-1-1.3-1.6-2.3-1.3c-1.2,0.4-2.5,0.6-3.8,0.8c-0.1,0-0.3,0.1-0.4,0.1c0.1,0,0.1,0,0.2,0c-0.1,0-0.2,0-0.2,0
		c-0.3,0-0.7,0.1-1,0.1c-0.6,0.1-1.3,0.1-1.9,0.1c-1,0-1.9,0.8-1.9,1.9c0,0.2,0,0.3,0.1,0.5c0,0.1,0,0.2,0,0.3
		c-0.1,5.5,0,11.1,0.4,16.6c0.1,1.3,0.4,2.6,1.7,3.3c1.2,0.6,2.8,0.7,4.1,0.8c2.7,0.3,5.4,0,8-0.7C845,195.6,844,192,841.7,192.6z"
		/>
	<path d="M694.1,123.9c-0.3-5.2-0.5-10.4-0.6-15.6c-0.1-2.4-3.8-2.4-3.8,0c0.1,5.2,0.3,10.4,0.6,15.6c0.1,1,0.8,1.9,1.9,1.9
		C693.2,125.8,694.1,124.9,694.1,123.9L694.1,123.9z"/>
	<path d="M743.3,122.8c-0.3-5,0.2-9.9,1.4-14.7c0.6-2.3-3-3.3-3.6-1c-1.3,5.1-1.8,10.4-1.5,15.7c0.1,1,0.8,1.9,1.9,1.9
		C742.4,124.7,743.4,123.8,743.3,122.8L743.3,122.8z"/>
	<path d="M779.2,123.1c-1.6-4.9-2.6-10-2.9-15.2c-0.1-1-0.8-1.9-1.9-1.9c-1,0-1.9,0.9-1.9,1.9c0.4,5.5,1.4,10.9,3,16.2
		c0.3,1,1.3,1.6,2.3,1.3C778.9,125.2,779.5,124.1,779.2,123.1L779.2,123.1z"/>
	<path d="M827.3,122.8c0.6-6.7,1.6-13.3,3.1-19.8c0.5-2.3-3.1-3.4-3.6-1c-1.6,6.9-2.7,13.8-3.3,20.8c-0.1,1,0.9,1.9,1.9,1.9
		C826.5,124.7,827.2,123.8,827.3,122.8L827.3,122.8z"/>
	<path d="M411.8,177.8c5.8,0.6,11.7,1.2,17.5,1.9c2.5,0.3,5.3,0.9,7.6-0.2c2.2-1.1,3.5-3.7,4.7-5.8c1.4-2.3,2.7-4.7,3.9-7.1
		c0.6-1.2,1.2-2.5,1.8-3.7c0.3-0.8,0.7-2.3,1.6-2.6c1.2-0.3,2.7-0.2,3.9-0.2c1.5-0.1,3-0.1,4.6-0.1c1.4,0,2.7,0,4.1,0.1
		c1.2,0,2.2-0.1,2.9,1c1.8,2.7,3.3,5.6,4.9,8.4c1.7,2.9,3.4,5.9,5.1,8.8c1.2,2.1,4.5,0.2,3.2-1.9c-3.1-5.4-6.3-10.7-9.4-16.1
		c-0.6-1-1.2-2.1-2.1-2.8c-1.2-0.9-2.6-1.1-4-1.2c-3-0.1-5.9-0.1-8.9,0c-2.5,0.1-6-0.3-7.7,1.8c-0.8,0.9-1.2,2.2-1.7,3.3
		c-0.6,1.4-1.3,2.8-2,4.1c-1.3,2.5-2.6,4.9-4.1,7.2c-0.6,1-1.2,2.2-2.1,3c-0.9,0.8-2.3,0.6-3.5,0.5c-6.8-0.7-13.6-1.5-20.4-2.2
		c-1-0.1-1.9,0.9-1.9,1.9C410,177,410.8,177.7,411.8,177.8L411.8,177.8z"/>
	<path d="M476,179.1c3.8,0.4,7.6,0.3,11.3,0.3c3.8-0.1,7.6,0,11.4-0.1c7.6-0.1,15.2-0.5,22.8-1.1c2.4-0.2,2.4-3.9,0-3.8
		c-7.6,0.6-15.2,1-22.8,1.1c-3.7,0.1-7.5,0-11.2,0.1c-3.9,0.1-7.7,0.1-11.6-0.3c-1-0.1-1.9,0.9-1.9,1.9
		C474.1,178.3,475,179,476,179.1L476,179.1z"/>
	<path d="M522.9,177.7c5.2-6.6,8.8-14.2,11.9-22c0.4-0.9-0.4-2.1-1.3-2.3c-1.1-0.3-1.9,0.4-2.3,1.3c-2.8,7.2-6.1,14.3-10.9,20.3
		c-0.6,0.8-0.8,1.9,0,2.7C520.9,178.3,522.3,178.5,522.9,177.7L522.9,177.7z"/>
	<path d="M533,157.1c5.8,0.4,11.7,0.2,17.5,0.6c1,0.1,1.9-0.9,1.9-1.9c0-1.1-0.9-1.8-1.9-1.9c-5.8-0.4-11.7-0.2-17.5-0.6
		c-1-0.1-1.9,0.9-1.9,1.9C531.1,156.3,532,157,533,157.1L533,157.1z"/>
	<path d="M548.9,156.7c4.6,6.8,8.5,14,11.7,21.6c0.4,0.9,1.8,1.1,2.6,0.7c1-0.6,1.1-1.6,0.7-2.6c-3.2-7.6-7.1-14.8-11.7-21.6
		C550.7,152.8,547.5,154.7,548.9,156.7L548.9,156.7z"/>
	<path d="M562.2,179.2c10.5,0.1,21.1-0.1,31.6,0c2.4,0,2.4-3.7,0-3.8c-10.5-0.1-21.1,0.1-31.6,0
		C559.8,175.4,559.8,179.2,562.2,179.2L562.2,179.2z"/>
	<path d="M175.1,110.8c0.9,4.7,1.9,9.3,2.8,14c0.8,4.1,1.5,8.2,2.6,12.3c1,3.6,2.3,7.3,4.3,10.5c1.9,2.9,5.1,7.2,9.1,6.1
		c3.9-1,5.2-6.2,5.7-9.7c0.4-2.9,0.5-9.1-3.4-9.9c-1.8-0.4-3.3,0.8-4,2.3c-0.8,1.7-0.6,3.6-0.3,5.4c0.6,3.8,2.4,8.2,5.5,10.7
		c1.7,1.4,3.9,2,6,1.1c1.8-0.8,3.1-2.5,3.9-4.2c2-4.4,2.1-9.6,0.6-14.1c-0.4-1.1-1.7-1.8-2.8-1.1c-3.5,2.2-2.9,6.7-1.5,10
		c1.4,3.4,4.2,7,8.3,6.7c3.8-0.3,6-3.6,7.3-6.9c0.8-2,1.2-4.1,1.7-6.1c0.6-2.5,1.2-4.9,1.8-7.4c1.4-5.7,2.8-11.5,4.2-17.2
		c0.6-2.3-3-3.3-3.6-1c-2,8.2-4.1,16.4-6.1,24.6c-0.7,2.9-1.2,6.3-3.1,8.7c-1.7,2.1-4,1.8-5.6-0.2c-1-1.3-1.7-2.8-2.1-4.4
		c-0.3-1.1-0.6-2.9,0.5-3.6c-0.9-0.4-1.8-0.7-2.8-1.1c1,3,1.3,6.2,0.5,9.3c-0.5,1.7-1.9,5.9-4.4,4.5c-1.1-0.6-1.9-1.8-2.5-2.9
		c-0.9-1.5-1.5-3-1.9-4.7c-0.3-1.2-0.6-2.6-0.5-3.9c0,0,0.4-1.1,0.4-1c0.1,0.1-0.5,0.2-0.5,0.1c0,0,0.1,0.3,0.2,0.5
		c1,2.7,0.5,6.2-0.5,8.9c-0.3,0.9-0.9,2.6-2,3c-1.2,0.4-2.4-1-3.1-1.8c-3.9-4.3-5.5-10.1-6.7-15.7c-1.7-7.5-3-15.2-4.5-22.7
		C178.3,107.5,174.7,108.5,175.1,110.8L175.1,110.8z"/>
	<path d="M863.8,160.4c-5.9,0-11.9,0-17.8,0c-5.3,0-10.8,0.3-16-1.1c-5.2-9.5-9.4-19.4-13.4-29.4c-0.1-0.2-0.1-0.3-0.2-0.5
		c-0.2-0.4-0.5-0.6-0.9-0.8c0,0-0.1,0-0.1,0c-0.1,0-0.1,0-0.2,0c-0.1,0-0.2,0-0.3,0c0,0,0,0-0.1,0c-8.2-0.2-16.4-0.1-24.6,0.2
		c-0.7-0.1-1.4,0.1-1.8,0.9c-2.3,5-4.5,9.9-6.9,14.9c-1.1,2.4-2.3,4.7-3.6,7.1c-1.2,2.3-2.5,4.6-3.3,7.1c-5.1,1.6-10.4,1.7-15.7,1.4
		c-5.5-0.4-11-1-16.5-1.6c-4.2-8.5-8-17.3-11.2-26.3c-0.1-0.6-0.5-1.1-1.3-1.3c-5.2-1.1-10.4-2.2-15.7-2.4c-2.4-0.1-4.8,0.2-7.2-0.1
		c-2.5-0.3-4.8-0.7-7.1,0.5c-0.7,0.4-1,1-0.9,1.6c-0.1,0.1-0.1,0.2-0.2,0.4c-3.4,9.3-6.7,18.7-10.8,27.8c-1.3,0.5-2.7,0-4-0.3
		c-2-0.4-4.1-0.5-6.2-0.3c-4.2,0.3-8.3,1-12.5,1.2c-8.5,0.3-17.1,0.3-25.6,0.4c-17.2,0.3-34.4,0.4-51.6,0.5c-4.9,0-9.8,0-14.6,0
		c-2.2,0-4.3-0.1-6.5,0c-0.7,0-1.4,0.1-2.1,0.1c-0.2,0-0.5-0.1-0.8,0c-0.1-0.2-0.2-0.4-0.3-0.6c-2.6-4.6-4.8-9.5-6.5-14.6
		c0-0.1-0.1-0.2-0.1-0.3c0,0,0,0,0,0c0,0,0,0,0,0c-0.2-0.6-0.8-1.1-1.7-1c0,0-0.1,0-0.1,0c0,0,0,0,0,0c-4.6,0.2-9.2,0.6-13.9,0.7
		c-4.5,0.1-9.2,0.1-13.7-1c-1.5-0.4-2.4,0.9-2.3,2.1c-2.2,4.8-4.4,9.7-6.7,14.5c-13.4-0.5-26.9,1.9-40-1.2c-1.6-2.6-3.2-5.1-4.8-7.7
		c-0.9-1.3-1.8-2.7-2.7-4c-0.1-0.2-0.3-0.4-0.4-0.6c-0.2-0.4-0.4-0.7-0.9-0.9c-0.2-0.1-0.4-0.3-0.7-0.3c-0.7-0.2-1.3,0-1.8,0.3
		c-4.2,0.2-8.5,0.4-12.7,0.4c-2.4,0-4.7,0-7.1-0.1c-2.3-0.1-4.5-0.1-6.7-0.9c-0.8-0.3-1.4,0-1.8,0.4c-0.2,0.1-0.4,0.2-0.6,0.4
		c-1.4,1.8-2.6,3.6-3.8,5.4c-0.6,0.9-1.1,1.7-1.7,2.6c-0.3,0.4-0.6,0.9-0.9,1.3c-0.1,0.2-0.3,0.4-0.4,0.6
		c-38.5,1.9-77,3.1-115.5,3.8c-38.6,0.7-77.2,0.8-115.8,0.3c-21.4-0.3-42.9-0.6-64.3-0.9c-2.4,0-2.4,3.7,0,3.8
		c38.6,0.6,77.1,1.2,115.7,1.2c38.6,0,77.3-0.7,115.9-1.9c21.7-0.7,43.3-1.6,65-2.6c0,0,0,0,0.1,0c0.5,0,0.9-0.1,1.3-0.5
		c1.4-1.8,2.6-3.6,3.8-5.4c0.6-0.9,1.1-1.7,1.7-2.6c0.3-0.4,0.6-0.9,0.9-1.3c0.2-0.2,0.3-0.5,0.5-0.7c0,0,0,0,0,0c2,0.6,4,0.6,6,0.7
		c2.4,0.1,4.9,0.1,7.3,0.1c4.7,0,9.4-0.2,14-0.4c0.1,0.1,0.1,0.2,0.2,0.3c0.4,0.6,0.8,1.1,1.1,1.7c0.7,1.1,1.5,2.2,2.2,3.3
		c1.4,2.2,2.8,4.4,4.2,6.7c0.2,0.4,0.6,0.8,1.2,1c14.1,3.6,28.6,0.9,42.9,1.6c0.8,0,1.3-0.4,1.6-0.9c0,0,0,0,0,0
		c2.4-5.1,4.7-10.3,7.1-15.4c8.3,1.6,17.1,0.6,25.5,0.2c1.7,4.9,3.8,9.6,6.4,14.2c0.9,3,4.6,2.2,7,2.2c4.5-0.1,9,0,13.5,0
		c9,0,18,0,27-0.1c18.1-0.1,36.2-0.4,54.3-0.7c2.5-0.1,5-0.1,7.5-0.3c2.5-0.2,5-0.7,7.5-0.9c2.3-0.2,4.5-0.1,6.8,0.4
		c2.1,0.4,4.2,0.6,6-0.5c0.4-0.1,0.7-0.4,0.8-0.8c4.3-9.5,7.7-19.3,11.3-29.1c1.7-0.5,3.7,0.2,5.4,0.3c2.3,0.2,4.6-0.1,6.9,0
		c4.5,0.2,9,1.1,13.4,2c3.3,9.1,7.1,18,11.5,26.7c0.2,0.5,0.6,0.7,0.9,0.9c0.3,0.1,0.6,0.2,0.9,0.3c6,0.6,12,1.3,18,1.7
		c5.7,0.3,11.5,0.1,17-1.8c0.7-0.3,1.1-0.8,1.2-1.4c0.2-0.2,0.4-0.5,0.5-0.8c0.8-2.4,2.1-4.6,3.3-6.8c1.2-2.3,2.4-4.7,3.5-7.1
		c2.2-4.5,4.2-9,6.3-13.6c7.4-0.2,14.8-0.3,22.3-0.2c4,10.1,8.3,20.1,13.6,29.6c0.3,0.6,0.8,0.8,1.3,0.9c5.5,1.7,11.4,1.4,17.1,1.4
		c6.1,0,12.2,0,18.3,0C866.2,164.2,866.2,160.4,863.8,160.4z"/>
	<g>
		<path d="M237.8,254.9c-0.4-0.4-0.8-0.4-1.1-0.2l0,0c-0.3,0.2-0.4,0.7-0.4,1c0,0.1,0,0.5,0.1,2.1c0.1,1.6,0.2,2.6,0.2,3.1v0.5h-3.5
			v-2.6c0-3.2-0.1-3.4-0.2-3.5c-0.2-0.3-0.4-0.5-0.7-0.5c-0.4,0-0.7,0.2-0.8,0.6c-0.1,0.1-0.1,0.2-0.1,7.7v7.6l0.1,0.1
			c0.3,0.3,0.6,0.4,0.8,0.4c0.2,0,0.4-0.1,0.6-0.4c0.1-0.2,0.2-0.2,0.2-4.2l0-3.3h3.7c0,0.1,0,0.3,0,0.6c0,0.7,0.1,1.8,0.1,3.3
			c0,1.7,0.1,2.7,0.1,3.1c0.1,0.6,0.3,1,0.6,1.2c0.2,0.1,0.3,0.1,0.5,0.1c0.1,0,0.2,0,0.2,0c0.2-0.1,0.4-0.2,0.5-0.5l0-0.1
			c0-0.1,0-0.3,0-0.4c0-0.7-0.2-4.2-0.5-10.6C238.1,255.2,237.9,255.1,237.8,254.9z"/>
		<path d="M243.4,255.9c1.5,0,1.9-0.1,2-0.4c0.3-0.5,0.1-1-0.1-1.1c-0.2-0.2-0.6-0.3-1.3-0.3c-0.5,0-0.9,0-1.2,0h-0.4
			c-0.2,0-0.3,0-0.4,0c-0.2,0-0.5,0-0.6,0.1l-0.2,0c-0.1,0-0.2,0.1-0.3,0.1c-0.1,0.1-0.2,0.1-0.2,0.2l-0.1,0.1
			c0,0.1-0.1,0.2-0.1,2.3c0,2.3,0,5,0.1,8.2c0.1,4.9,0.2,5.1,0.2,5.2c0.1,0.3,0.4,0.6,0.7,0.6c0.1,0,0.4,0,1.6,0c0,0,0,0,0,0l1.9,0
			l0.1-0.3c0.2-0.4,0.3-0.6,0.2-0.9c-0.1-0.3-0.3-0.6-0.7-0.6c-0.1,0-0.4-0.1-1.3-0.1c-0.4,0-0.7,0-0.9,0c0-0.2-0.1-0.6-0.1-1.3
			c-0.1-1-0.1-2-0.1-2.8c0-0.4,0-0.7,0-0.9l0-0.2c0.4,0,0.9-0.1,1.1-0.5c0.1-0.1,0.1-0.3,0.1-0.5c0-0.3-0.1-0.9-1.3-0.9
			c0-0.2,0-1-0.1-3.4l0-2.7h0C242.7,255.9,243,255.9,243.4,255.9z"/>
		<path d="M253.7,259.6c-1.1-4.2-1.3-4.4-1.5-4.6c-0.2-0.2-0.7-0.3-1.3,0.1c-0.4,0.2-0.6,0.5-0.7,0.9c-0.1,0.2-0.5,2.4-1.3,6.3
			c-0.8,4.1-1.3,6.4-1.4,7.1c-0.1,0.5-0.1,0.7-0.1,0.8c0,0.1,0,0.3,0.1,0.5c0.2,0.4,0.6,0.5,0.8,0.5c0.3,0,0.6-0.2,0.8-0.5
			c0-0.1,0.1-0.4,0.5-2.1c0.3-1.2,0.5-2.4,0.7-3.6c0.1-0.7,0.2-1.1,0.3-1.4c0.1,0,0.1,0,0.2,0c1.6,0,2.1,0,2.1,0c0,0,0.1,0.2,0.3,1
			c1.4,5.7,1.6,6.2,1.7,6.3c0.1,0.3,0.3,0.6,0.6,0.6c0.1,0,0.2,0,0.2,0c0.1,0,0.3,0,0.4-0.1c0.3-0.2,0.4-0.4,0.4-0.8
			c0-0.1,0-0.4-0.7-3.1C255,264.3,254.2,261.5,253.7,259.6z M251.5,258.4c0,0.1,0.1,0.2,0.1,0.4c0.1,0.4,0.2,0.9,0.4,1.5
			c0.2,0.6,0.3,1,0.3,1.1c0,0.1,0.1,0.3,0.1,0.4c-0.2,0-0.4,0-0.7,0l-0.8,0c0,0,0,0,0,0c0.1-0.4,0.2-1,0.4-2.3
			C251.4,259.1,251.5,258.7,251.5,258.4z"/>
		<path d="M265.9,254.8c-0.2-0.2-0.5-0.3-1-0.3c-0.5,0-1.1,0-1.6,0c-3.8,0.1-4.1,0.2-4.3,0.2c-0.4,0.1-0.6,0.4-0.6,0.8
			c0,0.3,0.2,0.6,0.5,0.7c0.2,0.1,0.4,0.2,1.7,0.2h0.8l0,4.6c0,2.3,0,4.6,0,6.9c0,2.6,0.1,2.7,0.2,2.8c0.2,0.2,0.4,0.4,0.7,0.4
			c0.1,0,0.5,0,0.7-0.2c0.2-0.2,0.2-0.2,0.3-7.7c0-4.2,0-6.1,0-6.8l0.2,0c0.4,0,0.8,0,1.3-0.1c0.7,0,0.8-0.1,0.9-0.1
			c0.4-0.2,0.5-0.4,0.6-0.6C266.2,255.4,266.2,255.1,265.9,254.8z"/>
	</g>
	<g>
		<path d="M482.3,254.4c-1.8,0-2,0-2.1,0.1c-0.4,0.2-0.6,0.6-0.6,0.8c0,0.1-0.1,0.3-0.1,3.6c0,6.6,0.1,10.3,0.2,11.3
			c0.1,1.2,0.6,1.5,1,1.5c0.2,0,0.3-0.1,0.5-0.2l0.3-0.3v-1.5c-0.1-3.3-0.1-5.6-0.1-6.7v-0.4c0.4,0,0.6,0,0.8,0
			c0.4,0,0.7-0.1,0.9-0.4c0.2-0.2,0.3-0.3,0.3-0.5c0-0.2-0.2-0.4-0.3-0.5l-0.3-0.4h-1.5v-1.6c0-0.5,0-1,0-1.7c0-0.6,0-1,0-1.1v-0.2
			l1.2,0c1.3,0,1.6-0.1,1.7-0.1c0.4-0.1,0.6-0.4,0.6-0.8c0-0.3-0.1-0.6-0.4-0.8C484.4,254.5,484.3,254.4,482.3,254.4z"/>
		<path d="M495.2,257.8c-0.5-1.7-1.4-2.8-2.6-3.3c-0.3-0.2-0.8-0.2-1.5-0.2c-0.3,0-0.6,0-0.8,0h0c-0.8,0.1-1.4,0.4-2,1
			c-0.9,0.8-1.4,2-1.5,3.5c-0.1,0.8-0.1,1.9-0.1,3.2c0,0.4,0,0.6,0.1,0.8c0,0.1,0,0.4,0,1.3c0,1.2,0.2,2.5,0.5,3.7
			c0.2,0.9,0.5,1.6,0.8,2.1c0.3,0.5,0.8,0.9,1.3,1.3c0.6,0.4,1.2,0.5,1.9,0.5c1,0,1.9-0.3,2.5-0.9c0.8-0.7,1.3-1.8,1.6-3.1
			c0.2-1.1,0.3-2.5,0.3-4.1c0-1.5-0.1-2.6-0.1-3.4C495.6,259.3,495.5,258.6,495.2,257.8z M493.8,266.9c-0.2,1-0.6,1.8-1.1,2.3
			c-0.3,0.3-0.8,0.5-1.3,0.5c-0.4,0-0.7-0.1-0.8-0.1c-0.4-0.2-0.8-0.6-1-1.3c-0.3-0.7-0.5-1.8-0.7-3.3c-0.1-0.8-0.1-2-0.1-3.3
			c0-1.6,0.1-2.6,0.2-3.1c0.3-1.4,0.9-2.2,1.9-2.4c0.2,0,0.3,0,0.4,0c0.5,0,1,0.2,1.4,0.6l0,0c0.4,0.4,0.8,1.1,1.1,2
			c0.3,1,0.4,2.1,0.4,3.2c0,0.9,0,1.2,0.1,1.4l0,0.1C494.1,264.7,494,265.9,493.8,266.9z"/>
		<path d="M502.7,266c-0.4-0.8-0.8-1.4-1.2-1.6l-0.3-0.3c0.5-0.3,1-0.7,1.4-1.3c0.5-0.6,0.8-1.2,0.9-1.8c0-0.1,0-0.2,0-0.7
			c0-0.8-0.1-1.5-0.2-2.1c-0.2-1-0.7-1.9-1.5-2.8c-0.6-0.7-1.4-1.1-2.1-1.4c-0.4-0.1-0.7-0.2-1-0.2c-0.4,0-0.6,0.2-0.7,0.3l-0.1,0.1
			v0c-0.1,0.2-0.1,0.9-0.2,3c0,2,0,4-0.1,5.8c0,0.6,0,1.5,0,2.6c0,1.4,0,2.3,0,2.9c0,1.2,0.1,1.9,0.1,2.2c0.1,0.5,0.2,0.8,0.6,0.9
			c0.1,0,0.3,0.1,0.4,0.1c0.3,0,0.6-0.2,0.8-0.5c0.1-0.1,0.1-0.2,0.1-1.1c0-0.9,0-1.7,0-2.4c0-0.9,0-1.8,0-2.7c0,0,0,0,0,0
			c0.7,0.5,1.3,1.2,1.8,2.1c0.2,0.5,0.5,1.2,0.8,2c0.7,1.9,0.8,2,0.9,2c0.3,0.3,0.8,0.3,1.2,0c0.2-0.2,0.3-0.4,0.3-0.7
			c0-0.2-0.1-0.6-0.5-1.8C503.4,267.5,503,266.6,502.7,266z M500.5,262.3c-0.1,0-0.4,0.1-0.8,0.3c-0.1,0-0.1,0-0.2,0.1v-0.3
			c0-2.5,0-4.6,0.1-6c0-0.2,0-0.3,0-0.4c1.4,0.8,2.1,2.1,2.1,4.1c0,0.6,0,0.8,0,0.8c0,0-0.1,0.2-0.4,0.6
			C500.8,262.1,500.6,262.3,500.5,262.3z"/>
		<path d="M518,270.2c0-0.2-0.1-1-0.3-2.2c-0.4-2.6-0.8-5.4-1.3-8.4c-0.6-3.9-0.6-4-0.7-4.1c-0.3-0.6-1.1-0.8-1.6-0.3
			c-0.2,0.1-0.5,0.5-1.5,2.1c-0.5,0.7-0.8,1.2-1,1.4c-0.2-0.2-0.4-0.6-0.8-1.2c-1.2-1.8-1.3-1.9-1.3-1.9c-0.4-0.5-0.8-0.6-1.1-0.6
			c-0.3,0-0.6,0.1-0.7,0.4c-0.1,0.1-0.2,0.4-0.2,1c-0.1,0.9-0.2,1.8-0.3,2.8c-0.8,7-1.1,10.8-1.1,11.5c0,0.5,0.3,0.7,0.4,0.8
			c0.3,0.2,0.6,0.2,0.9-0.1c0.3-0.2,0.4-0.5,0.5-1.7c0.1-0.9,0.4-3.8,0.8-8.7c0.1-1.4,0.2-2.3,0.3-2.9c0.1,0.1,0.1,0.2,0.2,0.2
			c0.5,0.8,0.9,1.4,1.2,1.8c0.5,0.9,0.8,1.2,1.2,1.2c0.4,0,0.6-0.3,0.7-0.4c0.1-0.2,0.4-0.5,0.8-1.1c0.4-0.6,0.8-1.2,1.2-1.8
			c0.3,1.4,0.6,4.1,1.2,7.9c0.7,5.4,1,5.7,1.1,5.9c0.2,0.2,0.4,0.3,0.6,0.3c0.1,0,0.2,0,0.3-0.1c0.3-0.1,0.5-0.4,0.5-0.8
			C518.1,271.1,518.1,270.9,518,270.2z"/>
	</g>
	<g>
		<path d="M756,269.7c-0.6-0.1-1.1-0.2-1.4-0.3c-0.3-0.1-0.6-0.4-0.8-0.7c-0.8-1.1-1.2-3-1.2-5.5c0-1.6,0.1-2.9,0.3-3.9
			c0.2-0.9,0.6-1.8,1.2-2.5c0.3-0.4,0.7-0.7,1-0.8c0.8-0.2,1-0.6,1-0.9c0-0.2-0.1-0.4-0.3-0.6c-0.2-0.2-0.4-0.3-0.6-0.3l-0.2,0
			c-0.2,0-0.3,0-0.4,0c-0.8,0.1-1.5,0.8-2.2,1.9c-0.8,1.2-1.3,2.8-1.5,4.7c-0.1,0.5-0.1,1.2-0.1,2.2c0,1.3,0,2.1,0.1,2.4
			c0.3,2.1,0.9,3.5,1.6,4.5c0.8,1,2,1.5,3.4,1.6h0.1c0.8,0,1.1-0.5,1.1-0.9C757.1,270.4,757,269.8,756,269.7z"/>
		<path d="M766.7,256c-0.3,0-0.6,0.2-0.7,0.5c-0.1,0.2-0.1,0.5,0,0.7c0,0,0,0.2,0,1c0,0.6,0,2.3-0.1,5.1c0,2-0.1,3.2-0.1,3.6
			c0,0.4-0.1,0.7-0.3,1.1c-0.5,1-1.1,1.5-1.8,1.5c-0.4,0-0.7-0.1-1-0.4c-0.5-0.5-0.9-1.1-1.1-1.9c-0.3-0.9-0.5-2.5-0.6-4.7
			c-0.2-3.2-0.3-5-0.3-5.5c-0.1-0.8-0.2-1.1-0.5-1.3c-0.2-0.1-0.5-0.2-1,0.2l0,0c-0.2,0.2-0.3,0.5-0.3,1c0,0.6,0,1.6,0.1,3
			c0,0.3,0,0.8,0.1,1.4c0,0.6,0.1,1.1,0.1,1.5c0,0.4,0,0.7,0,0.9c0.1,2.5,0.5,4.2,1.1,5.4c0.6,1.1,1.3,1.7,2.1,2.1
			c0.3,0.1,0.7,0.2,1.3,0.2c0.5,0,1-0.1,1.3-0.3c0.5-0.3,1.1-0.7,1.5-1.3c0.5-0.6,0.8-1.2,0.9-1.8c0.1-0.5,0.3-1.8,0.3-7.3
			c0-3.5-0.1-3.8-0.1-3.9C767.5,256,766.9,255.9,766.7,256z"/>
		<path d="M777.2,255.2c-0.2-0.2-0.5-0.3-1-0.3c-0.5,0-1.1,0-1.6,0c-3.8,0.1-4.1,0.2-4.3,0.2c-0.4,0.1-0.6,0.4-0.6,0.8
			c0,0.3,0.2,0.6,0.5,0.7c0.2,0.1,0.4,0.2,1.7,0.2h0.8l0,4.6c0,2.3,0,4.6,0,6.9c0,2.6,0.1,2.7,0.2,2.8c0.2,0.2,0.4,0.4,0.7,0.4
			c0.1,0,0.5,0,0.7-0.2c0.2-0.2,0.2-0.2,0.3-7.7c0-4.2,0-6.1,0-6.8l0.2,0c0.4,0,0.8,0,1.3-0.1c0.7,0,0.8-0.1,0.9-0.1
			c0.4-0.2,0.5-0.4,0.6-0.6C777.5,255.8,777.4,255.5,777.2,255.2z"/>
	</g>
</g>
</svg>
