<?xml version="1.0" encoding="utf-8"?>
<!-- Generator: Adobe Illustrator 21.1.0, SVG Export Plug-In . SVG Version: 6.00 Build 0)  -->
<svg version="1.1" id="Layer_1" xmlns="http://www.w3.org/2000/svg" xmlns:xlink="http://www.w3.org/1999/xlink" x="0px" y="0px"
	 viewBox="0 0 136.8 37" style="enable-background:new 0 0 136.8 37;" xml:space="preserve">
<style type="text/css">
	.st0{fill:#FFE084;}
</style>
<title>highlight stroke create</title>
<g id="Calque_1">
	<path class="st0" d="M10.1,2.3c-4.3,0-7.5,4.2-9,7.2S0,15.8,0.5,19c0.7,4.9,2,10.5,8.3,13.5c3.9,1.9,8.9,2.4,13.7,2.7
		c32.3,2.5,64.7,2.3,96.9-0.5c3.7-0.3,7.4-0.7,10.4-2.1c5.1-2.3,6.3-6.7,7.1-10.6c0.9-4.4,1.7-9.1-1.7-13c-3.1-3.6-9.2-5.7-15.4-6.9
		C95.6-2.7,70.2,4.2,45,4.7C33.4,5,28.1,3.2,10.1,2.3"/>
</g>
</svg>
