<?xml version="1.0" encoding="utf-8"?>
<!-- Generator: Adobe Illustrator 21.1.0, SVG Export Plug-In . SVG Version: 6.00 Build 0)  -->
<svg version="1.1" id="Layer_1" xmlns="http://www.w3.org/2000/svg" xmlns:xlink="http://www.w3.org/1999/xlink" x="0px" y="0px"
	 viewBox="0 0 173.7 36.5" style="enable-background:new 0 0 173.7 36.5;" xml:space="preserve">
<style type="text/css">
	.st0{fill:#F7B77B;}
</style>
<title>highlight stroke business</title>
<path class="st0" d="M25.3,35c-10.6,0-14-0.9-16.2-1.8c-5.4-2.2-8.3-9.4-6.6-16c1.7-6.6,7.4-10.3,12.7-8.2c1,0.3,6.9,1.4,34.5-0.2
	c17.1-1,36.5-2.6,49.3-3.7c3.8-0.3,7.1-0.6,9.7-0.8c5.6-0.4,10.5,4.9,10.9,11.9c0.4,7-3.9,13.1-9.5,13.5c-2.5,0.2-5.8,0.5-9.6,0.8
	c-13.2,1.1-33.2,2.8-50.9,3.7C38.7,34.8,31,35,25.3,35z M15.3,8.9C15.3,8.9,15.3,8.9,15.3,8.9C15.3,8.9,15.3,8.9,15.3,8.9z"/>
</svg>
