<?xml version="1.0" encoding="utf-8"?>
<!-- Generator: Adobe Illustrator 21.1.0, SVG Export Plug-In . SVG Version: 6.00 Build 0)  -->
<svg version="1.1" id="Layer_1" xmlns="http://www.w3.org/2000/svg" xmlns:xlink="http://www.w3.org/1999/xlink" x="0px" y="0px"
	 viewBox="0 0 201.4 46.2" style="enable-background:new 0 0 201.4 46.2;" xml:space="preserve">
<style type="text/css">
	.st0{fill:#F2A5C1;}
</style>
<title>highlight stroke download</title>
<g id="Calque_1">
	<path class="st0" d="M0.5,11c-1,17-1.1,19.7,6.1,25.2s16.6,7,25.6,7.9c45.9,4.9,92.2,0.2,138.1-4.5c7-0.7,14.3-1.5,20.5-4.9
		s11.2-10,10.5-17c-0.2-2.1-1-4.1-2.2-5.7c-2.1-2.6-5.6-3.7-8.8-4.6c-30-8.4-61.5-9.7-92-3.8C87.5,5.8,76.7,8.8,65.6,8.9
		c-18.3,0-36.2-8.2-54.3-5.7C6.4,3.9,0.6,6.5,0.5,11.4"/>
</g>
</svg>
