<?xml version="1.0" encoding="utf-8"?>
<!-- Generator: Adobe Illustrator 21.1.0, SVG Export Plug-In . SVG Version: 6.00 Build 0)  -->
<svg version="1.1" id="Layer_1" xmlns="http://www.w3.org/2000/svg" xmlns:xlink="http://www.w3.org/1999/xlink" x="0px" y="0px"
	 viewBox="0 0 154.7 45" style="enable-background:new 0 0 154.7 45;" xml:space="preserve">
<style type="text/css">
	.st0{fill:#B79ECB;}
</style>
<title>highlight stroke collect</title>
<title>highlight stroke business</title>
<path class="st0" d="M20.1,36.6c-9.3-0.2-12.2-1.2-14.2-2.2c-4.7-2.3-7-9.5-5.3-16.2c1.7-6.6,6.8-10.1,11.4-8
	c0.9,0.3,6,1.5,30.2,0.5c15-0.6,32-1.9,43.3-2.7c3.4-0.2,6.3-0.5,8.5-0.6c5-0.3,9.1,5.1,9.2,12.1c0.1,7-3.8,13-8.7,13.3
	c-2.2,0.1-5.1,0.4-8.5,0.6c-11.6,0.8-29.2,2.1-44.7,2.8C31.8,36.7,25,36.7,20.1,36.6z M12,10.4C12,10.4,12,10.4,12,10.4
	C12,10.4,12,10.4,12,10.4z"/>
</svg>
