<?xml version="1.0" encoding="utf-8"?>
<!-- Generator: Adobe Illustrator 21.1.0, SVG Export Plug-In . SVG Version: 6.00 Build 0)  -->
<svg version="1.1" id="Layer_1" xmlns="http://www.w3.org/2000/svg" xmlns:xlink="http://www.w3.org/1999/xlink" x="0px" y="0px"
	 viewBox="0 0 243.5 49" style="enable-background:new 0 0 243.5 49;" xml:space="preserve">
<style type="text/css">
	.st0{fill:#798BC5;}
</style>
<title>highlight stroke experiments</title>
<g id="Calque_1">
	<path class="st0" d="M0,28.8C0.4,16.8,0,16.5,2.1,9.9c2.2-6.8,10.5-7.2,16.7-8.2c6.9-1.1,13.9-2.2,20.9-1.5
		C45.9,0.8,51.9,2.8,58,4.4c39.7,10.3,82,2.3,121.2,15.2c1.2,0.3,2.4,0.9,3.5,1.8c1.9,1.8,2.4,4.9,2.6,7.6c0.4,5.1,0,11.1-3.7,13.8
		c-1.6,1.2-3.6,1.4-5.5,1.6c-19.9,2.3-39.8,3.2-59.8,2.8c-7.4-0.1-14.8-0.5-22.1-0.1c-6.2,0.3-12.5,1-18.7,1.4
		c-21.5,1.5-43.1-0.7-64.5-2.8C5.9,45.2,0,41.1,0,28.8"/>
</g>
</svg>
