<svg xmlns="http://www.w3.org/2000/svg" viewBox="0 0 154.69 44.96"><title>highlight stroke collect</title><g id="Calque_1" data-name="Calque 1"><path d="M0,22C.71,34.59,3.36,36,8.12,38.86s10.11,2.32,15.24,1.92a185.86,185.86,0,0,1,42.21,1.54C79.44,44.42,94,48,106.9,40.13c4.65-2.82,8.91-7,13.71-9.24,9.7-4.44,20.27-.1,30.29-2,2.48-.47,4.22-4,3.7-7.67a16.7,16.7,0,0,0-4.36-9.31c-3.53-3.41-7.91-4-12.1-4.51L105.53,3.46C71.62-.6,36.48-4.44,4.47,12.79,1.58,14.35,0,14,0,22" style="fill:#b79ecb"/></g></svg>