<?xml version="1.0" encoding="utf-8"?>
<!-- Generator: Adobe Illustrator 21.1.0, SVG Export Plug-In . SVG Version: 6.00 Build 0)  -->
<svg version="1.1" id="Layer_1" xmlns="http://www.w3.org/2000/svg" xmlns:xlink="http://www.w3.org/1999/xlink" x="0px" y="0px"
	 viewBox="0 0 173.7 36.5" style="enable-background:new 0 0 173.7 36.5;" xml:space="preserve">
<style type="text/css">
	.st0{fill:#F7B77B;}
</style>
<title>highlight stroke business</title>
<g id="Calque_1">
	<path class="st0" d="M10.7,4.2C2.9,4.7,2.4,3.5,0.4,6.9c-0.7,1.1-0.4,2.4,0,3.5C2.7,19,7.3,28.2,19.1,32.8
		c4.9,1.9,10.7,2.8,16.4,3.3c22.5,2,45.4-1.1,68,0.4c5.6,0.4,11.4,1,16.8,0c7-1.4,11.8-5.5,13.9-9.8c2.1-4.3,1.8-9,1.6-13.5
		c-0.2-3.2-0.8-6.8-5.1-8.6c-2.5-1-5.6-1.2-8.5-1.2C86.6,2.4,46.2,2.5,10.7,4.2"/>
</g>
</svg>
