<?xml version="1.0" encoding="utf-8"?>
<!-- Generator: Adobe Illustrator 24.0.1, SVG Export Plug-In . SVG Version: 6.00 Build 0)  -->
<svg version="1.1" xmlns="http://www.w3.org/2000/svg" xmlns:xlink="http://www.w3.org/1999/xlink" x="0px" y="0px"
	 viewBox="0 0 1000 435.2" style="enable-background:new 0 0 1000 435.2;" xml:space="preserve">
<style type="text/css">
	.st0{fill:#FFE87B;}
	.st1{fill:#1E1E1C;}
	.st2{fill:#1E1E1C;stroke:#1E1E1C;stroke-width:0.25;stroke-miterlimit:10;}
	.st3{fill:#1E1E1C;stroke:#1E1E1C;stroke-width:0.15;stroke-miterlimit:10;}
	.st4{fill:#FFFFFF;}
	.st5{stroke:#1E1E1C;stroke-miterlimit:10;}
	.st6{fill:none;stroke:#1E1E1C;stroke-width:3;stroke-linecap:round;stroke-linejoin:round;stroke-miterlimit:10;}
	.st7{stroke:#000000;stroke-width:1.5;stroke-miterlimit:10;}
	.st8{fill:#010202;}
	.st9{stroke:#000000;stroke-miterlimit:10;}
</style>
<g id="Calque_2">
</g>
<g id="Calque_1">
	<path d="M177.9,92.7c4.9,18.1,9.6,36.4,14,54.7c4.4,18.3,8.6,36.8,12.4,55.2c2.2,10.3,4.2,20.7,6.2,31.1c0.5,2.4,4.1,1.4,3.6-1
		c-3.5-18.4-7.4-36.8-11.4-55.1c-4.1-18.4-8.5-36.8-13.1-55.1c-2.6-10.3-5.3-20.5-8.1-30.7C180.9,89.4,177.3,90.4,177.9,92.7
		L177.9,92.7z"/>
	<path d="M204.1,234.9c2.9,1.1,6.1,1.3,9.2,0.8c1-0.2,1.6-1.4,1.3-2.3c-0.3-1-1.3-1.5-2.3-1.3c-0.1,0-0.7,0.2-0.2,0
		c-0.1,0-0.3,0-0.4,0c-0.3,0-0.7,0.1-1,0.1c-0.6,0-1.3,0-1.9-0.1c-0.1,0-0.3,0-0.4-0.1c0.5,0.1-0.1,0-0.2,0c-0.3-0.1-0.6-0.1-1-0.2
		c-0.7-0.2-1.3-0.4-2-0.6c-0.9-0.4-2.1,0.4-2.3,1.3C202.5,233.6,203.1,234.5,204.1,234.9L204.1,234.9z"/>
	<path d="M190.3,239.2c0.1,2.7,0.1,5.3,0.2,8c0.1,2.3-0.5,5.7,2.4,6.5c1.1,0.3,2.4,0.2,3.5,0.3c1.4,0.1,2.7,0.2,4.1,0.3
		c2.5,0.2,5,0.4,7.5,0.5c2.1,0,4.4-0.3,6.1-1.6c1.7-1.4,2.3-3.5,2.2-5.6c0-2.3-0.3-4.9-0.9-7.2c-0.6-2.4-2.6-3.3-4.9-3.4
		c-6-0.3-12.1-0.2-18.1-0.4c-2.4,0-2.4,3.7,0,3.8c4.7,0.1,9.4,0.2,14.1,0.3c1.2,0,2.4,0,3.5,0.1c0.4,0,1.4-0.1,1.6,0.2
		c0.4,0.5,0.3,1.8,0.4,2.4c0.1,1.1,0.3,2.2,0.4,3.2c0.1,1.4,0.2,3.1-1.2,3.9c-1.3,0.7-3.1,0.5-4.5,0.5c-2.3-0.1-4.5-0.3-6.8-0.5
		c-1.1-0.1-2.3-0.2-3.4-0.2c-0.6,0-1.1-0.1-1.7-0.1c-0.3,0-0.6,0-0.9-0.1c-0.2,0-0.2,0-0.1,0c0.2,0.3,0.3,0.6,0.5,0.8
		c-0.3-0.8-0.1-1.8-0.2-2.6c0-1-0.1-2-0.1-3c-0.1-2-0.1-4-0.2-6C194,236.8,190.2,236.8,190.3,239.2L190.3,239.2z"/>
	<path d="M234.2,273.3c-3,9.8-12.2,16.4-14.9,26.4c-0.6,2.3,3,3.3,3.6,1c2.7-9.9,11.9-16.5,14.9-26.4
		C238.5,272,234.9,271,234.2,273.3L234.2,273.3z"/>
	<path d="M259.6,273.4c-3.9,8.5-8.4,16.8-13.4,24.8c-1.3,2.1,2,3.9,3.2,1.9c5-8,9.4-16.3,13.4-24.8c0.4-0.9,0.3-2-0.7-2.6
		C261.4,272.2,260.1,272.5,259.6,273.4L259.6,273.4z"/>
	<path d="M285.6,273.5c-3.7,7.7-7.9,15.2-12.6,22.5c-1.3,2,1.9,3.9,3.2,1.9c4.6-7.2,8.8-14.7,12.6-22.5
		C289.9,273.2,286.6,271.3,285.6,273.5L285.6,273.5z"/>
	<path d="M450.9,272.1c-6.1,7.1-12.1,14.4-17.8,21.9c-0.6,0.8-0.1,2.1,0.7,2.6c1,0.6,1.9,0.1,2.6-0.7c5.5-7.2,11.3-14.3,17.2-21.2
		C455.2,272.9,452.5,270.2,450.9,272.1L450.9,272.1z"/>
	<path d="M489.2,272.2c-6.8,7-13.1,14.5-18.8,22.3c-0.6,0.8-0.1,2.1,0.7,2.6c1,0.6,2,0.1,2.6-0.7c5.6-7.6,11.7-14.8,18.2-21.6
		C493.6,273.1,490.9,270.5,489.2,272.2L489.2,272.2z"/>
	<path d="M550.8,272c-6.4,7.7-12.8,15.3-19.4,22.8c-1.6,1.8,1.1,4.5,2.7,2.7c6.6-7.5,13-15.1,19.4-22.8c0.6-0.8,0.8-1.9,0-2.7
		C552.8,271.4,551.5,271.2,550.8,272L550.8,272z"/>
	<path d="M571,274.8c-4.6,6.1-9.3,12.1-14.1,18c-0.6,0.8-0.8,1.9,0,2.7c0.7,0.7,2,0.8,2.7,0c5.1-6.1,10-12.4,14.7-18.8
		c0.6-0.8,0.1-2.1-0.7-2.6C572.6,273.5,571.6,273.9,571,274.8L571,274.8z"/>
	<path d="M586.3,275.8c-5.2,6-10.3,11.9-15.5,17.9c-0.7,0.8-0.8,1.9,0,2.7c0.7,0.7,2,0.8,2.7,0c5.2-6,10.3-11.9,15.5-17.9
		c0.7-0.8,0.8-1.9,0-2.7C588.2,275.2,586.9,275.1,586.3,275.8L586.3,275.8z"/>
	<path d="M210.8,274.8c-4,6.8-8.2,13.6-12.5,20.2c-1.3,2,1.9,3.9,3.2,1.9c4.3-6.6,8.5-13.4,12.5-20.2
		C215.2,274.6,212,272.7,210.8,274.8L210.8,274.8z"/>
	<path d="M187.6,275.8c-2.9,5.2-5.9,10.4-8.8,15.6c-1.2,2.1,2.1,4,3.2,1.9c2.9-5.2,5.9-10.4,8.8-15.6
		C192.1,275.5,188.8,273.6,187.6,275.8L187.6,275.8z"/>
	<g>
		<g>
			<path d="M628.7,279c2.4,0,2.4-3.8,0-3.8C626.2,275.3,626.2,279,628.7,279L628.7,279z"/>
		</g>
	</g>
	<path d="M260.3,122.9c-2.1,3-3.7,6.4-4.8,9.9c-0.6,1.8-1,3.9,0.1,5.6c0.8,1.4,2.3,2.2,3.7,2.7c1.3,0.5,3,0.9,4.4,0.8
		c2.4-0.1,3.2-2.1,4.1-3.9c0.9-1.7,1.8-3.5,2.7-5.2c0.5-0.9,0.9-1.7,1.4-2.6c0.5-0.9,1.1-1.9,1.3-2.9c0.6-2.4-1.2-4-3.2-4.8
		c-2-0.8-4-1.5-6.1-2c-2.3-0.7-3.3,3-1,3.6c1.5,0.4,2.9,0.9,4.3,1.4c0.6,0.2,1.1,0.4,1.7,0.6c0.2,0.1,0.4,0.2,0.6,0.3
		c0.1,0,0.3,0.2,0.2,0.2c-0.1,0,0-0.3-0.1-0.2c-0.5,1.3-1.3,2.6-2,3.9c-0.7,1.4-1.5,2.8-2.2,4.3c-0.3,0.7-0.7,1.3-1,2
		c-0.2,0.4-0.4,0.7-0.6,1.1c0,0.1-0.4,0.8-0.2,0.6c0.1-0.1,0.2,0,0,0c-0.1,0-0.3,0-0.4,0c-0.2,0-0.3,0-0.5-0.1
		c-0.6-0.1-1.2-0.2-1.8-0.4c-0.4-0.1-0.8-0.2-1.2-0.5c-0.2-0.1-0.4-0.2-0.6-0.4c0.1,0.1-0.3-0.4-0.2-0.2c-0.6-0.8,0.1-2.4,0.4-3.4
		c1-3,2.5-5.8,4.2-8.4c0.6-0.8,0.2-2.1-0.7-2.6C261.9,121.6,260.8,122,260.3,122.9L260.3,122.9z"/>
	<path d="M272.7,146.5c-0.5,2.3-1.1,4.6-1.6,6.9c-0.3,1.1-0.5,2.2-0.8,3.3c-0.2,1.1-0.5,2.2-0.2,3.2c0.6,2.5,3.3,2.8,5.5,3.1
		c2.4,0.4,4.8,0.6,7.2,0.7c1.1,0,1.8-0.9,1.9-1.9c0.3-4.3,0.7-8.6,1-12.9c0.1-1-0.1-2.1-0.9-2.8c-0.8-0.8-1.9-1.1-2.9-1.1
		c-2.1,0-4.2,0.1-6.2,0.1c-2.4,0-2.4,3.8,0,3.8c1.8,0,3.5-0.1,5.3-0.1c0.4,0,0.9,0.1,1.3,0c0.3-0.1,0,0.1,0,0c0,0-0.2-0.3-0.3-0.3
		c0,0,0-0.1,0-0.1c0,0.1,0,0.2,0,0.3c0,0.2,0,0.3,0,0.5c0,0.5-0.1,1-0.1,1.5c-0.3,3.7-0.6,7.5-0.8,11.2c0.6-0.6,1.3-1.3,1.9-1.9
		c-1.9-0.1-3.8-0.2-5.7-0.5c-0.9-0.1-1.9-0.3-2.8-0.5c0,0-0.7-0.2-0.7-0.2c0,0,0.1,0,0.1,0c0,0,0.1,0.2,0.1,0.2c0,0,0-0.5,0-0.5
		c0.1-0.5,0.4-1.6,0.5-2.3c0.2-1,0.4-1.9,0.7-2.9c0.5-2,0.9-3.9,1.4-5.9c0.2-1-0.3-2-1.3-2.3C274.1,145,272.9,145.5,272.7,146.5
		L272.7,146.5z"/>
	<path d="M232.8,146.1c1,4.7,3,9.1,5.6,13.1c0.6,0.9,1.6,1.2,2.6,0.7c3.3-1.7,6.8-3,10.4-3.7c1.2-0.3,1.6-1.7,1.1-2.8
		c-1.1-2.1-2.1-4.2-3.2-6.2c-1-1.9-1.8-4.1-3.2-5.7c-1.5-1.8-3.9-1.9-6-1.1c-2.2,0.9-4.3,1.9-6.4,2.8c-0.9,0.4-1.1,1.8-0.7,2.6
		c0.6,1,1.6,1.1,2.6,0.7c1.8-0.8,3.6-1.6,5.4-2.4c0.5-0.2,1.3-0.6,1.8-0.4c0.4,0.1,0.6,0.6,0.9,1.1c1.9,3.5,3.6,7.1,5.5,10.6
		c0.4-0.9,0.7-1.8,1.1-2.8c-3.9,0.8-7.7,2.2-11.3,4.1c0.9,0.2,1.7,0.4,2.6,0.7c-2.5-3.7-4.3-7.8-5.3-12.2c-0.2-1-1.4-1.6-2.3-1.3
		C233,144.1,232.5,145.1,232.8,146.1L232.8,146.1z"/>
	<path d="M222.6,172.6c1.1-0.4,2.3-0.8,3.4-1.2c0.6-0.2,1.1-0.4,1.7-0.6c0.2-0.1,0.4-0.2,0.7-0.2c0.1,0,0.2-0.1,0.3-0.1
		c-0.4-0.1-0.4,0-0.1,0.1c-0.3-0.2-0.6-0.3-0.8-0.5c-0.1-0.1-0.1-0.2,0,0.1c0.1,0.3,0.2,0.7,0.3,1c0.1,0.6,0.3,1.2,0.4,1.8
		c0.3,1.2,0.6,2.4,0.8,3.7c0.5,2.5,1,4.9,1.5,7.4c0.6-0.8,1.2-1.6,1.8-2.4c-1.9,0.1-3.9,0.2-5.8,0.3c-0.9,0-1.9,0.1-2.8,0.1
		c-0.5,0-1,0.1-1.5,0.1c-0.2,0-0.5,0-0.7,0c-0.1,0-0.1,0-0.2,0c-0.1,0-0.1,0,0,0c0,0,0.5,0.4,0.5,0.4c0,0-0.1-0.6-0.1-0.6
		c-0.1-0.4-0.1-0.8-0.2-1.2c-0.1-0.9-0.2-1.8-0.2-2.8c0-1.9,0.1-3.8,0.5-5.6c0.2-1-0.3-2-1.3-2.3c-0.9-0.3-2.1,0.3-2.3,1.3
		c-0.5,2.3-0.7,4.6-0.7,6.9c0,1.2,0.2,2.4,0.3,3.6c0.2,1.1,0.3,2.3,1.1,3.2c0.8,0.9,1.9,1,3,0.9c1.2-0.1,2.4-0.1,3.6-0.2
		c2.3-0.1,4.6-0.2,6.8-0.3c1.3-0.1,2-1.1,1.8-2.4c-0.8-4.2-1.6-8.3-2.6-12.4c-0.2-0.9-0.4-1.9-0.9-2.7c-0.7-1.1-2-1.3-3.3-1
		c-2,0.5-4,1.4-6,2.1c-1,0.3-1.6,1.3-1.3,2.3C220.5,172.2,221.6,172.9,222.6,172.6L222.6,172.6z"/>
	<path d="M233.2,151.4c-2.2,1.2-4.6,1.8-7.1,1.9c0.6,0.6,1.3,1.3,1.9,1.9c0.4-3.1-1.1-5.9-2.4-8.5c-0.9-1.9-2.1-4.5-0.9-6.5
		c0.6-1,1.6-1.4,2.6-1.8c1.3-0.5,2.6-1,3.9-1.5c1-0.4,1.9-0.3,2.6,0.7c0.8,1.2,0.5,2.9,0.4,4.2c-0.1,1,0.9,1.9,1.9,1.9
		c1.1,0,1.8-0.9,1.9-1.9c0.2-2,0.2-4.1-0.8-5.9c-0.8-1.4-2.2-2.6-3.8-2.9c-2-0.4-3.7,0.5-5.5,1.2c-1.6,0.6-3.3,1.1-4.6,2.1
		c-2.8,2.2-3.2,5.8-2.2,9c1,3.3,3.7,6.3,3.2,9.9c-0.1,1,1,1.9,1.9,1.9c3.2-0.1,6.2-0.9,9-2.4C237.2,153.5,235.3,150.3,233.2,151.4
		L233.2,151.4z"/>
	<path d="M281.5,167.5c-1.1,1.4-2.2,2.8-3.3,4.2c-0.6,0.7-1.1,1.4-1.7,2.1c-0.6,0.8-1.3,1.5-1.5,2.5c-0.5,2.1,1.4,3.2,2.9,4.2
		c1.5,0.9,3,1.8,4.5,2.6c1.5,0.8,3.4,1.9,5.1,1c1.4-0.8,2.2-2.6,3-4c0.9-1.5,1.7-3,2.5-4.5c0.7-1.4,1.9-3,1.9-4.6
		c0-1.1-0.5-2.1-1.5-2.7c-0.8-0.5-1.8-0.5-2.7-0.6c-2.1-0.3-4.2-0.6-6.3-0.9c-1-0.1-2,0.2-2.3,1.3c-0.2,0.9,0.3,2.2,1.3,2.3
		c1.4,0.2,2.7,0.4,4.1,0.6c0.7,0.1,1.4,0.2,2,0.3c0.4,0.1,0.7,0.1,1.1,0.2c0.1,0,0.7,0.2,0.8,0.1c0,0-0.3-0.6-0.4-0.6
		c0,0-0.1,0.3-0.1,0.4c-0.3,0.6-0.6,1.2-0.9,1.7c-0.6,1.2-1.3,2.4-2,3.6c-0.7,1.1-1.3,2.3-2,3.4c-0.1,0.1-0.4,0.7-0.4,0.7
		c0,0,0.3-0.1,0.3-0.1c0,0.1-1.3-0.6-1.4-0.6c-1.1-0.6-2.3-1.2-3.4-1.9c-0.6-0.3-1.1-0.7-1.6-1c-0.3-0.2-0.5-0.3-0.7-0.5
		c0,0-0.4-0.3-0.4-0.3c0.1,0,0.1,0.8,0.2,0.8c0.1,0,1.1-1.4,1.2-1.5c0.5-0.6,0.9-1.2,1.4-1.7c1-1.3,2-2.6,3-3.9
		c0.6-0.8,0.8-1.9,0-2.7C283.5,166.8,282.1,166.7,281.5,167.5L281.5,167.5z"/>
	<path d="M291.6,166.8c-0.2-2,0.8-3.7,2.7-4.8c2-1.2,4.5-1.2,6.6-0.5c0.5,0.2,1,0.3,1.5,0.6c0.4,0.2,0.5,0.5,0.6,0.9
		c0.2,0.8-0.2,1.9-0.8,2.8c-0.7,1.2-1.4,2.3-1.9,3.6c-0.5,1.1-0.9,2.3-1.6,3.3c-0.6,1-1.2,1.4-2.2,1.7c-0.1,0-0.3,0.1-0.4,0.1
		c-0.6,0.1,0.1,0-0.2,0c-0.1,0-0.3,0-0.4,0c-0.1,0-0.5-0.1-0.2,0c-0.1,0-0.7-0.2-0.4-0.1c-0.1-0.1-0.2-0.1-0.3-0.2
		c0.2,0.2-0.1-0.2-0.2-0.2c-0.7-0.8-2-0.7-2.7,0c-0.8,0.8-0.7,1.9,0,2.7c2.2,2.5,6.1,1.8,8.4-0.1c1.3-1.1,2.1-2.6,2.7-4.1
		c0.7-1.5,1.4-2.9,2.2-4.4c0.9-1.5,1.7-3.2,1.5-5c-0.2-1.9-1.2-3.5-2.9-4.4c-3.2-1.6-7.1-1.8-10.4-0.4c-3.3,1.4-5.9,4.9-5.6,8.6
		c0.1,1,0.8,1.9,1.9,1.9C290.6,168.7,291.7,167.8,291.6,166.8L291.6,166.8z"/>
	<path d="M279.6,180.7c-1.6,1.4-3.2,2.9-4.6,4.5c-1.4,1.6-3.7,3.8-2.1,5.9c0.6,0.9,1.6,1.3,2.5,1.8c1,0.6,2,1.2,3.1,1.8
		c2.1,1.2,4.2,2.4,6.3,3.6c0.7,0.4,1.7,0.3,2.3-0.3c2.9-3.1,5.7-6.1,8.6-9.2c0.7-0.7,1.3-1.3,1.5-2.3c0.2-1.2-0.4-2.1-1.3-2.8
		c-1.7-1.2-3.4-2.3-5.1-3.5c-2-1.4-3.9,1.9-1.9,3.2c0.9,0.6,1.7,1.2,2.6,1.8c0.4,0.3,0.8,0.6,1.2,0.8c0.2,0.2,0.5,0.3,0.7,0.5
		c0.4,0.3,0.5,0.3,0.2,0c0-0.3,0-0.7,0-1c-0.1,0.3-0.6,0.7-0.8,0.9c-0.4,0.4-0.8,0.8-1.1,1.2c-0.8,0.9-1.6,1.7-2.4,2.6
		c-1.6,1.7-3.2,3.4-4.7,5c0.8-0.1,1.5-0.2,2.3-0.3c-1.9-1.1-3.9-2.2-5.8-3.3c-1-0.6-1.9-1.1-2.9-1.7c-0.5-0.3-1-0.5-1.4-0.8
		c-0.2-0.1-0.4-0.2-0.6-0.4c-0.1-0.1-0.1-0.1,0,0c0,0.3,0,0.7,0,1c0.1-0.6,0.8-1.2,1.2-1.6c0.5-0.6,1.1-1.2,1.6-1.8
		c1.1-1.1,2.3-2.2,3.5-3.3C284.1,181.8,281.4,179.2,279.6,180.7L279.6,180.7z"/>
	<path d="M243.1,177.2c0,3.8,0.2,7.5,0.7,11.3c0.2,1.8,0.6,3.6,2.3,4.5c1.6,0.9,3.7,0.6,5.5,0.5c0.9,0,1.9,0,2.8-0.1
		c0.8,0,1.8,0,2.6-0.2c1-0.3,1.7-1.1,1.9-2.1c0.2-0.9-0.1-2-0.2-3c-0.2-1.9-0.4-3.7-0.6-5.6c-0.1-0.9-0.2-1.8-0.3-2.6
		c-0.1-1-0.1-2.1-0.4-3.1c-0.6-2-2.4-2.9-4.3-3c-1.7-0.2-3.6,0.7-5.3,0.2c-1-0.3-2,0.4-2.3,1.3c-0.3,1,0.3,2,1.3,2.3
		c1.6,0.5,3.1,0.2,4.7,0c0.5-0.1,0.9-0.1,1.4-0.1c0.2,0,0.2,0,0.5,0.1c0,0,0.4,0.1,0.3,0.1c-0.1,0,0.3,0.2,0.1,0
		c0.2,0.1,0.1,0,0.1,0.2c0.1,0.2,0.1,0.5,0.1,0.7c0.1,0.8,0.2,1.7,0.3,2.5c0.2,1.5,0.3,3,0.5,4.5c0.1,0.8,0.2,1.6,0.2,2.3
		c0,0.4,0.1,0.7,0.1,1.1c0,0.4,0,0.9,0.1,1.2c0.2,0.5,0.4-0.9,0.7-0.7c-0.2-0.1-0.8,0-1,0c-0.8,0-1.7,0.1-2.5,0.1
		c-1.3,0-2.8,0.2-4.1,0c-0.5-0.1-0.5-0.1-0.6-0.4c-0.2-0.6-0.2-1-0.3-1.7c-0.4-3.5-0.5-7-0.6-10.5
		C246.9,174.8,243.1,174.8,243.1,177.2L243.1,177.2z"/>
	<path d="M243.4,182.9c-1.7,0.6-3.4,1.1-5.1,1.7c-1.5,0.5-3.4,0.8-4.4,2.1c-1.2,1.5-0.8,3.3,0,4.9c0.8,1.6,1.8,3.1,2.6,4.6
		c0.9,1.6,1.8,3.1,2.7,4.7c0.9,1.5,1.6,3.1,3.5,3.4c0.9,0.1,1.8-0.1,2.7-0.3c0.9-0.2,1.9-0.3,2.8-0.5c1.8-0.3,3.7-0.5,5.5-0.9
		c0.9-0.2,1.7-0.6,2.2-1.4c0.6-0.9,0.4-2,0-3c-0.8-2-1.5-4.1-2.3-6.1c-0.4-0.9-1.3-1.6-2.3-1.3c-0.9,0.2-1.7,1.4-1.3,2.3
		c0.4,1.2,0.9,2.4,1.3,3.6c0.2,0.5,0.4,1.1,0.6,1.6c0.2,0.5,0.6,1.2,0.5,1.7c0.1-0.3,0.2-0.6,0.3-0.9c0.2-0.4,0.2-0.1-0.1-0.1
		c-0.3,0-0.7,0.1-1,0.2c-0.8,0.1-1.5,0.2-2.3,0.4c-1.5,0.2-3,0.5-4.5,0.7c-0.4,0.1-0.8,0.1-1.1,0.2c0.1,0-0.7,0-0.5,0.1
		c-0.2-0.1-0.6-1.1-0.7-1.3c-0.8-1.3-1.5-2.6-2.3-3.9c-0.8-1.3-1.5-2.6-2.3-3.9c-0.3-0.6-0.7-1.2-1-1.8c-0.1-0.2-0.2-0.9-0.4-0.6
		c0.2-0.3,1.1-0.4,1.4-0.5c0.6-0.2,1.3-0.4,1.9-0.6c1.5-0.5,2.9-1,4.4-1.4C246.7,185.8,245.7,182.2,243.4,182.9L243.4,182.9z"/>
	<path d="M259.3,187.2c1.5-0.1,2.9-0.1,4.4,0.1c0.3,0,1.4,0.3,1.6,0.3c-0.3-0.9-0.5-1.1-0.5-0.6c0,0.1,0,0.3,0,0.4
		c0,0.4-0.1,0.8-0.1,1.2c-0.4,2.9-0.7,5.8-1.1,8.7c-0.2,1.4-0.3,2.8-0.5,4.3c-0.1,0.5-0.1,1-0.2,1.5c-0.1,0.4,0,0.3-0.3,0.3
		c-2.9-0.3-5.7-0.6-8.6-0.9c-1-0.1-1.9,0.9-1.9,1.9c0,1.1,0.9,1.8,1.9,1.9c1.9,0.2,3.8,0.4,5.7,0.6c1.6,0.2,3.5,0.7,5-0.2
		c1.3-0.7,1.8-2.2,2-3.6c0.3-1.9,0.5-3.8,0.7-5.7c0.2-1.9,0.5-3.7,0.7-5.6c0.2-1.6,0.7-3.4,0.5-5c-0.2-1.8-1.7-2.6-3.4-2.8
		c-1.9-0.3-3.9-0.3-5.8-0.2C256.9,183.6,256.9,187.3,259.3,187.2L259.3,187.2z"/>
	<path d="M236.4,195.5c-2,0.4-3.9,1-5.8,1.8c-1,0.4-2.2,0.8-2.9,1.5c-0.9,0.9-0.9,2.1-0.5,3.3c1.3,4.2,2.7,8.4,4.1,12.7
		c0.2,0.7,1,1.4,1.8,1.4c4.7-0.3,9.4-1,14-2.2c1-0.2,1.6-1.4,1.3-2.3c-0.7-2.6-1.1-5.2-1.1-7.9c0-2.4-3.7-2.4-3.8,0
		c0,3,0.4,6,1.2,8.9c0.4-0.8,0.9-1.5,1.3-2.3c-4.3,1-8.6,1.7-13,2c0.6,0.5,1.2,0.9,1.8,1.4c-1.1-3.6-2.3-7.1-3.4-10.7
		c-0.1-0.4-0.3-0.9-0.4-1.3c-0.1-0.2-0.1-0.4-0.2-0.7c-0.1-0.4,0-0.7-0.3,0c-0.2,0.6-0.1,0.4,0.2,0.2c0.2-0.1,0.4-0.2,0.6-0.3
		c0.3-0.1,0.7-0.3,1-0.4c1.6-0.6,3.3-1.1,5.1-1.5C239.8,198.6,238.8,195,236.4,195.5L236.4,195.5z"/>
	<path d="M271.2,205.5c-1.6,1.8-3.2,3.6-4.8,5.4c-0.8,0.9-1.6,1.8-2.4,2.8c-0.8,0.9-1.6,1.7-2,2.9c-0.4,1.2,0,2.5,0.9,3.3
		c0.9,0.8,2.1,1.1,3.1,1.5c2.3,0.9,4.6,1.8,6.9,2.7c0.8,0.3,1.7-0.2,2.1-0.9c2.3-3.4,4.7-6.8,6.6-10.4c0.6-1.1,0.7-2.3-0.2-3.2
		c-0.7-0.7-1.6-1-2.5-1.4c-2-0.9-3.9-1.8-5.9-2.7c-0.9-0.4-2-0.3-2.6,0.7c-0.5,0.8-0.3,2.1,0.7,2.6c1.4,0.6,2.8,1.3,4.1,1.9
		c0.7,0.3,1.4,0.6,2.1,0.9c0.5,0.2,1.2,0.4,1.5,0.7c-0.2-0.3-0.3-0.6-0.5-0.8c0.1-0.6,0.1-0.8,0-0.5c-0.1,0.1-0.1,0.2-0.2,0.3
		c-0.1,0.2-0.3,0.5-0.4,0.7c-0.3,0.5-0.5,0.9-0.8,1.4c-0.5,0.9-1.1,1.8-1.7,2.7c-1.1,1.8-2.3,3.5-3.5,5.3c0.7-0.3,1.4-0.6,2.1-0.9
		c-1.8-0.7-3.7-1.4-5.5-2.1c-0.8-0.3-1.7-0.6-2.6-1c0,0-0.4-0.2-0.4-0.2c0,0,0.2,0.5,0.2,0.5c0,0,0.3-0.4,0.4-0.5
		c2.5-3.1,5.2-5.9,7.8-8.9c0.7-0.8,0.7-1.9,0-2.7C273.2,204.8,271.9,204.7,271.2,205.5L271.2,205.5z"/>
	<path d="M277.7,209.3c1.9-3.4,3.8-6.8,5.7-10.2c0.5-0.9,0.2-2.1-0.7-2.6c-0.9-0.5-2.1-0.2-2.6,0.7c-1.9,3.4-3.8,6.8-5.7,10.2
		c-0.5,0.9-0.2,2.1,0.7,2.6C276,210.4,277.2,210.2,277.7,209.3L277.7,209.3z"/>
	<path d="M278.5,216.4c1.4,0.1,2.8,0.3,4.2,0.4c1.5,0.1,2.6-0.2,3.5-1.5c1.7-2.4,3.3-4.9,5-7.4c1.5-2.2,3.5-4.6,2.7-7.5
		c-0.6-2.5-2.8-4.2-4.7-5.7c-0.8-0.6-2.1-0.1-2.6,0.7c-0.6,1-0.1,1.9,0.7,2.6c1.1,0.8,2.8,2.1,3,3.5c0.1,0.8-0.4,1.5-0.9,2.2
		c-0.6,1-1.3,1.9-1.9,2.9c-1.3,1.9-2.6,3.9-3.9,5.8c-0.1,0.1-0.5,0.7-0.5,0.8c0,0,0.4-0.1,0.4-0.1c0-0.1-1.4-0.1-1.6-0.1
		c-1.2-0.1-2.3-0.2-3.5-0.3c-1-0.1-1.9,0.9-1.9,1.9C276.7,215.6,277.5,216.3,278.5,216.4L278.5,216.4z"/>
	<path d="M229.1,208.2c-1.7,0-3.3,0.2-4.9,0.7c-1.5,0.5-3.4,1.2-4.3,2.6c-1.3,1.8,0,3.4,1.3,4.8c1.3,1.4,2.5,2.9,3.8,4.3
		c1.2,1.4,2.4,2.8,3.6,4.2c0.6,0.7,1.2,1.4,1.8,2.1c0.6,0.7,1.2,1.5,1.9,2c1.7,1.2,3.5-0.1,5.1-0.9c1.7-0.8,3.4-1.6,5.1-2.5
		c2-1,2.6-2.7,1.9-4.8c-0.7-2-1.4-4-2-6c-0.8-2.3-4.4-1.3-3.6,1c0.4,1.2,0.8,2.5,1.2,3.7c0.3,1,1.1,2.3,1,3.4
		c0.1-0.3,0.2-0.6,0.3-0.9c-0.2,0.5-1.1,0.7-1.6,0.9c-0.7,0.3-1.4,0.7-2.1,1c-0.7,0.3-1.4,0.7-2.1,1c-0.4,0.2-0.8,0.4-1.1,0.5
		c-0.1,0.1-0.3,0.1-0.4,0.2c-0.5,0.2-0.5,0.2-0.1,0.1c0.3,0.2,0.6,0.3,0.8,0.5c-0.8-0.6-1.5-1.6-2.1-2.4c-0.7-0.9-1.5-1.7-2.2-2.6
		c-1.4-1.6-2.8-3.2-4.2-4.8c-0.7-0.9-1.5-1.7-2.2-2.6c-0.1-0.1-0.8-1-0.8-1c-0.3,0.8-0.3,1,0.2,0.6c0.2-0.1,0.4-0.2,0.6-0.3
		c1.6-0.9,3.4-1.2,5.3-1.1C231.5,212,231.5,208.3,229.1,208.2L229.1,208.2z"/>
	<path d="M243.9,221.2c1.6-0.8,3.2-1.4,5-1.8c0.2,0,2-0.4,2-0.3c0,0-0.2-0.2-0.3-0.2c0,0,0,0.2,0.1,0.3c0.1,0.5,0.2,0.9,0.4,1.4
		c1,3.9,1.9,7.8,2.9,11.7c0.6-0.8,1.2-1.6,1.8-2.4c-1.8,0-3.6,0.3-5.3,0.8c-0.9,0.3-1.7,0.6-2.5,0.9c-0.4,0.2-0.8,0.4-1.2,0.6
		c-0.1,0.1-0.2,0.2-0.4,0.2c0,0,0.3,0.1,0.2,0c-2.3-2-3.9-4.5-4.6-7.5c-0.6-2.3-4.2-1.3-3.6,1c0.9,3.6,3.1,7.3,6.1,9.6
		c0.9,0.7,2,0.9,3.1,0.5c0.9-0.3,1.6-0.8,2.5-1.2c1.8-0.7,3.8-1.1,5.8-1.1c1.2,0,2.1-1.2,1.8-2.4c-0.6-2.3-1.2-4.6-1.7-7
		c-0.3-1.1-0.6-2.3-0.9-3.4c-0.3-1.1-0.5-2.2-0.8-3.2c-0.4-1.1-1.2-1.9-2.4-2.2c-1.1-0.3-2.2,0-3.3,0.2c-2.3,0.4-4.4,1.2-6.5,2.3
		C239.9,219.1,241.8,222.4,243.9,221.2L243.9,221.2z"/>
	<path d="M228.8,274.2c1.9-2,3.2-4.5,4.8-6.7c1.6-2.2,3.5-3.7,6.2-4.4c1.4-0.4,2.9-0.6,4.4-0.8c0.3,0,0.6-0.1,1-0.1
		c0.1,0,0.8,0.1,0.9,0c0,0,0.1,0,0.1,0c-0.2-0.3-0.3-0.4-0.2-0.3c0,0,0,0.6,0,0.6c-0.2,1.7-0.5,3.3-0.8,5c-0.3,1.8-0.6,3.6-0.9,5.4
		c-0.2,1,0.3,2,1.3,2.3c0.9,0.2,2.1-0.3,2.3-1.3c0.3-2,0.7-4.1,1-6.1c0.3-1.9,0.9-3.9,0.8-5.8c-0.2-4.7-5.9-3.4-8.9-2.9
		c-3.5,0.6-6.7,2-9,4.8c-2.1,2.4-3.4,5.4-5.6,7.7C224.5,273.3,227.1,276,228.8,274.2L228.8,274.2z"/>
	<path d="M248.9,268.8c1.9-0.7,3.8-1.3,5.8-1.8c1.8-0.4,3.6-0.9,5.4-1c0.6,0,1.2,0,1.6,0.3c0.2,0.1,0.2,0.1,0.3,0.3
		c0.2,0.4,0.3,0.9,0.4,1.3c0.5,2.2,1,4.3,1.5,6.5c0.6,2.3,4.2,1.4,3.6-1c-0.6-2.4-1.1-4.9-1.7-7.3c-0.6-2.4-2.3-3.6-4.7-3.8
		c-2.1-0.2-4.2,0.4-6.2,0.8c-2.3,0.5-4.7,1.2-6.9,2.1c-1,0.3-1.6,1.3-1.3,2.3C246.8,268.4,247.9,269.1,248.9,268.8L248.9,268.8z"/>
	<path d="M281.2,259.1c-0.8-1.5-1.6-2.9-2.4-4.4c-0.8-1.4-1.5-2.7-3.2-2.8c-0.8,0-1.6,0.2-2.3,0.3c-0.8,0.1-1.6,0.3-2.4,0.4
		c-1.6,0.3-3.1,0.5-4.7,0.8c-2.8,0.5-5.7,0.9-7.2,3.6c-1.2,2-1.2,4.5-0.9,6.8c0.1,1,0.8,1.9,1.9,1.9c0.9,0,2-0.9,1.9-1.9
		c-0.2-1.5-0.4-3.3,0.3-4.7c0.8-1.8,3.4-1.8,5.1-2.1c2.4-0.4,4.8-0.9,7.3-1.3c0.1,0,0.9-0.1,0.9-0.2c-0.5-0.4-0.6-0.4-0.4-0.2
		c0.1,0.1,0.1,0.2,0.2,0.3c0.3,0.6,0.6,1.1,0.9,1.7c0.6,1.2,1.3,2.4,1.9,3.5C279.2,263.1,282.4,261.3,281.2,259.1L281.2,259.1z"/>
	<path d="M265.2,269.7c1.6-0.4,3.2-0.8,4.8-1c0.2,0,0.4-0.1,0.6-0.1c0.4-0.1-0.1,0,0.3,0c0.4-0.1,0.9-0.1,1.3-0.1
		c0.8-0.1,1.6-0.1,2.5-0.2c1,0,1.9-0.8,1.9-1.9c0-1-0.8-1.9-1.9-1.9c-3.5,0.1-7,0.7-10.4,1.6c-0.9,0.3-1.6,1.3-1.3,2.3
		C263.2,269.4,264.2,270,265.2,269.7L265.2,269.7z"/>
	<path d="M269.4,253.1c-0.4-1.2-0.8-2.4-1.2-3.6c-0.4-1.1-0.7-2.3-1.1-3.4c-1.3-2.9-4.9-1.5-7.3-1.1c-1.2,0.2-2.4,0.5-3.7,0.7
		c-1.1,0.2-2.4,0.4-3.4,1.1c-2.5,1.8-0.9,4.9,0.1,7.1c1.2,2.5,2.5,4.9,4,7.2c0.5,0.9,1.7,1.2,2.6,0.7c0.8-0.5,1.2-1.7,0.7-2.6
		c-1.4-2.1-2.6-4.3-3.7-6.6c-0.3-0.5-0.5-1.1-0.8-1.7c-0.1-0.2-0.2-0.5-0.3-0.7c0-0.1-0.2-0.8-0.2-0.8c0.1,0,0,0.2,0,0.3
		c-0.3,0.3-0.3,0.3-0.1,0.1c-0.1,0.1-0.1,0,0.1,0c0.6-0.1,1.1-0.2,1.7-0.4c1.3-0.3,2.5-0.5,3.8-0.8c0.7-0.1,1.4-0.3,2-0.4
		c0.3-0.1,0.6-0.1,0.9-0.2c0.1,0,0.6-0.2,0.6-0.1c0,0-0.8-0.4-0.7-0.5c0,0,0.3,0.9,0.3,0.9c0.2,0.6,0.4,1.2,0.6,1.8
		c0.4,1.3,0.8,2.6,1.3,3.9c0.3,1,1.3,1.6,2.3,1.3C269,255.2,269.7,254.1,269.4,253.1L269.4,253.1z"/>
	<path d="M232.6,262.9c-1.7-1.4-3.5-2.8-5.2-4.2c-0.9-0.7-1.8-1.7-3.1-1.7c-1.3,0-2.1,0.9-2.7,1.9c-2.5,3.7-5,7.4-7.5,11.1
		c-0.6,0.8-0.2,2.1,0.7,2.6c0.9,0.5,2,0.2,2.6-0.7c2.1-3.1,4.2-6.2,6.3-9.4c0.3-0.4,0.5-0.8,0.8-1.2c0.1-0.2,0.7-0.9,0.7-1
		c0.1,0.3-1.2,0-1,0.3c0,0.1,0.4,0.3,0.5,0.4c0.4,0.3,0.7,0.6,1.1,0.9c1.5,1.2,2.9,2.3,4.4,3.5c0.8,0.6,1.9,0.8,2.7,0
		C233.2,264.9,233.4,263.6,232.6,262.9L232.6,262.9z"/>
	<path d="M229.9,262.6c3.3-3.8,7-7.3,11-10.4c-1-0.1-2-0.3-2.9-0.4c1.4,2.5,2.7,5.1,3.6,7.8c0.3,1,1.3,1.6,2.3,1.3
		c0.9-0.3,1.7-1.4,1.3-2.3c-1.1-3-2.4-5.9-4-8.7c-0.7-1.2-2-1.1-2.9-0.4c-4,3.1-7.7,6.6-11,10.4c-0.7,0.8-0.8,1.9,0,2.7
		C228,263.3,229.3,263.3,229.9,262.6L229.9,262.6z"/>
	<path d="M264,244.6c0.2-2.6,0.7-5.1,1.5-7.6c0.3-0.8,0.5-1.9,1.2-2.1c1-0.3,2.4-0.2,3.5-0.2c1.4,0,2.7,0,4.1,0c0.2,0,0.3,0,0.5,0
		c0.3,0,0.1,0,0.1,0c0.2-0.1,0.6,0.5-0.1-0.3c-0.4-0.4-0.3-0.4-0.3-0.3c-0.1,0.2,0,0.7-0.1,0.9c0,0.4-0.1,0.7-0.1,1.1
		c-0.1,1.5-0.2,2.9-0.3,4.4c-0.1,1.2-0.1,2.8-0.3,3.8c0,0.1-0.2,0.5,0,0.3c0.1-0.1-0.3,0.1-0.4,0.1c-0.7,0.2-1.4,0.3-2.1,0.5
		c-1.6,0.3-3.2,0.7-4.9,1c-1,0.2-1.6,1.4-1.3,2.3c0.3,1,1.3,1.5,2.3,1.3c1.7-0.4,3.4-0.7,5.2-1.1c1.6-0.4,3.5-0.6,4.4-2.2
		c0.8-1.4,0.7-3.4,0.8-5c0.1-1.8,0.3-3.6,0.4-5.3c0.1-1.7,0.5-3.7-1.2-4.8c-1.4-0.9-3.5-0.6-5-0.5c-3,0-7.2-0.6-8.9,2.6
		c-0.8,1.6-1.3,3.5-1.7,5.2c-0.5,1.9-0.7,3.9-0.9,5.8c-0.1,1,0.9,1.9,1.9,1.9C263.2,246.4,264,245.6,264,244.6L264,244.6z"/>
	<path d="M223.4,238.7c-0.1,2.3,0.2,4.6,1,6.8c0.4,1.2,0.9,2.3,1.5,3.4c0.7,1.2,1.8,1.9,3.3,2c1.2,0.1,2.4,0,3.5,0
		c1.2,0,2.5,0,3.7,0c1.4,0,2.9-0.7,3.1-2.3c0.2-1.2-0.1-2.5-0.1-3.7c-0.2-2.8-0.3-5.5-0.5-8.3c-0.1-1.1-0.8-1.8-1.9-1.9
		c-4.2-0.4-8.5,0.5-12.3,2.3c-0.9,0.4-1.2,1.7-0.7,2.6c0.5,0.9,1.6,1.1,2.6,0.7c3.2-1.5,6.8-2.1,10.4-1.8c-0.6-0.6-1.3-1.3-1.9-1.9
		c0.1,2.1,0.3,4.2,0.4,6.2c0.1,1,0.1,2,0.2,3.1c0,0.5,0.1,1.1,0.1,1.6c0,0.2,0,0.5,0,0.6c0,0,0,0.1,0,0.1c0.2-0.3,0.4-0.6,0.6-1
		c0,0,0.3-0.2,0.3-0.1c0,0-1.2,0-1.3,0c-0.5,0-1.1,0-1.6,0c-1.1,0-2.2,0-3.2,0c-0.2,0-0.5,0-0.7,0c-0.1,0-0.2,0-0.3,0
		c0,0-0.3,0-0.1,0c0.2,0-0.1,0-0.1,0c-0.1,0-0.2-0.1-0.1,0c0,0,0.2,0.1,0.1,0.1c0,0,0.1,0.1,0-0.1c-0.4-0.8-0.8-1.6-1.1-2.3
		c-0.7-2-1-3.8-0.9-6c0-1-0.9-1.9-1.9-1.9C224.3,236.9,223.5,237.7,223.4,238.7L223.4,238.7z"/>
	<g>
		<g>
			<path d="M676.1,312.3c0.6-2.6,1.3-5.2,1.7-7.9c0.4-2.8-0.6-4.8-2.9-6.3c-0.8-0.6-1.8-1-2.6-1.7c-0.8-0.7-1.2-1.7-1.6-2.7
				c-0.7-2.2-1.2-4.4-2.3-6.4c-2.3-4.3-6.6-7.4-11.2-8.7c-2.6-0.7-5.3-0.9-8-0.5c-1.3,0.2-2.5,0.4-3.7,0.8c-0.8,0.3-2.6,1.4-3.2,1
				c-0.5-0.3-0.9-1-1.3-1.4c-0.2-0.2-0.4-0.4-0.6-0.6c0.1-0.2,0.1-0.5,0.1-0.7c-0.2-4.7,0-9.6-1.7-14.1c-1.5-4.1-4.4-7.2-8.1-9.4
				c-7.9-4.5-17.9-5-26.7-6.1c-10.3-1.3-20.7-2.3-31-3.1c0.1-2,0.1-3.9-0.1-5.9c-0.2-1.7-0.3-3.6-2-4.6c-1.5-0.9-3.5-0.9-5.2-1.1
				c-2-0.3-4-0.4-6.1-0.5c-3.9-0.1-7.8,0.1-11.7,0.7c-2,0.3-2.9,1.4-3,3.4c-0.1,2,0.1,4,0.4,6c0,0.1,0.1,0.2,0.1,0.3
				c-3-0.1-6-0.3-9-0.4c-22.6-1-45.2-1.4-67.8-1.7c-0.7,0-1.3,0-2,0c-0.3-1.8-0.6-3.5-0.9-5.3c-0.3-1.6-0.4-3.3-1.8-4.4
				c-1.4-1.2-3.4-1.1-5.2-1.2c-2-0.1-3.9-0.1-5.9-0.1c-3.9,0.1-7.9,0.6-11.8,1.4c-1.7,0.4-3,1.4-2.7,3.3c0.3,1.9,0.8,3.8,1.3,5.8
				c-13.3-0.2-26.6-0.3-39.9-0.4c-7.5,0-15-0.1-22.5-0.1c0-2-0.1-3.9-0.3-5.9c-0.2-1.7-0.4-3.4-1.8-4.6c-1.5-1.3-3.9-1.2-5.7-1.3
				c-2.1-0.2-4.3-0.3-6.4-0.3c-2.1-0.1-4.3-0.1-6.4-0.1c-1.7,0-3.8-0.1-5.4,0.8c-1.8,1-2.1,2.8-1.9,4.8c0.3,2.2,0.5,4.4,0.8,6.6
				c0,0,0,0,0,0.1c-6.3,0-12.5,0-18.8,0c-2.6,0-5.3,0-7.9,0c0-1.2,0-2.3,0-3.5c0-0.7-0.5-1.4-1.2-1.7c-0.3-0.2-0.7-0.4-1.1-0.4
				c-7-0.5-14-0.4-21,0.5c-1,0.1-1.9,0.8-1.9,1.9c0,0.3,0.1,0.6,0.2,0.8c-0.2,4.5-0.1,8.9,0.4,13.4c0.1,1,0.8,1.9,1.9,1.9
				c0.2,0,0.4,0,0.6-0.1c0.3,0.1,0.5,0.2,0.8,0.2c6.7-0.8,13.4-1.2,20.1-1.2c0.3,0,0.5-0.1,0.7-0.2c20.6-0.3,41.2-0.5,61.8-0.6
				c20.7-0.1,41.3,0,62,0.4c20.6,0.4,41.3,1.1,61.8,2.3c20.4,1.2,40.9,2.9,61.2,5.2c10.3,1.2,20.6,2.5,30.8,4c5,0.7,10,1.5,15,2.4
				c3.7,0.6,8.6,1.2,9.8,5.5c0.5,1.7,0.6,3.6,0.8,5.4c-1.3,0.1-2.6,0-3.7-0.7c-1.7-1-0.9-3.3-2.7-4.3c-1.6-0.9-4.1-0.5-5.9-0.5
				c-1.6,0-3.5,0-4.9-0.9c-1.2-0.9-2-2.3-3.1-3.4c-1.2-1.2-2.7-2-4.4-2c-1.9,0.1-3.2,1.3-4.9,2c-1.6,0.7-3.3-0.1-4.8-0.7
				c-2-0.8-3.9-1.7-6.1-1.7c-1.4,0-3.9,0.7-4.9-0.5c-0.5-0.6-1.4-0.7-2.1-0.4c-3.1-1.4-6.5-2.2-10-2.1c-1.8,0-3.7,0.3-5.5,0.8
				c-1.7,0.5-3.3,1.4-5,0.6c-1.6-0.7-3.1-1.5-4.8-2c-1.8-0.5-3.7-0.8-5.6-1c-3.7-0.4-7.5-0.3-11.3-0.3c-4.4,0.1-8.9,0.3-13.1,1.6
				c-2.1-2.9-6.1-3.4-9.4-3c-2.3,0.3-4.4,1.1-6.6,1.6c-2.3,0.5-4.1,0.3-6.2-0.6c-2-0.9-4-1-6-0.1c-0.3,0.1-1.5,0.7-2.1,1.1
				c0,0,0,0,0,0c-0.3-0.3-0.7-0.6-1-0.9c-3.2-2.3-7.9-1.5-10,1.8c-1.4-0.9-2.9-1.7-4.5-1.9c-1.9-0.3-3.2,0.4-4.8,1.5
				c-1.4,1-3,0.4-4.4,0c-1.7-0.5-3.4-1-5.1-1.4c-7-1.6-14.3-2.1-21.4-1.1c-3.9,0.6-7.7,1.8-11.3,3.5c-0.1,0-0.2,0.1-0.2,0.1
				c-1.6-0.2-3.2-0.2-4.8-0.3c-1.5-0.1-2.7-1.1-4-1.6c-1.4-0.6-2.9-0.8-4.4-0.9c-2.1,0-4.3,0.4-6.3,1c-0.1-0.1-0.1-0.3-0.2-0.4
				c-1.1-1.8-3-2.8-5-3.3c-2.3-0.5-4.7-0.6-7-0.8c-2.6-0.2-5.1-0.3-7.7,0c-4.9,0.5-9.5,2.2-14,4c-0.2,0.1-0.4,0.2-0.6,0.3
				c0,0-0.1-0.1-0.1-0.1c-1.7-0.9-3.6-1.5-5.5-1.3c-1.3,0.1-2.5,0.5-3.6,1c-1-1.8-3.3-2.9-5.4-3.1c-3.5-0.3-7.1,0.6-10.2,2
				c-0.2-0.7-0.3-1.4-0.5-2.1c-0.5-1.7-1.6-2.7-3.3-2.9c-1.5-0.2-3.1-0.2-4.6-0.2c-3.1,0.1-6.3,0.6-9.3,1.5
				c-0.4,0.1-0.7,0.3-0.9,0.6c-0.8-0.5-1.7-0.7-2.6-0.8c-2.9-0.4-5.8-0.1-8.5,1.1c-2.6,1.2-4.8,3.5-5.4,6.4
				c-0.7,0.1-1.4,0.2-2.1,0.3c-2.2,0.3-4.5,0.8-6.6,1.5c-0.1-0.3-0.2-0.5-0.3-0.8c-0.4-0.9-0.7-1.9-1.4-2.5c-1.4-1.3-3-0.9-4.5-0.3
				c0-0.2-0.1-0.4-0.2-0.6c0,0,0-0.2,0-0.2c0-0.2,0.1-0.4,0.2-0.6c0.3-0.4,0.7-0.8,1.2-1c1.3-0.6,2.9-0.5,4.3-0.5
				c3.7,0.1,7.3,0.1,11,0.2c2.4,0,2.4-3.7,0-3.8c-2.3,0-4.6-0.1-6.9-0.1c-2.2,0-4.4-0.2-6.6,0c-2,0.2-4,0.8-5.4,2.3
				c-1.4,1.6-1.8,3.6-0.9,5.5c0,0.1,0.1,0.1,0.1,0.2c-1.3,0.6-2.6,1.1-3.9,1.7c-0.8-0.9-1.7-1.7-2.6-2.4c0.7-1.2,1.4-2.4,2-3.6
				c1.2-2.1,2.6-4.4,1.3-6.8c-1-1.7-2.9-2.5-4.7-2.9c-1.1-0.2-2.3-0.5-3.4-0.4c-1.4,0-2.5,0.5-3.6,1.3c-1,0.8-1.8,1.8-2.6,2.7
				c-1,1.1-2,2.1-3,3.2c-1.6,1.8,1,4.4,2.7,2.7c0.9-1,1.9-2,2.8-3c0.8-0.9,1.6-1.9,2.6-2.7c0.3-0.2,0.6-0.4,1-0.5c0.5,0,1,0,1.4,0.1
				c0.9,0.1,1.8,0.3,2.6,0.6c0,0,0.3,0.1,0.3,0.2c0,0,0.4,0.2,0.4,0.3c0.1,0.1,0.1,0.1,0.2,0.2c-0.1-0.1,0.1,0.3,0.1,0.2
				c0,0,0,0,0,0c0,0,0,0.1,0,0.2c0,0-0.1,0.4-0.1,0.5c-0.2,0.6-0.6,1.1-0.9,1.7c-0.8,1.4-1.6,2.8-2.4,4.2c-0.4-0.1-0.9-0.1-1.2,0.1
				c-3.4,0.3-6.9,1-10.1,2.3c-1.7,0.7-3.1,2-2.8,4c0.3,1.6,1.5,3.1,2.4,4.4c0.6,1,1.3,2.4,2.3,3.2c-26.2,0.4-52.4,0.8-78.6,1.2
				c-7.6,0.1-15.2,0.2-22.8,0.3c-0.1,0-0.3,0-0.4,0c-0.2,0-0.4,0-0.5,0.1c-8.1,1.5-12,13.5-5.6,19.2c4.4,3.9,10.5,5,16.1,5.5
				c7.5,0.7,15.1,0.8,22.6,0.8c15.6,0,31.1-0.8,46.6-1.7c13.4-0.7,26.9-1.4,40.4-1.9c-0.1,0.1-0.1,0.2-0.2,0.3
				c-1.3,2.1,2,3.9,3.2,1.9c0.5-0.8,1-1.6,1.4-2.3c0.7,0,1.5-0.1,2.2-0.1c4.8-0.2,9.6-0.3,14.3-0.4c0.5,1.3,2.5,2,3.4,0.4
				c0.1-0.2,0.2-0.4,0.3-0.5c5.5-0.1,11.1-0.3,16.6-0.4c0.4,1.3,2.5,2.1,3.5,0.5c0.1-0.2,0.3-0.4,0.4-0.6
				c12.6-0.2,25.3-0.4,37.9-0.4c0.3,0.1,0.7,0.1,1,0c4.4,0,8.9,0,13.3,0c-0.1,0.7,0.3,1.5,0.9,1.9c1,0.6,2,0.1,2.6-0.7
				c0.3-0.4,0.6-0.8,0.9-1.2c31.1,0.1,62.1,0.6,93.2,1.4c1,0,2,0.1,2.9,0.1c0.1,0.1,0.2,0.2,0.4,0.3c0.7,0.4,1.5,0.3,2.1-0.2
				c28.6,0.9,57.6,3,86.1-0.4c7.3-0.9,14.6-2,21.7-3.8c2.9-0.8,7.2-3,7.6-6c1.7,0.6,3.5,1,5.1,1.7c3.3,1.3,4.2,5.3,7.5,6.7
				c0.8,0.4,1.7,0.5,2.5,0.6c0,2.3,0,4.6-0.1,6.9c-0.1,2.1-0.5,4.4-1.8,6.2c-2.4,3-6.8,3.6-10.3,3.8c-10.4,0.8-21,0.8-31.4,1.1
				c-21.7,0.5-43.5,0.5-65.2,0.3c-21.6-0.2-43.3-0.6-64.9-0.8c-21.7-0.3-43.5-0.5-65.2-0.3c-21.6,0.2-43.2,0.7-64.8,1.8
				c-2.2,0.1-4.3,0.2-6.5,0.4c0.1-1.5,0.2-3,0.4-4.4c0.7-0.8,0.6-2.2-0.3-2.8c-0.5-0.5-1.5-0.6-2.2-0.3c-32.4,0.6-64.7,1.7-97.1,3.4
				c-9.1,0.5-18.3,1-27.4,1.5c-1.8,0.1-2.3,2.3-1.3,3.3c-0.2,5.8-0.4,11.6-0.6,17.4c0,1,0.6,1.6,1.4,1.8c0.3,0.5,0.8,0.8,1.5,0.8
				c31.5,0.4,62.9,0.2,94.4-1.2c8.8-0.4,17.6-0.8,26.3-1.3c0.6,0,1-0.3,1.3-0.6c1,0.2,2.3-0.4,2.4-1.8c0.1-1.2,0.2-2.3,0.3-3.5
				c0.3,0.2,0.6,0.3,1,0.3c12.4-0.5,24.8-0.9,37.2-1.2c-0.1,3.3,0.1,6.6,0.7,9.9c0.1,0.8,1.1,1.4,1.8,1.4c6.6-0.3,13.1-0.6,19.7-0.9
				c2.5-0.1,6.9,0.4,6.9-3.2c0-1.5-0.3-3.2-0.4-4.7c-0.1-1-0.2-2-0.3-3.1c1.7,0,3.4-0.1,5.1-0.1c19.2-0.2,38.3-0.3,57.5-0.1
				c0.1,1.4,0.2,2.8,0.3,4.2c0.1,1.3,0,2.8,0.4,4.1c1,3.2,4.6,2.6,7.2,2.5c6.4-0.2,12.8-0.5,19.2-0.7c0.9,0,2-0.8,1.9-1.9
				c-0.3-2.6-0.7-5.2-1-7.8c18.3,0.4,36.7,0.9,55,1.1c5.8,0.1,11.6,0.1,17.4,0.1c0.1,2.9,0.1,5.8,0.1,8.7c0,1.1,0.9,1.8,1.9,1.9
				c7.1,0.5,14.2,0.2,21.2-0.8c0.8-0.1,1.4-1.1,1.4-1.8c0.1-2.8-0.1-5.6-0.7-8.3c9.5-0.3,19-0.7,28.5-1.4c5.9-0.4,11.7-0.9,17.5-1.6
				c4.7-0.5,9.5-1,14.1-2.3c4.2-1.3,8.1-3.3,10.8-6.8c2.8-3.7,3.9-8.3,3.8-12.9c0-1.6-0.2-3.1-0.5-4.6c0.2,0.1,0.3,0.1,0.5,0.2
				c2.2,0.6,4.3-0.3,6.5-0.5c2-0.2,4.1,0.1,5.9,1c1.6,0.8,2.9,2.2,3.3,4c0.4,1.9-0.8,3.8-1.4,5.5c-3.1,7.9,4.6,14.8,11.5,16.9
				c3.6,1.1,8.9,1,10.4-3.2C682,316.4,679.4,312.9,676.1,312.3z M320,247.7c-5.7,0.1-11.5,0.5-17.2,1.1c-0.3-3.6-0.4-7.2-0.2-10.8
				c5.8-0.6,11.6-0.7,17.4-0.3C320,241.1,320,244.4,320,247.7z M312.3,328C312.3,328,312.2,328,312.3,328
				c-15.8,0.8-31.5,1.6-47.3,2.1c-15.7,0.5-31.5,0.6-47.2,0.6c-8.5,0-17-0.1-25.5-0.2c0.2-5.3,0.4-10.6,0.6-15.8
				c31.9-1.9,63.9-3.2,95.8-4.1c8.3-0.2,16.7-0.4,25-0.6C313.3,315.9,312.8,321.9,312.3,328z M548.7,236.6c0.7-0.1,1.4-0.2,2-0.2
				c3-0.3,6.1-0.4,9.1-0.3c1.5,0.1,3,0.2,4.4,0.3c1.4,0.1,2.8,0.5,4.2,0.6c0.5,0,0.4,0.1,0.5,0.7c0.1,0.7,0.2,1.5,0.2,2.3
				c0.1,1.4,0.1,2.8,0,4.2c-6.8-0.5-13.6-0.9-20.5-1.3c0.2-0.4,0.3-1,0.2-1.5c-0.2-1.4-0.3-2.8-0.3-4.3
				C548.7,237.1,548.7,236.9,548.7,236.6z M442.5,234.6c0.7-0.1,1.4-0.3,2.1-0.4c3-0.5,6.1-0.8,9.1-0.9c1.5,0,3,0,4.5,0
				c0.7,0,1.4,0.1,2.1,0.1c0.4,0,1.1,0,1.4,0.3c0.3,0.3,0.3,1.2,0.3,1.5c0.1,0.8,0.2,1.5,0.4,2.3c0.2,1,0.3,1.9,0.5,2.9
				c-6.5-0.1-13-0.2-19.5-0.3c0.1-0.3,0.1-0.6,0.1-1c-0.3-1.5-0.6-2.9-1-4.4C442.5,234.8,442.5,234.7,442.5,234.6
				C442.5,234.6,442.5,234.6,442.5,234.6z M353.3,231.5c0.2-0.1,0.4-0.1,0.6-0.2c1.3-0.3,2.9-0.1,4.2-0.1c1.7,0,3.5,0,5.2,0.1
				c1.7,0.1,3.3,0.1,5,0.2c0.9,0.1,1.7,0.1,2.6,0.2c0.5,0,1.6-0.1,2,0.3c0.7,0.6,0.6,2.3,0.7,3.1c0.1,1.5,0.2,3,0.2,4.5
				c-6.5,0-13,0-19.6,0c0,0,0,0,0-0.1c-0.2-1.7-0.4-3.5-0.6-5.2c-0.1-0.8-0.2-1.6-0.3-2.5C353.3,231.8,353.3,231.6,353.3,231.5z
				 M614.7,260.9c-10.4-1.7-20.8-3.2-31.2-4.5c-20.8-2.7-41.7-4.6-62.6-6c-21.1-1.4-42.2-2.3-63.3-2.8c-21.1-0.5-42.1-0.7-63.2-0.6
				c-21.2,0-42.3,0.3-63.5,0.6c-2.4,0-4.8,0.1-7.2,0.1c0-1.3,0-2.7,0-4c22.2-0.1,44.3-0.1,66.5,0c22.3,0.1,44.5,0.3,66.8,0.7
				c22.2,0.3,44.5,0.7,66.7,1.5c22.1,0.7,44.1,1.9,66.1,4.2c5.5,0.6,10.9,1.2,16.3,1.9c4.7,0.6,9.4,1.2,14.1,2.2
				c3.8,0.9,7.8,2.1,10.9,4.6c3.6,2.9,5,7.2,5.3,11.7c0.1,1.8,0.2,3.7,0.3,5.6c-0.2-0.1-0.4-0.1-0.6-0.2c-1.8-0.6-3.8-0.8-5.7-0.6
				c-0.3-3.7-0.7-7.7-3.6-10.2C623.5,262,618.8,261.5,614.7,260.9z M410.6,264.1c0.3-0.4,0.5-0.9,0.6-1.3c1.7-0.5,3.5-0.9,5.3-1
				c1.2,0,2.4,0.1,3.6,0.5c1.3,0.5,2.3,1.3,3.7,1.7c2.4,0.6,5,0.1,7.4,0.7c2.4,0.6,4.3,1.9,4.8,4.5c0.1,0.3,0.1,0.5,0.3,0.7
				c-7.1,0.1-14.1,0.2-21.2,0.3c-0.2-0.4-0.4-0.8-0.8-1c-1-0.6-2-0.1-2.6,0.7c-0.1,0.1-0.2,0.3-0.3,0.4c-3.8,0.1-7.6,0.1-11.4,0.2
				c0.2-0.6,0.2-1.3-0.4-1.9c-0.2-0.3-0.4-0.5-0.6-0.8c1.9-0.3,3.9-0.7,5.8-1C407,266.3,409.3,266,410.6,264.1z M389.2,258.6
				c4.1-0.8,8.3-0.4,12.4,0c1.6,0.1,3.4,0.2,4.8,1c0.3,0.2,0.6,0.4,0.9,0.7c-0.7,0.5-0.9,1.5-0.6,2.2c-0.4,0.1-0.8,0.2-1.1,0.2
				c-1.1,0.2-2.1,0.4-3.2,0.5c-1.7,0.3-3.5,0.6-5.2,0.9c-1-1.5-2.5-2.5-4.3-2.8c-2.1-0.3-4.3,0.2-6.4,0.6c-2,0.4-4.1,0.7-6.1,1.1
				c-0.3-0.5-0.6-0.9-1-1.4C382.7,260.4,385.9,259.2,389.2,258.6z M382.5,268.6c-0.1-0.7-0.3-1.4-0.5-2.1c1.6-0.3,3.1-0.5,4.7-0.8
				c1.8-0.3,3.7-0.9,5.5-0.7c1.3,0.1,1.9,1,2.5,2.1c0.6,1.2,1.1,2.3,1.8,3.3c-2.4,0-4.9,0.1-7.3,0.1c-2.6,0-5.2,0.1-7.8,0.1
				C382.2,270.3,382.7,269.6,382.5,268.6z M352.3,262.2c0.1-0.4,0.1-0.7,0-1.1c0.2,0,0.3-0.1,0.5-0.2c2.2-1,4.5-1.6,6.9-1.8
				c1-0.1,4.8-0.1,4.2,1.7c-0.5,1.6,1.4,2.9,2.8,2.1c1.3-0.7,2.6-1.6,4.1-1.7c1.4-0.1,2.8,0.3,3.9,1c2.6,1.6,3.6,4.5,4.1,7.3
				c0.1,0.6,0.4,0.9,0.8,1.1c-1.8,0-3.7,0.1-5.5,0.1c0-0.5-0.1-0.9-0.5-1.3c-0.7-0.7-2-0.8-2.7,0c-0.4,0.5-0.7,0.9-1.1,1.4
				c-2.3,0-4.6,0.1-7,0.1c0.6-0.7,0.6-1.8-0.1-2.5c-2.9-3.1-6.7-4.7-10.7-5.9C352.2,262.4,352.2,262.3,352.3,262.2z M354.5,267.3
				c2,0.8,4.1,2.1,5.6,3.7c-1.4,0-2.9,0-4.3,0.1c-0.6-0.3-1.2-0.3-1.7,0c-3.6,0.1-7.3,0.1-10.9,0.2c0-0.1,0-0.2,0-0.2
				c0-1.8,0-3.5,0-5.3c0-0.1,0-0.3,0-0.4c1.4,0.1,2.9,0.1,4.3-0.2C349.8,265.8,352.2,266.4,354.5,267.3z M347.5,256.1
				C347.6,256.1,347.5,256.1,347.5,256.1L347.5,256.1z M344.8,256c0.8,0,1.6,0.1,2.4,0.1c0.1,0,0.1,0,0.1,0c0.1,0.2,0.1,0.5,0.2,0.7
				c0.2,0.8,0.4,1.7,0.6,2.5c0.1,0.4,0.2,0.9,0.3,1.3c0,0.1,0,0.2,0.1,0.3c-0.2,0.1-0.4,0.2-0.6,0.2c-0.6,0.2-1.2,0.3-1.7,0.4
				c-1.1,0.2-2.2,0.2-3.3,0c-0.1,0-0.1,0-0.2,0c-0.1-0.2-0.2-0.5-0.3-0.7c-0.9-1.5-2.7-2-4.4-1.8c-0.8,0.1-1.5,0.2-2.3,0.4
				c0-0.2-0.1-0.4-0.1-0.5c-0.1-0.6-0.2-1.1-0.4-1.6C338.3,256.4,341.5,255.9,344.8,256z M339.1,262.8
				C339.1,262.8,339.1,262.8,339.1,262.8C339.1,262.8,339.1,262.8,339.1,262.8C339.1,262.8,339.1,262.8,339.1,262.8
				C339.1,262.8,339.1,262.8,339.1,262.8C339.1,262.8,339.1,262.8,339.1,262.8C339.1,262.8,339.1,262.7,339.1,262.8
				C339.1,262.7,339.1,262.8,339.1,262.8C339.1,262.8,339.1,262.8,339.1,262.8C339.1,262.8,339.1,262.8,339.1,262.8
				C339.1,262.8,339.1,262.8,339.1,262.8z M339.2,262.8C339.2,262.8,339.2,262.8,339.2,262.8C339.2,262.8,339.2,262.8,339.2,262.8
				C339.2,262.8,339.1,262.8,339.2,262.8C339.1,262.8,339.1,262.8,339.2,262.8z M336.1,263.3C336.1,263.2,336.1,263.2,336.1,263.3
				c0.6-0.2,1.2-0.3,1.9-0.5c0.1,0,0.2,0,0.2-0.1c0,0-0.1,0-0.1,0c0.1,0,0.3,0,0.4,0c0.1,0,0.2,0,0.4,0c0,0,0,0,0,0c0,0,0,0,0,0
				c0,0,0.1,0,0.1,0c0,0,0,0,0,0c0,0,0,0,0,0c0,0,0,0,0,0c0,0,0,0,0,0c0,0,0,0,0,0c0,0,0,0,0,0c0,0,0,0,0,0c0,0,0,0,0,0
				c0,0.1,0.1,0.1,0,0c0,0.1,0.1,0.3,0.1,0.4c0,0,0,0,0,0c0,0.3,0,0.6,0.1,0.9c0,0.8,0.1,1.6,0.1,2.4c0,1.5,0,3,0,4.5
				c0,0.1,0,0.2,0,0.3c-1.2,0-2.4,0-3.5,0.1c0.3-1.7-2.4-2.9-3.5-1.2c-0.3,0.4-0.5,0.8-0.8,1.2c-2.2,0-4.5,0.1-6.7,0.1
				c0-0.2,0.1-0.3,0.1-0.5c0-0.9,0-1.8,0-2.7c2.6-0.8,5.2-1.6,7.7-2.4C334.2,265.5,335.7,265,336.1,263.3z M324,257.8
				c1.2-0.4,2.5-0.7,3.8-0.7c0.9,0,2.6-0.1,3.3,0.5c0.6,0.6,0.7,1.9,0.9,2.8c0,0,0,0,0,0.1c-0.5,0.5-0.7,1.2-0.5,1.8
				c-2.2,0.7-4.4,1.4-6.7,2.1c0,0,0-0.1,0-0.1c-0.4-2.2-2.4-3.1-4.4-3.4c0,0,0,0,0,0C321.1,259.5,322.4,258.4,324,257.8z
				 M321.3,265.1C321.3,265.1,321.2,265.1,321.3,265.1C321.2,265.1,321.3,265.1,321.3,265.1z M321.2,265
				C321.2,265,321.2,265,321.2,265C321.3,265,321.3,265.1,321.2,265C321.2,265,321.2,265,321.2,265z M319.4,264.6c0.7,0,1,0,1.6,0.2
				c0,0,0.1,0,0.1,0.1c0,0,0,0,0,0c0,0,0,0,0,0c0,0,0,0,0,0c0,0.1,0,0.1,0,0.2c0,0,0,0,0,0.1c0,0.4,0,0.8,0,1.2
				c-0.1,0.3-0.1,0.5,0,0.8c0,1.2-0.1,2.5-0.1,3.7c0,0.2,0,0.4,0.1,0.6c-1.9,0-3.9,0.1-5.8,0.1c-0.3-1.4-2.5-2.3-3.5-0.7
				c-0.1,0.2-0.3,0.5-0.4,0.7c-0.4,0-0.9,0-1.3,0c0.2-0.4,0.2-0.8,0.1-1.2c-0.4-1.4-0.9-2.8-1.3-4.2
				C312.3,265.4,315.9,264.6,319.4,264.6z M295.2,269.2c1.5-0.1,2.2-1.5,1.6-2.8c-0.1-0.3-0.3-0.6-0.4-0.8c1.4-0.6,2.8-1.2,4.3-1.9
				c0.8-0.3,1.5-0.7,2.3-1c0.1,0,0.3-0.1,0.5-0.2c1.3,2.8,2.3,6,3.2,9.1c0,0.1,0.1,0.2,0.1,0.3c-4.1,0.1-8.1,0.1-12.2,0.2
				c-3.9,0.1-7.7,0.1-11.6,0.2c0,0,0.1,0,0.1,0c0.7-0.3,1.4-0.6,2.1-0.8C288.4,270.2,291.8,269.4,295.2,269.2z M278.1,264.2
				c0.2-0.1,0.4-0.2,0.4-0.2c2.6-0.9,5.2-1.6,8-1.9c0.1,1.5,2.2,2.5,3.3,1.2c0.9,0.7,1.7,1.5,2.4,2.5c-1.6,0.2-3.1,0.5-4.6,0.9
				c-1.2,0.3-2.4,0.7-3.6,1.1c-0.5,0.2-1.1,0.4-1.6,0.6c-0.4,0.1-0.7,0.3-1.1,0.5c0,0-0.1,0-0.1,0c-0.2-0.4-0.4-0.7-0.7-1.1
				c-0.4-0.6-0.8-1.2-1.2-1.8C278.9,265.5,278.5,264.8,278.1,264.2z M299,292c-16.8,0.6-33.7,1.5-50.5,2.3
				c-14.9,0.8-29.9,1.5-44.9,1.2c-6.9-0.1-14-0.1-20.8-1.4c-4.4-0.8-10.8-2.6-11.2-8c-0.3-3.4,1.6-8.2,5.5-8.7
				c30.1-0.4,60.2-0.9,90.3-1.3c13.9-0.2,27.8-0.4,41.8-0.6C305.8,281,302.4,286.5,299,292z M319.3,291.3
				c-5.3,0.2-10.5,0.3-15.7,0.5c3.4-5.5,6.7-10.9,10.1-16.4c5.2-0.1,10.3-0.2,15.5-0.2C325.7,280.5,322.4,285.9,319.3,291.3z
				 M340,290.8c-0.5,0-1.1,0-1.6,0c-4.9,0.1-9.8,0.2-14.7,0.4c3.2-5.4,6.5-10.8,9.9-16c5.8-0.1,11.6-0.2,17.5-0.3
				C347.3,280.2,343.6,285.4,340,290.8z M355.9,290.6c-3.8,0.1-7.6,0.1-11.3,0.2c3.6-5.4,7.4-10.7,11.2-15.9c0.7,0,1.3,0,2,0
				c3.1,0,6.2-0.1,9.2-0.1c-3.9,5.1-7.5,10.3-11,15.7C355.9,290.5,355.9,290.5,355.9,290.6z M379.5,290.3c-6.4,0-12.7,0.1-19.1,0.1
				c3.5-5.5,7.3-10.8,11.3-15.9c6.5-0.1,12.9-0.2,19.4-0.3C387.2,279.7,383.4,285,379.5,290.3z M396.7,290.3c-4.2,0-8.4,0-12.6,0
				c3.9-5.4,7.8-10.7,11.6-16.1c4.3-0.1,8.6-0.1,12.9-0.2C404.7,279.5,400.7,284.9,396.7,290.3z M401.3,290.3c4-5.4,8-10.9,12-16.3
				c6.3-0.1,12.6-0.2,19-0.3c-4.3,5.4-8.3,11-12,16.7C414,290.4,407.7,290.3,401.3,290.3z M457.2,290.9c-9.6-0.2-19.2-0.3-28.9-0.4
				c-1.2,0-2.4,0-3.6,0c3.8-5.7,7.8-11.2,12.1-16.6c0.1-0.1,0.1-0.2,0.2-0.3c3.6-0.1,7.2-0.1,10.9-0.2c7.6-0.1,15.3-0.3,22.9-0.4
				c-4.8,5.6-9.3,11.5-13.5,17.6C457.3,290.8,457.3,290.8,457.2,290.9z M495.4,291.8c-11.2-0.3-22.5-0.6-33.7-0.8
				c4.1-6,8.5-11.7,13.3-17.1c0.3-0.3,0.4-0.6,0.5-1c11.4-0.2,22.7-0.4,34.1-0.5C504.7,278.8,500,285.3,495.4,291.8z M499.9,292
				c4.3-6.1,8.7-12.2,13.2-18.1c0.3-0.4,0.3-1,0.2-1.5c5.2,0,10.4,0,15.6,0c-6,6.3-11.5,12.9-16.6,20
				C508.2,292.2,504.1,292.1,499.9,292z M608.2,285.9c-0.9,1-2.7,1.5-4,1.8c-13.8,3.7-28.4,4.9-42.6,5.3
				c-14.4,0.4-28.8-0.1-43.2-0.5c-0.5,0-1,0-1.5,0c5.1-6.9,10.8-13.5,16.8-19.6c0.1-0.1,0.2-0.3,0.3-0.4c0.8,0,1.5,0,2.3,0
				c13.9,0.2,27.8,1,41.5,3.2c6.6,1.1,13.2,2.6,19.6,4.5c3.1,0.9,6.5,1.8,9.4,3.3C607.9,284,609.2,284.8,608.2,285.9z M378,331.5
				c-1.4,0.1-2.8,0.1-4.2,0.2c-5.1,0.2-10.2,0.5-15.3,0.7c-0.3-2.5-0.4-5-0.3-7.6c7-0.2,13.9-0.3,20.9-0.4c0.2,2.1,0.4,4.3,0.6,6.4
				c0,0.1,0,0.3,0,0.5C379,331.4,378.2,331.5,378,331.5z M456.4,331.1c-1.3,0-2.6,0.1-3.9,0.1c-0.7,0-1.3,0.1-2,0.1
				c-0.2,0-0.5,0.1-0.7,0c0,0,0,0,0,0c-0.2-0.4-0.1-1-0.1-1.4c-0.1-0.7-0.1-1.5-0.2-2.2c-0.1-1.2-0.2-2.3-0.2-3.5
				c3.2,0,6.3,0.1,9.5,0.1c3.7,0,7.4,0.1,11,0.2c0.3,2,0.5,4.1,0.8,6.1C465.8,330.8,461.1,330.9,456.4,331.1z M549.7,332.8
				c0-2.3-0.1-4.7-0.1-7c5.5,0,10.9-0.1,16.4-0.2c0.5,2.2,0.7,4.4,0.7,6.6C561.1,332.9,555.4,333.1,549.7,332.8z M640.1,294.6
				c0.9,4.4,1.2,9-0.4,13.3c-1.6,4.2-5.2,6.8-9.3,8.3c-4.3,1.5-9,2.1-13.5,2.6c-5.6,0.6-11.3,1.1-16.9,1.6
				c-10.6,0.8-21.2,1.3-31.8,1.5c-0.5-0.2-1-0.1-1.4,0c-11.7,0.3-23.4,0.3-35,0.1c-22.7-0.3-45.4-1-68.2-1.3
				c-22.9-0.3-45.9-0.4-68.8-0.2c-23,0.2-46.1,0.8-69.1,1.6c-2.8,0.1-5.6,0.2-8.4,0.3c-0.3,0-0.5,0.1-0.8,0.2
				c0.1-1.7,0.3-3.4,0.4-5.1c21.7-1.3,43.4-1.9,65.1-2.2c22.2-0.2,44.3-0.1,66.5,0.2c22.2,0.3,44.3,0.7,66.5,0.9
				c22.2,0.2,44.3,0.3,66.5-0.2c10.9-0.2,21.9-0.4,32.8-1c3.9-0.2,8.1-0.7,11.5-2.8c3.8-2.4,5.2-6.4,5.5-10.7c0.2-2.5,0.2-5,0.2-7.4
				c0,0,0,0,0,0c1.4-0.3,2.7-0.7,4-1c1.5-0.3,3.1-0.5,4.4,0.2c0.1,0.1,0.3,0.1,0.4,0.2C640.1,293.8,640,294.2,640.1,294.6z
				 M676.1,319.6c-2.7,1.1-6.3-0.6-8.6-2c-2.6-1.6-5.4-4.2-5.6-7.4c-0.1-1.8,0.8-3.3,1.5-4.9c0.7-1.7,1-3.5,0.6-5.4
				c-0.7-3.6-3.9-6.2-7.2-7.3c-1.8-0.6-3.8-0.8-5.7-0.6c-1.8,0.1-4,1.1-5.7,0.6c-1.5-0.5-2.6-1.8-4-2.5c-1.5-0.7-3.1-0.9-4.7-0.8
				c-1.6,0.2-3.2,0.6-4.7,1c-1.4,0.4-3,0.8-4.4,0.6c-1.6-0.2-2.5-1.5-3.4-2.8c-1.1-1.5-2.2-2.8-3.9-3.7c-2.8-1.4-6.8-1.4-8.8-3.9
				c-0.8-0.9-1.8-0.7-2.5-0.1c-1.8-1-3.8-1.6-5.6-2.2c-3.3-1.1-6.7-2.1-10.2-3c-6.9-1.8-13.8-3-20.8-4c-29.4-3.9-59.3-2.3-88.9-1.9
				c-14.8,0.2-29.5,0.4-44.3,0.7c0.4-0.4,0.6-1,0.5-1.7c-0.4-2.4-1.9-4.3-3.8-5.6c6.8-2.4,14.3-2.7,21.4-1.7
				c2.1,0.3,4.2,0.7,6.3,1.2c2,0.5,4,1.3,6.1,1.6c2.2,0.4,4,0.1,5.9-1.3c1.7-1.3,3.6,0,5.1,1c0.8,0.6,1.7,0.3,2.2-0.3
				c0.8,0.5,1.9,0.4,2.4-0.7c0.7-1.3,2-2,3.4-1.8c1.8,0.3,2.2,2,3.7,2.5c1.9,0.7,2.9-1,4.4-1.7c1.7-0.8,3,0,4.6,0.6
				c3.7,1.4,7.6,0.2,11.3-0.7c2.6-0.7,6.9-1.5,8.4,1.6c0.5,0.9,1.3,1.1,2,0.9c0.4,0.2,0.8,0.2,1.3,0.1c4.7-1.5,9.7-1.5,14.6-1.6
				c4.5,0,9-0.1,13.4,1.1c2.1,0.6,4,1.9,6.1,2.4c2.2,0.5,4.2-0.4,6.4-1c4.3-1.1,9-0.7,12.9,1.2c0.5,0.2,0.9,0.3,1.4,0.1
				c1.2,0.9,2.8,1.1,4.3,1.1c1.9-0.1,3.5-0.2,5.3,0.5c1.8,0.7,3.6,1.6,5.5,1.9c2.1,0.3,3.9-0.2,5.7-1.2c1.4-0.8,2.4-1.4,3.7-0.1
				c1.1,1.1,2,2.5,3.2,3.6c1.6,1.3,3.5,1.8,5.6,1.9c1,0.1,1.9,0,2.9,0c0.5,0,0.9,0,1.4,0c0.2,0,0.9,0.1,1.3,0.1
				c0,0.3,0.1,0.6,0.2,0.8c0.1,0.5,0.4,1.1,0.7,1.5c0.6,0.9,1.5,1.6,2.4,2.1c2.5,1.3,5.2,1.1,7.9,0.7c0.5-0.1,1-0.3,1.3-0.6
				c1.5-0.2,3.1,0,4.5,0.5c1.9,0.6,3.2,1.8,4.6,3.3c2.1,2.3,4.5,0.8,6.9,0c2.2-0.8,4.6-1,6.9-0.8c4.3,0.4,8.5,2.6,10.9,6.1
				c2.4,3.5,2.2,8.3,5.3,11.3c0.8,0.8,1.9,1.4,2.9,2c0.8,0.5,1.6,1,1.7,2.1c0,1.4-0.6,2.9-0.9,4.3c-0.4,1.6-0.7,3.1-1.1,4.7
				c-0.2,1,0.3,1.7,1,2.1c0,0.9,0.6,1.8,1.8,1.8C677.1,315.9,678.4,318.7,676.1,319.6z"/>
		</g>
		<g>
			<path d="M303.8,232.2c0.5,0.2,1.1,0.3,1.6,0.1c1,0,2,0.1,3,0.2c0.2,0,0.3,0,0.5,0.1c0.1,0,0.2,0,0.3,0c0.3,0.1,0.7,0.1,1,0.2
				c0.7,0.1,1.4,0.3,2.1,0.4c1,0.2,2.1-0.3,2.3-1.3c0.2-1-0.3-2.1-1.3-2.3c-2.1-0.5-4.3-0.8-6.5-1c0.8-8.7,3.5-17,6.4-25.2
				c3.2-9.1,6.6-18.1,9.6-27.2c6.1-18.4,11.5-37,16-55.8c2.5-10.5,4.8-21.1,6.8-31.8c0.4-2.4-3.2-3.4-3.6-1
				c-3.6,19.1-8.1,38.1-13.4,56.8c-5.3,18.7-11.5,37.1-18.1,55.3c-3.4,9.4-6.6,19-7.5,29.1c-0.5,0.3-0.8,0.9-0.8,1.5
				C302.3,231.3,303,232.1,303.8,232.2z"/>
		</g>
		<g>
			<path d="M339.1,262.8C339.1,262.8,339.1,262.8,339.1,262.8C339.1,262.8,339.1,262.8,339.1,262.8
				C339.1,262.8,339.1,262.8,339.1,262.8z"/>
		</g>
		<g>
			<path d="M339.2,262.9C339.2,262.8,339.2,262.8,339.2,262.9C339.1,262.8,339.1,262.8,339.2,262.9
				C339.1,262.8,339.2,262.9,339.2,262.9C339.2,262.9,339.2,262.9,339.2,262.9z"/>
		</g>
	</g>
	<g>
		<path d="M146.3,263.5c-1.3-1.4-3.2-2.4-5.1-2c-2,0.5-3.3,2.3-4.4,3.9c-4.2,6.1-5.1,14.1-3.2,21.2c0.8,3,2.1,5.7,3.9,8.2
			c-0.2,0.2-0.3,0.4-0.5,0.7c-0.5,0.8-0.9,1.8-0.6,2.8c0.4,1.2,1.6,1.5,2.7,1.8c0.6,0.2,1.2,0.3,1.8,0.4c0.2,0.1,0.4,0.1,0.5,0.2
			c1.4,0.4,2.8,0.2,4.2,0c0,0,0.1,0,0.2,0c0.1,0,0.2,0,0.4-0.1c0.2,0,0.4-0.1,0.6-0.1c0.7-0.1,1-0.9,0.9-1.5c-0.2-1-0.4-2-0.7-3.1
			c-0.3-1-0.5-2-1-2.9c-0.2-0.4-0.5-0.7-0.9-0.9c-0.2-0.5-0.5-0.8-1.1-1c-0.9-0.3-2,0.1-2.8,0.5c-0.5,0.3-1,0.6-1.5,1
			c-0.2,0.1-0.4,0.2-0.5,0.3c-2.9-4.1-4.3-9.2-4.2-14.3c0.1-3,0.7-6.1,2-8.9c1-2.3,3.6-7.6,6.7-5.2c1.6,1.2,2.8,3.2,3.8,5
			c1.1,2,1.9,4,2.5,6.2c0.4,1.5,2.8,0.9,2.4-0.7C151.4,270.9,149.3,266.6,146.3,263.5z M142.8,295.2
			C142.8,295.2,142.8,295.2,142.8,295.2C142.8,295.2,142.8,295.2,142.8,295.2C142.8,295.2,142.8,295.2,142.8,295.2
			C142.8,295.2,142.8,295.2,142.8,295.2z"/>
		<path d="M332.9,47.2c-15.6,5.1-28.7,17-35.5,31.9c-1.6,3.6-2.9,7.3-3.7,11.1c-0.8-0.1-1.5-0.3-2.3-0.4c0,0,0,0,0,0
			c-0.2-0.2-0.5-0.3-0.8-0.3c-0.5,0-1.1,0.4-1.2,0.9c-0.5,2.2-0.1,4.4,0.6,6.5c0.4,1,0.7,2,1.2,2.9c0.5,1,1.5,1.7,2.7,1.5
			c1.1-0.3,1.7-1.2,2.3-2c0.7-0.9,1.3-1.8,2-2.7c0.6-0.9,1.4-1.7,2-2.7c0.8-1.2,0-2.4-1.2-2.7c-0.9-0.2-1.9-0.4-2.8-0.5
			c3.4-14.6,12.8-27.5,25.4-35.5c3.8-2.4,7.8-4.3,12-5.6C335.1,49.1,334.4,46.7,332.9,47.2z"/>
		<path d="M565.4,183.6c-1.2-0.8-2.5-1.4-3.8-2.1c-0.6-0.4-1.3-0.7-1.9-1.1c-0.6-0.3-1.2-0.8-1.9-0.9c-1-0.2-2,0.4-2.2,1.5
			c-0.2,0.7-0.2,1.6-0.1,2.3c0,0.6,0.1,1.1,0.2,1.7c-22.1-0.6-44.3-0.8-66.4-0.5c-22.6,0.3-45.2,1-67.8,2.3
			c-12.7,0.7-25.5,1.5-38.2,2.5c-1.6,0.1-1.6,2.6,0,2.5c22.5-1.8,45.1-3,67.7-3.9c22.6-0.8,45.2-1.2,67.8-1
			c12.4,0.1,24.8,0.3,37.2,0.6c0,0.1,0,0.3,0,0.4c0,0.8,0,1.7,0.4,2.4c0.9,1.5,2.6,0.9,4,0.5c1.4-0.5,2.8-0.9,4.2-1.4
			c1.3-0.5,3-0.9,3.1-2.7C567.5,185.4,566.4,184.3,565.4,183.6z"/>
		<path d="M450.4,337.3c-0.1,0-0.3,0-0.4,0c-0.2,0-0.4-0.1-0.6,0c-1.5,0.3-2.9,0.8-4.2,1.4c-0.7,0.3-1.3,0.6-1.9,1
			c-0.7,0.4-1.4,0.8-1.6,1.6c-0.3,1.5,1,2.3,2.2,2.9c-11.1,12.9-19.8,27.8-25.6,43.8c-0.6,1.5,1.9,2.2,2.4,0.7
			c5.7-15.8,14.4-30.5,25.4-43.3c0.2,0.1,0.5,0.3,0.7,0.4c0.7,0.4,1.5,1,2.3,1.1c0.9,0.1,1.6-0.6,1.9-1.4c0.2-0.6,0.3-1.3,0.4-1.9
			c0.1-0.8,0.3-1.6,0.4-2.4c0.1-0.7,0.2-1.4,0.1-2.1C451.8,338.2,451.2,337.5,450.4,337.3z"/>
		<path d="M727.5,284.2c-11.8,0.9-23.3,3.9-33.9,8.9c-0.2-0.5-0.4-1-0.8-1.4c-0.6-0.7-1.6-0.7-2.3-0.2c-1,0.6-2,1.6-2.8,2.5
			c-0.9,1-1.6,2-2.3,3.1c-0.3,0.5-0.2,1.3,0.3,1.6c0.2,0.9,1.1,1.5,2,1.8c1.2,0.3,2.4,0.5,3.7,0.5c1.2,0,2.6,0.1,3.6-0.8
			c1.1-1,0.7-2.3,0.3-3.5c-0.2-0.4-0.4-0.9-0.6-1.3c10.3-4.9,21.5-7.9,32.9-8.7C729.1,286.6,729.1,284.1,727.5,284.2z"/>
	</g>
	<path d="M762.2,287.1c0-0.1-0.1-0.3-0.1-0.7l-0.2-1.4c-0.2-1.3-0.4-2.6-0.6-4s-0.4-2.9-0.7-4.4l-0.5-2.9c-0.2-1.1-0.2-1.2-0.2-1.2
		c-0.3-0.5-0.7-0.6-1-0.6c-0.3,0-0.6,0.1-0.7,0.3c-0.1,0.1-0.2,0.2-0.6,0.7c-0.2,0.3-0.6,0.8-0.9,1.4c-0.3,0.5-0.6,0.8-0.8,1.1
		c-0.1,0.1-0.1,0.2-0.2,0.2c0,0-0.1-0.1-0.1-0.1c-0.2-0.3-0.4-0.6-0.7-1c-0.4-0.6-0.7-1-0.9-1.4c-0.2-0.3-0.3-0.4-0.4-0.5l0,0
		c-0.3-0.4-0.7-0.6-1.2-0.6c-0.4,0-0.6,0.2-0.7,0.3c-0.1,0.1-0.2,0.4-0.3,1.1c0,0.4-0.1,0.9-0.1,1.4c0,0.5-0.1,0.9-0.1,1.4v0
		c-0.8,7-1.1,10.8-1.1,11.5c0,0.3,0.1,0.6,0.3,0.8c0.2,0.2,0.4,0.3,0.7,0.3c0.2,0,0.4-0.1,0.6-0.3l0,0c0,0,0,0,0,0c0,0,0,0,0,0
		c0.2-0.2,0.3-0.5,0.4-1.7c0-0.4,0.1-1.4,0.3-2.8c0.2-1.5,0.3-3.4,0.6-5.9c0.1-1.3,0.2-2.1,0.2-2.6c0,0,0,0,0.1,0.1
		c0.6,0.8,0.9,1.4,1.2,1.8c0.5,0.8,0.9,1.2,1.3,1.2c0.2,0,0.4-0.1,0.7-0.4c0.1-0.2,0.4-0.5,0.8-1l0.2-0.2c0.2-0.3,0.5-0.6,0.7-1
		c0.1-0.2,0.3-0.4,0.4-0.7c0.1,0.6,0.2,1.3,0.4,2.3c0.2,1.4,0.5,3.2,0.7,5.3c0.2,1.7,0.4,3.1,0.6,4.1c0.3,1.4,0.4,1.7,0.5,1.8
		c0.1,0.1,0.2,0.2,0.3,0.3c0.1,0.1,0.2,0.1,0.3,0.1c0,0,0.1,0,0.1,0c0.2,0,0.4-0.1,0.6-0.3c0.2-0.2,0.3-0.4,0.3-0.7
		c0-0.1,0-0.2,0-0.4C762.3,287.5,762.3,287.3,762.2,287.1z"/>
	<path d="M773,276.9c-0.1-0.6-0.2-1.3-0.4-2c-0.2-0.7-0.5-1.3-0.8-1.9c-0.4-0.6-0.8-1.1-1.4-1.4c-0.6-0.4-1.3-0.6-2.1-0.6
		c-0.7,0-1.3,0.1-1.8,0.4c-0.5,0.2-1,0.6-1.3,1c-0.4,0.4-0.6,0.9-0.8,1.5c-0.2,0.5-0.3,1.1-0.4,1.8c0,0.4-0.1,0.9-0.1,1.4
		c0,0.5,0,1.1,0,1.7c0,0.4,0,0.7,0.1,0.9c0,0.2,0,0.6,0,1.2c0,0.6,0,1.2,0.1,1.9c0.1,0.6,0.2,1.2,0.4,1.9c0.1,0.5,0.2,0.9,0.4,1.2
		c0.1,0.3,0.3,0.6,0.5,0.9c0.2,0.3,0.4,0.5,0.6,0.7c0.2,0.2,0.5,0.4,0.7,0.6c0.6,0.4,1.2,0.6,2,0.6c1,0,1.9-0.3,2.6-1
		c0.5-0.5,0.9-1,1.1-1.6c0.3-0.6,0.5-1.2,0.6-1.9c0.1-0.6,0.2-1.3,0.2-2c0-0.7,0-1.3,0-1.9c0-0.8,0-1.4-0.1-2
		C773.1,277.8,773.1,277.3,773,276.9z M768.3,273c0.6,0,1,0.2,1.4,0.6c0.4,0.4,0.7,0.9,0.9,1.5c0.2,0.6,0.4,1.2,0.4,1.9
		c0.1,0.6,0.1,1.1,0.1,1.6l-0.2-0.3l0.3,2c0,0.5,0,1.1-0.1,1.9c0,0.7-0.1,1.4-0.3,2.1c-0.2,0.6-0.5,1.2-0.8,1.6
		c-0.3,0.4-0.8,0.6-1.4,0.6c-0.3,0-0.6,0-0.8-0.1c-0.4-0.1-0.7-0.5-0.9-1.1c-0.3-0.7-0.5-1.4-0.6-2.2c-0.1-0.8-0.2-1.7-0.3-2.5
		c0-0.8-0.1-1.5-0.1-2c0-1.6,0.1-2.6,0.2-3.1c0.1-0.3,0.2-0.6,0.3-0.9c0.1-0.3,0.3-0.5,0.5-0.8c0.2-0.2,0.4-0.4,0.6-0.5
		C767.7,273.1,768,273,768.3,273z"/>
	<path d="M777.9,286.3v0.3c-0.2,0-0.5-0.1-0.8-0.1c-0.2,0-0.3,0-0.4,0c0-1.3-0.1-6.6-0.1-8.5c0-5.2-0.1-5.4-0.2-5.5
		c-0.2-0.6-0.7-0.7-0.9-0.7c-0.2,0-0.4,0.1-0.6,0.3c-0.1,0.1-0.3,0.3-0.3,6.9c0,2.6,0,4.5,0,5.9c0,1.8,0.1,2.2,0.1,2.4
		c0.1,0.3,0.2,0.6,0.3,0.8c0.1,0.2,0.3,0.4,0.5,0.5c0.1,0,0.2,0.1,0.4,0.1c0.2,0,0.4,0,0.6,0c0.2,0,0.4,0,0.6,0c0.2,0,0.3,0,0.4,0
		c0.3,0,0.5-0.1,0.8-0.2c0.3-0.2,0.4-0.5,0.4-0.8c0-0.3-0.1-0.5-0.4-0.7L777.9,286.3z"/>
	<path d="M787.8,271.9c-0.2-0.1-0.5-0.1-0.8-0.1h-0.8c-0.3,0-0.5,0-0.8,0c-1.2,0-2.2,0.1-2.9,0.1c-1,0-1.2,0.1-1.4,0.1
		c-0.4,0.1-0.7,0.5-0.7,0.9c0,0.4,0.2,0.6,0.6,0.8c0.2,0.1,0.5,0.2,1.7,0.2h0.7l0,4.5c0,1.1,0,2.3,0,3.4c0,1.2,0,2.3,0,3.5
		c0,2.6,0.1,2.8,0.2,2.9l0.6,0.9v-0.5c0.1,0,0.1,0,0.2,0c0.4,0,0.7-0.2,0.8-0.3l0,0c0,0,0,0,0-0.1l0,0l0,0c0.1-0.2,0.1-1.1,0.2-7.6
		c0-2.1,0-3.8,0-5c0-0.8,0-1.4,0-1.8l0.1,0c0.2,0,0.4,0,0.7,0l0.7,0c0.2,0,0.4,0,0.6,0c0.2,0,0.3-0.1,0.4-0.1
		c0.2-0.1,0.3-0.2,0.5-0.3c0.2-0.2,0.2-0.5,0.2-0.6C788.3,272.1,788.1,272,787.8,271.9z"/>
	<path d="M792.9,273.3c1.6,0,2-0.2,2.1-0.5l0.3-0.5h-0.1c0,0,0-0.1,0-0.1c0-0.3-0.1-0.5-0.3-0.7c-0.2-0.2-0.6-0.3-1.4-0.3h-0.6
		c-0.2,0-0.4,0-0.6,0c-0.5,0-1,0-1.3,0.1c-0.4,0-0.7,0.2-0.9,0.6l0,0c0,0.1-0.1,0.3-0.1,2.4c0,0.3,0,0.7,0,1.5l0,2.5c0,1,0,2,0,3
		c0,1.1,0,2,0.1,2.9c0,0.9,0.1,1.7,0.1,2.3c0,0.9,0.1,1.1,0.1,1.2c0.1,0.1,0.1,0.3,0.2,0.3c0.1,0.1,0.2,0.2,0.4,0.3
		c0.1,0,0.3,0.1,0.6,0.1c0.2,0,0.6,0,1,0l2.2,0l0.1-0.2c0.2-0.4,0.3-0.7,0.3-1c0-0.4-0.2-0.7-0.5-0.8c-0.2,0-0.5-0.1-1.5-0.1
		c-0.3,0-0.6,0-0.8,0h0c0,0,0-0.1,0-0.2c0-0.2,0-0.6-0.1-1c-0.1-1-0.1-2-0.1-2.8c0-0.2,0-0.4,0-0.5c0-0.2,0-0.3,0-0.4l0-0.1
		c0.2,0,0.5-0.1,0.7-0.2c0.4-0.2,0.6-0.5,0.6-0.9c0-0.4-0.2-1-1.3-1c0-0.2,0-0.4,0-0.8c0-0.6,0-1.4-0.1-2.5l0-2.6c0.1,0,0.3,0,0.4,0
		C792.6,273.3,792.7,273.3,792.9,273.3z"/>
	<path d="M805.3,283.4c-0.2-3.1-0.3-5.6-0.4-7.4c-0.1-1.8-0.2-2.9-0.3-3.3c-0.2-0.9-0.7-1-1-1c-0.2,0-0.4,0.1-0.7,0.5
		c-0.1,0.2-0.2,0.5-0.2,0.8v0.1c0,0.6,0.1,1.3,0.2,2.1c0.1,0.8,0.1,1.7,0.1,2.7c0,0.2,0,0.4,0,0.8c0,0.4,0.1,0.8,0.1,1.4
		c0.1,0.8,0.1,1.5,0.1,2.3c0,0.2,0,0.3,0,0.5c-0.1-0.3-0.3-0.6-0.4-1l-1.6-3.9c-1.8-4.5-2.4-5.3-2.6-5.6c-0.3-0.3-0.6-0.5-0.9-0.5
		c-0.3,0-0.8,0.2-0.9,1.2l0,0.2c0,0.4,0,1.2,0.1,2.5l0.2,5.1c0.1,2.2,0.2,3.8,0.2,4.9c0.1,1.7,0.1,1.8,0.1,1.8
		c0,0.3,0.2,0.6,0.4,0.8c0.3,0.3,0.7,0.3,1.1,0.2c0.1-0.1,0.3-0.2,0.4-0.4c0-0.1,0.1-0.3,0.1-0.9c0-0.6,0-1.6-0.1-3.1
		c-0.1-1.5-0.1-3.3-0.2-5.6c0-0.2,0-0.5,0-0.7c0.3,0.7,0.6,1.4,0.9,2.1c0.4,1,0.9,2.1,1.3,3.2c0.5,1.2,0.9,2.1,1.2,2.9
		c0.3,0.7,0.6,1.2,0.7,1.5c0.2,0.3,0.3,0.5,0.4,0.7c0.1,0.2,0.3,0.3,0.4,0.4c0.1,0.1,0.3,0.1,0.5,0.1c0.3,0,0.5-0.1,0.7-0.3
		c0.1-0.2,0.2-0.4,0.3-0.6c0-0.2,0.1-0.4,0.1-0.6c0-0.2,0-0.4,0-0.5c0-0.4,0-0.8,0-1.4C805.3,284.6,805.3,284,805.3,283.4z"/>
	<path d="M817.6,271.6c-1.1-0.7-2-1.1-2.8-1.1l-0.2,0c-0.1,0-0.2,0-0.3,0.1v-1l-0.6,1.9c0,0.1,0,0.2,0,0.9c0,0.5,0,1,0,1.7v0.3l0,0
		c0,0.6,0,1.2,0.1,1.9c0,0.5,0.1,1.2,0.1,2.2c0,1,0,2.3,0,3.8c0,1.6,0,2.9,0.1,3.7c0,1.2,0,1.5,0.1,1.5c0,0.2,0.1,0.5,0.3,0.7
		c0.2,0.2,0.4,0.3,0.7,0.3c0.3,0,0.7-0.2,1-0.5l0.1-0.1l-0.1-3.1v-1.6c0-1,0-1.2,0-1.2c0,0,0,0,0.1-0.1c0.1-0.1,0.3-0.2,0.4-0.3
		c0.5-0.3,0.9-0.6,1.3-1c0.4-0.3,0.8-0.7,1.1-1.2c0.3-0.4,0.6-0.9,0.8-1.4c0.2-0.5,0.3-1.1,0.3-1.7c0-0.9-0.2-1.8-0.6-2.6
		C818.9,272.8,818.3,272.1,817.6,271.6z M815.8,276.7c0-0.2,0-0.5,0-0.8c0-0.3,0-0.7,0-1.1c0-0.4,0-0.8-0.1-1.1c0-0.3,0-0.4,0-0.6
		l0-0.2c0.7,0.3,1.2,0.7,1.5,1.2c0.5,0.6,0.7,1.4,0.7,2.3c0,0.3-0.1,0.7-0.2,1c-0.1,0.3-0.3,0.7-0.6,1c-0.2,0.3-0.5,0.6-0.8,0.8
		c-0.1,0.1-0.3,0.2-0.4,0.3c0-0.1,0-0.2,0-0.4C815.9,278.5,815.9,277.7,815.8,276.7z"/>
	<path d="M824.7,286.3v0.3c-0.2,0-0.5-0.1-0.8-0.1c-0.2,0-0.3,0-0.4,0c0-1.3-0.1-6.6-0.1-8.5c0-5.2-0.1-5.4-0.2-5.5
		c-0.2-0.6-0.7-0.7-0.9-0.7c-0.2,0-0.4,0.1-0.6,0.3c-0.1,0.1-0.3,0.3-0.3,6.9c0,2.6,0,4.5,0,5.9c0,1.8,0.1,2.2,0.1,2.4
		c0.1,0.3,0.2,0.6,0.3,0.8c0.1,0.2,0.3,0.4,0.5,0.5c0.1,0,0.2,0.1,0.4,0.1c0.2,0,0.4,0,0.6,0c0.2,0,0.4,0,0.6,0c0.2,0,0.3,0,0.4,0
		c0.3,0,0.5-0.1,0.8-0.2c0.3-0.2,0.4-0.5,0.4-0.8c0-0.3-0.1-0.5-0.4-0.7L824.7,286.3z"/>
	<path d="M834.7,280.3c-0.4-1.4-0.7-2.5-0.9-3.5c-1.1-4.2-1.4-4.4-1.5-4.6c-0.4-0.4-1.1-0.3-1.6,0.2c-0.3,0.3-0.5,0.6-0.6,0.9
		c-0.1,0.3-0.5,2.4-1.3,6.4c-0.4,2-0.7,3.6-1,4.8c-0.2,1.2-0.4,2-0.4,2.3c0,0.2-0.1,0.4-0.1,0.5c0,0.2,0,0.3,0,0.4
		c0,0.3,0.1,0.5,0.3,0.7c0.2,0.2,0.4,0.3,0.7,0.3c0.4,0,0.7-0.2,0.9-0.6c0-0.1,0.1-0.2,0.2-0.7c0.1-0.3,0.2-0.8,0.3-1.5
		c0.1-0.6,0.2-1.2,0.4-1.8c0.1-0.6,0.2-1.2,0.4-1.8c0.1-0.7,0.2-1.1,0.3-1.3c0,0,0.1,0,0.1,0c1.3,0,1.9,0,2.1,0.1
		c0,0.1,0.1,0.4,0.2,0.9c0.4,1.9,0.8,3.4,1.1,4.5c0.3,1,0.5,1.7,0.6,1.9c0.2,0.6,0.6,0.7,0.9,0.7c0.3,0,0.5-0.1,0.7-0.3
		c0.2-0.2,0.3-0.4,0.3-0.7c0-0.2-0.1-0.7-0.7-3.1C835.4,283.3,835,281.7,834.7,280.3z M832.2,279c-0.2,0-0.4,0-0.6,0h-0.7
		c0-0.1,0-0.2,0-0.3c0.1-0.4,0.2-1.1,0.4-1.9c0-0.3,0.1-0.5,0.1-0.7c0,0,0,0.1,0,0.1c0.1,0.5,0.2,1,0.4,1.4c0.1,0.3,0.2,0.5,0.2,0.7
		c0,0.2,0.1,0.3,0.1,0.4C832.2,278.9,832.2,278.9,832.2,279z"/>
	<path d="M844.1,285.8c0.5-0.8,0.8-1.8,0.8-2.7c0-0.9-0.1-1.6-0.3-2.3c-0.2-0.7-0.5-1.3-0.9-1.9c0-0.1-0.1-0.2-0.5-0.5l-2.4-2.3
		c-0.4-0.4-0.5-0.5-0.5-0.5c0-0.1-0.1-0.2-0.1-0.3c0-0.1,0-0.2,0-0.3c0-0.5,0.1-0.9,0.4-1.2c0.3-0.3,0.7-0.6,1.2-0.8
		c0.5-0.2,0.7-0.3,0.7-0.4c0.2-0.1,0.2-0.3,0.2-0.6c0-0.6-0.4-0.9-1-0.9c-0.5,0-1,0.1-1.4,0.4c-0.4,0.2-0.8,0.5-1.1,0.9
		c-0.3,0.4-0.6,0.8-0.8,1.2c-0.2,0.5-0.3,0.9-0.3,1.4c0,0.5,0.1,1,0.4,1.5c0.2,0.5,0.5,0.9,0.9,1.2c0.1,0.1,0.3,0.3,0.5,0.5
		c0.2,0.2,0.6,0.6,1,1c0.4,0.4,0.6,0.7,0.9,1c0.2,0.3,0.4,0.5,0.5,0.8c0.1,0.3,0.2,0.6,0.3,0.9c0.1,0.3,0.1,0.8,0.1,1.3
		c0,0.8-0.2,1.4-0.7,2.1c-0.4,0.6-1,1-1.8,1.2c-1.4,0.3-1.7,0.5-1.9,0.6c-0.2,0.1-0.3,0.3-0.3,0.8c0,0.6,0.4,1,1,1
		c0.2,0,0.4,0,0.7-0.1c0.3-0.1,0.6-0.1,0.9-0.2c0.3-0.1,0.6-0.2,0.8-0.3c0.3-0.1,0.5-0.2,0.6-0.2
		C842.9,287.3,843.6,286.6,844.1,285.8z"/>
	<path d="M850.3,288.6c0.1,0,0.1,0,0.2,0c0.4,0,0.7-0.2,0.8-0.3l0,0c0,0,0,0,0-0.1l0,0l0,0c0.1-0.2,0.1-1.1,0.2-7.6c0-2.1,0-3.8,0-5
		c0-0.8,0-1.4,0-1.8l0.1,0c0.2,0,0.4,0,0.7,0l0.7,0c0.2,0,0.4,0,0.6,0c0.2,0,0.3-0.1,0.4-0.1c0.2-0.1,0.3-0.2,0.5-0.3
		c0.2-0.2,0.2-0.5,0.2-0.6c-0.1-0.5-0.4-0.7-0.6-0.8c-0.2-0.1-0.5-0.1-0.8-0.1h-0.8c-0.3,0-0.5,0-0.8,0c-1.2,0-2.2,0.1-2.9,0.1
		c-1,0-1.2,0.1-1.4,0.1c-0.4,0.1-0.7,0.5-0.7,0.9c0,0.4,0.2,0.6,0.6,0.8c0.2,0.1,0.5,0.2,1.7,0.2h0.7l0,4.5c0,1.1,0,2.3,0,3.4
		c0,1.2,0,2.3,0,3.5c0,2.6,0.1,2.8,0.2,2.9l0.6,0.9V288.6z"/>
	<path d="M856.1,275.7c0,0.9,0,2.3,0.1,4c0.1,2.5,0.1,4.4,0.1,5.8c0,1.9,0.1,2.3,0.1,2.4c0.1,0.2,0.2,0.4,0.3,0.5
		c0.2,0.2,0.4,0.2,0.6,0.2c0.2,0,0.4-0.1,0.6-0.2c0.1-0.1,0.3-0.3,0.3-0.5c0.1-0.2,0.1-0.3,0.1-0.5c0-0.2,0-0.3,0-0.4
		c0,0,0-0.2,0-0.6l0-1.7c0-1.8-0.1-3.5-0.1-5.3c0-1.7-0.1-3.5-0.1-5.3l0-1.6l-0.3-0.3c-0.2-0.2-0.5-0.3-0.7-0.3c-0.7,0-1,0.6-1,1.8
		l0,0.4C856.1,274.1,856.1,274.4,856.1,275.7z"/>
	<path d="M862.9,287.9c0.6,0.4,1.4,0.6,2.3,0.6h0.1c1,0,1.2-0.7,1.2-1c0-0.3-0.2-0.9-1.2-1c-0.6-0.1-1.1-0.2-1.4-0.4
		c-0.3-0.1-0.6-0.4-0.8-0.7c-0.8-1.1-1.2-2.9-1.2-5.4c0-0.8,0-1.5,0.1-2.1c0.1-0.6,0.1-1.2,0.2-1.7c0.1-0.5,0.3-0.9,0.5-1.3
		c0.2-0.4,0.4-0.8,0.7-1.1c0.3-0.4,0.7-0.7,0.9-0.7c1-0.1,1.1-0.7,1.1-1c0-0.2-0.1-0.4-0.4-0.7c-0.2-0.2-0.5-0.3-0.6-0.3l-0.2,0
		c-0.7,0-1.2,0.2-1.7,0.7c-0.4,0.4-0.8,0.8-1.1,1.3l0,0c-0.7,1-1.1,2.2-1.3,3.4c-0.2,1.2-0.3,2.4-0.3,3.6c0,1.2,0,2,0.1,2.5
		c0.1,0.8,0.3,1.5,0.5,2.2c0.2,0.7,0.5,1.4,0.9,1.9C861.8,287.1,862.3,287.5,862.9,287.9z"/>
	<g>
		<path d="M397.5,163.6c0.5-0.5,1-1.1,1.3-1.7c0.4-0.7,0.5-1.4,0.5-2.3c0-1.6-0.6-2.8-1.7-3.7c-0.8-0.7-1.6-1-2.3-1
			c-0.2,0-0.3,0-0.5,0.1v-0.6l-0.6,1.2c-0.1,0.1-0.1,0.3-0.1,3.8c0,2.5,0,4.7,0,6.6c0,1.9,0.1,3.5,0.2,4.8l0,0.5c0,0.1,0,0.2,0,0.3
			c0,0.4,0.2,0.6,0.4,0.7c0.2,0.1,0.4,0.2,0.7,0.2c0.6,0,1.1-0.1,1.7-0.2c0.6-0.1,1.1-0.4,1.6-0.7c0.5-0.3,0.9-0.7,1.2-1.2
			c0.3-0.5,0.5-1.1,0.5-1.8c0-1.2-0.2-2.2-0.7-3C399.2,164.8,398.5,164.1,397.5,163.6z M398.4,168.4c0,0.5-0.1,0.8-0.4,1.1
			c-0.3,0.3-0.6,0.5-0.9,0.6c-0.3,0.1-0.5,0.2-0.8,0.2c0-0.1,0-0.1,0-0.2c0-0.3,0-0.6,0-0.9l0-1.2c0-0.4,0-0.8,0-1.3
			c0-0.5,0-0.8,0-1.1v-0.4c0.6,0.3,1,0.6,1.5,1.1C398.2,166.9,398.4,167.6,398.4,168.4z M396.9,161.2c-0.2,0.3-0.4,0.6-0.7,0.8
			c0-0.1,0-0.2,0-0.3v-4.3c0.2,0.1,0.3,0.3,0.5,0.4c0.3,0.3,0.4,0.6,0.6,0.9c0,0.1,0.1,0.4,0.1,0.9
			C397.3,160.2,397.1,160.7,396.9,161.2z"/>
		<path d="M410.6,156.9c-0.2-0.1-0.4-0.2-0.7-0.2c0,0,0,0,0,0c-0.2,0-0.5,0.1-0.6,0.3c-0.1,0.2-0.2,0.4-0.2,0.6c0,0.2,0,0.4,0.1,0.4
			c0,0,0,0,0,0.2c0,0.2,0,0.4,0,0.7c0,0.3,0,0.9,0,1.7c0,0.8,0,2-0.1,3.3c0,1,0,1.8-0.1,2.4c0,0.6,0,1-0.1,1.2
			c0,0.3-0.1,0.5-0.2,0.8c-0.1,0.3-0.3,0.6-0.5,0.9c-0.2,0.2-0.4,0.5-0.7,0.6c-0.5,0.3-1,0.3-1.4,0c-0.2-0.1-0.4-0.3-0.6-0.5
			c-0.2-0.2-0.3-0.5-0.4-0.7c-0.1-0.3-0.2-0.5-0.3-0.8c-0.1-0.4-0.3-1.1-0.3-1.8c-0.1-0.8-0.2-1.7-0.2-2.8c-0.1-1.6-0.2-2.8-0.2-3.7
			c0-0.9-0.1-1.5-0.1-1.8c-0.1-0.7-0.2-1.1-0.5-1.3c-0.3-0.2-0.8-0.2-1.2,0.2l-0.1,0.1v0c-0.1,0.2-0.2,0.5-0.2,1c0,0.3,0,0.7,0,1.2
			l0.1,1.8c0,0.2,0,0.5,0.1,0.8l0.1,0.9c0,0.4,0.1,0.9,0.1,1.2c0,0.4,0,0.6,0,0.7c0,0.7,0.1,1.4,0.2,2.3c0.1,0.9,0.3,1.7,0.6,2.5
			c0.3,0.8,0.8,1.5,1.3,2.1c0.6,0.6,1.4,0.9,2.4,0.9c0.5,0,1-0.1,1.4-0.3c0.4-0.2,0.8-0.5,1.1-0.8c0.3-0.3,0.6-0.7,0.8-1.1
			c0.2-0.4,0.4-0.8,0.5-1.3c0.2-0.8,0.3-3.2,0.3-7.4c0-3.6-0.1-3.8-0.2-4C410.9,157.2,410.8,157,410.6,156.9z"/>
		<path d="M415,168.7c0-1.8-0.1-3.5-0.1-5.3c0-1.7-0.1-3.5-0.1-5.3l0-1.6l-0.3-0.3c-0.2-0.2-0.5-0.3-0.7-0.3c-0.7,0-1,0.6-1,1.8
			l0,0.4c0,0.1,0,0.3,0.1,1.6c0,0.9,0,2.3,0.1,4c0.1,2.5,0.1,4.4,0.1,5.8c0,1.9,0.1,2.3,0.1,2.4c0.1,0.2,0.2,0.4,0.3,0.5
			c0.2,0.2,0.4,0.2,0.6,0.2c0.2,0,0.4-0.1,0.6-0.2c0.1-0.1,0.3-0.3,0.3-0.5c0.1-0.2,0.1-0.3,0.1-0.5c0-0.2,0-0.3,0-0.4
			c0,0,0-0.2,0-0.6L415,168.7z"/>
		<path d="M419.7,170.2v0.3c-0.2,0-0.5-0.1-0.8-0.1c-0.2,0-0.3,0-0.4,0c0-1.3-0.1-6.6-0.1-8.5c0-5.2-0.1-5.4-0.2-5.5
			c-0.2-0.6-0.7-0.7-0.9-0.7c-0.2,0-0.4,0.1-0.6,0.3c-0.1,0.1-0.3,0.3-0.3,6.9c0,2.6,0,4.5,0,5.9c0,1.8,0.1,2.2,0.1,2.4
			c0.1,0.3,0.2,0.6,0.3,0.8c0.1,0.2,0.3,0.4,0.5,0.5c0.1,0,0.2,0.1,0.4,0.1c0.2,0,0.4,0,0.6,0c0.2,0,0.4,0,0.6,0c0.2,0,0.3,0,0.4,0
			c0.3,0,0.5-0.1,0.8-0.2c0.3-0.2,0.4-0.5,0.4-0.8c0-0.3-0.1-0.5-0.4-0.7L419.7,170.2z"/>
		<path d="M428.5,157.6c-0.6-0.8-1.3-1.5-2.1-2c-0.8-0.5-1.8-0.8-2.8-0.8c-0.2,0-0.3,0-0.4,0c-0.1,0-0.2,0-0.3,0.1
			c-0.4,0.1-0.6,0.3-0.7,0.5c-0.1,0.2-0.1,0.5-0.1,1c0,0.3,0,0.8,0,1.5c0,0.7,0.1,1.5,0.1,2.4c0,1,0.1,1.8,0.1,2.4
			c0,0.6,0,1,0.1,1.3c0.1,2.1,0.2,3.8,0.2,5.1c0,1.3,0.1,2.2,0.2,2.5c0.1,0.4,0.4,0.9,1.4,0.9h0.2c0.8,0,1.5-0.1,2.2-0.4
			c0.6-0.2,1.2-0.6,1.7-1.1c0.5-0.5,0.9-1,1.2-1.6c0.3-0.6,0.5-1.3,0.7-2.1c0.1-0.4,0.1-1.1,0.1-2.3c0-1.3-0.1-2.6-0.3-3.8
			C429.7,160,429.3,158.7,428.5,157.6z M424.7,170.4c0-0.2-0.1-0.6-0.1-1.2c-0.1-0.8-0.1-2-0.2-3.4c0-0.1,0-0.3,0-0.8l-0.1-5.7
			c0-0.6,0-1.1-0.1-1.5c0-0.4-0.1-0.7-0.1-1c0,0,0,0,0-0.1c0.1,0,0.2,0,0.4,0.1c0.8,0.3,1.5,0.7,1.9,1.2c0.5,0.6,0.9,1.2,1.2,1.9
			c0.3,0.7,0.5,1.5,0.5,2.4c0.1,0.8,0.1,1.7,0.1,2.4c0,1.5-0.1,2.1-0.1,2.3c-0.3,0.9-0.7,1.6-1.1,2.1c-0.5,0.5-1.1,0.8-1.9,1
			C424.9,170.4,424.7,170.4,424.7,170.4z"/>
		<path d="M437.3,162.8c0-0.1-0.1-0.2-0.5-0.5l-2.4-2.3c-0.4-0.4-0.5-0.5-0.5-0.5c0-0.1-0.1-0.2-0.1-0.3c0-0.1,0-0.2,0-0.3
			c0-0.5,0.1-0.9,0.4-1.2c0.3-0.3,0.7-0.6,1.2-0.8c0.5-0.2,0.7-0.3,0.7-0.4c0.2-0.1,0.2-0.3,0.2-0.6c0-0.6-0.4-0.9-1-0.9
			c-0.5,0-1,0.1-1.4,0.4c-0.4,0.2-0.8,0.5-1.1,0.9c-0.3,0.4-0.6,0.8-0.8,1.2c-0.2,0.5-0.3,0.9-0.3,1.4c0,0.5,0.1,1,0.4,1.5
			c0.2,0.5,0.5,0.9,0.9,1.2c0.1,0.1,0.3,0.3,0.5,0.5c0.2,0.2,0.6,0.6,1,1c0.4,0.4,0.6,0.7,0.9,1c0.2,0.3,0.4,0.5,0.5,0.8
			c0.1,0.3,0.2,0.6,0.3,0.9c0.1,0.3,0.1,0.8,0.1,1.3c0,0.8-0.2,1.4-0.7,2.1c-0.4,0.6-1,1-1.8,1.2c-1.4,0.3-1.7,0.5-1.9,0.6
			c-0.2,0.1-0.3,0.3-0.3,0.8c0,0.6,0.4,1,1,1c0.2,0,0.4,0,0.7-0.1c0.3-0.1,0.6-0.1,0.9-0.2c0.3-0.1,0.6-0.2,0.8-0.3
			c0.3-0.1,0.5-0.2,0.6-0.2c0.8-0.5,1.5-1.1,2-2c0.5-0.8,0.8-1.8,0.8-2.7c0-0.9-0.1-1.6-0.3-2.3C438,164,437.7,163.3,437.3,162.8z"
			/>
		<path d="M450.8,155.5c-1.1-0.7-2-1.1-2.8-1.1l-0.2,0c-0.1,0-0.2,0-0.3,0.1v-1l-0.6,1.9c0,0.1,0,0.2,0,0.9c0,0.5,0,1,0,1.7v0.3l0,0
			c0,0.6,0,1.2,0.1,1.9c0,0.5,0.1,1.2,0.1,2.2c0,1,0,2.3,0,3.8c0,1.6,0,2.9,0.1,3.7c0,1.2,0,1.5,0.1,1.5c0,0.2,0.1,0.5,0.3,0.7
			c0.2,0.2,0.4,0.3,0.7,0.3c0.3,0,0.7-0.2,1-0.5l0.1-0.1l-0.1-3.1V167c0-1,0-1.2,0-1.2c0,0,0,0,0.1-0.1c0.1-0.1,0.3-0.2,0.4-0.3
			c0.5-0.3,0.9-0.6,1.3-1c0.4-0.3,0.8-0.7,1.1-1.2c0.3-0.4,0.6-0.9,0.8-1.4c0.2-0.5,0.3-1.1,0.3-1.7c0-0.9-0.2-1.8-0.6-2.6
			C452.1,156.7,451.5,156,450.8,155.5z M449,160.6c0-0.2,0-0.5,0-0.8c0-0.3,0-0.7,0-1.1c0-0.4,0-0.8-0.1-1.1c0-0.3,0-0.4,0-0.6
			l0-0.2c0.7,0.3,1.2,0.7,1.5,1.2c0.5,0.6,0.7,1.4,0.7,2.3c0,0.3-0.1,0.7-0.2,1c-0.1,0.3-0.3,0.7-0.6,1c-0.2,0.3-0.5,0.6-0.8,0.8
			c-0.1,0.1-0.3,0.2-0.4,0.3c0-0.1,0-0.2,0-0.4C449.1,162.4,449.1,161.6,449,160.6z"/>
		<path d="M461,169c-0.2-0.5-0.4-0.9-0.5-1.4c-0.2-0.4-0.3-0.7-0.4-0.9c-0.4-0.8-0.9-1.4-1.3-1.7l-0.1-0.1h0c0,0,0,0-0.1-0.1
			c0.2-0.1,0.4-0.2,0.6-0.4c0.3-0.2,0.5-0.5,0.7-0.8c0.2-0.3,0.4-0.6,0.5-1c0.2-0.3,0.3-0.6,0.3-0.9c0-0.1,0-0.2,0-0.4v-0.4
			c0-1-0.1-1.9-0.3-2.6c-0.2-0.8-0.7-1.6-1.4-2.3c-0.2-0.2-0.4-0.4-0.6-0.5c-0.2-0.2-0.5-0.4-0.8-0.5c-0.3-0.2-0.6-0.3-0.9-0.4
			c-0.6-0.2-1.2-0.3-1.8,0.2l-0.1,0.1l0,0.2c0,0,0,0.1,0,0.1l-0.1,0l0.1,0.1c-0.1,0.4-0.1,1.2-0.1,2.8c0,2,0,3.9-0.1,5.8
			c0,0.3,0,0.7,0,1.1v3.2c0,0.5,0,0.9,0,1.1c0,0.6,0.1,1.1,0.1,1.4c0,0.4,0,0.7,0,0.8c0,0.3,0.1,0.5,0.3,0.7
			c0.1,0.2,0.3,0.4,0.8,0.4c0.2,0,0.3,0,0.5-0.1c0.2-0.1,0.3-0.3,0.4-0.5c0-0.1,0.1-0.3,0.1-1.1v-1.3c0-0.4,0-0.8,0-1.2
			c0-0.5,0-1.1,0-1.6v-1c0.2,0.1,0.4,0.3,0.6,0.4c0.3,0.3,0.6,0.7,0.8,1.1c0.2,0.4,0.4,0.8,0.6,1.3c0.2,0.5,0.3,0.9,0.4,1.2
			c0.5,1.6,0.8,2,0.9,2.1l0.1-0.1l-0.1,0.1c0.2,0.1,0.3,0.2,0.5,0.2c0.2,0,0.5,0,0.8-0.3c0.2-0.2,0.3-0.5,0.3-0.7c0-0.1,0-0.4-0.2-1
			C461.3,169.9,461.2,169.5,461,169z M456.9,156.9c0.6,0.4,1.1,0.8,1.4,1.4c0.4,0.7,0.6,1.5,0.6,2.5c0,0.2,0,0.4,0,0.5
			c0,0.1,0,0.2,0,0.3c0,0.1-0.1,0.1-0.1,0.2c-0.1,0.1-0.1,0.2-0.3,0.4c-0.4,0.6-0.6,0.8-0.7,0.8c0,0-0.1,0-0.2,0.1
			c-0.1,0.1-0.3,0.1-0.6,0.2l-0.1,0v-0.2c0-1.3,0-2.4,0-3.4c0-1,0-1.9,0-2.6C456.9,157.1,456.9,157,456.9,156.9z"/>
		<path d="M467.8,170.5c-0.2,0-0.5-0.1-1.5-0.1c-0.3,0-0.6,0-0.8,0h0c0,0,0-0.1,0-0.2c0-0.2,0-0.6-0.1-1c-0.1-1-0.1-2-0.1-2.8
			c0-0.2,0-0.4,0-0.5c0-0.2,0-0.3,0-0.4l0-0.1c0.2,0,0.5-0.1,0.7-0.2c0.4-0.2,0.6-0.5,0.6-0.9c0-0.4-0.2-1-1.3-1c0-0.2,0-0.4,0-0.8
			c0-0.6,0-1.4-0.1-2.5l0-2.6c0.1,0,0.3,0,0.4,0c0.2,0,0.3,0,0.5,0c1.6,0,2-0.2,2.1-0.5l0.3-0.5h-0.1c0,0,0-0.1,0-0.1
			c0-0.3-0.1-0.5-0.3-0.7c-0.2-0.2-0.6-0.3-1.4-0.3h-0.6c-0.2,0-0.4,0-0.6,0c-0.5,0-1,0-1.3,0.1c-0.4,0-0.7,0.2-0.9,0.6l0,0
			c0,0.1-0.1,0.3-0.1,2.4c0,0.3,0,0.7,0,1.5l0,2.5c0,1,0,2,0,3c0,1.1,0,2,0.1,2.9c0,0.9,0.1,1.7,0.1,2.3c0,0.9,0.1,1.1,0.1,1.2
			c0.1,0.1,0.1,0.3,0.2,0.3c0.1,0.1,0.2,0.2,0.4,0.3c0.1,0,0.3,0.1,0.6,0.1c0.2,0,0.6,0,1,0l2.2,0l0.1-0.2c0.2-0.4,0.3-0.7,0.3-1
			C468.4,170.9,468.2,170.6,467.8,170.5z"/>
		<path d="M475.6,162.8c0-0.1-0.1-0.2-0.5-0.5l-2.4-2.3c-0.4-0.4-0.5-0.5-0.5-0.5c0-0.1-0.1-0.2-0.1-0.3c0-0.1,0-0.2,0-0.3
			c0-0.5,0.1-0.9,0.4-1.2c0.3-0.3,0.7-0.6,1.2-0.8c0.5-0.2,0.7-0.3,0.7-0.4c0.2-0.1,0.2-0.3,0.2-0.6c0-0.6-0.4-0.9-1-0.9
			c-0.5,0-1,0.1-1.4,0.4c-0.4,0.2-0.8,0.5-1.1,0.9c-0.3,0.4-0.6,0.8-0.8,1.2c-0.2,0.5-0.3,0.9-0.3,1.4c0,0.5,0.1,1,0.4,1.5
			c0.2,0.5,0.5,0.9,0.9,1.2c0.1,0.1,0.3,0.3,0.5,0.5c0.2,0.2,0.6,0.6,1,1c0.4,0.4,0.6,0.7,0.9,1c0.2,0.3,0.4,0.5,0.5,0.8
			c0.1,0.3,0.2,0.6,0.3,0.9c0.1,0.3,0.1,0.8,0.1,1.3c0,0.8-0.2,1.4-0.7,2.1c-0.4,0.6-1,1-1.8,1.2c-1.4,0.3-1.7,0.5-1.9,0.6
			c-0.2,0.1-0.3,0.3-0.3,0.8c0,0.6,0.4,1,1,1c0.2,0,0.4,0,0.7-0.1c0.3-0.1,0.6-0.1,0.9-0.2c0.3-0.1,0.6-0.2,0.8-0.3
			c0.3-0.1,0.5-0.2,0.6-0.2c0.8-0.5,1.5-1.1,2-2c0.5-0.8,0.8-1.8,0.8-2.7c0-0.9-0.1-1.6-0.3-2.3C476.2,164,475.9,163.3,475.6,162.8z
			"/>
		<path d="M484.7,164.7c-0.2-0.7-0.5-1.3-0.9-1.9c0-0.1-0.1-0.2-0.5-0.5L481,160c-0.4-0.4-0.5-0.5-0.5-0.5c0-0.1-0.1-0.2-0.1-0.3
			c0-0.1,0-0.2,0-0.3c0-0.5,0.1-0.9,0.4-1.2c0.3-0.3,0.7-0.6,1.2-0.8c0.5-0.2,0.7-0.3,0.7-0.4c0.2-0.1,0.2-0.3,0.2-0.6
			c0-0.6-0.4-0.9-1-0.9c-0.5,0-1,0.1-1.4,0.4c-0.4,0.2-0.8,0.5-1.1,0.9c-0.3,0.4-0.6,0.8-0.8,1.2c-0.2,0.5-0.3,0.9-0.3,1.4
			c0,0.5,0.1,1,0.4,1.5c0.2,0.5,0.5,0.9,0.9,1.2c0.1,0.1,0.3,0.3,0.5,0.5c0.2,0.2,0.6,0.6,1,1c0.4,0.4,0.6,0.7,0.9,1
			c0.2,0.3,0.4,0.5,0.5,0.8c0.1,0.3,0.2,0.6,0.3,0.9c0.1,0.3,0.1,0.8,0.1,1.3c0,0.8-0.2,1.4-0.7,2.1c-0.4,0.6-1,1-1.8,1.2
			c-1.4,0.3-1.7,0.5-1.9,0.6c-0.2,0.1-0.3,0.3-0.3,0.8c0,0.6,0.4,1,1,1c0.2,0,0.4,0,0.7-0.1c0.3-0.1,0.6-0.1,0.9-0.2
			c0.3-0.1,0.6-0.2,0.8-0.3c0.3-0.1,0.5-0.2,0.6-0.2c0.8-0.5,1.5-1.1,2-2c0.5-0.8,0.8-1.8,0.8-2.7
			C485.1,166.1,485,165.3,484.7,164.7z"/>
		<path d="M486.7,160.8c0,0.2,0,0.5,0.1,0.8l0.1,0.9c0,0.4,0.1,0.9,0.1,1.2c0,0.4,0,0.6,0,0.7c0,0.7,0.1,1.4,0.2,2.3
			c0.1,0.9,0.3,1.7,0.6,2.5c0.3,0.8,0.8,1.5,1.3,2.1c0.6,0.6,1.4,0.9,2.4,0.9c0.5,0,1-0.1,1.4-0.3c0.4-0.2,0.8-0.5,1.1-0.8
			c0.3-0.3,0.6-0.7,0.8-1.1c0.2-0.4,0.4-0.8,0.5-1.3c0.2-0.8,0.3-3.2,0.3-7.4c0-3.6-0.1-3.8-0.2-4c-0.1-0.3-0.2-0.5-0.4-0.6
			c-0.2-0.1-0.4-0.2-0.7-0.2c0,0,0,0,0,0c-0.2,0-0.5,0.1-0.6,0.3c-0.1,0.2-0.2,0.4-0.2,0.6c0,0.2,0,0.4,0.1,0.4c0,0,0,0,0,0.2
			c0,0.2,0,0.4,0,0.7c0,0.3,0,0.9,0,1.7c0,0.8,0,2-0.1,3.3c0,1,0,1.8-0.1,2.4c0,0.6,0,1-0.1,1.2c0,0.3-0.1,0.5-0.2,0.8
			c-0.1,0.3-0.3,0.6-0.5,0.9c-0.2,0.2-0.4,0.5-0.7,0.6c-0.5,0.3-1,0.3-1.4,0c-0.2-0.1-0.4-0.3-0.6-0.5c-0.2-0.2-0.3-0.5-0.4-0.7
			c-0.1-0.3-0.2-0.5-0.3-0.8c-0.1-0.4-0.3-1.1-0.3-1.8c-0.1-0.8-0.2-1.7-0.2-2.8c-0.1-1.6-0.2-2.8-0.2-3.7c0-0.9-0.1-1.5-0.1-1.8
			c-0.1-0.7-0.2-1.1-0.5-1.3c-0.3-0.2-0.8-0.2-1.2,0.2l-0.1,0.1v0c-0.1,0.2-0.2,0.5-0.2,1c0,0.3,0,0.7,0,1.2L486.7,160.8z"/>
		<path d="M497.3,170.8c0,0.4,0,0.7,0,0.8c0,0.3,0.1,0.5,0.3,0.7c0.1,0.2,0.3,0.4,0.8,0.4c0.2,0,0.3,0,0.5-0.1
			c0.2-0.1,0.3-0.3,0.4-0.5c0-0.1,0.1-0.3,0.1-1.1v-1.3c0-0.4,0-0.8,0-1.2c0-0.5,0-1.1,0-1.6v-1c0.2,0.1,0.4,0.3,0.6,0.4
			c0.3,0.3,0.6,0.7,0.8,1.1c0.2,0.4,0.4,0.8,0.6,1.3c0.2,0.5,0.3,0.9,0.4,1.2c0.5,1.6,0.8,2,0.9,2.1l0.1-0.1l-0.1,0.1
			c0.2,0.1,0.3,0.2,0.5,0.2c0.2,0,0.5,0,0.8-0.3c0.2-0.2,0.3-0.5,0.3-0.7c0-0.1,0-0.4-0.2-1c-0.1-0.4-0.3-0.9-0.5-1.4
			c-0.2-0.5-0.4-0.9-0.5-1.4c-0.2-0.4-0.3-0.7-0.4-0.9c-0.4-0.8-0.9-1.4-1.3-1.7l-0.1-0.1h0c0,0,0,0-0.1-0.1
			c0.2-0.1,0.4-0.2,0.6-0.4c0.3-0.2,0.5-0.5,0.7-0.8c0.2-0.3,0.4-0.6,0.5-1c0.2-0.3,0.3-0.6,0.3-0.9c0-0.1,0-0.2,0-0.4v-0.4
			c0-1-0.1-1.9-0.3-2.6c-0.2-0.8-0.7-1.6-1.4-2.3c-0.2-0.2-0.4-0.4-0.6-0.5c-0.2-0.2-0.5-0.4-0.8-0.5c-0.3-0.2-0.6-0.3-0.9-0.4
			c-0.6-0.2-1.2-0.3-1.8,0.2l-0.1,0.1l0,0.2c0,0,0,0.1,0,0.1l-0.1,0l0.1,0.1c-0.1,0.4-0.1,1.2-0.1,2.8c0,2,0,3.9-0.1,5.8
			c0,0.3,0,0.7,0,1.1v3.2c0,0.5,0,0.9,0,1.1C497.3,169.9,497.3,170.4,497.3,170.8z M499.4,156.9c0.6,0.4,1.1,0.8,1.4,1.4
			c0.4,0.7,0.6,1.5,0.6,2.5c0,0.2,0,0.4,0,0.5c0,0.1,0,0.2,0,0.3c0,0.1-0.1,0.1-0.1,0.2c-0.1,0.1-0.1,0.2-0.3,0.4
			c-0.4,0.6-0.6,0.8-0.7,0.8c0,0-0.1,0-0.2,0.1c-0.1,0.1-0.3,0.1-0.6,0.2l-0.1,0v-0.2c0-1.3,0-2.4,0-3.4c0-1,0-1.9,0-2.6
			C499.4,157.1,499.4,157,499.4,156.9z"/>
		<path d="M505.8,162.2c0,1,0,2,0,3c0,1.1,0,2,0.1,2.9c0,0.9,0.1,1.7,0.1,2.3c0,0.9,0.1,1.1,0.1,1.2c0.1,0.1,0.1,0.3,0.2,0.3
			c0.1,0.1,0.2,0.2,0.4,0.3c0.1,0,0.3,0.1,0.6,0.1c0.2,0,0.6,0,1,0l2.2,0l0.1-0.2c0.2-0.4,0.3-0.7,0.3-1c0-0.4-0.2-0.7-0.5-0.8
			c-0.2,0-0.5-0.1-1.5-0.1c-0.3,0-0.6,0-0.8,0h0c0,0,0-0.1,0-0.2c0-0.2,0-0.6-0.1-1c-0.1-1-0.1-2-0.1-2.8c0-0.2,0-0.4,0-0.5
			c0-0.2,0-0.3,0-0.4l0-0.1c0.2,0,0.5-0.1,0.7-0.2c0.4-0.2,0.6-0.5,0.6-0.9c0-0.4-0.2-1-1.3-1c0-0.2,0-0.4,0-0.8
			c0-0.6,0-1.4-0.1-2.5l0-2.6c0.1,0,0.3,0,0.4,0c0.2,0,0.3,0,0.5,0c1.6,0,2-0.2,2.1-0.5l0.3-0.5H511c0,0,0-0.1,0-0.1
			c0-0.3-0.1-0.5-0.3-0.7c-0.2-0.2-0.6-0.3-1.4-0.3h-0.6c-0.2,0-0.4,0-0.6,0c-0.5,0-1,0-1.3,0.1c-0.4,0-0.7,0.2-0.9,0.6l0,0
			c0,0.1-0.1,0.3-0.1,2.4c0,0.3,0,0.7,0,1.5L505.8,162.2z"/>
		<path d="M519.5,160.8c0,0.2,0,0.5,0.1,0.8l0.1,0.9c0,0.4,0.1,0.9,0.1,1.2c0,0.4,0,0.6,0,0.7c0,0.7,0.1,1.4,0.2,2.3
			c0.1,0.9,0.3,1.7,0.6,2.5c0.3,0.8,0.8,1.5,1.3,2.1c0.6,0.6,1.4,0.9,2.4,0.9c0.5,0,1-0.1,1.4-0.3c0.4-0.2,0.8-0.5,1.1-0.8
			c0.3-0.3,0.6-0.7,0.8-1.1c0.2-0.4,0.4-0.8,0.5-1.3c0.2-0.8,0.3-3.2,0.3-7.4c0-3.6-0.1-3.8-0.2-4c-0.1-0.3-0.2-0.5-0.4-0.6
			c-0.2-0.1-0.4-0.2-0.7-0.2c0,0,0,0,0,0c-0.2,0-0.5,0.1-0.6,0.3c-0.1,0.2-0.2,0.4-0.2,0.6c0,0.2,0,0.4,0.1,0.4c0,0,0,0,0,0.2
			c0,0.2,0,0.4,0,0.7c0,0.3,0,0.9,0,1.7c0,0.8,0,2-0.1,3.3c0,1,0,1.8-0.1,2.4c0,0.6,0,1-0.1,1.2c0,0.3-0.1,0.5-0.2,0.8
			c-0.1,0.3-0.3,0.6-0.5,0.9c-0.2,0.2-0.4,0.5-0.7,0.6c-0.5,0.3-1,0.3-1.4,0c-0.2-0.1-0.4-0.3-0.6-0.5c-0.2-0.2-0.3-0.5-0.4-0.7
			c-0.1-0.3-0.2-0.5-0.3-0.8c-0.1-0.4-0.3-1.1-0.3-1.8c-0.1-0.8-0.2-1.7-0.2-2.8c-0.1-1.6-0.2-2.8-0.2-3.7c0-0.9-0.1-1.5-0.1-1.8
			c-0.1-0.7-0.2-1.1-0.5-1.3c-0.3-0.2-0.8-0.2-1.2,0.2l-0.1,0.1v0c-0.1,0.2-0.2,0.5-0.2,1c0,0.3,0,0.7,0,1.2L519.5,160.8z"/>
		<path d="M536.3,160.2c0-0.9-0.2-1.8-0.6-2.6c-0.4-0.8-1-1.5-1.8-2c-1.1-0.7-2-1.1-2.8-1.1l-0.2,0c-0.1,0-0.2,0-0.3,0.1v-1
			l-0.6,1.9c0,0.1,0,0.2,0,0.9c0,0.5,0,1,0,1.7v0.3l0,0c0,0.6,0,1.2,0.1,1.9c0,0.5,0.1,1.2,0.1,2.2c0,1,0,2.3,0,3.8
			c0,1.6,0,2.9,0.1,3.7c0,1.2,0,1.5,0.1,1.5c0,0.2,0.1,0.5,0.3,0.7c0.2,0.2,0.4,0.3,0.7,0.3c0.3,0,0.7-0.2,1-0.5l0.1-0.1l-0.1-3.1
			V167c0-1,0-1.2,0-1.2c0,0,0,0,0.1-0.1c0.1-0.1,0.3-0.2,0.4-0.3c0.5-0.3,0.9-0.6,1.3-1c0.4-0.3,0.8-0.7,1.1-1.2
			c0.3-0.4,0.6-0.9,0.8-1.4C536.3,161.4,536.3,160.8,536.3,160.2z M532.2,160.6c0-0.2,0-0.5,0-0.8c0-0.3,0-0.7,0-1.1
			c0-0.4,0-0.8-0.1-1.1c0-0.3,0-0.4,0-0.6l0-0.2c0.7,0.3,1.2,0.7,1.5,1.2c0.5,0.6,0.7,1.4,0.7,2.3c0,0.3-0.1,0.7-0.2,1
			c-0.1,0.3-0.3,0.7-0.6,1c-0.2,0.3-0.5,0.6-0.8,0.8c-0.1,0.1-0.3,0.2-0.4,0.3c0-0.1,0-0.2,0-0.4
			C532.3,162.4,532.2,161.6,532.2,160.6z"/>
	</g>
	<g>
		<path d="M274.3,384.2c-0.1-1.6-0.2-2.7-0.3-3.6c-0.1-1.2-0.2-1.4-0.3-1.5c-0.1-0.1-0.2-0.2-0.4-0.3c-0.5-0.3-1,0-1.2,0.4
			c-0.1,0.2-0.1,0.5-0.1,0.7c0,0.1,0,0.3,0,0.7c0,0.3,0.1,0.8,0.1,1.4c0.1,1.6,0.2,2.6,0.2,3.1v0.4h-3.3V383c0-3.2-0.1-3.4-0.2-3.6
			c-0.2-0.4-0.5-0.6-0.8-0.6c-0.1,0-0.2,0-0.3,0v-0.8l-0.6,1.4c-0.1,0.1-0.1,0.2-0.1,7.8v7.6l0.1,0.1c0.3,0.3,0.6,0.5,0.8,0.5
			c0.3,0.1,0.6-0.1,0.9-0.4c0.1-0.1,0.2-0.3,0.3-4.3l0-3.2h3.5c0.1,1.3,0.1,2.5,0.1,3.8c0,0.8,0,1.5,0.1,2c0,0.5,0,0.9,0.1,1.1
			c0,0.2,0.1,0.5,0.3,0.8c0.2,0.5,0.6,0.6,0.9,0.6c0.2,0,0.6-0.1,0.8-0.6l0-0.1c0-0.1,0-0.1,0-0.2v-0.2c0-0.3,0-1.4-0.1-3.2
			C274.6,389.9,274.5,387.4,274.3,384.2z"/>
		<path d="M279.3,380.3c1.6,0,2-0.2,2.1-0.5l0.3-0.5h-0.1c0,0,0-0.1,0-0.1c0-0.3-0.1-0.5-0.3-0.7c-0.2-0.2-0.6-0.3-1.4-0.3h-0.6
			c-0.2,0-0.4,0-0.6,0c-0.5,0-1,0-1.3,0.1c-0.4,0-0.7,0.2-0.9,0.6l0,0c0,0.1-0.1,0.3-0.1,2.4c0,0.3,0,0.7,0,1.5l0,2.5c0,1,0,2,0,3
			c0,1.1,0,2,0.1,2.9c0,0.9,0.1,1.7,0.1,2.3c0,0.9,0.1,1.1,0.1,1.2c0.1,0.1,0.1,0.3,0.2,0.3c0.1,0.1,0.2,0.2,0.4,0.3
			c0.1,0,0.3,0.1,0.6,0.1c0.2,0,0.6,0,1,0l2.2,0l0.1-0.2c0.2-0.4,0.3-0.7,0.3-1c0-0.4-0.2-0.7-0.5-0.8c-0.2,0-0.5-0.1-1.5-0.1
			c-0.3,0-0.6,0-0.8,0h0c0,0,0-0.1,0-0.2c0-0.2,0-0.6-0.1-1c-0.1-1-0.1-2-0.1-2.8c0-0.2,0-0.4,0-0.5c0-0.2,0-0.3,0-0.4l0-0.1
			c0.2,0,0.5-0.1,0.7-0.2c0.4-0.2,0.6-0.5,0.6-0.9c0-0.4-0.2-1-1.3-1c0-0.2,0-0.4,0-0.8c0-0.6,0-1.4-0.1-2.5l0-2.6
			c0.1,0,0.3,0,0.4,0C278.9,380.3,279.1,380.3,279.3,380.3z"/>
		<path d="M288.9,389c0.4,1.9,0.8,3.4,1.1,4.5c0.3,1,0.5,1.7,0.6,1.9c0.2,0.6,0.6,0.7,0.9,0.7c0.3,0,0.5-0.1,0.7-0.3
			c0.2-0.2,0.3-0.4,0.3-0.7c0-0.2-0.1-0.7-0.7-3.1c-0.5-1.8-0.9-3.4-1.2-4.7c-0.4-1.4-0.7-2.5-0.9-3.5c-1.1-4.2-1.4-4.4-1.5-4.6
			c-0.4-0.4-1.1-0.3-1.6,0.2c-0.3,0.3-0.5,0.6-0.6,0.9c-0.1,0.3-0.5,2.4-1.3,6.4c-0.4,2-0.7,3.6-1,4.8c-0.2,1.2-0.4,2-0.4,2.3
			c0,0.2-0.1,0.4-0.1,0.5c0,0.2,0,0.3,0,0.4c0,0.3,0.1,0.5,0.3,0.7c0.2,0.2,0.4,0.3,0.7,0.3c0.4,0,0.7-0.2,0.9-0.6
			c0-0.1,0.1-0.2,0.2-0.7c0.1-0.3,0.2-0.8,0.3-1.5c0.1-0.6,0.2-1.2,0.4-1.8c0.1-0.6,0.2-1.2,0.4-1.8c0.1-0.7,0.2-1.1,0.3-1.3
			c0,0,0.1,0,0.1,0c1.3,0,1.9,0,2.1,0.1C288.8,388.3,288.8,388.5,288.9,389z M287.6,386h-0.7c0-0.1,0-0.2,0-0.3
			c0.1-0.4,0.2-1.1,0.4-1.9c0-0.3,0.1-0.5,0.1-0.7c0,0,0,0.1,0,0.1c0.1,0.5,0.2,1,0.4,1.4c0.1,0.3,0.2,0.5,0.2,0.7
			c0,0.2,0.1,0.3,0.1,0.4c0,0.1,0,0.2,0.1,0.3C288,386,287.8,386,287.6,386z"/>
		<path d="M302,380.3c0.2-0.2,0.2-0.5,0.2-0.6c-0.1-0.5-0.4-0.7-0.6-0.8c-0.2-0.1-0.5-0.1-0.8-0.1H300c-0.3,0-0.5,0-0.8,0
			c-1.2,0-2.2,0.1-2.9,0.1c-1,0-1.2,0.1-1.4,0.1c-0.4,0.1-0.7,0.5-0.7,0.9c0,0.4,0.2,0.6,0.6,0.8c0.2,0.1,0.5,0.2,1.7,0.2h0.7l0,4.5
			c0,1.1,0,2.3,0,3.4c0,1.2,0,2.3,0,3.5c0,2.6,0.1,2.8,0.2,2.9l0.6,0.9v-0.5c0.1,0,0.1,0,0.2,0c0.4,0,0.7-0.2,0.8-0.3l0,0
			c0,0,0,0,0-0.1l0,0l0,0c0.1-0.2,0.1-1.1,0.2-7.6c0-2.1,0-3.8,0-5c0-0.8,0-1.4,0-1.8l0.1,0c0.2,0,0.4,0,0.7,0l0.7,0
			c0.2,0,0.4,0,0.6,0c0.2,0,0.3-0.1,0.4-0.1C301.7,380.6,301.9,380.5,302,380.3z"/>
		<path d="M303.8,382.7c0,0.9,0,2.3,0.1,4c0.1,2.5,0.1,4.4,0.1,5.8c0,1.9,0.1,2.3,0.1,2.4c0.1,0.2,0.2,0.4,0.3,0.5
			c0.2,0.2,0.4,0.2,0.6,0.2c0.2,0,0.4-0.1,0.6-0.2c0.1-0.1,0.3-0.3,0.3-0.5c0.1-0.2,0.1-0.3,0.1-0.5c0-0.2,0-0.3,0-0.4
			c0,0,0-0.2,0-0.6l0-1.7c0-1.8-0.1-3.5-0.1-5.3c0-1.7-0.1-3.5-0.1-5.3l0-1.6l-0.3-0.3c-0.2-0.2-0.5-0.3-0.7-0.3c-0.7,0-1,0.6-1,1.8
			l0,0.4C303.8,381.2,303.8,381.4,303.8,382.7z"/>
		<path d="M313.9,394.3c0.2,0.3,0.3,0.5,0.4,0.7c0.1,0.2,0.3,0.3,0.4,0.4c0.1,0.1,0.3,0.1,0.5,0.1c0.3,0,0.5-0.1,0.7-0.3
			c0.1-0.2,0.2-0.4,0.3-0.6c0-0.2,0.1-0.4,0.1-0.6c0-0.2,0-0.4,0-0.5c0-0.4,0-0.8,0-1.4c0-0.5,0-1.1-0.1-1.8
			c-0.2-3.1-0.3-5.6-0.4-7.4c-0.1-1.8-0.2-2.9-0.3-3.3c-0.2-0.9-0.7-1-1-1c-0.2,0-0.4,0.1-0.7,0.5c-0.1,0.2-0.2,0.5-0.2,0.8v0.1
			c0,0.6,0.1,1.3,0.2,2.1c0.1,0.8,0.1,1.7,0.1,2.7c0,0.2,0,0.4,0,0.8c0,0.4,0.1,0.8,0.1,1.4c0.1,0.8,0.1,1.5,0.1,2.3
			c0,0.2,0,0.3,0,0.5c-0.1-0.3-0.3-0.6-0.4-1l-1.6-3.9c-1.8-4.5-2.4-5.3-2.6-5.6c-0.3-0.3-0.6-0.5-0.9-0.5c-0.3,0-0.8,0.2-0.9,1.2
			l0,0.2c0,0.4,0,1.2,0.1,2.5l0.2,5.1c0.1,2.2,0.2,3.8,0.2,4.9c0.1,1.7,0.1,1.8,0.1,1.8c0,0.3,0.2,0.6,0.4,0.8
			c0.3,0.3,0.7,0.3,1.1,0.2c0.1-0.1,0.3-0.2,0.4-0.4c0-0.1,0.1-0.3,0.1-0.9c0-0.6,0-1.6-0.1-3.1c-0.1-1.5-0.1-3.3-0.2-5.6
			c0-0.2,0-0.5,0-0.7c0.3,0.7,0.6,1.4,0.9,2.1c0.4,1,0.9,2.1,1.3,3.2c0.5,1.2,0.9,2.1,1.2,2.9C313.5,393.6,313.8,394.1,313.9,394.3z
			"/>
		<path d="M322.1,395.4c0.3,0.1,0.6,0.1,0.9,0.1c0.4,0,0.7-0.1,1.1-0.2c0.4-0.1,0.7-0.3,1-0.5c0.3-0.2,0.5-0.5,0.8-0.8
			c0.2-0.3,0.4-0.7,0.4-1c0-0.1,0.1-0.3,0.1-0.9c0-0.4,0-1,0-1.7c0-0.2,0-0.5,0-0.8c0-0.3,0-0.6,0-0.9c0-0.8-0.2-1.4-0.5-1.7
			c-0.2-0.2-0.6-0.3-1.3-0.3c-0.1,0-0.3,0-0.4,0c-0.2,0-0.4,0-0.5,0.1c-0.2,0.1-0.3,0.2-0.5,0.3c-0.2,0.2-0.2,0.4-0.2,0.6
			c0,0.4,0.2,0.8,0.6,0.9c0.3,0.1,0.6,0.1,0.8,0.1h0c0,0,0,0.1,0,0.1v0.6c0,1.9-0.1,2.6-0.2,2.9c-0.1,0.2-0.2,0.4-0.3,0.5
			c-0.2,0.2-0.4,0.3-0.5,0.4h-0.1c-0.5,0-1-0.1-1.4-0.3c-0.4-0.2-0.7-0.5-1-0.9c-0.3-0.4-0.5-0.8-0.6-1.3c-0.2-0.5-0.3-1-0.4-1.6
			c-0.1-0.5-0.1-1.1-0.1-1.6c0-0.5,0-1,0-1.4c0-1.5,0.1-2.6,0.3-3.2c0.1-0.4,0.3-0.9,0.5-1.3c0.2-0.4,0.4-0.8,0.7-1.1
			c0.3-0.3,0.6-0.6,1-0.8c0.4-0.2,0.8-0.3,1.2-0.4c0.2,0,0.5-0.1,0.7-0.2c0.3-0.2,0.5-0.5,0.5-0.8c0-0.4-0.2-0.7-0.5-0.8
			c-0.6-0.3-1.1-0.2-1.8,0c-0.8,0.2-1.6,0.7-2.3,1.5l0,0c-0.9,1-1.5,2.2-1.7,3.4c-0.3,1.2-0.4,2.5-0.4,3.7c0,0.6,0,1.3,0,2
			c0,0.7,0.1,1.4,0.2,2c0.1,0.7,0.3,1.3,0.5,1.9c0.2,0.6,0.6,1.2,1.1,1.8c0.2,0.2,0.4,0.5,0.7,0.7c0.3,0.2,0.6,0.4,0.9,0.5
			C321.5,395.2,321.8,395.3,322.1,395.4z"/>
		<path d="M334.8,379c0,0.1-0.1,0.3-0.1,2.4c0,0.3,0,0.7,0,1.5l0,2.5c0,1,0,2,0,3c0,1.1,0,2,0.1,2.9c0,0.9,0.1,1.7,0.1,2.3
			c0,0.9,0.1,1.1,0.1,1.2c0.1,0.1,0.1,0.3,0.2,0.3c0.1,0.1,0.2,0.2,0.4,0.3c0.1,0,0.3,0.1,0.6,0.1c0.2,0,0.6,0,1,0l2.2,0l0.1-0.2
			c0.2-0.4,0.3-0.7,0.3-1c0-0.4-0.2-0.7-0.5-0.8c-0.2,0-0.5-0.1-1.5-0.1c-0.3,0-0.6,0-0.8,0h0c0,0,0-0.1,0-0.2c0-0.2,0-0.6-0.1-1
			c-0.1-1-0.1-2-0.1-2.8c0-0.2,0-0.4,0-0.5c0-0.2,0-0.3,0-0.4l0-0.1c0.2,0,0.5-0.1,0.7-0.2c0.4-0.2,0.6-0.5,0.6-0.9
			c0-0.4-0.2-1-1.3-1c0-0.2,0-0.4,0-0.8c0-0.6,0-1.4-0.1-2.5l0-2.6c0.1,0,0.3,0,0.4,0c0.2,0,0.3,0,0.5,0c1.6,0,2-0.2,2.1-0.5
			l0.3-0.5H340c0,0,0-0.1,0-0.1c0-0.3-0.1-0.5-0.3-0.7c-0.2-0.2-0.6-0.3-1.4-0.3h-0.6c-0.2,0-0.4,0-0.6,0c-0.5,0-1,0-1.3,0.1
			C335.4,378.4,335.1,378.6,334.8,379L334.8,379z"/>
		<path d="M344.7,393.3v0.3c-0.2,0-0.5-0.1-0.8-0.1c-0.2,0-0.3,0-0.4,0c0-1.3-0.1-6.6-0.1-8.5c0-5.2-0.1-5.4-0.2-5.5
			c-0.2-0.6-0.7-0.7-0.9-0.7c-0.2,0-0.4,0.1-0.6,0.3c-0.1,0.1-0.3,0.3-0.3,6.9c0,2.6,0,4.5,0,5.9c0,1.8,0.1,2.2,0.1,2.4
			c0.1,0.3,0.2,0.6,0.3,0.8c0.1,0.2,0.3,0.4,0.5,0.5c0.1,0,0.2,0.1,0.4,0.1c0.2,0,0.4,0,0.6,0c0.2,0,0.4,0,0.6,0c0.2,0,0.3,0,0.4,0
			c0.3,0,0.5-0.1,0.8-0.2c0.3-0.2,0.4-0.5,0.4-0.8c0-0.3-0.1-0.5-0.4-0.7L344.7,393.3z"/>
		<path d="M351.9,395.5l0.1-0.2c0.2-0.4,0.3-0.7,0.3-1c0-0.4-0.2-0.7-0.5-0.8c-0.2,0-0.5-0.1-1.5-0.1c-0.3,0-0.6,0-0.8,0h0
			c0,0,0-0.1,0-0.2c0-0.2,0-0.6-0.1-1c-0.1-1-0.1-2-0.1-2.8c0-0.2,0-0.4,0-0.5c0-0.2,0-0.3,0-0.4l0-0.1c0.2,0,0.5-0.1,0.7-0.2
			c0.4-0.2,0.6-0.5,0.6-0.9c0-0.4-0.2-1-1.3-1c0-0.2,0-0.4,0-0.8c0-0.6,0-1.4-0.1-2.5l0-2.6c0.1,0,0.3,0,0.4,0c0.2,0,0.3,0,0.5,0
			c1.6,0,2-0.2,2.1-0.5l0.3-0.5h-0.1c0,0,0-0.1,0-0.1c0-0.3-0.1-0.5-0.3-0.7c-0.2-0.2-0.6-0.3-1.4-0.3h-0.6c-0.2,0-0.4,0-0.6,0
			c-0.5,0-1,0-1.3,0.1c-0.4,0-0.7,0.2-0.9,0.6l0,0c0,0.1-0.1,0.3-0.1,2.4c0,0.3,0,0.7,0,1.5l0,2.5c0,1,0,2,0,3c0,1.1,0,2,0.1,2.9
			c0,0.9,0.1,1.7,0.1,2.3c0,0.9,0.1,1.1,0.1,1.2c0.1,0.1,0.1,0.3,0.2,0.3c0.1,0.1,0.2,0.2,0.4,0.3c0.1,0,0.3,0.1,0.6,0.1
			c0.2,0,0.6,0,1,0L351.9,395.5z"/>
		<path d="M357.1,382.3c0.6,0.8,0.9,1.4,1.2,1.8c0.5,0.8,0.9,1.2,1.3,1.2c0.2,0,0.4-0.1,0.7-0.4c0.1-0.2,0.4-0.5,0.8-1l0.2-0.2
			c0.2-0.3,0.5-0.6,0.7-1c0.1-0.2,0.3-0.4,0.4-0.7c0.1,0.6,0.2,1.3,0.4,2.3c0.2,1.4,0.5,3.2,0.7,5.3c0.2,1.7,0.4,3.1,0.6,4.1
			c0.3,1.4,0.4,1.7,0.5,1.8c0.1,0.1,0.2,0.2,0.3,0.3c0.1,0.1,0.2,0.1,0.3,0.1c0,0,0.1,0,0.1,0c0.2,0,0.4-0.1,0.6-0.3
			c0.2-0.2,0.3-0.4,0.3-0.7c0-0.1,0-0.2,0-0.4c0-0.2,0-0.4-0.1-0.7c0-0.1-0.1-0.3-0.1-0.7l-0.2-1.4c-0.2-1.3-0.4-2.6-0.6-4
			s-0.4-2.9-0.7-4.4l-0.5-2.9c-0.2-1.1-0.2-1.2-0.2-1.2c-0.3-0.5-0.7-0.6-1-0.6c-0.3,0-0.6,0.1-0.7,0.3c-0.1,0.1-0.2,0.2-0.6,0.7
			c-0.2,0.3-0.6,0.8-0.9,1.4c-0.3,0.5-0.6,0.8-0.8,1.1c-0.1,0.1-0.1,0.2-0.2,0.2c0,0-0.1-0.1-0.1-0.1c-0.2-0.3-0.4-0.6-0.7-1
			c-0.4-0.6-0.7-1-0.9-1.4c-0.2-0.3-0.3-0.4-0.4-0.5l0,0c-0.3-0.4-0.7-0.6-1.2-0.6c-0.4,0-0.6,0.2-0.7,0.3c-0.1,0.1-0.2,0.4-0.3,1.1
			c0,0.4-0.1,0.9-0.1,1.4c0,0.5-0.1,0.9-0.1,1.4v0c-0.8,7-1.1,10.8-1.1,11.5c0,0.3,0.1,0.6,0.3,0.8c0.2,0.2,0.4,0.3,0.7,0.3
			c0.2,0,0.4-0.1,0.6-0.3l0,0c0,0,0,0,0,0c0,0,0,0,0,0c0.2-0.2,0.3-0.5,0.4-1.7c0-0.4,0.1-1.4,0.3-2.8c0.2-1.5,0.3-3.4,0.6-5.9
			C357,383.7,357.1,382.8,357.1,382.3C357.1,382.3,357.1,382.3,357.1,382.3z"/>
		<path d="M370.6,380.3c1.6,0,2-0.2,2.1-0.5l0.3-0.5H373c0,0,0-0.1,0-0.1c0-0.3-0.1-0.5-0.3-0.7c-0.2-0.2-0.6-0.3-1.4-0.3h-0.6
			c-0.2,0-0.4,0-0.6,0c-0.5,0-1,0-1.3,0.1c-0.4,0-0.7,0.2-0.9,0.6l0,0c0,0.1-0.1,0.3-0.1,2.4c0,0.3,0,0.7,0,1.5l0,2.5c0,1,0,2,0,3
			c0,1.1,0,2,0.1,2.9c0,0.9,0.1,1.7,0.1,2.3c0,0.9,0.1,1.1,0.1,1.2c0.1,0.1,0.1,0.3,0.2,0.3c0.1,0.1,0.2,0.2,0.4,0.3
			c0.1,0,0.3,0.1,0.6,0.1c0.2,0,0.6,0,1,0l2.2,0l0.1-0.2c0.2-0.4,0.3-0.7,0.3-1c0-0.4-0.2-0.7-0.5-0.8c-0.2,0-0.5-0.1-1.5-0.1
			c-0.3,0-0.6,0-0.8,0h0c0,0,0-0.1,0-0.2c0-0.2,0-0.6-0.1-1c-0.1-1-0.1-2-0.1-2.8c0-0.2,0-0.4,0-0.5c0-0.2,0-0.3,0-0.4l0-0.1
			c0.2,0,0.5-0.1,0.7-0.2c0.4-0.2,0.6-0.5,0.6-0.9c0-0.4-0.2-1-1.3-1c0-0.2,0-0.4,0-0.8c0-0.6,0-1.4-0.1-2.5l0-2.6
			c0.1,0,0.3,0,0.4,0C370.3,380.3,370.5,380.3,370.6,380.3z"/>
		<path d="M380.8,394.3c0.2,0.3,0.3,0.5,0.4,0.7c0.1,0.2,0.3,0.3,0.4,0.4c0.1,0.1,0.3,0.1,0.5,0.1c0.3,0,0.5-0.1,0.7-0.3
			c0.1-0.2,0.2-0.4,0.3-0.6c0-0.2,0.1-0.4,0.1-0.6c0-0.2,0-0.4,0-0.5c0-0.4,0-0.8,0-1.4c0-0.5,0-1.1-0.1-1.8
			c-0.2-3.1-0.3-5.6-0.4-7.4c-0.1-1.8-0.2-2.9-0.3-3.3c-0.2-0.9-0.7-1-1-1c-0.2,0-0.4,0.1-0.7,0.5c-0.1,0.2-0.2,0.5-0.2,0.8v0.1
			c0,0.6,0.1,1.3,0.2,2.1c0.1,0.8,0.1,1.7,0.1,2.7c0,0.2,0,0.4,0,0.8c0,0.4,0.1,0.8,0.1,1.4c0.1,0.8,0.1,1.5,0.1,2.3
			c0,0.2,0,0.3,0,0.5c-0.1-0.3-0.3-0.6-0.4-1l-1.6-3.9c-1.8-4.5-2.4-5.3-2.6-5.6c-0.3-0.3-0.6-0.5-0.9-0.5c-0.3,0-0.8,0.2-0.9,1.2
			l0,0.2c0,0.4,0,1.2,0.1,2.5l0.2,5.1c0.1,2.2,0.2,3.8,0.2,4.9c0.1,1.7,0.1,1.8,0.1,1.8c0,0.3,0.2,0.6,0.4,0.8
			c0.3,0.3,0.7,0.3,1.1,0.2c0.1-0.1,0.3-0.2,0.4-0.4c0-0.1,0.1-0.3,0.1-0.9c0-0.6,0-1.6-0.1-3.1c-0.1-1.5-0.1-3.3-0.2-5.6
			c0-0.2,0-0.5,0-0.7c0.3,0.7,0.6,1.4,0.9,2.1c0.4,1,0.9,2.1,1.3,3.2c0.5,1.2,0.9,2.1,1.2,2.9C380.4,393.6,380.7,394.1,380.8,394.3z
			"/>
		<path d="M387.7,380.9l0,4.5c0,1.1,0,2.3,0,3.4c0,1.2,0,2.3,0,3.5c0,2.6,0.1,2.8,0.2,2.9l0.6,0.9v-0.5c0.1,0,0.1,0,0.2,0
			c0.4,0,0.7-0.2,0.8-0.3l0,0c0,0,0,0,0-0.1l0,0l0,0c0.1-0.2,0.1-1.1,0.2-7.6c0-2.1,0-3.8,0-5c0-0.8,0-1.4,0-1.8l0.1,0
			c0.2,0,0.4,0,0.7,0l0.7,0c0.2,0,0.4,0,0.6,0c0.2,0,0.3-0.1,0.4-0.1c0.2-0.1,0.3-0.2,0.5-0.3c0.2-0.2,0.2-0.5,0.2-0.6
			c-0.1-0.5-0.4-0.7-0.6-0.8c-0.2-0.1-0.5-0.1-0.8-0.1h-0.8c-0.3,0-0.5,0-0.8,0c-1.2,0-2.2,0.1-2.9,0.1c-1,0-1.2,0.1-1.4,0.1
			c-0.4,0.1-0.7,0.5-0.7,0.9c0,0.4,0.2,0.6,0.6,0.8c0.2,0.1,0.5,0.2,1.7,0.2H387.7z"/>
		<path d="M396.8,395.3c0.3-0.1,0.6-0.2,0.8-0.3c0.3-0.1,0.5-0.2,0.6-0.2c0.8-0.5,1.5-1.1,2-2c0.5-0.8,0.8-1.8,0.8-2.7
			c0-0.9-0.1-1.6-0.3-2.3c-0.2-0.7-0.5-1.3-0.9-1.9c0-0.1-0.1-0.2-0.5-0.5l-2.4-2.3c-0.4-0.4-0.5-0.5-0.5-0.5c0-0.1-0.1-0.2-0.1-0.3
			c0-0.1,0-0.2,0-0.3c0-0.5,0.1-0.9,0.4-1.2c0.3-0.3,0.7-0.6,1.2-0.8c0.5-0.2,0.7-0.3,0.7-0.4c0.2-0.1,0.2-0.3,0.2-0.6
			c0-0.6-0.4-0.9-1-0.9c-0.5,0-1,0.1-1.4,0.4c-0.4,0.2-0.8,0.5-1.1,0.9c-0.3,0.4-0.6,0.8-0.8,1.2c-0.2,0.5-0.3,0.9-0.3,1.4
			c0,0.5,0.1,1,0.4,1.5c0.2,0.5,0.5,0.9,0.9,1.2c0.1,0.1,0.3,0.3,0.5,0.5c0.2,0.2,0.6,0.6,1,1c0.4,0.4,0.6,0.7,0.9,1
			c0.2,0.3,0.4,0.5,0.5,0.8c0.1,0.3,0.2,0.6,0.3,0.9c0.1,0.3,0.1,0.8,0.1,1.3c0,0.8-0.2,1.4-0.7,2.1c-0.4,0.6-1,1-1.8,1.2
			c-1.4,0.3-1.7,0.5-1.9,0.6c-0.2,0.1-0.3,0.3-0.3,0.8c0,0.6,0.4,1,1,1c0.2,0,0.4,0,0.7-0.1C396.2,395.5,396.5,395.4,396.8,395.3z"
			/>
	</g>
	<g>
		<path d="M355,40.6c-1.1-0.7-2-1.1-2.8-1.1l-0.2,0c-0.1,0-0.2,0-0.3,0.1v-1l-0.6,1.9c0,0.1,0,0.2,0,0.9c0,0.5,0,1,0,1.7v0.3l0,0
			c0,0.6,0,1.2,0.1,1.9c0,0.5,0.1,1.2,0.1,2.2c0,1,0,2.3,0,3.8c0,1.6,0,2.9,0.1,3.7c0,1.2,0,1.5,0.1,1.5c0,0.2,0.1,0.5,0.3,0.7
			c0.2,0.2,0.4,0.3,0.7,0.3c0.3,0,0.7-0.2,1-0.5l0.1-0.1l-0.1-3.1v-1.6c0-1,0-1.2,0-1.2c0,0,0,0,0.1-0.1c0.1-0.1,0.3-0.2,0.4-0.3
			c0.5-0.3,0.9-0.6,1.3-1c0.4-0.3,0.8-0.7,1.1-1.2c0.3-0.4,0.6-0.9,0.8-1.4c0.2-0.5,0.3-1.1,0.3-1.7c0-0.9-0.2-1.8-0.6-2.6
			C356.4,41.8,355.8,41.1,355,40.6z M353.3,45.7c0-0.2,0-0.5,0-0.8c0-0.3,0-0.7,0-1.1c0-0.4,0-0.8-0.1-1.1c0-0.3,0-0.4,0-0.6l0-0.2
			c0.7,0.3,1.2,0.7,1.5,1.2c0.5,0.6,0.7,1.4,0.7,2.3c0,0.3-0.1,0.7-0.2,1c-0.1,0.3-0.3,0.7-0.6,1c-0.2,0.3-0.5,0.6-0.8,0.8
			c-0.1,0.1-0.3,0.2-0.4,0.3c0-0.1,0-0.2,0-0.4C353.4,47.5,353.3,46.7,353.3,45.7z"/>
		<path d="M362.2,55.3v0.3c-0.2,0-0.5-0.1-0.8-0.1c-0.2,0-0.3,0-0.4,0c0-1.3-0.1-6.6-0.1-8.5c0-5.2-0.1-5.4-0.2-5.5
			c-0.2-0.6-0.7-0.7-0.9-0.7c-0.2,0-0.4,0.1-0.6,0.3c-0.1,0.1-0.3,0.3-0.3,6.9c0,2.6,0,4.5,0,5.9c0,1.8,0.1,2.2,0.1,2.4
			c0.1,0.3,0.2,0.6,0.3,0.8c0.1,0.2,0.3,0.4,0.5,0.5c0.1,0,0.2,0.1,0.4,0.1c0.2,0,0.4,0,0.6,0c0.2,0,0.4,0,0.6,0c0.2,0,0.3,0,0.4,0
			c0.3,0,0.5-0.1,0.8-0.2c0.3-0.2,0.4-0.5,0.4-0.8c0-0.3-0.1-0.5-0.4-0.7L362.2,55.3z"/>
		<path d="M372.1,49.4c-0.4-1.4-0.7-2.5-0.9-3.5c-1.1-4.2-1.4-4.4-1.5-4.6c-0.4-0.4-1.1-0.3-1.6,0.2c-0.3,0.3-0.5,0.6-0.6,0.9
			c-0.1,0.3-0.5,2.4-1.3,6.4c-0.4,2-0.7,3.6-1,4.8c-0.2,1.2-0.4,2-0.4,2.3c0,0.2-0.1,0.4-0.1,0.5c0,0.2,0,0.3,0,0.4
			c0,0.3,0.1,0.5,0.3,0.7c0.2,0.2,0.4,0.3,0.7,0.3c0.4,0,0.7-0.2,0.9-0.6c0-0.1,0.1-0.2,0.2-0.7c0.1-0.3,0.2-0.8,0.3-1.5
			c0.1-0.6,0.2-1.2,0.4-1.8c0.1-0.6,0.2-1.2,0.4-1.8c0.1-0.7,0.2-1.1,0.3-1.3c0,0,0.1,0,0.1,0c1.3,0,1.9,0,2.1,0.1
			c0,0.1,0.1,0.4,0.2,0.9c0.4,1.9,0.8,3.4,1.1,4.5c0.3,1,0.5,1.7,0.6,1.9c0.2,0.6,0.6,0.7,0.9,0.7c0.3,0,0.5-0.1,0.7-0.3
			c0.2-0.2,0.3-0.4,0.3-0.7c0-0.2-0.1-0.7-0.7-3.1C372.9,52.3,372.5,50.7,372.1,49.4z M369.7,48c-0.2,0-0.4,0-0.6,0h-0.7
			c0-0.1,0-0.2,0-0.3c0.1-0.4,0.2-1.1,0.4-1.9c0-0.3,0.1-0.5,0.1-0.7c0,0,0,0.1,0,0.1c0.1,0.5,0.2,1,0.4,1.4
			c0.1,0.3,0.2,0.5,0.2,0.7c0,0.2,0.1,0.3,0.1,0.4C369.6,47.9,369.7,48,369.7,48z"/>
		<path d="M381.1,47.9c0-0.1-0.1-0.2-0.5-0.5l-2.4-2.3c-0.4-0.4-0.5-0.5-0.5-0.5c0-0.1-0.1-0.2-0.1-0.3c0-0.1,0-0.2,0-0.3
			c0-0.5,0.1-0.9,0.4-1.2c0.3-0.3,0.7-0.6,1.2-0.8c0.5-0.2,0.7-0.3,0.7-0.4c0.2-0.1,0.2-0.3,0.2-0.6c0-0.6-0.4-0.9-1-0.9
			c-0.5,0-1,0.1-1.4,0.4c-0.4,0.2-0.8,0.5-1.1,0.9c-0.3,0.4-0.6,0.8-0.8,1.2c-0.2,0.5-0.3,0.9-0.3,1.4c0,0.5,0.1,1,0.4,1.5
			c0.2,0.5,0.5,0.9,0.9,1.2c0.1,0.1,0.3,0.3,0.5,0.5c0.2,0.2,0.6,0.6,1,1c0.4,0.4,0.6,0.7,0.9,1c0.2,0.3,0.4,0.5,0.5,0.8
			c0.1,0.3,0.2,0.6,0.3,0.9c0.1,0.3,0.1,0.8,0.1,1.3c0,0.8-0.2,1.4-0.7,2.1c-0.4,0.6-1,1-1.8,1.2c-1.4,0.3-1.7,0.5-1.9,0.6
			c-0.2,0.1-0.3,0.3-0.3,0.8c0,0.6,0.4,1,1,1c0.2,0,0.4,0,0.7-0.1c0.3-0.1,0.6-0.1,0.9-0.2c0.3-0.1,0.6-0.2,0.8-0.3
			c0.3-0.1,0.5-0.2,0.6-0.2c0.8-0.5,1.5-1.1,2-2c0.5-0.8,0.8-1.8,0.8-2.7c0-0.9-0.1-1.6-0.3-2.3C381.8,49.1,381.5,48.4,381.1,47.9z"
			/>
		<path d="M391.4,40.9c-0.2-0.1-0.5-0.1-0.8-0.1h-0.8c-0.3,0-0.5,0-0.8,0c-1.2,0-2.2,0.1-2.9,0.1c-1,0-1.2,0.1-1.4,0.1
			c-0.4,0.1-0.7,0.5-0.7,0.9c0,0.4,0.2,0.6,0.6,0.8c0.2,0.1,0.5,0.2,1.7,0.2h0.7l0,4.5c0,1.1,0,2.3,0,3.4c0,1.2,0,2.3,0,3.5
			c0,2.6,0.1,2.8,0.2,2.9l0.6,0.9v-0.5c0.1,0,0.1,0,0.2,0c0.4,0,0.7-0.2,0.8-0.3l0,0c0,0,0,0,0-0.1l0,0l0,0c0.1-0.2,0.1-1.1,0.2-7.6
			c0-2.1,0-3.8,0-5c0-0.8,0-1.4,0-1.8l0.1,0c0.2,0,0.4,0,0.7,0l0.7,0c0.2,0,0.4,0,0.6,0c0.2,0,0.3-0.1,0.4-0.1
			c0.2-0.1,0.3-0.2,0.5-0.3c0.2-0.2,0.2-0.5,0.2-0.6C391.9,41.2,391.6,41,391.4,40.9z"/>
		<path d="M395.8,53.8c0-1.8-0.1-3.5-0.1-5.3c0-1.7-0.1-3.5-0.1-5.3l0-1.6l-0.3-0.3c-0.2-0.2-0.5-0.3-0.7-0.3c-0.7,0-1,0.6-1,1.8
			l0,0.4c0,0.1,0,0.3,0.1,1.6c0,0.9,0,2.3,0.1,4c0.1,2.5,0.1,4.4,0.1,5.8c0,1.9,0.1,2.3,0.1,2.4c0.1,0.2,0.2,0.4,0.3,0.5
			c0.2,0.2,0.4,0.2,0.6,0.2c0.2,0,0.4-0.1,0.6-0.2c0.1-0.1,0.3-0.3,0.3-0.5c0.1-0.2,0.1-0.3,0.1-0.5c0-0.2,0-0.3,0-0.4
			c0,0,0-0.2,0-0.6L395.8,53.8z"/>
		<path d="M402.8,55.5c-0.6-0.1-1.1-0.2-1.4-0.4c-0.3-0.1-0.6-0.4-0.8-0.7c-0.8-1.1-1.2-2.9-1.2-5.4c0-0.8,0-1.5,0.1-2.1
			c0.1-0.6,0.1-1.2,0.2-1.7c0.1-0.5,0.3-0.9,0.5-1.3c0.2-0.4,0.4-0.8,0.7-1.1c0.3-0.4,0.7-0.7,0.9-0.7c1-0.1,1.1-0.7,1.1-1
			c0-0.2-0.1-0.4-0.4-0.7c-0.2-0.2-0.5-0.3-0.6-0.3l-0.2,0c-0.7,0-1.2,0.2-1.7,0.7c-0.4,0.4-0.8,0.8-1.1,1.3l0,0
			c-0.7,1-1.1,2.2-1.3,3.4c-0.2,1.2-0.3,2.4-0.3,3.6c0,1.2,0,2,0.1,2.5c0.1,0.8,0.3,1.5,0.5,2.2c0.2,0.7,0.5,1.4,0.9,1.9
			c0.4,0.6,0.9,1.1,1.5,1.4c0.6,0.4,1.4,0.6,2.3,0.6h0.1c1,0,1.2-0.7,1.2-1C404,56.2,403.8,55.6,402.8,55.5z"/>
		<path d="M416.3,40.6c-1.1-0.7-2-1.1-2.8-1.1l-0.2,0c-0.1,0-0.2,0-0.3,0.1v-1l-0.6,1.9c0,0.1,0,0.2,0,0.9c0,0.5,0,1,0,1.7v0.3l0,0
			c0,0.6,0,1.2,0.1,1.9c0,0.5,0.1,1.2,0.1,2.2c0,1,0,2.3,0,3.8c0,1.6,0,2.9,0.1,3.7c0,1.2,0,1.5,0.1,1.5c0,0.2,0.1,0.5,0.3,0.7
			c0.2,0.2,0.4,0.3,0.7,0.3c0.3,0,0.7-0.2,1-0.5l0.1-0.1l-0.1-3.1v-1.6c0-1,0-1.2,0-1.2c0,0,0,0,0.1-0.1c0.1-0.1,0.3-0.2,0.4-0.3
			c0.5-0.3,0.9-0.6,1.3-1c0.4-0.3,0.8-0.7,1.1-1.2c0.3-0.4,0.6-0.9,0.8-1.4c0.2-0.5,0.3-1.1,0.3-1.7c0-0.9-0.2-1.8-0.6-2.6
			C417.6,41.8,417,41.1,416.3,40.6z M414.5,45.7c0-0.2,0-0.5,0-0.8c0-0.3,0-0.7,0-1.1c0-0.4,0-0.8-0.1-1.1c0-0.3,0-0.4,0-0.6l0-0.2
			c0.7,0.3,1.2,0.7,1.5,1.2c0.5,0.6,0.7,1.4,0.7,2.3c0,0.3-0.1,0.7-0.2,1c-0.1,0.3-0.3,0.7-0.6,1c-0.2,0.3-0.5,0.6-0.8,0.8
			c-0.1,0.1-0.3,0.2-0.4,0.3c0-0.1,0-0.2,0-0.4C414.6,47.5,414.6,46.7,414.5,45.7z"/>
		<path d="M427.7,49.4c-0.4-1.4-0.7-2.5-0.9-3.5c-1.1-4.2-1.4-4.4-1.5-4.6c-0.4-0.4-1.1-0.3-1.6,0.2c-0.3,0.3-0.5,0.6-0.6,0.9
			c-0.1,0.3-0.5,2.4-1.3,6.4c-0.4,2-0.7,3.6-1,4.8c-0.2,1.2-0.4,2-0.4,2.3c0,0.2-0.1,0.4-0.1,0.5c0,0.2,0,0.3,0,0.4
			c0,0.3,0.1,0.5,0.3,0.7c0.2,0.2,0.4,0.3,0.7,0.3c0.4,0,0.7-0.2,0.9-0.6c0-0.1,0.1-0.2,0.2-0.7c0.1-0.3,0.2-0.8,0.3-1.5
			c0.1-0.6,0.2-1.2,0.4-1.8c0.1-0.6,0.2-1.2,0.4-1.8c0.1-0.7,0.2-1.1,0.3-1.3c0,0,0.1,0,0.1,0c1.3,0,1.9,0,2.1,0.1
			c0,0.1,0.1,0.4,0.2,0.9c0.4,1.9,0.8,3.4,1.1,4.5c0.3,1,0.5,1.7,0.6,1.9c0.2,0.6,0.6,0.7,0.9,0.7c0.3,0,0.5-0.1,0.7-0.3
			c0.2-0.2,0.3-0.4,0.3-0.7c0-0.2-0.1-0.7-0.7-3.1C428.5,52.3,428.1,50.7,427.7,49.4z M425.3,48c-0.2,0-0.4,0-0.6,0H424
			c0-0.1,0-0.2,0-0.3c0.1-0.4,0.2-1.1,0.4-1.9c0-0.3,0.1-0.5,0.1-0.7c0,0,0,0.1,0,0.1c0.1,0.5,0.2,1,0.4,1.4
			c0.1,0.3,0.2,0.5,0.2,0.7c0,0.2,0.1,0.3,0.1,0.4C425.2,47.9,425.3,48,425.3,48z"/>
		<path d="M434.3,55.3v0.3c-0.2,0-0.5-0.1-0.8-0.1c-0.2,0-0.3,0-0.4,0c0-1.3-0.1-6.6-0.1-8.5c0-5.2-0.1-5.4-0.2-5.5
			c-0.2-0.6-0.7-0.7-0.9-0.7c-0.2,0-0.4,0.1-0.6,0.3c-0.1,0.1-0.3,0.3-0.3,6.9c0,2.6,0,4.5,0,5.9c0,1.8,0.1,2.2,0.1,2.4
			c0.1,0.3,0.2,0.6,0.3,0.8c0.1,0.2,0.3,0.4,0.5,0.5c0.1,0,0.2,0.1,0.4,0.1c0.2,0,0.4,0,0.6,0c0.2,0,0.4,0,0.6,0c0.2,0,0.3,0,0.4,0
			c0.3,0,0.5-0.1,0.8-0.2c0.3-0.2,0.4-0.5,0.4-0.8c0-0.3-0.1-0.5-0.4-0.7L434.3,55.3z"/>
		<path d="M440,55.3v0.3c-0.2,0-0.5-0.1-0.8-0.1c-0.2,0-0.3,0-0.4,0c0-1.3-0.1-6.6-0.1-8.5c0-5.2-0.1-5.4-0.2-5.5
			c-0.2-0.6-0.7-0.7-0.9-0.7c-0.2,0-0.4,0.1-0.6,0.3c-0.1,0.1-0.3,0.3-0.3,6.9c0,2.6,0,4.5,0,5.9c0,1.8,0.1,2.2,0.1,2.4
			c0.1,0.3,0.2,0.6,0.3,0.8c0.1,0.2,0.3,0.4,0.5,0.5c0.1,0,0.2,0.1,0.4,0.1c0.2,0,0.4,0,0.6,0c0.2,0,0.4,0,0.6,0c0.2,0,0.3,0,0.4,0
			c0.3,0,0.5-0.1,0.8-0.2c0.3-0.2,0.4-0.5,0.4-0.8c0-0.3-0.1-0.5-0.4-0.7L440,55.3z"/>
		<path d="M445.4,42.3c1.6,0,2-0.2,2.1-0.5l0.3-0.5h-0.1c0,0,0-0.1,0-0.1c0-0.3-0.1-0.5-0.3-0.7c-0.2-0.2-0.6-0.3-1.4-0.3h-0.6
			c-0.2,0-0.4,0-0.6,0c-0.5,0-1,0-1.3,0.1c-0.4,0-0.7,0.2-0.9,0.6l0,0c0,0.1-0.1,0.3-0.1,2.4c0,0.3,0,0.7,0,1.5l0,2.5c0,1,0,2,0,3
			c0,1.1,0,2,0.1,2.9c0,0.9,0.1,1.7,0.1,2.3c0,0.9,0.1,1.1,0.1,1.2c0.1,0.1,0.1,0.3,0.2,0.3c0.1,0.1,0.2,0.2,0.4,0.3
			c0.1,0,0.3,0.1,0.6,0.1c0.2,0,0.6,0,1,0l2.2,0l0.1-0.2c0.2-0.4,0.3-0.7,0.3-1c0-0.4-0.2-0.7-0.5-0.8c-0.2,0-0.5-0.1-1.5-0.1
			c-0.3,0-0.6,0-0.8,0h0c0,0,0-0.1,0-0.2c0-0.2,0-0.6-0.1-1c-0.1-1-0.1-2-0.1-2.8c0-0.2,0-0.4,0-0.5c0-0.2,0-0.3,0-0.4l0-0.1
			c0.2,0,0.5-0.1,0.7-0.2c0.4-0.2,0.6-0.5,0.6-0.9c0-0.4-0.2-1-1.3-1c0-0.2,0-0.4,0-0.8c0-0.6,0-1.4-0.1-2.5l0-2.6
			c0.1,0,0.3,0,0.4,0C445,42.3,445.2,42.3,445.4,42.3z"/>
		<path d="M456.7,40.9c-0.2-0.1-0.5-0.1-0.8-0.1h-0.8c-0.3,0-0.5,0-0.8,0c-1.2,0-2.2,0.1-2.9,0.1c-1,0-1.2,0.1-1.4,0.1
			c-0.4,0.1-0.7,0.5-0.7,0.9c0,0.4,0.2,0.6,0.6,0.8c0.2,0.1,0.5,0.2,1.7,0.2h0.7l0,4.5c0,1.1,0,2.3,0,3.4c0,1.2,0,2.3,0,3.5
			c0,2.6,0.1,2.8,0.2,2.9l0.6,0.9v-0.5c0.1,0,0.1,0,0.2,0c0.4,0,0.7-0.2,0.8-0.3l0,0c0,0,0,0,0-0.1l0,0l0,0c0.1-0.2,0.1-1.1,0.2-7.6
			c0-2.1,0-3.8,0-5c0-0.8,0-1.4,0-1.8l0.1,0c0.2,0,0.4,0,0.7,0l0.7,0c0.2,0,0.4,0,0.6,0c0.2,0,0.3-0.1,0.4-0.1
			c0.2-0.1,0.3-0.2,0.5-0.3c0.2-0.2,0.2-0.5,0.2-0.6C457.2,41.2,456.9,41,456.7,40.9z"/>
		<path d="M465.3,49.8c-0.2-0.7-0.5-1.3-0.9-1.9c0-0.1-0.1-0.2-0.5-0.5l-2.4-2.3c-0.4-0.4-0.5-0.5-0.5-0.5c0-0.1-0.1-0.2-0.1-0.3
			c0-0.1,0-0.2,0-0.3c0-0.5,0.1-0.9,0.4-1.2c0.3-0.3,0.7-0.6,1.2-0.8c0.5-0.2,0.7-0.3,0.7-0.4c0.2-0.1,0.2-0.3,0.2-0.6
			c0-0.6-0.4-0.9-1-0.9c-0.5,0-1,0.1-1.4,0.4c-0.4,0.2-0.8,0.5-1.1,0.9c-0.3,0.4-0.6,0.8-0.8,1.2c-0.2,0.5-0.3,0.9-0.3,1.4
			c0,0.5,0.1,1,0.4,1.5c0.2,0.5,0.5,0.9,0.9,1.2c0.1,0.1,0.3,0.3,0.5,0.5c0.2,0.2,0.6,0.6,1,1c0.4,0.4,0.6,0.7,0.9,1
			c0.2,0.3,0.4,0.5,0.5,0.8c0.1,0.3,0.2,0.6,0.3,0.9c0.1,0.3,0.1,0.8,0.1,1.3c0,0.8-0.2,1.4-0.7,2.1c-0.4,0.6-1,1-1.8,1.2
			c-1.4,0.3-1.7,0.5-1.9,0.6c-0.2,0.1-0.3,0.3-0.3,0.8c0,0.6,0.4,1,1,1c0.2,0,0.4,0,0.7-0.1c0.3-0.1,0.6-0.1,0.9-0.2
			c0.3-0.1,0.6-0.2,0.8-0.3c0.3-0.1,0.5-0.2,0.6-0.2c0.8-0.5,1.5-1.1,2-2c0.5-0.8,0.8-1.8,0.8-2.7C465.7,51.2,465.6,50.5,465.3,49.8
			z"/>
	</g>
</g>
</svg>
