<?xml version="1.0" encoding="utf-8"?>
<!-- Generator: Adobe Illustrator 24.0.1, SVG Export Plug-In . SVG Version: 6.00 Build 0)  -->
<svg version="1.1" xmlns="http://www.w3.org/2000/svg" xmlns:xlink="http://www.w3.org/1999/xlink" x="0px" y="0px"
	 viewBox="0 0 1000 435.2" style="enable-background:new 0 0 1000 435.2;" xml:space="preserve">
<style type="text/css">
	.st0{fill:#FFE87B;}
	.st1{fill:#1E1E1C;}
	.st2{fill:#1E1E1C;stroke:#1E1E1C;stroke-width:0.25;stroke-miterlimit:10;}
	.st3{fill:#1E1E1C;stroke:#1E1E1C;stroke-width:0.15;stroke-miterlimit:10;}
	.st4{fill:#FFFFFF;}
	.st5{stroke:#1E1E1C;stroke-miterlimit:10;}
	.st6{fill:none;stroke:#1E1E1C;stroke-width:3;stroke-linecap:round;stroke-linejoin:round;stroke-miterlimit:10;}
	.st7{stroke:#000000;stroke-width:1.5;stroke-miterlimit:10;}
	.st8{fill:#010202;}
	.st9{stroke:#000000;stroke-miterlimit:10;}
</style>
<g id="Calque_2">
</g>
<g id="Calque_1">
	<path d="M615.3,241.1c0.2-4.8,0.2-9.7-0.2-14.5c-0.2-2.6-0.5-5.2-0.8-7.8c-0.3-2.3-0.8-4.5-1.9-6.4c-0.1-0.2-0.2-0.3-0.4-0.5
		c-0.6-0.8-1.9-1-2.7-0.4c-0.1-0.2-0.1-0.5-0.2-0.7c-0.1-0.4-0.3-0.7-0.7-1c0.7-1.4,1.4-2.9,2.1-4.3c0.2-0.5,0.2-1,0.1-1.4
		c0.3-0.3,0.5-0.7,0.5-1.2c0.3-10.2,0.5-20.3,0.8-30.5c0-1.5-1.4-2.1-2.5-1.7c-0.3-0.3-0.7-0.6-1.3-0.6c-18.7-0.9-37.3-1.3-56-1.4
		c0.5-1.3,0.8-2.6,1-4c0.8-5.8-0.8-11.4-1.5-17.1c-0.6-5.3-0.5-11.5,3.6-15.4c1.8-1.7-0.9-4.3-2.7-2.7c-8.4,8-3.6,20.3-3.1,30.2
		c0.2,2.8,0,5.7-1.1,8.4c-0.1,0.2-0.2,0.4-0.3,0.6c-9.7,0-19.4,0.2-29,0.4c2.4-2.5,4.6-5.3,5.2-8.8c1-5.9-2.8-10.6-4-16.1
		c-1.5-6.7,1.5-13.6,4.1-19.6c0.4-0.9-0.4-2.1-1.3-2.3c-1.1-0.3-1.9,0.4-2.3,1.3c-2.4,5.8-5,12-4.5,18.5c0.2,3,1.2,5.8,2.3,8.6
		c1.1,2.5,2.3,5.2,2.1,8c-0.2,4.4-4.1,7.7-7.1,10.7c-5.9,0.2-11.7,0.4-17.6,0.7c0.9-1.7,1.6-3.6,1.9-5.6c0.5-3.2,0-6.3-1.6-9.2
		c-1.4-2.6-3.4-4.8-5-7.3c-4-6.6-1.7-14.3,0.4-21.1c0.7-2.3-2.9-3.3-3.6-1c-2.1,6.5-4.2,14-1.7,20.7c2.1,5.6,8.2,9.7,7.8,16.1
		c-0.2,2.7-1.2,5.2-2.7,7.5c-10.6,0.5-21.3,1.2-31.9,2c-0.9,0.1-1.5,0.7-1.7,1.4c-0.1,0.1-0.3,0.2-0.4,0.4
		c-13.1,18.4-25.1,37.5-36,57.2c-3.1,5.6-6.1,11.3-9,17c-0.4,0.9-0.2,1.7,0.3,2.2c0,0.1,0,0.2,0,0.4c0.2,4.8,0.4,9.6,0.6,14.4
		c0,0.9,0.6,1.7,1.5,1.8c0.3,0.3,0.7,0.4,1.1,0.4c21.6-2.1,43.3-3.7,65-4.7c21.7-1,43.4-1.5,65.2-1.4c11.2,0,22.4,0.2,33.7,0.5
		c0,0.1-0.1,0.2-0.1,0.3c-0.1,0.2-0.1,0.5,0,0.7c0,0.1,0,0.1,0,0.2c-0.1,0-0.2,0-0.3,0c-21-0.1-41.9,0-62.9,0.5
		c-21,0.5-41.9,1.3-62.8,2.5c-11.7,0.6-23.5,1.4-35.2,2.2c-0.8,0.1-1.3,0.5-1.6,1.1c-0.2,0-0.4,0-0.6,0.1c-0.5,0.1-0.9,0.4-1.1,0.9
		c-0.3,0.5-0.3,0.9-0.2,1.4c0.2,1.8,0.5,3.6,0.7,5.3c-0.4,0.4-0.6,0.9-0.6,1.4c-1.1,0.2-2.2,0.6-2.9,1.5c-1.1,1.4-0.6,3.4-0.5,5.1
		c0.3,3.5,0.7,7.1,1,10.6c0.1,0.6,0.3,1.1,0.8,1.5c0,0.9,0.6,1.8,1.8,1.7c22.6-0.2,45.3-0.5,67.9-0.7c22.6-0.2,45.1-0.5,67.7-0.7
		c6.3-0.1,12.7-0.1,19-0.2c5.8-0.1,11.7,0,17.1-2.4c0,0,0.1,0,0.1-0.1c0,0,0.1,0,0.1-0.1c0.1,0,0.1-0.1,0.2-0.1
		c0.4-0.3,0.6-0.8,0.6-1.4c0-0.2,0-0.4,0-0.6c9.1-16.6,18.2-33.2,27.3-49.8C615.5,242.2,615.5,241.6,615.3,241.1z M606.5,216
		c0.1,0.5,0.5,0.9,0.9,1.1c0,0,0.1,0,0.1,0c-1.9,6.8-4.7,13.2-8,19.5c-4.1,7.8-8.1,15.5-11.6,23.6c-1.5,3.5-2.9,7-4.3,10.5
		c-0.2-1.9-0.5-3.9-1-5.8c-0.1-0.3-0.2-0.5-0.4-0.7c0.1,0,0.2-0.1,0.3-0.1c0.1-0.1,0.3-0.2,0.4-0.3c0.2-0.2,0.4-0.5,0.5-0.8
		c0.2-0.5,0.4-1,0.6-1.5c0.4-0.3,0.7-0.8,0.7-1.3c0-0.1,0.1-0.3,0.1-0.4c0.5-0.1,1-0.4,1.2-0.9c6.4-14.9,13.1-29.7,20.1-44.3
		C606.3,215,606.4,215.5,606.5,216z M607.3,202.8c0,0.2,0,0.4,0.1,0.5c0,0.1-0.1,0.1-0.1,0.2c-7.8,16.2-15.3,32.6-22.5,49.2
		c-0.2-2.8-0.4-5.6-0.7-8.4c0-0.2-0.1-0.4-0.2-0.6c0.1-0.1,0.1-0.3,0.2-0.4c7.3-18.1,14.3-36.4,21.1-54.7c0.9-2.5,1.8-5,2.7-7.4
		C607.7,188.4,607.5,195.6,607.3,202.8z M450,191.6c3.6-5.3,7.2-10.6,10.9-15.9c0,0,0,0,0,0c9.3-0.7,18.7-1.3,28.1-1.8
		c-1.4,1.9-2.9,3.8-4,5.8c-3,5.1-3.9,10.9-2.6,16.6c1.4,6,5.1,11.4,10.3,14.6c2.1,1.3,4-2,1.9-3.2c-4.4-2.6-7.3-7.1-8.5-12
		c-1.3-5.2-0.3-10.3,2.5-14.8c1.5-2.5,3.3-4.8,5-7.2c5.5-0.3,11.1-0.5,16.7-0.7c-2,2.9-3.3,6-3.5,9.7c-0.4,5.5,1.7,11.2,5.8,15.1
		c1.8,1.7,4.4-1,2.7-2.7c-3.3-3.1-4.9-7.6-4.7-12.1c0.2-4.1,2.1-7.3,4.7-10.2c0.8,0,1.5-0.1,2.3-0.1c9.4-0.3,18.8-0.4,28.3-0.4
		c-0.4,0.6-0.8,1.2-1.2,1.7c-2.8,4-5.6,8.2-4.6,13.3c0.6,2.8,2.1,5.3,1.5,8.2c-0.6,2.6-2.1,4.7-4.5,6c-2.1,1.1-0.2,4.4,1.9,3.2
		c4.5-2.4,7.1-7.7,6.3-12.7c-0.4-2.6-2-5-1.7-7.7c0.2-2.2,1.4-4.1,2.5-5.9c1.4-2.1,2.9-4,4.2-6.2c8.4,0,16.7,0.1,25.1,0.2
		c10.5,0.2,20.9,0.6,31.3,1.1c-6.5,17.8-13.2,35.4-20.1,53c-1.7,4.4-3.5,8.7-5.2,13.1c0,0,0,0-0.1,0c-21.9-0.1-43.9,0.2-65.8,0.7
		c-21.8,0.5-43.6,0.9-65.3,2.5c-11,0.8-22.1,2.1-32.9,4.4C427.1,228.2,438.1,209.6,450,191.6z M517.8,257.6
		c-21.7,0.4-43.4,1.4-65.1,2.9c-11.9,0.8-23.7,1.8-35.5,2.9c-0.2-4.1-0.3-8.1-0.5-12.2c20.4-4.4,41.3-5.2,62.1-5.9
		c21.8-0.8,43.7-1.3,65.6-1.6c12-0.1,24-0.2,35.9-0.2c-0.1,0.2-0.2,0.5-0.1,0.7c0.6,4.5,0.9,9.1,0.9,13.7
		C560,257.4,538.9,257.3,517.8,257.6z M481.4,268.3c20.9-0.9,41.9-1.4,62.9-1.6c11.7-0.1,23.3-0.1,35-0.1c0.2,1.1,0.4,2.2,0.6,3.3
		c0,0.1,0,0.3,0.1,0.4c0,0.1,0,0.2,0,0.2c0,0.3,0.1,0.6,0.1,0.9c0,0.3,0,0.5,0.1,0.8c-20.9,0.1-41.7,0.4-62.6,0.8
		c-21.4,0.4-42.8,1.1-64.2,1.9c-11.3,0.4-22.5,0.9-33.8,1.4c-0.2-1.5-0.4-3-0.6-4.5C439.7,270.4,460.5,269.2,481.4,268.3z
		 M553.7,293.6c-11.2,0.1-22.3,0.2-33.5,0.4c-22.4,0.2-44.8,0.5-67.2,0.7c-12.2,0.1-24.4,0.3-36.6,0.4c-0.3-2.8-0.5-5.5-0.8-8.3
		c-0.1-1.4-0.3-2.8-0.4-4.2c0-0.1,0-0.2,0-0.4c0,0,0,0,0,0c0.1,0,0.3-0.1,0.4-0.1c0.1,0,0.2,0,0.2,0c0.1,0,0.2,0,0.3,0
		c1-0.1,1.8-0.8,1.9-1.8c21-1,42.1-1.8,63.1-2.4c21.4-0.6,42.8-1.1,64.2-1.4c11.8-0.2,23.5-0.3,35.3-0.3c0.5,0.6,1.3,0.9,2,0.7
		c0.4-0.1,0.7,0.1,0.9,0.6c0.3,0.8,0.2,1.7,0.3,2.5c0,1.4,0.1,2.8,0.1,4.2c0.1,2.5,0.1,5.1,0.2,7.6c0,0.1-0.1,0.2-0.1,0.3
		c-4.4,1.6-9.3,1.4-13.9,1.5C564.6,293.5,559.1,293.5,553.7,293.6z M587.6,282.4c0-1.8,0-3.8-0.3-5.6c-0.2-0.8-0.6-1.6-1.1-2.3
		c3-8.1,6.4-16,10.2-23.7c3.8-7.9,8.4-15.4,11.7-23.5c1-2.5,1.8-4.9,2.6-7.5c0,0.1,0,0.2,0,0.4c0.3,2.4,0.6,4.9,0.7,7.3
		c0.3,4.7,0.3,9.5,0.1,14.2c-7.9,14.5-15.9,28.9-23.8,43.4C587.7,284.2,587.6,283.3,587.6,282.4z"/>
	<g>
		<path d="M906.4,195.7c0-0.1,0-0.2,0-0.3c-0.4-4.2-0.8-8.4-1.2-12.6c0-0.3-0.1-0.6-0.3-0.9c0-1.6-2.2-2.3-3.2-1.2
			c-17.8,1.6-35.8,1.3-53.6,0.8c-18-0.5-36.1-1.3-54.2-0.6c-10.1,0.4-20.2,1.2-30.1,2.7c-0.4,0.1-0.7,0.3-0.9,0.6
			c-0.1,0.1-0.2,0.3-0.3,0.5c-10.1,21.9-20.4,43.8-30.8,65.7c-2.9,6.2-5.9,12.3-8.8,18.5c-0.6,0.2-1,0.6-1.2,1.1
			c-0.3,0.3-0.6,0.8-0.5,1.3c0.2,2.6,0.1,5.2-0.2,7.8c-0.1,0.4,0.3,1,0.5,1.3c0.3,0.3,0.9,0.6,1.3,0.5c0.4,0,0.8-0.1,1.1-0.3
			c19.9-0.5,39.9-1.1,59.8-1.8c20.1-0.7,40.2-1.6,60.2-2.5c11.3-0.5,22.6-1.1,33.8-1.7c0.3,0,0.6-0.1,0.9-0.2c0.1,0,0.2-0.1,0.3-0.1
			c0.7,1.1,2.9,1.2,3.5-0.5c7.2-19.6,13.7-39.5,19.4-59.7c1.6-5.7,3.1-11.4,4.6-17.1C906.6,196.4,906.6,196,906.4,195.7z
			 M757.2,205.2c2.8-6,5.6-12,8.4-18.1c17.4-2.6,35.1-3,52.7-2.7c17.8,0.3,35.7,1.2,53.5,1.2c9.6,0,19.2-0.3,28.7-1.1
			c-5.8,20.6-11.6,41.2-17.4,61.9c-1.6,5.5-2.9,11.2-5.4,16.4c-18.9,0.4-37.9,0.9-56.8,1.3c-19.8,0.5-39.5,0.9-59.3,1.4
			c-11.3,0.3-22.8,0.1-33.9,2.2C737.5,247,747.4,226.1,757.2,205.2z M817.7,273.6c-20.1,0.9-40.2,1.6-60.2,2.2
			c-10.8,0.3-21.6,0.6-32.4,0.9c0.1-1.5,0.1-3,0-4.5c11.1-2.6,22.6-2.5,34-2.8c9.1-0.2,18.2-0.4,27.3-0.6
			c20.6-0.5,41.1-0.9,61.7-1.4c9.3-0.2,18.7-0.4,28-0.6c-0.1,1.4,0,2.7,0.1,4.1C856.6,271.8,837.1,272.8,817.7,273.6z M884.8,255.9
			c-1.6,4.7-3.3,9.5-5,14.2c-0.1-1.3-0.1-2.6,0-3.9c0.3-0.1,0.6-0.4,0.8-0.8c2.4-4.8,3.8-9.9,5.2-15c1.5-5.4,3.1-10.9,4.6-16.3
			c3.1-11,6.2-22,9.3-32.9c0.9-3.1,1.8-6.2,2.6-9.4c0.1,1.3,0.2,2.5,0.4,3.8c0,0.2,0.1,0.4,0.1,0.5
			C897.6,216.2,891.6,236.2,884.8,255.9z"/>
		<path d="M768.4,213.8c1.8,1.2,4.2,1.3,6.3,1.2c2.3-0.1,4.6-0.5,7-0.3c1.5,0.1,3.1,0.6,4.2,1.6c1.4,1.2,1.4,2.9,1.6,4.6
			c0.2,2,0.9,3.9,2.6,5.2c1.5,1.1,3.5,1.3,5.3,0.9c2-0.4,3.7-1.6,5-3.1c1.3-1.4,2.9-3.4,3.3-5.3c0.9-4.7-5.6-5.8-8.6-7.2
			c-1.7-0.8-2.9-1.9-3.5-3.7c-0.6-1.8-0.6-3.7-0.5-5.5c0.1-2.2-0.6-4.1-3-4.6c-2.3-0.4-4.7,0.2-6.8,1.1c-0.5,0.2-2.1,1.4-2.7,1.1
			c-0.3-0.2,0-1.6,0.1-2c0.3-1.9,0.4-4.1-1.2-5.5c-1.9-1.6-4.4-0.7-5.8,1c-1.5,1.8-2.3,4.3-2.8,6.5c-0.4,0.2-0.8,0.6-1,1.2
			c-0.7,2.4-1.2,4.8-1.4,7.2C766.3,210.4,766.6,212.5,768.4,213.8z M772.3,201.7c0.4-1.8,0.9-3.8,1.9-5.4c0.1-0.2,0.9-1.1,0.9-1.1
			c0.1,0.1,0.1,1,0.1,1.2c-0.1,1.5-0.6,2.9-0.2,4.4c0.5,1.8,2.2,2.9,4,2.8c1.9-0.1,3.3-1.3,5-1.9c0.8-0.3,1.7-0.4,2.6-0.4
			c0.1,0,0.5,0,0.7,0c0,0.1,0.1,0.2,0.1,0.4c0,0.2,0,0.5,0,0.7c-0.2,3.2,0.2,6.7,2.2,9.3c2.1,2.8,5.4,3.4,8.4,4.8
			c0.6,0.2,1.6,0.6,1.9,1.2c0.3,0.6-0.5,1.4-0.8,1.9c-0.9,1.4-2,2.9-3.6,3.6c-1,0.4-2.4,0.5-3.2-0.2c-1.1-0.9-0.9-2.8-1.1-4.1
			c-0.4-3.4-2.3-5.8-5.5-7.1c-3.9-1.5-7.9-0.5-11.9-0.5c-0.9,0-2,0-2.8-0.4c-0.7-0.4-0.6-1.2-0.6-2c0.1-2,0.5-4.1,1.1-6
			C771.7,202.7,772.1,202.3,772.3,201.7z"/>
		<path d="M812.2,215.6c0.5,0.9,1.4,1.1,2.1,0.8c0.3,0.3,0.7,0.5,1.2,0.5c2.2,0.1,4.3-0.9,5.6-2.5c0.7-0.8,1.2-1.7,1.5-2.8
			c0.3-1.1,0.1-2.2,0.1-3.3c0.1-1.1,1-2,1.6-2.9c0.7-1.1,1.3-2.3,1.8-3.5c1-2.3,1.7-4.8,1.8-7.3c0.1-2.4-0.8-4.9-3.1-5.9
			c-2.4-1.2-5.2,0.4-7.4,1.5c-2.3,1.2-4.5,2.6-6.5,4.3c-1.8,1.4-3.4,3.1-4.2,5.3c-1,2.6-0.3,5.4,0.9,7.8
			C809.1,210.3,810.7,212.9,812.2,215.6z M816.4,195.2c1.6-1,3.3-2,5.1-2.7c0.6-0.3,1.5-0.8,2.1-0.3c0.7,0.5,0.7,1.6,0.7,2.4
			c-0.2,3.9-2.1,7.2-4.1,10.4c-0.6,0.9-1,1.9-1,3c-0.1,0.9,0.2,1.8-0.1,2.7c-0.5,1.5-1.9,2.4-3.5,2.4c-0.1,0-0.3,0-0.4,0
			c-0.9-1.7-1.9-3.3-2.8-5c-0.9-1.6-2-3.2-2.2-5C809.6,199.5,813.8,196.9,816.4,195.2z"/>
		<path d="M835.6,215.4c0,0.7,0.4,1.4,1.3,1.5c3.2,0.6,6.2-0.3,9.1-1.7c3-1.4,5.8-2.7,9.2-3.2c5.6-0.8,12.9-1.5,15.2-7.7
			c1.1-3-0.5-6.1-3.8-6.4c-0.7-0.1-1.4,0-2.2,0.1c-0.1,0-0.3,0-0.4,0c0.1-0.5,0.2-1.2,0.2-1.4c0-0.7-0.3-1.4-0.7-2.1
			c-1.8-2.5-5.8-3.1-8.7-3.1c-3.1,0-6.7,0.6-7.9,3.8c-1.2,3.3-2.8,6.2-5,8.9c-2.2,2.8-4.8,5.4-7.4,7.9
			C833.2,213.5,834.3,215.2,835.6,215.4z M847.8,202.4c0.7-1.1,1.2-2.3,1.8-3.5c0.4-0.9,0.6-2.5,1.5-2.9c1.1-0.6,2.9-0.6,4.2-0.6
			c1.4,0,2.9,0.3,4.2,0.8c0.3,0.1,0.8,0.3,0.9,0.6c0.1,0.2,0,0.4-0.2,0.8c-0.5,1.3-0.4,2.8,0.8,3.7c1,0.7,2.3,0.7,3.4,0.6
			c0.6-0.1,2.2-0.5,2.6,0.2c0.4,0.8-0.7,2.1-1.2,2.7c-0.8,0.8-1.8,1.5-2.8,1.9c-2.4,1.1-5.1,1.3-7.7,1.7c-3.3,0.4-6.2,1.3-9.2,2.7
			c-2.3,1.1-4.9,2.6-7.6,2.4C842,210,845.3,206.5,847.8,202.4z"/>
		<path d="M869.9,231.2c-0.1-0.2-0.3-0.3-0.6-0.5c-4.1-2.1-8.3-4.2-13-4.6c-4.7-0.4-9.2,1.4-13.5,3.2c-1.6,0.7-0.9,3,0.4,3.4
			c3.4,1.1,6.5,2.9,9,5.4c1.2,1.2,2.2,2.5,3.6,3.5c0.6,0.5,1.4,0.9,2.2,1.1c1,0.3,1.9,0,2.9,0.1c0.7,0.1,1,0.7,1.5,1.3
			c0.5,0.6,1.2,1.1,1.9,1.4c1.6,0.7,3.4,0.7,5.1,0.3c3-0.7,6.4-2.8,7.1-6c0.9-4-2.7-6.7-5.8-8.4
			C870.4,231.3,870.2,231.2,869.9,231.2z M872.6,237.5c0.8,1.3-0.1,2.5-1.2,3.4c-1.2,0.9-2.9,1.6-4.4,1.5c-1.8-0.1-2.2-1.7-3.6-2.6
			c-0.9-0.6-1.8-0.7-2.9-0.6c-0.9,0.1-1.5,0.2-2.3-0.4c-1.4-1-2.5-2.5-3.7-3.7c-1.7-1.6-3.7-3-5.8-4.1c2.4-0.8,5-1.4,7.6-1.2
			c4,0.4,7.6,2.3,11.1,4.1c0.3,0.1,0.5,0.2,0.8,0.2c0.1,0.2,0.3,0.3,0.6,0.5C870.1,235.3,871.8,236.1,872.6,237.5z"/>
		<path d="M826.7,237.6c0,0.2,0,0.4,0.1,0.7c0.7,1.9,0.5,3.9-0.1,5.8c-0.7,2.1-2,3.8-2.8,5.8c-0.8,2.1-0.2,4.3,1.5,5.7
			c1.5,1.2,3.5,1.6,5.4,1.6c2.4,0,4.7-0.5,6.9-1.4c2-0.7,4.7-1.6,5.3-3.9c0.5-2.4-1.4-4.3-3-5.8c-0.8-0.8-1.7-1.6-2.5-2.5
			c-0.6-0.6-1.7-1.3-1.7-2.2c0-0.5,0.2-1,0.2-1.6c0.1-0.6,0-1.3-0.1-1.9c-0.3-1.1-1-2.1-1.8-2.9c-2.1-1.7-5-1.5-7,0.2
			C826.4,235.9,826.4,236.9,826.7,237.6z M832.2,238.7c0.3,0.6,0.1,1.1,0,1.7c-0.2,1-0.2,2,0.3,3c0.7,1.7,2.3,2.9,3.6,4.2
			c0.7,0.7,1.4,1.4,2.1,2.1c0.3,0.2,0.5,0.5,0.7,0.8c0,0.1,0.2,0.5,0.4,0.7c-0.3,0.1-0.7,0.4-1,0.5c-0.9,0.4-1.7,0.7-2.6,1
			c-1.7,0.5-3.5,0.9-5.3,0.8c-1,0-2.4-0.3-2.9-1.2c-0.5-0.9,0.8-2.5,1.2-3.4c1.8-3.4,3.1-7.4,1.9-11.3
			C831.2,237.7,831.9,238.1,832.2,238.7z"/>
		<path d="M745.1,245.6c0.5,1.6,2.1,2.2,3.6,2.2c2,0.1,3.9-0.2,5.9-0.3c3.8-0.2,7.3,0.3,11,0.9c3.6,0.6,7.2,0.7,10.6-0.7
			c3.8-1.6,7.4-3.7,11.1-5.6c1.8-0.9,3.6-1.9,5.4-2.8c1.6-0.8,3.2-1.7,4-3.4c0.5-1.1,0.1-2.4-1.1-2.8c-2.5-0.7-5.1-0.8-7.7-0.3
			c-3.4-0.2-6.9-0.5-10.3-0.3c-1.8,0.1-3.5,0.3-5.2,0.5c-1.8,0.3-3.6,0.9-5.4,1.1c-1.6,0.2-3-0.1-4.5-0.8c-1.6-0.7-3.2-1.2-5-1
			c-3.2,0.5-6,2.8-8.2,5.1C747.5,239.5,744.1,242.6,745.1,245.6z M749.5,243.2c0.9-1.2,1.9-2.3,3-3.4c1.7-1.7,4.2-4.1,6.9-3.6
			c1.3,0.3,2.4,1.1,3.6,1.4c1.6,0.5,3.3,0.4,5,0.2c1.7-0.2,3.3-0.7,5-1c1.7-0.3,3.5-0.4,5.2-0.5c3-0.1,5.9,0.1,8.9,0.3
			c0.3,0.1,0.7,0.2,1.2,0.1c0,0,0,0,0,0c0.3,0,0.6,0,0.9,0.1c0.2,0,0.4,0,0.6,0c-1.1,0.6-2.2,1.2-3.3,1.7c-2.9,1.5-5.7,3-8.6,4.5
			c-2.9,1.5-5.5,2.4-8.8,2.2c-3.1-0.2-6.1-1.1-9.2-1.3c-3.3-0.3-6.5,0.2-9.7,0.3c-0.3,0-0.7,0-1,0
			C749.1,243.7,749.4,243.2,749.5,243.2z"/>
		<path d="M802.4,243.1c-0.2,0.1-0.4,0.2-0.6,0.4c-1.8,2.3-4.8,2.8-7.5,3.5c-3.4,0.9-6.7,1.9-10,3.1c-6.6,2.3-13,5.2-19.1,8.7
			c-1.3,0.7-1.2,3.2,0.4,3.4c4.8,0.8,9.3-0.9,14.1-1.5c4.7-0.6,9.4,0.6,14,1.2c3.6,0.5,8.9,1.2,11.6-1.9c0.6-0.7,1-1.5,1-2.5
			c0.1-1.1-0.5-1.9-0.7-3c-0.4-1.5,1.1-2.9,2-3.9c1.3-1.5,3-3.3,2.4-5.5c-0.7-2.8-4.2-2.5-6.4-2.7
			C803.2,242.5,802.7,242.7,802.4,243.1z M806.2,246.6c-0.1,0.2-0.1,0.3-0.2,0.4c-1,1.3-2.1,2.4-3,3.7c-0.9,1.3-1.3,2.9-1,4.5
			c0.1,0.6,0.8,1.5,0.7,2.2c0,0.4-0.4,0.6-0.7,0.7c-1.3,0.7-2.9,0.6-4.3,0.5c-2-0.1-3.9-0.4-5.8-0.7c-3.9-0.6-7.9-1.4-11.8-0.9
			c-1.5,0.2-3,0.5-4.6,0.8c3.7-1.7,7.4-3.2,11.2-4.5c3.3-1.1,6.6-2,9.9-2.9c2.8-0.7,5.8-1.7,7.8-4c0.3,0,0.6,0,0.9,0.1
			C805.4,246.4,805.9,246.5,806.2,246.6z"/>
	</g>
	<g>
		<path d="M115.2,260.8c0.3,0.3,0.7,0.4,1.2,0.4c18.4-0.9,36.9-1.1,55.4-0.6c18.5,0.5,36.9,1.6,55.3,3.5c10,1,20,2.6,30,2.6
			c0.7,0.9,2.3,1.2,3.2-0.1c6.7-10.3,13.4-20.6,20.2-31c6.5-10,13.1-19.9,19.3-30.1c3.5-5.7,6.8-11.5,9.8-17.4
			c0.6-1.1,0-2.1-0.8-2.6c-0.3-0.4-0.8-0.6-1.3-0.6c-16.9-0.4-33.8-0.8-50.6-1.2c-16.7-0.4-33.4-1-50.1-0.7
			c-9.4,0.2-18.9,0.6-28.3,1.5c-1,0.1-1.8,0.7-1.9,1.7c-8.1,9.7-16.3,19.3-24.7,28.7c-8.2,9.2-16.9,17.9-25,27.1
			c-4.6,5.1-8.9,10.4-12.9,16C112.9,259.4,114,260.6,115.2,260.8z M268.5,247c-3.4,5.3-6.9,10.5-10.3,15.8c-0.1,0-0.2,0-0.4,0
			c-9.2,0.1-18.2-1.3-27.3-2.2c-9.2-1-18.4-1.8-27.6-2.4c-18.4-1.2-36.9-1.8-55.4-1.7c-5.9,0-11.8,0.2-17.7,0.3
			c0.5-0.5,1.1-1.1,1.6-1.7c1.2-1.3,2.4-2.6,3.6-3.9c2-2.2,3.9-4.8,6.6-6.1c0.4,0.8,0.7,1.6,1.1,2.4c0.1,0.3,0.4,0.5,0.7,0.7
			c0.5,0.6,1.3,0.9,2,0.7c2.6-0.9,5.2-1.9,7.7-3c1.1-0.5,2.6-1,3.3-2c-0.2,1,0.2,1.9,1,2.8c1.5,1.9,3.2,3.7,5.1,5.2
			c0.9,0.7,1.8,0.7,2.7,0c2.7-2.1,5.7-3.8,8.9-5c0.5-0.2,0.9-0.5,1.1-0.9c0.7,0.3,1.4,0.6,2.1,0.9c1.6,0.7,3.4,1.3,5.2,1.2
			c1.7-0.1,3.2-0.7,4.6-1.6c1.3-0.8,3.1-1.9,3-3.6c0,0,0,0,0-0.1c0.6,0.1,1.2,0.2,1.7,0.2c-0.5,2.4-0.4,4.8,0,7.2
			c0.2,0.8,1,1.4,1.8,1.4c4.3-0.2,8.7,0,13,0.5c1,0.1,2.1,0.4,3.1-0.1c1.2-0.7,1.3-2,1-3.2c-0.5-1.9-1-3.9-1.5-5.8
			c1.4,0.1,2.8,0.1,4.2,0c0.9-0.1,1.7-0.7,1.8-1.5c0.2,0.2,0.5,0.4,0.7,0.6c0.2,0.2,0.5,0.4,0.7,0.6c-1.1,0.4-2.3,0.8-3.4,1.2
			c-0.7,0.2-1.4,0.4-1.9,0.9c-0.6,0.6-0.8,1.4-0.6,2.2c0.2,1.2,0.9,2.4,1.4,3.4c0.6,1.1,1.3,2.1,2.1,3.1c0.4,0.5,1.2,0.6,1.8,0.5
			c2-0.4,4.1-0.8,6.1-1.2c1-0.2,1.9-0.4,2.9-0.6c1-0.2,2-0.3,2.9-0.7c0,0,0,0,0.1,0c2.5,1.8,5.1,3.2,8,4.4c0.8,0.3,1.6,0.7,2.5,0.7
			c0.9,0,1.6-0.5,2.3-1.1c0,0,0.1,0,0.1-0.1c0,0,0.1,0.1,0.1,0.1c2.1,1.2,4.2,2.5,6.3,3.7c1,0.6,2.1,1.4,3.3,1.4
			c1.3,0,2.3-0.9,3.3-1.6c0.9-0.6,2-1.2,2.8-2c1-1,1-2.6,0.3-3.7c-0.6-1-1.6-1.7-2.4-2.4c-0.7-0.7-1.5-1.3-2.2-2
			c1.5-0.2,3.1-0.4,4.6-0.6c0.8-0.1,1.6-0.3,2.1-0.9c0.7-0.7,0.9-1.7,0.7-2.6c-0.1-0.9-0.4-1.8-0.7-2.7c0.5-0.1,1-0.1,1.5-0.2
			c1.2-0.2,2.4-0.8,2.9-1.9c0.8-1.5,0-3-0.6-4.4c-0.1-0.2-0.2-0.4-0.2-0.6c0.1-0.1,0.2-0.2,0.3-0.4c0.8-1.5,1.6-3.1,2.2-4.7
			c0.3,0,0.5,0,0.8,0c0.9,0,1.9,0.1,2.8,0c1.2-0.1,2.3-0.6,2.9-1.7c0.5-0.8,0.5-1.7,0.7-2.6c0.2-1,0.3-1.9,0.5-2.9
			c0.2-1,0.5-2.1,0.5-3.1c0.1-1.2-0.6-2.3-1.7-2.8c-0.9-0.4-1.8-0.6-2.8-0.7c-0.2,0-0.5-0.1-0.7-0.1c0.6-0.4,0.9-1.1,0.7-2
			c-0.1-0.4-0.1-0.7-0.2-1.1c1.5-0.2,3-0.4,4.4-0.6c1.4-0.2,2.8-0.5,3.5-1.8c2.9,0.6,5.8,0.8,8.8,0.5c0.6-0.1,1.1-0.2,1.5-0.7
			c0.3-0.4,0.5-1.1,0.3-1.6c-0.7-1.8-1.4-3.5-2.1-5.3c0.5-0.5,1.1-1,1.4-1.2c0.7-0.5,1.3-0.9,2.1-1.3c0.8-0.4,1.5-0.7,2.2-1.3
			c0.3-0.3,0.6-0.7,0.8-1c2.5,0,5,0,7.5,0c0.2,0,0.3,0,0.5-0.1c-3.6,6.1-7.3,12.1-11.2,18C281.8,226.6,275.1,236.8,268.5,247z
			 M153.3,229c0.3,0.1,0.6,0.2,0.9,0.2c0.4,0.1,0.8,0.3,1.2,0.4c0,0,0.2,0.1,0.3,0.1c0.2,0.1,0.4,0.2,0.5,0.3c0,0,0,0,0.1,0
			c-0.4,1.3-0.9,2.8,0.3,3.7c0.5,0.4,1.2,0.5,1.9,0.6c-1.5,1-2.9,2.1-4.4,3.1c-0.4-0.6-0.8-1.2-1.2-1.8c-0.5-0.7-1-1.1-1.9-1.3
			c-0.3-0.1-0.5-0.1-0.8-0.1C151.5,232.7,152.5,230.9,153.3,229z M163.6,222.7c1-0.1,1.9-0.2,2.9-0.2c2.5-0.2,4.9-0.4,7.4-0.6
			c0.6,0,1.1-0.3,1.5-0.7c0.6,0.2,1.2,0.3,1.8,0.5c0.8,0.3,1.7,0.6,2.6,0.4c0.5-0.1,0.9-0.4,1.3-0.7c1,1,2.2,1.8,3.5,2.3
			c-0.4,0.5-0.9,1.1-1.4,1.4c-0.2,0.1-0.3,0.2-0.4,0.4c-0.8-0.3-1.6-0.6-2.5-0.9c-1.9-0.7-3.3-0.9-5,0.2c-0.7,0.5-1.4,1-2.1,1.4
			c0,0,0,0,0,0c-2.7-0.6-5.3-1.2-8-1.8c-0.4-0.1-0.9-0.2-1.3-0.3C163.6,223.5,163.6,223.1,163.6,222.7z M172.9,215.6
			c0.1-0.3,0.1-0.6,0.2-0.9c0.2-0.6,0.2-0.7,0.5-1.1c0.2-0.5,0.5-0.9,0.8-1.4c-0.1,0.2,0.2-0.2,0.3-0.3c0,0,0.1-0.1,0.1-0.1
			c0,0,0.1-0.1,0.1-0.1c0.4-0.1,0.7-0.2,1.2-0.1c1.1,0.2,2.6,0.8,3.7,1.2c0.3,0.1,0.7,0.2,1,0.4c-0.7,0.8-1.3,1.7-1.7,2.6
			c-0.2,0.5-0.4,1-0.6,1.6c-0.1,0.2-0.1,0.5-0.2,0.7c-0.1,0-0.2,0-0.3-0.1c-0.7-0.2-1.3-0.4-2-0.6c-0.6-0.2-1.3-0.4-1.9-0.6
			c-0.6-0.2-0.8-0.2-1.2-0.5c0.1,0.1-0.1-0.1-0.1-0.1c-0.1-0.1-0.1-0.1-0.1-0.2C172.9,216,172.9,215.6,172.9,215.6z M180.9,201.7
			C181,201.6,181,201.6,180.9,201.7L180.9,201.7z M178.7,205.5c0.3-0.7,0.6-1.4,0.8-2.1c0.1-0.3,0.2-0.6,0.4-0.9c0,0,0,0,0,0
			c0,0,0,0,0-0.1c0.1-0.1,0.1-0.3,0.2-0.4c0,0,0,0,0,0c0,0,0.1-0.1,0.1-0.1c0,0,0,0,0.1,0c0,0,0,0,0,0c0.1,0,0.3-0.1,0.4-0.1
			c0,0,0,0,0.1,0c0.1,0,0.3,0,0.4,0c0.4,0,0.7-0.1,1.1-0.1c0.9,0,1.8-0.1,2.8,0c-0.1,0.4-0.2,0.9-0.3,1.3c-0.1,0.4,0,0.8,0.1,1.2
			c-0.1,0-0.2,0.1-0.3,0.1c-1.4,0.5-3.2,0.9-3.6,2.6c-0.3,1.4,0.5,2.4,1.5,3.2c-0.6-0.2-1.2-0.4-1.9-0.7c-1-0.4-2.1-0.8-3.1-1
			C178,207.3,178.4,206.4,178.7,205.5z M190.1,197.8c0,0.1,0.3-0.4,0.2-0.4c0-0.1,0.1-0.1,0.1-0.2c0,0,0.1-0.1,0.2-0.1
			c0,0,0.1,0,0.1,0c0.1,0,0.1,0,0.1,0c0.3,0,0.6,0,0.9,0c0,0,0.2,0,0.3,0c0.1,0,0.2,0,0.4,0.1c0.3,0.1,0.7,0.1,1,0.2
			c1.1,0.2,2.1,0.4,3.2,0.5c-0.4,1.6,0.8,2.9,2,3.9c-0.7,0.4-1.4,0.8-2.1,1.1c-0.1,0-0.4,0.2-0.4,0.2c0.2-0.1,0.3-0.1,0.2-0.1
			c-0.1,0-0.1,0-0.2,0.1c-0.3,0.1-0.6,0.2-0.9,0.3c-0.2,0.1-0.3,0.1-0.5,0.2c-0.4-0.7-1-1.2-1.9-1.4c-1.2-0.2-2.7,0.3-3.9,0.7
			c0.2-1.1,0.5-2.2,0.8-3.3C189.7,198.9,189.9,198.3,190.1,197.8z M236.1,194.6c0-0.3,0.1-0.6,0.1-0.8c0.4,0,0.9,0,1.2,0
			c0.5,0,1,0,1.6,0.1c1,0,2.1,0.1,3.1,0.1c1.2,0,3.1-0.1,3.9,0.7c0.4,0.4,0.7,1.3,0.9,1.9c0.2,0.4,0.3,0.7,0.5,1
			c-1.1,0.2-2.3,0.5-3.4,0.9c-0.1,0-0.2,0.1-0.3,0.1c-0.3-0.6-0.7-1.2-1.3-1.5c-0.8-0.5-1.7-0.5-2.6-0.5c-1.4,0-2.7,0-4.1,0
			C235.9,195.8,236,195.2,236.1,194.6z M236.3,193.4C236.3,193.3,236.4,193.4,236.3,193.4L236.3,193.4z M270.2,195.3
			C270.2,195.3,270.2,195.4,270.2,195.3C270.2,195.4,270.2,195.4,270.2,195.3C270.2,195.4,270.2,195.3,270.2,195.3z M270.6,197.5
			c-0.1-0.6-0.2-1.2-0.3-1.8c0,0,0,0,0,0c0.7-0.2,1.4-0.5,2.1-0.6c0.3-0.1,0.7-0.2,1-0.2c0,0,0.3,0,0.4-0.1c0.1,0,0.3,0,0.4,0
			c0.3,0,0.7,0,1,0c0.1,0,0.3,0,0.4,0c-0.4,0,0,0,0.1,0c0.3,0.1,0.6,0.1,0.9,0.2c0,0,0.2,0.1,0.3,0.1c0.1,0,0.2,0.1,0.2,0.1
			c0,0,0,0,0,0c-0.4,0.3-0.9,0.6-1.1,1.1c-0.6,1.1-0.2,2.2,0.3,3.3c0.3,0.8,0.7,1.5,1.2,2.2c0.9,1.4,2,2.7,3.2,3.9
			c0.5,0.5,1.1,0.6,1.6,0.5c0.2,0.4,0.3,0.9,0.5,1.3c-0.6,0-1.1,0-1.7,0c-0.4,0-0.7-0.1-1.1-0.1c-0.2,0-0.3,0-0.5-0.1
			c0,0-0.2,0-0.3,0c-0.7-0.1-1.4-0.2-2.2-0.4c-0.1,0-0.2,0-0.4,0c0-0.2-0.1-0.3-0.1-0.5c-0.4-1.5-1-2.9-1.6-4.3
			c-0.5-1.3-1.3-2.3-2.6-2.9c-0.5-0.2-1-0.4-1.5-0.5C270.7,198.2,270.6,197.9,270.6,197.5z M286,195.6c0.5,0.1,1,0.2,1.4,0.4
			c0,0,0.3,0.2,0.3,0.2c0.1,0,0.1,0.1,0.2,0.1c-0.1-0.1-0.1-0.1,0,0c0.1,0.1,0.2,0.1,0.2,0.2c0,0,0.1,0.1,0.1,0.2c0,0,0,0,0,0
			c0,0,0,0,0,0.1c0,0,0,0.1,0,0.1c-0.1,0.1-0.3,0.2-0.5,0.3c-0.3,0.2-0.6,0.3-0.9,0.4c-1.9,1-3.6,2.4-5.1,3.9
			c-0.4-0.4-0.7-0.9-1-1.3c-0.4-0.5-0.7-1.1-1-1.7c-0.1-0.1-0.1-0.2-0.2-0.4c0.4-0.2,0.7-0.4,1.1-0.5c0.6-0.3,1.1-0.5,1.8-0.8
			C283.6,196.3,284.8,195.9,286,195.6z M288.3,196.8C288.3,196.8,288.3,196.8,288.3,196.8C288.3,196.8,288.3,196.8,288.3,196.8
			C288.3,196.8,288.3,196.8,288.3,196.8z M288.2,196.8C288.2,196.8,288.2,196.9,288.2,196.8C288.2,196.9,288.1,196.9,288.2,196.8
			C288.2,196.8,288.2,196.8,288.2,196.8z M288.2,196.8C288.2,196.8,288.2,196.8,288.2,196.8C288.2,196.9,288.2,196.9,288.2,196.8
			C288.2,196.9,288.2,196.8,288.2,196.8z M269.6,202.2c0.8,0.2,1.3,0.3,1.7,1c0.5,0.9,0.8,1.9,1.1,2.9c0.2,0.6,0.4,1.2,0.6,1.8
			c0,0.1,0.1,0.4,0.2,0.7c0,0,0,0,0,0c-0.6,0.1-1.3,0.2-1.9,0.3c-1,0.1-2.1,0.3-3.1,0.4c0-0.2-0.1-0.4-0.1-0.6
			c-0.2-0.9-0.4-1.8-1.3-2.4c-0.8-0.5-1.8-0.4-2.7-0.4c-1.9,0-3.8,0.1-5.8,0.2c0.6-0.2,1.2-0.5,1.7-0.9c1.1-1,1.2-2.3,0.8-3.6
			c1.8,0,3.6,0,5.3,0.2C267.3,201.8,268.4,202,269.6,202.2z M268.8,224.9c-0.1,0.4-0.1,0.9-0.2,1.3c0,0,0,0.1,0,0.1
			c-0.2,0-0.4,0-0.6,0c-0.5,0-0.9,0-1.4,0c0-1.1-0.6-2.1-1.7-2.5c-0.8-0.4-1.8-0.5-2.7-0.7c-1-0.2-2-0.3-3-0.5c-1-0.1-2-0.2-2.9-0.2
			c0.3-0.3,0.5-0.7,0.6-1.2c1.6,0.2,3.3,0.4,4.9,0.6c0.4,0.1,1-0.2,1.3-0.5c0.4-0.4,0.5-0.8,0.5-1.3c0-0.2,0-0.4,0-0.6
			c0.5,0,1,0.1,1.5,0.1c0.5,0,1.1,0.1,1.6,0.2c0.1,0,0.4,0.1,0.5,0.1c0.2,0,0.5,0.1,0.7,0.1c0.5,0.1,1.1,0.2,1.6,0.3c0,0,0,0,0,0
			c0,0.1,0,0.1,0,0.2c-0.1,0.5-0.2,1-0.3,1.6C269.1,222.8,269,223.9,268.8,224.9z M250.6,256.8c-0.1-0.1-0.2-0.1-0.3-0.1
			c-0.8-0.5-1.6-1-2.4-1.4c-1.1-0.7-2.3-1.4-3.4-2c0.1-0.1,0.3-0.1,0.4-0.2c1.4-0.6,2.9-0.8,4.4-1.3c0.2,0,0.3-0.1,0.4-0.2
			c1.2,1.1,2.4,2.2,3.6,3.3c0,0,0.1,0.1,0.1,0.1c-0.7,0.5-1.4,0.9-2.1,1.4C251.3,256.3,250.9,256.6,250.6,256.8z M250.5,256.8
			c-0.1,0.1-0.2,0.1-0.2,0.1C250.2,256.8,250.4,256.8,250.5,256.8z M238.4,252.6c-0.3-0.2-1.2-0.4-1.3-0.5c-0.9-0.4-1.8-0.8-2.7-1.3
			c-1.7-0.9-3.3-1.9-4.8-3c0.1,0,0.1-0.1,0.2-0.1c1.1-0.4,2.1-0.7,3.3-0.9c0.4-0.1,0.9-0.5,1.1-0.9c0,0,0,0,0-0.1
			c0.7,0.3,1.3,0.5,2,0.7c1.4,0.3,2.9,0.4,4.2-0.3c0,0,0.1,0,0.1-0.1c1.2,0.5,2.4,1.1,3.7,1.6c0.6,0.3,1.3,0.5,1.9,0.8
			c-0.8,0.2-1.6,0.5-2.4,0.9c-1.8,0.8-3.4,1.8-4.9,3C238.5,252.5,238.5,252.6,238.4,252.6z M216.4,250.1c-0.3-0.5-0.7-1-0.9-1.5
			c-0.2-0.4-0.4-0.8-0.6-1.2c0-0.1-0.1-0.1-0.1-0.2c0.2-0.1,0.4-0.2,0.7-0.2c0.8-0.3,1.5-0.5,2.3-0.8c0.9-0.3,1.5-1.1,1.3-2.1
			c0.5,0.1,1,0.2,1.6,0.1c0.6-0.1,1.2-0.3,1.8-0.4c0.7,0.9,1.4,1.8,1.9,2.8c0.2,0.3,0.4,0.7,0.6,1c0,0.2,0.1,0.4,0.2,0.5
			c0,0,0.1,0.1,0.1,0.1c-0.4,0.1-0.8,0.2-1.2,0.2c-1,0.2-2,0.4-3,0.6C219.5,249.5,217.9,249.8,216.4,250.1z M213.7,247.6
			C213.7,247.6,213.7,247.6,213.7,247.6C213.7,247.6,213.7,247.6,213.7,247.6C213.7,247.6,213.7,247.6,213.7,247.6z M205.4,243.5
			c0.3,1.2,0.6,2.3,0.9,3.5c0.1,0.5,0.3,1,0.4,1.5c-0.6-0.1-1.2-0.1-1.8-0.2c-1.3-0.1-2.5-0.2-3.8-0.3c-2-0.1-4-0.1-5.9-0.1
			c-0.1-1.3-0.1-2.6,0.2-3.8c0-0.1,0-0.3,0-0.4c1.4,0.2,2.7,0.5,4.1,0.8c0.7,0.2,1.5-0.1,2-0.7c0.5-0.6,0.5-1.3,0.2-2
			c1.2,0.3,2.5,0.6,3.7,0.8C205.3,242.9,205.3,243.2,205.4,243.5z M163.9,248.2c-1-0.9-2-1.9-2.9-2.9c-0.2-0.2-0.4-0.6-0.7-0.9
			c0.4-0.4,0.9-0.7,1.5-1c1.4-0.9,2.8-1.8,3.7-3.3c0.1-0.3,0.3-0.8,0.6-0.9c-0.1,0,0.3,0,0.4,0c0.4,0.1,0.8,0.3,1.2,0.6
			c-0.4,0.8-0.3,1.7,0.1,2.4c0.5,0.7,1.2,1,2,1.4c0.4,0.2,0.8,0.4,1.2,0.5C168.4,245.3,166.1,246.6,163.9,248.2z M153.1,242.7
			C153.1,242.7,153,242.7,153.1,242.7C153.1,242.7,153.1,242.7,153.1,242.7z M161.8,236.7c0.4-0.3,0.7-0.6,0.9-1.1
			c0.1-0.3,0.1-0.8,0-1.1c0.2,0,0.4,0,0.6,0c0.3,0.7,0.9,1.3,1.7,1.3c-0.6,0.2-1.2,0.5-1.7,1.1c-0.7,0.8-1,1.8-1.7,2.4
			c-0.2,0.2-0.6,0.5-1,0.7c-0.4,0.2-0.8,0.5-1.2,0.7c-1,0.6-1.9,1.3-2.5,2.2c0,0-0.1,0.1-0.1,0.1c0.1-0.8-0.1-1.5-0.5-2.3
			C158.1,239.3,159.9,238,161.8,236.7z M176.1,228.5c0.4-0.2,0.7-0.5,1.1-0.7c0.1-0.1,0.3-0.2,0.4-0.3c0,0,0,0.1,0.2,0.1
			c0.9,0.2,1.7,0.6,2.6,0.9c0.9,0.3,1.8,0.7,2.7,1.1c0.8,0.3,1.8,0.7,2.5,1.2c0.1,0.1,0.2,0.1,0.2,0.2c-0.1,0.1-0.4,0.4-0.5,0.5
			c-0.5,0.4-1.1,0.6-1.7,0.7c-1.6,0.4-3.2,0.2-4.8,0.2c-2.7-0.1-5.4-0.1-8.2-0.2C172.4,230.9,174.3,229.7,176.1,228.5z M183.4,218.3
			c-0.2-0.3-0.4-0.6-0.6-1c0,0,0-0.1-0.1-0.1c0.1-0.2,0.2-0.3,0.3-0.6c0.5-0.9,1.2-1.6,1.9-2.2c0.6,0,1.2-0.4,1.5-0.9
			c0,0,0.1,0.1,0.1,0.1c0.4,0.5,0.7,1,1,1.6c0.8,1.3,1.8,2.5,3.3,2.9c1,0.3,2,0.3,2.9-0.2c0,0,0,0,0,0c0.5,1.3,0.9,2.7,1.2,4.1
			c-1.8-0.6-3.7-1-5.5-1.2c-0.7-0.1-1.4,0.1-2.1,0.3c-0.2-0.5-0.6-0.8-1.2-1c-0.2-0.1-0.4-0.1-0.5-0.2c-0.4-0.2-0.9-0.4-1.3-0.7
			C184,219,183.7,218.7,183.4,218.3z M200,199.1C200,199.1,200,199.1,200,199.1C200,199.1,200,199.1,200,199.1
			C200,199.1,200,199.1,200,199.1z M201.6,204.3C201.6,204.3,201.6,204.3,201.6,204.3c0.4,0.3,0.8,0.6,1.1,0.9
			c0.6,0.5,1.1,1,1.7,1.4c-0.2,0.3-0.4,0.6-0.6,1c-0.3,0.6-0.6,1.1-0.9,1.7c-0.4-0.2-0.8-0.4-1.3-0.4c-0.7,0-1.3,0.3-1.9,0.5
			c-0.6,0.2-1.2,0.4-1.7,0.7c-0.4,0.1-0.7,0.3-1.1,0.4c0.1-0.3,0.1-0.6,0-0.9c-0.3-0.9-0.6-1.7-0.9-2.6
			C197.9,206.4,199.8,205.5,201.6,204.3z M206.7,203.7C206.7,203.7,206.7,203.7,206.7,203.7C206.4,203.9,206.6,203.7,206.7,203.7z
			 M215.4,202.4c-0.4,0.8-0.7,1.6-1,2.4c-0.4,1.5,0.2,2.7,1.2,3.8c0.3,0.4,0.7,0.8,1,1.2c-0.1,0-0.1,0-0.2,0c-0.7,0-1.3,0.4-1.6,1
			c-0.1,0.1-0.2,0.1-0.3,0.2c0-0.1-0.1-0.2-0.1-0.3c-0.8-1.9-1.6-3.8-2.5-5.7C213.1,204.3,214.3,203.4,215.4,202.4z M219.8,201
			C219.7,201,219.6,201,219.8,201L219.8,201z M219.8,201.4c0,0,0-0.1,0.1-0.1c0,0,0,0,0-0.1c0,0,0-0.1,0.1-0.1
			c0.4,0.1,0.7,0.3,1.1,0.4c0.8,0.3,1.5,0.6,2.2,1c1.3,0.6,2.5,1.2,3.7,1.9c0,0.6,0.1,1.3,0.4,1.8c0.5,0.9,1.4,1.3,2.4,1.4
			c0.6,0.1,1.2,0.1,1.8,0.2c-0.1,0.2-0.2,0.5-0.2,0.7c-0.1,0.3-0.2,0.5-0.3,0.8c0,0.1-0.1,0.2-0.1,0.3c0,0,0,0.1,0,0.1
			c-0.1,0.1-0.1,0.3-0.2,0.4c-0.1,0.1-0.1,0.3-0.2,0.4c-0.1,0.3-0.2,0.5-0.4,0.8c-0.3,0.5-0.5,1.1-0.8,1.6c0,0.1-0.1,0.1-0.1,0.2
			c-1.3-0.1-2.6-0.2-3.9-0.3c-0.2,0-0.4,0-0.6,0.1c-0.2-0.9-0.5-1.8-1.4-2.3c-0.7-0.5-1.5-0.6-2.3-0.6c0,0,0,0-0.1,0
			c-0.1-0.4-0.2-0.8-0.5-1.1c-0.6-0.7-1.2-1.4-1.8-2.2c-0.1-0.1-0.5-0.6-0.7-0.8c0-0.1,0.1-0.2,0.1-0.4c0.3-0.9,0.7-1.7,1-2.6
			C219.4,202.4,219.6,201.9,219.8,201.4z M236.7,200.2c1.2,0,2.5,0.1,3.7,0c0,0,0,0,0,0c0,0.1,0.1,0.2,0.1,0.2
			c0.2,0.4,0.4,0.8,0.6,1.3c-0.4,0.5-0.6,1.1-0.4,1.7c0.1,0.3,0.2,0.5,0.4,0.7c-0.4,0-0.8,0-1.2,0c-2.6,0-5.2-0.1-7.7-0.2
			c-0.1,0-0.9-0.1-1.5-0.1c0.2-0.5,0.1-1-0.1-1.5c0-0.7,0-1.4,0-2.2C232.7,200.2,234.7,200.2,236.7,200.2z M257.5,202.4
			C257.4,202.4,257.4,202.4,257.5,202.4C257.4,202.4,257.5,202.4,257.5,202.4z M265,209.6C265.2,209.6,265.1,209.7,265,209.6
			L265,209.6z M264.3,209.7c0.1,0.2,0.1,0.5,0.2,0.7c0.1,0.6,0.2,1.2,0.3,1.8c-2.9-0.6-5.9-1.3-8.7-2.2c2.2-0.2,4.3-0.3,6.5-0.3
			C263.2,209.7,263.8,209.7,264.3,209.7z M261.6,229.1c-0.2,0.5-0.4,0.9-0.6,1.4c-0.4-0.9-0.8-1.8-1.6-2.2c-1.2-0.6-2.8-0.4-4.1-0.3
			c-2.6,0.1-5.1,0.4-7.7,0.8c0-0.7,0-1.5,0-2.2c1.4-0.6,2.8-1.2,4.2-1.8c0.2,0.8,0.9,1.4,1.8,1.4c1.6,0,3.1,0,4.7,0.2
			c1.1,0.1,2.3,0.3,3.6,0.6c-0.3,0.3-0.5,0.8-0.5,1.3C261.3,228.5,261.4,228.8,261.6,229.1z M257.2,231.2
			C257.2,231.2,257.2,231.2,257.2,231.2C257.2,231.2,257.2,231.2,257.2,231.2z M257.8,231.6c0,0-0.1,0-0.1,0
			C257.7,231.6,257.8,231.6,257.8,231.6z M210.6,234.1c-0.2-0.3-0.5-0.5-0.9-0.6c-0.3-0.1-0.7-0.2-1-0.4c-0.2-0.1-0.3-0.1-0.5-0.2
			c-0.1,0-0.1,0-0.2-0.1c-0.6-0.3-1.2-0.6-1.8-0.9c-0.6-0.3-1.2-0.7-1.7-1c-0.3-0.2-0.6-0.4-0.9-0.6c-0.1-0.1-0.3-0.2-0.4-0.3
			c0,0,0,0,0,0c0-0.1,0-0.2,0.1-0.3c0,0,0,0,0,0c0.1,0,0.3,0,0.4-0.1c0.3-0.1,0.6-0.3,0.8-0.5c0,0,0.1-0.1,0.1-0.1
			c0.5-0.4,1-0.7,1.6-0.9c0.4-0.1,0.8-0.3,1.2-0.4c0.2-0.1,0.5-0.2,0.7-0.4c0,0.1,0,0.2,0,0.4c0,0.1,0,0.2,0,0.2c0,0.1,0,0.1,0,0.2
			c0,0.2,0.1,0.5,0.1,0.7c0.1,0.2,0.2,0.4,0.3,0.6c0,0.2,0.1,0.3,0.2,0.4c0.9,1.3,1.8,2.6,2.6,3.8C211,233.8,210.8,234,210.6,234.1z
			 M195.2,236.3C195.2,236.3,195.2,236.3,195.2,236.3C195.2,236.3,195.1,236.3,195.2,236.3z M198.9,231.5c0,0,0,0.1-0.1,0.2
			c-0.7-0.2-1.5-0.3-2.2-0.4c-0.8-0.2-1.6-0.3-2.4-0.5c-1.6-0.3-3.2-0.6-4.8-0.9c0-0.1,0-0.2-0.1-0.2c-0.4-1.4-1.7-2.1-2.9-2.7
			c0.4-0.4,0.7-0.8,1-1.2c0.7-0.8,1-1.3,2-1.2c1.5,0.1,3,0.7,4.4,1.1c1.5,0.4,2.9,0.9,4.3,1.5c0.5,0.2,1.1,0.6,1.6,0.8
			c-0.1,0.4-0.2,0.8-0.3,1.2C199.3,230,199.1,230.7,198.9,231.5z M201.2,212.9c0,0,0.1,0.1,0.1,0.1c0.3,0.4,0.7,0.9,1,1.3
			c0.6,0.7,1.1,1.4,1.7,2.1c0,0.1-0.1,0.3-0.1,0.4c-0.4,1.2-0.9,2.5-0.9,3.8c0,1.3,0.5,2.6,1.4,3.6c0.1,0.1,0.3,0.2,0.4,0.4
			c-0.7,0.3-1.3,0.6-1.9,1c-0.2-0.2-0.3-0.3-0.6-0.5c-1-0.7-2.2-1.1-3.3-1.5c-0.3-1.7-0.6-3.3-1.1-5c-0.3-0.9-0.6-1.8-1-2.8
			c-0.2-0.4-0.3-0.8-0.5-1.2c0.7-0.3,1.5-0.6,2.2-0.8c0.5-0.2,0.9-0.3,1.4-0.5C200.3,213.2,200.8,213.1,201.2,212.9z M225.4,216.5
			c3.2,0.1,6.4,0.5,9.6,1.1c-0.1,0-0.1,0.1-0.2,0.1c-1.7,0.9-2.1,3-0.7,4.3c0.2,0.1,0.3,0.3,0.5,0.4c-0.7,0.5-1.4,1-2.1,1.4
			c-0.4,0.3-0.9,0.6-1.3,0.6c-0.1,0-0.1,0-0.3-0.1c-0.2-0.1-0.3-0.2-0.5-0.5c-1.7-1.7-3.6-3.2-5.8-4.3c0.1-0.8,0.2-1.7,0.2-2.5
			c0-0.3,0-0.5,0-0.8C225.1,216.4,225.2,216.4,225.4,216.5z M239.1,207.9c0,0.1-0.1,0.3,0,0.5c0.2,2.3,1,4.5,2.4,6.2
			c-0.4,0.2-0.9,0.4-1.3,0.6c-0.1,0.1-0.3,0.1-0.4,0.2c-0.2-0.4-0.6-0.8-1.1-0.9c-1.7-0.4-3.5-0.8-5.3-1c0.9-1.8,1.7-3.7,2.3-5.6
			C236.8,207.9,237.9,207.9,239.1,207.9z M245.6,223.3c-0.4,0.2-0.7,0.3-1.1,0.5c-0.1,0-0.2,0.1-0.3,0.1c-0.3-0.3-1.4-1.2-1.6-1.3
			c-0.7-0.6-1.5-1.1-2.3-1.6c-0.6-0.3-1.2-0.6-1.8-0.9c0.1-0.1,0.2-0.1,0.3-0.2c0.9-0.4,1.9-0.9,2.8-1.3c1.3-0.6,2.6-1.2,3.9-1.8
			c0.2,0.1,0.4,0.3,0.6,0.3c1.4,0.5,2.7,1.1,3.9,1.8c0.6,0.3,1.2,0.7,1.8,1.1c0.2,0.1,0.3,0.2,0.4,0.3c-0.5,0.2-0.9,0.4-1.4,0.6
			c-0.8,0.4-1.7,0.7-2.5,1.1C247.5,222.5,246.6,222.9,245.6,223.3z M236.7,219.3C236.7,219.3,236.7,219.3,236.7,219.3
			C236.7,219.3,236.7,219.3,236.7,219.3z M244.8,212.7c-0.2-0.2-0.3-0.3-0.4-0.5c-0.4-0.5-0.7-1.1-1-1.7c-0.2-0.6-0.4-1.3-0.5-2
			c0-0.1,0-0.1,0-0.2c0-0.2,0-0.3-0.1-0.5c0.6-0.1,1.1-0.2,1.6-0.5c1.4-0.8,1.5-2.1,1.4-3.4c0.3-0.1,0.6-0.1,1-0.2
			c0.2,0,0.2,0,0.2,0c0,0,0.1,0,0.1,0c0.2,0,0.4,0,0.6-0.1c0.4,0,0.7-0.1,1.1,0c0.1,0,0.2,0,0.4,0c0.1,0,0.1,0,0.2,0
			c0.1,0,0.1,0,0.2,0.1c0,0,0.1,0,0.1,0.1c0,0,0.1,0.1,0,0c0,0,0,0,0.1,0.1c0,0,0.2,0.4,0.1,0.3c0.2,0.6,0.4,1.3,0.6,1.9
			c0,0,0,0.1,0,0.1c0.3,0.9,0.6,1.9,0.9,2.8c0.3,0.8,0.5,1.6,0.8,2.4c0,0.1,0,0.2,0.1,0.2c0,0,0,0,0,0c0.1,0.2,0.1,0.3,0.1,0.5
			c-0.1,0.1-0.1,0.2-0.2,0.3c-0.1,0-0.1,0-0.2,0c-0.2,0-0.3,0-0.5,0.1c-0.3,0.1-0.6,0.2-0.8,0.5c-0.3,0.3-0.6,0.6-0.8,0.8
			c-0.1,0.1-0.2,0.2-0.3,0.4c-0.4-0.2-0.9-0.4-1.3-0.6c0-0.1-0.1-0.3-0.2-0.4c-0.6-0.9-1.6-1.1-2.6-0.7c-0.1,0.1-0.3,0.1-0.4,0.2
			C244.9,212.9,244.8,212.8,244.8,212.7z M252.4,212.6C252.4,212.6,252.4,212.7,252.4,212.6C252.4,212.6,252.4,212.6,252.4,212.6
			C252.4,212.6,252.4,212.6,252.4,212.6c0,0,0,0.1,0,0.1C252.4,212.7,252.4,212.7,252.4,212.6z M208.1,207.9
			c0.1-0.1,0.2-0.3,0.3-0.4c0.1-0.1,0.2-0.2,0.2-0.3c0.5,1.3,1.1,2.5,1.6,3.8c-0.8-0.4-1.6-0.7-2.4-0.6c-0.8,0-1.3,0.4-1.8,0.8
			C206.7,210,207.4,208.9,208.1,207.9z M216.5,220.1C216.5,220.1,216.5,220.1,216.5,220.1C216.5,220.1,216.5,220.1,216.5,220.1z
			 M216.7,220.3c0,0.1,0,0.1,0,0.1C216.7,220.4,216.7,220.4,216.7,220.3z M216.6,220.1L216.6,220.1
			C216.6,220.1,216.6,220.1,216.6,220.1C216.6,220.1,216.6,220.1,216.6,220.1z M212,223.7c-0.2,0-0.5,0-0.6,0
			c-0.5-0.1-0.9-0.2-1.4-0.4c-0.9-0.3-1.7-0.8-2.5-1.3c-0.1-0.1-0.1-0.1-0.1-0.1c0,0,0,0-0.1-0.1c-0.1-0.1-0.5-0.5-0.3-0.3
			c-0.2-0.3-0.2-0.3-0.2-0.8c0-0.9,0.5-2,0.8-3c0.4-1.1,0.7-2.2,1.1-3.3c0,0,0-0.1,0-0.1c0.1,0,0.1,0.1,0.1,0.1
			c0.8,0.4,1.5,0.9,1.9,1.5c0.6,0.8,1.5,1.2,2.4,0.7c0,0.4-0.1,0.8-0.1,1.2c-0.1,1.2-0.3,2.5,0.1,3.6c0.1,0.2,0.1,0.4,0.2,0.5
			c-0.2,0.3-0.4,0.7-0.4,1.1c0,0,0,0,0,0c0,0,0,0,0,0c0,0,0,0.1-0.1,0.1c0,0,0,0-0.1,0.1c-0.1,0.1-0.1,0.1-0.1,0.1
			c0,0-0.1,0.1-0.1,0.1c-0.1,0-0.1,0.1-0.2,0.1c0,0-0.1,0-0.1,0C212.3,223.6,211.9,223.7,212,223.7z M217.2,226.4
			c-0.4-0.4-0.7-0.8-1.1-1.2c0.3-0.4,0.4-0.8,0.6-1.3c0,0,0,0,0,0c1.4,0.1,2.8,0.2,4.1,0.2c0.8,0,1.6,0,2.3-0.3
			c0.2-0.1,0.4-0.3,0.6-0.4c0.7,0.4,1.4,0.9,2.1,1.4c0.2,0.2,0.4,0.4,0.6,0.5C223.3,225.6,220.3,226,217.2,226.4
			C217.2,226.4,217.2,226.4,217.2,226.4z M221.5,213.7c0.1,0,0.1,0,0.1,0C221.6,213.7,221.6,213.7,221.5,213.7z M221.2,213.6
			c0,0.1,0,0.2,0,0.3c0,0.6,0,1.1,0,1.7c0,1-0.1,2.1-0.2,3.1c0,0.3-0.1,0.5-0.1,0.8c0,0,0,0.1,0,0.2c0,0.1,0,0.2-0.1,0.3
			c0,0.1,0,0.2,0,0.3c-0.2,0-0.4,0-0.6,0c-0.5,0-1.1,0-1.6-0.1c-0.5,0-1-0.1-1.5-0.1c-0.1,0-0.3,0-0.4,0c0,0,0,0,0,0c0,0,0,0,0-0.1
			c0-0.3,0-0.7,0-0.9c0.1-1.2,0.2-2.4,0.3-3.6c0.1-0.6,0.1-1.2,0.2-1.7c0,0,0,0,0,0c0.1-0.1,0.2-0.1,0.3-0.2c0.8,0,1.5,0,2.3,0
			C220.2,213.6,220.7,213.6,221.2,213.6z M195.5,215C195.5,215,195.5,215,195.5,215C195.4,215,195.5,215,195.5,215z M215.1,232.8
			c-1.1-1.6-2.2-3.2-3.3-4.8c0,0-0.1-0.1-0.1-0.1c0,0,0,0,0,0c0,0,0-0.1,0-0.1c0,0,0-0.1,0.1-0.1c0.1-0.1,0.1-0.2,0.1-0.3
			c0.3,0,0.7,0,1-0.1c1.1,1.2,2.2,2.4,3.2,3.7c0.3,0.3,0.5,0.6,0.7,0.9c0.1,0.1,0.1,0.2,0.2,0.2c0,0,0.2,0.3,0.1,0.1
			c-0.2-0.2,0.1,0.1,0.1,0.2C216.5,232.5,215.8,232.7,215.1,232.8z M221.5,231.9c-0.5-0.7-1.1-1.4-1.6-2.1c3-0.4,5.9-0.8,8.9-1.1
			c0.5-0.1,1-0.3,1.3-0.6c1.3,0.3,2.6,0,3.8-0.7c1.5-0.9,2.8-1.9,4.3-2.9c0.1-0.1,0.3-0.2,0.4-0.3c0.6,0.4,1.2,0.7,1.8,1.2
			c0.7,0.5,1.2,1.2,2,1.7c0.5,0.4,1.1,0.5,1.6,0.5c0,0.5,0,1.1,0,1.6c0,0.4,0,0.8-0.1,1.2c0,0.2-0.1,0.5-0.1,0.7
			c0,0.1-0.1,0.4-0.1,0.4c-0.1,0.8-0.3,1.6-0.5,2.3c-0.1,0-0.2-0.1-0.3-0.1c-1.5-0.5-2.9-1.1-4.4-1.6c-0.8-0.3-1.6-0.7-2.4-0.8
			c-1-0.2-1.9,0.1-2.8,0.5c-1.5,0.7-3,1.5-4.4,2.2c-0.5-0.3-0.9-0.6-1.4-0.9c-0.2-0.8-0.7-1.5-1.8-1.4
			C224.3,231.7,222.9,231.8,221.5,231.9z M227.6,244.6c-0.4-0.7-0.8-1.4-1.3-2c0.1,0,0.2-0.1,0.4-0.1c0.2,0.3,0.6,0.5,0.9,0.6
			c0.6,0.2,1.2,0.5,1.8,0.7C228.8,244.1,228.2,244.4,227.6,244.6z M233.3,241.5c-0.4-0.2-0.9-0.4-1.3-0.5c0.9-0.5,1.3-1.7,0.7-2.6
			c-0.3-0.5-0.7-1.1-1-1.6c1-0.5,2-1,2.9-1.5c0.7-0.3,0.7-0.4,1.5-0.1c0.7,0.3,1.4,0.5,2.1,0.8c1.3,0.5,2.5,0.9,3.8,1.4
			c-0.3,0.3-0.6,0.6-0.8,0.9c-0.9,1.1-1.4,2.3-2,3.6c-0.4,1-0.8,1.2-1.8,1.1C236,242.8,234.6,242.1,233.3,241.5z M254.7,217.1
			c-0.1,0-0.2,0-0.4,0c-0.5-0.3-1-0.6-1.5-0.9c0.1-0.1,0.2-0.2,0.3-0.3c0.2-0.2,0.3-0.4,0.4-0.6c0.4,0.1,0.8,0,1.2-0.2
			c0.6-0.3,0.9-0.8,1.1-1.2c1.2,0.4,2.4,0.7,3.6,1c0.1,0.3,0.1,0.6,0.2,0.9c0,0.1,0,0.3,0.1,0.4c0,0,0,0,0,0c0,0.2,0.1,0.5,0.1,0.7
			c0,0.3,0,0.6,0,0.9C258.2,217.6,256.5,217.3,254.7,217.1z M191.6,206c0.1,0.4,0.3,0.7,0.4,1.1c0.4,1.2,0.8,2.4,1.2,3.5
			c0.1,0.4,0.4,0.7,0.7,1c-0.5,0.2-0.9,0.5-1.3,1.1c-0.3,0.5-0.4,1.2-0.3,1.8c0,0-0.1,0.1-0.1,0.1c0,0,0,0,0,0c-0.1,0-0.1,0-0.1,0
			c-0.1,0-0.2-0.1-0.2,0c0,0,0,0,0,0c0,0,0,0,0,0c0,0-0.2-0.2-0.2-0.2c-0.1-0.1-0.3-0.3-0.4-0.4c0,0,0,0,0,0
			c-0.1-0.1-0.1-0.2-0.2-0.3c-0.1-0.2-0.2-0.4-0.4-0.6c-1-1.7-2.2-3.2-3.7-4.6c-0.3-0.3-0.7-0.6-1-0.8c0,0-0.1-0.1-0.1-0.1
			C187.7,207,189.6,206.4,191.6,206z M170.8,237.7c-0.1-0.2-0.3-0.4-0.5-0.5c-0.7-0.5-1.6-1-2.5-1.3c1.6,0,3.2,0.1,4.9,0.1
			C172.1,236.6,171.5,237.2,170.8,237.7z M175.1,241.9c-0.8-0.3-1.6-0.7-2.4-1c0.1-0.1,0.2-0.1,0.3-0.2c0.8-0.6,1.6-1.3,2.3-2
			c0.2,0.1,0.4,0.2,0.6,0.3c2.1,0.7,4.3,1.3,6.4,2c1.1,0.4,2.6,0.9,3.6,1.8c-0.2,0.2-0.5,0.3-0.7,0.5c-0.6,0.4-1.1,0.7-1.8,0.9
			c-1.4,0.4-2.7,0-4-0.4C177.9,243.3,176.5,242.6,175.1,241.9z M186.4,238.8c-2.1-1.3-4.6-2-7.1-2.7c3,0.1,6.2,0.1,8.6-2
			c0.2-0.2,0.3-0.3,0.5-0.5c1.8,0.3,3.5,0.7,5.3,1c-0.1,0.4,0,0.8,0.2,1.1c0.3,0.5,0.9,0.8,1.5,0.9c0.1,0.3,0.2,0.5,0.3,0.8
			c0.1,0.3,0.3,0.6,0.4,0.9c-0.1,0.8,0.2,1.4,0.8,1.8c0,0,0,0,0,0.1C193.4,239.5,189.9,239.1,186.4,238.8z M199.7,237.3
			c-0.2-0.4-0.3-0.8-0.5-1.1c-0.1-0.2-0.2-0.4-0.3-0.6c1.2,0.1,2.3-0.3,3-1.5c0-0.1,0.1-0.2,0.1-0.3c2,1.4,4.2,2.5,6.6,3.3
			c0.4,0.1,0.8,0.1,1.2-0.1c0,0,0,0,0,0c0.4,0.7,1.1,1.1,1.7,1.6c0.3,0.2,0.5,0.4,0.8,0.6C208,239.5,203.8,238.8,199.7,237.3z
			 M215.1,236.6c0.1,0,0.3-0.1,0.4-0.1c1.2-0.2,2.3-0.4,3.5-0.6c1.7-0.2,3.4-0.4,5.1-0.4c0.1,0.2,0.3,0.3,0.5,0.4
			c1.3,0.6,2.4,1.4,3.3,2.4c-2.5,0.7-5,1.4-7.5,2.1c-0.2,0.1-0.4,0.1-0.6,0.2c-0.2,0.1-0.2,0.1,0,0c-0.3-0.2-0.6-0.5-0.9-0.8
			c-0.7-0.5-1.3-1.1-2-1.6C216.4,237.7,215.7,237.2,215.1,236.6z M248.1,245.4c-0.5-0.2-0.9-0.3-1.3-0.5c-1.3-0.6-2.7-1.2-4-1.7
			c0-0.1,0.1-0.2,0.1-0.3c0.1-0.2,0.1-0.3,0.2-0.4c0,0,0,0,0,0c3.3-0.5,6.5-0.9,9.8-1.4c0.4-0.1,0.9-0.1,1.4-0.1c0,0.1,0,0.2,0,0.3
			c0.2,0.6,0.5,0.9,0.9,1.1c0.2,0.5,0.3,1.1,0.5,1.6c0.1,0.3,0.2,0.5,0.2,0.8c-0.3,0.1-0.6,0.1-1,0.2c-0.8,0.1-1.5,0.2-2.3,0.3
			C251.2,245.3,249.6,245.4,248.1,245.4z M257.9,238.5c-0.4-0.7-0.9-1.2-1.7-1.4c-0.8-0.3-1.7,0-2.5,0.1c-0.8,0.1-1.6,0.2-2.4,0.3
			c-1.7,0.2-3.3,0.5-5,0.7c0.2-0.5,0.3-1,0.1-1.7c0-0.1-0.1-0.2-0.1-0.2c0.4-1.2,0.6-2.4,0.8-3.6c0.1,0,0.3,0,0.4,0
			c2.1-0.4,4.2-0.7,6.3-0.8c1.1-0.1,2.2-0.1,3.4-0.1c0,0,0,0,0,0c0.2,0.4,0.5,1,0.5,1.2c0.4,1,0.8,2,1.2,3c0.2,0.5,0.4,1,0.6,1.5
			c0,0.1,0.2,0.5,0.3,0.9c-0.3,0.1-0.7,0.1-1,0.2C258.7,238.4,258.3,238.4,257.9,238.5z M260.5,238.1
			C260.6,238,260.6,238,260.5,238.1C260.5,238.1,260.5,238.1,260.5,238.1L260.5,238.1z M257.1,202.3c0,0,0,0.1,0,0.2
			c-1.2,0.3-2.4,0.7-3.7,1c0-0.1-0.1-0.3-0.1-0.4c-0.4-1-1-1.9-1.9-2.4c1.5-0.2,3.4-0.5,4.5,0.2c0.3,0.2,0.3,0.2,0.6,0.5
			c0.2,0.2,0.1,0,0.2,0.2c0.1,0.2,0.2,0.3,0.3,0.5C257,202.1,257.1,202.3,257.1,202.3z M232.1,196.5c-1,0-2,0-3,0
			c-1.1,0-1.7,0.7-1.8,1.6c-0.2,0.3-0.3,0.7-0.4,1.1c0,0.3,0,0.6,0,1c-1-0.5-2-1-3-1.4c-0.2-0.1-0.5-0.2-0.7-0.3
			c0-1.6,0.1-3.2,0.1-4.9c3,0.6,5.9,1.1,8.9,1.7C232.2,195.6,232.2,196,232.1,196.5z M219.5,197.3c-0.9,0-1.7,0.4-2.3,1.2
			c-0.3,0.4-0.5,0.8-0.7,1.3c-0.2-0.8-0.9-1.4-1.6-1.9c-0.5-0.4-1.1-0.8-1.6-1.2c2.1-0.3,4.2-0.5,6.3-0.8
			C219.5,196.4,219.5,196.9,219.5,197.3z M205.1,197c1.4,0.4,2.7,1,4,1.6c0.7,0.4,1.4,0.8,2.1,1.3c0.2,0.1,0.5,0.3,0.7,0.5
			c-0.3,0.3-0.6,0.5-1,0.7c-0.8,0.6-1.6,1.1-2.5,1.6c-0.5,0.3-0.9,0.5-1.4,0.7c-0.1,0.1-0.3,0.1-0.4,0.2c-0.3-0.3-0.7-0.6-1-0.8
			c-0.5-0.4-0.9-0.8-1.4-1.2c-0.9-0.7-1.7-1.5-2.6-2.2c-0.3-0.3-0.7-0.6-1-0.9c0.2-0.1,0.4-0.3,0.6-0.4c0.4-0.2,0.8-0.4,1.2-0.5
			C203.3,197.4,204.2,197.2,205.1,197z M160.5,227C160.5,227,160.5,227,160.5,227C160.5,227,160.5,227,160.5,227z M160.5,229.3
			c0.2-0.6,0.3-1.1,0.5-1.7c0-0.1,0.1-0.3,0.1-0.4c0.5,0.1,1,0.2,1.5,0.3c1,0.2,2.1,0.5,3.1,0.7c1,0.2,2,0.5,3,0.7
			c-1,0.6-1.9,1.3-2.9,1.9c-0.2-0.1-0.4-0.1-0.7-0.1c-1.7,0-3.4,0-5.1-0.1C160.2,230.2,160.3,229.7,160.5,229.3z M148.9,238.7
			c0.3-0.1,0.7-0.3,1-0.4c0,0,0.1,0,0.2-0.1c0.2,0.3,0.5,0.6,0.7,0.9c0.3,0.5,0.6,0.9,0.9,1.4c0.3,0.5,0.6,0.9,0.9,1.4c0,0,0,0,0,0
			c-0.2,0.1-0.3,0.2-0.5,0.3c-0.5,0.2-0.9,0.5-1.4,0.7c-1.7,0.8-3.4,1.4-5.2,2c-0.3-0.7-0.6-1.5-1-2.2c-0.2-0.4-0.4-0.8-0.5-1.3
			C145.6,240.4,147.2,239.5,148.9,238.7z M228.6,186.8c16.8,0.3,33.5,0.7,50.3,1.1c8.7,0.2,17.5,0.4,26.2,0.6
			c-1.4,2.6-2.8,5.1-4.2,7.6c-0.2-0.8-0.9-1.4-1.8-1.4c-2.6,0-5.1,0-7.7,0c-0.1-0.1-0.1-0.2-0.2-0.4c-0.9-1.3-2.3-1.9-3.8-2.3
			c-0.5-0.4-1.1-0.5-1.7-0.4c-1.7,0.5-3.4,1.1-5,1.8c0,0,0,0,0,0c0,0,0,0,0,0c-2.3-2.9-6.5-2.9-9.7-1.9c-1.9,0.6-4.3,1.1-4.5,3.5
			c-0.1,0.9,0.2,2,0.4,2.9c0,0,0,0,0,0.1c-2.6-0.3-5.3-0.4-7.9-0.2c-0.2,0-0.4,0.1-0.6,0.1c-1.8-1.3-4-1.5-6.2-1.2
			c-0.2,0-0.4,0.1-0.6,0.1c-0.1-0.3-0.2-0.6-0.5-0.8c-0.5-0.5-0.8-1.5-1.2-2.2c-0.4-1-1.1-1.8-2-2.4c-1.9-1.3-4.5-1.1-6.7-1.2
			c-1.2-0.1-2.5-0.1-3.7-0.2c-1.2-0.1-2.4-0.2-3.5,0.5c-0.4,0.3-0.7,0.6-0.9,1c-3.7-0.7-7.4-1.4-11-2.1c-1.2-0.2-2.3,0.5-2.4,1.8
			c0,0.3,0,0.7,0,1c-3.6,0.5-7.2,0.9-10.8,1.4c-0.4,0-0.7,0.2-1,0.4c-0.8-0.3-1.6-0.6-2.4-0.8c-0.7-0.2-1.2,0-1.6,0.3
			c-1.2,0.2-2.3,0.6-3.4,1.1c-0.2,0.1-0.4,0.2-0.6,0.3c-0.2-0.2-0.4-0.3-0.7-0.4c-1.7-0.3-3.5-0.6-5.2-0.9c-1.7-0.3-3.4-0.6-5,0.2
			c-1.5,0.8-2.2,2.4-2.7,3.9c0,0,0,0,0,0c-1.3,0-2.7,0-4,0c-0.2-1.4-0.4-2.7-0.6-4.1c0.2-0.4,0.3-0.9,0.2-1.4
			c-0.3-1.4-0.6-2.9-0.9-4.3C196.7,186.6,212.7,186.5,228.6,186.8z M140.6,232.7c8.6-9.1,16.9-18.4,25.1-27.8c4-4.6,8-9.3,11.9-14
			c0.2,0.8,0.3,1.5,0.5,2.3c-0.1,0.1-0.1,0.2-0.2,0.4c-0.1,0.3-0.1,0.7,0,1c0.2,1.4,0.4,2.7,0.6,4.1c-0.4,0.2-0.8,0.5-1.1,0.8
			c-1,1.2-1.5,3-2.1,4.4c-0.6,1.5-1.2,3-1.8,4.5c-0.6,0.3-1.2,0.6-1.6,1.1c-1,1-1.5,2.3-2.1,3.6c-0.6,1.3-0.9,2.8-0.5,4.3
			c0.1,0.4,0.3,0.8,0.6,1.2c-1.6,0.1-3.3,0.3-4.9,0.4c-0.7,0.1-1.5,0.1-2.2,0.2c-0.8,0.1-1.7,0.1-2.3,0.8c-0.7,0.7-0.7,1.6-0.7,2.5
			c0,0.4,0,0.8,0,1.1c-1.1,0.2-1.9,1-2.2,2.2c-0.1,0.3-0.2,0.5-0.2,0.8c-1.7-0.7-3.4-1.2-5.2-1.4c-0.9-0.1-1.5,0.7-1.8,1.4
			c-0.1,0.2-0.2,0.4-0.3,0.6c0,0-0.1,0.2-0.1,0.3c-0.1,0.3-0.3,0.7-0.5,1c-0.3,0.7-0.7,1.3-1,2c-0.8,1.3-1.6,2.6-2.6,3.8
			c-0.4,0.5-0.3,1.3,0,1.8c-1.4,0.7-2.8,1.5-4,2.5c-0.8,0.6-1.5,1.1-1.7,2.1c-0.1,0.4-0.1,0.9,0,1.3c-0.2,0-0.3,0.1-0.5,0.2
			c-2.9,1.4-4.9,4-7,6.3c-1.2,1.3-2.3,2.6-3.5,3.8c-1,1.2-2.1,2.5-3.4,3.4c-0.6,0.4-0.9,1-0.9,1.6c-2,0.1-3.9,0.2-5.9,0.2
			C125.6,248.6,133.1,240.6,140.6,232.7z"/>
		<path d="M329.5,175.2c-0.3-0.1-0.6-0.1-0.9,0c-0.2-0.1-0.5-0.2-0.8-0.2c-19.9-0.6-39.9-1.1-59.8-1.3c-19.9-0.3-39.7-0.3-59.6-0.2
			c-11.2,0.1-22.4,0.2-33.6,0.4c-0.9,0-1.5,0.5-1.7,1.2c0,0-0.1,0-0.1,0.1c-11.5,10.5-22.5,21.5-32.9,33.2
			c-10.4,11.6-20.1,23.8-29.2,36.5c-5.1,7.1-10,14.4-14.7,21.7c-0.1,0.1-0.1,0.2-0.2,0.4c-0.8,0.5-1,1.7-0.6,2.5c0,2.5,0.3,5,1,7.4
			c0.2,0.7,0.8,1.2,1.5,1.3c0.3,0.5,0.9,0.8,1.4,0.7c21.5-2.7,43.2-0.4,64.6,1.7c21.7,2.2,43.4,3.9,65.1,5.1
			c12.2,0.7,24.5,1.2,36.8,1.5c0.2,0,0.3,0,0.5,0c0.8,0.4,1.8,0.3,2.5-0.6c16.1-24.2,32.4-48.3,48.4-72.6
			c4.3-6.5,8.5-13.2,12.2-20.1c0.4-0.3,0.7-0.9,0.8-1.5c0.6-5.1,1-10.1,1.2-15.2C331.3,176.1,330.4,175.3,329.5,175.2z M126.1,230.7
			c9.6-12.1,19.8-23.7,30.6-34.7c6.1-6.3,12.4-12.3,18.9-18.2c0.1-0.1,0.1-0.1,0.2-0.2c19.6-0.3,39.2-0.5,58.8-0.4
			c19.9,0,39.7,0.3,59.6,0.7c10.6,0.2,21.3,0.5,31.9,0.8c-14.8,26.4-30.7,52.2-47.6,77.4c-4.6,6.8-9.3,13.6-14,20.4
			c-21.5-3.1-43.1-5.5-64.8-7.1c-21.9-1.7-43.8-2.7-65.7-3c-11.1-0.1-22.2-0.1-33.3,0.1C108.5,254.2,117,242.2,126.1,230.7z
			 M200.4,280.1c-10.8-0.8-21.6-1.8-32.4-2.8c-10.8-1.1-21.6-2.2-32.5-2.9c-11.9-0.7-23.9-0.7-35.8,0.7c-0.1-0.3-0.2-0.7-0.2-1
			c-0.1-0.3-0.1-0.6-0.2-0.9c0-0.2-0.1-0.3-0.1-0.5c0,0,0,0,0,0c0,0,0,0,0,0c-0.1-0.8-0.1-1.5-0.1-2.3c21.1-0.5,42.3-0.3,63.4,0.6
			c21.7,0.9,43.3,2.5,64.9,4.7c12,1.3,23.9,2.7,35.8,4.4c0.3,0.7,0.5,1.5,0.6,2.3c0,0.3,0.1,0.7,0.1,1
			C242.7,282.8,221.5,281.7,200.4,280.1z M303.3,227.8c-8.1,12.1-16.2,24.2-24.2,36.3c-3.9,5.8-7.8,11.7-11.7,17.5
			c-0.1-0.7-0.3-1.4-0.5-2.1c17.9-25.4,34.8-51.5,50.6-78.3c3.2-5.4,6.3-10.9,9.5-16.4c-0.2,2.2-0.4,4.5-0.6,6.7
			c-0.1,0.1-0.2,0.3-0.3,0.4C319.4,204.4,311.2,216,303.3,227.8z"/>
	</g>
	<g>
		<path d="M183.7,339.4c0-0.1-0.1-0.3-0.1-0.7l-0.2-1.4c-0.2-1.3-0.4-2.6-0.6-4c-0.2-1.4-0.4-2.9-0.7-4.4l-0.5-2.9
			c-0.2-1.1-0.2-1.2-0.2-1.2c-0.3-0.5-0.7-0.6-1-0.6c-0.3,0-0.6,0.1-0.7,0.3c-0.1,0.1-0.2,0.2-0.6,0.7c-0.2,0.3-0.6,0.8-0.9,1.4
			c-0.3,0.5-0.6,0.8-0.8,1.1c-0.1,0.1-0.1,0.2-0.2,0.2c0,0-0.1-0.1-0.1-0.1c-0.2-0.3-0.4-0.6-0.7-1c-0.4-0.6-0.7-1-0.9-1.4
			c-0.2-0.3-0.3-0.4-0.4-0.5l0,0c-0.3-0.4-0.7-0.6-1.2-0.6c-0.3,0-0.6,0.1-0.7,0.3c-0.1,0.1-0.2,0.4-0.3,1.1c0,0.4-0.1,0.9-0.1,1.4
			c0,0.5-0.1,0.9-0.1,1.4v0c-0.8,7-1.1,10.8-1.1,11.5c0,0.3,0.1,0.6,0.3,0.8c0.2,0.2,0.4,0.3,0.7,0.3c0.2,0,0.4-0.1,0.6-0.3l0,0
			c0,0,0,0,0,0c0,0,0,0,0,0h0c0.2-0.2,0.3-0.5,0.4-1.7c0-0.4,0.1-1.4,0.3-2.8c0.2-1.5,0.3-3.4,0.6-5.9c0.1-1.3,0.2-2.1,0.2-2.6
			c0,0,0,0,0.1,0.1c0.6,0.8,0.9,1.4,1.2,1.8c0.5,0.9,0.9,1.2,1.3,1.2c0.2,0,0.5-0.1,0.7-0.4c0.1-0.2,0.4-0.5,0.8-1l0.2-0.2
			c0.2-0.3,0.5-0.6,0.7-1c0.1-0.2,0.3-0.4,0.4-0.7c0.1,0.6,0.2,1.4,0.4,2.3c0.2,1.4,0.5,3.2,0.7,5.3c0.2,1.7,0.4,3.1,0.6,4.1
			c0.3,1.4,0.4,1.7,0.5,1.8c0.1,0.1,0.2,0.2,0.3,0.3c0.1,0.1,0.2,0.1,0.3,0.1c0,0,0.1,0,0.1,0c0.2,0,0.4-0.1,0.6-0.3
			c0.2-0.2,0.3-0.4,0.3-0.7c0-0.1,0-0.2,0-0.4L183.7,339.4z"/>
		<path d="M194.5,329.3c-0.1-0.6-0.2-1.3-0.4-2c-0.2-0.7-0.5-1.3-0.8-1.9c-0.4-0.6-0.8-1.1-1.4-1.4c-0.6-0.4-1.3-0.6-2.1-0.6
			c-0.7,0-1.3,0.1-1.8,0.4c-0.5,0.2-1,0.6-1.3,1c-0.4,0.4-0.6,0.9-0.8,1.5c-0.2,0.5-0.3,1.1-0.4,1.8c0,0.4-0.1,0.9-0.1,1.4
			c0,0.5,0,1.1,0,1.7c0,0.4,0,0.7,0.1,0.9c0,0.2,0,0.6,0,1.2c0,0.6,0,1.2,0.1,1.9c0.1,0.6,0.2,1.2,0.4,1.9c0.1,0.5,0.2,0.9,0.4,1.2
			c0.1,0.3,0.3,0.6,0.5,0.9c0.2,0.3,0.4,0.5,0.6,0.7c0.2,0.2,0.5,0.4,0.7,0.6c0.6,0.4,1.2,0.6,2,0.6c1,0,1.9-0.3,2.6-1
			c0.5-0.5,0.9-1,1.1-1.6c0.3-0.6,0.5-1.2,0.6-1.9c0.1-0.6,0.2-1.3,0.2-2c0-0.7,0-1.3,0-1.9c0-0.8,0-1.4-0.1-2
			C194.5,330.1,194.5,329.7,194.5,329.3z M189.7,325.4c0.6,0,1,0.2,1.4,0.6c0.4,0.4,0.7,0.9,0.9,1.5c0.2,0.6,0.4,1.2,0.4,1.9
			c0.1,0.6,0.1,1.1,0.1,1.5l-0.2-0.4l0.3,2.1c0,0.5,0,1.1-0.1,1.9c0,0.7-0.1,1.4-0.3,2.1c-0.2,0.6-0.5,1.2-0.8,1.6
			c-0.3,0.4-0.8,0.6-1.4,0.6c-0.3,0-0.6,0-0.8-0.1c-0.4-0.1-0.7-0.5-0.9-1.1c-0.3-0.7-0.5-1.4-0.6-2.2c-0.1-0.8-0.2-1.7-0.3-2.5
			c0-0.8-0.1-1.5-0.1-2c0-1.6,0.1-2.6,0.2-3.1c0.1-0.3,0.2-0.6,0.3-0.9c0.1-0.3,0.3-0.5,0.4-0.8c0.2-0.2,0.4-0.4,0.6-0.5
			C189.1,325.5,189.4,325.4,189.7,325.4z"/>
		<path d="M204.8,325.4c-0.2-0.1-0.4-0.2-0.8-0.2c-0.2,0-0.5,0.1-0.6,0.3c-0.1,0.2-0.2,0.4-0.2,0.6c0,0.2,0,0.4,0.1,0.4
			c0,0,0,0,0,0.2c0,0.2,0,0.4,0,0.7c0,0.3,0,0.9,0,1.7c0,0.8,0,2-0.1,3.3c0,1,0,1.8-0.1,2.4c0,0.6,0,1-0.1,1.2
			c0,0.3-0.1,0.5-0.2,0.8c-0.1,0.3-0.3,0.6-0.5,0.9c-0.2,0.3-0.4,0.5-0.7,0.6c-0.5,0.3-1,0.3-1.4,0c-0.2-0.1-0.4-0.3-0.6-0.5
			c-0.2-0.2-0.3-0.5-0.4-0.7c-0.1-0.3-0.2-0.5-0.3-0.8c-0.1-0.4-0.3-1.1-0.3-1.8c-0.1-0.8-0.2-1.7-0.2-2.8c-0.1-1.6-0.2-2.8-0.2-3.7
			c0-0.9-0.1-1.5-0.1-1.8c-0.1-0.7-0.2-1.1-0.5-1.3c-0.3-0.2-0.8-0.2-1.2,0.2l-0.1,0.1v0c-0.1,0.2-0.2,0.5-0.2,1c0,0.3,0,0.7,0,1.2
			l0.1,1.8c0,0.2,0,0.5,0.1,0.8l0.1,0.9c0,0.4,0.1,0.9,0.1,1.2c0,0.4,0,0.6,0,0.7c0,0.7,0.1,1.4,0.2,2.3c0.1,0.9,0.3,1.7,0.6,2.5
			c0.3,0.8,0.8,1.5,1.3,2.1c0.6,0.6,1.4,0.9,2.4,0.9c0.5,0,1-0.1,1.4-0.3c0.4-0.2,0.8-0.5,1.1-0.8c0.3-0.3,0.6-0.7,0.8-1.1
			c0.2-0.4,0.4-0.8,0.5-1.3c0.2-0.8,0.3-3.2,0.3-7.4c0-3.6-0.1-3.8-0.2-4C205,325.7,204.9,325.5,204.8,325.4z"/>
		<path d="M210,338.7v0.3c-0.2,0-0.5-0.1-0.8-0.1c-0.2,0-0.3,0-0.4,0c0-0.7,0-2.9-0.1-8.5c0-5.2-0.1-5.4-0.2-5.5
			c-0.2-0.6-0.7-0.7-0.9-0.7c-0.2,0-0.4,0.1-0.6,0.3c-0.1,0.1-0.3,0.3-0.3,6.9c0,2.6,0,4.5,0,5.9c0,1.8,0.1,2.2,0.1,2.4
			c0.1,0.3,0.2,0.6,0.3,0.8c0.1,0.2,0.3,0.4,0.5,0.5c0.1,0,0.2,0.1,0.4,0.1c0.2,0,0.4,0,0.6,0c0.2,0,0.4,0,0.6,0c0.2,0,0.3,0,0.4,0
			c0.3,0,0.5-0.1,0.8-0.2c0.3-0.2,0.4-0.5,0.4-0.8c0-0.3-0.1-0.5-0.4-0.7L210,338.7z"/>
		<path d="M220.3,329.7c-0.2-1.3-0.7-2.5-1.4-3.6c-0.6-0.8-1.3-1.5-2.1-2c-0.8-0.5-1.8-0.8-2.8-0.8c-0.2,0-0.3,0-0.4,0
			c-0.1,0-0.2,0-0.3,0.1c-0.3,0.1-0.6,0.3-0.7,0.5c-0.1,0.2-0.1,0.5-0.1,1c0,0.3,0,0.8,0,1.5c0,0.7,0.1,1.5,0.1,2.4
			c0,1,0.1,1.8,0.1,2.4c0,0.6,0,1,0.1,1.3c0.1,2.1,0.2,3.8,0.2,5.1c0,1.3,0.1,2.2,0.2,2.5c0.1,0.4,0.4,0.9,1.4,0.9h0.2
			c0.8,0,1.5-0.1,2.2-0.4c0.6-0.2,1.2-0.6,1.7-1.1c0.5-0.5,0.9-1,1.2-1.6c0.3-0.6,0.5-1.3,0.7-2.1c0.1-0.4,0.1-1.1,0.1-2.3
			C220.6,332.2,220.5,330.9,220.3,329.7z M215,338.9c0-0.2-0.1-0.5-0.1-1.2c-0.1-0.8-0.1-2-0.2-3.4c0-0.1,0-0.3,0-0.8l-0.1-5.7
			c0-0.6,0-1.1-0.1-1.5c0-0.4-0.1-0.7-0.1-1c0,0,0,0,0-0.1c0.1,0,0.2,0,0.4,0.1c0.8,0.3,1.5,0.7,1.9,1.2c0.5,0.6,0.9,1.2,1.2,1.9
			c0.3,0.7,0.5,1.5,0.5,2.4c0.1,0.8,0.1,1.7,0.1,2.4c0,1.5-0.1,2.1-0.1,2.3c-0.3,0.9-0.7,1.6-1.1,2.1c-0.5,0.5-1.1,0.8-1.9,1
			C215.2,338.9,215.1,338.9,215,338.9z"/>
	</g>
	<g>
		<path d="M447.6,330.2c-0.1-1.5-0.2-2.7-0.3-3.6c-0.1-1.2-0.2-1.4-0.3-1.5c-0.1-0.1-0.2-0.2-0.4-0.3c-0.1-0.1-0.3-0.1-0.4-0.1
			c-0.4,0-0.7,0.2-0.8,0.5c-0.1,0.2-0.1,0.5-0.1,0.7c0,0.1,0,0.3,0,0.7c0,0.4,0.1,0.8,0.1,1.4c0.1,1.6,0.2,2.6,0.2,3.1v0.4h-3.3V329
			c0-3.2-0.1-3.4-0.2-3.6c-0.2-0.4-0.5-0.6-0.8-0.6c-0.1,0-0.2,0-0.3,0v-0.8l-0.6,1.5c0,0.1-0.1,0.3-0.1,7.8v7.6l0.1,0.1
			c0.3,0.3,0.6,0.5,0.8,0.5c0.3,0.1,0.6-0.1,0.9-0.4c0.1-0.1,0.2-0.3,0.2-4.3l0-3.2h3.5c0.1,1.3,0.1,2.5,0.1,3.8c0,0.8,0,1.5,0.1,2
			c0,0.6,0,0.9,0.1,1.1c0,0.3,0.1,0.5,0.3,0.8c0.2,0.5,0.6,0.6,0.9,0.6c0.2,0,0.6-0.1,0.8-0.6l0-0.1c0-0.1,0-0.1,0-0.2v-0.2
			c0-0.3,0-1.4-0.1-3.2C447.9,335.9,447.7,333.4,447.6,330.2z"/>
		<path d="M452.5,326.3c1.6,0,2-0.2,2.1-0.5l0.3-0.5h-0.1c0,0,0-0.1,0-0.1c0-0.3-0.1-0.5-0.3-0.7c-0.2-0.2-0.6-0.3-1.4-0.3h-0.6
			c-0.2,0-0.4,0-0.6,0c-0.5,0-1,0-1.3,0.1c-0.4,0-0.7,0.2-0.9,0.6l0,0c0,0.1-0.1,0.3-0.1,2.4c0,0.3,0,0.7,0,1.5l0,2.5c0,1,0,2,0,3
			c0,1.1,0,2,0.1,2.9c0,0.9,0.1,1.7,0.1,2.3c0,0.9,0.1,1.1,0.1,1.2c0.1,0.1,0.1,0.3,0.2,0.3c0.1,0.1,0.2,0.2,0.4,0.3
			c0.1,0,0.3,0.1,0.6,0.1c0.2,0,0.6,0,1,0l2.2,0l0.1-0.2c0.2-0.4,0.3-0.7,0.3-1c0-0.4-0.2-0.7-0.5-0.8c-0.2,0-0.5-0.1-1.5-0.1
			c-0.3,0-0.6,0-0.8,0h0c0,0,0-0.1,0-0.2c0-0.2,0-0.6-0.1-1c-0.1-1-0.1-2-0.1-2.8c0-0.2,0-0.4,0-0.5c0-0.2,0-0.3,0-0.4l0-0.1
			c0.2,0,0.5-0.1,0.7-0.2c0.4-0.2,0.6-0.5,0.6-0.9c0-0.4-0.2-1-1.3-1c0-0.2,0-0.4,0-0.8c0-0.6,0-1.4-0.1-2.5l0-2.6
			c0.1,0,0.3,0,0.4,0C452.2,326.3,452.3,326.3,452.5,326.3z"/>
		<path d="M463.9,333.3c-0.4-1.4-0.7-2.5-0.9-3.5c-1.1-4.2-1.4-4.4-1.5-4.6c-0.4-0.4-1.1-0.3-1.6,0.2c-0.3,0.3-0.5,0.6-0.6,0.9
			c0,0.2-0.2,1-1.3,6.4c-0.4,2-0.7,3.6-1,4.8c-0.2,1.2-0.4,2-0.4,2.3c0,0.2-0.1,0.4-0.1,0.5c0,0.2,0,0.3,0,0.4
			c0,0.3,0.1,0.5,0.3,0.7c0.2,0.2,0.4,0.3,0.7,0.3c0.4,0,0.7-0.2,0.9-0.6c0-0.1,0.1-0.2,0.2-0.7c0.1-0.3,0.2-0.8,0.3-1.5
			c0.1-0.6,0.2-1.2,0.4-1.8c0.1-0.6,0.2-1.2,0.4-1.8c0.1-0.7,0.2-1.1,0.3-1.3c0,0,0.1,0,0.1,0c1.3,0,1.9,0,2.1,0.1
			c0,0.1,0.1,0.4,0.2,0.9c0.4,1.9,0.8,3.4,1.1,4.5c0.3,1.1,0.5,1.7,0.6,1.9c0.2,0.6,0.6,0.7,0.9,0.7c0.3,0,0.5-0.1,0.7-0.3
			c0.2-0.2,0.3-0.4,0.3-0.7c0-0.2-0.1-0.7-0.7-3.1C464.7,336.3,464.3,334.7,463.9,333.3z M461.5,332c-0.2,0-0.4,0-0.6,0h-0.7
			c0-0.1,0-0.2,0-0.3c0.1-0.4,0.2-1.1,0.4-1.9c0-0.3,0.1-0.5,0.1-0.7c0,0,0,0.1,0,0.1c0.1,0.5,0.2,1,0.4,1.4
			c0.1,0.3,0.2,0.5,0.2,0.7c0,0.2,0.1,0.3,0.1,0.4C461.4,331.8,461.4,331.9,461.5,332z"/>
		<path d="M474.8,324.9c-0.2-0.1-0.5-0.1-0.8-0.1h-0.8c-0.3,0-0.5,0-0.8,0c-1.2,0-2.2,0.1-2.9,0.1c-1,0-1.2,0.1-1.4,0.1
			c-0.4,0.1-0.7,0.5-0.7,0.9c0,0.4,0.2,0.6,0.6,0.8c0.2,0.1,0.5,0.2,1.7,0.2h0.7l0,4.5c0,1.1,0,2.3,0,3.4c0,1.2,0,2.3,0,3.5
			c0,2.6,0.1,2.8,0.2,2.9l0.6,0.9v-0.5c0.1,0,0.1,0,0.2,0c0.4,0,0.7-0.2,0.8-0.3l0,0c0,0,0,0,0-0.1c0.1-0.2,0.2-1.1,0.2-7.6
			c0-2.1,0-3.8,0-5c0-0.8,0-1.4,0-1.8l0.1,0c0.2,0,0.4,0,0.7,0l0.7,0c0.2,0,0.4,0,0.6,0c0.2,0,0.3-0.1,0.4-0.1
			c0.2-0.1,0.3-0.2,0.5-0.3c0.2-0.2,0.2-0.5,0.2-0.6C475.3,325.1,475.1,324.9,474.8,324.9z"/>
		<path d="M491.3,333.3c-0.4-1.4-0.7-2.5-0.9-3.5c-1.1-4.2-1.4-4.4-1.5-4.6c-0.4-0.4-1.1-0.3-1.6,0.2c-0.3,0.3-0.5,0.6-0.6,0.9
			c0,0.2-0.2,1-1.3,6.4c-0.4,2-0.7,3.6-1,4.8c-0.2,1.2-0.4,2-0.4,2.3c0,0.2-0.1,0.4-0.1,0.5c0,0.2,0,0.3,0,0.4
			c0,0.3,0.1,0.5,0.3,0.7c0.2,0.2,0.4,0.3,0.7,0.3c0.4,0,0.7-0.2,0.9-0.6c0-0.1,0.1-0.2,0.2-0.7c0.1-0.3,0.2-0.8,0.3-1.5
			c0.1-0.6,0.2-1.2,0.4-1.8c0.1-0.6,0.2-1.2,0.4-1.8c0.1-0.7,0.2-1.1,0.3-1.3c0,0,0.1,0,0.1,0c1.3,0,1.9,0,2.1,0.1
			c0,0.1,0.1,0.4,0.2,0.9c0.4,1.9,0.8,3.4,1.1,4.5c0.3,1.1,0.5,1.7,0.6,1.9c0.2,0.6,0.6,0.7,0.9,0.7c0.3,0,0.5-0.1,0.7-0.3
			c0.2-0.2,0.3-0.4,0.3-0.7c0-0.2-0.1-0.7-0.7-3.1C492.1,336.3,491.6,334.7,491.3,333.3z M488.8,332c-0.2,0-0.4,0-0.6,0h-0.7
			c0-0.1,0-0.2,0-0.3c0.1-0.4,0.2-1.1,0.4-1.9c0-0.3,0.1-0.5,0.1-0.7c0,0,0,0.1,0,0.1c0.1,0.5,0.2,1,0.4,1.4
			c0.1,0.3,0.2,0.5,0.2,0.7c0,0.2,0.1,0.3,0.1,0.4C488.8,331.8,488.8,331.9,488.8,332z"/>
		<path d="M503.2,336.4c-0.2-3.1-0.3-5.6-0.4-7.4c-0.1-1.8-0.2-2.9-0.3-3.3c-0.2-0.9-0.7-1-1-1c-0.2,0-0.4,0.1-0.7,0.5
			c-0.1,0.2-0.2,0.5-0.2,0.8v0.1c0,0.6,0.1,1.3,0.2,2.1c0.1,0.8,0.1,1.7,0.1,2.7c0,0.2,0,0.4,0,0.8c0,0.4,0.1,0.8,0.1,1.4
			c0.1,0.8,0.1,1.5,0.1,2.3c0,0.2,0,0.3,0,0.5c-0.1-0.3-0.3-0.6-0.4-1l-1.6-3.9c-1.8-4.5-2.4-5.3-2.6-5.6c-0.3-0.3-0.6-0.5-0.9-0.5
			c-0.3,0-0.8,0.2-0.9,1.2l0,0.2c0,0.4,0,1.2,0.1,2.5l0.2,5.1c0.1,2.2,0.2,3.8,0.2,4.9c0.1,1.7,0.1,1.8,0.1,1.8
			c0,0.3,0.2,0.6,0.4,0.8c0.3,0.3,0.7,0.3,1.1,0.2c0.1-0.1,0.3-0.2,0.4-0.5c0-0.1,0.1-0.3,0.1-0.9c0-0.6,0-1.6-0.1-3.1
			c-0.1-1.5-0.1-3.3-0.2-5.6c0-0.2,0-0.5,0-0.7c0.3,0.7,0.6,1.4,0.9,2.1c0.4,1,0.9,2.1,1.3,3.2c0.5,1.2,0.9,2.1,1.2,2.9
			c0.3,0.7,0.6,1.2,0.7,1.5c0.2,0.3,0.3,0.5,0.4,0.7c0.1,0.2,0.3,0.3,0.4,0.4c0.1,0.1,0.3,0.1,0.5,0.1c0.3,0,0.5-0.1,0.7-0.3
			c0.1-0.2,0.2-0.4,0.3-0.6c0-0.2,0.1-0.4,0.1-0.6c0-0.2,0-0.4,0-0.5c0-0.4,0-0.8,0-1.4C503.3,337.6,503.3,337,503.2,336.4z"/>
		<path d="M511.2,326.7c-0.6-0.8-1.3-1.5-2.1-2c-0.8-0.5-1.8-0.8-2.8-0.8c-0.2,0-0.3,0-0.4,0c-0.1,0-0.2,0-0.3,0.1
			c-0.3,0.1-0.6,0.3-0.7,0.5c-0.1,0.2-0.1,0.5-0.1,1c0,0.3,0,0.8,0,1.5c0,0.7,0.1,1.5,0.1,2.4c0,1,0.1,1.8,0.1,2.4
			c0,0.6,0,1,0.1,1.3c0.1,2.1,0.2,3.8,0.2,5.1c0,1.3,0.1,2.2,0.2,2.5c0.1,0.4,0.4,0.9,1.4,0.9h0.2c0.8,0,1.5-0.1,2.2-0.4
			c0.6-0.2,1.2-0.6,1.7-1.1c0.5-0.5,0.9-1,1.2-1.6c0.3-0.6,0.5-1.3,0.7-2.1c0.1-0.4,0.1-1.1,0.1-2.3c0-1.3-0.1-2.6-0.3-3.8
			C512.4,329,512,327.8,511.2,326.7z M507.4,339.5c0-0.2-0.1-0.5-0.1-1.2c-0.1-0.8-0.1-2-0.2-3.4c0-0.1,0-0.3,0-0.8l-0.1-5.7
			c0-0.6,0-1.1-0.1-1.5c0-0.4-0.1-0.7-0.1-1c0,0,0,0,0-0.1c0.1,0,0.2,0,0.4,0.1c0.8,0.3,1.5,0.7,1.9,1.2c0.5,0.6,0.9,1.2,1.2,1.9
			c0.3,0.7,0.5,1.5,0.5,2.4c0.1,0.8,0.1,1.7,0.1,2.4c0,1.5-0.1,2.1-0.1,2.3c-0.3,0.9-0.7,1.6-1.1,2.1c-0.5,0.5-1.1,0.8-1.9,1
			C507.6,339.5,507.5,339.5,507.4,339.5z"/>
		<path d="M525.2,324.6c-1.1-0.7-2-1.1-2.8-1.1l-0.2,0c-0.1,0-0.2,0-0.3,0.1v-1.1l-0.6,1.9c0,0.1,0,0.1,0,0.9c0,0.5,0,1,0,1.7v0.3
			l0,0c0,0.6,0,1.2,0.1,1.9c0,0.5,0.1,1.2,0.1,2.2c0,1,0,2.3,0,3.8c0,1.6,0,2.9,0.1,3.7c0,1.4,0,1.5,0.1,1.5c0,0.2,0.1,0.5,0.3,0.7
			c0.2,0.2,0.4,0.3,0.7,0.3c0.3,0,0.7-0.2,1-0.5l0.1-0.1l-0.1-3.1v-1.6c0-1,0-1.3,0-1.2c0,0,0,0,0.1-0.1c0.1-0.1,0.3-0.2,0.4-0.3
			c0.5-0.3,0.9-0.6,1.3-1c0.4-0.3,0.8-0.7,1.1-1.2c0.3-0.4,0.6-0.9,0.8-1.4c0.2-0.5,0.3-1.1,0.3-1.7c0-0.9-0.2-1.8-0.6-2.6
			C526.5,325.8,525.9,325.1,525.2,324.6z M523.4,329.7c0-0.2,0-0.5,0-0.8c0-0.3,0-0.7,0-1.1c0-0.4,0-0.8-0.1-1.1c0-0.3,0-0.4,0-0.6
			l0-0.2c0.7,0.3,1.2,0.7,1.5,1.2c0.5,0.6,0.7,1.4,0.7,2.3c0,0.3-0.1,0.7-0.2,1c-0.1,0.3-0.3,0.7-0.6,1c-0.2,0.3-0.5,0.6-0.8,0.8
			c-0.1,0.1-0.3,0.2-0.4,0.3c0-0.1,0-0.2,0-0.4C523.5,331.5,523.5,330.7,523.4,329.7z"/>
		<path d="M535.4,338c-0.2-0.5-0.4-0.9-0.5-1.4c-0.2-0.4-0.3-0.7-0.4-0.9c-0.4-0.8-0.9-1.4-1.3-1.7l-0.1-0.1h0c0,0,0,0,0,0l0,0
			c0.2-0.1,0.4-0.2,0.6-0.4c0.3-0.2,0.5-0.5,0.7-0.8c0.2-0.3,0.4-0.6,0.5-1c0.2-0.3,0.3-0.6,0.3-0.9c0-0.1,0-0.2,0-0.4v-0.4
			c0-1-0.1-1.9-0.3-2.6c-0.2-0.8-0.7-1.6-1.4-2.3c-0.2-0.2-0.4-0.4-0.6-0.5c-0.2-0.2-0.5-0.4-0.8-0.5c-0.3-0.2-0.6-0.3-0.9-0.4
			c-0.6-0.2-1.2-0.3-1.8,0.2l-0.1,0.1l0,0.2c0,0,0,0.1,0,0.1l0,0l0,0c-0.1,0.4-0.1,1.2-0.1,2.8c0,2,0,3.9-0.1,5.8c0,0.3,0,0.7,0,1.1
			v3.2c0,0.5,0,0.9,0,1.1c0,0.6,0.1,1.1,0.1,1.4c0,0.4,0,0.7,0,0.8c0,0.3,0.1,0.5,0.3,0.7c0.1,0.2,0.3,0.4,0.8,0.4
			c0.2,0,0.3,0,0.5-0.1c0.2-0.1,0.3-0.3,0.4-0.5c0-0.1,0.1-0.3,0.1-1.1v-1.3c0-0.4,0-0.8,0-1.2c0-0.5,0-1.1,0-1.6v-1
			c0.2,0.1,0.4,0.3,0.6,0.4c0.3,0.3,0.6,0.7,0.8,1.1c0.2,0.4,0.4,0.8,0.6,1.3c0.2,0.5,0.3,0.9,0.4,1.2c0.5,1.6,0.7,2,0.9,2.1
			l0.1-0.1l-0.1,0.1c0.2,0.1,0.3,0.2,0.5,0.2c0.2,0,0.5,0,0.8-0.3c0.2-0.2,0.3-0.5,0.3-0.7c0-0.1,0-0.4-0.2-1
			C535.8,339,535.6,338.5,535.4,338z M531.3,326c0.6,0.4,1.1,0.8,1.3,1.4c0.4,0.7,0.6,1.5,0.6,2.5c0,0.2,0,0.4,0,0.5
			c0,0.1,0,0.2,0,0.3c0,0.1,0,0.1-0.1,0.2l-0.3,0.4c-0.4,0.6-0.6,0.8-0.7,0.8c0,0-0.1,0-0.2,0.1c-0.1,0.1-0.3,0.1-0.6,0.2l-0.1,0
			v-0.2c0-1.3,0-2.4,0-3.4c0-1,0-1.9,0-2.6C531.3,326.1,531.3,326.1,531.3,326z"/>
		<path d="M540.6,326.3c1.6,0,2-0.2,2.1-0.5l0.3-0.5h-0.1c0,0,0-0.1,0-0.1c0-0.3-0.1-0.5-0.3-0.7c-0.2-0.2-0.6-0.3-1.4-0.3h-0.6
			c-0.2,0-0.4,0-0.6,0c-0.5,0-1,0-1.3,0.1c-0.4,0-0.7,0.2-0.9,0.6l0,0c0,0.1-0.1,0.3-0.1,2.4c0,0.3,0,0.7,0,1.5l0,2.5c0,1,0,2,0,3
			c0,1.1,0,2,0.1,2.9c0,0.9,0.1,1.7,0.1,2.3c0,0.9,0.1,1.1,0.1,1.2c0.1,0.1,0.1,0.3,0.2,0.3c0.1,0.1,0.2,0.2,0.4,0.3
			c0.1,0,0.3,0.1,0.6,0.1c0.2,0,0.6,0,1,0l2.2,0l0.1-0.2c0.2-0.4,0.3-0.7,0.3-1c0-0.4-0.2-0.7-0.5-0.8c-0.2,0-0.5-0.1-1.5-0.1
			c-0.3,0-0.6,0-0.8,0h0c0,0,0-0.1,0-0.2c0-0.2,0-0.6-0.1-1c-0.1-1-0.1-2-0.1-2.8c0-0.2,0-0.4,0-0.5c0-0.2,0-0.3,0-0.4l0-0.1
			c0.2,0,0.5-0.1,0.7-0.2c0.4-0.2,0.6-0.5,0.6-0.9c0-0.4-0.2-1-1.3-1c0-0.2,0-0.4,0-0.8c0-0.6,0-1.4-0.1-2.5l0-2.6
			c0.1,0,0.3,0,0.4,0C540.2,326.3,540.4,326.3,540.6,326.3z"/>
		<path d="M550,331.8c0-0.1-0.1-0.2-0.5-0.5l-2.4-2.3c-0.4-0.4-0.5-0.5-0.5-0.5c0-0.1-0.1-0.2-0.1-0.3c0-0.1,0-0.2,0-0.3
			c0-0.5,0.1-0.9,0.4-1.2c0.3-0.3,0.7-0.6,1.2-0.8c0.5-0.2,0.7-0.3,0.7-0.4c0.2-0.1,0.2-0.3,0.2-0.6c0-0.6-0.4-0.9-1-0.9
			c-0.5,0-1,0.1-1.4,0.4c-0.4,0.2-0.8,0.5-1.1,0.9c-0.3,0.4-0.6,0.8-0.8,1.2c-0.2,0.5-0.3,0.9-0.3,1.4c0,0.5,0.1,1,0.4,1.5
			c0.2,0.5,0.5,0.9,0.9,1.2c0.1,0.1,0.3,0.3,0.5,0.5c0.2,0.2,0.6,0.6,1,1c0.4,0.4,0.7,0.7,0.9,1c0.2,0.3,0.4,0.5,0.6,0.8
			c0.1,0.3,0.2,0.6,0.3,0.9c0.1,0.3,0.1,0.8,0.1,1.3c0,0.8-0.2,1.5-0.7,2.1c-0.4,0.6-1,1-1.8,1.2c-1.4,0.3-1.7,0.5-1.9,0.6
			c-0.2,0.1-0.3,0.3-0.3,0.8c0,0.6,0.4,1,1,1c0.2,0,0.4,0,0.7-0.1c0.3-0.1,0.6-0.1,0.9-0.2c0.3-0.1,0.6-0.2,0.8-0.3
			c0.3-0.1,0.5-0.2,0.6-0.2c0.8-0.5,1.5-1.1,2-2c0.5-0.8,0.8-1.8,0.8-2.7c0-0.9-0.1-1.6-0.3-2.3C550.6,333,550.3,332.4,550,331.8z"
			/>
		<path d="M558.3,331.8c0-0.1-0.1-0.2-0.5-0.5l-2.4-2.3c-0.4-0.4-0.5-0.5-0.5-0.5c0-0.1-0.1-0.2-0.1-0.3c0-0.1,0-0.2,0-0.3
			c0-0.5,0.1-0.9,0.4-1.2c0.3-0.3,0.7-0.6,1.2-0.8c0.5-0.2,0.7-0.3,0.7-0.4c0.2-0.1,0.2-0.3,0.2-0.6c0-0.6-0.4-0.9-1-0.9
			c-0.5,0-1,0.1-1.4,0.4c-0.4,0.2-0.8,0.5-1.1,0.9c-0.3,0.4-0.6,0.8-0.8,1.2c-0.2,0.5-0.3,0.9-0.3,1.4c0,0.5,0.1,1,0.4,1.5
			c0.2,0.5,0.5,0.9,0.9,1.2c0.1,0.1,0.3,0.3,0.5,0.5c0.2,0.2,0.6,0.6,1,1c0.4,0.4,0.7,0.7,0.9,1c0.2,0.3,0.4,0.5,0.6,0.8
			c0.1,0.3,0.2,0.6,0.3,0.9c0.1,0.3,0.1,0.8,0.1,1.3c0,0.8-0.2,1.5-0.7,2.1c-0.4,0.6-1,1-1.8,1.2c-1.4,0.3-1.7,0.5-1.9,0.6
			c-0.2,0.1-0.3,0.3-0.3,0.8c0,0.6,0.4,1,1,1c0.2,0,0.4,0,0.7-0.1c0.3-0.1,0.6-0.1,0.9-0.2c0.3-0.1,0.6-0.2,0.8-0.3
			c0.3-0.1,0.5-0.2,0.6-0.2c0.8-0.5,1.5-1.1,2-2c0.5-0.8,0.8-1.8,0.8-2.7c0-0.9-0.1-1.6-0.3-2.3C558.9,333,558.6,332.4,558.3,331.8z
			"/>
		<path d="M569.6,326c-0.2-0.1-0.4-0.2-0.7-0.2c0,0,0,0,0,0c-0.2,0-0.5,0.1-0.6,0.3c-0.1,0.2-0.2,0.4-0.2,0.6c0,0.2,0,0.4,0.1,0.4
			c0,0,0,0,0,0.2c0,0.2,0,0.4,0,0.7c0,0.3,0,0.9,0,1.7c0,0.8,0,2-0.1,3.3c0,1,0,1.8-0.1,2.4c0,0.6,0,1-0.1,1.2
			c0,0.3-0.1,0.5-0.2,0.8c-0.1,0.3-0.3,0.6-0.5,0.9c-0.2,0.3-0.4,0.5-0.7,0.6c-0.5,0.3-1,0.3-1.4,0c-0.2-0.1-0.4-0.3-0.6-0.5
			c-0.2-0.2-0.3-0.5-0.4-0.7c-0.1-0.3-0.2-0.5-0.3-0.8c-0.1-0.4-0.3-1.1-0.3-1.8c-0.1-0.8-0.2-1.7-0.2-2.8c-0.1-1.6-0.2-2.8-0.2-3.7
			c0-0.9-0.1-1.5-0.1-1.8c-0.1-0.7-0.2-1.1-0.5-1.3c-0.3-0.2-0.8-0.2-1.2,0.2l-0.1,0.1v0c-0.1,0.2-0.2,0.5-0.2,1c0,0.3,0,0.7,0,1.2
			l0.1,1.8c0,0.2,0,0.5,0.1,0.8l0.1,0.9c0,0.4,0.1,0.9,0.1,1.2c0,0.4,0,0.6,0,0.7c0,0.7,0.1,1.4,0.2,2.3c0.1,0.9,0.3,1.7,0.6,2.5
			c0.3,0.8,0.8,1.5,1.3,2.1c0.6,0.6,1.4,0.9,2.4,0.9c0.5,0,1-0.1,1.4-0.3c0.4-0.2,0.8-0.5,1.1-0.8c0.3-0.3,0.6-0.7,0.8-1.1
			c0.2-0.4,0.4-0.8,0.5-1.3c0.2-0.8,0.3-3.2,0.3-7.4c0-3.6-0.1-3.8-0.2-4C569.9,326.3,569.8,326.1,569.6,326z"/>
		<path d="M578,338c-0.2-0.5-0.4-0.9-0.5-1.4c-0.2-0.4-0.3-0.7-0.4-0.9c-0.4-0.8-0.9-1.4-1.3-1.7l-0.1-0.1h0c0,0,0,0,0,0l0,0
			c0.2-0.1,0.4-0.2,0.6-0.4c0.3-0.2,0.5-0.5,0.7-0.8c0.2-0.3,0.4-0.6,0.5-1c0.2-0.3,0.3-0.6,0.3-0.9c0-0.1,0-0.2,0-0.4v-0.4
			c0-1-0.1-1.9-0.3-2.6c-0.2-0.8-0.7-1.6-1.4-2.3c-0.2-0.2-0.4-0.4-0.6-0.5c-0.2-0.2-0.5-0.4-0.8-0.5c-0.3-0.2-0.6-0.3-0.9-0.4
			c-0.6-0.2-1.2-0.3-1.8,0.2l-0.1,0.1l0,0.2c0,0,0,0.1,0,0.1l0,0l0,0c-0.1,0.4-0.1,1.2-0.1,2.8c0,2,0,3.9-0.1,5.8c0,0.3,0,0.7,0,1.1
			v3.2c0,0.5,0,0.9,0,1.1c0,0.6,0.1,1.1,0.1,1.4c0,0.4,0,0.7,0,0.8c0,0.3,0.1,0.5,0.3,0.7c0.1,0.2,0.3,0.4,0.8,0.4
			c0.2,0,0.3,0,0.5-0.1c0.2-0.1,0.3-0.3,0.4-0.5c0-0.1,0.1-0.3,0.1-1.1v-1.3c0-0.4,0-0.8,0-1.2c0-0.5,0-1.1,0-1.6v-1
			c0.2,0.1,0.4,0.3,0.6,0.4c0.3,0.3,0.6,0.7,0.8,1.1c0.2,0.4,0.4,0.8,0.6,1.3c0.2,0.5,0.3,0.9,0.4,1.2c0.5,1.6,0.7,2,0.9,2.1
			c0,0,0,0,0,0l0.1-0.1l-0.1,0.1c0.2,0.1,0.3,0.2,0.5,0.2c0.2,0,0.5,0,0.8-0.3c0.2-0.2,0.3-0.5,0.3-0.7c0-0.1,0-0.4-0.2-1
			C578.3,339,578.2,338.5,578,338z M573.8,326c0.6,0.4,1.1,0.8,1.3,1.4c0.4,0.7,0.6,1.5,0.6,2.5c0,0.2,0,0.4,0,0.5
			c0,0.1,0,0.2,0,0.3c0,0.1,0,0.1-0.1,0.2l-0.3,0.4c-0.4,0.6-0.6,0.8-0.7,0.8c0,0-0.1,0-0.2,0.1c-0.1,0.1-0.3,0.1-0.6,0.2l-0.1,0
			v-0.2c0-1.3,0-2.4,0-3.4c0-1,0-1.9,0-2.6C573.8,326.1,573.8,326.1,573.8,326z"/>
		<path d="M584.8,339.6c-0.2,0-0.5-0.1-1.5-0.1c-0.3,0-0.6,0-0.8,0h0c0,0,0-0.1,0-0.2c0-0.2,0-0.6-0.1-1c-0.1-1-0.1-2-0.1-2.8
			c0-0.2,0-0.4,0-0.5c0-0.2,0-0.3,0-0.4l0-0.1c0.2,0,0.5-0.1,0.7-0.2c0.4-0.2,0.6-0.5,0.6-0.9c0-0.4-0.2-1-1.3-1c0-0.2,0-0.4,0-0.8
			c0-0.6,0-1.4-0.1-2.5l0-2.6c0.1,0,0.3,0,0.4,0c0.2,0,0.3,0,0.5,0c1.6,0,2-0.2,2.1-0.5l0.3-0.5h-0.1c0,0,0-0.1,0-0.1
			c0-0.3-0.1-0.5-0.3-0.7c-0.2-0.2-0.6-0.3-1.4-0.3h-0.6c-0.2,0-0.4,0-0.6,0c-0.5,0-1,0-1.3,0.1c-0.4,0-0.7,0.2-0.9,0.6l0,0
			c0,0.1-0.1,0.3-0.1,2.4c0,0.3,0,0.7,0,1.5l0,2.5c0,1,0,2,0,3c0,1.1,0,2,0.1,2.9c0,0.9,0.1,1.7,0.1,2.3c0,0.9,0.1,1.1,0.1,1.2
			c0.1,0.1,0.1,0.3,0.2,0.3c0.1,0.1,0.2,0.2,0.4,0.3c0.1,0,0.3,0.1,0.6,0.1c0.2,0,0.6,0,1,0l2.2,0l0.1-0.2c0.2-0.4,0.3-0.7,0.3-1
			C585.3,340,585.1,339.7,584.8,339.6z"/>
	</g>
	<g>
		<path d="M771.4,323.7c-0.2-0.1-0.5-0.2-2.3-0.2c-1.7,0-2,0-2.2,0.1c-0.3,0.1-0.6,0.3-0.7,0.9c0,0.1-0.1,0.4-0.1,3.6
			c0,6.6,0.1,10.3,0.2,11.3c0.1,1.3,0.7,1.5,1.1,1.5c0.2,0,0.4-0.1,0.6-0.2l0.4-0.3v-1.5c-0.1-3.3-0.1-5.6-0.1-6.7v-0.3h0.3
			c0.2,0,0.3,0,0.4,0c0.2,0,0.5-0.1,0.7-0.2c0.3-0.2,0.5-0.4,0.5-0.8c0-0.2,0-0.3-0.1-0.4l-0.5-0.6h-1.4v-1.5c0-0.2,0-0.5,0-0.8
			c0-0.3,0-0.6,0-0.9c0-0.3,0-0.6,0-0.8c0-0.2,0-0.3,0-0.3v-0.1l2.3-0.1c0.3,0,0.6,0,0.7-0.1c0.3-0.1,0.4-0.3,0.4-0.4
			c0-0.1,0.1-0.3,0.1-0.5C771.8,324.1,771.6,323.8,771.4,323.7z"/>
		<path d="M775.6,331.8c0-1.7-0.1-3.5-0.1-5.3l0-1.6l-0.3-0.3c-0.2-0.2-0.5-0.3-0.7-0.3c-0.7,0-1,0.6-1,1.8l0,0.4
			c0,0.1,0,0.4,0.1,1.6c0,0.9,0,2.3,0.1,4c0.1,2.5,0.1,4.4,0.1,5.8c0.1,2.1,0.1,2.3,0.1,2.4c0.1,0.2,0.2,0.4,0.3,0.5
			c0.2,0.1,0.4,0.2,0.6,0.2c0.2,0,0.4-0.1,0.6-0.2c0.1-0.1,0.3-0.3,0.3-0.5c0.1-0.2,0.1-0.3,0.1-0.5c0-0.2,0-0.3,0-0.4l-0.1-2.3
			C775.7,335.3,775.6,333.5,775.6,331.8z"/>
		<path d="M785.7,335.7c-0.2-3.1-0.3-5.6-0.4-7.4c-0.1-1.8-0.2-2.9-0.3-3.3c-0.2-0.9-0.7-1-1-1c-0.2,0-0.4,0.1-0.7,0.5
			c-0.1,0.2-0.2,0.5-0.2,0.8v0.1c0,0.6,0.1,1.3,0.2,2.1c0.1,0.8,0.1,1.7,0.1,2.7c0,0.2,0,0.4,0,0.8c0,0.4,0.1,0.8,0.1,1.4
			c0.1,0.8,0.1,1.5,0.1,2.3c0,0.2,0,0.3,0,0.5c-0.1-0.3-0.3-0.6-0.4-1l-1.6-3.9c-1.8-4.5-2.4-5.3-2.6-5.6c-0.3-0.3-0.6-0.5-0.9-0.5
			c-0.3,0-0.8,0.2-0.9,1.2l0,0.2c0,0.4,0,1.2,0.1,2.5l0.2,5.1c0.1,2.2,0.2,3.8,0.2,4.9c0.1,1.7,0.1,1.8,0.1,1.8
			c0,0.3,0.2,0.6,0.4,0.8c0.3,0.3,0.7,0.3,1.1,0.2c0.1-0.1,0.3-0.2,0.4-0.5c0-0.1,0.1-0.3,0.1-0.9c0-0.6,0-1.6-0.1-3.1
			c-0.1-1.5-0.1-3.3-0.2-5.6c0-0.2,0-0.5,0-0.7c0.3,0.7,0.6,1.4,0.9,2.1c0.4,1,0.9,2.1,1.3,3.2c0.5,1.2,0.9,2.1,1.2,2.9
			c0.3,0.7,0.6,1.2,0.7,1.5c0.2,0.3,0.3,0.5,0.4,0.7c0.1,0.2,0.3,0.3,0.4,0.4c0.1,0.1,0.3,0.1,0.5,0.1c0.3,0,0.5-0.1,0.7-0.3
			c0.1-0.2,0.2-0.4,0.3-0.6c0-0.2,0.1-0.4,0.1-0.6c0-0.2,0-0.4,0-0.5c0-0.4,0-0.8,0-1.4C785.8,336.9,785.7,336.3,785.7,335.7z"/>
		<path d="M794.8,332.7c-0.4-1.4-0.7-2.5-0.9-3.5c-1.1-4.2-1.4-4.4-1.5-4.6c-0.4-0.4-1.1-0.3-1.6,0.2c-0.3,0.3-0.5,0.6-0.6,0.9
			c0,0.2-0.2,1-1.3,6.4c-0.4,2-0.7,3.6-1,4.8c-0.2,1.2-0.4,2-0.4,2.3c0,0.2-0.1,0.4-0.1,0.5c0,0.2,0,0.3,0,0.4
			c0,0.3,0.1,0.5,0.3,0.7c0.2,0.2,0.4,0.3,0.7,0.3c0.4,0,0.7-0.2,0.9-0.6c0-0.1,0.1-0.2,0.2-0.7c0.1-0.3,0.2-0.8,0.3-1.5
			c0.1-0.6,0.2-1.2,0.4-1.8c0.1-0.6,0.2-1.2,0.4-1.8c0.1-0.7,0.2-1.1,0.3-1.3c0,0,0.1,0,0.1,0c1.3,0,1.9,0,2.1,0.1
			c0,0.1,0.1,0.4,0.2,0.9c0.4,1.9,0.8,3.4,1.1,4.5c0.3,1.1,0.5,1.7,0.6,1.9c0.2,0.6,0.6,0.7,0.9,0.7c0.3,0,0.5-0.1,0.7-0.3
			c0.2-0.2,0.3-0.4,0.3-0.7c0-0.2-0.1-0.7-0.7-3.1C795.6,335.6,795.2,334,794.8,332.7z M792.4,331.3c-0.2,0-0.4,0-0.6,0h-0.7
			c0-0.1,0-0.2,0-0.3c0.1-0.4,0.2-1.1,0.4-1.9c0-0.3,0.1-0.5,0.1-0.7c0,0,0,0.1,0,0.1c0.1,0.5,0.2,1,0.4,1.4
			c0.1,0.3,0.2,0.5,0.2,0.7c0,0.2,0.1,0.3,0.1,0.4C792.3,331.2,792.4,331.3,792.4,331.3z"/>
		<path d="M801.4,338.6v0.3c-0.2,0-0.5-0.1-0.8-0.1c-0.2,0-0.3,0-0.4,0c0-0.7,0-2.9-0.1-8.5c0-5.2-0.1-5.4-0.2-5.5
			c-0.2-0.6-0.7-0.7-0.9-0.7c-0.2,0-0.4,0.1-0.6,0.3c-0.1,0.1-0.3,0.3-0.3,6.9c0,2.6,0,4.5,0,5.9c0,1.8,0.1,2.2,0.1,2.4
			c0.1,0.3,0.2,0.6,0.3,0.8c0.1,0.2,0.3,0.4,0.5,0.5c0.1,0,0.2,0.1,0.4,0.1c0.2,0,0.4,0,0.6,0c0.2,0,0.4,0,0.6,0c0.2,0,0.3,0,0.4,0
			c0.3,0,0.5-0.1,0.8-0.2c0.3-0.2,0.4-0.5,0.4-0.8c0-0.3-0.1-0.5-0.4-0.7L801.4,338.6z"/>
		<path d="M816.2,331.2c0-0.1-0.1-0.2-0.5-0.5l-2.4-2.3c-0.4-0.4-0.5-0.5-0.5-0.5c0-0.1-0.1-0.2-0.1-0.3c0-0.1,0-0.2,0-0.3
			c0-0.5,0.1-0.9,0.4-1.2c0.3-0.3,0.7-0.6,1.2-0.8c0.5-0.2,0.7-0.3,0.7-0.4c0.2-0.1,0.2-0.3,0.2-0.6c0-0.6-0.4-0.9-1-0.9
			c-0.5,0-1,0.1-1.4,0.4c-0.4,0.2-0.8,0.5-1.1,0.9c-0.3,0.4-0.6,0.8-0.8,1.2c-0.2,0.5-0.3,0.9-0.3,1.4c0,0.5,0.1,1,0.4,1.5
			c0.2,0.5,0.5,0.9,0.9,1.2c0.1,0.1,0.3,0.3,0.5,0.5c0.2,0.2,0.6,0.6,1,1c0.4,0.4,0.7,0.7,0.9,1c0.2,0.3,0.4,0.5,0.6,0.8
			c0.1,0.3,0.2,0.6,0.3,0.9c0.1,0.3,0.1,0.8,0.1,1.3c0,0.8-0.2,1.5-0.7,2.1c-0.4,0.6-1,1-1.8,1.2c-1.4,0.3-1.7,0.5-1.9,0.6
			c-0.2,0.1-0.3,0.3-0.3,0.8c0,0.6,0.4,1,1,1c0.2,0,0.4,0,0.7-0.1c0.3-0.1,0.6-0.1,0.9-0.2c0.3-0.1,0.6-0.2,0.8-0.3
			c0.3-0.1,0.5-0.2,0.6-0.2c0.8-0.5,1.5-1.1,2-2c0.5-0.8,0.8-1.8,0.8-2.7c0-0.9-0.1-1.6-0.3-2.3
			C816.9,332.4,816.6,331.7,816.2,331.2z"/>
		<path d="M826.2,329.5c-0.1-1.5-0.2-2.7-0.3-3.6c-0.1-1.2-0.2-1.4-0.3-1.5c-0.1-0.1-0.2-0.2-0.4-0.3c-0.1-0.1-0.3-0.1-0.4-0.1
			c-0.4,0-0.7,0.2-0.8,0.5c-0.1,0.2-0.1,0.5-0.1,0.7c0,0.1,0,0.3,0,0.7c0,0.4,0.1,0.8,0.1,1.4c0.1,1.6,0.2,2.6,0.2,3.1v0.4h-3.3
			v-2.5c0-3.2-0.1-3.4-0.2-3.6c-0.2-0.4-0.5-0.6-0.8-0.6c-0.3,0-0.7,0.1-0.9,0.7l0,0c0,0.1-0.1,0.3-0.1,7.8v7.6l0.1,0.1
			c0.3,0.3,0.6,0.5,0.8,0.5c0.3,0.1,0.6-0.1,0.9-0.4c0.1-0.1,0.2-0.3,0.2-4.3l0-3.2h3.5c0.1,1.3,0.1,2.5,0.1,3.8c0,0.8,0,1.5,0.1,2
			c0,0.6,0,0.9,0.1,1.1c0,0.3,0.1,0.5,0.3,0.8c0.2,0.5,0.6,0.6,0.9,0.6c0.2,0,0.6-0.1,0.8-0.6l0-0.1c0-0.1,0-0.1,0-0.2v-0.2
			c0-0.3,0-1.4-0.1-3.2C826.4,335.2,826.3,332.7,826.2,329.5z"/>
		<path d="M831.1,325.6c1.6,0,2-0.2,2.1-0.5l0.3-0.5h-0.1c0,0,0-0.1,0-0.1c0-0.3-0.1-0.5-0.3-0.7c-0.2-0.2-0.6-0.3-1.4-0.3h-0.6
			c-0.2,0-0.4,0-0.6,0c-0.5,0-1,0-1.3,0.1c-0.4,0-0.7,0.2-0.9,0.6l0,0c0,0.1-0.1,0.3-0.1,2.4c0,0.3,0,0.7,0,1.5l0,2.5c0,1,0,2,0,3
			c0,1.1,0,2,0.1,2.9c0,0.9,0.1,1.7,0.1,2.3c0,0.9,0.1,1.1,0.1,1.2c0.1,0.1,0.1,0.3,0.2,0.3c0.1,0.1,0.2,0.2,0.4,0.3
			c0.1,0,0.3,0.1,0.6,0.1c0.2,0,0.6,0,1,0l2.2,0l0.1-0.2c0.2-0.4,0.3-0.7,0.3-1c0-0.4-0.2-0.7-0.5-0.8c-0.2,0-0.5-0.1-1.5-0.1
			c-0.3,0-0.6,0-0.8,0h0c0,0,0-0.1,0-0.2c0-0.2,0-0.6-0.1-1c-0.1-1-0.1-2-0.1-2.8c0-0.2,0-0.4,0-0.5c0-0.2,0-0.3,0-0.4l0-0.1
			c0.2,0,0.5-0.1,0.7-0.2c0.4-0.2,0.6-0.5,0.6-0.9c0-0.4-0.2-1-1.3-1c0-0.2,0-0.4,0-0.8c0-0.6,0-1.4-0.1-2.5l0-2.6
			c0.1,0,0.3,0,0.4,0C830.7,325.6,830.9,325.6,831.1,325.6z"/>
		<path d="M837.9,325.6c1.6,0,2-0.2,2.1-0.5l0.3-0.5h-0.1c0,0,0-0.1,0-0.1c0-0.3-0.1-0.5-0.3-0.7c-0.2-0.2-0.6-0.3-1.4-0.3h-0.6
			c-0.2,0-0.4,0-0.6,0c-0.5,0-1,0-1.3,0.1c-0.4,0-0.7,0.2-0.9,0.6l0,0c0,0.1-0.1,0.3-0.1,2.4c0,0.3,0,0.7,0,1.5l0,2.5c0,1,0,2,0,3
			c0,1.1,0,2,0.1,2.9c0,0.9,0.1,1.7,0.1,2.3c0,0.9,0.1,1.1,0.1,1.2c0.1,0.1,0.1,0.3,0.2,0.3c0.1,0.1,0.2,0.2,0.4,0.3
			c0.1,0,0.3,0.1,0.6,0.1c0.2,0,0.6,0,1,0l2.2,0l0.1-0.2c0.2-0.4,0.3-0.7,0.3-1c0-0.4-0.2-0.7-0.5-0.8c-0.2,0-0.5-0.1-1.5-0.1
			c-0.3,0-0.6,0-0.8,0h0c0,0,0-0.1,0-0.2c0-0.2,0-0.6-0.1-1c-0.1-1-0.1-2-0.1-2.8c0-0.2,0-0.4,0-0.5c0-0.2,0-0.3,0-0.4l0-0.1
			c0.2,0,0.5-0.1,0.7-0.2c0.4-0.2,0.6-0.5,0.6-0.9c0-0.4-0.2-1-1.3-1c0-0.2,0-0.4,0-0.8c0-0.6,0-1.4-0.1-2.5l0-2.6
			c0.1,0,0.3,0,0.4,0C837.5,325.6,837.7,325.6,837.9,325.6z"/>
		<path d="M849.8,325c-0.1-0.5-0.4-0.7-0.6-0.8c-0.2-0.1-0.5-0.1-0.8-0.1h-0.8c-0.3,0-0.5,0-0.8,0c-1.2,0-2.2,0.1-2.9,0.1
			c-1,0-1.2,0.1-1.4,0.1c-0.4,0.1-0.7,0.5-0.7,0.9c0,0.4,0.2,0.6,0.6,0.8c0.2,0.1,0.5,0.2,1.7,0.2h0.7l0,4.5c0,1.1,0,2.3,0,3.4
			c0,1.2,0,2.3,0,3.5c0,2.6,0.1,2.8,0.2,2.9l0.6,0.9v-0.5c0.1,0,0.1,0,0.2,0c0.4,0,0.7-0.2,0.8-0.3l0,0c0,0,0,0,0-0.1
			c0.1-0.2,0.2-1.1,0.2-7.6c0-2.1,0-3.8,0-5c0-0.8,0-1.4,0-1.8l0.1,0c0.2,0,0.4,0,0.7,0l0.7,0c0.2,0,0.4,0,0.6,0
			c0.2,0,0.3-0.1,0.4-0.1c0.2-0.1,0.3-0.2,0.5-0.3C849.8,325.4,849.9,325.2,849.8,325z"/>
	</g>
</g>
</svg>
