<?xml version="1.0" encoding="utf-8"?>
<!-- Generator: Adobe Illustrator 24.0.1, SVG Export Plug-In . SVG Version: 6.00 Build 0)  -->
<svg version="1.1" xmlns="http://www.w3.org/2000/svg" xmlns:xlink="http://www.w3.org/1999/xlink" x="0px" y="0px"
	 viewBox="0 0 1000 371.3" style="enable-background:new 0 0 1000 371.3;" xml:space="preserve">
<style type="text/css">
	.st0{fill:#FFE87B;}
	.st1{fill:#1E1E1C;}
	.st2{fill:#1E1E1C;stroke:#1E1E1C;stroke-width:0.25;stroke-miterlimit:10;}
	.st3{fill:#1E1E1C;stroke:#1E1E1C;stroke-width:0.15;stroke-miterlimit:10;}
	.st4{fill:#FFFFFF;}
	.st5{stroke:#1E1E1C;stroke-miterlimit:10;}
	.st6{fill:none;stroke:#1E1E1C;stroke-width:3;stroke-linecap:round;stroke-linejoin:round;stroke-miterlimit:10;}
	.st7{stroke:#000000;stroke-width:1.5;stroke-miterlimit:10;}
</style>
<g id="Calque_2">
</g>
<g id="Calque_1">
	<g>
		<path d="M363.7,244.4c-0.1,0-0.2-0.1-0.3-0.1c-6.1,2-12.5,3.4-18.3,6.3c-5.7,2.8-11.7,5.1-17.5,7.6c-1.9,0.8-3.8,1.9-5.8,2.6
			c-2.5,0.9-5.1,1.7-7.7,2.4c-1,0.2-2.3,0.1-3.3-0.3c-4-1.7-8.1-3.3-11.9-5.4c-5.8-3.2-11.4-6.7-17.1-10.2
			c-4.5-2.7-8.7-5.8-13.3-8.3c-5.1-2.8-10.4-5.1-15.7-7.6c-4.5-2.1-9.1-4.2-13.1-7.2c-1.4-1-2.7-2.3-3.9-3.5c-1.5-1.4-3-2.8-4.3-4.4
			c-3.2-3.8-4.4-8.2-3.8-13.1c0.2-1.4,0.5-2.8,0.7-4.2c0,0-0.1-0.1-0.2-0.1c-2.6-0.1-4.1-1.6-5.1-3.9c-2.1-5.2-3.4-10.6-4.1-16.1
			c-1.3-10.2-2.5-20.3-3.9-30.5c-0.6-4.5-1.7-8.9-2.4-13.4c-0.4-2.2-0.7-4.5-0.8-6.8c-0.1-4.8-0.5-9.6-1.1-14.5
			c-0.8-6-1.3-12.1-1.9-18.1c-0.4-3.9-0.9-7.8-1.4-11.6c-0.3-2.5,1.3-4.7,3.9-6.1c2.3-1.3,4.9-1.4,7.4-2.1
			c5.7-1.5,11.5-2.9,17.1-4.6c5.2-1.5,10.4-2.5,15.8-2.8c6.5-0.4,12.8-2,19.2-3.1c5.3-0.9,10.6-1.9,15.6-3.9
			c10.3-4.1,21-6.6,31.5-10c4-1.3,8.4-1.6,12.6-2.2c4.6-0.7,9.2-1.2,13.8-2c4.3-0.8,8.7-0.9,13-0.9c5.5,0,11-0.1,16.5,0
			c5.4,0.1,8.9,2.9,10.1,8.2c1,4.6,1.8,9.3,2.4,14.1c1.9,13.9,3.7,27.7,5.5,41.6c1.1,8.3,1.2,16.6,1.4,24.9c0.1,5.2,1.1,10.3,2,15.4
			c0.4,2.3,0.6,4.6,0.7,6.9c0.1,1-0.5,1.8-1.6,2c-0.5,0.1-1.1,0.3-1.9,0.5c1.1,0.6,1.9,1.2,2.7,1.5c2.4,1,4.8,2,7.2,3
			c0.5,0.2,1,0.5,1.5,0.7c5.1,1.5,10.2,2.9,15.3,4.4c4.7,1.4,9.3,3.2,13.6,5.6c0.9,0.5,1.9,0.8,2.8,1.2c2,0.7,4,1.3,6,2.2
			c2.6,1.1,5.1,2.3,7.6,3.6c1.4,0.7,2.6,0.7,3.8,0c2.3-1.3,4.6-2.6,6.9-3.9c0.7-0.4,1.3-1,2.1-1.2c3.3-1.1,6.1-3.2,9-4.9
			c8.8-5.2,17.5-10.4,27.1-14.2c1-0.4,1.8-1.2,2.7-1.6c1.1-0.4,2.4-0.8,3.5-0.8c3,0,6,0.3,9,0.5c2.9,0.2,5.7-0.1,8.6-0.5
			c4.7-0.6,9.5-0.8,14.3-1.1c4-0.2,8-0.2,12-0.3c3.3,0,6.6,0.2,9.9,0.2c4.2-0.1,8.3-0.6,12.5-0.6c5.7,0,11.4,0.2,17,0.5
			c12.7,0.6,25.3,1.2,38,2.2c7.7,0.6,15.4,1.1,22.9,3c3.5,0.9,7.2,0.8,10.8,1.5c6.7,1.3,13.5,1.1,20.3,1.5c6.6,0.4,13,1.4,19.4,2.7
			c5.5,1.2,11.2,1.4,16.8,1.9c6.1,0.5,12.2,0.8,18.3,1.3c0.9,0.1,1.8,0.2,2.6,0.5c3.4,1.1,6.9,1.4,10.4,1.5
			c4.8,0.2,9.6,0.6,14.4,0.8c6.2,0.3,12.5,0.4,18.7,0.7c5.4,0.2,10.9,0.4,16.3,0.6c1,0,2,0.1,3,0.3c1.3,0.2,2.2,1.3,1.9,2.6
			c-0.2,1.1-0.6,2.3-1.2,3.2c-2.2,3.2-4.6,6.4-7,9.4c-2.6,3.3-5.3,6.4-7.9,9.6c-2.8,3.4-6.5,5.7-9.7,8.5
			c-7.6,6.7-16.4,11.8-24.5,17.9c-7,5.4-13.8,10.9-20.2,17.1c-9.4,9-19.6,17.2-30.3,24.7c-5.6,3.9-11.2,7.7-16.6,11.8
			c-8.8,6.8-17.5,13.8-26.2,20.8c-7.4,6-14.8,12-22.1,18c-0.9,0.8-1.7,1.7-2.5,2.6c-0.6,0.7-1.3,1.1-2.3,0.8
			c-2.7-0.7-5.5-1.4-8.2-2.1c-4.9-1.2-9.7-2.6-14.7-3.4c-4-0.6-7.8-1.8-11.6-2.7c-2.7-0.6-5.5-0.8-8.3-1.4c-3.5-0.7-7-1.4-10.4-2.2
			c-2.4-0.6-4.9-1.3-7.3-2c-4.3-1.2-8.6-2.6-13-3.7c-6-1.5-12-3.3-18.2-4.1c-0.9-0.1-1.8-0.1-2.7-0.3c-2.6-0.5-5.2-1.2-7.8-1.6
			c-4.3-0.7-8.6-1.2-12.9-1.8c-5.8-0.7-11.6-1.5-17.2-2.9c-4.1-1-8.2-1.9-12.3-2.9c-5.8-1.3-11.7-2.7-17.6-3.8
			c-5.1-1-10.3-1.6-15.3-2.8c-10.5-2.6-20.9-5.5-31.3-8.3c-1.5-0.4-2.9-1-4.3-1.5c-5.8-2.1-11.6-3.9-17.9-4.4c-5-0.3-10-1.1-15-1.8
			c-5.8-0.9-11.5-2.2-17.3-3c-3.7-0.5-7.6-0.5-11.4-0.6c-2.4-0.1-4.9,0-7.1-1.1c-1.9-1-2.2-2.3-1-4c2-2.8,4.5-5.2,7.4-7
			c2.7-1.7,5.1-3.7,7.7-5.5C363.4,244.8,363.6,244.6,363.7,244.4z M617.8,159.7c-3.8-0.3-7.6-0.7-11.4-0.9
			c-5.4-0.3-10.8-0.5-16.2-0.7c-8.7-0.3-17.3-1-26-0.1c-4.1,0.4-8.2-0.1-12.3-0.1c-5.2,0-10.4,0.2-15.6,0.4
			c-5.4,0.1-10.7,0.5-16.1,1.4c-3.7,0.6-7.6,0.2-11.3-0.2c-2.7-0.3-5.1,0.3-7.5,1.3c-10.1,4-19.4,9.4-28.7,14.9
			c-1.5,0.9-2.8,2.1-4.3,2.8c-3.7,1.5-6.9,3.7-10.3,5.6c-0.6,0.4-1.3,0.7-2.1,1.1c0.4,0.2,0.6,0.4,0.8,0.6c1.8,1.3,3.7,2.6,5.5,4
			c1.7,1.4,2.3,3.3,1.8,5.5c-0.3,1.2-0.6,2.5-0.9,3.6c1.8,0.4,3.5,0.9,5.2,1.3c1.5,0.4,2,0.1,3-1.1c0.6-0.7,1.4-1.4,2.2-1.7
			c2.3-0.7,5.9,1.3,6.7,3.6c0.3,0.9,0.1,1.8-0.7,2.3c-0.9,0.6-1.7,0.3-2.4-0.4c-0.5-0.5-0.9-1-1.4-1.4c-0.7-0.6-1.4-0.5-1.7,0.5
			c-0.6,1.8-1.9,2.4-3.7,2.2c-1.6-0.3-3.3-0.6-4.9-0.9c-1.1-0.2-2.2-0.5-3.5-0.8c-6,4.4-12.8,8.1-20.4,10.7c1.3,1.1,2.4,1.9,3.4,2.8
			c0.4,0.4,0.6,1.2,0.4,1.7c-0.2,0.5-0.8,1.1-1.3,1.2c-1,0.3-2.1,0-2.8-0.8c-0.3-0.3-0.5-0.6-1-1.1c-0.3,0.4-0.6,0.8-0.9,1.1
			c-0.7,0.8-1.4,1.6-2.2,2.2c-1.9,1.5-4.2,0.8-5.1-1.4c-0.1-0.3-0.3-0.6-0.4-1c-0.4,0.1-0.8,0.2-1.2,0.4c-4.2,1.6-8.4,3.3-12.6,5
			c-4.7,1.9-9.3,3.9-13.9,5.9c-3.6,1.5-7.1,3.2-10.6,4.7c-2.3,1-4.6,1.7-6.9,2.7c-4,1.7-7.8,3.9-12.1,4.8c-0.5,0.1-0.9,0.4-1.3,0.7
			c-1.9,1.5-3.7,3-5.5,4.4c-2,1.5-3.9,3-5.9,4.5c-2.1,1.5-4.4,2.9-6.5,4.5c-1.1,0.8-2,2-3,3c0.1,0.1,0.1,0.3,0.2,0.4
			c1.5,0,3-0.1,4.5,0c4.1,0.2,8.2,0.3,12.3,0.8c4.7,0.6,9.4,1.8,14.1,2.5c5.3,0.8,10.6,1.6,15.9,2c7,0.5,13.6,2.3,20.1,4.8
			c1.4,0.5,2.8,1.1,4.3,1.5c4.4,1.2,8.9,2.2,13.3,3.6c8.9,2.8,18,4.5,27,6.6c1,0.2,2,0.3,3,0.4c1.4,0.2,2.9,0.3,4.3,0.6
			c4.5,1,9,2.1,13.6,3.1c5,1.1,10,2.3,15.1,3.3c4.8,1,9.7,1.9,14.6,2.6c4.6,0.7,9.3,1.1,13.9,1.8c3.3,0.5,6.4,1.6,9.7,1.9
			c7,0.5,13.6,2.6,20.4,4.3c4.2,1.1,8.4,2.4,12.6,3.6c2.3,0.7,4.7,1.1,7.1,1.9c4,1.3,8,2.2,12.2,2.5c2.5,0.2,5,0.8,7.5,1.4
			c3.2,0.7,6.4,1.6,9.7,2.3c4.1,0.9,8.3,1.8,12.4,2.7c2.6,0.6,5.3,1.2,7.9,2c2.5,0.8,4.2,0.1,6.1-1.6c4.5-4,9.4-7.7,14.1-11.5
			c9.6-7.7,19.2-15.5,28.8-23.2c3.2-2.6,6.6-5.1,9.9-7.5c3.8-2.7,7.6-5.3,11.4-8c10.6-7.3,20.5-15.5,29.9-24.2
			c4.7-4.3,9.3-8.8,14.4-12.7c6.7-5.3,13.8-10,20.6-15.1c4.9-3.6,9.7-7.4,14.4-11.1c1.5-1.2,3.1-2.5,4.4-3.9
			c5.5-6,10.5-12.3,15.1-18.9c0.2-0.3,0.4-0.6,0.7-1.1c-1-0.1-1.7-0.2-2.5-0.2c-4.4-0.2-8.9-0.3-13.3-0.5c-9-0.3-18.1-0.6-27.1-1.1
			c-5-0.3-10.1-0.4-15-1.3c-4.5-0.9-9-1.5-13.5-1.8c-11-0.7-22.1-1.1-32.9-3.7c-6.5-1.6-13.2-1.7-19.9-1.8c-8.1-0.1-16-1.7-24.1-2.6
			c-3.6-0.4-7.2-1.5-10.8-2c-2.7-0.4-5.4-0.4-8.1-0.6c-1.1-0.1-2.2-0.3-3.3-0.4c0.8,2.3-0.1,3.3-2.4,3.3c-0.2,0-0.3,0-0.5,0
			c-4.6-0.9-8.7,1-12.9,2.2c-0.1,0-0.1,0.1-0.2,0.1c-1.9,1.3-2.3,1.2-3.8-0.6c-0.1-0.1-0.2-0.3-0.3-0.3c-1-0.5-1.5-1.3-1.1-2.3
			c0.4-1.1,1.3-1.7,2.4-1.9c0.3,0,0.6,0,0.8-0.1c2.2-0.8,2.2-0.8,3.5,0.7C614.1,160.8,615.9,160.2,617.8,159.7z M238,202
			c-0.2,3.3,0.1,5.7,1.3,7.4c2.4,3.6,5.4,6.4,9.7,7.6c2,0.6,3.9,1.4,5.8,2.3c4.6,2.2,9.2,4.6,13.8,6.9c1.9,0.9,4,1.6,5.9,2.6
			c6,3,11.9,6,17.8,9.2c2.2,1.2,4.2,2.6,6.2,4c1.7,1.2,3.2,2.6,5,3.7c2.3,1.5,4.6,2.9,7,4.1c1.3,0.6,3,1.2,4.3,0.8
			c2.3-0.6,4.5-1.8,6.7-2.8c4.5-2.1,9.1-4.2,13.6-6.3c2.1-1,4.3-2,6.4-3c4-1.9,8.2-3.2,12.4-4.3c3.9-1.1,7.7-2.4,11.5-3.8
			c4.7-1.7,9.4-3.4,13.9-5.5c7.8-3.7,15.8-6.7,23.9-9.5c5.8-2,11.7-4,17.6-6c1.7-0.6,3.4-1.1,5-1.7c3.3-1.3,6.7-2.3,9.7-4
			c4.3-2.3,8.8-4.1,13.6-5.3c3.4-0.9,6.5-2.4,9.2-4.7c1.1-1,1.1-1.6-0.1-2.5c-1.2-0.9-2.4-1.8-3.7-2.4c-5.1-2.5-10.3-5-15.5-7.3
			c-1.6-0.7-3.4-1-5-1.6c-0.8-0.3-1.5-0.6-2.3-1c-2.4-1.2-4.7-2.6-7.2-3.5c-5.2-1.8-10.4-3.5-15.6-4.9c-3.6-1-7.1-2-10.5-3.7
			c-2.2-1.1-4.5-1.9-6.8-3c-1.5-0.7-2.6-2.2-4.5-1.9c-0.2,0-0.5-0.1-0.6-0.3c-0.7-1.1-1.7-0.8-2.7-0.6c-1.3,0.4-2.7,0.8-4,1.3
			c-2.5,1-4.9,2.2-7.5,3c-4.9,1.6-9.9,3-14.9,4.5c-1.9,0.6-3.8,1.2-5.7,1.4c-6,0.8-11.8,2.6-17.3,5.1c-1.8,0.9-3.7,1.7-5.7,2.2
			c-5.5,1.4-11,2.6-16.5,3.8c-3.6,0.8-7.3,1.5-10.9,2.2c-4,0.7-8,1.3-11.9,2c-3.2,0.5-6.4,0.8-9.6,1.6c-3.7,1-7.3,2.5-11,3.6
			c-3.8,1.2-7.5,2.5-11.3,3.4c-5.8,1.4-11.6,2.9-17.6,3.1c-1.9,0.1-1.9,0.2-2,2.1C238.1,200.9,238.1,201.5,238,202z M362.7,50.3
			C362.7,50.3,362.7,50.3,362.7,50.3c-1.6,0-3.3,0-4.9,0c-4.9-0.1-9.7,0.1-14.5,1.2c-2.8,0.6-5.7,1-8.5,1.3
			c-7.4,0.8-14.7,1.9-21.8,4.3c-5.1,1.7-10.2,3.2-15.3,4.7c-2,0.6-4.1,1.1-6,2c-5.5,2.3-11.1,4-17,5c-6.2,1.1-12.3,2.3-18.5,3.3
			c-4.5,0.7-9,0.8-13.4,1.8c-8.6,2-17.1,4.4-25.6,6.7c-1.2,0.3-2.5,0.6-3.7,1.1c-1,0.4-1.9,0.9-1.8,2.2c0.2,2.1,0.4,4.2,0.7,6.3
			c0.5,4.4,1.1,8.7,1.5,13.1c0.4,4.2,0.8,8.4,1.1,12.5c0.3,3.7,0.6,7.5,0.9,11.2c0.2,2.5,0.4,5,0.8,7.5c0.8,4.6,1.9,9.2,2.5,13.9
			c1.4,10.5,2.6,21,4,31.5c0.6,4.7,1.9,9.2,3.6,13.7c0.4,1.2,1.2,1.7,2.6,1.9c5.5,0.4,10.9-0.7,16.3-1.5c7.3-1.1,14.6-2.8,21.6-5.4
			c3.8-1.4,7.6-2.6,11.5-3.8c1-0.3,2.1-0.7,3.1-0.8c4.7-0.7,9.5-1.1,14.3-1.9c5-0.9,10-1.9,15-3c4.9-1.1,9.8-2.2,14.7-3.4
			c2.4-0.6,4.8-1.2,6.9-2.2c4.6-2.3,9.4-3.6,14.3-4.9c2.9-0.7,5.9-1.1,8.8-1.8c1.5-0.3,3-0.9,4.4-1.4c6-2,12.3-3.2,18-6
			c2.3-1.2,4.8-1.7,7.4-2.1c1.7-0.2,3.4-0.3,5.1-0.5c1.3-0.1,1.8-0.7,1.7-2c-0.2-2.1-0.4-4.2-0.9-6.3c-1-4.5-1.4-9.1-1.6-13.8
			c-0.1-5.5-0.1-11-0.6-16.4c-0.9-9.5-2.2-19-3.5-28.4c-1.3-9.7-2.6-19.4-4.1-29.1c-0.4-2.4-1-4.8-1.9-7c-0.7-2-2.6-3-4.6-3.1
			C371,50.2,366.8,50.3,362.7,50.3z M315.5,259.1c0.8-0.2,1.5-0.3,2-0.6c2.5-1.1,5-2.2,7.5-3.3c5.4-2.3,11-4.3,16.2-6.9
			c7.9-4.1,16.4-6.2,24.8-8.7c5.8-1.7,11.8-3.1,17.3-5.9c3-1.6,6.4-2.5,9.6-3.8c1.3-0.5,2.6-0.9,3.9-1.6c9.1-4.8,18.7-8.5,28.3-12.2
			c3-1.2,6.1-2.2,9.1-3.5c2.6-1.1,5-2.5,7.5-3.8c3.4-1.7,7.1-2.6,10.3-4.8c1.8-1.3,3.7-2.5,5.7-3.5c1.2-0.6,1.5-1.6,1.6-2.8
			c-0.2,0.1-0.3,0.1-0.4,0.1c-3.1,2.1-6.5,3.4-10,4.4c-2.8,0.8-5.6,1.8-8.3,3c-3.7,1.6-7.2,3.4-10.9,5c-2.5,1-5.1,1.7-7.6,2.6
			c-2.6,0.9-5.2,2.1-7.9,2.9c-9.7,3-19.4,6.1-28.6,10.4c-8,3.8-16.2,6.9-24.5,9.8c-3.3,1.2-6.8,2-10.2,2.9c-6.1,1.7-11.5,5-17.3,7.4
			c-5.8,2.3-11.3,5.2-17,7.8c-0.3,0.2-0.8,0.5-0.8,0.9C315.7,256.3,315.6,257.6,315.5,259.1z M311.7,259.4c0.1-1.7,0.2-2.9,0.3-4.1
			c0-0.3-0.2-0.8-0.4-0.9c-1.8-0.9-3.8-1.7-5.5-2.7c-3.2-2-6.3-4.1-9.4-6.2c-1.5-1-2.8-2.2-4.3-3c-3.3-1.9-6.7-3.6-10.1-5.3
			c-4.4-2.2-8.8-4.3-13.3-6.4c-2.4-1.1-4.8-2.2-7.2-3.3c-5.1-2.3-9.9-5.4-15.3-7.1c-5.4-1.7-9.1-5.7-11.4-10.8
			c-1.2-2.8-1.1-5.9-0.9-8.9c0-0.4,0-0.8,0-1.2c-1.1-0.2-1.6,0.1-2,1.2c-0.8,2-1,4-0.8,6c0.2,2.8,1.1,5.4,3,7.5
			c1.2,1.3,2.4,2.6,3.8,3.8c1.9,1.7,3.8,3.6,6,4.9c3.3,2,6.9,3.7,10.4,5.4c5.8,2.9,11.8,5.6,17.5,8.6c2.9,1.5,5.4,3.5,8.2,5.2
			c5.3,3.3,10.5,6.7,16,9.7C301.2,254.5,306.4,256.8,311.7,259.4z"/>
		<path d="M741.3,319.7c-0.3,2.8-3.1,5.4-5.9,5.1c-0.8-0.1-1.7-0.5-2.2-1c-0.8-0.9-1.5-2.1-2-3.2c-1.7-4.5-4.3-8.3-6.7-12.4
			c-1.9-3.1-3.7-6.3-5.5-9.5c-2.1-3.6-4.2-7.3-6.4-10.8c-1.1-1.8-1.8-3.6-1.5-5.8c0.2-1.2,0.1-2.4,0.2-3.6c0.1-1.8,1.6-2.5,3.1-1.6
			c0.8,0.5,1.8,0.6,2.4,1.2c1.2,1.2,2.3,2.5,3.2,4c1.3,2,2.2,4.1,3.5,6.1c2.6,4.2,5.3,8.4,7.9,12.6c2.1,3.4,4.3,6.7,6.2,10.2
			c1.3,2.2,2.2,4.6,3.3,6.9C741.2,318.4,741.2,319.1,741.3,319.7z M715.1,281.3c-0.5,1.7-0.4,2.8,0.4,4.1c2.2,3.6,4.4,7.3,6.5,11
			c3.4,5.7,6.7,11.4,10,17.1c0.6,1.1,1.3,0.4,1.9,0.2c0.7-0.3,0.5-0.8,0.2-1.4c-1.6-2.5-3.1-5.1-4.7-7.7c-2.9-4.7-5.9-9.4-8.8-14.1
			c-1.4-2.3-2.7-4.7-4-7C716.2,282.8,715.7,282.2,715.1,281.3z M734.1,317.7c0.5,1.2,1,2.3,1.4,3.3c2.3-0.8,2.5-1.9,0.7-4.2
			C735.6,317.1,734.9,317.4,734.1,317.7z"/>
		<path d="M556.8,211.2c1,0.7,1.9,1.2,2.8,1.8c1.6,1.2,3.2,2.4,4.8,3.5c0.9,0.6,1.9,1.2,2.9,1.5c4.1,1.2,8.2,2.3,12.3,3.5
			c1.6,0.5,3.2,1,4.8,1.5c4.2,1.4,6.6,4.9,6.4,9.3c-0.1,1.4-0.1,2.8-0.4,4.2c-0.6,2.5-2,4.6-4.2,6.1c-1.8,1.2-3.5,2.4-5.2,3.7
			c-2.2,1.7-4.7,2.3-7.5,2.1c-2.2-0.2-4.5-0.2-6.7-0.4c-2.8-0.2-5,1.1-7.2,2.6c-1.2,0.8-2.2,1.7-3.3,2.6c-2.2,1.8-4.7,2-7.1,0.9
			c-2.2-1.1-4.2-2.5-6.2-4c-1.4-1-2.6-2.2-3.8-3.3c-1.9-1.7-3.8-3.4-5.5-5.3c-2-2.3-4.3-3.4-7.3-3.5c-3.2-0.1-6.4-0.4-9.6-0.5
			c-2.8-0.1-5.2-1.1-7.3-3c-1.7-1.6-1.7-3.2,0.1-4.8c0.2-0.2,0.5-0.4,0.7-0.6c2.1-2.2,4.1-4.7,7.6-5.2c-0.3-0.4-0.5-0.7-0.7-0.9
			c-1.5-1.8-1.6-3.8-0.7-5.9c0.9-2.1,2.6-3.2,4.9-3.2c3.9,0.2,7.8,0.5,11.7,0.6c2.5,0.1,4.9-0.1,7.5-0.2c0.1-0.9,0.1-1.5,0.1-2.1
			c0-1.5,0.7-2.6,1.9-3.4c3.2-2,6.4-2.3,9.7-0.2c0.3,0.2,0.5,0.3,1,0.6c0.7-1.3,1.4-2.6,2.1-3.9c1.5-2.8,2.9-5.6,4.3-8.4
			c1.3-2.6,3.4-3.8,6.3-3.5c1.8,0.2,3.7,0.4,5.4,0.9c2.2,0.6,2.7,1.5,2.6,3.8c-0.1,3.2-0.2,6.3-0.4,9.5c-0.1,2.4-0.9,3.1-3.4,2.9
			c-1.8-0.2-3.6-0.6-5.4-0.9c-2.1-0.3-4.3-0.5-6.4-0.7c-0.3,0-0.7,0.2-0.9,0.4C557.5,210,557.2,210.5,556.8,211.2z M536.1,238.4
			c0.3,0.3,0.4,0.6,0.6,0.7c3.7,3.3,7.4,6.7,11.2,10c0.4,0.4,1,0.7,1.5,1c2,1.1,3.8,1.2,5.6-0.4c3.3-2.9,6.9-5.5,12-5.4
			c-3-2-2.6-4.8-2.5-7.5c0-0.7,0-1.4,0.1-2c0.1-1.1-0.5-1.6-1.5-1.4c-1.3,0.3-2.7,0.6-4,1.2c-4.4,1.9-7.9,0.7-10.2-3.4
			c0-0.1-0.1-0.1-0.1-0.2c-0.5-0.7-1.4-0.9-2.2-0.4c-1.5,1-2.6,0.6-3.1-1.1c-0.1-0.3-0.5-0.6-0.8-0.9c-0.9,0.9-2.2,1.6-2.8,2.7
			c-0.7,1.3-0.8,3-1.3,4.5c-0.1,0.5-0.5,0.9-0.9,1.2C537.3,237.3,536.7,237.8,536.1,238.4z M568.4,234.6c-0.1,1.7-0.2,3.3-0.2,4.8
			c0,0.5,0.4,1,0.7,1.4c0.7,1,1.5,1.9,2.2,2.8c0.2,0.2,0.4,0.7,0.6,0.7c2.2,0.1,4.5,0.7,6.5-0.7c2.1-1.5,4.1-3,6.2-4.3
			c2.8-1.7,3.6-7.8,1.8-10.5c-0.1-0.2-0.6-0.4-0.9-0.3c-1.9,0.5-3.9,0.8-5.7,1.7c-2.5,1.3-4.9,3-7.3,4.6
			C570.8,235.9,570.1,235.9,568.4,234.6z M555,214.2c-1,2.1-1.8,3.8-2.5,5.6c-0.5,1.1-1.3,1.7-2.3,1.4c-1-0.3-1.6-1.2-1.4-2.3
			c0.1-0.6,0.4-1.2,0.5-1.8c-0.1-0.1-0.2-0.1-0.2-0.2c-1.5,1.4-3,2.8-4.5,4.2c-0.9,0.8-1.1,1.7-0.9,2.8c0.2,0,0.3,0.1,0.5,0.1
			c1.5,0,3,0.3,3.6,2c0.1,0.2,0.4,0.4,0.7,0.4c2.1,0.3,3.4,1.5,4.2,3.5c0.2,0.5,0.8,1.2,1.2,1.3c1.2,0.1,2.5,0.2,3.6-0.2
			c1.5-0.5,2.9-1.4,4.2-2.3c0.5-0.3,1-1,1.1-1.6c0.5-2,0.9-3.9,1.3-6.1C561.2,218.8,558.3,216.6,555,214.2z M523.9,223.7
			c0,0.2,0.1,0.4,0.1,0.6c-0.9,0.7-1.7,1.4-2.7,2c-1.2,0.7-2.5,1.1-3.7,1.6c-2.2,0.8-3.2,2.8-4.8,4.5c1.3,0.6,2.7,1.1,4,1.2
			c3.2,0.3,6.5,0.3,9.7,0.6c1.9,0.2,3.8,0.6,5.6,1.1c1.3,0.4,2.9-0.3,3.2-1.7c0.8-3.9-1.3-7-4.2-8
			C528.8,224.8,526.3,224.4,523.9,223.7z M542.5,217.7c-4.4,1-8.7,0.7-13,0.4c-2.6-0.2-5.2-0.3-7.8-0.4c-0.9-0.1-1.5,0.4-1.8,1.3
			c-0.2,0.8,0,1.5,0.8,1.9c0.5,0.3,1,0.5,1.5,0.8c0.5-1.1,1.3-1.7,2.4-1.5c2.5,0.5,5,1,7.5,1.7c2.3,0.6,4,2.2,5.4,4.2
			c0.2,0.3,0.4,0.6,0.6,0.9c1.8-1.2,1.8-1.2,1.7-3.1c0-0.2,0-0.4,0-0.6C539.8,221,540.7,219.2,542.5,217.7z M580.1,225.6
			c-4.1-1.2-8.1-2.4-12.4-3.7c-0.6,2.7-1.2,5.3-1.9,7.9c1.6,0.7,2.2,2.2,2.5,3.9C569.5,231.9,573.5,229.2,580.1,225.6z M570.3,206.8
			c0.1-2.8,0.3-5.5,0.4-8.2c0-0.2-0.1-0.4-0.2-0.5c-0.6-0.6-5.5-0.9-6.2-0.4c-0.3,0.2-0.5,0.5-0.7,0.8c-0.8,1.4-1.5,2.8-2.3,4.2
			c-0.4,0.8-0.9,1.7-1.3,2.5C563.4,205.8,566.7,206.3,570.3,206.8z M544.5,215.6c0.1,0,0.2,0.1,0.3,0.1c1.7-1.3,3.4-2.6,5.2-4.1
			c-1.8-0.9-3.2-0.6-4.5,0.2C543.9,212.8,544.9,214.4,544.5,215.6z"/>
		<path d="M599,285.3c-0.4-3.6,1.4-6.6,3.5-9.2c1.2-1.5,2-3.1,2.9-4.7c0.8-1.3,1.3-3,3-3.1c2.2-0.2,4.4-0.3,6.3,1.2
			c1.6,1.3,3,2.8,3.4,4.9c0.2,1.4,1,2.1,2.4,2.3c1.1,0.2,2.2,0.7,3.2,1.3c1.6,0.8,2.5,2.3,2.7,4c0.5,3.2-0.2,6.1-3,8.1
			c-4.1,3-8.7,4.6-13.7,5.2c-2.1,0.3-4.1-0.1-5.7-1.7c-0.3-0.3-0.6-0.5-1-0.6c-3.2-1.3-4.2-3.8-4.2-7C599,285.8,599,285.5,599,285.3
			z M609.2,291.8c0-0.1,0.1-0.2,0.1-0.3c2.9,0.1,10.1-2.7,12.3-4.7c0.2-0.2,0.3-0.3,0.5-0.5c1.9-2.1,1-5.1-1.6-5.9
			c-0.3-0.1-0.6-0.2-0.9-0.2c-2.8-0.4-4.2-2.1-4.9-4.7c-0.3-1-1-2-1.7-2.8c-1.5-1.5-3.3-1.2-4.3,0.7c-0.2,0.5-0.4,1-0.7,1.4
			c-1,1.7-1.2,3.9-3.3,4.8c-0.1,0-0.1,0.2-0.2,0.3c-1.5,2-1.7,4.4-1.6,6.8c0.1,1.3,0.6,2.2,1.8,2.7c0.7,0.3,1.2,0.8,1.9,1.1
			C607.3,291,608.3,291.4,609.2,291.8z"/>
		<path d="M687,215.7c4.5-0.3,9-0.6,13.5-1.1c3.9-0.5,6.8,1.4,8.3,4.8c0.7,1.5,1.5,2.9,1.4,4.7c-0.3,4.7-4.7,7.8-9.2,6.1
			c-0.4-0.1-0.8-0.3-1.1-0.5c-4.4-3.2-9.6-4-14.7-5.1c-2.9-0.6-5.7-1.8-8.5-2.9c-2-0.8-2.1-3-0.5-4.4c1.9-1.6,4.1-2.1,6.5-2.1
			c1.4,0,2.8,0.1,4.2,0.2C687,215.5,687,215.6,687,215.7z M680.8,219.2c0,0.1,0,0.3-0.1,0.4c1.4,0.4,2.8,1,4.3,1.3
			c5.9,1.1,11.8,2.1,16.8,5.8c0.1,0,0.1,0.1,0.2,0.1c1.4,0.6,2.5,0.3,3.5-0.8c0.9-1,1.1-2.1,0.5-3.4c-0.2-0.4-0.5-0.8-0.7-1.3
			c-1.2-2.5-2.1-3.1-4.9-2.8c-5.8,0.6-11.7,1.2-17.6,0.6C682.3,218.9,681.5,219.1,680.8,219.2z"/>
		<path d="M654.5,195.1c0.1,3.5-1.1,6.5-2.9,9.4c-1.8,2.9-4.3,4.5-7.9,4.2c-1.5-0.1-3-0.1-4.4-0.4c-3.1-0.7-5.2-2.6-6.7-5.3
			c-1.2-2.2-2.5-4.2-4-6.3c-1.3-1.8-1.4-3.7,0.1-5.4c2.2-2.4,5-4.1,8.1-5.2c1-0.3,2.2-0.2,3.3-0.1c0.6,0,1,0.1,1.3-0.6
			c0.5-1,1.4-1.2,2.5-0.9c1.7,0.5,3.5,0.9,5.2,1.4c2.5,0.6,4.7,2.9,5.1,5.5C654.4,192.6,654.4,193.9,654.5,195.1z M643.3,188.5
			c-0.9,1.8-1.3,1.9-3.3,1.4c-0.8-0.2-1.8-0.3-2.4,0c-2,1-3.8,2.3-5.7,3.5c-0.5,0.3-0.5,0.8-0.1,1.3c1.4,2.1,2.8,4.3,4,6.5
			c1.2,2.3,3,3.5,5.6,3.7c0.7,0,1.4,0.1,2,0.1c2.2,0.3,3.6-0.7,4.8-2.4c2.2-3.2,2.4-6.7,2.2-10.3c-0.1-1.2-1.2-2.4-2.4-2.7
			C646.6,189.2,645,188.9,643.3,188.5z"/>
		<path d="M440.1,246.4c0.2,2.9-1.2,5.1-2.8,7.2c-1,1.3-2.8,1.5-4.5,0.7c-2.9-1.2-5.8-2.4-8.7-3.5c-1.1-0.4-2.3-0.3-3.4-0.5
			c-2-0.3-4-0.5-5.9-1c-2-0.5-2.6-1.6-2.5-3.6c0.1-2,1.1-3.7,2.6-4.9c1.5-1.1,3.2-2,4.7-3c0.4-0.2,0.8-0.5,1-0.9
			c0.9-1.5,2-1.9,3.5-1.1c0.5,0.2,1,0.6,1.3,1c1.8,2.6,4.4,3,7.3,2.9c2.9-0.2,5.1,1.2,6.6,3.6c0.6,0.9,0.7,2.1,1.1,3.2
			C440.3,246.3,440.2,246.4,440.1,246.4z M434.7,250.9c0.5-1,1.1-1.8,1.5-2.8c0.8-2.1,0.3-3.6-1.6-4.5c-0.7-0.3-1.5-0.4-2.3-0.3
			c-3.1,0.2-5.8-0.6-8.3-2.5c-0.2-0.2-0.6-0.2-0.9-0.2c-2.7,0.4-4.9,1.9-6.6,3.9c-0.3,0.3-0.3,0.8-0.5,1.5
			C422.7,246,428.6,248.3,434.7,250.9z"/>
		<path d="M577.6,182c-1.3,0-2.9,0-4.4,0c-0.7,0-1.4,0.1-2,0.3c-2.8,0.9-4.1,0.4-5.2-2.4c-2,0.1-4.3,0.7-5.4-2.2
			c-0.6,0.5-1,0.9-1.5,1.3c-1,0.8-2,1.4-3.3,0.7c-1.2-0.6-1.3-1.7-1.2-2.9c0-0.3,0-0.6,0-0.8c-0.1,0-0.2-0.1-0.2-0.1
			c-0.9,0.6-1.8,0.8-2.7,0.1c-0.9-0.7-0.9-1.7-0.5-2.7c0.5-1.5,1.1-2.9,1.6-4.4c0.3-0.9,0.9-1.5,1.9-1.6c1,0,1.5,0.5,1.8,1.5
			c0,0.1,0.1,0.4,0.2,0.4c2.2,0.8,1.9,2.7,1.8,4.5c0,0.2,0,0.3,0,0.4c1.3-0.3,2.5-0.8,3.7-0.8c1.6,0,2,1.4,2.2,2.8
			c2.3-0.3,4.7-0.7,5.2,2.2c1.9,0,3.6,0.1,5.3,0c1-0.1,1.9-0.4,2.9-0.6c1.7-0.3,3.1,0.3,3.6,1.8c0.2,0.7,0.3,1.6,0,2.3
			c-0.3,0.6-1.1,1.2-1.7,1.2C579.1,183.2,578.4,182.5,577.6,182z"/>
		<path d="M478,259.3c-0.8,0.8-1.4,1.5-2.2,2.2c-0.7,0.7-1.5,0.9-2.4,0.5c-0.9-0.5-1.2-1.3-1.1-2.2c0.1-0.9,0.3-1.9,0.4-2.8
			c-2.4-0.6-2.6-0.9-2.7-3.4c0-0.8,0-1.5,0-2.3c0-1.5,0.9-2.2,2.4-2.1c0.3,0,0.7-0.2,0.9-0.4c0.7-0.7,1.4-1.1,2.3-0.7
			c0.9,0.4,1.3,1.2,1.2,2.1c-0.1,1.6-0.2,3.3-0.2,4.9c2.8-0.9,3.1-0.8,4.6,1.1c0.5-0.4,1-0.8,1.6-1.2c1.1-0.8,2.2-1,3.5-0.5
			c0.7,0.3,1.5,0.2,2.2,0.2c1.4,0.1,2.2,0.8,2.2,1.9c0,1.1-0.8,1.8-2.1,1.8c-1.1,0-2.1-0.1-3.2-0.1c-0.4,0-0.8,0.1-1.1,0.3
			c-0.5,0.3-0.9,0.8-1.3,1.2C481.1,261.5,479.6,261.4,478,259.3z"/>
		<path d="M512.8,177.5c2.8-2.5,5.2-2.8,6.5,0.5c0.5-0.3,1.1-0.5,1.6-0.8c1.3-0.7,2.7-1.1,4.3-0.9c1.2,0.2,1.9,1,1.9,2
			c-0.1,1-0.8,1.5-2,1.7c-0.9,0.1-1.8,0.4-2.7,0.7c-0.7,0.2-1.3,0.7-2,0.8c-1.8,0.4-3.4,0.2-4.5-1.6c-1.9,1.4-3.4,3.7-6.1,1.9
			c-0.2,0.2-0.4,0.5-0.6,0.6c-0.6,0.2-1.4,0.5-1.9,0.2c-0.5-0.2-1.1-1.1-1-1.5c0.4-2.2,0.8-4.3,1.5-6.4c0.2-0.5,1.2-1,1.8-1
			c0.6,0.1,1.1,0.9,1.5,1.4C511.6,175.9,512.1,176.6,512.8,177.5z"/>
		<path d="M566.4,286.4c-1.1,1.4-2.1,2.7-3.1,3.9c-0.8,0.9-1.7,1.6-3,1.3c-1.4-0.4-1.8-1.5-1.9-2.8c-0.1-1.4-0.5-2.4-2.1-2.8
			c-1.6-0.4-2.2-2.4-1.4-3.8c0.7-1.3,2.4-1.4,3.2-0.2c0.2,0.3,0.5,0.7,0.8,0.8c1.8,1,1.9,1.1,3,3.2c0.4-0.6,0.8-1.1,1.2-1.6
			c0.5-0.7,1-1.5,1.6-2c1.5-1.4,3.5-1,4.4,0.8c0.4,0.9,0.7,1.9,1.1,2.9c0.3,0.8,0.7,1.6,1.2,2.3c0.6,1,0.4,2.2-0.7,2.9
			c-1,0.7-2.2,0.5-2.8-0.5c-0.3-0.5-0.5-1.2-0.7-1.8C566.9,288.3,566.7,287.4,566.4,286.4z"/>
		<path d="M483.5,266.7c0.3-0.1,0.6-0.3,0.8-0.3c0.7,0.2,1.5,0.2,1.9,0.7c0.3,0.4,0.4,1.5,0.1,1.8c-1,1.1-2.1,2.2-3.3,3
			c-1.3,0.8-2.7-0.1-3.1-1.6c-0.1-0.3-0.1-0.6-0.1-0.6c-1.3,0.1-2.5,0.1-3.7,0.3c-0.5,0.1-1,0.3-1.5,0.5c-2,0.8-3.8,0.9-5.4-0.8
			c-0.4-0.4-1-0.5-1.4-0.8c-1-0.6-1.5-1.4-1.3-2.6c0.2-1.3,1.6-2,2.7-1.3c1,0.6,1.9,1.4,2.9,2c0.3,0.2,0.7,0.1,1.1,0
			c1.3-0.2,2.5-0.5,3.8-0.8c0.3-0.1,0.6-0.2,0.8-0.4c0.3-0.2,0.6-0.5,0.9-0.8C481.1,263.2,482.8,263.7,483.5,266.7z"/>
		<path d="M642,254.3c-0.4,0.5-0.8,1-1.2,1.4c-0.7,0.7-1.6,1-2.6,0.7c-1-0.3-1.6-1.1-1.6-2c-0.1-1.4-0.1-2.8,0-4.2
			c0.1-1.5,0.8-2.3,1.9-2.4c1.1-0.1,1.7,0.6,2.1,2.3c1.5-0.8,2.8-0.7,3.9,0.8c0.1,0.2,0.5,0.2,0.7,0.2c1.7-0.1,3.4-0.4,5.1-0.5
			c1-0.1,1.6,0.5,1.9,1.5c0.3,1.1-0.4,2.5-1.5,2.6c-2.3,0.2-4.7,0.2-7.1,0.2C642.9,254.9,642.5,254.5,642,254.3z"/>
		<path d="M728,209.8c0.6-0.6,1.2-1,1.8-1.5c1.1-0.9,2.3-1.4,3.7-0.8c1.3,0.5,1.5,1.6,1.7,2.8c0.1,0.6,0.2,1.2,0.4,1.8
			c0.2,1.1-0.2,2-1.1,2.4c-0.9,0.4-1.9-0.1-2.4-1.2c-0.2-0.3-0.3-0.7-0.5-1.2c-0.6,0.7-1.2,1.3-1.8,1.9c-1,1-2.2,1.7-3.7,1.1
			c-1.4-0.6-1.8-1.8-1.8-3.1c0-1.6,0-3.1,0.1-4.7c0.1-1.4,1-2.3,2.1-2.1c1.1,0.1,1.7,1,1.7,2.4C728.1,208.1,728.1,208.9,728,209.8z"
			/>
		<path d="M586.9,250.6c0.4,0,0.9,0,1.3,0.1c1.8,0.6,3.4,0.6,4.9-1c1-1.1,2.6-0.6,3.9-0.4c1,0.1,2,0.3,3,0.4
			c1.2,0.1,1.9,0.7,1.9,1.7c0.1,1-0.7,1.9-1.8,2c-1.2,0-2.4-0.1-3.5-0.4c-1-0.2-1.6-0.2-2.3,0.7c-1.4,2-3.4,1.2-5.3,1
			c-1.1-0.1-2.1-0.3-3.2-0.4c-1.3-0.1-2.1-0.6-2.2-1.7c-0.1-1.1,0.7-2,2-2.1C586,250.5,586.5,250.5,586.9,250.6
			C586.9,250.6,586.9,250.6,586.9,250.6z"/>
		<path d="M478,207.3c2.9,0.9,5.7,1.7,8.6,2.6c1.6,0.5,3.2,1.2,4.8,1.8c0.4,0.2,0.9,0.4,1.2,0.7c0.7,0.7,1,1.6,0.4,2.5
			c-0.6,0.9-1.4,1-2.3,0.6c-3.5-1.2-6.9-2.5-10.4-3.7c-0.9-0.3-1.8-0.5-2.7-0.6c-1.6-0.2-2.4-0.9-2.3-2
			C475.4,208.1,476.4,207.5,478,207.3z"/>
		<path d="M606.8,206.1c-0.1,0.1-0.2,0.3-0.3,0.5c-0.5,0.9-1.1,1.6-2.3,1.4c-1.1-0.2-1.6-1-1.9-1.9c-0.1-0.2-0.1-0.5-0.2-0.7
			c-0.4-1.7-0.4-1.7-2.1-1.5c-1,0.1-1.8-0.2-2.2-1.1c-0.5-1-0.5-2,0.3-2.8c0.7-0.8,1.5-0.8,2.4-0.3c0.3,0.2,0.7,0.2,1,0.2
			c1.3,0.1,2.5,0.4,3.3,1.5c0.1,0.2,0.4,0.2,0.7,0.3c1,0.3,2,0.6,3,0.9c0.7,0.2,1.3,0.7,1.9,1c1.1,0.5,1.5,1.3,1.3,2.3
			c-0.3,1-1.3,1.6-2.3,1.3C608.5,207,607.7,206.5,606.8,206.1z"/>
		<path d="M526.9,199.5c0,1.6-0.7,2.5-1.8,2.5c-1.1,0.1-1.6-0.7-2-2c-0.9-3.3-1.8-6.5-2.8-9.8c-0.1-0.4-0.4-0.7-0.7-1
			c-0.9-1-0.9-2.1,0-2.9c1-0.8,2.4-0.7,3.2,0.3c0.2,0.3,0.4,0.7,0.5,1.1c1.1,3.5,2.2,7.1,3.3,10.6
			C526.9,198.8,526.9,199.3,526.9,199.5z"/>
		<path d="M598.3,269.9c0,1.6-1.4,2.5-2.7,1.8c-0.6-0.3-1.2-0.7-1.5-1.3c-1.4-2.3-2.7-4.6-4.1-6.9c-0.3-0.5-0.6-1.1-1.1-1.5
			c-0.8-0.8-0.8-1.7-0.4-2.7c0.3-0.9,1-1.5,2-1.5c1.1,0,1.6,0.7,2,1.6c0.7,1.6,1.2,3.3,2,4.7c0.9,1.6,2.1,3,3.2,4.5
			C597.9,269.1,598.1,269.6,598.3,269.9z"/>
		<path d="M692,188.3C691.7,188.3,691.8,188.3,692,188.3c1.8,0.4,3.6,1,5.5-0.3c0.9-0.6,2,0.2,2.5,1.2c0.3,0.6,0.6,0.8,1.3,0.8
			c1.4,0,2.2,0.7,2.3,1.7c0.1,1.1-0.7,1.8-2.1,2c-1.5,0.2-3,0.4-4.1-1c-0.1-0.1-0.5,0-0.8,0c-1.2-0.1-2.5-0.1-3.7-0.3
			c-0.5,0-1-0.3-1.5-0.3c-1.6-0.2-2.4-0.9-2.4-2C689.1,188.9,690,188.3,692,188.3z"/>
		<path d="M481.5,248.4c-0.4-0.3-1.2-0.6-1.3-1.2c-0.2-0.6,0-1.6,0.4-2c0.6-0.6,1.5-1,2.4-1.2c1.2-0.3,2.5-0.4,3.6-0.7
			c1.6-0.5,3.2-1.1,4.8-1.7c0.6-0.2,1.3-0.5,1.9-0.5c0.9,0,1.5,0.5,1.7,1.3c0.2,0.9-0.1,1.6-0.9,2c-1.9,0.8-3.9,1.7-5.9,2.3
			c-1.9,0.6-3.8,1-5.8,1.5C482.3,248.3,482,248.3,481.5,248.4z"/>
		<path d="M672.5,242.6c-0.6-0.5-1.4-0.9-1.8-1.5c-0.5-0.8-0.1-1.7,0.6-2.2c1.7-1.3,3.4-2.6,5.1-3.9c1.3-0.9,2.5-1.8,3.8-2.6
			c0.4-0.3,0.9-0.5,1.4-0.6c0.9-0.2,1.6,0.2,2,1c0.4,0.8,0.2,1.6-0.5,2.1c-0.9,0.7-1.9,1.2-2.7,1.9c-2,1.6-4,3.2-6,4.8
			C673.9,242,673.3,242.2,672.5,242.6z"/>
		<path d="M435,230.2c-0.1,1.2-0.1,2.5-0.2,3.7c-0.1,1.4-0.9,2.2-2,2.1c-1.1-0.1-1.8-0.9-1.8-2.3c0.1-2.4,0.2-4.8,0.4-7.2
			c0.1-1.3,1-2,2-2c1,0.1,1.7,1,1.7,2.3C435.2,228,435.1,229.1,435,230.2C435,230.2,435,230.2,435,230.2z"/>
		<path d="M696.6,199.1c-0.7,2.6-1.2,5-2,7.4c-0.3,1-1.2,1.5-2.3,1.5c-1.3-0.1-2.3-1.5-1.5-2.6c1.1-1.6,1.2-3.4,1.4-5.1
			c0.1-0.5,0.1-1,0.2-1.5c0.3-1.1,1.3-1.6,2.4-1.4C695.9,197.6,696.6,198.4,696.6,199.1z"/>
		<path d="M585.4,282.5c1.1,0.1,2.2,0.1,3.2,0.3c1.4,0.2,2.2,1.3,1.9,2.4c-0.2,1.1-1.1,1.4-2.5,1.3c-1.7-0.1-3.5-0.6-5.2,0.3
			c-1.1,0.6-2.4,0-2.9-0.9c-0.4-1,0-2.2,1.3-2.7c1.3-0.5,2.7-0.7,4.1-1C585.4,282.4,585.4,282.5,585.4,282.5z"/>
		<path d="M628.3,270.5c-0.7-0.5-1.4-0.8-1.6-1.3c-0.2-0.5-0.1-1.5,0.2-1.9c1.5-1.6,3.1-3.2,4.8-4.6c1-0.9,2.2-0.7,2.9,0.2
			c0.6,0.8,0.3,1.8-0.6,2.7c-1.2,1.1-2.3,2.2-3.5,3.3C629.9,269.5,629.2,269.9,628.3,270.5z"/>
		<path d="M633.9,176.8c-0.8-0.6-1.6-0.9-2-1.5c-1.1-1.5-2-3.1-2.9-4.8c-0.5-0.9,0-2.1,0.9-2.6c0.9-0.5,1.9-0.3,2.6,0.5
			c0.3,0.4,0.5,1,0.8,1.5c0.7,1.2,1.5,2.3,2.1,3.6c0.3,0.6,0.4,1.4,0.2,2C635.4,176,634.6,176.3,633.9,176.8z"/>
		<path d="M644.3,224.9c0.2-1,0.5-2.6,0.8-4.1c0.3-1.2,1.3-1.7,2.2-1.5c0.9,0.2,1.5,1.1,1.3,2.2c-0.2,1.5-0.5,3.1-0.8,4.6
			c-0.2,1.1-1.1,1.7-2.1,1.5C644.8,227.6,644.2,226.7,644.3,224.9z"/>
		<path d="M452.2,249.9c1.2,0.2,2.1,0.8,2.1,1.8c0.1,1-0.6,1.8-1.8,2c-1.2,0.2-2.4,0.5-3.6,0.8c-1.2,0.2-2-0.1-2.3-1.1
			c-0.3-0.9,0.1-2,1.1-2.4C449.1,250.6,450.7,250.3,452.2,249.9z"/>
		<path d="M617.4,196.1c0.6,0.1,1.2,0.1,1.8,0.2c1,0.2,1.7,0.8,1.7,1.9c0,0.9-0.7,1.6-1.8,1.8c-1.1,0.2-2.1,0.4-3.2,0.6
			c-0.9,0.2-1.6-0.1-2-0.9c-0.5-1-0.4-2.1,0.5-2.7c0.8-0.6,1.9-0.7,2.9-1.1C617.3,195.9,617.3,196,617.4,196.1z"/>
		<path d="M419.8,260c0.1-0.7,0.1-1,0.1-1.4c0.2-1.1,1-1.8,2-1.7c1,0,1.6,0.8,1.7,2c0.1,1,0.2,2,0.4,2.9c0.2,1.3-0.3,2.3-1.4,2.6
			c-1.1,0.2-1.9-0.4-2.3-1.7C420.1,261.7,419.9,260.7,419.8,260z"/>
		<path d="M663.9,200.6c0.6,0,1.1,0,1.7,0c1.2,0.1,1.9,0.9,1.9,1.9c0,1-0.8,1.8-2,1.8c-1.2,0-2.4-0.1-3.6-0.2
			c-1-0.1-1.6-0.8-1.6-1.8c0-0.9,0.7-1.7,1.8-1.8C662.7,200.5,663.3,200.6,663.9,200.6C663.9,200.6,663.9,200.6,663.9,200.6z"/>
		<path d="M714.6,209.6c0.6,0.1,1.3,0.1,1.9,0.3c0.9,0.3,1.5,0.9,1.4,1.8c-0.1,1-0.7,1.6-1.6,1.7c-1.1,0.1-2.3,0-3.4-0.2
			c-0.9-0.2-1.4-0.9-1.3-1.9c0.1-0.9,0.6-1.5,1.5-1.6C713.5,209.6,714.1,209.6,714.6,209.6z"/>
		<path d="M355.3,182.6c1.5,2.5,1.5,3.2-0.7,4.9c2.3,0,3.6,1.4,4.9,2.9c1.6,2,1.3,4-0.9,5.3c-4.1,2.4-8.2,4.8-12.3,7.3
			c-4.1,2.5-8.2,5-12.2,7.6c-3,1.9-5.8,0.4-6.5-3.1c-0.7-3.5,1.3-5.1,3.8-6.6c5.4-3.3,10.8-6.8,16.2-10.4c-3.2,0-3.7-2.3-4.3-4.5
			c-0.5-1.6-0.5-2.8,0.9-4c0.2-0.2,0-1.1-0.2-1.6c-1-2.2-0.8-3.1,1.5-4c1.8-0.7,3.6-1.3,5.5-1.6c3.1-0.6,6.1,2.4,5.5,5.5
			C356.4,181,355.8,181.7,355.3,182.6z M356.5,192.6c-0.8-0.7-1.2-1.7-2.5-1.1c-3.3,1.6-6.5,3.2-9.4,5.5c-1.6,1.3-3.4,2.4-5.1,3.5
			c-2.3,1.4-4.8,2.7-7.1,4.2c-1.4,0.8-1.4,1.3-0.5,2.7C340,202.5,348.2,197.6,356.5,192.6z M352.5,179.1c0-0.1,0-0.3,0.1-0.4
			c-0.4-0.1-0.9-0.3-1.3-0.2c-0.7,0.1-1.5,0.3-2.2,0.5c-1.3,0.3-1.3,0.4-0.7,1.7C349.7,180.2,351.1,179.7,352.5,179.1z M347.4,186.1
			c1.4-0.6,2.7-1.2,3.9-1.7c0-0.1-0.1-0.2-0.1-0.3c-1.5-0.3-2.7,1.3-4.3,0.8C347.2,185.4,347.3,185.7,347.4,186.1z"/>
		<path d="M350.9,226.8c-1.3-0.5-2.7-0.9-4-1.5c-1.4-0.7-2.7-1.6-4-2.4c-2.1-1.2-3.7-2.9-5.1-4.8c-1.5-2-1.1-4.7,0.4-6.6
			c2.8-3.5,6.2-5.9,10.1-7.9c4.7-2.3,9.4-4.7,14.2-7c2.2-1.1,4.3-1,6.4,0.1c3,1.6,6.3,2.7,8.9,5.2c1.9,1.8,3.6,3.7,5.3,5.7
			c1.1,1.2,1,3,0,4.3c-0.7,0.8-1.5,1.5-2.4,2.1c-4.4,3-9.2,5.3-14.1,7.4c-1.1,0.5-2.2,0.8-3.2,1.4c-3.3,2-7.1,2.7-10.8,3.5
			c-0.5,0.1-1.1,0.1-1.7,0.2C350.9,226.6,350.9,226.7,350.9,226.8z M380.1,209.7c-1.7-1.7-3.1-3.4-4.7-4.9c-2.3-2.2-5.4-3.3-8.2-4.7
			c-1.1-0.6-2.2-0.6-3.3,0c-4.7,2.3-9.4,4.7-14,7c-3.4,1.7-6.5,3.8-8.9,7c-0.6,0.7-0.6,1.2-0.1,2c1.1,1.7,2.6,3.1,4.4,4
			c0.9,0.5,1.9,1,2.7,1.6c1.5,1.2,3.2,1.3,5,0.9c3.3-0.7,6.6-1.6,9.6-3.4c0.9-0.5,1.9-0.8,2.9-1.3c4.6-2,9.1-4.2,13.3-7
			C379.1,210.5,379.6,210.1,380.1,209.7z"/>
		<path d="M320.4,193.6c0.4-0.2,0.8-0.4,1.3-0.5c0.9-0.3,1.9-0.7,2.8-0.9c1.7-0.3,3.1,0.3,4,1.8c0.5,0.9,1,1.8,1.3,2.8
			c0.5,1.6-0.2,2.8-1.8,3.4c-1.4,0.6-2.8,1.1-4.3,1.6c0.5,0.9,0.9,1.7,1.2,2.5c0.5,1.4,0.1,2.6-1.2,3.4c-0.3,0.2-0.7,0.4-1,0.6
			c-2.5,1.5-4.4,0.9-5.3-1.9c-1-3.2-1-3.2,2.2-5c-1.3-2.4-3-4.8-0.6-7.7c-2.3,0.1-3.1-1.2-3.6-3c-0.1-0.5-0.3-1.1-0.6-1.6
			c-0.7-1.4-0.4-2.5,1.1-3.1c1.3-0.6,2.5-1.2,3.8-1.8c0.4-0.2,0.7-0.4,1.1-0.5c3.9-1.7,5.7,0.9,6.3,3.9c0.3,1.3-0.5,2.3-1.9,3
			c-1.7,0.8-3.4,1.7-5.1,2.5C320.3,193.4,320.4,193.5,320.4,193.6z M325.8,197c-0.7-1.4-1.6-1.2-4,0.3c0.2,0.3,0.3,0.7,0.5,1.1
			C323.6,197.9,324.6,197.5,325.8,197z M323.1,187.5c-0.1-0.1-0.1-0.3-0.2-0.4c-1.3,0.7-2.6,1.4-3.9,2.1c0.1,0.1,0.1,0.3,0.2,0.4
			C320.6,188.9,321.9,188.2,323.1,187.5z"/>
		<path d="M340,186.9c0.7,1,1.4,1.9,1.9,2.9c0.8,1.7,0.4,3.1-1.3,4c-1.8,0.9-3.6,1.7-5.5,2.4c-1.3,0.5-2.7-0.2-3.4-1.6
			c-0.5-1.2-1.1-2.6-1.1-3.9c-0.1-1.9-1.2-3.1-2.1-4.5c-1.2-1.7-0.9-3.9,1-4.8c1.5-0.7,3-1.5,4.6-2c3.6-1,5.5,0.2,7.3,3.5
			C342.4,184.6,341.2,185.9,340,186.9z M332.9,186c1.6-0.7,3.1-1.5,4.6-2.2c-0.9-1.5-3.3-1.2-5.3,0.7
			C332.4,185,332.6,185.5,332.9,186z M334.6,191.9c0.1,0.1,0.3,0.1,0.4,0.2c1-0.4,2.1-0.8,3.2-1.2c-0.8-1.1-1.4-1.1-3.1,0
			C334.8,191,334.7,191.6,334.6,191.9z"/>
		<path d="M281,221.4c-0.9-0.5-2-0.8-2.8-1.5c-0.9-0.7-1.6-1.7-2.3-2.6c-1.1-1.5-0.9-1.8,0-3.5c1.4-2.9,4.3-4.2,6.6-6
			c2.2-1.7,4.4-1.1,6.2,1.1c0.7,0.9,1.4,1.7,2.1,2.6c0.8,1.2,0.8,2.4-0.2,3.3c-2.3,2-4.7,3.9-7.2,5.7C282.8,221,282,221.1,281,221.4
			z M279,215.3c0.3,0.4,0.6,0.8,0.8,1.1c1,1.1,1.4,1.2,2.6,0.3c1.5-1.2,3-2.5,4.6-3.7c-0.5-0.6-0.8-1-1.2-1.5
			c-0.5-0.8-1.1-0.9-1.9-0.3C282.4,212.5,280.8,213.9,279,215.3z"/>
		<path d="M375.2,178.2c0,1.5-0.5,2.4-1.6,2.8c-0.7,0.3-1.4,0.6-2.1,0.8c-2.1,0.6-4.1,1.3-6,2.4c-2.5,1.5-3.8,1-5.2-1.4
			c-0.4-0.7-0.8-1.3-1.2-2c-0.9-1.6-0.5-3.1,0.9-4.2c0.4-0.3,0.8-0.6,1.2-0.7c3-1,6-2.1,9.1-3c2-0.6,3.4,0.4,3.9,2.4
			C374.6,176.3,374.9,177.4,375.2,178.2z M370.8,176.5c-2.8,0.9-5.4,1.9-8.2,2.8c0.4,0.7,0.7,1.1,0.9,1.4c2.6-1,5.1-1.9,7.6-2.9
			C371,177.5,370.9,177.1,370.8,176.5z"/>
		<path d="M274.2,201.2c2.6,0.2,4.4,1,6,2.3c1.3,1.1,1.3,2.7,0.1,3.9c-2.2,2.2-4.4,4.4-6.6,6.6c-1,1-2.3,1.1-3.5,0.2
			c-1.8-1.3-3.4-2.7-5-4.2c-0.8-0.8-0.8-1.9,0.1-2.6c2.2-1.8,4.4-3.6,6.7-5.3C272.7,201.5,273.7,201.4,274.2,201.2z M271.5,210.6
			c1.7-1.6,3.3-3.1,4.8-4.6c0.1-0.1,0.1-0.2,0.1-0.3c-1.5-0.9-2.3-0.9-3.6,0.1c-1.2,0.9-2.3,2-3.5,3
			C270.1,209.4,270.8,210,271.5,210.6z"/>
		<path d="M289.7,227.7c-0.6-0.3-1.3-0.5-1.9-0.9c-0.5-0.3-0.9-0.8-1.2-1.3c-1.7-2-1.5-4.4,0.7-5.9c2.2-1.5,4.5-2.8,6.8-4
			c1.9-1,3.6-0.6,5.2,1c2.9,2.9,2.8,4.5-0.6,6.7c-2.3,1.4-4.8,2.6-7.2,3.9C291,227.4,290.4,227.5,289.7,227.7z M289.3,222.7
			c0.3,0.9,0.7,1.1,1.5,0.7c1.1-0.6,2.2-1.1,3.3-1.7c1-0.6,2-1.2,3-1.8c-0.7-1.2-1.4-1.1-2.2-0.5c-1.4,0.9-2.9,1.7-4.3,2.6
			C290.2,222.2,289.7,222.5,289.3,222.7z"/>
		<path d="M374.1,182.3c3,0.1,5,2.4,4.7,5.2c-0.1,1.2-0.9,2-1.9,2.4c-2.8,1.2-5.6,2.2-8.5,3.3c-0.4,0.1-0.9,0.1-1.3,0.1
			c-1.7-0.2-4-2.2-4.4-3.8c-0.2-0.9-0.1-1.7,0.6-2.3c3-2.3,6.3-3.9,9.9-4.9C373.6,182.3,373.9,182.4,374.1,182.3z M375,186.7
			c-1.2-0.9-6.8,1.2-7.9,3C369.8,188.6,372.3,187.7,375,186.7z"/>
		<path d="M391.5,174.9c2.2,0.1,5.2,2.3,5.9,4.3c0.4,1.1-0.1,2.2-1.2,2.7c-3.3,1.3-6.7,2.7-10.1,3.8c-2.1,0.7-3.9-0.6-4.8-3.1
			c-1-2.6-0.6-3.5,2-4.5c1.9-0.8,3.8-1.6,5.7-2.4C389.9,175.4,390.7,175.2,391.5,174.9z M385,181.5c0.1,0.2,0.1,0.4,0.2,0.6
			c2.4-0.9,4.8-1.8,7.2-2.7c-0.1-0.2-0.1-0.3-0.2-0.5C389.6,178.9,387.6,181,385,181.5z"/>
		<path d="M305.5,218.3c-2.3-0.1-3.3-1.7-3.9-3.5c-0.8-2.4-0.5-3.6,1.4-4.4c0.7-0.3,1.2-1,1.8-1.4c1.7-0.9,3.3-1.9,5.1-2.6
			c2.3-0.8,5.6,0.9,6.6,3.2c0.5,1.1,0.2,2.3-0.8,3.1c-1.1,0.9-2.2,1.7-3.4,2.4c-1.6,0.9-3.2,1.8-4.9,2.6
			C306.8,218,306.1,218.1,305.5,218.3z M312.3,210.8c0-0.2,0-0.4-0.1-0.6c-0.6,0-1.3-0.3-1.7-0.1c-1.7,0.9-3.3,2-4.9,3
			c-0.2,0.1-0.2,0.5-0.3,0.8c0.3,0,0.7,0.1,0.9,0c1.2-0.5,2.3-1.1,3.4-1.7C310.5,211.8,311.4,211.3,312.3,210.8z"/>
		<path d="M303.5,199.3c-1.5,0-2.4-0.4-3.2-1.4c-0.2-0.2-0.3-0.5-0.5-0.7c-2-2-1.6-4.3,1-5.4c2.4-1,4.8-1.9,7.3-2.6
			c2.7-0.8,5.4,1,5.9,3.8c0.2,1.1-0.1,2.1-1.1,2.7c-0.5,0.4-1.1,0.7-1.7,0.9c-2.3,0.9-4.6,1.7-6.9,2.5
			C304,199.3,303.6,199.3,303.5,199.3z M309.8,193.2c-0.1-0.2-0.1-0.4-0.2-0.6c-2.2,0.8-4.4,1.5-6.6,2.3c0.1,0.2,0.1,0.4,0.2,0.6
			C305.4,194.7,307.6,194,309.8,193.2z"/>
		<path d="M294.3,211.8c-0.7-0.3-1.5-0.5-1.9-1c-1-1.1-1.9-2.3-2.7-3.5c-0.5-0.8-0.3-1.8,0.4-2.4c1.8-1.5,3.6-3,5.6-4.3
			c2.3-1.5,6.5-0.2,7.6,2.4c0.3,0.7,0.1,1.7-0.2,2.5c-0.1,0.5-0.7,0.9-1.2,1.2c-2.2,1.2-4.3,2.5-5.9,4.4
			C295.7,211.4,295,211.5,294.3,211.8z M298.7,204c0-0.1,0-0.2,0-0.3c-0.5,0.1-1,0-1.4,0.3c-1.1,0.7-2.1,1.5-3.1,2.4
			c-0.2,0.2-0.1,0.6-0.1,1C295.8,206.1,297.2,205.1,298.7,204z"/>
		<path d="M383.9,167.6c1.4,0,2.5,0.5,3.3,1.7c0.4,0.5,0.8,1,1.2,1.5c1.1,1.3,0.9,2.9-0.5,3.9c-0.7,0.5-1.4,0.8-2.2,1.2
			c-1.1,0.6-2.2,1.1-3.3,1.6c-2.5,1.3-4.7,0.3-5.2-2.5c-0.1-0.3-0.2-0.7-0.4-1c-0.6-0.9-0.7-1.9,0.1-2.5c1.9-1.4,3.9-2.5,5.9-3.8
			C383.1,167.5,383.5,167.6,383.9,167.6z M380.5,173.4c0,0.1,0.1,0.3,0.1,0.4c1.3-0.6,2.6-1.1,3.9-1.7
			C383.7,171,382.8,171.3,380.5,173.4z"/>
		<path d="M294,198.8c-0.4,0.6-0.6,1.4-1.1,1.9c-1.3,1.2-2.7,2.2-4.1,3.2c-1.4,1-2.8,0.9-4-0.1c-1.5-1.2-2-2.7-1.5-4.3
			c0.3-0.8,0.5-1.9,1.1-2.3c1.7-1,3.5-2.1,5.3-2.5C291.7,194.3,293.8,196.5,294,198.8z"/>
		<path d="M309.9,205.9c-2.6,0-4.8-2.3-4.5-4.5c0.1-0.5,0.3-1,0.7-1.3c1.2-0.9,2.5-1.8,3.9-2.4c1.5-0.7,2.9-0.2,3.7,0.9
			c1.2,1.6,1.5,3.8,0.5,4.9C313,204.8,311.4,205.7,309.9,205.9z"/>
		<path d="M214.2,90.2c-0.1-2.3,1.2-3.8,3-4.6c8.9-4,17.9-7.7,27.4-9.6c5.3-1.1,10.8-1.5,16.1-2.4c4.4-0.7,8.7-1.7,13.1-2.5
			c4.6-0.9,9.3-1.7,13.9-2.6c2.1-0.4,4.2-0.9,6.3-1.3c6.6-1.5,13.2-2.8,19.8-4.4c8.7-2.1,17.5-4.3,26.3-5.7c5-0.8,10-1.5,14.9-2.3
			c3.9-0.6,7.9-1.1,11.8-1.7c0.8-0.1,1.6-0.3,2.5-0.6c2.1-0.5,4,0.1,5,2c0.7,1.4,1.3,3,1.6,4.6c1.3,6.7,2.4,13.4,3.6,20.1
			c1.6,9.8,3.3,19.5,4.7,29.3c0.8,5.9,1.2,11.9,1.6,17.8c0.5,5.9,0.9,11.7,1.3,17.6c0.1,1.6,0.2,3.3,0.4,4.9
			c0.1,1.6-1.1,3.3-2.7,4.1c-2.5,1.3-5.3,1.2-7.9,1.6c-3.8,0.6-7.6,1.4-11.2,2.9c-4,1.6-8.2,2.8-12.3,4.1c-1.3,0.4-2.7,0.8-4,1.2
			c-4,1.1-8,2.1-12,3.2c-2.1,0.6-4.2,1.3-6.2,2.1c-5.2,2.1-10.6,3.6-16,4.8c-0.5,0.1-1,0.3-1.5,0.4c-5.4,1.6-10.9,3.3-16.3,4.7
			c-3,0.8-6.2,1.1-9.3,1.9c-4.1,1-8.2,1.4-12.2,2.8c-3.1,1.1-6.4,1.3-9.6,2.1c-6.6,1.5-13.2,3-19.7,4.5c-3,0.7-6,1.4-9,2.1
			c-1.8,0.4-3.5,0.9-5.3,1.2c-2.4,0.5-3.9-0.4-4.3-2.9c-1.4-8.3-3.1-16.6-3.8-25c-0.5-5.8-1.5-11.5-2.1-17.2
			c-0.9-7.8-1.7-15.6-2.5-23.4c-0.6-5.9-1.7-11.7-2.8-17.5C215.6,101.1,215,95.6,214.2,90.2z M231.5,189c1.6-0.4,3-0.8,4.4-1.2
			c3.2-0.8,6.4-1.5,9.7-2.3c6.9-1.6,13.8-3.2,20.7-4.7c2.8-0.6,5.7-0.8,8.3-1.8c4-1.6,8.2-2,12.3-2.9c7.2-1.5,14.3-3.1,21.3-5.1
			c2.1-0.6,4.3-1.4,6.4-2c5.1-1.6,10.2-3.1,15.2-4.7c2.3-0.7,4.5-1.6,6.8-2.2c1.5-0.4,3-0.6,4.4-1c2.9-0.8,5.8-1.7,8.7-2.6
			c5-1.6,10.1-3.1,15-5c4.2-1.6,8.4-2.5,12.8-3.1c1.8-0.2,3.6-0.7,5.3-1.1c0.7-0.2,0.8-0.7,0.8-1.4c-0.5-7.1-0.9-14.1-1.5-21.2
			c-0.5-6.3-0.9-12.5-1.8-18.7c-1.3-9.4-3-18.8-4.6-28.2c-1.1-6.7-2.3-13.4-3.5-20.1c-0.2-1.1-0.5-2.1-0.9-3.1
			c-0.1-0.4-0.8-0.8-1.1-0.8c-2.4,0.2-4.7,0.5-7.1,0.9c-2.7,0.4-5.4,1.1-8.1,1.5c-5.1,0.8-10.1,1.4-15.2,2.3
			c-7.3,1.4-14.6,2.9-21.8,4.8c-7.6,2-15.4,3.5-23.2,5.1c-7.5,1.5-15,3-22.6,4.3c-7.9,1.5-15.9,2.8-23.8,4.2
			c-1.4,0.2-2.8,0.2-4.2,0.6c-8.7,2.1-17,5.4-25.2,8.9c-1,0.4-1.2,1.2-1.1,2.1c0.6,4.9,1.2,9.8,1.9,14.6c0.9,5.7,2.1,11.3,2.8,17
			c1.2,9.8,2.1,19.7,3.2,29.6c0.9,7.7,1.8,15.3,2.9,23C229.7,179.5,230.6,184.1,231.5,189z"/>
		<path d="M367,142.4c-3.1,0-6.1,0.4-9,1.5c-3.5,1.3-7.1,2.5-10.6,3.7c-3.5,1.2-7.1,2.6-10.6,3.8c-6.7,2.3-13.4,4.2-20.3,5.6
			c-6.9,1.5-13.6,3.7-20.5,5.5c-11,2.8-22.1,5.6-33.1,8.4c-4.4,1.1-8.7,2.3-13.1,3.5c-2.7,0.7-3.8,0.2-4.6-2.5
			c-2.6-9.1-5.8-18.1-7.2-27.6c-1.2-7.4-2.2-14.8-3.2-22.2c-1.1-7.2-2.1-14.4-3.2-21.6c-0.2-1.4,0.2-2.5,1.3-3.2
			c4.8-2.9,9.7-5.8,15-7.6c4-1.3,8-2.5,11.9-4c5-1.9,10.2-2.8,15.3-4c5.1-1.3,10.2-2.8,15.3-4c6.7-1.6,13.5-3.2,20.2-4.5
			c4.2-0.8,8.5-1.2,12.7-1.9c3.5-0.5,6.9-1.5,10.4-1.7c5.3-0.2,10.4-2,15.5-2.8c3.1-0.5,6.1-1,9.2-1.4c1.3-0.2,2.4,0.4,2.9,1.6
			c1.2,2.7,2.6,5.3,3.4,8.2c2.1,7.4,2.8,15.1,3.5,22.7c0.6,6.5,1.2,13.1,1.9,19.6c0.6,6.2,1.2,12.3,1.8,18.5
			c0.1,0.8,0.2,1.6,0.3,2.4c0.3,2.5-0.7,3.8-3.1,4.2C368.4,142.5,367.7,142.4,367,142.4z M292,92c1.1,4.8,2.1,9.3,3.1,13.7
			c0.2,0,0.4,0,0.6,0c5-1.2,10.3-1.3,15-4c0.6-0.4,1.4-0.6,2.1-0.7c0.9-0.2,1-0.6,0.8-1.4c-0.8-3.2-1.6-6.3-2.4-9.5
			c-0.2-0.8-0.4-1.7-0.7-2.7C304.2,88.9,298.1,90.5,292,92z M307.1,155.4c1-0.3,1.9-0.5,2.7-0.7c5.3-1.2,10.6-2.5,15.9-3.7
			c0.9-0.2,1.1-0.6,0.9-1.4c-0.4-2.1-0.8-4.2-1.2-6.2c-0.3-1.4-0.7-2.8-1.1-4.4c-6.4,3.2-13.4,3.4-20,5.7
			C305.2,148.2,306.1,151.8,307.1,155.4z M260,153.2c-5.2,0.9-10.3,1.8-15.5,2.7c1.4,5.1,2.8,9.9,4.1,14.6
			c5.3-1.3,10.3-2.6,15.5-3.8C262.7,162.1,261.4,157.7,260,153.2z M320.4,126.6c-1.1-4.1-2.3-8.1-3.3-12.1c-0.3-1.2-0.7-1.5-2-1.2
			c-4.4,1-8.9,1.8-13.4,2.7c-1.4,0.3-2.8,0.5-4.4,0.9c1.2,4.8,2.2,9.3,3.4,13.8c0.1,0.2,0.6,0.5,0.8,0.5c1.2-0.1,2.5-0.1,3.7-0.4
			c4.4-1.1,8.8-2.3,13.2-3.4C319.1,127.2,319.7,126.9,320.4,126.6z M275.7,110.2c5.3-1.1,10.4-2.1,15.8-3.2
			c-1.1-4.8-2.1-9.4-3.1-13.9c-3.1,0.7-5.9,1.3-8.8,2.1c-1.7,0.4-3.5,1-5.2,1.5c-0.3,0.1-0.7,0.7-0.7,1
			C274.4,101.8,275,105.9,275.7,110.2z M334.7,108.1c-0.2,0-0.4,0-0.5,0c-4.4,1.2-8.7,2.5-13.1,3.7c-0.7,0.2-0.8,0.6-0.6,1.2
			c1,3.5,2,7.1,2.9,10.6c0.1,0.5,0.3,1,0.4,1.6c0.5-0.2,1-0.3,1.3-0.4c3.5-1.6,6.9-3.2,10.4-4.7c0.8-0.4,0.9-0.8,0.8-1.6
			c-0.5-2.6-0.8-5.1-1.3-7.7C335,110,334.8,109.1,334.7,108.1z M267.8,165.8c3.7-0.9,7.3-1.8,10.9-2.7c1.2-0.3,1.6-0.9,1.2-2
			c-0.8-2.7-1.6-5.3-2.4-8c-0.7-2.5-0.7-2.5-3.3-2.4c-0.4,0-0.7-0.1-1.1,0c-3.1,0.5-6.3,1-9.5,1.6
			C265,156.9,266.4,161.2,267.8,165.8z M250.3,104.2c-0.8,0.1-1.6,0.3-2.3,0.4c-3.6,0.7-7.1,1.5-10.7,2.2c-0.9,0.2-1.1,0.7-0.9,1.5
			c0.5,2.6,0.8,5.2,1.3,7.8c0.1,0.9,0.2,1.9,0.4,2.7c4.9-1.1,9.8-2.3,14.8-3.4C252,111.7,251.1,108,250.3,104.2z M355.4,127.8
			c-0.3,0.1-0.4,0.1-0.6,0.2c-3.4,1.6-6.8,3.3-10.2,5c-0.8,0.4-2,0.6-2.3,1.2c-0.3,0.8,0.2,1.8,0.4,2.8c0.6,2.5,1.1,5,1.7,7.4
			c0.2,0,0.3,0,0.5,0c4.3-1,8.5-2.5,12.5-4.4c0.3-0.1,0.6-0.7,0.6-1c-0.1-1-0.4-2-0.6-2.9C356.7,133.4,356.1,130.6,355.4,127.8z
			 M241.6,143.7c1.9-0.4,3.6-0.7,5.4-1.1c3-0.7,6-1.4,9-2c0.8-0.2,1.1-0.5,0.9-1.4c-0.6-2.5-1.1-5.1-1.6-7.6
			c-0.1-0.4-0.2-0.9-0.3-1.2c-5.1,0.8-10,1.5-15.1,2.3C240.5,136.3,241.1,140,241.6,143.7z M278.5,135.5c2.6-0.7,5-1.4,7.7-2.1
			c-1.8-1.3-1.3-2.6-0.5-3.9c-0.6-0.4-1.1-0.8-1.7-1.2c-1.3-0.9-1.6-2-1-2.9c0.7-1,1.8-1,3.2-0.1c0.4,0.3,0.8,0.5,1.3,0.9
			c0.2-0.7,0.4-1.2,0.6-1.7c0.4-1.2,1.3-1.8,2.3-1.5c1,0.3,1.5,1.3,1.2,2.5c-0.3,1-0.6,2-1,3c1.2,0.9,2.9,1.6,2,3.8
			c1.6-0.2,2.9-0.4,4.3-0.6c-1.1-4.6-2.1-9-3.1-13.5c-1,0.4-1.9,0.7-2.7,1c-1.5,0.5-3,1-4.5,1.5c-3,1-5.9,2.1-8.9,3.2
			c-0.3,0.1-0.6,0.7-0.6,0.9C277.5,128.2,278,131.7,278.5,135.5z M303.4,156.5c-1-3.8-1.9-7.4-2.9-11.1c-6.7,1.6-13.3,3.1-20,4.7
			c1.1,3.8,2.2,7.6,3.4,11.7C290.4,160.1,296.8,158.3,303.4,156.5z M333.4,82.1c0.9,4.3,1.7,8.3,2.5,12.4c4.2-1,8.2-2,12.3-3
			c-0.7-4-1.3-7.9-2-11.9C341.9,80.4,337.7,81.2,333.4,82.1z M260.6,139.1c0.3,0,0.5,0,0.6,0c4.3-1,8.6-2,12.8-2.9
			c0.7-0.2,0.7-0.6,0.6-1.2c-0.3-1.8-0.5-3.6-0.8-5.3c-0.2-1.4-0.4-2.7-0.6-3.9c-5,1.3-9.8,2.5-14.7,3.7
			C259.3,132.7,260,135.9,260.6,139.1z M332.3,95.9c-0.9-4.5-1.7-8.6-2.6-13c-5.2,1.8-10.6,1.9-15.6,3.8c1.1,4.4,2.2,8.7,3.4,13.3
			C322.4,98.6,327.3,97.3,332.3,95.9z M280,146.4c6.7-1.6,13.2-3.2,19.9-4.7c-0.6-2.1-1.1-4-1.7-5.9c-0.1-0.2-0.6-0.4-0.9-0.4
			c-1.5,0.2-2.9,0.3-4.4,0.6c-4.6,1-9.2,2-13.9,3C279.3,141.5,279.6,143.8,280,146.4z M350,102.9c-0.9,0.3-1.6,0.6-2.4,0.9
			c-2.4,0.8-4.7,1.7-7.1,2.5c-2.1,0.7-2.1,0.6-1.8,2.8c0.4,3,0.9,6.1,1.4,9.1c4.2-1.2,8.2-2.3,12.1-3.4
			C351.4,110.7,350.7,106.9,350,102.9z M363.5,87.6c-0.7-3.7-1.4-7.4-2-11c-4,0.7-7.8,1.3-11.6,2c0.6,3.9,1.3,7.7,1.9,11.6
			C355.8,89.8,359.7,89.5,363.5,87.6z M265.9,112.1c1.6-0.2,3.2-0.5,4.8-0.7c1.1-0.1,1.4-0.7,1.2-1.8c-0.6-3.6-1.2-7.3-1.8-10.9
			c0-0.2-0.2-0.3-0.3-0.7c-5.1,1.7-10.2,3.3-15.3,5c-0.2,0.1-0.4,0.6-0.4,0.8c0.7,3.4,1.5,6.8,2.2,10.2c2-0.5,4-1,5.6-1.4
			c-0.6-0.6-1.5-1.2-1.7-2c-0.3-0.9,0.1-1.9,0.2-2.4c-0.8-0.9-1.7-1.5-1.8-2.2c-0.4-1.6,0.5-2.9,1.7-3.9c0.9-0.8,2.1-0.9,3.1-0.3
			c1.3,0.7,1.7,2,1.6,3.4c-0.1,1.1-0.4,2.2-0.5,3.3C266.3,109.8,266.4,110.1,265.9,112.1z M338.4,134.6c-3.3,0.9-6.6,1.9-9.8,2.8
			c-0.7,0.2-0.7,0.5-0.5,1.2c0.6,2.4,1.1,4.8,1.7,7.2c0.3,1.2,0.5,2.4,0.7,3.8c3.3-1.1,6.5-2.2,9.6-3.3c0.3-0.1,0.6-0.7,0.6-1
			c-0.2-1.5-0.4-3-0.8-4.5C339.4,138.8,338.9,136.8,338.4,134.6z M353.6,102c0.7,3.9,1.4,7.7,2.1,11.5c2.7-0.6,5.1-1.1,7.4-1.7
			c2.2-0.6,2.4-1,2.3-3.2c0-0.1,0-0.2,0-0.2c-0.2-2.8-0.5-5.5-0.7-8.5c-3.4,0.6-6.7,1.2-9.9,1.8C354.5,101.8,354.2,101.9,353.6,102z
			 M258,125.4c2.7,0.1,12.7-2.4,14.6-3.6c0.2-0.1,0.4-0.5,0.4-0.8c-0.1-2-0.3-4-0.4-6c-1.6,0.2-3,0.3-4.5,0.6
			c-3.4,0.7-6.8,1.4-10.2,2.2c-0.6,0.1-1,0.4-0.9,1.2C257.4,121.1,257.7,123.2,258,125.4z M303.5,140.9c6.5-2.1,13.4-2.4,19.5-5.5
			c-0.5-1.7-1.1-3.4-1.6-5c-6.5,1.8-12.7,4.2-19.5,4.5C302.5,137,303,138.9,303.5,140.9z M238.6,122.5c0.2,1.8,0.5,3.3,0.6,4.8
			c0,1.1,0.5,1.4,1.5,1.2c2.6-0.3,5.2-0.5,7.9-0.9c1.9-0.3,3.8-0.8,5.8-1.2c-0.3-2.5-0.7-4.8-1.1-7.4
			C248.3,120.2,243.5,121.4,238.6,122.5z M368.5,138.7c-0.5-5-1-9.8-1.5-14.8c-2.7,1-5.3,1.8-8,2.8c1,4,2,8.1,2.9,12
			C364.2,138.7,366.3,138.7,368.5,138.7z M353.3,118.3c-3.4,0.9-6.6,1.8-9.8,2.7c-2.8,0.8-2.9,0.9-2.7,3.8c0.1,1.8,0.4,3.5,0.6,5.3
			c0.5-0.1,0.7-0.2,0.9-0.3c3.9-1.9,7.8-3.7,11.8-5.6c0.2-0.1,0.4-0.5,0.4-0.7C354.1,121.8,353.7,120.1,353.3,118.3z M291.2,88.3
			c6.3-1.6,12.4-3.1,18.7-4.6c-0.4-2.1-0.8-4.2-1.1-6.3c-6.3,1.4-12.4,2.7-18.5,4.1C290.6,83.9,290.9,86.1,291.2,88.3z M276.2,146.5
			c-0.3-2.2-0.6-4.4-0.9-6.6c-4.7,1.1-9.3,2.1-14,3.2c0.4,1.9,0.8,3.8,1.2,5.5C267.2,147.9,271.6,147.2,276.2,146.5z M292.2,110.7
			c-5.4,1.1-10.6,2.2-16,3.2c0.2,2.1,0.3,4.1,0.5,6c5.5-1.8,10.9-3.6,16.4-5.4C292.8,113.1,292.5,111.9,292.2,110.7z M257.7,144
			c-0.5,0.1-0.9,0.3-1.4,0.4c-2.9,0.6-5.7,1.3-8.6,1.9c-1.5,0.3-3,0.7-4.5,1.1c-0.3,0.1-0.7,0.5-0.7,0.8c0.3,1.5,0.6,2.9,0.9,4.3
			c2.7-0.6,5.2-1.2,7.8-1.6c2.5-0.4,5.1-0.7,7.7-1.1C258.5,147.6,258.1,145.9,257.7,144z M267.3,86.9c-5.1,1.9-10.1,3.6-15,5.4
			c0.3,2.5,0.7,4.8,1,7.2c5.5-1.8,10.9-3.5,16.3-5.3C268.8,91.9,268.1,89.6,267.3,86.9z M315.7,109.5c-0.4-1.8-0.8-3.4-1.2-5.1
			c-3.2,1.2-6.1,2.5-9.2,3.4c-3.1,0.8-6.3,1.2-9.6,1.7c0.3,1.4,0.6,2.5,0.9,3.6C303.1,111.9,309.3,110.7,315.7,109.5z M333.2,99.6
			c-5.1,1.4-10,2.7-14.9,4.1c0.3,1.5,0.7,3.1,1.1,4.8c1.2-0.3,2.3-0.6,3.4-0.9c3.5-1,7-2,10.5-3.1c0.3-0.1,0.8-0.6,0.7-0.8
			C333.8,102.3,333.5,100.9,333.2,99.6z M336.9,123.7c-4,1.8-7.9,3.6-11.9,5.4c0.5,1.6,1,3.3,1.6,4.9c1.1-0.4,2-0.7,2.9-1
			c2.4-0.6,4.9-1.2,7.3-1.8c0.3-0.1,0.9-0.5,0.8-0.7C337.5,128.3,337.2,126.1,336.9,123.7z M286.6,82.7c-5.3,1.2-10.4,2.4-15.6,3.6
			c0.7,2.3,1.4,4.4,2.1,6.6c4.8-1.2,9.6-2.4,14.4-3.6C287.2,87.1,286.9,84.9,286.6,82.7z M313.5,82.8c5.3-1.2,10.5-2.3,15.7-3.4
			c-0.2-1.9-0.4-3.6-0.6-5.2c-5.5,0.8-10.8,1.5-16.3,2.3C312.8,78.7,313.1,80.7,313.5,82.8z M348.8,95.1c-4,1-8,2-12,3
			c0.4,1.8,0.7,3.4,1.1,5.2c3-1.1,5.9-2,8.7-3.2c1-0.4,2.6-0.1,2.9-1.4C349.6,97.7,349,96.5,348.8,95.1z M332.9,78.4
			c4.3-0.8,8.4-1.7,12.6-2.5c-0.3-1.2-0.5-2.3-0.7-3.3c-0.2-0.7-0.6-0.9-1.4-0.8c-3.1,0.5-6.2,0.9-9.3,1.3c-0.5,0.1-1.1,0.2-1.7,0.3
			C332.5,75.1,332.7,76.7,332.9,78.4z M235.7,103.1c4.7-0.9,9.3-1.8,13.9-2.7c-0.3-2.4-0.6-4.6-0.9-7c-0.3,0-0.5,0-0.6,0.1
			c-4.1,2.1-8.2,4.2-12.3,6.4c-0.2,0.1-0.4,0.5-0.4,0.7C235.4,101.5,235.5,102.4,235.7,103.1z M358.2,123c1.5-0.5,2.9-0.8,4.2-1.4
			c1.3-0.6,2.5-1.4,4.2-0.8c-0.2-2.1-0.3-3.9-0.5-5.8c-3.2,0.8-6.2,1.5-9.3,2.2C357.3,119.2,357.7,120.9,358.2,123z M353.2,98.2
			c1.8-0.3,3.4-0.7,5-1c1.7-0.3,3.4-0.5,5.1-0.9c0.4-0.1,1-0.5,1-0.8c0-1.3-0.2-2.6-0.3-3.7c-3.9,0.8-7.6,1.5-11.4,2.2
			C352.7,95.5,353,96.8,353.2,98.2z M360.1,72.5c-0.5-1-0.9-2-1.4-2.8c-0.2-0.3-0.7-0.5-1.1-0.5c-1.1,0.1-2.2,0.2-3.3,0.4
			c-2,0.4-4,0.8-6.1,1.2c0.4,1.5,0.7,2.7,1,4.1C352.8,74,356.6,74.5,360.1,72.5z"/>
		<path d="M309.4,121.1c1.9,0.1,3.1,0.8,3.6,2.5c0.5,1.6-0.1,3.3-1.6,4.4c-0.5,0.4-1.1,0.8-1.7,1.1c-0.9,0.4-1.8,0.4-2.5-0.5
			c-0.6-0.9-0.4-1.7,0.4-2.5c0.2-0.2,0.3-0.3,0.6-0.5c-2.2-0.1-3.1-0.8-3.6-2.7c-0.4-1.8,0.4-3.9,1.9-4.8c1.1-0.7,2.4-0.7,3.1,0.1
			C310.6,119.1,310.2,120,309.4,121.1z"/>
		<path d="M297.9,153.1c0,2.4-1.5,4.1-3.6,4c-2,0-3.5-1.5-3.4-3.5c0-2.5,1.4-4.5,3.1-4.4C295.8,149.3,297.9,151.3,297.9,153.1z"/>
		<path d="M287.5,157.5c-0.6,0.2-1.1,0.5-1.6,0.6c-1.3,0.1-2.2-1.3-1.6-2.6c0.5-1.1,1.1-2.2,1.9-3.2c1.1-1.5,3.1-1.2,3.8,0.6
			c0.4,1.1,0.8,2.2,0.8,3.3c0,0.6-0.4,1.5-0.8,1.8c-0.5,0.3-1.3,0-2-0.1C287.7,157.8,287.6,157.5,287.5,157.5z"/>
		<path d="M324.7,94.7c-0.2,0.7-0.4,1.3-0.5,1.9c-0.4,1.2-1.3,1.8-2.4,1.5c-1-0.3-1.6-1.3-1.3-2.5c0.1-0.3,0.1-0.6,0.2-0.8
			c0.5-1.2,0.6-2.1-0.8-2.8c-0.9-0.5-1.1-1.5-0.5-2.4c0.5-0.9,1.4-1.1,2.3-0.7c0.2,0.1,0.4,0.2,0.8,0.3c0.2-0.6,0.4-1.1,0.6-1.7
			c0.5-1.2,1.5-1.7,2.5-1.3c1,0.3,1.4,1.3,1.1,2.6c-0.2,0.7-0.5,1.4-0.7,2.3c0.5,0.2,1,0.5,1.5,0.7c1.3,0.6,1.8,1.7,1.3,2.8
			c-0.5,1-1.7,1.3-2.9,0.7C325.4,95.1,325.2,94.9,324.7,94.7z"/>
		<path d="M296.4,86c-0.6-0.2-1.4-0.2-1.7-0.6c-0.4-0.4-0.8-1.3-0.7-1.8c0.1-0.5,0.8-1.2,1.3-1.3c2.3-0.5,4.6-0.8,6.9-1.2
			c0.4-0.1,0.7-0.1,1.1,0c0.9,0.1,1.6,0.5,1.7,1.5c0.1,1-0.3,1.8-1.2,2C301.4,85.1,298.9,85.5,296.4,86z"/>
		<path d="M257.3,96.9c-1.8,0-2.6-0.5-2.8-1.5c-0.1-1,0.5-2,1.8-2.1c1.7-0.2,3.2-0.8,4.7-1.6c1-0.6,2.3-0.8,3.4-0.8
			c0.6,0,1.5,0.6,1.7,1.2c0.2,0.5-0.3,1.3-0.5,2c0,0.1-0.1,0.1-0.2,0.1C262.4,94.7,260,97.1,257.3,96.9z"/>
		<path d="M277.1,90.8c-1.8,0-2.8-0.7-2.8-1.8c-0.1-1.1,0.8-1.7,2.2-2c1.9-0.4,3.9-1,5.8-1.5c0.9-0.2,1.7-0.1,2.3,0.6
			c0.7,0.9,0.4,2.3-0.7,2.7C281.6,89.6,279.2,90.2,277.1,90.8z"/>
		<path d="M317.9,80.6c-0.7-0.2-1.5-0.3-1.9-0.7c-0.4-0.4-0.7-1.3-0.6-1.9c0.2-0.5,0.9-1.1,1.5-1.3c1.9-0.4,3.9-0.7,5.9-1
			c1.2-0.2,2,0.2,2.4,1.1c0.4,1-0.1,2-1.2,2.4C322,79.7,320,80.1,317.9,80.6z"/>
		<path d="M243.6,96.8c1.3,0,2.1,0.4,2.4,1.4c0.2,1.1-0.3,1.8-1.2,2.2c-0.8,0.3-1.6,0.6-2.4,0.8c-1.1,0.3-2.1-0.2-2.4-1.2
			c-0.3-0.9,0.1-1.8,1.2-2.3C242,97.3,243,97,243.6,96.8z"/>
	</g>
</g>
</svg>
