<?xml version="1.0" encoding="utf-8"?>
<!-- Generator: Adobe Illustrator 24.0.1, SVG Export Plug-In . SVG Version: 6.00 Build 0)  -->
<svg version="1.1" xmlns="http://www.w3.org/2000/svg" xmlns:xlink="http://www.w3.org/1999/xlink" x="0px" y="0px"
	 viewBox="0 0 1000 265.3" style="enable-background:new 0 0 1000 265.3;" xml:space="preserve">
<style type="text/css">
	.st0{fill:#FFE87B;}
	.st1{fill:#1E1E1C;}
	.st2{fill:#1E1E1C;stroke:#1E1E1C;stroke-width:0.25;stroke-miterlimit:10;}
	.st3{fill:#1E1E1C;stroke:#1E1E1C;stroke-width:0.15;stroke-miterlimit:10;}
	.st4{fill:#FFFFFF;}
	.st5{stroke:#1E1E1C;stroke-miterlimit:10;}
	.st6{fill:none;stroke:#1E1E1C;stroke-width:3;stroke-linecap:round;stroke-linejoin:round;stroke-miterlimit:10;}
	.st7{stroke:#000000;stroke-width:1.5;stroke-miterlimit:10;}
</style>
<g id="Calque_2">
</g>
<g id="Calque_1">
	<g>
		<path class="st7" d="M306.4,62.4c0.3-0.1,0.7-0.1,1.3-0.1c2.1,0,4.4,0.7,6.8,2.1c0.7,0.5,1.6,1.2,2.6,2.1c1,1,1.7,1.8,2.2,2.4
			c2,3,3.2,6.9,3.9,11.5c0.2,1.4,0.3,3.7,0.3,6.9c0,2.9-0.1,4.8-0.3,5.7c-0.9,4.9-3.1,8.3-6.4,10.2c-2.2,1.3-4.5,1.9-7,1.9h-0.5
			c-1.2,0-1.9-0.4-2.1-1.1c-0.5-1.8-0.8-8.3-1-19.5c0-1.2-0.2-4.3-0.4-9.4c-0.2-5-0.3-8.4-0.3-10.2c0-0.9,0.1-1.6,0.2-1.9
			C305.7,62.7,306,62.5,306.4,62.4z M310.3,64.9c-0.8-0.3-1.5-0.4-2.1-0.4c-0.4,0-0.7,0.1-0.8,0.2c-0.1,0.1-0.1,0.7,0.1,1.8
			c0.2,1.2,0.3,3.2,0.4,6.1c0.1,2.9,0.2,6.3,0.3,10.2c0.1,3.9,0.1,6.1,0.1,6.5c0.3,8,0.6,12.4,0.8,13.1c0.1,0.3,0.5,0.5,1,0.5
			c0.4,0,0.9-0.1,1.5-0.2c4.8-0.9,7.8-4,9.1-9.2c0.3-1,0.4-3.2,0.4-6.5c0-1.2,0-2.5-0.1-4.1c-0.5-6.2-2.1-10.8-4.6-13.9
			C314.9,66.9,312.8,65.6,310.3,64.9z"/>
		<path class="st7" d="M338.8,62.8c0.4,0,1-0.1,1.8-0.1c1.4,0,2.5,0.2,3.2,0.5c2.8,1.2,4.9,3.8,6.2,7.8c0.6,1.9,1,3.7,1.2,5.5
			c0.2,1.8,0.3,4.7,0.3,8.6c0,4-0.3,7.5-0.8,10.4c-0.7,3.2-2,5.7-3.9,7.4c-1.4,1.4-3.3,2.1-5.6,2.1c-1.5,0-3-0.4-4.3-1.2
			c-1.3-0.8-2.3-1.8-3-2.9c-0.7-1.1-1.4-2.8-2-5c-0.8-3-1.2-6.1-1.2-9.2c0-2.6-0.1-3.9-0.2-4c0,0-0.1-0.5-0.1-1.5
			c0-3.3,0.1-5.9,0.4-8c0.3-3.5,1.5-6.3,3.5-8.2C335.6,63.7,337.1,63,338.8,62.8z M345,66.7c-1.4-1.3-2.9-1.9-4.6-1.9
			c-0.3,0-0.8,0-1.3,0.1c-3.2,0.7-5.1,3.2-5.9,7.3c-0.3,1.4-0.4,4.2-0.4,8.3c0,3.6,0.1,6.5,0.4,8.8c0.5,3.8,1.1,6.8,2,8.8
			c0.8,2.1,2,3.4,3.4,4.1c0.6,0.3,1.5,0.4,2.6,0.4c1.8,0,3.3-0.5,4.3-1.5c1.6-1.4,2.7-3.6,3.3-6.6c0.5-2.8,0.8-6,0.8-9.5l-0.1-0.6
			c-0.1-0.1-0.1-1.2-0.1-3.3c0-3.1-0.4-6-1.1-8.6C347.4,69.8,346.4,67.9,345,66.7z"/>
		<path class="st7" d="M373.8,66.2c0-0.4,0-0.8,0.2-1.2c0.2-0.4,0.4-0.6,0.6-0.6c0.6,0,0.9,0.4,1.1,1.3c0.4,1.9,1,11.1,1.8,27.6
			c0.2,3.4,0.3,6,0.3,8c0,2.1-0.3,3.3-0.8,3.6c-0.2,0.2-0.5,0.2-0.8,0.1c-0.4-0.2-0.9-0.9-1.5-2.2c-0.6-1.3-2.3-5-4.9-11.2
			c-2.5-5.8-4.6-11-6.4-15.6c-1.3-3.5-2-5.3-2.2-5.5c-0.1-0.3-0.2-0.2-0.3,0.3c0,0.2,0,0.6,0,1.1c0,0.7,0.1,3.5,0.3,8.4
			c0.6,11.9,0.8,19.5,0.8,22.6c0,1,0,1.5-0.1,1.6c-0.2,0.3-0.4,0.5-0.6,0.5c-0.5,0-0.9-0.4-1.1-1.3c-0.1-0.4-0.4-6.2-0.9-17.2
			c-0.5-11.1-0.8-17.6-0.8-19.7v-0.3c0.1-1.1,0.4-1.6,0.8-1.6c0.3,0,0.8,0.3,1.3,0.8c0.9,0.9,3.1,5.6,6.4,14
			c4.3,10.8,7.1,17.4,8.3,19.8l0.1-1c0-1.1-0.1-3-0.2-5.5c-0.1-2.5-0.3-5.3-0.5-8.4c-0.2-3.1-0.3-5-0.4-5.8
			C374.3,73.3,374.1,69.1,373.8,66.2z"/>
		<path class="st7" d="M385.3,61.5c0.4-0.4,0.7-0.6,1-0.6c0.4,0,0.8,0.4,1.3,1.3c0.2,0.3,0.3,0.8,0.3,1.6v1.5c0,3.5-0.5,5.6-1.5,6.4
			c-0.6,0.5-1.1,0.4-1.5-0.1c-0.2-0.2-0.3-0.5-0.3-0.8c0-0.5,0.1-1,0.3-1.6c0.4-1.6,0.6-2.9,0.6-3.8c0-0.5,0-0.9-0.1-1.1
			c-0.2-1.1-0.3-1.8-0.3-2.2C385.2,61.7,385.2,61.6,385.3,61.5z"/>
		<path class="st7" d="M406.7,64.6c1.3,0,2.7-0.1,4.1-0.1c1,0,1.6,0.1,1.8,0.3c0.3,0.3,0.4,0.6,0.3,0.9c-0.1,0.3-0.4,0.6-0.8,0.8
			c-0.1,0-0.8,0.1-1.9,0.2c-1.1,0.1-2.3,0.1-3.3,0.2l-1.6,0.1c0,0-0.1,6.4-0.1,19c0,12.6-0.1,19-0.3,19.1c-0.1,0.1-0.3,0.2-0.8,0.2
			c-0.4,0-0.7-0.1-0.8-0.4c-0.2-0.2-0.3-2.5-0.3-6.7c0-6.1,0-12.1,0.1-18L403,67h-3.4c-2.2,0-3.5-0.1-3.9-0.3
			c-0.3-0.1-0.5-0.4-0.5-0.8c0-0.5,0.2-0.7,0.6-0.8C396.6,65,400.2,64.8,406.7,64.6z"/>
		<path class="st7" d="M458,64.9c0.2-0.2,0.5-0.3,0.9-0.3c0.5,0,0.9,0.3,1.1,0.8c0.1,0.2,0.7,3.6,1.7,10.2c1.2,7.8,2.3,15,3.3,21.8
			c0.5,3.1,0.7,5,0.8,5.6c0.2,1.3,0.3,2.1,0.3,2.4c0,0.5-0.2,0.8-0.5,0.9c-0.4,0.2-0.7,0.1-0.9-0.2c-0.6-0.6-1.4-5.5-2.7-14.6
			c-1.7-12.7-2.9-20.4-3.5-23l-0.1-0.2c-0.1,0-0.7,0.7-1.5,2c-1.1,1.6-2.2,3.2-3.4,4.9c-1.1,1.5-1.8,2.5-2.1,2.9
			c-0.3,0.4-0.6,0.6-0.8,0.6c-0.4,0-1.1-0.8-2-2.4c-0.7-1.1-1.7-2.7-3.1-4.8c-1.4-2.1-2.2-3.1-2.3-3.1c-0.2,0-0.6,3.5-1.3,10.6
			c-1.2,12.8-1.9,20.4-2.2,22.6c-0.2,2.2-0.5,3.4-0.7,3.5L439,105c-0.3,0.3-0.7,0.3-1,0.1s-0.5-0.6-0.5-1.1c0-1.7,1-11.6,2.9-29.6
			c0.3-2.5,0.5-4.9,0.7-7.3c0.1-1.1,0.2-1.7,0.4-2c0.1-0.2,0.4-0.3,0.7-0.3c0.7,0,1.4,0.3,2,1c0.1,0.1,1.2,1.7,3.3,4.8
			c2,3,3.1,4.5,3.3,4.5c0,0,0.1,0,0.1-0.1c0.1-0.1,1.3-1.8,3.4-5C456.3,66.9,457.6,65.2,458,64.9z"/>
		<path class="st7" d="M473.2,68.9v-0.8c0-2.1,0.3-3.1,1-3.1c0.2,0,0.5,0.1,0.8,0.4l0.4,0.4l0.1,3.4c0,1.8,0.1,6.2,0.3,13.1
			c0.1,6.9,0.3,11.7,0.4,14.4c0.1,3.8,0.1,5.8,0.1,5.9c0,0.9,0,1.5-0.1,1.8c-0.1,0.3-0.3,0.5-0.6,0.6c-0.3,0.2-0.6,0.2-0.8,0
			s-0.5-0.4-0.6-0.7c-0.2-0.8-0.4-7.7-0.6-20.9C473.4,74.5,473.2,69.7,473.2,68.9z"/>
		<path class="st7" d="M484.6,67.2c0.1-0.2,0.3-0.4,0.6-0.4c0.3,0,0.7,0.4,1.1,1.2c0.4,0.8,1.3,2.9,2.7,6.5c2.3,5.8,3.5,8.7,3.8,8.7
			c0.2,0,0.9-1.2,2.2-3.6c1.3-2.4,2.2-4.3,2.7-5.8c0.5-1.4,0.9-2.4,1-3.1c0.3-1.4,0.8-2.2,1.3-2.2c0.2,0,0.5,0.1,0.7,0.3
			c0.2,0.2,0.3,0.5,0.3,0.8c0,0.4-0.3,1.4-0.8,2.8c-1.3,3.6-3,7.3-5,11c-0.7,1.3-1.1,2.2-1.1,2.6s0.2,1.1,0.6,2
			c1.3,2.8,3.5,7.4,6.6,13.9c0.6,1.2,0.9,2.1,0.9,2.5c0,0.3-0.1,0.5-0.3,0.8c-0.2,0.2-0.4,0.3-0.7,0.3c-0.5,0-0.9-0.4-1.2-1.1
			c0-0.1-1.3-2.7-3.7-7.8c-2.4-5-3.7-7.6-3.7-7.6h-0.1c-0.2,0-1.4,2.6-3.7,7.8c-2.4,5.3-3.7,8-4,8.3c-0.2,0.1-0.4,0.2-0.6,0.2h-0.2
			c-0.6,0-0.8-0.2-0.8-0.6c0-0.5,0.7-2.1,2-5c3.9-8.4,5.9-13,5.9-13.5c0-0.4-0.4-1.5-1.2-3.4c-1.3-3.2-2.4-6-3.4-8.3
			c-1.5-3.8-2.2-6-2.2-6.5C484.3,67.7,484.4,67.4,484.6,67.2z"/>
		<path class="st7" d="M528.1,61.4h0.3c1.7,0,3.8,0.8,6.4,2.5c1.7,1.2,3.1,2.7,4.1,4.7c1,2,1.5,4,1.5,6.1c0,0.9,0,1.5-0.1,2
			c-0.3,1.6-0.8,3-1.6,4.2c-0.8,1.2-2,2.5-3.7,3.9c-1,0.8-2,1.6-3,2.2c-1,0.7-1.6,1.1-1.8,1.5c-0.1,0.3-0.2,1.6-0.2,3.9v4.1l0.1,7.6
			c-0.5,0.5-0.9,0.7-1.3,0.7c-0.2,0-0.5-0.1-0.7-0.4c-0.1-0.1-0.3-0.4-0.4-0.9c-0.1-0.5-0.2-5-0.3-13.4c-0.1-7.9-0.2-13.1-0.3-15.6
			c-0.2-4.2-0.3-7.5-0.3-9.9c0-1,0-1.6,0.1-1.8C527.1,62,527.5,61.5,528.1,61.4z M531,64.4c-0.7-0.3-1.2-0.4-1.5-0.4h-0.4l0.1,2.7
			c0,0.5,0.1,1.9,0.2,4.1s0.1,3.9,0.2,5c0.3,6.4,0.5,9.6,0.6,9.6h0.1c0.8-0.4,2-1.2,3.5-2.4c2.2-1.9,3.6-3.9,4.1-6
			c0.1-0.6,0.2-1.2,0.2-2c0-1.4-0.2-2.6-0.5-3.7C536.5,68.1,534.3,65.8,531,64.4z"/>
		<path class="st7" d="M547.5,64.8c0.2-0.2,0.3-0.3,0.4-0.3c0.4,0,0.8,0.3,1.1,1c0.1,0.2,0.2,4.7,0.3,13.6
			c0.1,15.4,0.3,23.3,0.5,23.5c0.1,0.1,0.8,0.2,2.2,0.3c1.4,0,2.2,0.2,2.5,0.5c0.7,0.6,0.6,1.1-0.1,1.7c-0.2,0.1-0.5,0.2-0.9,0.2
			c-0.7,0-1.3,0-2-0.1c-1.7-0.1-2.6-0.2-2.7-0.2c-0.5-0.2-0.9-1-1.1-2.2c-0.2-0.8-0.3-7.8-0.3-21C547.3,70.6,547.4,64.9,547.5,64.8z
			"/>
		<path class="st7" d="M570.7,65.8c0.9-0.6,1.5-0.7,2-0.4c0.4,0.4,1.6,4.1,3.4,11.1c1.3,4.9,3.1,12,5.5,21.3
			c1.1,4.5,1.7,7.1,1.7,7.6c0,0.4-0.2,0.7-0.5,0.8c-0.6,0.3-1,0-1.4-0.8c-0.4-1.1-1.9-6.5-4.3-16.2c-0.4-1.7-0.7-2.7-0.9-3
			c-0.1-0.2-0.4-0.4-0.7-0.5c-0.7-0.1-2.7-0.2-6-0.2c-1,0-1.5,0-1.5,0.1c0,0-0.4,1.6-0.9,4.6c-0.6,3-1.2,6.1-1.9,9.2
			c-0.7,3.2-1.1,4.9-1.2,5.2c-0.2,0.4-0.5,0.6-0.8,0.6c-0.4,0-0.6-0.2-0.9-0.6c-0.1-0.2-0.1-0.4-0.1-0.5c0-0.3,0.1-1,0.3-1.9
			c0.3-1.9,1.5-8.1,3.6-18.5c2.1-10.4,3.2-15.9,3.4-16.4C569.6,66.8,570,66.2,570.7,65.8z M573.1,73.8c-0.8-3.3-1.3-5-1.5-5.2
			c-0.2-0.2-0.3-0.1-0.4,0.1c-0.1,0.3-0.6,2.6-1.4,7s-1.3,6.8-1.3,7.2c0,0.2,0.5,0.3,1.5,0.4c0.8,0,1.5,0,2,0c2.3,0,3.5-0.1,3.5-0.3
			c0,0-0.2-0.8-0.6-2.3c-0.1-0.3-0.4-1.3-0.8-3C573.7,76.1,573.4,74.8,573.1,73.8z"/>
		<path class="st7" d="M597.2,62.6c0.5-0.1,0.9-0.2,1.3-0.2c0.7,0,1,0.3,1,0.8c0,0.3-0.1,0.5-0.2,0.6c-0.2,0.1-0.6,0.3-1.4,0.6
			c-1.4,0.6-2.5,1.3-3.3,2.1c-1.2,1.3-1.8,2.8-1.8,4.5c0,0.9,0.2,1.7,0.5,2.3c0.2,0.7,2,2.5,5.3,5.5c2.1,2,3.2,3.1,3.4,3.4
			c2,2.6,2.9,5.9,2.9,10.1c0,3.4-1.2,6.3-3.7,8.8c-0.8,0.9-1.8,1.6-2.7,2.1c-0.5,0.3-1.4,0.6-2.6,0.9c-1.2,0.3-1.9,0.5-2.1,0.6
			c-0.6,0.2-1.3,0.3-2.3,0.3c-0.5,0-0.7-0.1-0.8-0.2c-0.1-0.2-0.2-0.5-0.2-0.8c0-0.4,0.1-0.6,0.3-0.7c0.3-0.3,1.7-0.7,4.3-1.3
			c1.8-0.4,3.3-1.2,4.6-2.5c1.4-1.4,2.3-2.9,2.7-4.6c0.2-0.7,0.3-1.6,0.3-2.7c0-2.1-0.3-3.9-0.8-5.5c-0.4-1.1-0.8-2-1.4-2.7
			c-0.5-0.7-1.6-1.8-3-3.3c-2.1-2.1-3.4-3.4-3.8-3.8c-1.6-1.5-2.6-3.2-2.8-5c0-0.2-0.1-0.6-0.1-1.1c0-2,0.7-3.7,2-5.3
			C593.9,64.1,595.4,63.1,597.2,62.6z"/>
		<path class="st7" d="M623.7,64.6c1.3,0,2.7-0.1,4.1-0.1c1,0,1.6,0.1,1.8,0.3c0.3,0.3,0.4,0.6,0.3,0.9c-0.1,0.3-0.3,0.6-0.8,0.8
			c-0.1,0-0.8,0.1-1.9,0.2c-1.1,0.1-2.3,0.1-3.3,0.2l-1.6,0.1c0,0-0.1,6.4-0.1,19c0,12.6-0.1,19-0.3,19.1c-0.1,0.1-0.3,0.2-0.8,0.2
			c-0.4,0-0.7-0.1-0.8-0.4c-0.2-0.2-0.3-2.5-0.3-6.7c0-6.1,0-12.1,0.1-18L620,67h-3.4c-2.2,0-3.5-0.1-3.9-0.3
			c-0.3-0.1-0.5-0.4-0.5-0.8c0-0.5,0.2-0.7,0.6-0.8C613.6,65,617.2,64.8,623.7,64.6z"/>
		<path class="st7" d="M637,68.9v-0.8c0-2.1,0.3-3.1,1-3.1c0.2,0,0.5,0.1,0.8,0.4l0.4,0.4l0.1,3.4c0,1.8,0.1,6.2,0.3,13.1
			c0.1,6.9,0.3,11.7,0.4,14.4c0.1,3.8,0.1,5.8,0.1,5.9c0,0.9,0,1.5-0.1,1.8c-0.1,0.3-0.3,0.5-0.6,0.6c-0.3,0.2-0.6,0.2-0.8,0
			s-0.5-0.4-0.6-0.7c-0.2-0.8-0.4-7.7-0.6-20.9C637.1,74.5,637,69.7,637,68.9z"/>
		<path class="st7" d="M656,62.5c0.2,0,0.5-0.1,0.9-0.1c0,0,0.1,0,0.2,0c0.1,0,0.2,0,0.3,0c0.2,0,0.4,0.1,0.7,0.3
			c0.3,0.2,0.4,0.4,0.4,0.6c0,0.5-0.5,0.9-1.6,1.1c-1.1,0.2-2.2,1-3.4,2.5c-1.6,2.1-2.7,4.4-3.3,7c-0.6,2.5-0.9,6-0.9,10.3
			c0,6.8,1.1,11.8,3.3,14.9c0.7,1.1,1.6,1.9,2.6,2.3c1,0.5,2.3,0.8,4.1,1c1.1,0.1,1.7,0.5,1.7,1.2c0,0.7-0.5,1-1.5,1h-0.3
			c-3.4-0.1-6-1.4-7.9-3.6c-1.9-2.3-3.2-6-4-11.1c-0.1-0.9-0.2-2.9-0.2-6.1c0-2.6,0.1-4.5,0.2-5.7c0.5-4.8,1.7-8.6,3.7-11.5
			C652.7,64.3,654.4,62.8,656,62.5z"/>
	</g>
	<g>
		<g>
			<path d="M684.6,58.5c-0.4,13.3-0.8,26.7-1.3,40c-0.1,2.4,3.7,2.4,3.8,0c0.4-13.3,0.8-26.7,1.3-40C688.5,56,684.7,56.1,684.6,58.5
				L684.6,58.5z"/>
		</g>
	</g>
	<g>
		<g>
			<path d="M684.6,111.1c2.4,0,2.4-3.8,0-3.8C682.1,107.3,682.1,111.1,684.6,111.1L684.6,111.1z"/>
		</g>
	</g>
	<path d="M731,153.7c0.7,0.1,1.2,0.1,1.7,0.1c1.4,0,2.9,0,4.3,0c0.7,0,1.5,0.1,2.1,0.3c1.6,0.4,2.5,1.5,2.4,3.1
		c-0.1,1.8-0.4,3.6-0.7,5.4c-0.9,5.5-2.3,10.8-3.8,16.2c-0.6,2.2-0.8,4.5-1.3,6.7c-0.6,2.8-1.1,5.7-1.7,8.5c-0.9,3.8-2,7.6-3,11.3
		c-0.1,0.6-0.3,1.1-0.5,1.7c-0.5,1.6-1.5,2.8-3.3,3.2c-1.8,0.4-3.7,0.6-5.6,0.8c-2.5,0.2-5.1,0.3-7.7,0.3c-2.9,0-5.9-0.2-8.8-0.3
		c-3.1-0.1-6.3-0.2-9.4-0.3c-3.5,0-7.1-0.1-10.6,0c-3.3,0.1-6.6,0.4-10,0.5c-5.1,0.1-10.2,0-15.4,0.1c-2.7,0-5.4,0.2-8.1,0.3
		c-1,0-2-0.1-3-0.3c-1.3-0.3-2.2-1.2-2.8-2.3c-1.1-2-1.8-4-2.1-6.3c-0.5-4-1-7.9-2.1-11.8c-0.6-2.2-1-4.5-1.6-6.8
		c-0.8-3.7-1.8-7.4-2.5-11.2c-0.6-3-0.9-6.1-1.3-9.2c-0.3-2.1-0.7-4.1-1-6.1c-0.1-0.6-0.2-1.2-0.3-1.9c0-1.8,0.7-2.8,2.4-3.1
		c1.6-0.3,3.2-0.3,4.7-0.4c0.5,0,1,0,1.7,0c0-0.6,0-1,0-1.4c-0.3-2.4,0.4-4.3,2.7-5.4c0.7-0.4,1.3-0.8,2-1.1
		c1.9-0.9,3.5-0.6,4.9,0.9c0.1,0.1,0.3,0.2,0.5,0.4c0.6-0.3,1.1-0.7,1.7-1c0.8-0.4,1.5-0.8,2.4-1c1.2-0.3,2.3,0.2,3,1.3
		c0.2,0.4,0.5,0.7,0.7,1c0.7,0.2,1-0.1,1.1-0.6c0.1-0.6,0.2-1.2,0.2-1.9c0.2-1.5,0.9-2.2,2.5-2.3c1.7,0,3.4-0.1,5.1-0.1
		c0.6,0,1.2,0,1.7,0.1c1,0.2,1.7,0.7,1.9,1.7c0.1,0.3,0.2,0.5,0.3,0.8c0.8,0.1,1.3-0.3,1.7-1c1.5-3.3,4.7-3.9,7.7-3.6
		c1.1,0.1,2.1,0.7,2.8,1.6c0.3,0.4,0.7,0.8,1,1.2c1.4-0.3,2.8-0.4,3.5-2c0.3-0.7,1.1-1.1,1.9-1.1c1.6-0.2,3.3-0.3,4.9-0.4
		c1.4-0.1,2.6,0.4,3.1,1.9c0,0.1,0.2,0.2,0.4,0.5c0.5-0.1,1.1-0.2,1.7-0.3c1.8-0.3,3.5-0.6,5.3-0.8c1.3-0.1,2.4,0.3,2.9,1.7
		c0.1,0.3,0.5,0.7,0.8,0.8c2.1,0.7,4.2,1.3,6.4,2c0.3,0.1,0.6,0,0.9,0.1c0.2-0.4,0.3-0.7,0.5-1.1c0.4-1.2,1.3-1.8,2.6-1.7
		c1.7,0.1,3.5,0.2,5.2,0.4c1.5,0.2,2.2,1.1,2.3,2.7c0.1,2.1,0.1,4.1,0.2,6.2C730.7,151.6,730.9,152.5,731,153.7z M638.2,155.9
		c0.1,0.6,0.2,1.1,0.3,1.6c0.3,1.5,0.6,2.9,0.8,4.4c0.6,4.9,1.1,9.8,2.3,14.6c1.2,4.7,2.1,9.5,3.3,14.2c0.9,3.8,1.5,7.7,2,11.5
		c0.2,1.6,0.6,3.1,1.4,4.5c1,1.8,1.9,2.2,3.9,2c1.8-0.2,3.6-0.4,5.3-0.4c4.6,0,9.3,0.1,13.9,0.2c1.3,0,2.6,0,3.9-0.1
		c3.9-0.1,7.8-0.3,11.7-0.5c1.5-0.1,3.1,0,4.6,0c5-0.1,10-0.1,15,0.2c5.9,0.4,11.9-0.2,17.8-0.3c0.1,0,0.2,0,0.3,0
		c1.8-0.2,3.2-0.9,3.5-3c0.1-0.6,0.3-1.1,0.4-1.7c0.8-3.2,1.8-6.4,2.5-9.7c0.7-3,1.3-6,1.9-9.1c0.4-2.3,0.7-4.6,1.3-6.8
		c1.5-5.3,2.9-10.6,3.8-16c0.2-1.1,0.4-2.2,0.6-3.3c0.1-1.1-0.2-1.5-1.3-1.6c-0.8-0.1-1.5-0.1-2.3-0.1c-9.4-0.1-18.7-0.2-28.1-0.3
		c-2.9,0-5.8-0.2-8.7-0.4c-2.3-0.1-4.5-0.3-6.8-0.4c-3.1-0.2-6.2-0.5-9.2-0.7c-2.1-0.1-4.1-0.2-6.2-0.3c-5.2-0.3-10.4-0.2-15.6,0.1
		c-4.4,0.3-8.8,0.6-13.1,0.7c-2.2,0.1-4.3-0.1-6.5-0.2C640,155.2,639.1,155.2,638.2,155.9z M727.9,153.7c-0.1-2.9-0.2-5.6-0.4-8.3
		c0-0.2-0.1-0.4-0.2-0.6c-1.3-0.4-2.7-0.3-4.1-0.2c-0.6,1.2-0.5,2.1,0.1,3.2c0.9,1.5,1.5,3.1,2.2,4.7c0.2,0.4,0.2,0.8,0.3,1.3
		C726.6,153.7,727.2,153.7,727.9,153.7z M650.9,146.6c-1.2,0.7-2.2,1.3-3.2,1.9c-0.3,0.2-0.5,0.5-0.5,0.8c-0.1,1-0.2,2,0.4,3
		c1.9,0,3.9,0.2,5.9-0.3C652.9,150.1,652.3,148.3,650.9,146.6z M705.4,148.5c0.1,0.1,0.2,0.1,0.3,0.2c0.6-1.7,2.1-2.3,3.7-2.7
		c0-1.2,0.1-2.3-0.5-3.3c-2.2-0.1-4.3,0.3-6.4,1.3c0.8,0.7,1.6,1.3,2,2C704.9,146.7,705.1,147.6,705.4,148.5z M696.9,152.7
		c-0.4-1-0.7-1.8-1-2.6c-0.5-1.1-0.9-1.4-2.1-1c-1.7,0.5-3.3,1.3-4.9,2c-0.2,0.1-0.4,0.5-0.4,0.7c0,0.2,0.3,0.5,0.5,0.6
		c0.3,0.1,0.6,0.2,1,0.2c1.7,0.1,3.4,0.2,5.2,0.3C695.6,152.9,696.1,152.8,696.9,152.7z M713.2,153.4c0.2-1.5-0.2-2.8-0.8-4
		c-0.1-0.3-0.5-0.6-0.8-0.5c-0.9,0.1-1.8,0.2-2.7,0.5c-0.2,0.1-0.5,0.4-0.5,0.6c-0.2,1.1-0.4,2.3,0.3,3.5
		C710.1,153.4,711.6,153.4,713.2,153.4z M722.8,153.7c-0.2-1.6-0.7-2.7-1.6-3.6c-1.8,0.1-4.1,0.8-5.1,1.5c0.1,0.6,0.2,1.3,0.3,2
		C718.6,153.9,720.6,153.9,722.8,153.7z M671.6,144.1c-1.6-0.2-3.3-0.1-4.9,0.2c-0.1,0-0.2,0.3-0.3,0.5c0.3,0.1,0.5,0.3,0.7,0.3
		c1.5,0.2,2.1,1.2,2.3,2.6c0.1,0.9,0.2,1.8,0.4,2.7c0.1,0.3,0.3,0.6,0.4,0.9c0.9-0.2,0.8-0.8,0.9-1.3c0.2-1,0.4-2.1,0.8-3
		C672.3,146,672.2,145.1,671.6,144.1z M680.2,142.9c0.5,0.9,0.9,1.7,1.4,2.4c0.2,0.3,0.7,0.6,1,0.6c0.9,0.2,1.9,0.2,2.9,0.2
		c0.3,0,0.6-0.1,0.9-0.2c0-0.3,0-0.4,0-0.5c-0.3-0.6-0.6-1.2-0.9-1.8C684.4,141.6,682.2,141.2,680.2,142.9z M676.8,151.4
		c0.7-1.4,1.4-2.7,2-4.1c0.4-0.8-0.2-1.4-1-1.2c-1,0.2-2,0.6-2.8,1.4c-0.9,1.1-1.3,2.3-1,3.8C675,151.4,675.9,151.4,676.8,151.4z
		 M702.5,153c0.3-1.7,0-3.3-0.3-4.9c-0.1-0.7-0.6-1-1.3-0.9c-0.6,0-1.1,0.3-1.3,0.9c-0.2,0.7-0.4,1.5-0.3,2.3
		C699.7,152.7,700.1,153.7,702.5,153z M666.4,148.2c-1.5,0.4-2.7,0.6-3.9,1c-1,0.3-1.3,1-1.2,2.3c1,0.2,4.6,0,5.6-0.4
		C666.7,150.2,666.6,149.3,666.4,148.2z M680.2,151.7c1.8-0.1,3.4,0.5,5,0.2c0.4-2.4-0.2-3.1-2.4-3c0,0-0.1,0-0.1,0
		C681,149.1,680.4,149.6,680.2,151.7z M655.5,148.7c0.3,1,0.6,1.7,0.8,2.4c0.1,0.4,0.3,0.9,0.8,0.8c0.3-0.1,0.7-0.5,0.9-0.8
		c0.4-1,0.8-2.1,1.2-3.1c0.2-0.6,0.2-1.1-0.7-1.4C657.6,147.3,656.6,147.9,655.5,148.7z M696.8,146.4c0.9-0.8,1.7-1.5,2.6-2.2
		c-0.2-0.9-0.4-1.8-0.6-2.7c-1.5-0.4-1.5-0.4-2.5,0.2c0.1,0.7,0.3,1.5,0.4,2.2C696.8,144.7,696.2,145.5,696.8,146.4z M689.9,147
		c0.3,0,0.4,0.1,0.4,0.1c0.6-0.2,1.3-0.4,1.9-0.6c1.5-0.5,1.7-1,1.1-2.7c-1.3,0.1-2.6,0.5-3.9,1C689.6,145.6,689.7,146.3,689.9,147z
		 M712.7,145.6c0.9,0.8,1.9,1.6,2.9,2.6c0.9-0.1,2-0.2,3-0.8C717.1,146.4,713.5,145.4,712.7,145.6z"/>
	<path d="M391.6,144.1c1.4-0.5,2.6-0.8,3.1-2.4c0.5-1.6,1.6-2.1,3.3-1.9c0.9,0.1,1.9,0.3,2.8,0.4c0.2-0.2,0.3-0.2,0.3-0.3
		c0.6-1.9,1-2.2,3-2.3c2.5-0.1,4.9-0.2,7.4-0.3c1.8-0.1,2.2,0.2,2.7,1.9c0.2,0.5,0.4,0.9,0.6,1.4c1.6-0.1,3-0.2,4.3-1.3
		c1.6-1.4,3.6-1.8,5.7-1.3c3.1,0.7,6.2,0.8,9.2-0.5c1.1-0.5,2.1-0.2,3,0.5c0.5,0.4,1,0.9,1.5,1.4c0.3,0.3,0.7,0.5,1.3,0.9
		c0.1-0.6,0.2-0.9,0.3-1.2c0.2-1.3,0.5-1.7,1.8-1.9c1.5-0.2,3-0.3,4.5-0.5c1.1-0.1,2.1-0.2,3.2-0.3c1.3-0.1,2.3,0.3,3,1.5
		c0.6,1,1.2,2.1,1.8,3.1c0.3,0.5,0.8,0.8,1.4,0.8c1.3,0.1,2.7,0.2,4,0.3c1.5,0.1,2.2,0.6,2.5,2.1c0.3,1.2,0.4,2.4,0.7,3.5
		c0.3,1.3,0.6,1.5,1.9,1.5c1.1,0,2.2,0,3.3,0c2.6,0.1,3.9,1.4,3.9,4c0.1,4.9-0.5,9.7-1.2,14.5c-1.1,7.9-3.2,15.6-4.6,23.4
		c-0.6,3.2-0.9,6.4-1.4,9.6c-0.2,1.3-0.5,2.6-0.9,4c-0.3,1.3-1.2,2.2-2.4,2.8c-1.7,0.8-3.4,1.4-5.3,1.3c-3.1-0.1-6.3,0-9.4-0.1
		c-1.8-0.1-3.6-0.4-5.5-0.6c-6.1-0.8-12.2-0.6-18.4-0.4c-1.2,0-2.5,0-3.8,0c-1.3,0-2.5-0.1-3.8,0c-5.1,0.3-10.1,0.5-15.2,0.8
		c-3.7,0.2-7.3,0.5-11,0.8c-1,0.1-2,0.3-3,0.4c-2.3,0.4-4.5,0-6.8-0.4c-1.5-0.3-2.4-1.5-2.8-2.8c-0.6-1.8-1-3.7-1.4-5.6
		c-0.5-3.1-0.8-6.3-1.4-9.4c-1-6-2.1-12-3.1-18c-0.3-2-0.6-4-0.7-6c-0.3-4-0.6-8-0.9-12c-0.1-1.3-0.2-2.6,0.8-3.7
		c1.1-1.4,2.4-2.5,4.2-2.9c1.1-0.2,2.2-0.3,3.3-0.3c0.9,0,1.5-0.4,1.8-1.3c0.5-1.4,1.2-2.7,1.8-4.1c0.6-1.3,1.6-2.1,3.1-2.4
		c1.1-0.2,2.2-0.5,3.3-0.6c1.8-0.1,2.8,0.5,3.4,2.2C391.3,143.1,391.4,143.6,391.6,144.1z M451.9,206.2c1.5,0,3,0,4.5,0
		c1.3,0,2.5-0.4,3.6-0.9c0.7-0.3,1.2-0.8,1.4-1.6c0.3-1.2,0.6-2.3,0.7-3.5c0.8-5.1,1.4-10.2,2.5-15.3c1.5-7.3,3.2-14.6,4-22.1
		c0.3-2.8,0.5-5.6,0.6-8.4c0.1-1.9-0.3-2.2-2.2-2.2c-1.5,0-3.1-0.1-4.6-0.2c-3,0-6.1-0.1-9.1,0c-3.4,0.1-6.8,0.3-10.3,0.5
		c-2.7,0.1-5.4,0.1-8.1,0.3c-3.9,0.2-7.7,0.3-11.6,0.2c-2.9-0.1-5.8-0.2-8.7-0.3c-3.2-0.1-6.4-0.3-9.5-0.4
		c-3.7-0.1-7.4-0.1-11.1-0.1c-2.5,0-5-0.1-7.5-0.2c-3.6-0.2-7.2-0.4-10.8,0.1c-1.3,0.2-2.3,0.8-3,1.8c-0.3,0.4-0.5,1.1-0.5,1.6
		c0.1,2.3,0.3,4.5,0.5,6.8c0.5,4.6,0.7,9.2,1.6,13.8c0.8,4,1.6,8,2.3,12.1c0.6,3.7,1.1,7.3,1.6,11c0,0.3,0,0.6,0.1,0.9
		c0.4,1.8,0.8,3.7,1.2,5.5c0.2,0.9,0.8,1.4,1.8,1.6c2.1,0.4,4.2,0.3,6.3,0.1c2.4-0.3,4.8-0.5,7.2-0.7c2.6-0.2,5.2-0.3,7.8-0.5
		c4.6-0.2,9.1-0.6,13.7-0.7c4-0.1,8.1-0.1,12.1-0.3c3.6-0.2,7.1-0.1,10.7,0.3C443.4,205.7,447.6,206.5,451.9,206.2z M418.6,143.1
		c-1.6,0.3-3,0.5-4.4,0.8c-0.3,0.1-0.7,0.3-0.9,0.6c-1,1.3-1.9,2.6-2.8,3.8c-0.2,0.2-0.2,0.5-0.2,0.8c1.5,0.7,8.2,1,9.7,0.5
		C419.5,147.5,419.5,145.4,418.6,143.1z M452.4,145.1c0.3,1.2,0.6,2.1,0.8,3c0.2,0.8,0.7,1.1,1.5,1.1c1.4,0,2.8,0,4.2,0
		c0.4,0,0.7-0.1,1.3-0.2c-0.2-1.2-0.4-2.3-0.7-3.3c-0.1-0.3-0.6-0.6-1-0.6c-1.4-0.2-2.9-0.2-4.3-0.3
		C453.6,144.8,453.1,144.9,452.4,145.1z M389,148.9c0.2-1.8-0.1-3.4-0.5-4.9c-0.1-0.3-0.4-0.6-0.7-0.6c-1.3,0-2.7,0.1-3.6,1.1
		c-0.9,1.1-1.3,2.4-1.8,3.9C384.7,148.7,386.7,149,389,148.9z M400.9,148.8c0.2-0.9,0.3-1.8,0.5-2.7c0.3-0.9,0.7-1.7,1.1-2.6
		c-0.9-0.2-1.7-0.3-2.5-0.5c-0.8-0.1-1.6-0.3-2.3-0.4c-0.8,0.9-0.9,1.6-0.5,2.5c0.4,0.8,0.6,1.6,0.9,2.4
		C398.7,149.3,399,149.5,400.9,148.8z M409.8,144c0.4-0.5,0.9-1,1.3-1.5c0.4-0.5,0.8-1,0.4-1.7c-0.4-0.7-1-0.6-1.6-0.6
		c-1.3,0.1-2.5,0.1-3.7,0.2c-0.3,0-0.7,0.2-1.2,0.3c0.3,0.7,0.4,1.4,0.7,1.9c0.2,0.3,0.6,0.6,1,0.7
		C407.6,143.6,408.6,143.8,409.8,144z M431.6,149.9c0.3-0.8,0.4-1.5,0.7-2.2c0.3-0.8,0-1.5-0.4-2.2c-0.7-1.2-2-1.1-2.8,0.1
		c-0.9,1.5-0.4,2.8,0.2,4.3C430.1,149.9,430.8,149.9,431.6,149.9z M440.2,149.5c0.2-2.3-0.2-2.8-2.2-2.6c-0.3,0-0.7,0.1-1,0.1
		c-1.5,0.2-2,0.8-1.9,2.7C436.8,149.8,438.4,149.8,440.2,149.5z M431.1,141.4c0,0.1,0,0.2,0,0.2c0.3,0.1,0.6,0.2,0.9,0.3
		c0.7,0.4,1.5,0.8,2,1.3c1.1,1.1,1.4,1.2,2.9,0.4c0-0.3,0.1-0.7,0.1-1.1c-0.1-0.9-1.4-2.3-2.2-2.2
		C433.5,140.7,432.3,141.1,431.1,141.4z M446.6,139.7c0.5,1.6,1,2.9,1.4,4.2c0.1,0.4,0.2,0.8,1,0.6c-0.2-1.4,0.6-2.3,2-2.8
		c-0.3-0.6-0.5-1.2-0.8-1.6c-0.2-0.3-0.6-0.6-0.9-0.6C448.4,139.5,447.6,139.6,446.6,139.7z M422.3,144.7c0.7-0.3,1.1-0.5,1.6-0.6
		c0.5-0.2,1.1-0.3,1.6-0.5c-0.5-2.9-2-3.7-4.2-2.1C421.6,142.5,421.9,143.5,422.3,144.7z M439.9,143.5c0.8,0.5,1.5,0.7,2,1.2
		c0.5,0.5,0.8,1.1,1.2,1.8c0.4-0.6,0.7-1.1,1.1-1.5c1-1.1,1-1.3,0-2.6C442.8,142.4,441.4,142.5,439.9,143.5z M407.7,146.7
		c-1-0.4-2.1-0.9-3.1-0.2c-0.8,0.5-0.7,1.6-0.4,2.4C406.2,149.6,406.9,149.7,407.7,146.7z M425,146.8c-0.8,0.4-1.5,0.7-2.2,1
		c0,2.3,0.9,2.8,3.2,1.9C426,148.7,425.7,147.8,425,146.8z M392.3,149.1c1,0.1,2,0.3,3-0.3c-0.1-1-0.3-1.8-1.1-2.5
		c-0.5,0.2-0.9,0.5-1.4,0.7C391.8,147.6,391.8,147.7,392.3,149.1z M450.2,149.2c-0.1-1.1-0.1-1.2-0.6-1.3c-1.1-0.2-2.1-0.4-3.2-0.6
		c-0.6,0.6-0.8,1.2-0.5,2C447.4,149.5,448.8,149.6,450.2,149.2z"/>
	<path d="M536.4,141.8c1-0.2,1.9-0.5,2.9-0.6c0.9-0.1,1.8,0,3,0c1.8-1.5,4.4-1.6,6.9-2c1.4-0.2,2.1,0.3,2.6,1.7
		c0.1,0.2,0.2,0.4,0.3,0.7c0,0,0.1,0.1,0.2,0.2c0.2,0,0.6,0,0.9,0c1.7,0,3.2,0.3,4.4,1.6c0.9,0.9,2,0.8,3.2,0.8
		c0.3-0.7,0.6-1.3,0.9-2c0.6-1.4,1.6-2.4,3.1-2.8c1.2-0.3,2.3-0.6,3.5-0.7c2.4-0.3,3.7,0.6,4.5,2.9c0.3,0.9,0.6,1.8,0.9,2.6
		c1.4,0.2,2.7,0.3,4,0.5c0.3-0.4,0-1,0-1.6c-0.1-2.3,0.8-3.3,3.1-3.4c1.3-0.1,2.6-0.2,3.9-0.3c1.5-0.1,2.9,0.2,3.8,1.6
		c0.1,0.1,0.2,0.2,0.4,0.3c1.5-0.3,3-0.1,4.5,0.3c2.2,0.6,3,1.6,3.1,3.8c0.1,2.1,0,4.2,0,6.4c0,0.3,0,0.6,0,0.9
		c0.5,0.2,0.9,0.3,1.4,0.5c0.9,0.3,1.8,0.5,2.6,0.9c1.5,0.7,2.4,1.9,2.3,3.5c0,1.7-0.1,3.5-0.3,5.2c-0.5,4.3-1,8.5-1.5,12.8
		c-0.6,5-1.9,9.8-3.2,14.7c-1.3,4.9-2.4,9.8-3.6,14.8c-0.1,0.3-0.2,0.7-0.2,1c-0.5,2.2-1.8,3.6-4,4.1c-2.6,0.6-5.3,1.2-7.9,1.7
		c-2.8,0.5-5.6,0.8-8.5,1c-6.1,0.5-12.2,0.8-18.4,0.3c-3.7-0.3-7.4-0.4-11.1-0.7c-3.7-0.3-7.4-0.7-11.1-1c-1.1-0.1-2.1-0.3-3.2-0.3
		c-4.1-0.2-8.2-0.3-12.3-0.4c-1.6-0.1-3.3-0.1-4.9-0.2c-2.3-0.2-3.4-1.5-3.6-3.8c-0.5-4.9-0.7-9.9-1.5-14.8
		c-0.3-1.8-0.4-3.6-0.4-5.3c-0.2-4.6-1-9.1-1.6-13.6c-0.7-5.5-1.4-11.1-2.1-16.7c-0.2-1.2,0.2-2.3,0.6-3.4c0.3-0.8,1-1.3,1.8-1.6
		c1.9-0.9,3.9-1.1,5.9-0.9c0.5,0.1,0.9,0.1,1.5,0.2c0.3-0.9,0.6-1.6,0.9-2.4c1.1-3.2,3.7-4.4,6.8-4.7c1.5-0.2,2.5,0.6,3.1,2.1
		c0.2,0.5,0.4,1,0.7,1.5c0.8-0.2,0.7-0.8,0.9-1.2c0.4-1.2,0.8-2.4,1.4-3.5c1.4-2.8,7-3.6,8.8-1C535.9,141.4,536.1,141.5,536.4,141.8
		z M562.8,210.8c4.3-0.3,9.1-0.6,13.8-1.1c3.6-0.4,7.3-0.9,10.9-1.7c2.5-0.6,3.7-1.9,4.2-4.5c0.6-3.3,1.5-6.5,2.2-9.7
		c1.1-4.6,2.5-9.2,3.4-13.9c0.9-4.5,1.3-9.2,1.9-13.8c0.3-2.4,0.5-4.9,0.8-7.3c0.1-1.4-0.2-1.9-1.4-2.3c-0.9-0.3-1.7-0.6-2.6-0.7
		c-3-0.3-5.9-0.6-8.9-0.9c-2.2-0.2-4.4-0.2-6.7-0.3c-1.6-0.1-3.3-0.2-4.9-0.2c-2.2,0-4.3,0.2-6.5,0.2c-4.4,0-8.8-0.2-13.2-0.2
		c-4.8,0-9.6,0.1-14.5,0.2c-1.4,0-2.8,0.1-4.2,0.1c-3,0.1-6,0.4-9,0.3c-5.7-0.3-11.4-0.7-17-1.7c-1-0.2-2.1,0-3.1,0.3
		c-1.5,0.4-1.8,0.8-1.6,2.4c0.7,5.8,1.4,11.6,2.2,17.4c0.5,3.7,0.9,7.5,1.4,11.2c0.3,3.1,0.6,6.1,0.9,9.2c0.2,2,0.4,3.9,0.6,5.9
		c0.2,2.2,0.4,4.3,0.6,6.5c0.1,1.2,0.5,1.5,1.6,1.6c1.1,0.1,2.1,0.2,3.2,0.2c6.2,0,12.4,0.2,18.6,0.9c4.3,0.5,8.6,0.6,12.8,0.9
		c1.9,0.1,3.9,0.2,5.8,0.4C556.7,210.3,559.5,210.5,562.8,210.8z M550.2,146.3c0.3,1.7,0.5,3.3,0.7,4.9c2.1,0.2,4,0.6,6,0.1
		c-0.1-0.7-0.2-1.2-0.3-1.7c-0.2-0.9-0.4-1.8-0.6-2.7c-0.3-1.5-1.2-2.3-2.7-2.1C552.1,144.9,551.1,145.3,550.2,146.3z M539.9,144
		c-1.1,0.3-2.1,0.5-3,0.8c-0.6,0.2-1.3,0.2-1.8,0.6c-1.2,1-2.2,2.1-3.4,3.2c0.4,1.1,0.8,2.2,1.2,3.4c1.2-0.1,2.2-0.2,3-0.2
		c0.6-1.5,0.8-2.8,1.6-3.8c0.8-1,2-1.7,3.1-2.6C540.4,145.1,540.2,144.7,539.9,144z M559,147.1c0.4,1.6,0.7,3,1.1,4.3
		c2.3,0.5,4.5,0.1,6.8-0.1c-0.3-1.6-0.5-3-1.2-4.3C563.5,147.1,561.4,147.1,559,147.1z M547.3,148c-2,0.3-3.9,0.5-5.8,0.8
		c-0.6,0.1-1.1,0.5-1.6,0.9c-0.5,0.4-0.7,0.9-0.5,1.6c0.2,0.6,0.8,0.6,1.4,0.6c2.1-0.1,4.2-0.2,6.3-0.3c0.1,0,0.3-0.1,0.4-0.2
		C548,150.2,547.7,149.2,547.3,148z M521.1,146.4c-2.9,0.1-4.5,1.7-4.7,4.4c1,0.6,4.9,1,6.3,0.6
		C522.4,149.7,521.9,148.1,521.1,146.4z M574.8,151.4c-0.1-1.5,0.8-2.7,0.2-4.2c-2,0.1-3.9,0.4-5.7,1.6c0.3,0.9,0.5,1.8,0.8,2.8
		C571.7,151.9,573.2,151.7,574.8,151.4z M593.6,152.3c0-2.3,0.1-4.4,0-6.5c0-1.2-2-2.2-3.1-1.5c-0.2,0.1-0.4,0.3-0.5,0.5
		c-0.2,0.4-0.3,0.9-0.4,1.4c1.9,1.6,2.2,3.7,2.3,6C592.5,152.2,593,152.3,593.6,152.3z M568.6,145.6c0.7-0.3,1.3-0.5,2.1-0.8
		c-0.3-1-0.5-1.8-0.9-2.6c-0.1-0.3-0.7-0.6-1-0.6c-1.2,0.1-2.4,0.3-3.5,0.6c-0.7,0.2-1.1,0.7-1,1.7
		C565.8,144.1,567.5,143.9,568.6,145.6z M577.9,151.5c1.2,0.3,2.5,0.3,3.8,0.1c0-1.6-0.3-3-0.8-4.4
		C578.8,147.5,577.7,149.1,577.9,151.5z M587,144.8c-0.4-1.1-0.7-2.3-1.6-2.4c-1.5-0.2-3.1-0.1-4.5,0.2c-0.3,0.7-0.2,1.3,0.5,1.4
		c1.2,0.2,2,0.9,2.7,1.9C585,145.5,585.9,145.2,587,144.8z M588.7,151.9c0.3-1.1,0.1-1.9-0.4-2.7c-0.6-0.9-1.5-1.2-2.4-0.8
		c-1.2,0.5-1.4,1-1.2,2.2c0.1,0.4,0.2,0.7,0.3,1.2C586.2,152.1,587.4,152.1,588.7,151.9z M543.2,143.6c0.2,1,0.5,1.7,1.4,1.8
		c1.9,0.1,3.3-0.9,4.4-2.3c0.1-0.1,0-0.4,0-0.9C546.9,142.3,545.1,142.8,543.2,143.6z M525.7,149.9c-0.1,2.2,1.6,2.9,3.8,1.8
		c-0.2-1.1-0.4-2.1-1.5-2.9C527.2,149.2,526.5,149.5,525.7,149.9z M532.8,142.9c-2.3-0.6-3.9,0.5-3.9,2.9c0.3,0,0.8,0.2,1,0.1
		C531.1,145.2,532.2,144.5,532.8,142.9z"/>
	<path d="M264.3,144.4c1.6-0.3,1.8-0.4,1.9-1.8c0.1-1.7,1-2.6,2.6-3c1.1-0.2,2.1-0.6,3.2-0.9c2.8-0.7,5.4-0.6,7.8,1.1
		c2.9-0.9,5.8-1.1,8.8-1.1c2.1,0,2.9,0.6,3.6,2.7c0.1,0.3,0.2,0.5,0.2,0.6c1,0.3,2,0.4,2.7,0.9c0.6,0.5,1,1.3,1.5,2.2
		c0.3-0.5,0.5-0.8,0.6-1.2c0.2-0.7,0.3-1.4,0.4-2.1c0.4-2.5,1.1-3.4,3.6-3.9c1.5-0.3,3.1-0.4,4.6-0.6c1.4-0.2,2.9-0.3,4.3-0.4
		c3.5-0.4,4.1-0.2,7,1.7c0.2-0.1,0.4-0.2,0.6-0.4c1-1,2.2-1.3,3.6-1.2c1.7,0.2,3.4,0.3,5,0.5c1.8,0.2,2.9,1.2,3.4,3
		c0.3,1.2,0.7,2.4,1,3.7c0.5,0,1,0,1.5,0c1.2,0,1.7,0.5,1.9,1.7c0.2,1.4,0.4,2.8,0.7,4.3c0.9,0.1,1.7,0.3,2.4,0.3
		c3.1,0.1,6.1,3.7,5.8,6.5c-0.3,3.3-0.4,6.6-0.8,9.8c-1.1,7.6-3.2,15.1-5.1,22.6c-1.4,5.4-2.6,10.9-4,16.3c-0.3,1.2-0.7,2.4-1.1,3.6
		c-0.6,1.7-1.9,2.5-3.7,2.6c-1.2,0.1-2.3,0.1-3.5,0.1c-5.9,0.1-11.9-0.2-17.8-0.8c-1.2-0.1-2.4-0.2-3.6-0.1
		c-4.4,0.5-8.8-0.1-13.1-0.5c-5-0.5-10-0.6-15-0.4c-1.5,0.1-3.1,0.4-4.6,0.7c-2.4,0.3-4.9,0.8-7.3,1c-1.8,0.1-3.6-0.1-5.3-0.3
		c-1.6-0.2-2.8-1.3-4.1-2.1c-0.4-0.3-0.7-1-0.8-1.6c-0.8-3.1-1.6-6.3-2.4-9.4c-0.5-2-1-4-1.5-6c-1.8-7.7-2.9-15.5-4-23.4
		c-0.4-3.2-0.8-6.3-1.1-9.5c-0.1-1.6,0-3.3,0.2-4.9c0.3-2,1.3-2.7,3.3-2.9c0.6-0.1,1.3-0.1,1.9-0.1c0.9,0,1.4-0.4,1.7-1.3
		c0.5-1.5,1.1-2.9,1.7-4.3c0.5-1.2,1.4-2.1,2.5-2.7c1.2-0.6,2.3-1.2,3.5-1.7c2.1-0.9,3.9-0.7,5,1.8
		C263.9,143.9,264.1,144.1,264.3,144.4z M247.4,154.9c-0.6,1-0.7,1.9-0.6,2.8c0.2,2.3,0.3,4.5,0.6,6.8c0.8,5.6,1.6,11.3,2.6,16.9
		c0.6,3.4,1.2,6.7,1.9,10.1c0.7,3.1,1.5,6.2,2.2,9.3c0.4,1.7,0.9,3.5,1.3,5.2c0.4,1.5,1.6,2.4,3,2.8c1.2,0.3,2.6,0.4,3.9,0.3
		c2.2-0.2,4.4-0.5,6.6-0.9c3.7-0.7,7.5-1,11.2-1c3.6,0,7.1,0.2,10.7,0.6c3.8,0.4,7.5,0.6,11.3,0.5c2.2,0,4.5-0.1,6.7,0.1
		c5.8,0.6,11.5,0.8,17.3,0.7c2.9-0.1,3-0.1,3.8-2.9c0.8-2.8,1.4-5.7,2.1-8.6c1.1-4.5,2.2-8.9,3.3-13.4c1.4-5.8,3-11.6,3.9-17.5
		c0.4-3,0.7-6.1,0.9-9.2c0.1-2.3-1.6-4-3.9-4.1c-1.1-0.1-2.2,0-3.3-0.1c-7.9-0.1-15.8-0.1-23.7-0.1c-1.5,0-3,0-4.5,0.1
		c-3.2,0.2-6.3,0.5-9.5,0.6c-3.8,0.2-7.6,0.3-11.4,0.3c-3.4,0.1-6.8,0.2-10.1,0.2c-2.6,0-5.1-0.4-7.7-0.4c-4.3,0-8.6,0.1-12.9,0.3
		C251.1,154.4,249.3,154.7,247.4,154.9z M314.4,150.2c0.1-0.3,0.2-0.5,0.2-0.7c0-2.6,0.1-5.2,0.1-7.8c-0.1-1.6-0.6-2-2.2-2
		c-2.1,0.1-4.1,0.3-6.2,0.4c-1.4,0.1-2.9,0.3-4.3,0.6c-1.3,0.3-1.7,1.2-1.3,2.6c0.8-0.2,1.6-0.5,2.4-0.6c1.9-0.3,2.9,0.2,3.6,2
		c0.6,1.4,1,2.9,1.5,4.4c0.1,0.3,0.2,0.6,0.3,1C310.4,150.2,312.3,150.2,314.4,150.2z M260.8,144.5c-3.7,0.4-6.5,3.3-6.6,6.8
		c2.7,0.1,5.4-0.3,8.2-0.3C262.6,148.5,261.9,146.4,260.8,144.5z M288.1,151.1c-0.2-1.3-0.3-2.6-0.6-3.9c-0.3-1.6-0.3-3,1.4-3.9
		c0.2-0.1,0.4-0.7,0.4-1c-0.1-0.3-0.5-0.6-0.8-0.7c-0.3-0.1-0.8-0.1-1.1-0.1c-1.4,0.1-2.8,0.2-4.2,0.4c-1.3,0.2-1.5,0.5-1.6,2.1
		c1.8,0.3,2.4,1.8,3,3.3c0.4,1.2,0.7,2.5,1.2,3.8C286.4,151.4,287.1,151.6,288.1,151.1z M324.4,146.5c1.3-0.2,2.3-0.5,3.3-1.3
		c-0.3-1.1-0.5-2.2-0.8-3.3c-0.2-0.9-0.8-1.4-1.7-1.5c-1.4-0.1-2.8-0.3-4.2-0.4c-0.5,0-1.1,0.1-1.4,0.5c-0.7,0.6-1.2,1.4-1.7,2.2
		c0.1,0.1,0.1,0.2,0.2,0.3c0.5-0.1,0.9-0.2,1.4-0.2c0.6-0.1,1.2-0.2,1.9-0.2c1.6,0.1,2.4,0.9,2.8,2.4
		C324.2,145.4,324.3,145.9,324.4,146.5z M281.1,147.2c-2.7,0.7-5.4,1.4-8.1,2.1c0,0.8,0,1.4,0,2.1c1.7,0.3,3.2,0.1,4.8,0.1
		c1.6,0,3.2,0.2,4.9-0.2C282.4,149.8,282.1,148.5,281.1,147.2z M296.4,148.3c0.8,1,1.3,1.7,1.9,2.4c2.4-0.2,4.7,0,7-0.6
		c-0.3-1.7-0.7-3.1-1.7-4.6C301.2,146.4,299,147.3,296.4,148.3z M269.3,142.8c-0.1,0.1-0.1,0.3-0.2,0.4c2.2-0.2,3.4,0.9,3.9,2.9
		c1.6-0.3,3.1-0.7,4.5-1.3c0.3-0.1,0.6-0.7,0.6-1c0.1-1.2-0.7-2.3-1.9-2.5c-2.5-0.5-4.8,0.3-6.9,1.4
		C269.3,142.7,269.3,142.8,269.3,142.8z M265.3,147.5c0,1.3,0,2.4,0.6,3.6c1.3,0.1,2.6,0.4,4.1,0.2c0-1.7,0.2-3.3-0.2-5
		C268.1,146.3,266.6,146.7,265.3,147.5z M321.2,145.6c-1.2-0.3-2.2,0.1-3.1,0.5c-0.2,0.1-0.5,0.4-0.5,0.6c-0.2,1.2-0.3,2.4,0.1,3.7
		c1.1,0,2.1,0,3.2,0C321.4,148.8,321.4,147.3,321.2,145.6z M293.3,145.3c-1.1,0.3-1.9,0.5-2.8,0.8c0,1.7,0.2,3.3,0.8,4.8
		c1.1,0.2,2,0.4,3-0.2c-0.1-0.3-0.2-0.5-0.3-0.7c-0.7-1-1-2.1-0.6-3.3C293.5,146.4,293.3,146,293.3,145.3z M324.2,150.2
		c2.1,0.8,4.3,0,6.4,0.2c0.3,0,0.7-0.2,1-0.3c-0.2-0.9,0-1.7-0.7-2.4C328.6,148.3,326.4,149.1,324.2,150.2z"/>
	<path d="M693.3,170.2c-0.9-3.3-3-5.7-4.5-8.8c-0.5,0.5-0.9,0.8-1.1,1.2c-1.1,1.7-2.3,3.3-3.4,5c-1,1.5-1.9,2.9-2.8,4.4
		c-0.7,1.1-1.5,1.4-2.2,0.9c-0.7-0.5-0.9-1.4-0.2-2.5c2.2-3.4,4.4-6.8,6.7-10.1c0.4-0.6,0.9-1.1,1.5-1.6c1.2-1,2.7-0.8,3.7,0.4
		c0.1,0.1,0.1,0.1,0.2,0.2c1.5,2.7,2.9,5.3,4.3,8c0.5,0.9,0.8,1.8,2,2c1.1,0.3,1.7,1.4,1.5,2.6c-0.1,0.7-0.2,1.4-0.4,2.1
		c-0.4,1.5-1.6,2.1-3,1.4c-1-0.4-1.9-0.9-2.9-1.4c-1.7-0.9-1.7-2.4-0.1-3.5C692.7,170.6,692.9,170.4,693.3,170.2z"/>
	<path d="M698.1,195.4c2.9-0.5,5.8,0.3,8.6-0.7c-0.2-0.5-0.2-0.8-0.4-1c-1.1-1.8-2.1-3.7-3.2-5.5c-0.4-0.7-1-1.4-1.4-2.2
		c-0.3-0.4-0.6-0.9-0.8-1.4c-0.2-0.7,0-1.2,0.6-1.6c0.6-0.4,1.1-0.3,1.6,0.2c0.2,0.2,0.5,0.5,0.7,0.8c0.9,1.4,1.8,2.8,2.7,4.3
		c0.6,1,1.2,2.1,1.9,3.1c0.4,0.7,0.9,1.4,1.2,2.2c0.9,2.1,0.2,3.5-2,4c-1.3,0.3-2.8,0.4-4.1,0.5c-1.4,0.1-2.9,0.2-4.3,0.2
		c-0.8,0-1.3,0.4-1.6,1.2c-0.5,1.2-1.4,1.5-2.6,1c-1-0.4-2.1-0.8-3-1.4c-1.5-0.8-1.8-2.4-0.5-3.6c1.3-1.3,3-2,4.8-2.5
		c1-0.3,1.5,0.2,1.8,1.2C698,194.4,698,194.8,698.1,195.4z"/>
	<path d="M668.9,188.1c-1.5-1.1-1.2-2.4-0.4-3.6c0.7-1,1.4-2,2.3-2.8c1.2-1.1,2.7-0.9,3.3,0.7c0.5,1.3,0.9,2.8,1.1,4.2
		c0.2,1.2-0.6,2.1-1.8,2.1c-0.9,0.1-1.4,0.4-1.9,1.1c-0.8,1.1-1.8,2.1-2.5,3.2c-0.7,1-1.2,2.1-1.8,3.1c-0.2,0.4-0.2,0.9-0.4,1.5
		c0.7,0.2,1.2,0.3,1.8,0.4c2.2,0.5,4.4,0.6,6.6,0.2c1.2-0.2,2,0.2,2.1,1c0.2,0.8-0.4,1.7-1.6,1.8c-1.8,0.2-3.6,0.3-5.5,0.2
		c-1.2,0-2.4-0.4-3.6-0.6c-1.8-0.3-2.8-1.5-2.7-3.3c0-1.5,0.6-2.9,1.3-4.1c0.8-1.3,1.8-2.5,2.7-3.7
		C668.2,189,668.5,188.6,668.9,188.1z"/>
	<path d="M684.5,184.2c0.6-0.3,0.8-0.5,1.1-0.5c1-0.3,1.9-0.7,2.9-0.9c1.5-0.3,2.9,0.2,3.8,1.5c0.9,1.4,0.9,3,0.1,4.4
		c-0.5,0.9-1.2,1.7-1.9,2.3c-1.4,1.2-3.7,1-5.4-0.2c-3.5-2.5-4.3-7-2.9-10.6c0.8-2.1,2.3-3.7,3.8-5.3c0.2-0.2,0.5-0.4,0.8-0.5
		c0.6-0.2,1.3-0.2,1.7,0.4c0.5,0.6,0.4,1.2-0.1,1.7c-0.7,0.9-1.4,1.7-2.1,2.6c-0.8,1-1.4,2.1-1.7,3.3
		C684.6,182.9,684.6,183.5,684.5,184.2z M686.1,187.7c0.8,1,1.4,1.4,2.2,1.2c0.8-0.2,1.3-0.8,1.5-1.6c0.4-1-0.1-1.7-1.2-1.6
		C687.4,185.8,686.6,186.5,686.1,187.7z"/>
	<path d="M423.9,168c-0.1-1-2.3-6.2-3.1-7.2c-0.2,0.2-0.5,0.3-0.7,0.6c-2.4,3.1-4.9,6.2-7.3,9.4c-0.4,0.5-0.7,0.9-1.1,1.3
		c-0.5,0.5-1,0.5-1.6,0.2c-0.5-0.3-0.8-1-0.6-1.6c0.1-0.4,0.3-0.8,0.6-1.2c2.2-2.9,4.4-5.9,6.6-8.8c0.7-0.9,1.4-1.7,2.2-2.5
		c1.4-1.4,2.9-1.3,4,0.3c0.6,0.8,1.1,1.7,1.5,2.6c0.8,1.7,1.5,3.5,2.2,5.2c0.3,0.9,0.8,1.4,1.7,1.8c1.4,0.6,1.6,1.1,1.3,2.6
		c-0.2,1-0.4,2.1-0.7,3.1c-0.3,1.5-1.7,2.1-3,1.2c-0.8-0.6-1.6-1.2-2.5-1.7c-2.2-1.5-2.2-3.6,0.1-5
		C423.7,168.2,423.8,168.1,423.9,168z"/>
	<path d="M428.4,193.4c2.3,0,4.5,0,6.7,0c0.3-0.7-0.1-1.1-0.3-1.5c-1.2-1.7-1.9-3.5-2.7-5.4c-0.3-0.9-0.9-1.7-1.3-2.6
		c-0.3-0.6-0.6-1.1-0.9-1.7c-0.4-0.9-0.1-1.6,0.5-2c0.7-0.4,1.4-0.2,2,0.7c0.8,1.4,1.7,2.8,2.4,4.3c0.8,1.9,1.5,3.7,2.7,5.4
		c0.6,0.8,0.9,1.8,1.3,2.8c0.6,1.7-0.2,2.9-2,3c-2.2,0.1-4.3,0.1-6.5,0.1c-1,0-2,0-2.6,1c-0.6,0.9-1.6,0.8-2.5,0.5
		c-1-0.4-2-1-2.9-1.6c-1.3-0.9-1.3-2.3-0.1-3.3c1.3-1,2.8-1.4,4.4-1.8c0.8-0.2,1.4,0.2,1.7,1C428.1,192.5,428.2,192.9,428.4,193.4z"
		/>
	<path d="M401.6,186.3c-1.6-2.4-1.5-2.8,0.4-4.8c0.5-0.5,1-1.2,1.6-1.6c0.5-0.4,1-0.7,1.6-0.9c1-0.3,1.9,0.2,2.1,1.2
		c0.3,1.7,0.3,3.3,0.4,5c0,0.8-0.6,1.4-1.6,1.4c-1.1,0-1.7,0.6-2.2,1.4c-0.8,1.3-1.6,2.7-2.3,4c-0.2,0.4-0.3,1-0.5,1.5
		c0.3,0.2,0.5,0.4,0.7,0.4c1.7,0.3,3.4,1,5.3,0.9c0.8,0,1.6,0.1,2.4,0.3c0.9,0.2,1.4,0.8,1.3,1.5c-0.1,0.7-0.7,1.3-1.5,1.3
		c-1.8-0.1-3.6-0.2-5.4-0.5c-1.1-0.1-2.2-0.4-3.2-0.7c-2.3-0.6-3-1.9-2.3-4.1c0.5-1.5,1.2-2.9,1.9-4.3
		C400.7,187.7,401.2,187,401.6,186.3z"/>
	<path d="M417.2,176.1c-0.8,0.3-1,0.9-1,1.6c0,0.4,0,0.8,0,1.2c-0.1,0.7-0.4,1.2-1.2,1.3c-0.7,0.1-1.2-0.2-1.5-0.8
		c-1.2-2.3,1-6.1,3.5-6.3c1.3-0.1,2.8,0.8,3.4,2.3c0.9,1.8,0.9,3.8,0.1,5.6c-0.6,1.3-1.3,2.6-2.1,3.8c-0.6,1.1-1.4,2-2.3,3.3
		c0.7,0.2,1.1,0.3,1.5,0.5c0.9,0.3,1.2,0.8,1.1,1.6c-0.1,0.7-0.5,1.1-1.4,1.2c-0.9,0-1.7,0-2.6,0c-1.5-0.1-2.3-1.1-2-2.6
		c0.2-0.8,0.6-1.6,1-2.4c0.8-1.3,1.8-2.4,2.5-3.7c0.6-1.1,1.2-2.2,1.5-3.4C418.3,178,418.3,176.9,417.2,176.1z"/>
	<path d="M558.5,170.1c-0.3-1.9-2.9-7-4.5-8.4c-0.4,0.4-0.8,0.7-1.1,1.2c-2.3,3.5-4.5,7-6.7,10.5c-0.2,0.3-0.4,0.7-0.6,1
		c-0.5,0.5-1.1,0.6-1.7,0.3c-0.6-0.3-0.9-1-0.7-1.7c0.2-0.6,0.5-1.2,0.8-1.7c2.1-3.4,4.3-6.8,6.5-10.1c0.4-0.6,0.9-1.2,1.5-1.7
		c1.3-1.2,2.9-1.1,4.2,0.1c0.4,0.4,0.7,0.8,1,1.2c1.3,2.5,2.7,4.9,3.9,7.4c0.4,0.8,0.8,1.2,1.7,1.3c1.5,0.2,1.9,0.7,1.8,2.2
		c0,1.1-0.1,2.2-0.3,3.3c-0.2,1.3-1,1.8-2.3,1.6c-0.6-0.1-1.1-0.3-1.6-0.6c-0.8-0.6-1.7-1.3-2.4-2.1c-1.1-1.2-1.1-2.1,0.1-3.2
		C558.2,170.4,558.4,170.3,558.5,170.1z"/>
	<path d="M532.5,196.5c1.2,0.6,2.5,0.7,3.7,0.8c2.4,0.2,4.8,0.3,7.2,0.5c0.2,0,0.5,0,0.7,0.1c0.8,0.2,1.3,0.7,1.2,1.4
		c0,0.7-0.5,1.3-1.3,1.3c-0.7,0.1-1.4,0-2.2,0c-1.1-0.1-2.1-0.1-3.2-0.2c-2.4-0.3-4.9-0.6-7.3-0.9c-0.4,0-0.7-0.2-1.1-0.4
		c-1-0.5-1.5-1.3-1.2-2.4c0.2-0.8,0.5-1.6,1-2.4c0.9-1.6,1.9-3.2,2.9-4.8c0.2-0.3,0.3-0.7,0.5-1.1c-0.3-0.3-0.6-0.6-0.9-1
		c-0.7-0.8-0.8-1.7-0.1-2.5c0.9-1,2-2,3.1-2.7c1.2-0.8,2.7-0.1,2.9,1.3c0.3,1.5,0.3,3,0.3,4.5c0,0.9-0.4,1.3-1.4,1.4
		c-0.7,0.1-1.2,0.3-1.5,0.9c-1.1,1.9-2.3,3.8-3.4,5.7C532.6,196,532.6,196.2,532.5,196.5z"/>
	<path d="M563.2,196.1c2.4-0.3,4.8,0.6,7.4,0.1c-0.2-0.7-0.3-1.3-0.5-1.9c-0.9-2.2-1.9-4.4-2.8-6.7c-0.2-0.5-0.4-1-0.5-1.5
		c-0.1-0.6,0.1-1.1,0.7-1.5c0.6-0.3,1.2-0.2,1.7,0.3c0.3,0.3,0.5,0.6,0.6,1c1.7,3.4,3.1,7,4.1,10.6c0.4,1.4-0.4,2.5-1.9,2.6
		c-1.9,0-3.8-0.1-5.6-0.2c-0.6,0-1.2-0.1-1.9-0.1c-0.8,0-1.6,0.2-2.1,1c-0.6,0.9-1.5,1.1-2.4,0.5c-0.9-0.5-1.7-1.1-2.4-1.8
		c-1-1-0.9-2.1,0.1-3c0.7-0.6,1.5-1.2,2.4-1.7c1.4-0.8,2.3-0.4,2.8,1.2C563,195.3,563,195.6,563.2,196.1z"/>
	<path d="M552.2,178.8c0,0.7,0,1.3,0,1.9c0.4,0.2,0.7,0.3,1,0.4c3.7,0.8,4.8,3.8,4.4,6.9c-0.3,2.5-2.8,6-5.5,6.5
		c-1.5,0.3-3,0.1-4.4-0.5c-0.9-0.3-1.2-1-1-1.8c0.2-0.7,0.8-1,1.7-0.9c0.7,0.1,1.4,0.2,2.1,0.3c0.9,0.1,1.7-0.3,2.3-0.9
		c0.9-1,1.7-2,1.8-3.4c0.2-1.9-0.8-3.2-2.7-3.3c-0.3,0-0.6,0-0.9,0c-0.9,0-1.5-0.5-1.7-1.3c-0.3-1.7-0.6-3.3-0.2-5
		c0.3-1.4,1.1-2,2.6-2c0.7,0,1.3,0.1,2,0.3c0.7,0.2,1.1,0.6,1.1,1.4c-0.1,0.7-0.5,1.1-1.2,1.3C553.3,178.6,552.8,178.7,552.2,178.8z
		"/>
	<path d="M298.1,169.8c-1.1-2.8-1.7-5.7-3.2-8.5c-0.5,0.5-0.9,0.8-1.2,1.1c-2.5,3.2-5,6.5-7.5,9.7c-0.4,0.5-0.8,1.1-1.3,1.6
		c-0.6,0.6-1.4,0.7-2,0.2c-0.5-0.4-0.6-1.1-0.3-1.8c0.1-0.3,0.3-0.5,0.5-0.7c3-4.2,6-8.4,9.5-12.2c0.2-0.2,0.4-0.4,0.6-0.6
		c1.3-1,2.6-0.9,3.5,0.4c0.8,1.2,1.5,2.6,2.1,4c0.7,1.6,1.2,3.4,1.8,5c0.3,0.8,0.7,1.4,1.7,1.5c1.2,0.1,1.8,0.9,1.8,2.1
		c-0.1,1.3-0.3,2.7-0.6,4c-0.2,1.1-1.3,1.6-2.4,1.1c-1.8-0.8-3.4-2-4.5-3.8c-0.5-0.9-0.3-1.8,0.5-2.4
		C297.3,170.3,297.6,170.1,298.1,169.8z"/>
	<path d="M278.8,185.5c-1.3,1.2-5.4,7.4-5.8,8.8c0.4,0.1,0.7,0.2,1.1,0.2c3.4,0.3,6.6,1.2,9.9,2.2c0.5,0.1,0.9,0.4,1.3,0.6
		c0.5,0.4,0.7,0.9,0.5,1.5c-0.2,0.6-0.7,0.9-1.4,0.8c-0.4,0-0.8-0.1-1.1-0.2c-2.3-0.6-4.6-1.2-6.9-1.7c-1.1-0.2-2.2-0.3-3.3-0.4
		c-3.2-0.2-4.3-2.1-2.7-4.9c1.1-2,2.4-3.8,3.7-5.7c0.4-0.6,0.7-1.2,1.2-1.9c-1.5-1.1-1.5-2.4-0.8-3.9c0.1-0.3,0.3-0.5,0.5-0.7
		c1.3-0.9,2.5-1.8,3.9-2.5c0.8-0.5,1.8-0.1,2.3,0.7c0.3,0.6,0.5,1.2,0.7,1.9c0.1,0.8,0.1,1.5,0.2,2.3c0.1,1.9-0.6,2.7-2.4,2.8
		C279.3,185.5,279.1,185.5,278.8,185.5z"/>
	<path d="M302,197.5c-0.2,0.5-0.3,0.8-0.4,1.1c-0.5,1.2-1.3,1.7-2.5,1.3c-1.1-0.4-2.3-0.9-3.3-1.5c-1.3-0.8-1.6-2.2-0.5-3.3
		c1-1.1,2.3-2.1,3.6-2.9c1.6-0.9,2.8-0.2,3.3,1.6c0,0.1,0.1,0.3,0.2,0.4c1.5,0.7,6.4,0.6,8-0.3c-0.2-0.5-0.4-1.1-0.6-1.7
		c-1.1-2.5-2.3-5-3.4-7.5c-0.2-0.3-0.3-0.7-0.4-1.1c-0.1-0.6,0.1-1.1,0.7-1.5c0.6-0.3,1.1-0.2,1.6,0.2c0.3,0.3,0.5,0.6,0.6,1
		c1.3,2.9,2.7,5.8,4,8.7c1.3,3.1,0.3,4.9-3,5.3c-2.1,0.2-4.1,0.2-6.2,0.2C303,197.5,302.5,197.5,302,197.5z"/>
	<path d="M289.8,179.1c-0.2,0.3-0.4,0.7-0.6,0.9c-0.5,0.5-1.3,0.5-1.9,0.1c-0.6-0.4-0.6-1.1-0.4-1.7c0.1-0.2,0.2-0.4,0.3-0.6
		c0.9-1.3,1.8-2.6,2.8-3.9c0.5-0.7,1.2-1.2,2.1-1c1,0.2,1.3,1,1.3,1.8c0,1.6-0.1,3.3-0.2,4.9c-0.2,3.8-0.5,7.5-0.7,11.2
		c0,0.4,0,0.9-0.1,1.3c-0.1,1-0.6,1.5-1.4,1.5c-0.8,0-1.3-0.5-1.3-1.5c0-1.8,0-3.7,0.1-5.5c0.1-2.1,0.3-4.1,0.4-6.2
		c0-0.4,0-0.8-0.1-1.2C290.1,179.2,290,179.1,289.8,179.1z"/>
</g>
</svg>
