<?xml version="1.0" encoding="utf-8"?>
<!-- Generator: Adobe Illustrator 24.0.1, SVG Export Plug-In . SVG Version: 6.00 Build 0)  -->
<svg version="1.1" xmlns="http://www.w3.org/2000/svg" xmlns:xlink="http://www.w3.org/1999/xlink" x="0px" y="0px"
	 viewBox="0 0 1000 444.2" style="enable-background:new 0 0 1000 444.2;" xml:space="preserve">
<style type="text/css">
	.st0{fill:#95D2EF;}
	.st1{fill:#FCDE8A;}
	.st2{fill:#1E1E1C;}
	.st3{fill:#1E1E1C;stroke:#1E1E1C;stroke-width:0.25;stroke-miterlimit:10;}
	.st4{fill:#1E1E1C;stroke:#1E1E1C;stroke-width:0.15;stroke-miterlimit:10;}
	.st5{fill:#FFFFFF;}
	.st6{stroke:#1E1E1C;stroke-miterlimit:10;}
	.st7{fill:none;stroke:#1E1E1C;stroke-width:3;stroke-linecap:round;stroke-linejoin:round;stroke-miterlimit:10;}
</style>
<g id="Calque_2">
	<g>
		<path class="st1" d="M220.4,182.9c-18.7,0-37.2,7.3-51,20c-8.7,8-15.8,20.7-10.6,31.3c1.6,3.4,4.4,6.2,7.1,8.8
			c20.4,20,42.8,37.8,66.8,53.1c14.6,9.3,31.3,18,48.5,15.3c11-1.7,20.7-8,29.4-14.9c6.3-5,12.6-11,13.9-18.9
			c1.9-11.4-6.9-21.4-14.8-29.8c-20.4-21.7-38.7-45.4-54.4-70.8"/>
	</g>
	<g>
		<path class="st1" d="M641.5,258.1c-7,10.3-16,19.2-23.3,29.3s-13,22.2-11.9,34.7c0.3,3.4,1.1,6.7,2.7,9.7
			c5.6,10.4,19.3,13.7,31.1,12.3c18.2-2.2,34.5-13,47-26.5c10.9-11.8,19.7-27.9,15.5-43.3c-2.5-9.2-9.8-16.9-18.8-20.1
			s-19.5-1.6-27.2,4.1"/>
	</g>
	<g>
		<path class="st1" d="M584.9,181.8c1-8.1,3.8-19.4-3.5-16.4c-2.6,1.1-17.3-1.6-20.1-1.8c-3.6-0.3-16.5,2.5-17.7-1
			c-2-5.9-2.1-10.1,10.6-21.5c12.7-11.4,30.4-15.1,47.4-16.1c14.7-0.9,29.9,0.1,43.4,6.1c13.5,6,25,17.7,27.9,32.1
			c0.2,1.2,0.4,2.5-0.3,3.5c-0.7,1-2.5,1-2.9-0.1"/>
	</g>
</g>
<g id="Calque_1">
	<g>
		<path class="st5" d="M206,164.4c7.3,19.8,23.2,73.7,30.5,93.5c0.5,1.5,1.1,3,2.4,4.1c2.8,2.3,7.1,1.1,10.5-0.2
			c5.9-2.2,11.8-4.4,17.7-6.6c20.7-7.8,41.4-15.6,62-23.7c24.8-9.9,113.6-41.7,137.8-52.7"/>
		<path d="M204.2,164.9c3.4,9.2,6.3,18.5,9.3,27.8c3.8,11.8,7.4,23.6,11.2,35.4c3.1,9.6,6.1,19.3,9.5,28.8c1,2.8,2,5.9,4.9,7.3
			c3.3,1.6,7.2,0.6,10.4-0.5c8.4-3,16.7-6.3,25-9.4c16.9-6.4,33.9-12.8,50.7-19.4c7.6-3,15.2-5.9,22.9-8.8
			c9.7-3.6,19.4-7.2,29.1-10.8c10.9-4.1,21.8-8.1,32.7-12.2c10.3-3.8,20.5-7.7,30.7-11.7c7.8-3,15.6-6.1,23.3-9.4
			c1.3-0.6,2.6-1.1,3.9-1.7c2.2-1,0.3-4.2-1.9-3.2c-6.5,2.9-13.1,5.5-19.9,8.2c-9.6,3.8-19.3,7.5-29,11.1
			c-10.8,4.1-21.5,8.1-32.3,12.1c-10.1,3.7-20.1,7.5-30.2,11.2c-7.6,2.8-15.2,5.7-22.7,8.6c-14.3,5.5-28.5,11.2-42.8,16.6
			c-8.3,3.2-16.7,6.3-25,9.4c-4.1,1.6-8.3,3.1-12.4,4.7c-3,1.1-7.1,3.3-10.3,2.1c-2.4-0.8-3-4-3.8-6.2c-0.7-2-1.4-4-2.1-5.9
			c-1.6-4.9-3.2-9.8-4.8-14.7c-3.7-11.5-7.3-23.1-11-34.7c-3.2-10.2-6.4-20.4-9.9-30.4c-0.6-1.8-1.2-3.5-1.9-5.3
			C207,161.6,203.4,162.6,204.2,164.9L204.2,164.9z"/>
	</g>
	<path d="M443.4,116.8c-4.1-10.5-9.8-21.6-9.1-33.2c-0.8,0.6-1.6,1.2-2.4,1.8c13.1,2.6,26.1,5.6,38.8,9.5
		c11.1,3.4,21.9,7.4,32.6,11.7c7.5,3,14.9,6,22.3,9.1c-0.4-0.8-0.9-1.5-1.3-2.3c-2.9,13.3-7,26.3-12.2,38.9
		c-4.7,11.7-10.1,23.2-15,34.8c-3.1,7.4-6,14.9-8.6,22.4c0.9-0.4,1.8-0.7,2.8-1.1c-10.7-7.4-15.2-20.6-22.8-30.6
		c-0.6-0.8-1.6-1.2-2.6-0.7c-0.8,0.5-1.3,1.8-0.7,2.6c8.1,10.6,12.8,24.1,24.1,32c1.1,0.7,2.4-0.1,2.8-1.1
		c4.5-12.9,9.9-25.5,15.4-38c5.1-11.6,10.2-23.2,14.1-35.2c2.5-7.5,4.6-15.2,6.3-23c0.2-1.1-0.3-1.9-1.3-2.3
		c-12.3-5-24.5-10.1-37-14.7c-10.9-4-21.9-7.4-33.1-10.2c-7.8-2-15.7-3.7-23.6-5.3c-1.2-0.3-2.3,0.5-2.4,1.8
		c-0.8,12,5,23.3,9.2,34.2c0.4,0.9,1.3,1.6,2.3,1.3C443,118.9,443.8,117.8,443.4,116.8L443.4,116.8z"/>
	<path d="M206.5,166.2c12.3-1.9,24.4-4.4,36.6-6.8c17.2-3.5,34.4-7.1,51.6-10.7c18.9-4,37.7-8,56.6-12c17.1-3.6,34.3-7.2,51.5-10.6
		c12-2.4,24-4.8,36.1-6.5c0.5-0.1,1-0.1,1.5-0.2c0.1,0,0.3,0,0.4-0.1c0.4-0.1-0.4,0.1,0,0c0.2,0,0.5-0.1,0.7-0.1
		c1-0.1,1.9-0.8,1.9-1.9c0-0.9-0.9-2-1.9-1.9c-11.5,1.5-22.8,3.7-34.2,5.9c-16.7,3.3-33.4,6.7-50.1,10.2c-18.8,3.9-37.7,8-56.5,11.9
		c-17.6,3.7-35.2,7.4-52.8,11c-13,2.6-26,5.3-39,7.5c-1.1,0.2-2.3,0.4-3.4,0.5c-1,0.2-1.6,1.4-1.3,2.3
		C204.5,166,205.5,166.4,206.5,166.2L206.5,166.2z"/>
	<path d="M295.3,200.8c0.6,0.1,1.3,0.2,2,0.1c0.4-0.1,0.8-0.1,1.2-0.2c0.4-0.1,0.8-0.3,1.2-0.5c0.6-0.3,1.1-0.7,1.6-1.1
		c0.5-0.4,0.9-1,1.2-1.5c0.3-0.6,0.4-1.3,0.3-1.9c-0.2-0.6-0.6-1.2-1.1-1.5c-0.6-0.3-1.3-0.5-1.9-0.3c-0.6,0.2-1.2,0.6-1.5,1.1
		c-0.1,0.2-0.2,0.3-0.3,0.5c0.1-0.2,0.3-0.3,0.4-0.5c-0.2,0.3-0.4,0.5-0.7,0.7c0.2-0.1,0.3-0.3,0.5-0.4c-0.3,0.2-0.6,0.4-1,0.6
		c0.2-0.1,0.4-0.2,0.6-0.3c-0.3,0.1-0.7,0.2-1.1,0.3c0.2,0,0.4-0.1,0.7-0.1c-0.4,0-0.7,0-1.1,0c0.2,0,0.4,0.1,0.7,0.1
		c-0.1,0-0.2,0-0.2,0c-0.7-0.1-1.3-0.1-1.9,0.3c-0.5,0.3-1,0.9-1.1,1.5c-0.1,0.6-0.1,1.4,0.3,1.9
		C294.1,200.2,294.6,200.7,295.3,200.8L295.3,200.8z"/>
	<g>
		<path d="M250,188c-6.6,1.8-10.1,8.9-9.7,15.4c0.2,3.9,1.5,7.5,3.2,11c1.5,3,3.2,6,5.7,8.4c4.4,4.2,11.6,5.9,16.6,1.6
			c2.7-2.3,3.2-6,3-9.4c-0.2-3.7-0.9-7.4-2.1-10.9c-1.3-3.9-3-7.9-5.4-11.2c-2.1-2.9-5.3-5.9-9.2-5.4c-1,0.1-1.9,0.8-1.9,1.9
			c0,0.9,0.9,2,1.9,1.9c2.6-0.3,4.6,1.6,6,3.7c1.7,2.4,3.1,5.2,4.1,7.9c1.1,2.9,1.9,5.9,2.4,9c0.4,2.7,0.9,6.1-0.5,8.5
			c-2.3,4.1-8.3,3.1-11.4,0.6c-2.1-1.7-3.7-4-5-6.3c-1.5-2.7-2.7-5.5-3.4-8.5c-1.3-5.5,0.3-12.8,6.5-14.6
			C253.3,191,252.3,187.4,250,188L250,188z"/>
		<path d="M279.5,212.3c-1.4-4-2.9-8-4.3-12c-1.4-3.9-2.9-7.7-4.1-11.6c-0.3-1-0.5-1.9-0.7-2.9c-0.1-0.4-0.2-0.9-0.3-1.4
			c0-0.1,0-0.4-0.1-0.5c0.1,0.1-0.7,0.4-0.1,0.1c1.8-0.6,3.4-1.5,5.4-1.7c3.3-0.3,6.1,1.6,5.4,5.2c-0.4,2-1.7,3.6-3,5.1
			c-1.3,1.4-2.7,3.3-4.5,3.9c-2.3,0.7-1.3,4.4,1,3.6c2.3-0.7,4-2.5,5.6-4.2c1.6-1.7,3.1-3.6,4-5.7c1.7-4.2,0.4-9.1-4-10.9
			c-2.1-0.9-4.5-0.8-6.7-0.3c-1.2,0.3-2.3,0.7-3.4,1.2c-1,0.4-2.1,0.8-2.8,1.7c-1.3,1.9-0.2,5,0.4,6.9c0.7,2.4,1.5,4.8,2.4,7.2
			c2.1,5.8,4.2,11.5,6.2,17.3C276.7,215.5,280.3,214.6,279.5,212.3L279.5,212.3z"/>
		<path d="M290.6,184.8c1.8,9,4.2,17.9,7.2,26.5c0.8,2.3,4.4,1.3,3.6-1c-3-8.7-5.4-17.5-7.2-26.5
			C293.7,181.5,290.1,182.5,290.6,184.8L290.6,184.8z"/>
		<path d="M302.5,212.6c1.5-0.3,3-0.5,4.4-0.8c0.4-0.1,0.9-0.5,1.1-0.9c0.2-0.4,0.3-1,0.2-1.4c-0.1-0.5-0.4-0.9-0.9-1.1
			c-0.5-0.2-0.9-0.3-1.4-0.2c-1.5,0.3-3,0.5-4.4,0.8c-0.4,0.1-0.9,0.5-1.1,0.9c-0.2,0.4-0.3,1-0.2,1.4c0.1,0.5,0.4,0.9,0.9,1.1
			C301.5,212.6,302,212.7,302.5,212.6L302.5,212.6z"/>
		<path d="M292.8,184.6c3.1-0.5,6.2-1.3,9.2-2.5c0.9-0.3,1.6-1.3,1.3-2.3c-0.3-0.9-1.3-1.7-2.3-1.3c-3,1.1-6.1,2-9.2,2.5
			c-1,0.2-1.6,1.4-1.3,2.3C290.8,184.4,291.8,184.8,292.8,184.6L292.8,184.6z"/>
		<path d="M321.7,206.4c-3.5-9.2-6.5-18.6-8.9-28.2c-1,0.6-2.1,1.2-3.1,1.8c4.5,3.7,9.1,7.3,13.6,11c4.1,3.3,8.1,7.2,13.2,9
			c1.3,0.5,2.8-1,2.3-2.3c-3.4-8.4-6.8-16.8-10.2-25.2c-0.4-0.9-1.3-1.6-2.3-1.3c-0.9,0.2-1.7,1.4-1.3,2.3
			c3.4,8.4,6.8,16.8,10.2,25.2c0.8-0.8,1.5-1.5,2.3-2.3c-2.2-0.8-4.2-2.2-6-3.7c-2.1-1.7-4.2-3.3-6.2-5c-4.3-3.4-8.5-6.9-12.8-10.3
			c-1.4-1.1-3.6-0.1-3.1,1.8c2.4,9.6,5.3,19,8.9,28.2c0.4,0.9,1.3,1.6,2.3,1.3C321.3,208.4,322,207.3,321.7,206.4L321.7,206.4z"/>
		<path d="M352.1,162c-4.3,0.6-5.4,5.8-3.6,9.1c2.2,4,6.7,4.4,10.1,6.9c2.9,2.1,3.9,6,3.7,9.4c-0.1,3.1-1.5,9.2-5.8,8.4
			c-2.4-0.5-3.4,3.1-1,3.6c4.8,0.9,8.4-2.6,9.8-6.9c1.2-3.8,1.2-8.2-0.3-11.9c-0.7-1.8-1.8-3.5-3.2-4.8c-1.6-1.5-3.6-2.3-5.6-3.2
			c-1.7-0.8-3.8-1.8-4.6-3.6c-0.6-1.4-0.1-3,1.5-3.3c1-0.1,1.6-1.4,1.3-2.3C354.1,162.2,353.1,161.8,352.1,162L352.1,162z"/>
		<path d="M370.7,155.8c-3.1,0.2-5.2,2.6-6.1,5.4c-1,3.3-0.5,7,0.1,10.3c1,5.3,2.6,11.1,6.6,14.9c3.9,3.8,11.7,5.6,14.7-0.3
			c1.4-2.7,1.6-6.3,1.3-9.3c-0.3-3.2-1.2-6.3-2.4-9.3c-1.5-3.4-3.4-6.5-5.7-9.3c-2-2.5-5.2-5.3-8.3-2.8c-0.8,0.6-0.7,2,0,2.7
			c0.8,0.8,1.9,0.6,2.7,0c-0.2,0.1,0.4,0.2,0.6,0.3c0.5,0.2,0.8,0.6,1.2,1c0.8,0.9,1.6,1.9,2.3,2.8c1.5,2,2.8,4.2,3.8,6.5
			c1.9,4.3,3,9.3,2,14c-0.5,2.1-1.6,3.5-3.8,3.6c-2,0-3.8-0.9-5.2-2.2c-3-2.8-4.4-6.8-5.3-10.7c-0.6-2.7-1.2-5.4-1.1-8.2
			c0-1.7,0.5-5.5,2.9-5.7C373.1,159.4,373.1,155.7,370.7,155.8L370.7,155.8z"/>
		<path d="M386,155c1.5,4.6,2.7,9.3,4.5,13.7c1.6,3.9,4,7.7,8,9.5c3.7,1.7,8.6,1.2,10.9-2.6c2.2-3.6,1.1-8.6,0.1-12.4
			c-1.3-5.2-3.6-10.2-5.8-15.1c-0.4-0.9-1.8-1.1-2.6-0.7c-1,0.5-1.1,1.6-0.7,2.6c1.6,3.6,3.3,7.3,4.5,11.1c1.1,3.3,2.3,7.2,1.8,10.7
			c-0.5,3.4-3.7,4.3-6.6,3c-3.2-1.4-5-4.6-6.2-7.7c-1.6-4.3-2.9-8.8-4.3-13.1C388.9,151.7,385.2,152.6,386,155L386,155z"/>
		<path d="M412.5,150.1c2.7,9.2,5.5,18.3,8.2,27.5c0.7,2.3,4.3,1.3,3.6-1c-2.7-9.2-5.5-18.3-8.2-27.5
			C415.4,146.8,411.8,147.7,412.5,150.1L412.5,150.1z"/>
		<path d="M417.2,149.1c1.9-1.1,4.8-0.5,5.7,1.6c1.1,2.3-1.1,5.1-3.5,5c-1.9-0.1-2.5,2.6-0.9,3.5c6.9,3.9,13.9,7.5,21,10.9
			c2.2,1,4.1-2.2,1.9-3.2c-7.1-3.4-14.2-7-21-10.9c-0.3,1.2-0.6,2.3-0.9,3.5c4.9,0.1,8.9-5.3,7.1-9.9c-1.7-4.3-7.3-6.1-11.2-3.7
			C413.3,147.1,415.2,150.4,417.2,149.1L417.2,149.1z"/>
		<path d="M444.5,132c-1.9,0.9-3.7,1.9-5.1,3.5c-1.4,1.6-2,3.6-2.3,5.7c-0.6,4.7,0.8,9.3,2.7,13.6c1.6,3.8,3.7,7.8,7.4,10
			c3.3,2,7.8,2,10.7-0.7c1.8-1.6-0.9-4.3-2.7-2.7c-2,1.9-5.3,1.1-7.2-0.6c-2.5-2.1-4-5.4-5.2-8.3c-1.4-3.3-2.4-6.9-2.1-10.5
			c0.1-1.5,0.5-3,1.6-4.2c1.1-1.2,2.7-1.9,4.1-2.6C448.5,134.2,446.6,131,444.5,132L444.5,132z"/>
		<path d="M460.5,126.7c-2.8,0-5.5,1.2-7.3,3.3c-0.3,0.4-0.5,0.8-0.5,1.3c0,0.5,0.2,1,0.5,1.3c0.7,0.6,2,0.8,2.7,0
			c0.3-0.4,0.7-0.7,1.1-1c-0.1,0.1-0.3,0.2-0.4,0.3c0.6-0.4,1.2-0.8,1.8-1.1c-0.1,0.1-0.3,0.1-0.4,0.2c0.7-0.3,1.4-0.5,2.1-0.6
			c-0.2,0-0.3,0-0.5,0.1c0.3,0,0.7-0.1,1-0.1c1,0,1.9-0.9,1.9-1.9C462.3,127.5,461.5,126.7,460.5,126.7L460.5,126.7z"/>
		<path d="M453.2,132.2c3.1,8.9,6.2,17.8,9.5,26.6c0.8,2.2,4.5,1.3,3.6-1c-3.3-8.8-6.5-17.7-9.5-26.6
			C456.1,129,452.4,129.9,453.2,132.2L453.2,132.2z"/>
		<path d="M465.9,160.1c2.5-0.8,5-1.8,7.4-3c0.9-0.5,1.2-1.7,0.7-2.6c-0.6-0.9-1.6-1.2-2.6-0.7c-0.5,0.3-1.1,0.6-1.6,0.8
			c-0.3,0.1-0.5,0.3-0.8,0.4c-0.2,0.1-0.3,0.1-0.5,0.2c-0.4,0.2,0.4-0.2-0.1,0c-1.1,0.5-2.3,0.9-3.5,1.2c-0.9,0.3-1.6,1.3-1.3,2.3
			C463.9,159.8,464.9,160.4,465.9,160.1L465.9,160.1z"/>
		<path d="M463,146c0.8-0.3,1.6-0.7,2.5-1c0.2-0.1,0.5-0.2,0.6-0.3c0.2-0.1,0.4-0.3,0.5-0.5c0.1-0.2,0.2-0.4,0.2-0.7
			c0.1-0.2,0-0.5,0-0.7c-0.1-0.5-0.4-0.9-0.9-1.1c-0.1-0.1-0.3-0.1-0.4-0.2c-0.3-0.1-0.7-0.1-1,0c-0.8,0.3-1.6,0.7-2.5,1
			c-0.2,0.1-0.5,0.2-0.6,0.3c-0.2,0.1-0.4,0.3-0.5,0.5c-0.1,0.2-0.2,0.4-0.2,0.7c-0.1,0.2,0,0.5,0,0.7c0.1,0.5,0.4,0.9,0.9,1.1
			c0.1,0.1,0.3,0.1,0.4,0.2C462.3,146,462.6,146,463,146L463,146z"/>
	</g>
	<g>
		<path class="st5" d="M377.3,213.7c-1.3,30.3-0.2,60.8,3.3,91c0.2,1.4,0.4,2.9,1.1,4.2c0.9,1.6,2.5,2.6,4.1,3.4
			c11.1,6,24.1,7.1,36.7,7.5c29.5,1.1,59.1-0.2,88.5-3.9c8.7-1.1,17.3-2.4,26.1-2.9c31.8-1.7,64,7.3,95.3,1.3
			c0.2-10,0.4-20.1,0.6-30.1"/>
		<path d="M375.5,213.7c-1,23.8-0.6,47.6,1.4,71.3c0.5,5.9,1,11.8,1.7,17.6c0.3,2.6,0.3,5.4,1.9,7.6c1.4,2,3.5,3.2,5.6,4.3
			c9.4,4.8,20,6.3,30.4,6.9c23.3,1.4,46.7,0.8,69.9-1.1c11.8-0.9,23.5-2.4,35.3-3.9c11.6-1.4,23.1-2,34.7-1.4
			c22.6,1.1,45.3,5.1,68,2.4c2.8-0.3,5.6-0.8,8.4-1.3c0.8-0.2,1.4-1,1.4-1.8c0.2-10,0.4-20.1,0.6-30.1c0-2.4-3.7-2.4-3.8,0
			c-0.2,10-0.4,20.1-0.6,30.1c0.5-0.6,0.9-1.2,1.4-1.8c-22,4.2-44.5,0.9-66.6-0.7c-11.2-0.8-22.5-1.2-33.7-0.2
			c-11.5,1-23,2.9-34.5,4c-23.1,2.3-46.3,3.1-69.4,2.4c-10.4-0.3-21-0.6-31-3.5c-2.4-0.7-4.7-1.5-7-2.6c-2-0.9-4.5-1.9-5.9-3.7
			c-0.7-0.9-0.9-2.1-1-3.2c-0.2-1.5-0.3-3-0.5-4.5c-0.3-2.9-0.6-5.7-0.9-8.6c-2.2-23.2-2.9-46.5-2.3-69.8c0.1-2.9,0.2-5.7,0.3-8.6
			C379.3,211.3,375.6,211.3,375.5,213.7L375.5,213.7z"/>
	</g>
	<g>
		<path class="st5" d="M511.6,160.7c18.4,1.1,36.9,2.2,55.3,3.2c6.4,0.3,12.9,0.7,18.9,2.7"/>
		<path d="M511.6,162.6c19.4,1.2,38.9,2.2,58.4,3.3c5.2,0.3,10.4,0.9,15.4,2.5c2.3,0.7,3.3-2.9,1-3.6c-9-2.9-18.8-2.7-28.2-3.3
			c-9.9-0.5-19.8-1.1-29.6-1.7c-5.6-0.3-11.3-0.7-16.9-1C509.2,158.7,509.2,162.4,511.6,162.6L511.6,162.6z"/>
	</g>
	<g>
		<path d="M420.6,215.3c-4.9,0.7-8.6,4.4-11,8.6c-2.8,4.9-4.1,10.6-5,16.1c-1.1,6.4-1.5,13-1,19.5c0.4,6,1.2,12.5,3.4,18.2
			c1,2.5,2.3,5,4.3,6.8c2.2,1.9,4.9,3,7.7,3.4c5.4,0.8,11.9-0.7,15.7-4.8c4-4.3,4.4-10.4,4.5-16c0.2-6.7,0-13.5-0.6-20.2
			c-0.7-7.3-1.8-14.7-3.5-21.9c-0.7-3.1-1.9-6.3-4.4-8.4c-2.3-2-5.6-3-8.5-1.9c-0.9,0.4-1.6,1.3-1.3,2.3c0.3,0.9,1.4,1.7,2.3,1.3
			c5.2-2.1,7.6,4.7,8.4,8.5c1.3,5.8,2.3,11.8,3,17.7c0.6,5.9,1,11.9,0.9,17.8c0,4.9,0.3,10.7-1.7,15.3c-2,4.6-6.9,6.6-11.7,6.7
			c-2.4,0.1-4.9-0.3-7-1.6c-2-1.2-3.4-3.2-4.3-5.4c-2.1-4.8-2.8-10.3-3.3-15.5c-0.5-5.7-0.5-11.5,0.2-17.2c0.7-5.7,1.8-11.8,4.2-17
			c1.9-4.1,4.9-8,9.7-8.7c1-0.1,1.6-1.4,1.3-2.3C422.6,215.6,421.6,215.2,420.6,215.3L420.6,215.3z"/>
		<path d="M453.8,279.5c-0.8-18.3-1.7-36.6-2.5-54.9c-1.2,0.3-2.3,0.6-3.5,0.9c8,12.5,12.1,26.9,19,39.9c1.9,3.7,4.1,7.2,6.6,10.5
			c1.1,1.5,3.4,1,3.5-0.9c1.3-18.5,0.9-37.1-1.4-55.5c-0.1-1-0.8-1.9-1.9-1.9c-0.9,0-2,0.9-1.9,1.9c2.3,18.4,2.8,37,1.4,55.5
			c1.2-0.3,2.3-0.6,3.5-0.9c-8.9-11.9-13.3-26.2-19.6-39.5c-1.8-3.8-3.8-7.4-6-11c-1-1.5-3.6-1-3.5,0.9c0.8,18.3,1.7,36.6,2.5,54.9
			C450.2,281.9,453.9,281.9,453.8,279.5L453.8,279.5z"/>
		<path d="M491.5,217.9c0.5,9.9,0.9,19.9,1.4,29.8c0.2,5,0.5,9.9,0.7,14.9c0.1,2.5,0.2,5,0.3,7.5c0.1,1.9,0.1,4,1.1,5.8
			c1.2,2.2,3.5,2.9,5.9,3.1c2.8,0.2,5.6-0.1,8.3-0.5c1-0.1,1.6-1.4,1.3-2.3c-0.3-1.1-1.3-1.5-2.3-1.3c-2.2,0.3-4.4,0.4-6.6,0.4
			c-0.8,0-1.8,0-2.6-0.4c-0.7-0.4-0.9-1.2-1.1-1.9c-0.4-1.9-0.3-3.9-0.4-5.8c-0.1-2.2-0.2-4.5-0.3-6.7c-0.4-9-0.8-18.1-1.3-27.1
			c-0.2-5.1-0.5-10.3-0.7-15.4C495.1,215.5,491.3,215.5,491.5,217.9L491.5,217.9z"/>
		<path d="M525.2,227.7c-1.2,16.7-1.1,33.5,0.4,50.2c0.2,2.4,4,2.4,3.8,0c-1.5-16.7-1.7-33.5-0.4-50.2
			C529.2,225.3,525.4,225.3,525.2,227.7L525.2,227.7z"/>
		<path d="M544.8,274.6c-1.1-18.3-1.5-36.5-1.1-54.8c-1.1,0.4-2.1,0.9-3.2,1.3c2.7,3.5,4.5,7.6,6.1,11.7c1.8,4.6,3.6,9.1,5.4,13.7
			c3.7,9.4,7.4,18.8,11.1,28.1c0.8,1.9,3.5,1.7,3.7-0.5c1.4-19.5,1.7-39.1,1-58.7c-0.1-2.4-3.8-2.4-3.8,0c0.7,19.6,0.3,39.2-1,58.7
			c1.2-0.2,2.5-0.3,3.7-0.5c-3.8-9.7-7.6-19.4-11.5-29.1c-1.8-4.7-3.7-9.3-5.5-14c-1.7-4.3-3.7-8.5-6.6-12.2
			c-1.1-1.3-3.2-0.2-3.2,1.3c-0.3,18.3,0,36.6,1.1,54.8C541.2,277,544.9,277,544.8,274.6L544.8,274.6z"/>
		<path d="M596.8,214.4c-4.3,0-8.6,0-13,0c-1,0-1.9,0.9-1.9,1.9c0,1,0.9,1.9,1.9,1.9c4.3,0,8.6,0,13,0c1,0,1.9-0.9,1.9-1.9
			C598.7,215.3,597.9,214.4,596.8,214.4L596.8,214.4z"/>
		<path d="M581.5,217.1c-1.6,19.7-1.6,39.5,0.2,59.1c0.2,2.4,4,2.4,3.8,0c-1.8-19.7-1.9-39.5-0.2-59.1
			C585.4,214.7,581.7,214.7,581.5,217.1L581.5,217.1z"/>
		<path d="M583.8,277.7c4.9-0.5,9.7-0.9,14.6-1.4c1-0.1,1.9-0.8,1.9-1.9c0-0.9-0.9-2-1.9-1.9c-4.9,0.5-9.7,0.9-14.6,1.4
			c-1,0.1-1.9,0.8-1.9,1.9C582,276.8,582.8,277.8,583.8,277.7L583.8,277.7z"/>
		<path d="M586.3,248.9c1.4,0,2.7,0,4.1,0c0.5,0,1-0.2,1.3-0.5c0.3-0.3,0.6-0.9,0.5-1.3c0-0.5-0.2-1-0.5-1.3
			c-0.4-0.3-0.8-0.5-1.3-0.5c-1.4,0-2.7,0-4.1,0c-0.5,0-1,0.2-1.3,0.5c-0.3,0.3-0.6,0.9-0.5,1.3c0,0.5,0.2,1,0.5,1.3
			C585.3,248.7,585.8,248.9,586.3,248.9L586.3,248.9z"/>
	</g>
	<g>
		<polygon class="st5" points="586.1,196.2 586.1,155.3 618.4,175.8 627.2,152 643.3,164.5 672.1,137 688.8,166.6 718.3,147 
			723,166.6 758.8,148.7 763,182.9 779.7,172.9 779.7,191.2 804.7,184.5 794.7,204.5 822.2,212.9 790.5,232.1 806.4,266.3 
			778.9,260.4 764.7,293 743.3,271.3 728.9,298 718.3,272.9 693.8,298 672.9,272.1 666.9,289.6 650.6,272.1 615.8,293 610.6,263.8 
			586.1,269.6 595.4,249.6 565.4,238.7 586.1,225.4 558.7,202.9 		"/>
		<path d="M728.9,300C728.9,300,728.8,300,728.9,300c-0.9,0-1.5-0.5-1.8-1.2l-9.4-22.3l-22.5,22.9c-0.4,0.4-0.9,0.6-1.5,0.6
			c-0.6,0-1.1-0.3-1.5-0.7l-18.6-23l-4.8,14.1c-0.2,0.7-0.8,1.2-1.5,1.3c-0.7,0.1-1.4-0.1-1.9-0.6l-15.2-16.3l-33.3,20
			c-0.6,0.3-1.3,0.4-1.9,0.1c-0.6-0.3-1-0.8-1.1-1.5l-4.9-27.1l-22.5,5.3c-0.7,0.2-1.5-0.1-2-0.7c-0.5-0.6-0.6-1.4-0.3-2.1l8.4-18
			l-28-10.1c-0.7-0.3-1.2-0.9-1.3-1.7s0.3-1.5,0.9-1.9l18.4-11.9l-25.3-20.8c-0.6-0.5-0.8-1.3-0.7-2c0.2-0.7,0.7-1.3,1.5-1.5
			l25.9-6.3v-39.3c0-0.7,0.4-1.4,1-1.8c0.6-0.4,1.4-0.3,2,0.1l30.2,19.1l8-21.5c0.2-0.6,0.7-1.1,1.3-1.2c0.6-0.2,1.3,0,1.8,0.3
			l14.7,11.5l27.5-26.3c0.4-0.4,1.1-0.6,1.7-0.5c0.6,0.1,1.1,0.5,1.4,1l15.6,27.7l27.8-18.4c0.5-0.4,1.2-0.4,1.8-0.2
			c0.6,0.2,1.1,0.8,1.2,1.4l4.1,17.1l33.6-16.8c0.6-0.3,1.3-0.3,1.8,0c0.6,0.3,1,0.9,1,1.5l3.8,31.1l14-8.4c0.6-0.4,1.4-0.4,2,0
			c0.6,0.4,1,1,1,1.7v15.7l22.5-6c0.8-0.2,1.6,0.1,2.1,0.7c0.5,0.6,0.6,1.5,0.2,2.2l-8.9,17.9l25.3,7.7c0.8,0.2,1.3,0.9,1.4,1.7
			c0.1,0.8-0.3,1.6-0.9,2l-30.2,18.3l15.1,32.6c0.3,0.7,0.2,1.5-0.3,2.1c-0.5,0.6-1.2,0.9-2,0.7l-25.9-5.5l-13.5,31
			c-0.3,0.6-0.8,1-1.5,1.2c-0.7,0.1-1.3-0.1-1.8-0.6l-19.5-19.8l-13.1,24.3C730.3,299.6,729.6,300,728.9,300z M672.9,270.1
			c0.6,0,1.2,0.3,1.6,0.7l19.4,24.1l23-23.4c0.5-0.5,1.1-0.7,1.8-0.6c0.7,0.1,1.2,0.6,1.5,1.2l8.9,21.2l12.4-23
			c0.3-0.6,0.8-0.9,1.5-1c0.6-0.1,1.3,0.1,1.7,0.6l19.3,19.6l13-29.8c0.4-0.9,1.3-1.4,2.2-1.2l23.6,5l-14.2-30.6
			c-0.4-0.9-0.1-2,0.8-2.6l27.9-16.9l-23.2-7c-0.6-0.2-1-0.6-1.3-1.1c-0.2-0.5-0.2-1.2,0-1.7l8-16l-20.7,5.5c-0.6,0.2-1.2,0-1.7-0.3
			c-0.5-0.4-0.8-1-0.8-1.6v-14.8l-13.7,8.2c-0.6,0.3-1.3,0.4-1.9,0.1c-0.6-0.3-1-0.9-1.1-1.6l-3.8-31.4l-33.3,16.7
			c-0.5,0.3-1.2,0.3-1.7,0c-0.6-0.3-1-0.8-1.1-1.4l-4-16.8l-27.2,18c-0.5,0.3-1,0.4-1.6,0.3s-1-0.5-1.3-1l-15.4-27.4L644.7,166
			c-0.7,0.7-1.8,0.7-2.6,0.1l-13.9-10.8l-7.9,21.2c-0.2,0.6-0.7,1-1.2,1.2c-0.6,0.2-1.2,0.1-1.7-0.2L588.1,159v37.2
			c0,0.9-0.6,1.7-1.5,1.9l-23.5,5.7l24.3,20c0.5,0.4,0.8,1,0.7,1.7c0,0.6-0.4,1.2-0.9,1.6l-17.3,11.2l26.2,9.5
			c0.5,0.2,1,0.6,1.2,1.1c0.2,0.5,0.2,1.1,0,1.6l-7.6,16.3l20.5-4.9c0.5-0.1,1.1,0,1.6,0.3c0.5,0.3,0.8,0.8,0.9,1.3l4.7,26.3
			l32.2-19.4c0.8-0.5,1.8-0.3,2.5,0.4l14.1,15.1l4.9-14.4c0.2-0.7,0.8-1.2,1.5-1.3C672.7,270.1,672.8,270.1,672.9,270.1z
			 M586.1,196.2L586.1,196.2L586.1,196.2z"/>
	</g>
	<g>
		<path d="M698.1,196.3c6.4,0,12.8,0,19.3,0c2.4,0,2.4-3.8,0-3.8c-6.4,0-12.8,0-19.3,0C695.7,192.5,695.6,196.3,698.1,196.3
			L698.1,196.3z"/>
		<g>
			<path d="M630,244.1c0.6-16.1,1.2-32.2,1.8-48.4c0.1-2.4-3.7-2.4-3.8,0c-0.6,16.1-1.2,32.2-1.8,48.4
				C626.1,246.5,629.9,246.5,630,244.1L630,244.1z"/>
			<path d="M629.5,197.7c5.7,0.1,11.4,0.1,17.1-0.1c2.4-0.1,2.4-3.8,0-3.8c-5.7,0.2-11.4,0.2-17.1,0.1
				C627.1,193.9,627.1,197.7,629.5,197.7L629.5,197.7z"/>
			<path d="M633.6,216.7c2.3,0.1,4.7,0.2,7,0.4c1,0.1,1.9-0.9,1.9-1.9c0-1.1-0.8-1.8-1.9-1.9c-2.3-0.1-4.7-0.2-7-0.4
				c-1-0.1-1.9,0.9-1.9,1.9C631.7,215.9,632.5,216.6,633.6,216.7L633.6,216.7z"/>
			<path d="M658.3,247.1c2.1-18.1,4.2-36.1,6.3-54.2c0.1-1-0.9-1.9-1.9-1.9c-1.1,0-1.8,0.9-1.9,1.9c-2.1,18.1-4.2,36.1-6.3,54.2
				c-0.1,1,0.9,1.9,1.9,1.9C657.5,248.9,658.2,248.1,658.3,247.1L658.3,247.1z"/>
			<path d="M662.7,194.8c3,0.2,6.1,1.5,8.6,3c2.8,1.7,4.7,4.5,5.4,7.7c0.3,1.5,0.7,3.6-0.2,4.9c-0.8,1.3-2.5,1.8-3.9,2.2
				c-3.4,0.9-7,0.2-10-1.8c-2-1.3-3.9,1.9-1.9,3.2c3,1.9,6.6,2.9,10.2,2.6c3.3-0.3,7.2-1.5,8.9-4.6c1.7-3.2,0.8-7.5-0.6-10.6
				c-1.4-3.1-3.6-5.5-6.5-7.2c-3-1.8-6.6-3.1-10.1-3.3C660.3,190.9,660.3,194.7,662.7,194.8L662.7,194.8z"/>
			<path d="M661.6,217.5c7.8,10.1,11.6,22.7,19.2,32.9c0.6,0.8,1.6,1.2,2.6,0.7c0.8-0.5,1.3-1.8,0.7-2.6
				c-7.7-10.2-11.4-22.8-19.2-32.9c-0.6-0.8-1.6-1.2-2.6-0.7C661.5,215.4,661,216.7,661.6,217.5L661.6,217.5z"/>
			<path d="M696.2,196.3c-0.4,17.2-0.2,34.4,0.8,51.5c0.1,2.4,3.9,2.4,3.8,0c-1-17.2-1.2-34.3-0.8-51.5
				C700,193.9,696.3,193.9,696.2,196.3L696.2,196.3z"/>
			<path d="M698.9,249.7c6.1,0.3,12.2-0.5,18.2-1.6c1-0.2,1.6-1.4,1.3-2.3c-0.3-1-1.3-1.5-2.3-1.3c-5.7,1.1-11.4,1.8-17.2,1.5
				C696.5,245.8,696.5,249.5,698.9,249.7L698.9,249.7z"/>
			<path d="M699,223c2.2,0.6,4.4,0.6,6.6,0.1c1-0.2,1.6-1.4,1.3-2.3c-0.3-1-1.3-1.6-2.3-1.3c-0.4,0.1-0.7,0.2-1.1,0.2
				c0.2,0,0.3,0,0.5-0.1c-1,0.1-2,0.1-3,0c0.2,0,0.3,0,0.5,0.1c-0.5-0.1-1-0.2-1.5-0.3c-0.9-0.3-2.1,0.3-2.3,1.3
				C697.5,221.6,698,222.7,699,223L699,223z"/>
			<path d="M729.2,197.7c-1.1,16.9-1.6,33.8-1.5,50.8c0,2.4,3.8,2.4,3.8,0c-0.1-16.9,0.4-33.9,1.5-50.8
				C733.1,195.3,729.3,195.3,729.2,197.7L729.2,197.7z"/>
			<path d="M731.1,250c5.4,0.2,10.9,0.1,16.3-0.3c1-0.1,1.9-0.8,1.9-1.9c0-1-0.9-2-1.9-1.9c-5.4,0.4-10.9,0.5-16.3,0.3
				c-1,0-1.9,0.9-1.9,1.9C729.2,249.2,730,249.9,731.1,250L731.1,250z"/>
			<path d="M732.6,224.3c0.3-0.1,0.7-0.1,1-0.2c-0.2,0-0.3,0-0.5,0.1c1.6-0.2,3.3-0.2,4.9-0.1c0.5,0,1-0.2,1.3-0.5
				c0.3-0.3,0.6-0.9,0.5-1.3c0-0.5-0.2-1-0.5-1.3c-0.4-0.4-0.8-0.5-1.3-0.5c-2.2-0.2-4.3-0.1-6.4,0.3c-0.4,0.1-0.9,0.5-1.1,0.9
				c-0.2,0.4-0.3,1-0.2,1.4c0.1,0.5,0.4,0.9,0.9,1.1C731.7,224.4,732.1,224.4,732.6,224.3L732.6,224.3z"/>
			<path d="M731,199.6c2.2,0,4.4-0.2,6.6-0.4c1.1-0.1,2.2-0.1,3.3-0.1c0.5,0,1,0,1.6,0c0.3,0,0.6,0,0.9,0.1c0.1,0,0.3,0,0.4,0
				c-0.2,0-0.1,0,0.1,0c1,0.2,2-0.3,2.3-1.3c0.2-0.9-0.3-2.2-1.3-2.3c-4.6-0.7-9.2,0.2-13.9,0.2c-1,0-1.9,0.9-1.9,1.9
				C729.2,198.8,730,199.6,731,199.6L731,199.6z"/>
		</g>
	</g>
</g>
</svg>
