<?xml version="1.0" encoding="utf-8"?>
<!-- Generator: Adobe Illustrator 24.0.1, SVG Export Plug-In . SVG Version: 6.00 Build 0)  -->
<svg version="1.1" xmlns="http://www.w3.org/2000/svg" xmlns:xlink="http://www.w3.org/1999/xlink" x="0px" y="0px"
	 viewBox="0 0 991.8 239.8" style="enable-background:new 0 0 991.8 239.8;" xml:space="preserve">
<style type="text/css">
	.st0{fill:#FFE87B;}
	.st1{fill:#1E1E1C;}
	.st2{fill:#1E1E1C;stroke:#1E1E1C;stroke-width:0.25;stroke-miterlimit:10;}
	.st3{fill:#1E1E1C;stroke:#1E1E1C;stroke-width:0.15;stroke-miterlimit:10;}
	.st4{fill:#FFFFFF;}
	.st5{stroke:#1E1E1C;stroke-miterlimit:10;}
	.st6{fill:none;stroke:#1E1E1C;stroke-width:3;stroke-linecap:round;stroke-linejoin:round;stroke-miterlimit:10;}
	.st7{stroke:#000000;stroke-width:1.5;stroke-miterlimit:10;}
</style>
<g id="Calque_2">
</g>
<g id="Calque_1">
	<g>
		<path d="M647.6,71.6c3.1-2.2,5.8-3.9,8.3-5.8c5.9-4.6,12.6-7.6,19.3-10.6c2.5-1.1,4.3-0.3,5.6,2.2c4.1,8,9.7,15.1,14.6,22.6
			c5.3,8.1,9.7,16.9,14.4,25.5c2.5,4.5,4.6,9.1,7.3,13.4c2.6,4.3,4.9,8.6,6.2,13.4c0.2,0.9,0.9,1.7,1.4,2.6c1,1.6,1.1,3.1,0,4.9
			c-2.9,4.5-7.4,6.7-12,8.8c-3.3,1.6-6.8,3-10.3,4c-5.5,1.6-10,4.8-14.8,7.7c-8.3,5-16.6,9.9-25,14.9c-3.2,1.9-6.4,3.9-9.5,5.9
			c-1.7,1-3.4,0.6-4.8-1.3c-2-2.8-3.9-5.7-5.8-8.4c-12.6,1.3-25.1,2.7-37.7,4c-2.2,3.4-4.5,7.3-7.2,10.9c-3.7,4.9-8.8,8.3-14.8,9.9
			c-5.5,1.5-11.3,1.1-16.9-0.1c-6.4-1.4-12.5-3.7-18-7.3c-7.5-4.8-13.3-11.2-17.5-19c-2.6-4.8-2.5-10.2-2.5-15.6
			c0-7,2.3-13.1,5.3-19.4c3-6.2,8.1-9.6,13.1-13.5c1-0.8,1.9-2.3,1.9-3.5c-0.1-4.2-0.4-8.5-0.9-12.7c-0.5-5.1-1.1-10.1-1.9-15.2
			c-0.8-5.3-2.2-10.5-2.8-15.9c-0.9-7.7-1.3-15.5-1.7-23.3c-0.1-1,0.9-2.6,1.7-3c3.6-1.4,7.3-2.6,11.1-3.4c4-0.8,8.1-1.2,12.2-1.2
			c6.9-0.1,13.6-1,20.4-2.4c8.3-1.7,16.8-2.4,25.3-3.1c5.5-0.4,11.1-0.2,16.6,0c3.5,0.1,7,0.7,10.5,1.2c2,0.3,3.2,1.5,3.8,3.5
			C645.5,51.7,647.7,61.1,647.6,71.6z M651,177.4c3.6-2,6.8-3.8,9.9-5.6c8.1-4.8,16.3-9.4,24.2-14.5c6.4-4.1,13-7.3,20.1-9.8
			c4.8-1.7,9.3-4.5,13.7-7c2.7-1.6,2.7-2.7,1.2-5.4c-0.2-0.4-0.5-0.9-0.5-1.4c-0.9-4.7-3.3-8.8-5.8-12.9c-2.5-4.1-4.7-8.4-7-12.6
			c-4-7.5-7.6-15.2-12.1-22.4c-5.5-8.9-12.5-16.8-17.2-26.3c-0.2-0.4-1.4-0.7-1.8-0.5c-4.1,1.9-8.3,3.7-12.1,6
			c-4.2,2.5-8,5.6-12.1,8.3c-7.7,5.1-15.3,10.1-23.2,15c-7.3,4.5-13.8,10.4-21.8,13.9c-1.6,0.7-2.3,1.8-1.2,3.7
			c2.6,4.8,4.8,9.8,7.6,14.5c3,4.9,6.5,9.4,9.9,14.1c1.6,2.2,3.4,4.2,4.9,6.4c2.6,3.8,5.1,7.7,7.6,11.5c2.5,3.8,4.9,7.6,7.3,11.5
			C645.4,168.4,648.2,173,651,177.4z M629.1,151.1c0.1-0.1,0.2-0.2,0.3-0.3c-1-1.6-1.9-3.2-3-4.8c-2-2.9-4-5.8-6-8.7
			c-1.7-2.3-3.6-4.4-5.2-6.7c-3.2-4.9-6.3-9.7-9.1-14.8c-2.1-3.7-3.6-7.7-5.3-11.6c-0.6-1.4-0.2-2.5,1-3.3c1.6-1,3.4-1.8,5-2.8
			c3.3-2,6.5-4.2,10.1-6.5c-4.5-1.4-5.5-3.3-4.9-8.2c0.2-1.6,2.6-4.4,3.9-4.1c1.9,0.3,4.3,0.5,5.5,1.8c1.3,1.4,1.6,3.9,2.3,5.9
			c0.5-0.4,1.4-0.9,2.2-1.4c4.9-3.3,9.5-6.9,14.6-9.9c2.9-1.7,3.6-3.7,3.5-6.7c-0.3-8.5-2-16.7-4.8-24.7c-0.3-0.8-1.3-1.7-2.1-1.9
			c-2.9-0.5-5.9-0.9-8.8-1c-13-0.3-26.1-0.4-38.9,2.6c-8.5,2-17,3-25.6,2.9c-6.6,0-12.9,1.6-19,4.5c0,0.5,0,1,0,1.6
			c0.8,7.9,1.4,15.8,2.4,23.6c1.3,10.4,3.1,20.7,4.5,31.1c0.5,3.5,0.5,7.1,0.7,10.8c4.4-2.9,9.3-1.2,13.9-1.8
			c-1.5-3.2-0.6-7.5,1.7-8.9c1.9-1.2,6.2-0.6,7.2,1.3c0.7,1.2,0.9,2.9,0.7,4.3c-0.3,1.7-1.2,3.3-1.9,5.1c8.8,1.9,18.3,3.7,25,11.4
			c2.4-1.9,5-2.1,6.8-0.6c2.2,1.7,2.9,4.5,1.7,7.1c-0.6,1.2-1.3,2.4-1.9,3.6c-0.2,0.5-0.4,1.1-0.3,1.5c1,3.6,2.1,7.2,3.2,10.8
			c2.8-1,5.3,0.7,5.8,3.8c0.6,3.8-1.5,6.3-4.1,8c-2.7,1.8-3,4.5-4.1,7.5c11.7-1.3,23-2.6,34.7-3.9c-2.3-3.8-4.4-7.3-6.6-10.9
			c-0.6,0.6-0.6,1-0.7,1.4c-0.7,2.9-2,4-4.7,3.7c-2.8-0.2-4.7-2-4.8-4.7c-0.1-1.7-0.1-3.4,0.1-5.1c0.3-2.6,2.1-3.3,4.1-1.6
			C628.3,150.8,628.7,150.9,629.1,151.1z M531.9,154.5c-0.4,5.1-0.2,9.7,2,13.8c3.9,7.2,9.3,13.3,16.4,17.5c8.3,4.9,17.2,8,27.1,7.2
			c2.4-0.2,5-0.5,7.2-1.5c8.5-3.5,13.3-10.4,16.8-18.5c3.1-7.2,3.9-14.7,2.6-22.4c-0.9-5.1-3.1-9.7-5.4-14.2
			c-2.4-4.7-6.1-8.1-10.9-9.8c-5.4-1.9-11.1-3.2-16.7-4.7c-7.9-2.1-15.5-1.5-22.7,2.8c-1.3,0.8-2.8,1.4-3.9,2.4
			c-3.1,2.7-5.6,5.8-7.6,9.5C533.5,142.5,531.4,148.3,531.9,154.5z M615.5,83.4c0.9,1.5-1,3.4,1.5,4c1.6,0.4,2.3-0.4,2.3-2.1
			C619.2,82.8,617.5,83.6,615.5,83.4z M608.5,155c0,1.7,0,3.3,0,5.1C611.1,157.8,611.1,156.4,608.5,155z M572.6,111.8
			c-2.2-0.4-3.4-0.3-3.4,1.5c0,0.4,1.2,0.8,1.8,1.2C571.5,113.7,571.9,112.9,572.6,111.8z M602.8,136.5c1-1.2,1.9-2.4,0.8-3.8
			c-0.2-0.3-1.5,0.4-2.5,0.6C601.8,134.7,602.3,135.5,602.8,136.5z"/>
		<path d="M683.6,89c3.3,0.3,4,1,4,4.1c0,1.5-0.1,3-0.3,4.4c-0.4,2.5-2.5,3.6-4.5,2.1c-2.2-1.6-4.3-3.5-6.3-5.3
			c-1-0.9-0.5-2.6,0.9-3.1c0.8-0.3,1.6-0.5,2.7-0.8c-1.3-5.4-2.1-10.9-5-16.1c-0.8,0.5-1.4,0.8-1.9,1.3c-3.4,3.4-6.9,6.7-10.3,10.1
			c-0.9,0.9-1.8,1.6-2.9,0.6c-1.1-0.9-0.7-2.1,0-3c0.9-1.1,1.9-2.1,2.9-3.1c2.2-2.1,4.4-4.2,6.6-6.3c0.4-0.3,0.7-0.7,1-1.1
			c3.8-3.6,6.6-3.3,8.7,1.5c1.7,3.9,2.6,8,3.8,12.1C683.3,87.3,683.4,88.1,683.6,89z"/>
		<path d="M674.7,118.5c3.7,1.9,7.1,3.6,11.2,5.7c-0.6-5.1-1.2-9.6-1.8-14.1c-0.1-0.6-0.2-1.1-0.3-1.7c-0.1-1.2,0-2.4,1.5-2.6
			c1.4-0.2,2,0.8,2.2,2c0.5,3.3,1.1,6.6,1.5,9.9c0.2,2,0.3,4,0.3,5.9c0,3.6-2.6,5.3-5.9,3.7c-3.2-1.6-6.4-3.3-9.5-5
			c-2.2,2.3-2.8,2.4-5.3,0.7c-1.8-1.2-3.4-2.5-3.7-4.9c-0.3-2.5,0.9-4,3.4-4.2c1.2-0.1,2.4-0.1,3.6,0c2.9,0.1,3.6,1,3,3.7
			C674.8,117.9,674.7,118.2,674.7,118.5z"/>
		<path d="M649.4,96.1c-2.4-3.9-1.7-5.6,2.6-6.7c1.1-0.3,2.2-0.6,3.3-0.7c2.4-0.3,3.6,0.8,3.1,3.2c-0.3,1.4-0.9,2.8-1.5,4.2
			c-0.4,1-1,1.8-1.7,2.6c-0.4,0.4-1,0.8-1.6,0.9c-1.1,0.2-2.4,0-3.3,0.5c-2.5,1.5-4.9,3.2-7.9,5.2c2.7,1.7,4.8,3.1,7,4.5
			c1.1,0.7,2.4,1.2,3.6,1.9c1.2,0.7,1.7,1.8,0.9,2.8c-0.5,0.6-2,1-2.7,0.6c-3.2-1.7-6.4-3.6-9.4-5.7c-3.7-2.6-3.4-6,0.4-8.6
			c1.2-0.8,2.3-1.7,3.5-2.4C646.9,97.6,648.1,96.9,649.4,96.1z"/>
		<path d="M635.6,128.4c-0.9,2.2-1.6,4-2.3,5.8c-0.5,1.4-1.3,2.3-2.9,1.7c-1.5-0.6-1.2-1.9-0.7-3.1c2.1-4.7,4.1-9.5,6.2-14.2
			c0.5-1.1,1.2-2.3,2.7-1.7c1.6,0.6,1.3,2,0.8,3.2c-0.6,1.6-1.3,3.1-2,4.8c1.7,1,3.3,1.9,5,3c0.6-1.3,0.9-2.6,1.7-3.5
			c0.6-0.7,1.8-1.5,2.6-1.3c1.4,0.3,1.2,1.7,0.8,2.8c-1.7,4.3-3.4,8.5-5.3,12.7c-0.3,0.7-1.6,0.9-2.5,1.3c-0.3-0.9-1.1-1.8-0.9-2.7
			c0.2-1.4,0.9-2.8,1.5-4.2c0.5-1.1,0.3-1.8-0.8-2.4C638.3,130.1,637.1,129.3,635.6,128.4z"/>
		<path d="M659.3,135.4c0.1,3.6-0.3,7-4,8.8c-2.6,1.3-6.2,1-8.2-1.1c-0.5-0.6-0.8-1.9-0.6-2.6c1.6-4.6,3.3-9.2,5.1-13.7
			c0.6-1.5,1.6-1.8,3.2-1.1c3.1,1.4,4,4,4.4,6.9C659.4,133.5,659.3,134.5,659.3,135.4z M654.1,130.5c-1.3,3.4-2.6,6.9-3.9,10.4
			c2.9,0.5,4.3,0.1,4.8-1.6C655.8,136.4,655.9,133.4,654.1,130.5z"/>
		<path d="M666.4,141.2c-0.6,1.5-1,3-1.7,4.3c-0.4,0.8-1.4,1.7-2.1,1.8c-1.4,0.1-2-1.3-1.6-2.4c0.6-2,1.6-3.9,2.5-5.8
			c1.1-2.3,2.3-4.5,3.3-6.9c0.7-1.5,1.4-2.4,3.2-1.7c0.2,0.1,0.5,0.1,0.8,0.1c2.6,0,4.7,1.1,5.5,3.5c0.9,2.4,0.5,4.7-1.3,6.7
			c-1.8,2.1-4.1,1.9-6.4,1.3C667.9,141.9,667.3,141.6,666.4,141.2z M670.4,133.6c-0.8,1.8-1.3,2.9-2.1,4.6c1.4,0.1,2.7,0.4,3.6,0
			c0.6-0.2,1.1-1.8,0.9-2.5C672.5,135,671.4,134.5,670.4,133.6z"/>
		<path d="M684.5,138.6c-0.8,1.6-0.8,2.6,0.8,3.5c0.6,0.3,0.7,1.6,1.1,2.4c-0.8,0.3-1.8,1-2.5,0.8c-1.4-0.4-1.8,0.1-1.9,1.6
			c1.1,0.3,2.4,0.5,3.5,1c0.8,0.4,1.3,1.2,1.9,1.9c-0.7,0.6-1.3,1.6-2,1.7c-2.1,0.1-4.3-0.1-6.4-0.5c-0.6-0.1-1.1-1.3-1.3-2.1
			c-0.2-0.6,0.1-1.4,0.3-2.1c1-3.5,1.9-6.9,3-10.4c0.7-2.5,2.6-3.1,4.8-1.8c1,0.6,2,1.3,3,2c1,0.7,1.9,1.5,1.2,2.8
			c-0.8,1.4-2,1.1-3.1,0.4C686,139.5,685.3,139.1,684.5,138.6z"/>
		<path d="M666.6,97.7c-2.1-0.4-3.5-1.3-2.9-3.2c0.3-1,1.3-2.2,2.3-2.6c1.7-0.7,3.1,0.4,3.6,2.1c0.9,2.6,1.1,5.1-1.1,7.3
			c-0.3,0.3-0.6,0.6-0.8,1c0,0,0,0.1,0,0.4c0.7,0.1,1.6,0,2.1,0.3c0.7,0.4,1.5,1.2,1.6,1.8c0.1,0.5-0.9,1.6-1.5,1.7
			c-2.3,0.2-4.7,0.2-7,0c-1.9-0.2-2.3-2.1-0.9-3.7C663.3,101.1,664.8,99.6,666.6,97.7z"/>
		<path d="M579.6,67.3c-0.6,0-1.3,0-1.9,0c-1.4,0.1-2.7-0.2-2.8-1.8c-0.1-1.7,1.2-2,2.6-2.1c3.5-0.3,7.1-0.4,10.5-1
			c4.3-0.8,8.5-2,12.8-2.9c1.5-0.3,3.1-0.3,4.6-0.2c0.5,0,1.3,0.7,1.3,1c0,0.6-0.4,1.3-0.9,1.7c-0.4,0.4-1.1,0.6-1.7,0.7
			c-7.2,1.5-14.4,3-21.6,4.4c-1,0.2-2,0-3,0C579.6,67.3,579.6,67.3,579.6,67.3z"/>
		<path d="M585,90c0.1-1.1,0.1-2.3,0.5-3.3c0.3-0.8,0.9-1.6,1.5-2.2c2.2-1.9,4.4-0.5,6.5,0.3c1.8,0.7,2.9,2,2.8,4.1
			c0,0.6,0,1.1,0,1.7c-0.3,4.1-1.8,5.8-5.3,5.6C587.2,96.1,585.1,93.8,585,90z M589.2,87.9c-0.7,3.1-0.3,4.2,1.5,4.5
			c1.6,0.2,1.7-0.8,1.8-1.9C592.6,88.2,592.4,87.9,589.2,87.9z"/>
		<path d="M562.2,90.2c0-0.3,0-0.6,0-0.9c0.1-3.4,1.6-4.6,4.9-4c4.5,0.9,6.5,4,5.5,8.6c-0.5,2.2-2.1,3.4-4.3,3.3
			C564.2,97,562.2,94.6,562.2,90.2z M568.8,93.4c0-1.1,0-2,0-3.1c-1,0.1-1.8,0.2-2.6,0.3C565.6,92.8,566.9,93.1,568.8,93.4z"/>
		<path d="M594.7,117.5c-3.7,0-5.5-1.6-5.5-4.7c0-4,2-5.9,5.8-5.9c3.3,0,5.4,2.1,5.4,5.4C600.5,115.7,598.5,117.5,594.7,117.5z
			 M595,109.9c-0.9,1.2-1.4,1.9-1.8,2.5c0.6,0.4,1.2,1.2,1.7,1.1c0.7-0.1,1.4-0.8,1.8-1.4C596.8,111.9,595.9,111.1,595,109.9z"/>
		<path d="M568.8,181.5c-7.1,0.1-13.9-1.5-19.7-5.7c-5.7-4.1-8.9-10-9.1-17.2c-0.1-2.8,0-5.5,0.4-8.3c1.1-7.9,5.9-13.3,12.2-17.6
			c1.8-1.3,3.8-1.7,6.1-1.3c0.8,0.1,1.8,0.1,2.4-0.3c5.1-2.6,10.2-1.8,15.2-0.1c2.1,0.7,4.2,1.7,6.2,2.7c5.6,2.7,8.7,7.6,10.4,13.3
			c2.4,8.2,1.7,15.9-3.3,23.3c-3,4.3-6.4,7.8-11.3,9.6c-3.1,1.1-6.4,1.6-9.5,2.3C568.9,182,568.9,181.7,568.8,181.5z M573.7,177.7
			c0.7-0.2,1.1-0.3,1.6-0.5c5-1.8,8.7-4.9,11.6-9.4c3.6-5.5,4.3-11.2,3.1-17.3c-0.7-3.2-2.3-6.4-4-9.2c-2.7-4.4-7.6-5.7-12.2-7.2
			c-3.8-1.2-7.6-1.4-11.3,0.6c-1.1,0.6-2.6,0.2-3.8,0.4c-1.3,0.2-2.8,0.1-3.8,0.8c-5,3.5-9.4,7.7-10.3,14.1
			c-0.4,2.4-0.5,4.9-0.5,7.4c0,7.8,3.5,13.5,10.5,17c1.9,0.9,3.9,1.8,6,2.2c2.9,0.6,5.9,0.8,8.8,1.1c0.2-0.3,0.3-0.5,0.5-0.8
			c-3.7-7.7-7.5-15.4-11.2-23c-0.3-0.6-0.8-1.2-0.8-1.7c0.1-0.9,0.2-2.3,0.8-2.7c1.1-0.8,2.1,0,2.7,1.2c0.2,0.5,0.5,1,0.8,1.6
			c0.5-0.4,1-0.8,1.4-1.1c2.9-2.7,5.8-5.4,8.8-8c1.8-1.6,4-1.5,5.3,0.3c2.3,3.2,4.3,6.7,6.3,10.1c0.8,1.3,0.3,2.5-1,3.3
			c-2.2,1.4-4.5,2.7-6.6,4.2c-2.4,1.7-4.8,3.5-7.3,5.3C570.4,170.1,572,173.8,573.7,177.7z M574.6,145.8c-3.5,3.3-6.7,6.4-9.9,9.5
			c-0.2,0.2-0.5,0.8-0.4,1.1c0.9,2,1.9,4,3,6.3c4.3-3,8.3-5.8,12.3-8.5C578,151.4,576.4,148.8,574.6,145.8z"/>
	</g>
	<g>
		<path d="M407.3,101.9c-0.4,4.1-0.8,8-1.3,11.8c0,0.3-0.3,0.6-0.6,1.3c-3-2.6-5.8-5-8.5-7.5c-0.5-0.4-0.7-1.3-0.8-1.9
			c-1-9.2-1.4-18.5-0.6-27.8c0-0.4,0.1-0.8,0.1-1.3c0.1-3.1,1.9-5.8,4.9-6.4c5.2-1,10.5-1.7,15.7-2.5c3-0.5,6-1.1,9-1.6
			c0.7-0.1,1.6-0.1,2.3,0.1c5.1,2.3,10.2,4.6,15.3,6.9c1.4,0.6,2.9,1.2,4.3,1.7c4.7,1.8,9.3,3.6,14,5.4c2,0.8,2.9,2.3,3.1,4.4
			c0.4,5.8,0.8,11.6,1,17.4c0.2,7.4,0.2,14.7,0.4,22.1c0.1,2.1-0.7,3.1-2.7,3.5c-7,1.6-14.1,3.2-21.1,5c-3.7,1-7.2,2.5-10.9,3.5
			c-1,0.3-2.5,0.1-3.3-0.5c-2.7-2.1-5.3-4.5-7.8-6.9c-0.5-0.4-0.7-1.4-0.6-2.1c0.4-4.9,0.9-9.9,1.5-14.8c0.2-1.8-0.1-2.9-1.7-3.8
			C415.2,106.1,411.3,104,407.3,101.9z M431.8,131.6c1.7-0.6,3-1,4.4-1.4c7.8-1.9,15.7-3.9,23.5-5.8c1.2-0.3,2.1-0.6,2.1-2.3
			c-0.2-7.7-0.2-15.4-0.4-23.2c-0.1-4.3-0.5-8.7-0.8-13.4c-6.8,2.1-13.2,4.4-19.7,5.9c-5.2,1.2-5.8,4.4-6.1,8.8
			c-0.3,5.3-1.3,10.5-1.9,15.8C432.4,121.1,432.2,126.2,431.8,131.6z M403.2,107.9c0-2.7,0-5,0-7.2c0.1-3,1.6-4.2,4.3-2.9
			c5.2,2.6,10.2,5.5,15.3,8.3c1.9,1,2.3,2.6,2,4.7c-0.8,4.9-1.3,9.8-1.9,14.7c0,0.3-0.1,0.8,0.1,1c1.6,1.5,3.3,3,4.8,4.3
			c1.3-12.5,2.6-24.8,4-37.1c-2.1-1.3-4-2.6-6.3-4c-0.2,1.2-0.3,2-0.5,2.8c-0.4,1.9-1.7,2.8-3.4,2c-6.1-2.7-12.5-5.1-17.6-9.7
			c-0.7-0.7-1.1-1.9-1.3-2.9c-0.2-0.8,0.1-1.7,0.1-2.5c-1.1-0.6-2-1-3.2-1.6c-0.2,1.1-0.5,2.2-0.5,3.2c0.1,7.1,0.4,14.2,0.5,21.3
			C399.6,104.8,400.8,106.4,403.2,107.9z M457,82.9c0-0.2,0.1-0.4,0.1-0.5c-2.1-0.8-4.1-1.7-6.2-2.5c-3.6-1.4-7.3-2.6-10.9-4
			c-3.5-1.4-6.8-3.2-10.2-4.7c-2.2-1-4.3-1.4-6.7-0.8c-2.9,0.7-5.9,1-8.8,1.5c-1.5,0.2-3,0.3-4.9,0.5c4.2,3.8,8.5,6.5,13.5,8.2
			c3.1,1,3.3,1.4,3.3,4.5c0,0.5,0.3,1.1,0.6,1.3c1.7,1.2,3.4,2.3,5.2,3.3c0.6,0.3,1.6,0.5,2.3,0.2c4.4-1.4,8.7-2.9,13.1-4.3
			C450.6,84.5,453.8,83.7,457,82.9z M407.4,75.6c-0.4,2-0.8,3.6-1,5.2c-0.1,0.6,0.2,1.5,0.6,1.8c4.1,3.6,9.3,5.4,14.3,7.8
			c0.3-1.7,0.5-3.1,0.8-4.4c0.3-1.3-0.2-1.9-1.4-2.5c-3.1-1.4-6.2-3.1-9.2-4.8C410.2,78,409,76.8,407.4,75.6z M403.9,72.9
			c-1.1,0.4-1.8,0.7-2.7,1c0.8,0.8,1.4,1.3,2.3,2.1C403.7,74.8,403.8,74,403.9,72.9z"/>
		<path d="M351.1,95.1c-7.2,0.4-14.3,0.7-21.3,1.1c-1.3,0.1-1.8,0.8-1.8,2.3c0.1,3.4,0.1,6.8,0.1,10.2c0,2.9-0.3,3.2-3.1,3
			c-3.2-0.2-6.5-0.4-9.7-0.8c-0.8-0.1-1.6-0.8-2.1-1.5c-3.6-5-7.1-10.1-10.5-15.2c-0.7-1.1-1.4-2.6-1.3-3.9c0.2-5.9,0.6-11.7,1-17.6
			c0-0.4,0.2-0.7,0.2-1c0.2-2.8,0.6-3.2,3.5-3.6c3.6-0.4,7.2-1,10.8-1.3c6.6-0.6,13.1-1.2,19.7-1.8c0.6,0,1.1-0.1,1.9-0.1
			c0-1.8-0.1-3.6,0-5.3c0.1-2.6,0.3-5.2,0.5-7.8c0.1-1.7,0.9-3.1,2.7-3.4c3.6-0.6,7.2-1.3,10.9-1.6c0.9-0.1,2.3,1,2.7,1.9
			c0.9,2.2,1.4,4.6,1.8,7c0.3,1.8-0.6,2.8-2.5,2.9c-4,0.4-8,0.8-12.2,1.3c0,1.7,0,3.3,0,5.1c0.8,0,1.6,0,2.3,0.2
			c1,0.2,2.1,0.4,3,0.9c5,2.9,9.9,6.1,14.9,8.9c3.2,1.8,5,3.7,4.8,7.7c-0.4,8.5-0.3,17-0.3,25.5c0,3.7-0.8,4.6-4.5,4.5
			c-3,0-5.9-0.3-8.9-0.4c-2.1,0-2.4-1.3-2.4-2.9c0.1-4.1,0.1-8.2,0.1-12.3C351.2,96.6,351.2,96.1,351.1,95.1z M363.2,80.5
			c-0.8,0-1.7,0-2.5,0c-7.1-0.1-14.2-0.3-21.3-0.3c-6.4,0-12.7,0.3-19.1,0.4c-1.9,0-2.5,0.9-2.5,2.6c-0.2,7.2-0.4,14.3-0.6,21.5
			c0,0.7,0.1,1.5,0.1,2.3c2.3,0.2,4.4,0.4,6.7,0.6c0.1-1.2,0.1-2.2,0.1-3.2c0-2.8-0.1-5.5,0.1-8.3c0.1-1.1,0.9-2.6,1.8-2.9
			c2.1-0.8,4.4-1.3,6.6-1.4c6.1-0.3,12.2-0.2,18.3-0.4c3.4-0.1,4,0.4,4,3.8c0,3.9,0,7.8,0.1,11.7c0,0.6,0.6,1.6,1,1.6
			c2.3,0.2,4.6,0.1,7.1,0.1C363.2,99.4,363.2,90.2,363.2,80.5z M338.2,69.3c0.1-0.2,0.2-0.4,0.4-0.6c-9.8,0.1-19.5,1.1-29.4,3.1
			c1.8,1.5,3.5,2.7,5,4.2c1.3,1.3,2.5,2,4.4,1.3c1.5-0.5,3.2-0.7,4.8-0.7c9.4,0,18.8,0.1,28.2,0.1c1.7,0,3.5,0,5.8,0
			c-0.8-0.6-1.1-0.8-1.4-1c-3.4-2.1-6.7-4.2-10.1-6.2c-0.8-0.5-1.9-0.5-2.9-0.8c0.1,0.2,0.2,0.5,0.3,0.7c-0.8,0.9-1.6,1.8-2.4,2.6
			C340,71.1,339.1,70.2,338.2,69.3z M306.5,74.5c-0.3,0.1-0.6,0.2-0.9,0.3c-0.2,5.3-0.3,10.5-0.5,15.8c0,0.3,0.1,0.6,0.2,0.8
			c2.5,3.4,5.1,6.9,7.6,10.3c0.3-0.2,0.4-0.3,0.4-0.3c0.4-6.6,0.7-13.2,1.1-19.9c0-0.2-0.2-0.5-0.4-0.7
			C311.6,78.8,309,76.6,306.5,74.5z M352.8,54.6c-0.7-5-0.8-4.3-4.7-4c-0.7,0.1-1.4,0.2-2.1,0.3c-3.4,0.5-4,1.3-3.4,5.2
			C345.9,55.6,349.3,55.1,352.8,54.6z"/>
		<path d="M346.8,130.6c4.4,0.6,8.9,0.9,13.3,1.8c7.5,1.6,14.9,3.5,22.3,5.3c2.4,0.6,3.5,2.3,4,4.5c0.7,3.3,1,6.6,1.7,9.8
			c1.1,5.2,2.5,10.3,3.6,15.5c0.3,1.3,0.4,3.1-0.3,4.2c-5.1,8.8-11.1,16.9-17.8,24.6c-1,1.2-2.3,1.4-3.7,0.8
			c-8.6-4-18.3-4.4-27.2-7.5c-3.7-1.3-7.3-2.8-10.7-4.6c-1.1-0.6-1.9-2.6-1.9-3.9c0.3-9.8,0.5-19.7,4.3-29
			c2.6-6.3,5.5-12.6,8.1-18.9C343.4,131.1,344.8,130.4,346.8,130.6z M370.5,192.5c0.3-6,0.7-12.3,0.9-18.6c0.1-3.2,0.2-6.5,0.1-9.8
			c0-0.6-0.6-1.6-1.1-1.7c-5.4-1.5-10.8-3-16.2-4.1c-5.1-1.1-10.3-1.6-15.5-2.5c-1.2-0.2-1.9,0-2.1,1.3c-0.9,7.7-1.9,15.4-2.7,23.2
			c-0.1,0.6,0.6,1.7,1.3,2c6.5,3.6,13.7,4.9,20.7,6.8C360.6,190.3,365.4,191.3,370.5,192.5z M381.4,141.7c-0.4-0.3-0.5-0.4-0.6-0.5
			c-10.9-3.3-22.1-5.5-33.5-6.7c-0.5-0.1-1.4,0.5-1.7,1.1c-1.1,1.9-2.1,3.9-3,5.9c-1.5,3.3-2.9,6.7-4.5,10.3
			c1.5,0.4,2.6,0.8,3.7,0.9c9.2,1,18.2,2.6,27,5.5c2.2,0.7,3.5,0.3,4.3-1.9c0.5-1.4,1.5-2.6,2.2-3.8
			C377.5,148.8,379.5,145.2,381.4,141.7z M374.6,188.6c0.2,0.1,0.4,0.3,0.6,0.4c4.2-6.2,8.5-12.5,12.6-18.8c0.3-0.5,0.1-1.5,0-2.2
			c-1.2-5.3-2.4-10.6-3.6-15.9c-0.4-1.8-0.5-3.6-0.9-5.8c-2.6,4.3-5,8.1-7,12c-0.8,1.5-0.9,3.3-1,5c-0.1,1.6,0.2,3.3,0.2,4.9
			C375.3,175,374.9,181.8,374.6,188.6z"/>
		<path d="M412.6,166.1c7.4,0.4,13.3-2.4,18.1-7.6c2.3-2.5,3.7-5.5,3.6-9.1c0-1.3,0.3-2.6,1.9-2.6c1.7,0,1.9,1.4,1.9,2.7
			c-0.1,5.5-2.7,9.8-6.7,13.5c-5,4.4-10.8,6.7-17.4,6.9c-0.7,0-1.3,0.8-2,1.3c-0.5,0.4-1,1.2-1.4,1.1c-2.5-0.4-5.3-0.5-7.5-1.6
			c-2.2-1-2-4.3,0.1-5.4c2.1-1.2,4.4-2.1,6.7-2.6C412.2,162.2,412.3,164.4,412.6,166.1z"/>
		<path d="M315,130.1c0,8,2.3,14.9,8.6,20c1,0.8,1.6,1.7,0.9,2.9c-0.7,1.1-1.9,1.2-3,0.4c-1-0.7-1.9-1.5-2.7-2.4
			c-5.1-5.5-7.5-12.1-7.7-19.5c0-0.9-0.8-1.7-1.1-2.6c-0.3-1-1.1-2.3-0.7-3c1-2,2.4-3.8,3.9-5.4c1.2-1.3,3-0.8,3.6,0.9
			c0.7,2.1,1.3,4.2,1.6,6.4C318.8,130,316.9,130.1,315,130.1z"/>
		<path d="M394.1,59.4c-6.8-3.2-13.7-3.1-20.7-0.6c-0.8,0.3-1.4,1.3-2.2,1.6c-0.7,0.3-2,0.5-2.4,0.1c-0.5-0.4-0.7-1.9-0.3-2.4
			c0.9-1.1,2.1-2.3,3.4-2.8c7.6-2.9,15.3-3.2,22.9,0.3c1.4,0.7,2.7,1.8,4.5,0.6c0.4-0.3,2.1,0.5,2.5,1.1c0.9,1.5,1.4,3.3,1.8,5
			c0.4,1.8-0.9,3-2.8,2.5c-1.4-0.4-2.8-0.8-4.3-1.3C393.8,62.7,393.6,62.4,394.1,59.4z"/>
	</g>
	<g>
		<g>
			<path d="M238.8,49.8c-0.2-4.6-0.8-9-5.1-11.7c-2.3-1.4-4.7-2.6-7.2-3.5c-5.4-2-11-3-16.9-2.7c-6.2,0.3-12.5,0-18.7,0.4
				c-6.1,0.4-12.2,0.3-18.1-1.1c-6.6-1.5-13.2-1.4-19.9-1c-3.9,0.2-5.2,1.2-5.7,5.1c-1.2,8.1-2.3,16.3-3.4,24.4c-0.1,0-0.2,0-0.2,0
				c-1.3,6.8-2.9,13.5-3.8,20.3c-0.7,5.4-1.4,10.9-2,16.3c1.3-0.4,2.7-0.5,4-0.2c0.6-5.2,1.2-10.5,1.8-15.7
				c0.9-7.7,2.8-15.2,4.1-22.8c1.2-6.8,2.2-13.7,3.1-20.6c0.3-2.1,0.9-2.9,3.2-3.1c6.8-0.4,13.6-0.1,20.3,1.5
				c5.3,1.3,10.7,1.1,16,0.8c7.2-0.3,14.4-0.4,21.6-0.4c7,0,13.6,1.9,19.6,5.5c2,1.2,3.2,3.1,3.2,5.4c0.2,6,0.4,12,0.3,18
				c-0.2,9.9-0.6,19.8-1,29.7c-0.5,12-1,24-1.7,36c-0.6,11.4-1.1,22.9-2.2,34.3c-0.7,7-2.3,14-4.1,20.8c-1.2,4.6-2.3,4.8-7,4.5
				c-1-0.1-1.9-0.2-3.1-0.3c0.1-4,0.2-7.8,0.4-11.6c0-0.1,0-0.3,0-0.4c0.3-8-1.4-9.7-9.3-10.2c-7.9-0.5-15.8-1-23.6-2.7
				c-2.6-0.5-5.1-1-7.7-1.4c-3.2,0.6-6.4,0.7-9.1-0.5c-1,0.2-2,0.4-3.1,0.5c-2.1,0.3-3.9,0.1-5.4-0.5c-3.7,0.8-7.5,1.5-11.4,1.4
				c-0.1,0-0.2,0-0.3,0c0,0.1,0,0.2,0,0.4c-0.3,4.8-0.4,9.6-0.6,14.4c-5.2,0.7-9.5-2.9-9.5-8.3c0-2.2,0.1-4.4,0.1-6.6
				c-1.3-0.1-2.7-0.4-3.8-1c0,2.6-0.1,5.3,0,7.9c0,5.6,3,9.6,7.9,11.1c2.8,0.8,5.7,1.2,8.5,1.6c7,0.8,14.1,1.3,21.1,2.4
				c6.6,1,13.2,2.8,19.8,4c4.4,0.8,9,1.2,13.5,1.8c5.9,0.7,11.8,1.5,17.7,2.1c3.3,0.3,5.9-1.3,7.5-4.2c0.9-1.6,1.7-3.3,2-5.1
				c1.6-9.1,3.5-18.1,4.3-27.3c1.1-13.4,1.1-26.9,1.8-40.3c0.5-9.8,1-19.6,1.7-29.5C238.9,75,239.3,62.4,238.8,49.8z M188.5,185.9
				c-1.4-0.2-1.7-1-1.6-2.4c0.1-2.5,0-4.9,0-8.1c6,0.7,11.8,1.3,17.5,2c0.4,0.1,1.2,0.5,1.2,0.9c0.4,3.3,0.7,6.7,1.1,10.4
				C200.4,187.7,194.5,186.8,188.5,185.9z M212,189c-0.2,0.1-0.4,0.2-0.6,0.3c-0.3-0.5-0.9-1-1-1.5c-0.4-3.6-0.7-7.2-1-10.8
				c-0.1-1.8-1.1-2.7-2.9-3.1c-6.7-1.4-13.5-1.9-20.3-1.9c-2.7,0-3.4,0.9-3.3,3.7c0.1,2.9,0.1,5.7,0.2,8.8c-2.4-0.5-4.4-0.8-6.4-1.2
				c1.4-2.6,1-3.5-2-4c-5.2-1-10.3-2-15.5-2.9c-0.8-0.2-1.7-0.3-2.5-0.3c-2.9,0-3.6,1.1-2.2,3.8c-1.8,0-3.3,0-5.2,0
				c0.2-4.7,0.3-9.4,0.5-14c0-1.3,0.6-1.5,1.9-1.5c11.9,0,23.5,2.6,35.1,5c6.7,1.4,13.4,1,20,1.9c0.3,0,0.6,0,0.8,0
				c4.2,0.3,4.8,0.8,4.7,5C212.4,180.5,212.2,184.8,212,189z"/>
			<path d="M218.1,127.9c-0.2-1.4-1.6-3.3-2.8-3.6c-4.6-1.2-9.4-2.6-14.1-2.4c-4.5,0.2-9,0.1-13.5-0.1c-0.1,0.1-0.1,0.3-0.2,0.4
				c0,0.3,0.1,0.7,0.1,1c0.3,0.8,0.6,1.6,0.8,2.5c4,0.2,7.9,0.2,12,0.1c4.3-0.2,8.6,1.1,12.9,1.9c0.5,0.1,1.2,1,1.2,1.5
				c0.3,5.8,0.9,11.7,0.5,17.5c-0.4,5.7-3.7,8.3-9.3,8.5c-5.5,0.2-10.9,0.3-16.4,0.3c-0.3,1.4-0.9,2.7-2,3.8
				c6.2,0,12.5-0.1,18.7-0.3c6.6-0.3,11.3-4.2,12.5-9.9C220.1,142,219.4,134.9,218.1,127.9z"/>
			<path d="M220.9,103.9c-0.1-1.3,0-2.7,0-4c-0.1-4.4-0.2-8.8-0.4-13.2c-0.1-2.5-1.6-4.4-3.9-5c-3-0.8-6.1-1.5-9.2-1.7
				c-7.6-0.3-15.3-0.3-22.9-0.4c-5.5-0.1-11.1,0.3-16.5-0.2c-5-0.5-9.8-0.7-14.8,0.3c-3.9,0.8-4.1,0.9-4.5,4.7c0,0.5-0.2,1-0.2,1.5
				c-0.1,3.2-0.3,6.4-0.5,9.6c1.2-0.2,2.5-0.3,3.8-0.3c0.1-3.1,0.3-6.3,0.4-9.5c0.1-1.4,0.9-2.1,2.1-2.2c3.1-0.3,6.2-0.7,9.3-0.7
				c5.4,0,10.9,0.3,16.3,0.5c4.2,0.2,8.3,0.5,12.5,0.6c4.2,0.1,8.3-0.2,12.5,0c3.2,0.1,6.3,0.6,9.4,1c1.7,0.2,2.4,1.4,2.4,3
				c0.1,4,0.2,7.9,0.3,11.9c0,1.3,0,2.5,0,3.8c0.2,3.3-0.9,6.2-2.9,8.6c-0.6,0.8-1.9,1.5-2.9,1.5c-3.9-0.1-7.8-0.2-11.6-0.7
				c-4.2-0.6-8.3-1.1-12.5-1.1c0.3,1.3,0.6,2.7,0.8,4.2c3.4,0.2,6.8,0.3,10.1,0.5c3.7,0.3,7.3,0.9,11,1.1c2.8,0.1,5.8-0.4,7.7-2.8
				C219.5,111.8,221.2,108.2,220.9,103.9z"/>
			<path d="M213.3,41.2c2.9,0.3,5.9,0.6,8.8,0.8c1.9,0.2,3.3,1,3.5,3c0.2,1.5,0.4,3.1,0.3,4.6c-0.7,6.8-1.4,13.5-2.2,20.2
				c-0.4,2.8-1.3,3.3-4.2,3.1c-7.7-0.5-15.4-0.8-23.1-1.2c-0.8,0-1.7,0.2-2.5,0.4c-1,0.2-1.9,0.5-2.9,0.6c-5.2,0.6-7.1-0.8-7-6
				c0.1-6.6,0.5-13.3,1-19.9c0.1-1.6,0.9-3.3,1.6-4.8c0.6-1.4,1.9-1.9,3.5-1.9c4.2,0,8.3-0.2,12.5-0.2c3.6,0,7.2,0.3,10.7,0.5
				C213.3,40.7,213.3,41,213.3,41.2z M220.2,69.1c0.4-3,0.8-6,1-9c0.4-3.9,0.6-7.8,1-11.6c0.1-1.8-0.3-2.7-2.4-2.7
				c-2.2,0-4.3-0.6-6.5-0.9c-3-0.4-6-1-9-1c-4.4-0.1-8.9,0.2-13.3,0.4c-0.6,0-1.5,0.9-1.5,1.5c-0.6,7-1.1,14.1-1.7,21.1
				c-0.2,2,0.9,2.5,2.6,2.3c0.8-0.1,1.5-0.4,2.3-0.4c2.2-0.2,4.3-0.5,6.5-0.4C206,68.5,212.9,68.8,220.2,69.1z"/>
			<path d="M156.5,48c-0.5-0.7-1.4-1.6-1.3-2.2c0.1-0.7,1.1-1.7,1.9-1.8c1.7-0.2,3.4,0,5.1,0.1c4.4,0.3,8.7,0.6,13.1,1.2
				c0.8,0.1,1.4,1.2,2.1,1.9c-0.6,0.7-1.2,1.7-1.9,1.9c-1.5,0.2-3.1,0-4.6-0.1c-4.6-0.5-9.3-1-13.9-1.5
				C156.8,47.6,156.6,47.8,156.5,48z"/>
			<path d="M158.4,56.6c-1-0.2-2.1-0.1-2.9-0.6c-0.7-0.5-1.1-1.5-1.6-2.3c0.8-0.5,1.7-1.5,2.3-1.3c5.3,1.5,10.7,1,16,0.7
				c1.3-0.1,2.8,0,2.9,1.7c0.1,1.9-1.4,2-2.8,2c-4.6,0.1-9.3,0.2-13.9,0.3C158.4,57,158.4,56.8,158.4,56.6z"/>
			<path d="M157.2,174.1c-1.4-0.4-2.8-0.7-2.6-2.4c0.3-1.6,1.6-1.5,2.9-1.4c4.9,0.3,9.7,0.5,14.6,0.7c1.3,0.1,2.7,0.4,2.6,2.1
				c-0.1,1.6-1.4,1.8-2.6,1.7C167,174.5,162,174.3,157.2,174.1z"/>
			<path d="M211.9,145.4c-0.2-3-0.3-5.9-0.5-8.9c-0.1-1.8-0.4-3.6-0.8-5.4c-0.4-2.2-1.9-3.1-4-3c-1.4,0-2.9,0.3-4.2,0.1
				c-4.6-0.7-9.1-1-13.6-0.6c0.2,1.2,0.3,2.5,0.4,3.8c0.9-0.1,1.8-0.2,2.7-0.2c4.7,0.1,9.3,0.4,13.9,0.8c0.5,0,1.2,0.6,1.3,1
				c0.3,1.2,0.4,2.4,0.4,3.6c0.2,2.9,0.2,5.8,0.4,8.7c0.2,2.5,0.1,2.6-2.5,2.6c-3.2,0-6.4-0.1-9.5-0.2c-1.7,0-3.4-0.1-5.3-0.1
				c0.3,1.4,0.3,2.6,0.1,3.8c1.3,0,2.5,0,3.8,0c4,0.1,7.9,0.3,11.9,0.2C210.9,151.4,212.2,149.8,211.9,145.4z"/>
			<path d="M192.6,109.3c-0.7-0.1-1.4-0.3-2.1-0.4c-4.4-0.8-5.4-1.9-5.2-6.4c0.2-4.4,0.7-8.9,1.1-13.3c0.2-2.2,1.5-3.6,3.5-3.6
				c6,0,12-0.1,18,0.4c3.5,0.3,4.8,1.8,4.9,5.3c0.2,5.1,0.1,10.3-0.1,15.4c-0.1,2.7-1.1,3.3-3.8,3.2c-5.4-0.1-10.9-0.3-16.3-0.4
				C192.6,109.5,192.6,109.4,192.6,109.3z M195.6,105.8c2.5,0.1,7,0,11.4,0.3c1.8,0.1,2.3-0.4,2.3-2c0-3.8-0.1-7.6,0-11.4
				c0-2.2-1-3.3-3.2-3.3c-4.9-0.1-9.9-0.1-14.8-0.1c-0.4,0-1.2,0.8-1.2,1.3c-0.4,3.2-0.8,6.4-0.9,9.7C188.9,105,189,105,195.6,105.8
				z"/>
			<path d="M169,90c2.9,0.4,5.9,0.8,8.8,1.3c1.2,0.2,2.3,0.7,2.1,2.2c-0.2,1.6-1.5,1.7-2.8,1.5c-5.6-0.9-11.1-1.9-16.7-2.9
				c-0.4-0.1-1-0.1-1.2-0.4c-0.6-0.7-1.1-1.5-1.7-2.3c0.8-0.4,1.7-1.3,2.5-1.2c3,0.4,6,1.1,9,1.6C169,89.9,169,90,169,90z"/>
			<path d="M168.2,95.9c4.1,0.2,7.5,1.3,10.3,3c0-1-1-1.5-2-1.7c-5.5-1.1-11-2.1-16.5-3.2c-1.2-0.2-2.3-0.1-2.7,1
				C161.4,95.3,165.2,95.8,168.2,95.9z"/>
		</g>
		<g>
			<path d="M101,163.4c6.4-4.2,12.7-8.2,19-12.4c0.6-0.4,1-1.5,1-2.3c0.2-10.7,0.2-21.4,0.6-32.1c0.1-3.6-0.1-6.4-3.8-8.1
				c-2.1-0.9-3.9-2.5-6.1-4c-0.5,1.2-0.9,2.2-1.3,3.2c-1.7,4-4.5,6.1-9,6c-14.3-0.4-28.6-0.5-42.9-0.9c-2.2-0.1-4.5-0.7-6.5-1.6
				c-3.3-1.6-4.5-4.7-4.8-8.2c-1.3-12-1-24.1-0.6-36.1c0.1-3.3,0-6.6-0.3-9.9c-0.6-6.7,3.1-11.1,9.8-11c12.5,0.2,25.1,0.3,37.6,0.8
				c3.4,0.1,6.9,1.1,10.1,2.1c3.9,1.2,5.8,4.5,6.3,8.4c0.8,6.2,1.5,12.4,2,18.6c0.5,6.4,0.7,12.9,1.1,19.3c0,0.4,0.1,0.9-0.1,1.3
				c-1.3,3.4,0.6,5.1,3.2,6.6c1.9,1.1,3.7,2.4,5.2,3.4c1.8-3,3.4-5.8,5.1-8.6c1.2-1.9,3.1-2.7,5.4-3c9.7-1.7,19.4-0.7,29.1-0.3
				c4.5,0.2,9,0,13.4,0.6c7.7,1,12.8,6.2,14.4,13.9c2.8,13.4,3.4,27,3.4,40.6c0,4.2-0.4,8.4-3.9,11.5c-2.3,2.1-4.9,3-7.9,3.2
				c-9.7,0.7-19.3,1.7-29,2.1c-5.9,0.3-11.9,0.4-17.8-0.4c-5.9-0.8-10.4-4-11.3-10.6c0-0.3-0.2-0.5-0.4-1.1c-1.7,1.1-3.3,2-4.8,3.1
				c-4.6,3-9.1,6-13.7,9c-1.3,0.8-1.5,1.8-1.1,3.2c2.3,9.2,2.8,18.5,1,27.8c-1,5.1-3.3,7.2-8.4,7.9c-1.8,0.3-3.7,0.3-5.5,0.5
				c-8.8,1.2-17.7,2.2-26.6,2c-4.6-0.1-9.3,0.8-14,0.9c-6.9,0-12.6-3.8-13.8-11.2c-1.8-10.6-2.6-21.4-2.5-32.2
				c0.1-4.1,0-8.2-0.3-12.3c-0.5-5.9,4-10.5,9.6-13.3c3.9-2,8.2-1.2,12.3-1.5c4.3-0.3,8.6-0.5,12.8-1.3c7.5-1.5,15-1.1,22.4,0.4
				c4.6,0.9,7.6,3.8,8.4,8.7C98.7,151.8,99.9,157.5,101,163.4z M155,98.1c0-0.2,0-0.4,0-0.6c-7.3,0.4-14.7,0.7-22,1.1
				c-1.8,0.1-3,0.9-4,2.3c-2.4,3.3-3.8,6.9-3.5,11.1c0.1,1.2,0,2.4-0.1,3.6c-0.3,8.8-0.9,17.6-0.9,26.3c0,4.8,1,9.7,1.9,14.5
				c0.3,1.4,1.6,2.8,2.7,3.8c2.6,2.3,5.8,2.7,9.2,2.7c14.2-0.1,28.3-0.8,42.4-2.3c4.1-0.5,6.4-2.5,7.2-6.5c0.2-1.2,0.5-2.4,0.5-3.6
				c0-13.7-0.5-27.3-3.4-40.8c-1.3-6.2-5-10-11.3-10.7C167.5,98.3,161.3,98.3,155,98.1z M36.1,166.7c-0.2,10,1,19.8,2.4,29.6
				c0.8,5.7,4.7,8.7,10.3,8.6c4.7-0.1,9.3-1,14-0.8c9,0.3,17.8-0.9,26.6-2c1.8-0.2,3.5-0.3,5.3-0.5c2.7-0.2,4.2-1.8,4.8-4.3
				c1.4-6.1,1.5-12.3,0.6-18.4c-1.7-10.8-4.1-21.5-6.1-32.3c-0.5-2.9-2.3-4.7-4.9-5.2c-6.3-1.4-12.8-2.1-19.2-0.8
				c-6.3,1.3-12.6,2.2-19,1.7c-5.1-0.4-9.5,1-12.7,5c-1,1.3-1.9,3.1-2,4.7C36,156.7,36.1,161.7,36.1,166.7z M80.5,109.2
				c0,0.2,0,0.5,0,0.7c6.9,0,13.7,0,20.6,0c3.7,0,4.7-0.6,6-4.1c2.1-5.5,2.6-11.2,2.2-16.9c-0.4-6.4-1-12.7-1.6-19.1
				c-0.4-4.2-0.9-8.3-1.5-12.4c-0.4-2.5-1.6-4.5-4.2-5.1c-2.9-0.7-5.8-1.6-8.7-1.7c-12.4-0.4-24.9-0.5-37.4-0.7
				c-4.3-0.1-6.1,2.2-5.9,6.5c0.2,4,0.4,8,0.3,12c-0.4,11.4-0.6,22.8,0.6,34.2c0.4,4.2,2.2,6,6.4,6.5c1.1,0.1,2.3,0.2,3.4,0.2
				C67.3,109.2,73.9,109.2,80.5,109.2z"/>
			<path d="M150.3,142c3.5,0.2,6.6,0.3,9.8,0.5c1,0.1,2.3,0,3.1,0.6c0.7,0.4,1.2,1.6,1.1,2.4c0,0.5-1.3,1.2-2.1,1.2
				c-4.2-0.1-8.3-0.5-12.5-0.6c-3.7-0.1-4.7-1.3-3.2-4.8c2.4-5.8,5.1-11.5,7.7-17.3c0.7-1.7,1.5-3.4,1.8-5.2
				c0.2-1.1-0.3-2.5-0.9-3.4c-0.9-1.3-2.2-1-3.1,0.3c-0.2,0.3-0.4,0.7-0.6,1.1c-0.5,1.3-1.2,2.3-2.7,1.6c-1.3-0.6-1.2-1.9-0.8-3.1
				c1.2-3.3,3.6-4.8,6.9-4.4c2.4,0.3,5.3,3.3,5.1,6c-0.3,2.9-1.1,5.8-2.2,8.5c-2.1,5.2-4.6,10.3-7,15.5
				C150.6,141.1,150.5,141.4,150.3,142z"/>
			<path d="M64.6,157.9c-1.9,0.1-3.5,0.2-5.1,0.3c-0.8,0-1.7,0.2-2.3-0.1c-0.6-0.3-1.4-1.1-1.4-1.7c-0.1-0.5,0.8-1.6,1.3-1.6
				c3.7-0.4,7.3-0.7,11-0.7c1.9,0,2.6,1.8,1.4,3.6c-1,1.7-2.2,3.2-3.5,5.1c4,1,6.7,3.1,8.4,6.6c1.6,3.4,2.8,6.8,2.6,10.6
				c-0.3,4.9-7.2,11.4-12.1,11.1c-0.7,0-1.7-0.9-1.8-1.6c-0.3-1.3,0.6-2.2,1.9-2.3c3.1-0.2,4.9-2.2,6.6-4.4c1.4-1.8,2.1-3.8,1.4-5.7
				c-1-3-2.3-5.8-3.9-8.5c-1.1-1.8-3.1-1.9-5.1-1.5c-0.9,0.2-2.3-0.1-2.8-0.7c-0.5-0.6-0.3-2,0.1-2.9
				C62.2,161.7,63.3,160,64.6,157.9z"/>
			<path d="M77.1,68.2c-1.4,1.9-2.4,3.3-3.5,4.8c-0.8,1.1-1.9,2-2.9,0.9c-0.5-0.5-0.6-2.2-0.1-2.9c1.8-3,3.8-5.8,5.9-8.5
				c0.5-0.7,1.8-1.3,2.4-1.1c0.8,0.3,1.6,1.5,1.7,2.3c0.4,3.5,0.6,7.1,0.9,10.6c0.4,6.1,0.7,12.2,1.1,18.2c0.1,1.3,0.2,2.8-1.5,3
				c-1.9,0.3-2.2-1.3-2.3-2.6c-0.5-7.5-1-15-1.5-22.5C77.3,69.9,77.2,69.3,77.1,68.2z"/>
		</g>
	</g>
	<g>
		<g>
			<path d="M319.9,145c1.3,0.6,2.6,1.1,4,1.4c0.7,0.1,1.5,0.2,2.2,0.3c0.5,0,1-0.1,1.4-0.5c0.3-0.3,0.5-0.8,0.5-1.3
				c-0.1-0.8-0.4-1.5-0.6-2.2c-0.2-0.7-0.4-1.4-0.6-2.1c-0.3-0.8-0.5-1.7-1.5-2c-0.9-0.2-1.7,0.4-2.3,0.9c-1.2,0.9-2.1,2-2.8,3.3
				c-0.3,0.6-0.2,1.4,0.4,1.7c0.6,0.3,1.4,0.2,1.7-0.4c0.2-0.4,0.5-0.8,0.7-1.2c0,0,0.1-0.1,0.1-0.1c-0.2,0.2,0,0.1,0,0
				c0.1-0.1,0.1-0.2,0.2-0.3c0.2-0.2,0.3-0.4,0.5-0.5c0.2-0.2,0.3-0.3,0.5-0.5c0.2-0.2-0.1,0.1,0.1,0c0.1-0.1,0.2-0.2,0.3-0.2
				c0.1-0.1,0.3-0.1,0.3-0.2c-0.1,0.1-0.5,0-0.4,0c-0.3,0-0.4-0.1-0.6-0.3c0.1,0.1,0,0,0-0.1c0,0,0,0.1,0,0.1c0,0.1,0.1,0.3,0.1,0.4
				c0.4,1.1,0.7,2.3,1.1,3.4c0,0.1,0.1,0.3,0.1,0.4c0,0,0,0.1,0,0.1c0.1,0.1,0-0.2,0-0.1c0,0.2,0.1-0.4,0.1-0.4
				c0.1-0.1,0.2-0.1,0.4-0.2c0.4-0.2,0.5-0.2,0.3-0.2c-0.1,0-0.3,0-0.5,0c-0.3,0-0.5,0-0.8-0.1c0.2,0,0,0-0.1,0
				c-0.1,0-0.3,0-0.4-0.1c-0.6-0.1-1.2-0.3-1.8-0.5c-0.3-0.1-0.6-0.2-0.8-0.3c-0.1-0.1,0,0,0,0c-0.1,0-0.2-0.1-0.3-0.1
				c-0.2-0.1-0.3-0.1-0.5-0.2c-0.6-0.3-1.4-0.2-1.7,0.4C319.1,143.8,319.2,144.7,319.9,145L319.9,145z"/>
		</g>
	</g>
	<g>
		<g>
			<path d="M436,140.1c0.5-0.8,1-1.5,1.6-2.3c0.1-0.2,0.3-0.4,0.4-0.6c0.1-0.1,0.1-0.2,0.2-0.3c0-0.1,0.3-0.3,0.1-0.1
				c0,0,0,0,0.1-0.1c-0.4,0.3-0.8,0.4-1.1,0.1c-0.1-0.1-0.1-0.1,0,0c0,0,0.1,0,0.1,0.1c0.2,0.1,0.3,0.3,0.4,0.4
				c0.3,0.3,0.5,0.6,0.8,0.9c-0.2-0.2,0,0.1,0.1,0.1c0.1,0.1,0.1,0.1,0.2,0.2c0.1,0.2,0.2,0.3,0.3,0.5c0.2,0.3,0.4,0.7,0.6,1
				c0.1,0.2,0.2,0.4,0.3,0.6c-0.1-0.2,0,0,0,0.1c0,0.1,0.1,0.2,0.1,0.3c0.4-0.5,0.8-1.1,1.2-1.6c-2.1-0.2-4.2-0.4-6.3-0.6
				c-0.7-0.1-1.3,0.6-1.3,1.3c0,0.7,0.6,1.2,1.3,1.3c2.1,0.2,4.2,0.4,6.3,0.6c0.8,0.1,1.5-0.9,1.2-1.6c-0.7-1.9-1.8-3.7-3.3-5.1
				c-0.5-0.5-1.2-0.9-1.9-0.7c-0.7,0.2-1.1,0.9-1.5,1.5c-0.6,0.9-1.2,1.8-1.9,2.7c-0.4,0.5-0.1,1.4,0.4,1.7
				C434.9,140.9,435.6,140.7,436,140.1L436,140.1z"/>
		</g>
	</g>
	<g>
		<g>
			<path d="M369,50.5c0.2,0.2,0.5,0.4,0.7,0.7c0.1,0.1,0.2,0.2,0.3,0.3c0.1,0.1,0.1,0.1,0.2,0.2c0,0,0.1,0.1,0.1,0.1
				c0.1,0.1,0.1,0.1,0,0c-0.1-0.1-0.1-0.1,0,0c0,0,0,0,0,0.1c0,0.1,0.1,0.1,0.1,0.2c0.1,0.1,0.2,0.3,0.3,0.4
				c0.2,0.3,0.3,0.5,0.5,0.8c0.2-0.6,0.5-1.2,0.7-1.8c-0.6,0.2-1.2,0.4-1.9,0.6c-0.1,0-0.2,0-0.3,0c-0.1,0-0.4,0,0,0
				c-0.2,0-0.3,0-0.5,0.1c-0.1,0-0.1,0-0.2,0c-0.1,0-0.3,0,0,0c0.1,0,0.1,0,0,0c0.1,0,0.2,0.1,0.3,0.1c0.2,0.2,0.4,0.5,0.3,0.7
				c0,0.2,0,0,0,0c0-0.1,0.1-0.1,0.1-0.2c0.1-0.2,0.1-0.3,0.2-0.5c0.1-0.3,0.3-0.7,0.4-1c0.3-0.7,0.6-1.3,0.8-2
				c-0.6,0.2-1.2,0.5-1.8,0.7c-0.3-0.2,0,0,0,0c0.1,0.1,0.2,0.1,0.2,0.2c0.2,0.1,0.3,0.3,0.5,0.4c0.3,0.3,0.6,0.6,0.8,0.9
				c0,0,0.1,0.1,0.1,0.1c-0.1-0.2-0.1-0.2-0.1-0.1c0.1,0.1,0.1,0.2,0.2,0.2c0.1,0.2,0.2,0.3,0.3,0.5c0.2,0.3,0.4,0.7,0.6,1.1
				c0.3,0.6,1.2,0.8,1.7,0.4c0.6-0.4,0.7-1.1,0.4-1.7c-0.8-1.7-2.1-3.2-3.6-4.4c-0.3-0.2-0.8-0.2-1.1-0.1c-0.4,0.2-0.6,0.4-0.7,0.8
				c-0.3,0.8-0.6,1.6-1,2.3c-0.4,0.9-1,1.9-0.5,2.9c0.6,1.1,1.9,0.9,2.9,0.7c0.8-0.1,1.5-0.3,2.3-0.6c0.4-0.2,0.6-0.3,0.8-0.7
				c0.2-0.4,0.1-0.7-0.1-1.1c-0.6-1.2-1.5-2.4-2.5-3.3c-0.5-0.4-1.3-0.5-1.8,0C368.5,49.2,368.4,50,369,50.5L369,50.5z"/>
		</g>
	</g>
	<g>
		<g>
			<g>
				<path d="M803.8,38.4c-4.4,0.9-9.1,1.9-13,4.3c-3.8,2.4-5.6,6-6,10.5c-0.2,2.9,0.1,5.9,0.3,8.8c0.2,3.1,0.4,6.3,0.6,9.4
					c0.4,6.2,0.8,12.4,1.3,18.6c1.9,24.9,4.2,49.8,6.8,74.7c0.7,6.3,0.8,13.2,3.6,19c2.3,4.7,7.8,7.5,12.8,8.1
					c1,0.1,1.9-0.9,1.9-1.9c0-1.1-0.9-1.8-1.9-1.9c-4-0.5-8.1-3-9.8-6.7c-2.2-4.9-2.3-10.7-2.9-15.9c-1.2-11.7-2.4-23.4-3.5-35.1
					c-2.2-23.5-4-47-5.4-70.6c-0.3-4.6-1-10.1,3.1-13.3c3.6-2.7,8.6-3.6,12.9-4.5C807.1,41.5,806.1,37.9,803.8,38.4L803.8,38.4z"/>
			</g>
		</g>
		<g>
			<g>
				<path d="M810.2,191.8c6.2,0.1,12.1-1.7,18-3.1c3.1-0.7,6.2-1.3,9.4-1.4c3.3-0.2,6.5-0.1,9.8-0.1c13.2-0.2,26.4-1.2,39.5-3
					c4.7-0.6,11-1.8,11.1-7.7c0.1-2.4-3.7-2.4-3.8,0c0,1.7-1.3,2.5-2.7,3c-2.1,0.7-4.4,1-6.6,1.2c-6.2,0.8-12.5,1.4-18.7,1.9
					c-6.3,0.5-12.5,0.7-18.8,0.8c-6.1,0.1-12.1,0-18.2,1.3c-6.3,1.3-12.5,3.6-19,3.4C807.8,188,807.8,191.8,810.2,191.8L810.2,191.8
					z"/>
			</g>
		</g>
		<g>
			<g>
				<path d="M804.8,42c14.1-2.6,28.4-4.3,42.7-4.9c7.1-0.3,14.3-0.4,21.4-0.2c1.6,0,3.2,0,4.8,0.2c1.6,0.3,2.4,1.2,3,2.6
					c1.3,2.9,2.2,6.2,3.1,9.3c1.9,6.6,3.4,13.4,4.3,20.2c1,7,1.2,13.9,1.5,21c0.3,7.1,1.5,14.1,2.5,21.1c1.1,7,1.3,14.1,1.6,21.2
					c0.7,14.7,4.4,29.1,4.5,43.9c0,2.4,3.8,2.4,3.8,0c0-7.2-0.9-14.4-1.9-21.6c-0.9-6.1-1.9-12.2-2.3-18.4
					c-0.5-7.4-0.5-14.9-1.4-22.3c-0.9-7.2-2.4-14.2-2.8-21.5c-0.4-7.3-0.5-14.6-1.4-21.8c-0.9-7.1-2.3-14.1-4.2-21
					c-1-3.4-2-6.9-3.3-10.2c-1-2.8-2.5-5.3-5.6-6c-1.6-0.4-3.3-0.3-4.9-0.4c-1.9-0.1-3.9-0.1-5.8-0.1c-3.7,0-7.5,0-11.2,0.1
					c-16.6,0.4-33.1,2.2-49.3,5.2C801.4,38.8,802.4,42.5,804.8,42L804.8,42z"/>
			</g>
		</g>
		<g>
			<g>
				<path d="M792.7,52.4c0,13.4,1,26.8,2,40.1c1.3,18,2.9,36.1,4.6,54.1c0.9,9.6,2,19.2,3.1,28.8c0.1,1,0.8,1.9,1.9,1.9
					c0.9,0,2-0.9,1.9-1.9c-2-17.6-3.8-35.2-5.3-52.8c-1.5-16.8-2.8-33.7-3.7-50.5c-0.3-6.6-0.7-13.1-0.7-19.7
					C796.5,49.9,792.7,49.9,792.7,52.4L792.7,52.4z"/>
			</g>
		</g>
		<g>
			<g>
				<path d="M795.5,54c9.1-4.1,19.5-5,29.3-6c10.7-1.1,21.3-1.6,32-2.1c5.2-0.2,10.5-1.7,15.7-0.8c2.4,0.4,3.4-3.2,1-3.6
					c-4.8-0.9-9.5,0-14.3,0.5c-5.5,0.5-11,0.4-16.4,0.8c-10.9,0.6-21.9,1.6-32.7,3.3c-5.7,0.9-11.3,2.3-16.5,4.7
					c-0.9,0.4-1.1,1.8-0.7,2.6C793.5,54.3,794.6,54.4,795.5,54L795.5,54z"/>
			</g>
		</g>
		<g>
			<g>
				<path d="M871.3,43.8c2.9,7.1,3.9,14.7,4.7,22.3c0.8,8,1.6,16.1,2.4,24.1c1.6,16.1,3.2,32.3,5.1,48.4c1.1,9.2,2.3,18.3,3.5,27.4
					c0.1,1,1.4,1.6,2.3,1.3c1.1-0.3,1.4-1.3,1.3-2.3c-4.4-32.3-7.5-64.7-10.7-97.1c-0.8-8.5-1.7-17.1-5-25.1
					c-0.4-0.9-1.2-1.6-2.3-1.3C871.7,41.8,870.9,42.9,871.3,43.8L871.3,43.8z"/>
			</g>
		</g>
		<g>
			<g>
				<path d="M804.2,177.3c5.7,0,11.4-0.9,17-2.1c2.3-0.5,4.4-0.9,6.8-1c2.2-0.1,4.3-0.1,6.5-0.3c1.2-0.1,2.3-0.3,3.4-0.6
					c0.8-0.3,1.7-0.7,2.5-0.8c1.4-0.2,2.9,0.1,4.3,0.1c1.6,0.1,3.3,0.1,4.9,0.1c6.5,0,12.9-0.6,19.4-1.2c6.9-0.6,13.9-1.2,20.4-3.4
					c2.3-0.8,1.3-4.4-1-3.6c-5.8,2-11.9,2.7-18,3.2c-6.3,0.6-12.7,1.1-19.1,1.3c-3.1,0.1-6.2,0-9.3-0.2c-1.1-0.1-2.2,0-3.3,0.3
					c-1,0.3-1.9,0.7-2.9,0.9c-2,0.5-4.3,0.3-6.4,0.4c-2.2,0.1-4.3,0.2-6.5,0.6c-6.2,1.2-12.4,2.5-18.7,2.6
					C801.8,173.5,801.8,177.3,804.2,177.3L804.2,177.3z"/>
			</g>
		</g>
		<g>
			<g>
				<path d="M841.8,177.2c0.1,2.2,0.6,4.9,2.6,6.3c1.3,0.9,3,0.7,4.5,0.4c1.4-0.3,2.9-0.6,4.3-1c0.6-0.1,1.2-0.7,1.3-1.3
					c0.3-1.6,0.6-3.3,0-4.9c-0.7-1.8-2.2-3-4-3.4c-2.9-0.8-6.3,0.2-8.1,2.6C842,176.3,841.8,176.7,841.8,177.2c0,0.5,0.2,1,0.5,1.3
					c0.7,0.6,2,0.8,2.7,0c0.2-0.2,0.3-0.4,0.5-0.6c0.1-0.1,0.2-0.2,0.3-0.3c0.1-0.1,0.1-0.1-0.1,0.1c0.1-0.1,0.1-0.1,0.2-0.1
					c0.2-0.1,0.4-0.3,0.6-0.4c0.1-0.1,0.2-0.1,0.3-0.2c-0.3,0.2-0.2,0.1,0,0c0.2-0.1,0.5-0.2,0.7-0.2c0,0,0.4-0.1,0.4-0.1
					c-0.3,0-0.3,0-0.1,0c0.1,0,0.1,0,0.2,0c0.3,0,0.5,0,0.8,0c0,0,0.1,0,0.1,0c0.2,0,0.2,0-0.1,0c0,0,0.4,0.1,0.4,0.1
					c0.2,0.1,0.5,0.1,0.7,0.2c0.4,0.1-0.3-0.2,0,0c0.1,0.1,0.3,0.1,0.4,0.2c0.1,0,0.2,0.1,0.2,0.2c-0.2-0.1-0.2-0.2-0.1-0.1
					c0.1,0.1,0.2,0.2,0.3,0.3c0.1,0.1,0.1,0.1-0.1-0.1c0,0.1,0.1,0.1,0.1,0.2c0.2,0.4,0-0.2,0.1,0.1c0,0.1,0.1,0.3,0.1,0.4
					c0,0,0,0.1,0,0.1c0,0.2,0,0.2,0-0.1c0,0,0,0.4,0,0.4c0,0.1,0,0.3,0,0.4c0,0.1,0,0.3,0,0.4c0,0.4,0.1-0.3,0,0.1
					c-0.1,0.3-0.1,0.7-0.2,1c0.4-0.4,0.9-0.9,1.3-1.3c-1.2,0.3-2.5,0.6-3.7,0.8c-0.3,0.1-0.5,0.1-0.8,0.2c-0.1,0-0.4,0.1-0.5,0.1
					c0.1,0,0.1,0,0.2,0c-0.1,0-0.2,0-0.2,0c-0.1,0-0.3,0-0.4,0c-0.1,0-0.2,0-0.2,0c-0.1,0-0.1,0,0.1,0c0,0-0.5-0.2-0.2,0
					c0.2,0.1-0.1-0.1-0.1-0.1c-0.2-0.1,0.3,0.3,0.1,0.1c0-0.1-0.1-0.2-0.2-0.2c0.1,0.1,0.2,0.4,0.1,0.1c0-0.1-0.1-0.2-0.1-0.2
					c-0.1-0.1-0.1-0.2-0.1-0.3c-0.2-0.3,0.1,0.3,0,0.1c-0.1-0.2-0.1-0.4-0.2-0.6c-0.1-0.4-0.2-0.8-0.3-1.3c0-0.1-0.1-0.4,0-0.1
					c0.1,0.3,0,0,0-0.1c0-0.2,0-0.4,0-0.6c0-1-0.8-1.9-1.9-1.9C842.7,175.4,841.7,176.2,841.8,177.2L841.8,177.2z"/>
			</g>
		</g>
		<g>
			<g>
				<path d="M806.5,91.9c1.5,7.6,3.4,15.1,5.5,22.6c1.1,3.7,2.2,7.4,3.4,11.1c0.5,1.5,0.9,3.1,1.9,4.4c1,1.3,2.5,2.1,4.1,2.4
					c3.5,0.6,6.6-1.2,10-1.9c3.5-0.7,7.1-0.3,10.6-0.4c3.9,0,7.9-0.3,11.8-0.7c3.3-0.3,7.4,0,9.9-2.6c2.2-2.3,2.7-5.8,3.4-8.8
					c0.9-3.8,1.6-7.6,2.3-11.4c0.7-3.8,1.3-7.6,1.8-11.4c0.4-3.4,0.7-6.8-0.3-10.1c-1.7-6.2-7.3-10-12.6-13.1
					c-3.1-1.8-6.2-3.5-9.5-4.7c-3.5-1.3-7.2-1.6-11-1.5c-7.4,0.2-14.9,1.9-20.7,6.8c-2.8,2.4-5.2,5.4-7.1,8.5c-1.9,3-3.5,6.4-3.7,10
					c-0.1,2.4,3.6,2.4,3.8,0c0.2-2.8,1.6-5.5,3-7.8c1.5-2.5,3.3-4.8,5.3-6.8c4.3-4.3,10.1-6.2,16.1-6.8c3.1-0.3,6.4-0.4,9.5,0.1
					c3.2,0.6,6.1,1.9,9,3.4c4.7,2.5,10.2,5.3,13.1,9.9c3.3,5.4,1.3,12.7,0.3,18.5c-0.6,3.5-1.2,7-2,10.5c-0.6,3.1-1.2,6.3-2.1,9.3
					c-0.3,1.1-0.8,2.3-1.7,3c-1.2,0.9-3,0.8-4.4,0.9c-3.6,0.3-7.2,0.6-10.8,0.8c-3.3,0.1-6.7,0-10,0.1c-1.6,0-3.2,0.2-4.8,0.5
					c-1.7,0.3-3.3,1-5,1.5c-1.3,0.4-2.9,0.7-4.2,0.2c-1.4-0.6-1.8-2.2-2.2-3.5c-1.2-3.7-2.4-7.4-3.4-11.1
					c-2.2-7.6-4.1-15.3-5.6-23.1C809.6,88.5,806,89.5,806.5,91.9L806.5,91.9z"/>
			</g>
		</g>
		<g>
			<g>
				<path d="M813.4,91c0.5,2.2,1.2,4.3,2.1,6.4c0.7,1.8,1.6,4.3,4,4.2c1,0,2-0.6,3-1c1.1-0.5,2.2-1,3.4-1.5c2-0.9,4-1.8,6.1-2.5
					c8.1-2.8,16.9-2.2,24.5,1.8c1.1,0.6,2.3,0,2.8-1.1c1-2.6,1.9-5.1,2.7-7.7c0.7-2.2,2.3-5.2,1.3-7.4c-0.9-2.1-3.7-2.9-5.6-3.7
					c-2.4-1.1-4.9-2.2-7.4-3.1c-4.9-1.7-10.3-2.7-15.5-2.4c-4.8,0.3-8.7,2.7-12.4,5.6c-3.9,3-7.5,6.7-8.8,11.6c-0.6,2.3,3,3.3,3.6,1
					c0.9-3.5,3.4-6.2,6.1-8.5c2.8-2.4,6.3-5,10-5.7c4.2-0.8,9,0,13.1,1.1c4.4,1.2,8.7,3.1,12.7,5.2c1,0.5,0.8,0.6,0.5,1.7
					c-0.4,1.2-0.8,2.5-1.1,3.7c-0.8,2.6-1.7,5.2-2.7,7.7c0.9-0.4,1.8-0.7,2.8-1.1c-7.2-3.9-15.7-5.1-23.7-3.2
					c-4.2,0.9-8.1,2.8-11.9,4.5c-0.9,0.4-2.2,0.7-2.9,1.3c-0.5,0.1-0.5,0.2,0.2,0.4c-0.1-0.1-0.2-0.3-0.2-0.4
					c-0.1-0.4-0.4-0.8-0.6-1.2c-0.9-2.1-1.6-4.2-2.1-6.4C816.5,87.7,812.8,88.6,813.4,91L813.4,91z"/>
			</g>
		</g>
		<g>
			<g>
				<path d="M836.8,92.2c0.5-3.5,1.3-6.9,2.3-10.2c-1.2,0-2.4,0-3.6,0c1.3,3.5,2.5,7,3.8,10.5c0.3,0.9,1.3,1.6,2.3,1.3
					c0.9-0.3,1.7-1.3,1.3-2.3c-1.3-3.5-2.5-7-3.8-10.5c-0.3-0.8-0.9-1.4-1.8-1.4c-0.8,0-1.6,0.6-1.8,1.4c-1,3.3-1.8,6.8-2.3,10.2
					c-0.1,1,0.2,2.1,1.3,2.3C835.4,93.7,836.7,93.3,836.8,92.2L836.8,92.2z"/>
			</g>
		</g>
		<g>
			<g>
				<path d="M899.1,131.5c-0.4,2.3-0.6,4.6-0.7,6.9c-0.1,2.1,0.5,3.9,2.8,4.3c2.3,0.4,4.7,0.3,7,0.5c2.4,0.1,4.8,0.3,7.2,0.4
					c9.6,0.5,19.2,0.9,28.8,1.1c2.4,0.1,4.8,0.1,7.2,0.1c2.2,0,4.3,0,5.4-2.2c0.9-1.9,1.1-4.3,1.4-6.3c0.2-1.9,0.4-4-1.1-5.5
					c-1.4-1.3-3.5-1.4-5.3-1.6c-2.5-0.3-4.9-0.6-7.4-0.9c-4.7-0.5-9.4-0.9-14-1.1c-5.3-0.3-10.6-0.3-15.9-0.2
					c-4.8,0.1-9.7,0.6-14,2.9c-2.1,1.2-0.2,4.4,1.9,3.2c3.2-1.7,6.8-2.2,10.3-2.3c4-0.2,8-0.1,12,0c8.2,0.2,16.5,0.8,24.6,1.8
					c1,0.1,2,0.3,2.9,0.4c0.6,0.1,1.5,0.1,2,0.4c0.5,0.3,0.4,0.8,0.3,1.3c-0.1,1-0.2,2.1-0.4,3.1c-0.1,0.7-0.3,1.5-0.5,2.2
					c-0.2,0.9-0.1,1.1-1.1,1.1c-2.1,0-4.3-0.1-6.5-0.1c-8.3-0.2-16.5-0.5-24.8-0.8c-4.6-0.2-9.3-0.5-13.9-0.7
					c-1.2-0.1-2.3-0.1-3.5-0.2c-0.5,0-1-0.1-1.5-0.1c-0.2,0-0.5,0-0.7,0c0.2,0.5,0.3,0.5,0.3,0.1c0.1-0.3,0-1.1,0-1.4
					c0-0.6,0.1-1.3,0.1-1.9c0.1-1.1,0.2-2.2,0.4-3.3C903.1,130.2,899.5,129.2,899.1,131.5L899.1,131.5z"/>
			</g>
		</g>
		<g>
			<g>
				<path d="M909.1,127.6c0-5.3,0-10.6,0.1-15.9c0-5.1-0.1-10.2,0.1-15.4c0.2-4.5,0.8-9,2.7-13.1c1.6-3.4,3.9-6.3,6.7-8.8
					c5.5-4.8,12.9-7.4,20.1-6.7c0.7,0.1,1.7,0.1,2,0.8c0.4,0.9,0.3,2.3,0.4,3.2c0.2,2.6,0.4,5.3,0.6,7.9c0.4,5.2,0.8,10.4,1.3,15.6
					c0.5,5.8,0.9,11.7,1.4,17.5c0.4,5.2,1.1,10.9-1,15.8c-0.4,0.9-0.3,2,0.7,2.6c0.8,0.5,2.2,0.3,2.6-0.7c2.1-4.8,2.1-10,1.7-15.2
					c-0.4-5.6-0.9-11.2-1.4-16.9c-0.5-5.7-0.9-11.4-1.4-17c-0.2-2.8-0.5-5.6-0.7-8.4c-0.2-2.3,0.1-5.4-1.5-7.2
					c-1.5-1.7-4-1.8-6.1-1.9c-2-0.1-4.1,0.1-6.1,0.5c-4,0.7-7.9,2.3-11.4,4.5c-7.4,4.7-12.4,12.2-13.8,20.9
					c-1,6.1-0.7,12.3-0.8,18.5c0,6.5-0.1,12.9-0.1,19.4C905.3,130,909.1,130,909.1,127.6L909.1,127.6z"/>
			</g>
		</g>
		<g>
			<g>
				<path d="M922.2,78.2c-2.9,4.1-5.3,8.5-7.1,13.2c-1.7,4.4-2.9,9.4-2.3,14.2c0.3,2.2,1.2,4.5,3.4,5.5c1.9,0.9,4.2,0.5,5.9-0.6
					c4.3-2.8,4-8.7,4.3-13.3c0.3-6.2,1-12.5-0.8-18.5c-0.7-2.3-4.3-1.3-3.6,1c1.2,4.4,1.1,8.9,0.9,13.4c-0.1,2.3-0.3,4.6-0.4,7
					c-0.1,1.9-0.1,3.9-1,5.7c-0.6,1.2-1.8,2.4-3.3,2.2c-1.5-0.2-1.7-2.2-1.8-3.4c-0.2-4.1,0.8-8.2,2.2-12c1.7-4.4,4.1-8.5,6.7-12.3
					C926.8,78.1,923.6,76.2,922.2,78.2L922.2,78.2z"/>
			</g>
		</g>
		<g>
			<g>
				<path d="M932,66c0.5-2.4,0.8-4.9,0.9-7.4c-0.6,0.6-1.3,1.3-1.9,1.9c1.5,0,3.1,0,4.6-0.1c0.8,0,1.5,0,2.3,0c0.4,0,0.8,0,1.3,0
					c0.1,0,0.3,0,0.4,0c-0.3,0,0.2,0.2-0.1-0.1c-0.1,0-0.2-0.1-0.2-0.1c-0.1-0.1,0-0.1,0,0c0,0,0.2,0.4,0.1,0.2
					c0.1,0.3,0.3,0.7,0.4,1c0.2,0.7,0.5,1.3,0.6,2c0.4,1.4,0.6,2.7,0.7,4c0.1,1,0.8,1.9,1.9,1.9c1,0,2-0.9,1.9-1.9
					c-0.1-1.7-0.4-3.5-0.9-5.1c-0.2-0.8-0.5-1.7-0.8-2.5c-0.3-0.8-0.6-1.7-1.3-2.3c-1.4-1.3-3.6-0.8-5.3-0.8c-1.8,0-3.6,0-5.5,0.1
					c-1.1,0-1.8,0.9-1.9,1.9c-0.1,2.2-0.4,4.3-0.8,6.4c-0.2,1,0.3,2,1.3,2.3C930.6,67.6,931.8,67,932,66L932,66z"/>
			</g>
		</g>
	</g>
</g>
</svg>
