<?xml version="1.0" encoding="utf-8"?>
<!-- Generator: Adobe Illustrator 24.0.1, SVG Export Plug-In . SVG Version: 6.00 Build 0)  -->
<svg version="1.1" xmlns="http://www.w3.org/2000/svg" xmlns:xlink="http://www.w3.org/1999/xlink" x="0px" y="0px"
	 viewBox="0 0 1000 284.8" style="enable-background:new 0 0 1000 284.8;" xml:space="preserve">
<style type="text/css">
	.st0{fill:#FFE87B;}
	.st1{fill:#1E1E1C;}
	.st2{fill:#1E1E1C;stroke:#1E1E1C;stroke-width:0.25;stroke-miterlimit:10;}
	.st3{fill:#1E1E1C;stroke:#1E1E1C;stroke-width:0.15;stroke-miterlimit:10;}
	.st4{fill:#FFFFFF;}
	.st5{stroke:#1E1E1C;stroke-miterlimit:10;}
	.st6{fill:none;stroke:#1E1E1C;stroke-width:3;stroke-linecap:round;stroke-linejoin:round;stroke-miterlimit:10;}
	.st7{stroke:#000000;stroke-width:1.5;stroke-miterlimit:10;}
</style>
<g id="Calque_2">
</g>
<g id="Calque_1">
	<g>
		<g>
			<path d="M198.4,154.1c-1.6-0.1-3.3,0.7-4.7,1.5c-1.8,1-3.4,2.2-4.9,3.6c-1.2,1.1-2.4,2.4-3,3.9c-1.1,2.7-1.1,5.6-0.7,8.4
				c1.3,10.5,5.6,21.1,14.1,27.8c7.3,5.8,20.7,10.2,28.1,2.1c3.1-3.4,4.5-8.1,4.2-12.7c-0.3-5.5-2.8-10.6-5.8-15.2
				c-3.3-5.1-7.1-10.1-12.2-13.5c-4.6-3.1-9.6-7.6-15.5-5.8c-2.3,0.7-1.3,4.3,1,3.6c4.3-1.2,8.2,2.4,11.5,4.7c3.9,2.7,7,5.8,9.8,9.6
				c4.8,6.7,10.4,15.9,6.1,24.3c-4.4,8.5-15.7,6-22.4,1.8c-7.8-4.9-12.4-13.4-14.3-22.3c-0.9-4-2.2-9.7,0.9-13
				c1.3-1.3,2.7-2.5,4.3-3.5c0.6-0.4,1.3-0.8,2-1.1c0.3-0.2,0.7-0.3,1.1-0.4c0,0,0.4-0.1,0.1,0c0.2,0,0.3,0,0.5,0
				C200.8,158,200.8,154.3,198.4,154.1L198.4,154.1z"/>
		</g>
	</g>
	<g>
		<g>
			<path d="M252.7,129.7c-5.2,10.3-3.7,22.4,0.1,32.9c1.9,5.2,4.1,10.4,8,14.4c3.7,3.8,9.1,6.1,14.4,5c9.8-1.9,13.1-13.5,13.4-22.1
				c0.2-5.9-0.6-11.8-2.3-17.4c-1.6-5.1-4-10.3-7.7-14.2c-3.6-3.9-8.3-6.1-13.6-5.5C260.4,123.3,255.3,125.4,252.7,129.7
				c-1.3,2.1,2,4,3.2,1.9c1.8-2.9,5.5-4.4,8.7-5c3.8-0.6,7.2,0.4,10,3c3.4,3,5.6,7.1,7.2,11.3c1.8,4.9,2.9,10.1,3.1,15.4
				c0.1,4.4-0.2,8.9-1.8,13.1c-1.2,3.3-3.3,6.6-6.6,8.2c-3.9,1.9-8.6,0.5-11.8-2.1c-3.7-3-5.9-7.4-7.6-11.8c-4-10-6.4-22.1-1.3-32.2
				C257,129.4,253.8,127.5,252.7,129.7L252.7,129.7z"/>
		</g>
	</g>
	<g>
		<g>
			<path d="M189.2,164.5c2.5-4.4,6.1-8.7,11-10.5c2.6-1,4.9-0.8,7.5,0c2.5,0.8,4.8,1.9,7,3.2c9.1,5.6,15.3,15.5,17.1,26
				c1,5.6,0.9,14.8-6.4,15.9c-1,0.2-1.6,1.4-1.3,2.3c0.3,1.1,1.3,1.5,2.3,1.3c3.2-0.5,5.8-2.6,7.5-5.3c1.9-3.1,2.3-7,2.1-10.5
				c-0.4-6.3-2.2-12.5-5.3-18c-3-5.4-7.1-10.1-12.1-13.6c-2.5-1.8-5.3-3.2-8.1-4.3c-3.1-1.1-6.3-1.9-9.6-1.1
				c-6.6,1.6-11.6,7.1-14.8,12.8C184.7,164.8,188,166.6,189.2,164.5L189.2,164.5z"/>
		</g>
	</g>
	<g>
		<g>
			<path d="M269.5,122.7c-2.9-0.7-5.8-1-8.7-0.2c-2.1,0.6-4.2,1.6-6.2,2.4c-2.9,1.1-5.8,2.5-7.8,5c-2,2.5-2.8,5.7-3.1,8.9
				c-0.3,3.1-0.1,6.3,0.1,9.4c0.2,3.4,0.6,6.8,1.3,10.2c1.3,6.4,3.7,12.7,7.7,17.9c4.4,5.6,12,9.7,18.8,5.8c2.1-1.2,0.2-4.4-1.9-3.2
				c-5.1,2.9-10.7-0.7-13.9-4.7c-3.6-4.5-5.6-10-6.9-15.5c-1.2-5.6-1.7-11.3-1.6-17c0-2.6,0.2-5.4,1.4-7.8c1.2-2.3,3.3-3.8,5.6-4.8
				c2.1-0.9,4.3-1.7,6.4-2.5c2.6-0.9,5.1-0.8,7.7-0.1C270.9,126.9,271.9,123.3,269.5,122.7L269.5,122.7z"/>
		</g>
	</g>
	<g>
		<g>
			<path d="M233.2,199.8c3.5,1.4,7.3,2.4,11.2,2c3.3-0.3,6.5-1.4,9.4-3c2.9-1.6,5.5-3.8,7.9-6.1c2.4-2.3,4.7-5,5.4-8.3
				c0.5-2.4-3.2-3.4-3.6-1c-0.6,2.9-2.6,5-4.7,6.9c-2.1,2-4.3,3.8-6.9,5.2c-2.4,1.4-5.1,2.3-7.9,2.5c-3.4,0.2-6.7-0.7-9.8-1.9
				c-0.9-0.4-2.1,0.4-2.3,1.3C231.6,198.5,232.2,199.4,233.2,199.8L233.2,199.8z"/>
		</g>
	</g>
	<g>
		<g>
			<path d="M189.3,178.3c-2.8-1.7-5.5-3.4-8.3-5.1c-2.2-1.3-4.6-2.6-6.5-4.4c-1.7-1.6-2.9-3.6-2.9-6c0-2.8,1.5-5.3,3.3-7.4
				c3.5-4,8.1-7,12.4-10c4.2-3.1,8.5-6.2,12-10.1c3.9-4.2,6.1-9.3,8.7-14.3c2.2-4.4,5.3-9.2,10.3-10.7c5.6-1.7,11.2,1.9,16.5,3.1
				c5.9,1.3,12,1,18,0.8c6.2-0.2,13.2-0.7,19,1.9c2.4,1.1,4.7,2.8,5.7,5.3c1,2.4,1,5-0.6,7.1c-0.6,0.8-0.1,2.1,0.7,2.6
				c0.9,0.6,2,0.1,2.6-0.7c3.3-4.5,1.7-11-2.1-14.6c-4.4-4.1-10.7-5.2-16.5-5.5c-6.7-0.3-13.3,0.6-20,0.2c-3.3-0.2-6.4-0.8-9.5-1.8
				c-3-1-6-2.2-9.2-2.5c-6-0.7-11.1,2.6-14.7,7.3c-3.8,5-5.6,11.1-9.2,16.2c-6.6,9.4-17.9,14-25.8,22c-4.7,4.8-7.5,12.1-3,18
				c1.9,2.4,4.5,4.1,7,5.7c3.4,2.1,6.8,4.1,10.1,6.2C189.5,182.8,191.4,179.5,189.3,178.3L189.3,178.3z"/>
		</g>
	</g>
	<g>
		<g>
			<path d="M177.8,171.3c-5.4-2.8-11.2-4.5-16.9-6.5c-5.4-1.9-10.6-4.3-15.4-7.4c-9-5.8-16.6-14.8-18.1-25.7
				c-1.3-9.8,3.2-20.2,12.4-24.5c4.5-2.1,9.6-2.7,14.5-3.1c5.2-0.4,10.4-0.6,15.6-1.7c5.2-1.1,9.9-3.3,14-6.6
				c4.2-3.3,7.6-7.4,11.4-11.2c7.3-7.4,16.1-12.5,26-15.5c10-3,20.5-3.8,30.9-3.4c10.4,0.4,21.6,1.6,31.1,6.1
				c9,4.2,16.3,11.7,17.8,21.8c0.6,4.4-0.1,8.9-2.5,12.7c-2.7,4.3-7.1,7-11.5,9.1c-2.3,1.1-4.7,2-7,2.8c-2.2,0.8-1.3,4.4,1,3.6
				c9.7-3.5,20.5-8.5,23.3-19.5c2.5-9.8-1.9-20.7-9.2-27.3c-8.6-7.8-20.3-10.7-31.6-12.2c-11-1.4-22.1-1.5-33.1,0.3
				c-10.6,1.7-21.1,5.4-29.9,11.8c-4.5,3.3-8.3,7.3-12.2,11.3c-3.8,4-7.7,7.9-12.8,10.3c-9.8,4.6-21.3,2.6-31.7,5.1
				c-5.2,1.2-10,3.7-13.6,7.7c-3.5,3.9-5.8,9-6.6,14.2c-1.7,11.3,3.5,22.5,11.4,30.3c4.3,4.2,9.4,7.5,14.7,10.2
				c5.6,2.8,11.5,4.6,17.3,6.7c3,1,5.9,2.2,8.7,3.7C178,175.7,179.9,172.4,177.8,171.3L177.8,171.3z"/>
		</g>
	</g>
	<g>
		<g>
			<path d="M170.9,159.4c-1.7-1.3-3.8-1.3-5.9-1c-2.1,0.4-3.8,0.7-5.9,0.2c-4.2-1-8-3.1-11.4-5.8c-3.4-2.7-6.6-5.8-9.2-9.3
				c-2.6-3.4-4.7-7.4-5.1-11.8c-0.8-8.9,5.4-16.3,13.2-19.8c8.7-3.9,18.3-2.5,27.5-3.2c4.7-0.4,9.2-1.3,13.4-3.5
				c3.9-2,7.3-4.9,10.4-8c6.4-6.6,11.4-14.7,19-20.1c3.6-2.5,7.8-4.5,12.2-4.8c4.9-0.4,9,1.8,13.5,3.4c9.4,3.4,19.3,1.8,29,2.4
				c8.2,0.4,17.5,3,21.2,11.1c4,8.5-3.1,16.8-9.8,21.3c-1.9,1.3-3.9,2.4-5.8,3.5c-2.1,1.2-0.2,4.4,1.9,3.2
				c8.2-4.6,17-10.7,18.4-20.7c1.3-9.1-5.6-16.6-13.6-19.8c-9.7-3.8-20.4-1.9-30.6-2.6c-2.6-0.2-5.1-0.6-7.6-1.3
				c-2.5-0.7-4.8-1.8-7.3-2.7c-4.7-1.7-9.5-2.1-14.4-0.6c-9.7,2.8-16.3,10.6-22.5,18c-6,7.2-12.5,14.6-22.1,16.8
				c-9.8,2.2-20.1-0.1-29.9,2.6c-9,2.5-17.1,8.9-19.4,18.3c-2.4,9.5,2.7,18.4,9.1,25.1c3.2,3.4,6.8,6.5,10.9,8.8
				c3.9,2.2,8.7,4.2,13.2,3.5c1.9-0.3,3.9-1.2,5.6,0.1c0.8,0.6,2.1,0.1,2.6-0.7C172.1,161,171.7,160,170.9,159.4L170.9,159.4z"/>
		</g>
	</g>
	<g>
		<path d="M741.9,168.2c-2.7-2.6-5-5-7.5-7.2c-1.4-1.3-2.5-2.7-3.4-4.4c-1.5-2.7-3.3-5.3-5.1-7.8c-2.7-3.8-4-8.1-4.6-12.6
			c-0.5-4-0.9-7.9-1.3-11.9c-0.5-5.2,0.5-10,3-14.6c1.3-2.4,2.6-4.9,3.9-7.4c-1.2-1.2-2.3-2.5-3.6-3.6c-4.1-3.4-8.2-6.8-12.4-10.2
			c-1.2-1-2.7-1.7-4-2.5c-0.8-0.5-1.8-0.8-2.5-1.4c-1.2-0.9-2.1-0.7-3.2,0.1c-2,1.4-4,2.6-6.6,2.6c-3.8-0.1-6.8-2.3-8.1-5.8
			c-0.9-2.4,0.4-6.8,2.4-8.2c0.7-0.5,1.7-0.7,2.5-0.9c1.1-0.3,2.2-0.3,3.3-0.6c1.6-0.5,2.9-1.3,3.6-2.9c0.8-1.9,1.7-3.8,2.8-5.6
			c0.9-1.4,1.9-2.9,3.2-4c1.8-1.7,5.4-1.7,7.5-0.3c2.1,1.5,3.7,3.5,4.8,5.9c1.1,2.5,0,4.7-1.2,6.8c-1.6,2.7-1.7,2.7,0.7,4.6
			c4.8,3.9,9.6,7.9,15.2,10.8c1.7,0.9,3.3,1.9,5,2.8c0.3,0.1,0.9,0,1.2-0.2c3.2-3.1,6.3-6.3,9.6-9.4c5.7-5.3,12-9.4,19.8-10.5
			c4.1-0.6,8.4-0.5,12.6-0.7c7.4-0.3,14.7,0.5,21.8,2.7c3.9,1.2,7.5,3.1,11.3,4.7c4.7,2,8.8,4.9,12.4,8.6c3.1-3.6,7.5-5.7,9.7-9.8
			c-0.9-1.6-1.9-3-2.5-4.6c-1.1-2.9-0.2-5.5,2.2-7.4c2.4-1.8,5.3-1.9,7.8-0.3c2.5,1.7,4.2,3.8,4.3,7c0,0.4,0.7,1,1.1,1
			c1,0.1,2.1-0.1,3.1-0.2c0.6,0,1.3-0.1,1.9-0.2c4.2-0.1,6.7,3.1,5.8,7.2c-0.9,4.1-5,6.9-9.7,6.4c-1.1-0.1-2.1-0.3-3.2-0.7
			c-0.9-0.3-1.6-0.2-2.3,0.5c-3.5,3.3-7.1,6.6-10.7,10c-0.4,0.4-0.6,0.7-0.3,1.3c3,4.8,3.8,10.4,4.8,15.8c1.6,8.4,2,17,1.6,25.6
			c-0.3,6.5-2.1,12.7-5.2,18.5c-1.3,2.5-2.6,5-4.6,7.1c-0.8,0.8-0.5,1.3,0.4,1.9c2.3,1.7,4.6,3.5,6.9,5.2c0.8,0.6,1.6,1.3,2.5,1.8
			c4.1,2.2,7.6,5.3,11.2,8.2c1,0.8,1.8,0.9,2.9,0.5c2.1-0.9,4.2-1.2,6.5-0.6c1.6,0.5,2.8,1.3,3.5,2.8c1.1,2.6,1.5,5.3,0.7,8.1
			c-0.8,2.8-2.7,4.3-5.7,4.5c-1,0.1-1.9,0-2.9-0.1c-2-0.2-3.4,0.4-4,2.4c-0.5,1.4-0.8,2.9-1,4.3c-0.5,3-2.5,5.1-5.6,5.4
			c-2.9,0.3-5.6-1.2-6.7-3.8c-1.2-3-1.1-5.8,0.8-8.5c0.8-1.2,1.6-2.4,2.3-3.6c0.6-1,0.6-1.9-0.4-2.6c-1-0.7-2.1-1.3-3.1-2.1
			c-1.6-1.2-3.1-2.5-4.6-3.8c-0.5-0.4-1-0.9-1.5-1.2c-2-0.9-3.4-2.5-5-4c-1.7-1.6-3.8-2.7-5.7-4.1c-0.6-0.4-1.2-0.7-1.7-1
			c-2.6,1-5.2,2.2-7.9,3.1c-2.3,0.8-4.8,0.8-7.2,0.3c-1.6-0.3-3.6,0.4-4,1.9c-0.6,2-1.3,4-1.5,6c-0.5,5.3-0.8,10.7-1.2,16
			c-0.2,3-1.6,5.4-3.5,7.6c-1.4,1.6-3.2,2.3-5.2,2.4c-3.6,0.2-7.2,0.2-10.8-0.8c-2.2-0.6-4.6-0.3-6.9-0.6c-4-0.6-8-1.3-11.9-2.3
			c-3.7-0.9-5.8-4.7-5.5-8.9c0.3-3.9,0.5-7.9,0.8-11.8c0.2-3-1.1-5.5-2.9-7.9c-0.1,0.1-0.2,0.1-0.3,0.1c-3.4,3.9-6.8,7.8-10.3,11.6
			c-2.4,2.6-3.2,5.7-3.9,8.9c-0.2,1.1-0.5,2.1-0.7,3.2c-0.7,2.9-2.5,4.5-4.8,4.6c-2.7,0.1-5.5-1.9-6.2-4.4c-0.4-1.3-0.5-2.7-0.6-4
			c-0.1-0.9-0.5-1.4-1.4-1.5c-1.1-0.1-2.1-0.4-3.2-0.5c-2.4-0.1-4.1-2-3.6-4.4c0.6-3.2,2.7-6.3,6.8-6.2c1.2,0,2.4,0.1,3.6,0
			c0.5,0,1.1-0.2,1.4-0.5c1.9-2,3.8-4.1,5.7-6.2c1-1.1,2.1-2.1,3.1-3.2C738,172.7,740,170.5,741.9,168.2z M776.1,72.8
			c-2.2,0.1-4.4,0.1-6.6,0.4c-5.3,0.5-10.2,2.2-14.4,5.5c-3.4,2.7-6.7,5.4-9.8,8.4c-3.5,3.3-7.1,6.7-10,10.5
			c-3.3,4.3-6.3,8.7-8.8,13.6c-2.3,4.6-3.2,9.2-2.7,14.3c0.3,3.2,0.7,6.4,1.1,9.5c0.5,3.7,1.2,7.3,3.3,10.4c0.8,1.3,1.7,2.6,2.6,3.9
			c1.5,2.4,2.8,5,4.6,7.2c2,2.4,4.3,4.5,6.6,6.6c1.8,1.6,3.7,3,5.5,4.6c4,3.3,6.5,7.8,9.3,12c0.2,0.3,0.3,0.7,0.4,1.1
			c0.3,4.3,0.5,8.6-0.2,12.9c-0.2,1.4-0.3,2.8-0.3,4.2c0,2.9,1,4.2,3.8,4.9c3.1,0.7,6.3,1.3,9.4,1.7c2.8,0.4,5.6,0.2,8.3,0.8
			c3.1,0.7,6.2,0.9,9.3,0.6c0.9-0.1,2.2-0.4,2.7-1c1.1-1.4,2.3-3,2.6-4.7c0.6-3.6,0.5-7.2,0.9-10.8c0.4-4.4,0.4-8.8,2.2-13
			c1.4-3.1,4.8-5.3,8.4-4.2c1.1,0.3,2.4,0.4,3.5,0.2c4.1-0.7,7.8-2.6,11.3-4.7c1.1-0.7,2.3-1.4,3.1-2.4c2.7-3.5,5.8-6.8,7.6-11
			c0.8-1.9,1.9-3.8,2.7-5.7c1.8-5,2.5-10.2,2.5-15.5c0-6.4-0.3-12.9-1.3-19.2c-0.6-3.7-1.4-7.4-2.3-11c-0.9-3.6-3.3-6.6-5-9.8
			c-2.5-4.4-6-7.6-10.1-10.2c-4.9-3.2-10.3-5.6-15.8-7.3C792.4,72.9,784.3,72.4,776.1,72.8z M733.8,93.1c-3-1.9-6.1-3.7-9.1-5.6
			c-1.4-0.9-2.9-1.7-4.2-2.7c-2.7-2.1-5.4-4.4-8.1-6.5c-2.6-2-3-4.6-1.1-7.3c0.6-0.9,1.3-1.9,1.6-2.9c0.2-0.7,0.2-1.7-0.1-2.3
			c-0.7-1.2-1.5-2.2-2.5-3.2c-1.2-1.2-3.1-1.2-4.3,0.1c-0.6,0.7-1.2,1.5-1.6,2.3c-1.1,2.2-2.1,4.4-3.3,6.5c-0.5,0.9-1.4,1.8-2.3,2.4
			c-2,1.4-4.3,2.1-6.8,2.2c-0.3,0-0.6,0.1-0.8,0.2c-0.9,0.7-1.5,3.1-1.1,4.2c1.2,2.9,4.6,3.9,7.2,2.3c1.3-0.8,2.7-1.6,4.1-2.3
			c1.3-0.7,2.6-0.4,3.9,0.3c0.9,0.6,1.8,1.2,2.8,1.6c2.3,1,4.4,2.4,6.3,4.1c1.1,1,2.2,1.9,3.3,2.8c3.8,3.2,7.7,6.5,11.5,9.7
			c0.1,0.1,0.2,0.1,0.3,0.1C730.9,97.2,732.4,95.1,733.8,93.1z M822.3,170.2c1.3,0.9,2.7,1.7,4.1,2.6c0.6,0.4,1.2,0.7,1.6,1.2
			c1.5,1.6,3.1,3.1,5.1,4.3c3.4,2.2,6.6,4.8,9.7,7.3c2.4,1.9,2.7,4.4,1.2,7.1c-0.8,1.4-1.6,2.6-2.5,3.9c-0.9,1.3-1.2,2.6-0.8,4.1
			c0.4,1.6,1.4,2.5,2.9,2.5c1.5,0,2.2-0.8,2.6-2.6c0.4-1.7,0.6-3.5,1.3-5.1c1.2-2.9,3.4-4.5,6.6-4.4c0.8,0,1.6,0.1,2.4,0.1
			c2.5,0.1,3.4-0.7,3.5-3.1c0.1-1.3-0.3-2.7-0.7-4c-0.1-0.4-0.6-0.7-1-0.9c-1.5-0.6-2.9-0.2-4.3,0.4c-2.4,0.9-4.5,0.7-6.7-1.1
			c-3.4-2.8-7-5.2-10.6-7.8c-1.2-0.8-2.3-1.7-3.4-2.6c-2.4-1.9-4.9-3.7-7.2-5.6C824.7,167.9,823.6,169,822.3,170.2z M744.7,170.2
			c-2.1,3.7-4.9,6.5-7.9,9.1c-0.5,0.4-0.8,1-1.2,1.5c-2,2.2-4,4.4-6,6.5c-1.1,1.2-2.5,1.5-4.2,1.2c-1.2-0.2-2.4-0.1-3.6,0
			c-1.4,0.2-2.3,1.5-2.3,3c1.2,0.2,2.4,0.4,3.5,0.6c3.1,0.6,4.4,2.2,4.5,5.4c0,0.9,0.2,1.9,0.5,2.8c0.4,1.1,1.3,1.7,2.4,1.6
			c0.5,0,1.1-0.8,1.2-1.4c0.7-2.6,1.2-5.2,1.8-7.8c0.2-0.7,0.3-1.4,0.7-1.9c1.9-2.5,3.7-5.1,5.8-7.5c2.5-2.9,5.1-5.7,7.7-8.5
			c0.4-0.4,0.8-0.8,0.2-1.4C746.9,172.4,745.9,171.4,744.7,170.2z M829.7,91.5c0.2-0.2,0.4-0.3,0.5-0.4c3.5-3.2,7-6.4,10.4-9.7
			c1.7-1.6,3.5-2.1,5.8-1.3c1.3,0.4,2.7,0.5,4,0.5c1.8-0.1,3.2-1,3.9-2.7c0.9-2.1-0.1-3.5-2.3-3.3c-1.6,0.1-3.3,0.3-4.9,0.3
			c-2.7-0.1-4.4-1.8-4.5-4.4c-0.1-1.9-1-3.1-2.5-4.1c-1.3-0.9-2.5-0.8-3.7,0.1c-1.1,0.9-1.4,1.9-0.8,3.3c0.5,1,1.2,2,1.9,2.8
			c1.4,1.7,1.4,2.8,0.2,4.6c-1.9,2.9-4.4,5.3-7.1,7.4c-1,0.8-1.9,1.8-2.8,2.8c-0.2,0.2-0.3,0.8-0.2,1.1
			C828.4,89.5,829,90.4,829.7,91.5z"/>
		<path d="M783.9,128.6c-0.1-2.8,0.6-5.9,1.6-8.9c1.3-3.9,2.4-7.8,3.7-11.6c1.2-3.3,3.1-6.2,5.8-8.4c3.1-2.6,6.6-3,10.2-1.6
			c5.2,2.1,7.7,6.2,8.6,11.7c1.1,6.7,1.2,13.5,0.4,20.2c-0.3,2.9-1.1,5.9-2.3,8.6c-2.8,6.3-8.8,8.7-15.3,7.9
			c-0.8-0.1-1.6-0.3-2.3-0.5c-2.4-0.4-4.1-1.8-5.4-3.7c-1.1-1.7-2.2-3.4-3.3-5.2C784.3,135.3,783.8,132.3,783.9,128.6z M810.8,121.3
			c0.1,0,0.2,0,0.3,0c-0.4-4-0.8-7.9-1.3-11.9c-0.5-3.7-2.6-6.4-6.1-7.8c-2.1-0.8-4.4-0.5-6.3,1c-2.3,1.9-3.9,4.4-4.8,7.2
			c-1.2,3.5-2.4,7.1-3.4,10.7c-0.7,2.5-1.4,5.1-1.5,7.7c-0.1,2.3,0.3,4.6,0.9,6.8c0.4,1.4,1.6,2.6,2.4,4c1.1,2.1,2.7,3.3,5.2,3.8
			c3.2,0.6,6.2,0.1,8.8-1.6c2.4-1.5,3.6-4,4.4-6.8C810.6,130,810.8,125.7,810.8,121.3z"/>
		<path d="M777.4,116.8c-0.5,3.1-0.9,7.5-2,11.5c-1.3,4.4-3.5,8.5-6.6,12.1c-3.6,4.3-8.9,4.5-13,2.1c-4.9-2.9-8.3-7.2-9.2-13.1
			c-0.5-3.8,0.1-7.6,0.6-11.5c0.8-5.9,3.7-10.8,7.8-14.9c2.4-2.3,5.3-3.9,8.7-4.3c2.8-0.3,5.4,0.3,7.6,2.3
			C775.4,104.9,776.9,110,777.4,116.8z M773.5,117.3c0-5.6-1.2-9.3-3.8-12.6c-1.6-2-3.7-2.6-6.1-2.2c-1.2,0.2-2.5,0.7-3.6,1.3
			c-3.7,2.4-6.5,5.8-7.9,10c-1,3-1.3,6.3-1.8,9.5c-1,6.6,1.4,11.9,6.8,15.7c2,1.4,6.2,2,8.5-0.6c3.1-3.6,5.3-7.6,6.5-12.1
			C772.9,122.9,773.1,119.4,773.5,117.3z"/>
		<path d="M783.7,163.4c0,2.7-1.3,3.8-3.3,3.2c-1.5-0.5-3-1.2-4.4-1.8c-1.1-0.5-2.3-0.9-3.4-1.5c-1.4-0.8-3-1.6-4.1-2.8
			c-1.3-1.5-1-3.5-0.2-5.2c1.2-2.4,2.6-4.7,4-7c0.5-0.8,1.1-1.5,1.8-2.2c1.1-1,2.4-0.7,3,0.7c1.8,4.3,3.7,8.6,5.4,13
			C783.1,161.1,783.5,162.6,783.7,163.4z M779.2,162.2c0.1-0.1,0.2-0.2,0.2-0.2c-1.5-3.4-3-6.8-4.5-10.3c-0.1,0-0.3,0-0.4,0
			c-0.9,1.7-1.9,3.5-2.8,5.2c-0.3,0.7-0.3,1.3,0.5,1.7c1.5,0.8,3,1.5,4.5,2.3C777.6,161.3,778.4,161.8,779.2,162.2z"/>
	</g>
	<g>
		<path class="st7" d="M318.7,124.3c0.3-0.1,0.7-0.1,1.3-0.1c2.1,0,4.4,0.7,6.8,2.1c0.7,0.5,1.6,1.2,2.6,2.1c1,1,1.7,1.8,2.2,2.4
			c2,3,3.2,6.9,3.9,11.5c0.2,1.4,0.3,3.7,0.3,6.9c0,2.9-0.1,4.8-0.3,5.7c-0.9,4.9-3.1,8.3-6.4,10.2c-2.2,1.3-4.5,1.9-7,1.9h-0.5
			c-1.2,0-1.9-0.4-2.1-1.1c-0.5-1.8-0.8-8.3-1-19.5c0-1.2-0.2-4.3-0.4-9.4c-0.2-5-0.3-8.4-0.3-10.2c0-0.9,0.1-1.6,0.2-1.9
			C318,124.6,318.3,124.4,318.7,124.3z M322.6,126.7c-0.8-0.3-1.5-0.4-2.1-0.4c-0.4,0-0.7,0.1-0.8,0.2c-0.1,0.1-0.1,0.7,0.1,1.8
			c0.2,1.2,0.3,3.2,0.4,6.1c0.1,2.9,0.2,6.3,0.3,10.2c0.1,3.9,0.1,6.1,0.1,6.5c0.3,8,0.6,12.4,0.8,13.1c0.1,0.3,0.5,0.5,1,0.5
			c0.4,0,0.9-0.1,1.5-0.2c4.8-0.9,7.8-4,9.1-9.2c0.3-1,0.4-3.2,0.4-6.5c0-1.2,0-2.5-0.1-4.1c-0.5-6.2-2.1-10.8-4.6-13.9
			C327.2,128.8,325.2,127.5,322.6,126.7z"/>
		<path class="st7" d="M351.1,124.7c0.4,0,1-0.1,1.8-0.1c1.4,0,2.5,0.2,3.2,0.5c2.8,1.2,4.9,3.8,6.2,7.8c0.6,1.9,1,3.7,1.2,5.5
			c0.2,1.8,0.3,4.7,0.3,8.6c0,4-0.3,7.5-0.8,10.4c-0.7,3.2-2,5.7-3.9,7.4c-1.4,1.4-3.3,2.1-5.6,2.1c-1.5,0-3-0.4-4.3-1.2
			c-1.3-0.8-2.3-1.8-3-2.9c-0.7-1.1-1.4-2.8-2-5c-0.8-3-1.2-6.1-1.2-9.2c0-2.6-0.1-3.9-0.2-4c0,0-0.1-0.5-0.1-1.5
			c0-3.3,0.1-5.9,0.4-8c0.3-3.5,1.5-6.3,3.5-8.2C348,125.6,349.4,124.9,351.1,124.7z M357.4,128.5c-1.4-1.3-2.9-1.9-4.6-1.9
			c-0.3,0-0.8,0-1.3,0.1c-3.2,0.7-5.1,3.2-5.9,7.3c-0.3,1.4-0.4,4.2-0.4,8.3c0,3.6,0.1,6.5,0.4,8.8c0.5,3.8,1.1,6.8,2,8.8
			c0.8,2.1,2,3.4,3.4,4.1c0.6,0.3,1.5,0.4,2.6,0.4c1.8,0,3.3-0.5,4.3-1.5c1.6-1.4,2.7-3.6,3.3-6.6c0.5-2.8,0.8-6,0.8-9.5l-0.1-0.6
			c-0.1-0.1-0.1-1.2-0.1-3.3c0-3.1-0.4-6-1.1-8.6C359.7,131.7,358.7,129.8,357.4,128.5z"/>
		<path class="st7" d="M386.1,128.1c0-0.4,0-0.8,0.2-1.2c0.2-0.4,0.4-0.6,0.6-0.6c0.6,0,0.9,0.4,1.1,1.3c0.4,1.9,1,11.1,1.8,27.6
			c0.2,3.4,0.3,6,0.3,8c0,2.1-0.3,3.3-0.8,3.6c-0.2,0.2-0.5,0.2-0.8,0.1c-0.4-0.2-0.9-0.9-1.5-2.2c-0.6-1.3-2.3-5-4.9-11.2
			c-2.5-5.8-4.6-11-6.4-15.6c-1.3-3.5-2-5.3-2.2-5.5c-0.1-0.3-0.2-0.2-0.3,0.3c0,0.2,0,0.6,0,1.1c0,0.7,0.1,3.5,0.3,8.4
			c0.6,11.9,0.8,19.5,0.8,22.6c0,1,0,1.5-0.1,1.6c-0.2,0.3-0.4,0.5-0.6,0.5c-0.5,0-0.9-0.4-1.1-1.3c-0.1-0.4-0.4-6.2-0.9-17.2
			c-0.5-11.1-0.8-17.6-0.8-19.7v-0.3c0.1-1.1,0.4-1.6,0.8-1.6c0.3,0,0.8,0.3,1.3,0.8c0.9,0.9,3.1,5.6,6.4,14
			c4.3,10.8,7.1,17.4,8.3,19.8l0.1-1c0-1.1-0.1-3-0.2-5.5c-0.1-2.5-0.3-5.3-0.5-8.4c-0.2-3.1-0.3-5-0.4-5.8
			C386.7,135.2,386.4,131,386.1,128.1z"/>
		<path class="st7" d="M397.7,123.4c0.4-0.4,0.7-0.6,1-0.6c0.4,0,0.8,0.4,1.3,1.3c0.2,0.3,0.3,0.8,0.3,1.6v1.5
			c0,3.5-0.5,5.6-1.5,6.4c-0.6,0.5-1.1,0.4-1.5-0.1c-0.2-0.2-0.3-0.5-0.3-0.8c0-0.5,0.1-1,0.3-1.6c0.4-1.6,0.6-2.9,0.6-3.8
			c0-0.5,0-0.9-0.1-1.1c-0.2-1.1-0.3-1.8-0.3-2.2C397.5,123.6,397.6,123.5,397.7,123.4z"/>
		<path class="st7" d="M419,126.5c1.3,0,2.7-0.1,4.1-0.1c1,0,1.6,0.1,1.8,0.3c0.3,0.3,0.4,0.6,0.3,0.9c-0.1,0.3-0.4,0.6-0.8,0.8
			c-0.1,0-0.8,0.1-1.9,0.2c-1.1,0.1-2.3,0.1-3.3,0.2l-1.6,0.1c0,0-0.1,6.4-0.1,19c0,12.6-0.1,19-0.3,19.1c-0.1,0.1-0.3,0.2-0.8,0.2
			c-0.4,0-0.7-0.1-0.8-0.4c-0.2-0.2-0.3-2.5-0.3-6.7c0-6.1,0-12.1,0.1-18l0.1-13.2H412c-2.2,0-3.5-0.1-3.9-0.3
			c-0.3-0.1-0.5-0.4-0.5-0.8c0-0.5,0.2-0.7,0.6-0.8C408.9,126.8,412.5,126.7,419,126.5z"/>
		<path class="st7" d="M449.8,125.1c0.2-0.6,0.7-0.8,1.4-0.8c1.5,0,3.2,0.8,5.1,2.4c2.5,2.1,3.7,4.9,3.7,8.5c0,3.9-1.5,7-4.6,9.5
			c-0.9,0.7-1.3,1.1-1.3,1.1s0.5,0.4,1.5,1c1.9,1.1,3.4,2.2,4.5,3.4c1.1,1.2,1.8,2.7,2.3,4.4c0.3,1,0.4,2.2,0.4,3.8
			c0,0.6,0,1.2-0.1,1.8c-0.4,1.9-1.6,3.5-3.5,4.8c-1.9,1.3-4.1,2-6.5,2c-0.2,0-0.4,0-0.7,0c-0.3,0-0.5,0-0.6,0
			c-0.7,0-1.1-0.3-1.3-0.8c0-0.2-0.1-0.9-0.1-2c-0.3-6.6-0.5-16.5-0.5-29.6C449.6,128.5,449.7,125.4,449.8,125.1z M453.5,127.5
			c-0.5-0.2-0.9-0.4-1.2-0.4h-0.4v8.3c0,5.5,0,8.3,0.1,8.4h0.1c0.4,0,1.2-0.5,2.4-1.6c1.2-1,1.9-1.9,2.3-2.7c0.7-1.4,1-2.8,1-4.5
			c0-1.2-0.1-2.1-0.3-2.8c-0.4-1-1-1.9-1.8-2.9C455,128.5,454.2,127.8,453.5,127.5z M460.7,157.9c0-2.2-0.7-4.2-2-5.9
			c-1.4-1.7-3.1-2.9-5.1-3.8c-0.8-0.3-1.3-0.5-1.4-0.5c-0.2,0-0.4,0.2-0.4,0.7c0,0.1,0,0.3,0,0.6c0,0.3,0,0.5,0,0.7
			c0,0.2,0,1.5,0.1,3.8c0,2.3,0.1,4.5,0.2,6.6c0.1,2.1,0.2,3.3,0.2,3.7l0.1,0.5l1.2-0.1c2-0.1,3.9-1,5.6-2.7
			C460.3,160.8,460.7,159.5,460.7,157.9z"/>
		<path class="st7" d="M470.4,128.7c0.4-0.4,0.8-0.5,1.1-0.3c0.2,0.1,0.4,0.9,0.5,2.2c0.1,1.4,0.4,6.1,0.9,14.2
			c0.3,5.7,0.8,9.9,1.5,12.4c0.7,2.3,1.7,4.1,3.1,5.5c1,0.9,2.1,1.4,3.4,1.4c2.5,0,4.5-1.6,5.9-4.8c0.5-1.1,0.8-2.2,0.9-3.3
			c0.1-1.1,0.2-4.2,0.3-9.4c0.1-7.1,0.2-11.5,0.2-13.2c0-1.7,0-2.7-0.1-3c-0.1-0.4-0.1-0.7,0-1.1c0.1-0.3,0.4-0.5,0.7-0.5
			c0.6-0.1,1.1,0.2,1.4,1c0.2,0.6,0.3,3.8,0.3,9.7c0,10.6-0.3,16.8-0.8,18.6c-0.4,1.5-1.2,3-2.2,4.3c-1.1,1.4-2.2,2.4-3.5,3
			c-0.7,0.4-1.7,0.6-2.9,0.6c-1.3,0-2.2-0.1-2.8-0.3c-1.8-0.7-3.3-2.3-4.7-4.8c-1.5-2.8-2.5-7.3-2.8-13.5c0-0.5,0-1.3-0.1-2.3
			c-0.1-1-0.2-2.3-0.2-3.8c-0.1-1.5-0.2-2.7-0.2-3.6c-0.2-3.6-0.4-6.2-0.4-7.7C470.1,129.5,470.2,128.9,470.4,128.7z"/>
		<path class="st7" d="M498.3,123.6c0.2-0.2,0.5-0.4,0.9-0.4c0.6,0,1.3,0.2,2.2,0.5c1.8,0.7,3.5,1.8,5,3.4c2,2,3.2,4.1,3.6,6.5
			c0.3,1.4,0.5,3.2,0.5,5.3c0,0.8,0,1.4-0.1,1.6c-0.2,1.4-0.9,2.8-2,4.2c-1.1,1.4-2.4,2.5-3.7,3.2c-0.8,0.4-1.2,0.7-1.2,0.8
			c0.4,0.3,0.8,0.6,1.2,0.9c0.3,0.3,0.6,0.5,0.8,0.7c0.2,0.1,0.3,0.2,0.4,0.3c0.9,0.6,1.8,1.9,2.8,3.8c0.7,1.4,1.7,3.7,2.9,7
			c0.8,2.1,1.2,3.5,1.2,4.2c0,0.3-0.1,0.6-0.3,0.8c-0.5,0.4-1,0.4-1.4,0.1c-0.2-0.1-0.9-1.7-1.9-4.8c-0.7-2.2-1.4-4-2-5.4
			c-1.3-2.6-2.9-4.5-5-6c-0.7-0.4-1.2-0.6-1.5-0.6c-0.3,0-0.5,0.1-0.6,0.4c0,2.6,0,5.4,0.1,8.3c0,1.9,0.1,3.9,0.1,6.2
			c0,1.4,0,2.1-0.1,2.2c-0.3,0.5-0.7,0.7-1.4,0.4c-0.3-0.1-0.5-0.6-0.6-1.3c-0.1-0.7-0.2-2.6-0.3-5.6c0-1.4-0.1-3.9-0.1-7.4
			c0-2.8,0-5.1,0.1-6.7c0.1-4.7,0.2-9.7,0.2-15c0-4.8,0.2-7.2,0.4-7.4C498.2,123.7,498.3,123.6,498.3,123.6z M508.2,138.3
			c0-5.6-2.2-9.6-6.5-11.9c-0.7-0.3-1-0.5-1.1-0.5c-0.2,0-0.4,0.9-0.4,2.8c-0.1,3.8-0.1,9.1-0.1,15.7v2.6c0.1,0,0.9-0.2,2.2-0.7
			c1.4-0.5,2.1-0.8,2.3-0.9c0.7-0.4,1.4-1.2,2.3-2.6c0.7-0.9,1-1.6,1.2-2C508.1,140.3,508.2,139.5,508.2,138.3z"/>
		<path class="st7" d="M535,128.1c0-0.4,0-0.8,0.2-1.2c0.2-0.4,0.4-0.6,0.6-0.6c0.6,0,0.9,0.4,1.1,1.3c0.4,1.9,1,11.1,1.8,27.6
			c0.2,3.4,0.3,6,0.3,8c0,2.1-0.3,3.3-0.8,3.6c-0.2,0.2-0.5,0.2-0.8,0.1c-0.4-0.2-0.9-0.9-1.5-2.2c-0.6-1.3-2.3-5-4.9-11.2
			c-2.5-5.8-4.6-11-6.4-15.6c-1.3-3.5-2-5.3-2.2-5.5c-0.1-0.3-0.2-0.2-0.3,0.3c0,0.2,0,0.6,0,1.1c0,0.7,0.1,3.5,0.3,8.4
			c0.6,11.9,0.8,19.5,0.8,22.6c0,1,0,1.5-0.1,1.6c-0.2,0.3-0.4,0.5-0.6,0.5c-0.5,0-0.9-0.4-1.1-1.3c-0.1-0.4-0.4-6.2-0.9-17.2
			c-0.5-11.1-0.8-17.6-0.8-19.7v-0.3c0.1-1.1,0.4-1.6,0.8-1.6c0.3,0,0.8,0.3,1.3,0.8c0.9,0.9,3.1,5.6,6.4,14
			c4.3,10.8,7.1,17.4,8.3,19.8l0.1-1c0-1.1-0.1-3-0.2-5.5c-0.1-2.5-0.3-5.3-0.5-8.4c-0.2-3.1-0.3-5-0.4-5.8
			C535.5,135.2,535.3,131,535,128.1z"/>
		<path class="st7" d="M564.6,123.3h0.3c1.7,0,3.8,0.8,6.4,2.5c1.7,1.2,3.1,2.7,4.1,4.7c1,2,1.5,4,1.5,6.1c0,0.9,0,1.5-0.1,2
			c-0.3,1.6-0.8,3-1.6,4.2c-0.8,1.2-2,2.5-3.7,3.9c-1,0.8-2,1.6-3,2.2c-1,0.7-1.6,1.1-1.8,1.5c-0.1,0.3-0.2,1.6-0.2,3.9v4.1l0.1,7.6
			c-0.5,0.5-0.9,0.7-1.3,0.7c-0.2,0-0.5-0.1-0.7-0.4c-0.1-0.1-0.3-0.4-0.4-0.9c-0.1-0.5-0.2-5-0.3-13.4c-0.1-7.9-0.2-13.1-0.3-15.6
			c-0.2-4.2-0.3-7.5-0.3-9.9c0-1,0-1.6,0.1-1.8C563.6,123.9,564,123.4,564.6,123.3z M567.5,126.2c-0.7-0.3-1.2-0.4-1.5-0.4h-0.4
			l0.1,2.7c0,0.5,0.1,1.9,0.2,4.1s0.1,3.9,0.2,5c0.3,6.4,0.5,9.6,0.6,9.6h0.1c0.8-0.4,2-1.2,3.5-2.4c2.2-1.9,3.6-3.9,4.1-6
			c0.1-0.6,0.2-1.2,0.2-2c0-1.4-0.2-2.6-0.5-3.7C573,130,570.8,127.7,567.5,126.2z"/>
		<path class="st7" d="M584,126.7c0.2-0.2,0.3-0.3,0.4-0.3c0.4,0,0.8,0.3,1,1c0.1,0.2,0.2,4.7,0.3,13.6c0.1,15.4,0.3,23.3,0.5,23.5
			c0.1,0.1,0.8,0.2,2.2,0.3c1.4,0,2.2,0.2,2.4,0.5c0.7,0.6,0.6,1.1-0.1,1.7c-0.2,0.1-0.5,0.2-0.9,0.2c-0.7,0-1.3,0-2-0.1
			c-1.7-0.1-2.6-0.2-2.7-0.2c-0.5-0.2-0.9-1-1.1-2.2c-0.2-0.8-0.3-7.8-0.3-21C583.8,132.4,583.9,126.8,584,126.7z"/>
		<path class="st7" d="M607.2,127.7c0.9-0.6,1.5-0.7,2-0.4c0.4,0.4,1.6,4.1,3.4,11.1c1.3,4.9,3.2,12,5.5,21.3
			c1.1,4.5,1.7,7.1,1.7,7.6c0,0.4-0.2,0.7-0.5,0.8c-0.6,0.3-1,0-1.4-0.8c-0.4-1.1-1.9-6.5-4.3-16.2c-0.4-1.7-0.7-2.7-0.9-3
			c-0.1-0.2-0.4-0.4-0.7-0.5c-0.7-0.1-2.7-0.2-5.9-0.2c-1,0-1.5,0-1.5,0.1c0,0-0.4,1.6-0.9,4.6c-0.6,3-1.2,6.1-1.9,9.2
			c-0.7,3.2-1,4.9-1.2,5.2c-0.2,0.4-0.5,0.6-0.8,0.6c-0.3,0-0.6-0.2-0.9-0.6c-0.1-0.2-0.1-0.4-0.1-0.5c0-0.3,0.1-1,0.3-1.9
			c0.3-1.9,1.5-8.1,3.6-18.5c2.1-10.4,3.2-15.9,3.4-16.4C606.1,128.6,606.5,128.1,607.2,127.7z M609.6,135.7c-0.8-3.3-1.3-5-1.5-5.2
			c-0.2-0.2-0.3-0.1-0.4,0.1c-0.1,0.3-0.6,2.6-1.4,7c-0.9,4.4-1.3,6.8-1.3,7.2c0,0.2,0.5,0.3,1.5,0.4c0.8,0,1.5,0,2,0
			c2.3,0,3.5-0.1,3.5-0.3c0,0-0.2-0.8-0.6-2.3c-0.1-0.3-0.4-1.3-0.8-3C610.2,138,609.9,136.7,609.6,135.7z"/>
		<path class="st7" d="M633.6,124.5c0.5-0.1,0.9-0.2,1.3-0.2c0.7,0,1,0.3,1,0.8c0,0.3-0.1,0.5-0.2,0.6c-0.2,0.1-0.6,0.3-1.4,0.6
			c-1.4,0.6-2.5,1.3-3.3,2.1c-1.2,1.3-1.8,2.8-1.8,4.5c0,0.9,0.2,1.7,0.5,2.3c0.2,0.7,2,2.5,5.3,5.5c2.1,2,3.2,3.1,3.4,3.4
			c2,2.6,2.9,5.9,2.9,10.1c0,3.4-1.2,6.3-3.7,8.8c-0.8,0.9-1.8,1.6-2.7,2.1c-0.5,0.3-1.4,0.6-2.6,0.9c-1.2,0.3-1.9,0.5-2.1,0.6
			c-0.6,0.2-1.3,0.3-2.3,0.3c-0.5,0-0.7-0.1-0.8-0.2c-0.1-0.2-0.2-0.5-0.2-0.8c0-0.4,0.1-0.6,0.3-0.7c0.3-0.3,1.7-0.7,4.3-1.3
			c1.8-0.4,3.3-1.2,4.6-2.5c1.4-1.4,2.3-2.9,2.7-4.6c0.2-0.7,0.3-1.6,0.3-2.7c0-2.1-0.3-3.9-0.8-5.5c-0.4-1.1-0.8-2-1.4-2.7
			c-0.5-0.7-1.6-1.8-3-3.3c-2.1-2.1-3.4-3.4-3.9-3.8c-1.6-1.5-2.6-3.2-2.8-5c0-0.2-0.1-0.6-0.1-1.1c0-2,0.7-3.7,2-5.3
			C630.4,126,631.9,125,633.6,124.5z"/>
		<path class="st7" d="M660.2,126.5c1.3,0,2.7-0.1,4.1-0.1c1,0,1.6,0.1,1.8,0.3c0.3,0.3,0.4,0.6,0.3,0.9c-0.1,0.3-0.3,0.6-0.8,0.8
			c-0.1,0-0.8,0.1-1.9,0.2c-1.1,0.1-2.3,0.1-3.3,0.2l-1.6,0.1c0,0-0.1,6.4-0.1,19c0,12.6-0.1,19-0.3,19.1c-0.1,0.1-0.3,0.2-0.8,0.2
			c-0.4,0-0.7-0.1-0.8-0.4c-0.2-0.2-0.3-2.5-0.3-6.7c0-6.1,0-12.1,0.1-18l0.1-13.2h-3.4c-2.2,0-3.5-0.1-3.9-0.3
			c-0.3-0.1-0.5-0.4-0.5-0.8c0-0.5,0.2-0.7,0.6-0.8C650.1,126.8,653.7,126.7,660.2,126.5z"/>
		<path class="st7" d="M673.5,130.8v-0.8c0-2.1,0.3-3.1,1-3.1c0.2,0,0.5,0.1,0.8,0.4l0.4,0.4l0.1,3.4c0,1.8,0.1,6.2,0.3,13.1
			c0.1,6.9,0.3,11.7,0.4,14.4c0.1,3.8,0.1,5.8,0.1,5.9c0,0.9,0,1.5-0.1,1.8c-0.1,0.3-0.3,0.5-0.6,0.6c-0.3,0.2-0.6,0.2-0.8,0
			s-0.5-0.4-0.6-0.7c-0.2-0.8-0.4-7.7-0.6-20.9C673.6,136.4,673.5,131.5,673.5,130.8z"/>
		<path class="st7" d="M692.4,124.4c0.2,0,0.5-0.1,0.9-0.1c0,0,0.1,0,0.2,0c0.1,0,0.2,0,0.3,0c0.2,0,0.4,0.1,0.7,0.3
			c0.3,0.2,0.4,0.4,0.4,0.6c0,0.5-0.5,0.9-1.6,1.1c-1.1,0.2-2.2,1-3.4,2.5c-1.6,2.1-2.7,4.4-3.3,7c-0.6,2.5-0.9,6-0.9,10.3
			c0,6.8,1.1,11.8,3.3,14.9c0.7,1.1,1.6,1.9,2.6,2.3c1,0.5,2.3,0.8,4.1,1c1.1,0.1,1.7,0.5,1.7,1.2c0,0.7-0.5,1-1.5,1h-0.3
			c-3.4-0.1-6-1.4-7.9-3.6c-1.9-2.3-3.2-6-4-11.1c-0.1-0.9-0.2-2.9-0.2-6.1c0-2.6,0.1-4.5,0.2-5.7c0.5-4.8,1.7-8.6,3.7-11.5
			C689.2,126.1,690.9,124.7,692.4,124.4z"/>
	</g>
</g>
</svg>
