<?xml version="1.0" encoding="utf-8"?>
<!-- Generator: Adobe Illustrator 24.0.1, SVG Export Plug-In . SVG Version: 6.00 Build 0)  -->
<svg version="1.1" id="Calque_1" xmlns="http://www.w3.org/2000/svg" xmlns:xlink="http://www.w3.org/1999/xlink" x="0px" y="0px"
	 viewBox="0 0 1000 225.2" style="enable-background:new 0 0 1000 225.2;" xml:space="preserve">
<style type="text/css">
	.st0{fill:#1E1E1C;}
	.st1{fill:#1E1E1C;stroke:#1E1E1C;stroke-width:0.25;stroke-miterlimit:10;}
	.st2{fill:#1E1E1C;stroke:#1E1E1C;stroke-width:0.15;stroke-miterlimit:10;}
	.st3{fill:#FFFFFF;}
	.st4{stroke:#1E1E1C;stroke-miterlimit:10;}
	.st5{fill:none;stroke:#1E1E1C;stroke-width:3;stroke-linecap:round;stroke-linejoin:round;stroke-miterlimit:10;}
</style>
<g>
	<g>
		<g>
			<path class="st4" d="M255.1,98.5c0.9,0,1.9,0,2.9,0c0.7,0,1.1,0.1,1.3,0.2c0.2,0.2,0.3,0.4,0.2,0.6c-0.1,0.2-0.3,0.4-0.5,0.5
				c-0.1,0-0.6,0.1-1.4,0.1c-0.8,0.1-1.6,0.1-2.4,0.1l-1.2,0.1c0,0-0.1,4.5-0.1,13.5c0,9-0.1,13.5-0.2,13.6
				c-0.1,0.1-0.3,0.2-0.5,0.2c-0.3,0-0.5-0.1-0.6-0.3c-0.1-0.2-0.2-1.8-0.2-4.8c0-4.4,0-8.7,0.1-12.9l0-9.4H250
				c-1.6,0-2.5-0.1-2.8-0.2c-0.2-0.1-0.4-0.3-0.4-0.5c0-0.3,0.1-0.5,0.5-0.6C247.9,98.7,250.4,98.6,255.1,98.5z"/>
			<path class="st4" d="M274,98.4c0.3-0.2,0.6-0.1,0.9,0.2c0.2,0.3,0.5,3.2,0.8,8.8c0.7,11.8,1,18.4,1,19.7c0,0.2,0,0.4,0,0.6v0
				c-0.2,0.4-0.4,0.5-0.8,0.3c-0.4-0.2-0.6-0.7-0.7-1.5c-0.1-0.8-0.2-2.7-0.3-5.7c-0.1-2.8-0.1-4.9-0.2-6.2
				c-0.1-1.1-0.1-1.6-0.1-1.7v-0.3H266l-0.1,7c-0.1,4.7-0.1,7.1-0.3,7.3c-0.3,0.4-0.7,0.3-1.3-0.2v-13.6c0-9.1,0-13.8,0.1-14
				c0.1-0.4,0.4-0.6,0.7-0.6c0.2,0,0.4,0.1,0.5,0.4c0.1,0.3,0.2,2.4,0.2,6.2v5.8h8.3v-1.9c0-0.9-0.1-2.8-0.3-5.8
				c-0.2-2.2-0.3-3.5-0.3-3.8C273.7,98.9,273.8,98.6,274,98.4z"/>
			<path class="st4" d="M284.9,97.5c0.6,0,1.4,0,2.2,0c1,0,1.6,0.1,1.8,0.3c0.3,0.2,0.3,0.5,0,1c-0.1,0.2-1.1,0.3-3,0.3
				c-0.7,0-1.4,0-2,0.1l-0.8,0l0,5.9c0.1,4.1,0.1,6.3,0.1,6.6l0.1,0.7h0.8c1,0,1.5,0.3,1.5,0.8c0,0.2,0,0.3-0.1,0.4
				c-0.2,0.3-0.7,0.5-1.5,0.5l-0.7,0l0,1.2c0,0.3,0,0.9,0,1.8c0,1.6,0,3.4,0.1,5.3c0.1,1.9,0.2,3,0.3,3.1c0.1,0.1,0.9,0.1,2.4,0.2
				c1.2,0.1,2,0.1,2.3,0.2c0.3,0.1,0.5,0.2,0.5,0.5c0,0.1-0.1,0.4-0.3,0.9l-2.9,0c-1.6,0-2.6,0-2.9-0.1c-0.3,0-0.5-0.2-0.6-0.6
				c-0.1-0.3-0.3-3.4-0.4-9.3c-0.1-5.9-0.2-11-0.2-15.1c0-2.5,0-3.8,0.1-4c0.1-0.1,0.1-0.2,0.2-0.2c0.1,0,0.2-0.1,0.3-0.1
				c0.1,0,0.2-0.1,0.3-0.1s0.3-0.1,0.5-0.1c0.2,0,0.4,0,0.5,0c0.1,0,0.4,0,0.6,0S284.7,97.5,284.9,97.5z"/>
			<path class="st4" d="M294.7,96.4c0.1-0.2,0.3-0.3,0.6-0.3c0.4,0,0.9,0.1,1.5,0.3c1.3,0.5,2.5,1.3,3.6,2.4
				c1.4,1.4,2.3,2.9,2.6,4.6c0.2,1,0.4,2.3,0.4,3.8c0,0.6,0,1-0.1,1.2c-0.2,1-0.6,2-1.4,3c-0.8,1-1.7,1.8-2.7,2.3
				c-0.6,0.3-0.8,0.5-0.8,0.5c0.3,0.2,0.6,0.5,0.8,0.7c0.3,0.2,0.4,0.4,0.6,0.5c0.1,0.1,0.2,0.2,0.3,0.2c0.6,0.4,1.3,1.3,2,2.7
				c0.5,1,1.2,2.7,2,5c0.6,1.5,0.9,2.5,0.9,3c0,0.2-0.1,0.4-0.3,0.6c-0.4,0.3-0.7,0.3-1,0c-0.2-0.1-0.6-1.2-1.4-3.4
				c-0.5-1.6-1-2.8-1.4-3.8c-0.9-1.8-2.1-3.3-3.6-4.3c-0.5-0.3-0.8-0.5-1.1-0.5c-0.2,0-0.3,0.1-0.4,0.3c0,1.9,0,3.9,0,6
				c0,1.3,0.1,2.8,0.1,4.5c0,1,0,1.5-0.1,1.5c-0.2,0.4-0.5,0.5-1,0.3c-0.2-0.1-0.4-0.4-0.4-0.9c-0.1-0.5-0.1-1.9-0.2-4
				c0-1,0-2.8,0-5.3c0-2,0-3.6,0-4.8c0.1-3.4,0.1-6.9,0.1-10.7C294.4,98.4,294.5,96.6,294.7,96.4C294.7,96.4,294.7,96.4,294.7,96.4z
				 M301.8,106.9c0-4-1.5-6.9-4.6-8.5c-0.5-0.2-0.7-0.4-0.8-0.4c-0.2,0-0.3,0.7-0.3,2c-0.1,2.7-0.1,6.5-0.1,11.2v1.8
				c0.1,0,0.6-0.2,1.6-0.5c1-0.4,1.5-0.6,1.7-0.6c0.5-0.3,1-0.9,1.6-1.9c0.5-0.7,0.7-1.1,0.8-1.4
				C301.7,108.3,301.8,107.7,301.8,106.9z"/>
			<path class="st4" d="M324.7,98.7c0.2-0.2,0.4-0.3,0.6-0.3c0.4,0,0.6,0.2,0.8,0.5c0.1,0.1,0.5,2.6,1.2,7.3
				c0.9,5.6,1.7,10.8,2.4,15.5c0.3,2.2,0.5,3.6,0.6,4c0.1,0.9,0.2,1.5,0.2,1.7c0,0.3-0.1,0.6-0.4,0.7c-0.3,0.1-0.5,0.1-0.7-0.2
				c-0.4-0.4-1-3.9-1.9-10.5c-1.2-9.1-2.1-14.6-2.5-16.4l-0.1-0.2c-0.1,0-0.5,0.5-1.1,1.4c-0.8,1.1-1.6,2.3-2.4,3.5
				c-0.8,1.1-1.3,1.8-1.5,2.1s-0.4,0.4-0.6,0.4c-0.3,0-0.8-0.6-1.4-1.7c-0.5-0.8-1.2-2-2.2-3.5c-1-1.5-1.6-2.3-1.6-2.3
				c-0.1,0-0.4,2.5-0.9,7.5c-0.9,9.2-1.4,14.6-1.6,16.2c-0.2,1.6-0.3,2.4-0.5,2.5l0,0c-0.2,0.2-0.5,0.2-0.7,0.1s-0.4-0.4-0.4-0.8
				c0-1.2,0.7-8.3,2.1-21.1c0.2-1.8,0.4-3.5,0.5-5.2c0.1-0.8,0.1-1.2,0.3-1.4c0.1-0.2,0.3-0.3,0.5-0.3c0.5,0,1,0.3,1.4,0.8
				c0.1,0.1,0.9,1.2,2.4,3.4c1.4,2.2,2.2,3.3,2.4,3.3c0,0,0.1,0,0.1,0c0.1-0.1,0.9-1.3,2.5-3.5C323.5,100.1,324.4,98.9,324.7,98.7z"
				/>
			<path class="st4" d="M341.5,97.2c0.3,0,0.7,0,1.3,0c1,0,1.8,0.1,2.3,0.3c2,0.8,3.5,2.7,4.4,5.6c0.4,1.3,0.7,2.6,0.8,3.9
				c0.1,1.3,0.2,3.3,0.3,6.1c0,2.9-0.2,5.3-0.6,7.4c-0.5,2.3-1.4,4.1-2.8,5.3c-1,1-2.4,1.5-4,1.5c-1.1,0-2.1-0.3-3.1-0.8
				c-0.9-0.6-1.6-1.3-2.1-2.1c-0.5-0.8-1-2-1.4-3.6c-0.6-2.2-0.9-4.4-0.9-6.6c0-1.9,0-2.8-0.1-2.8c0,0-0.1-0.4-0.1-1.1
				c0-2.3,0.1-4.3,0.3-5.8c0.2-2.5,1.1-4.5,2.5-5.8C339.2,97.8,340.3,97.3,341.5,97.2z M345.9,99.9c-1-0.9-2.1-1.4-3.3-1.4
				c-0.2,0-0.6,0-1,0.1c-2.3,0.5-3.7,2.3-4.2,5.2c-0.2,1-0.3,3-0.3,5.9c0,2.6,0.1,4.7,0.3,6.3c0.3,2.7,0.8,4.8,1.4,6.3
				c0.6,1.5,1.4,2.4,2.4,2.9c0.4,0.2,1,0.3,1.8,0.3c1.3,0,2.3-0.4,3.1-1.1c1.1-1,1.9-2.6,2.4-4.7c0.4-2,0.5-4.3,0.5-6.8l0-0.4
				c-0.1-0.1-0.1-0.9-0.1-2.4c0-2.2-0.3-4.3-0.8-6.2C347.6,102.2,346.9,100.8,345.9,99.9z"/>
			<path class="st4" d="M360.4,97c0.3-0.1,0.6-0.1,0.9-0.1c0.5,0,0.7,0.2,0.7,0.6c0,0.2-0.1,0.3-0.2,0.4c-0.1,0.1-0.4,0.2-1,0.4
				c-1,0.4-1.8,0.9-2.4,1.5c-0.8,0.9-1.3,2-1.3,3.2c0,0.6,0.1,1.2,0.4,1.7c0.2,0.5,1.4,1.8,3.8,4c1.5,1.4,2.3,2.2,2.5,2.4
				c1.4,1.8,2.1,4.2,2.1,7.2c0,2.4-0.9,4.5-2.6,6.3c-0.6,0.6-1.3,1.1-2,1.5c-0.4,0.2-1,0.4-1.9,0.7c-0.9,0.3-1.4,0.4-1.5,0.4
				c-0.4,0.2-1,0.3-1.6,0.3c-0.3,0-0.5-0.1-0.6-0.2c-0.1-0.1-0.1-0.3-0.1-0.6s0.1-0.4,0.2-0.5c0.2-0.2,1.2-0.5,3-0.9
				c1.3-0.3,2.4-0.9,3.3-1.8c1-1,1.7-2.1,2-3.3c0.1-0.5,0.2-1.2,0.2-2c0-1.5-0.2-2.8-0.6-3.9c-0.3-0.8-0.6-1.4-1-1.9
				c-0.4-0.5-1.1-1.3-2.2-2.4c-1.5-1.5-2.5-2.4-2.8-2.7c-1.2-1.1-1.8-2.3-2-3.5c0-0.2-0.1-0.4-0.1-0.8c0-1.4,0.5-2.7,1.4-3.8
				C358.1,98.1,359.1,97.4,360.4,97z"/>
			<path class="st4" d="M374.2,97.5c0.6,0,1.4,0,2.2,0c1,0,1.6,0.1,1.8,0.3c0.3,0.2,0.3,0.5,0,1c-0.1,0.2-1.1,0.3-3,0.3
				c-0.7,0-1.4,0-2,0.1l-0.8,0l0,5.9c0.1,4.1,0.1,6.3,0.1,6.6l0.1,0.7h0.8c1,0,1.5,0.3,1.5,0.8c0,0.2,0,0.3-0.1,0.4
				c-0.2,0.3-0.7,0.5-1.5,0.5l-0.7,0l0,1.2c0,0.3,0,0.9,0,1.8c0,1.6,0,3.4,0.1,5.3c0.1,1.9,0.2,3,0.3,3.1c0.1,0.1,0.9,0.1,2.4,0.2
				c1.2,0.1,2,0.1,2.3,0.2c0.3,0.1,0.5,0.2,0.5,0.5c0,0.1-0.1,0.4-0.3,0.9l-2.9,0c-1.6,0-2.6,0-2.9-0.1c-0.3,0-0.5-0.2-0.6-0.6
				c-0.1-0.3-0.3-3.4-0.4-9.3c-0.1-5.9-0.2-11-0.2-15.1c0-2.5,0-3.8,0.1-4c0.1-0.1,0.1-0.2,0.2-0.2c0.1,0,0.2-0.1,0.3-0.1
				c0.1,0,0.2-0.1,0.3-0.1s0.3-0.1,0.5-0.1c0.2,0,0.4,0,0.5,0c0.1,0,0.4,0,0.6,0S374,97.5,374.2,97.5z"/>
		</g>
		<path class="st4" d="M391.9,98.5c0.9,0,1.9,0,2.9,0c0.7,0,1.1,0.1,1.3,0.2c0.2,0.2,0.3,0.4,0.2,0.6c-0.1,0.2-0.3,0.4-0.5,0.5
			c-0.1,0-0.6,0.1-1.4,0.1c-0.8,0.1-1.6,0.1-2.4,0.1l-1.2,0.1c0,0-0.1,4.5-0.1,13.5c0,9-0.1,13.5-0.2,13.6c-0.1,0.1-0.3,0.2-0.5,0.2
			c-0.3,0-0.5-0.1-0.6-0.3c-0.1-0.2-0.2-1.8-0.2-4.8c0-4.4,0-8.7,0.1-12.9l0-9.4h-2.4c-1.6,0-2.5-0.1-2.8-0.2
			c-0.2-0.1-0.4-0.3-0.4-0.5c0-0.3,0.1-0.5,0.5-0.6C384.7,98.7,387.2,98.6,391.9,98.5z"/>
	</g>
	<g>
		<path class="st4" d="M468.5,110.1c0.1-0.1,0.2-0.2,0.3-0.2c0.2,0,0.3,0.1,0.4,0.2c0.1,0.1,0.1,0.3,0.1,0.4c0,0.4-0.3,1.7-0.9,3.7
			c-2.7,9-4.2,13.8-4.6,14.5c-0.1,0.3-0.3,0.5-0.6,0.5c-0.1,0-0.2,0-0.4-0.1c-0.2-0.2-0.9-1.7-2-4.4s-2.3-6-3.6-9.6
			c-0.1-0.3-0.3-0.7-0.5-1.4c-0.3-0.7-0.4-1.1-0.5-1.4c-0.4-0.9-0.5-1.4-0.5-1.6c0-0.4,0.2-0.5,0.5-0.5c0.1,0,0.3,0.1,0.4,0.2
			c0.2,0.2,1.7,3.9,4.4,11.2c1.1,3,1.8,4.7,1.9,4.9c0.1,0.3,0.2,0.4,0.2,0.4c0,0,0,0,0.1-0.1c0.5-1.3,1.9-5.8,4.3-13.7
			c0.3-1,0.5-1.8,0.6-2.2C468.3,110.5,468.4,110.2,468.5,110.1z"/>
		<path class="st4" d="M476.2,107.7c0.2-0.1,0.4-0.1,0.6-0.1c0.3,0,0.5,0.1,0.5,0.4c0,0.1,0,0.2-0.1,0.3c-0.1,0.1-0.3,0.2-0.7,0.3
			c-0.7,0.3-1.2,0.6-1.6,1c-0.6,0.6-0.9,1.4-0.9,2.2c0,0.4,0.1,0.8,0.2,1.2c0.1,0.3,1,1.2,2.7,2.8c1,1,1.6,1.6,1.7,1.7
			c1,1.3,1.5,3,1.5,5c0,1.7-0.6,3.1-1.9,4.4c-0.4,0.4-0.9,0.8-1.4,1c-0.3,0.1-0.7,0.3-1.3,0.5c-0.6,0.2-1,0.3-1.1,0.3
			c-0.3,0.1-0.7,0.2-1.2,0.2c-0.2,0-0.4,0-0.4-0.1c-0.1-0.1-0.1-0.2-0.1-0.4c0-0.2,0-0.3,0.1-0.4c0.1-0.1,0.9-0.3,2.1-0.6
			c0.9-0.2,1.7-0.6,2.3-1.3c0.7-0.7,1.2-1.5,1.4-2.3c0.1-0.3,0.1-0.8,0.1-1.4c0-1.1-0.1-2-0.4-2.7c-0.2-0.5-0.4-1-0.7-1.3
			c-0.3-0.4-0.8-0.9-1.5-1.7c-1.1-1.1-1.7-1.7-1.9-1.9c-0.8-0.7-1.3-1.6-1.4-2.5c0-0.1,0-0.3,0-0.6c0-1,0.3-1.9,1-2.6
			C474.6,108.5,475.3,108,476.2,107.7z"/>
	</g>
	<g>
		<path class="st4" d="M545.2,98.5c0.9,0,1.9,0,2.9,0c0.7,0,1.1,0.1,1.3,0.2c0.2,0.2,0.3,0.4,0.2,0.6c-0.1,0.2-0.3,0.4-0.5,0.5
			c-0.1,0-0.6,0.1-1.4,0.1c-0.8,0.1-1.6,0.1-2.4,0.1l-1.2,0.1c0,0-0.1,4.5-0.1,13.5c0,9-0.1,13.5-0.2,13.6c-0.1,0.1-0.3,0.2-0.5,0.2
			c-0.3,0-0.5-0.1-0.6-0.3c-0.1-0.2-0.2-1.8-0.2-4.8c0-4.4,0-8.7,0.1-12.9l0-9.4h-2.4c-1.6,0-2.5-0.1-2.8-0.2
			c-0.2-0.1-0.4-0.3-0.4-0.5c0-0.3,0.1-0.5,0.5-0.6C538,98.7,540.6,98.6,545.2,98.5z"/>
		<path class="st4" d="M564.2,98.4c0.3-0.2,0.6-0.1,0.9,0.2c0.2,0.3,0.5,3.2,0.8,8.8c0.7,11.8,1,18.4,1,19.7c0,0.2,0,0.4,0,0.6v0
			c-0.2,0.4-0.4,0.5-0.8,0.3c-0.4-0.2-0.6-0.7-0.7-1.5c-0.1-0.8-0.2-2.7-0.3-5.7c-0.1-2.8-0.1-4.9-0.2-6.2c-0.1-1.1-0.1-1.6-0.1-1.7
			v-0.3h-8.6l-0.1,7c-0.1,4.7-0.1,7.1-0.3,7.3c-0.3,0.4-0.7,0.3-1.3-0.2v-13.6c0-9.1,0-13.8,0.1-14c0.1-0.4,0.4-0.6,0.7-0.6
			c0.2,0,0.4,0.1,0.5,0.4c0.1,0.3,0.2,2.4,0.2,6.2v5.8h8.3v-1.9c0-0.9-0.1-2.8-0.3-5.8c-0.2-2.2-0.3-3.5-0.3-3.8
			C563.9,98.9,564,98.6,564.2,98.4z"/>
		<path class="st4" d="M575.1,97.5c0.6,0,1.4,0,2.2,0c1,0,1.6,0.1,1.8,0.3c0.3,0.2,0.3,0.5,0,1c-0.1,0.2-1.1,0.3-3,0.3
			c-0.7,0-1.4,0-2,0.1l-0.8,0l0,5.9c0.1,4.1,0.1,6.3,0.1,6.6l0.1,0.7h0.8c1,0,1.5,0.3,1.5,0.8c0,0.2,0,0.3-0.1,0.4
			c-0.2,0.3-0.7,0.5-1.5,0.5l-0.7,0l0,1.2c0,0.3,0,0.9,0,1.8c0,1.6,0,3.4,0.1,5.3c0.1,1.9,0.2,3,0.3,3.1c0.1,0.1,0.9,0.1,2.4,0.2
			c1.2,0.1,2,0.1,2.3,0.2c0.3,0.1,0.5,0.2,0.5,0.5c0,0.1-0.1,0.4-0.3,0.9l-2.9,0c-1.6,0-2.6,0-2.9-0.1c-0.3,0-0.5-0.2-0.6-0.6
			c-0.1-0.3-0.3-3.4-0.4-9.3c-0.1-5.9-0.2-11-0.2-15.1c0-2.5,0-3.8,0.1-4c0.1-0.1,0.1-0.2,0.2-0.2c0.1,0,0.2-0.1,0.3-0.1
			c0.1,0,0.2-0.1,0.3-0.1s0.3-0.1,0.5-0.1c0.2,0,0.4,0,0.5,0c0.1,0,0.4,0,0.6,0S574.9,97.5,575.1,97.5z"/>
		<path class="st4" d="M584.8,96.4c0.1-0.2,0.3-0.3,0.6-0.3c0.4,0,1,0.1,1.6,0.3c1.3,0.5,2.5,1.3,3.6,2.4c1.4,1.4,2.3,2.9,2.6,4.6
			c0.2,1,0.4,2.3,0.4,3.8c0,0.6,0,1,0,1.2c-0.2,1-0.7,2-1.5,3c-0.8,1-1.7,1.8-2.7,2.3c-0.6,0.3-0.8,0.5-0.8,0.5
			c0.3,0.2,0.6,0.5,0.8,0.7c0.3,0.2,0.4,0.4,0.5,0.5c0.1,0.1,0.2,0.2,0.3,0.2c0.6,0.4,1.3,1.3,2,2.7c0.5,1,1.2,2.7,2.1,5
			c0.6,1.5,0.8,2.5,0.8,3c0,0.2-0.1,0.4-0.3,0.6c-0.4,0.3-0.7,0.3-1,0c-0.2-0.1-0.6-1.2-1.3-3.4c-0.5-1.6-1-2.8-1.5-3.8
			c-0.9-1.8-2.1-3.3-3.6-4.3c-0.5-0.3-0.8-0.5-1.1-0.5c-0.2,0-0.3,0.1-0.4,0.3c0,1.9,0,3.9,0.1,6c0,1.3,0,2.8,0,4.5c0,1,0,1.5,0,1.5
			c-0.2,0.4-0.5,0.5-1,0.3c-0.2-0.1-0.4-0.4-0.5-0.9c-0.1-0.5-0.1-1.9-0.2-4c0-1,0-2.8,0-5.3c0-2,0-3.6,0-4.8
			c0.1-3.4,0.2-6.9,0.2-10.7C584.6,98.4,584.6,96.6,584.8,96.4C584.8,96.4,584.8,96.4,584.8,96.4z M591.9,106.9c0-4-1.5-6.9-4.6-8.5
			c-0.5-0.2-0.7-0.4-0.8-0.4c-0.2,0-0.3,0.7-0.3,2c-0.1,2.7-0.1,6.5-0.1,11.2v1.8c0.1,0,0.6-0.2,1.6-0.5c1-0.4,1.5-0.6,1.7-0.6
			c0.5-0.3,1-0.9,1.6-1.9c0.5-0.7,0.7-1.1,0.8-1.4C591.9,108.3,591.9,107.7,591.9,106.9z"/>
		<path class="st4" d="M614.8,98.7c0.2-0.2,0.4-0.3,0.6-0.3c0.4,0,0.6,0.2,0.8,0.5c0.1,0.1,0.5,2.6,1.2,7.3
			c0.9,5.6,1.7,10.8,2.4,15.5c0.3,2.2,0.5,3.6,0.6,4c0.1,0.9,0.2,1.5,0.2,1.7c0,0.3-0.1,0.6-0.4,0.7c-0.3,0.1-0.5,0.1-0.7-0.2
			c-0.4-0.4-1-3.9-1.9-10.5c-1.2-9.1-2.1-14.6-2.5-16.4l-0.1-0.2c-0.1,0-0.5,0.5-1.1,1.4c-0.8,1.1-1.6,2.3-2.4,3.5
			c-0.8,1.1-1.3,1.8-1.5,2.1s-0.4,0.4-0.6,0.4c-0.3,0-0.8-0.6-1.4-1.7c-0.5-0.8-1.2-2-2.2-3.5s-1.6-2.3-1.6-2.3
			c-0.1,0-0.4,2.5-0.9,7.5c-0.9,9.2-1.4,14.6-1.5,16.2c-0.2,1.6-0.3,2.4-0.5,2.5l-0.1,0c-0.2,0.2-0.5,0.2-0.7,0.1s-0.4-0.4-0.4-0.8
			c0-1.2,0.7-8.3,2.1-21.1c0.2-1.8,0.4-3.5,0.5-5.2c0.1-0.8,0.2-1.2,0.3-1.4c0.1-0.2,0.3-0.3,0.5-0.3c0.5,0,1,0.3,1.4,0.8
			c0.1,0.1,0.8,1.2,2.3,3.4c1.4,2.2,2.2,3.3,2.4,3.3c0,0,0.1,0,0.1,0c0.1-0.1,0.9-1.3,2.5-3.5C613.6,100.1,614.5,98.9,614.8,98.7z"
			/>
		<path class="st4" d="M631.6,97.2c0.3,0,0.7,0,1.3,0c1,0,1.8,0.1,2.3,0.3c2,0.8,3.5,2.7,4.4,5.6c0.4,1.3,0.7,2.6,0.8,3.9
			c0.1,1.3,0.2,3.3,0.3,6.1c0,2.9-0.2,5.3-0.6,7.4c-0.5,2.3-1.4,4.1-2.8,5.3c-1,1-2.4,1.5-4,1.5c-1.1,0-2.1-0.3-3-0.8
			c-0.9-0.6-1.7-1.3-2.2-2.1c-0.5-0.8-1-2-1.4-3.6c-0.6-2.2-0.8-4.4-0.8-6.6c0-1.9,0-2.8-0.2-2.8c0,0,0-0.4,0-1.1
			c0-2.3,0.1-4.3,0.3-5.8c0.2-2.5,1.1-4.5,2.5-5.8C629.4,97.8,630.4,97.3,631.6,97.2z M636.1,99.9c-1-0.9-2.1-1.4-3.3-1.4
			c-0.2,0-0.5,0-0.9,0.1c-2.3,0.5-3.7,2.3-4.2,5.2c-0.2,1-0.3,3-0.3,5.9c0,2.6,0.1,4.7,0.3,6.3c0.3,2.7,0.8,4.8,1.4,6.3
			c0.6,1.5,1.4,2.4,2.4,2.9c0.4,0.2,1,0.3,1.8,0.3c1.3,0,2.3-0.4,3.1-1.1c1.1-1,1.9-2.6,2.3-4.7c0.4-2,0.5-4.3,0.5-6.8l0-0.4
			c-0.1-0.1-0.1-0.9-0.1-2.4c0-2.2-0.3-4.3-0.8-6.2C637.8,102.2,637,100.8,636.1,99.9z"/>
		<path class="st4" d="M646.6,96.2h0.2c1.2,0,2.7,0.6,4.5,1.8c1.2,0.8,2.2,2,2.9,3.3c0.7,1.4,1.1,2.9,1.1,4.4c0,0.6,0,1.1-0.1,1.4
			c-0.2,1.1-0.6,2.1-1.1,3c-0.5,0.9-1.4,1.8-2.6,2.8c-0.7,0.6-1.5,1.1-2.2,1.6c-0.7,0.5-1.2,0.8-1.3,1c-0.1,0.2-0.1,1.1-0.1,2.8v3
			l0.1,5.4c-0.3,0.3-0.7,0.5-1,0.5c-0.2,0-0.3-0.1-0.5-0.3c-0.1-0.1-0.2-0.3-0.3-0.7c-0.1-0.4-0.1-3.6-0.2-9.6
			c-0.1-5.7-0.1-9.4-0.2-11.2c-0.1-3-0.2-5.4-0.2-7.1c0-0.7,0-1.2,0-1.3C645.9,96.6,646.1,96.2,646.6,96.2z M648.6,98.3
			c-0.5-0.2-0.9-0.3-1.1-0.3h-0.3l0,2c0,0.4,0.1,1.3,0.1,3c0.1,1.6,0.1,2.8,0.1,3.6c0.2,4.6,0.3,6.8,0.4,6.8h0
			c0.6-0.3,1.4-0.8,2.5-1.7c1.6-1.3,2.6-2.8,3-4.3c0.1-0.4,0.2-0.9,0.2-1.4c0-1-0.1-1.9-0.4-2.7C652.5,101,651,99.3,648.6,98.3z"/>
		<path class="st4" d="M660.4,98.6c0.1-0.1,0.2-0.2,0.3-0.2c0.3,0,0.5,0.2,0.8,0.7c0.1,0.1,0.1,3.4,0.2,9.7
			c0.1,11,0.2,16.6,0.4,16.8c0.1,0.1,0.6,0.1,1.6,0.2c1,0,1.5,0.2,1.8,0.3c0.5,0.4,0.4,0.8-0.1,1.2c-0.2,0.1-0.4,0.2-0.7,0.2
			c-0.5,0-0.9,0-1.4,0c-1.2-0.1-1.9-0.1-2-0.2c-0.4-0.2-0.6-0.7-0.8-1.6c-0.1-0.6-0.2-5.6-0.2-15C660.3,102.7,660.3,98.7,660.4,98.6
			z"/>
		<path class="st4" d="M677,99.3c0.6-0.4,1.1-0.5,1.4-0.3c0.3,0.3,1.1,3,2.5,8c0.9,3.5,2.3,8.6,4,15.2c0.8,3.2,1.2,5,1.2,5.5
			c0,0.3-0.1,0.5-0.4,0.6c-0.4,0.2-0.7,0-1-0.6c-0.3-0.8-1.3-4.6-3.1-11.6c-0.3-1.2-0.5-1.9-0.7-2.1c-0.1-0.2-0.3-0.3-0.5-0.4
			c-0.5-0.1-1.9-0.1-4.3-0.1c-0.7,0-1.1,0-1.1,0s-0.3,1.1-0.7,3.3c-0.4,2.1-0.9,4.3-1.3,6.6s-0.8,3.5-0.8,3.7
			c-0.1,0.3-0.3,0.5-0.6,0.5s-0.5-0.1-0.6-0.4c-0.1-0.1-0.1-0.3-0.1-0.4c0-0.2,0.1-0.7,0.2-1.3c0.2-1.4,1.1-5.8,2.6-13.2
			c1.5-7.4,2.3-11.3,2.4-11.7C676.2,100,676.5,99.6,677,99.3z M678.7,105c-0.6-2.4-1-3.6-1-3.7c-0.1-0.1-0.2-0.1-0.3,0.1
			s-0.4,1.9-1,5c-0.6,3.2-0.9,4.9-0.9,5.1c0,0.1,0.3,0.2,1,0.3c0.6,0,1,0,1.5,0c1.7,0,2.5-0.1,2.5-0.2c0,0-0.1-0.6-0.4-1.7
			c-0.1-0.2-0.3-0.9-0.6-2.1C679.1,106.7,678.9,105.7,678.7,105z"/>
		<path class="st4" d="M695.9,97c0.3-0.1,0.6-0.1,0.9-0.1c0.5,0,0.7,0.2,0.7,0.6c0,0.2-0.1,0.3-0.2,0.4c-0.1,0.1-0.4,0.2-1,0.4
			c-1,0.4-1.8,0.9-2.3,1.5c-0.8,0.9-1.3,2-1.3,3.2c0,0.6,0.1,1.2,0.3,1.7c0.2,0.5,1.4,1.8,3.8,4c1.5,1.4,2.3,2.2,2.5,2.4
			c1.4,1.8,2.1,4.2,2.1,7.2c0,2.4-0.9,4.5-2.6,6.3c-0.6,0.6-1.3,1.1-2,1.5c-0.4,0.2-1,0.4-1.9,0.7c-0.9,0.3-1.4,0.4-1.5,0.4
			c-0.4,0.2-0.9,0.3-1.6,0.3c-0.3,0-0.5-0.1-0.5-0.2c-0.1-0.1-0.2-0.3-0.2-0.6s0.1-0.4,0.2-0.5c0.2-0.2,1.2-0.5,3-0.9
			c1.3-0.3,2.4-0.9,3.3-1.8c1-1,1.7-2.1,2-3.3c0.1-0.5,0.2-1.2,0.2-2c0-1.5-0.2-2.8-0.6-3.9c-0.3-0.8-0.6-1.4-1-1.9
			c-0.4-0.5-1.1-1.3-2.2-2.4c-1.5-1.5-2.5-2.4-2.8-2.7c-1.2-1.1-1.8-2.3-2-3.5c0-0.2,0-0.4,0-0.8c0-1.4,0.5-2.7,1.4-3.8
			C693.6,98.1,694.6,97.4,695.9,97z"/>
		<path class="st4" d="M714.8,98.5c0.9,0,1.9,0,2.9,0c0.7,0,1.1,0.1,1.3,0.2c0.2,0.2,0.3,0.4,0.2,0.6c-0.1,0.2-0.3,0.4-0.5,0.5
			c-0.1,0-0.6,0.1-1.4,0.1c-0.8,0.1-1.6,0.1-2.4,0.1l-1.2,0.1c0,0-0.1,4.5-0.1,13.5c0,9-0.1,13.5-0.2,13.6c-0.1,0.1-0.3,0.2-0.5,0.2
			c-0.3,0-0.5-0.1-0.6-0.3c-0.1-0.2-0.2-1.8-0.2-4.8c0-4.4,0-8.7,0-12.9l0-9.4h-2.4c-1.6,0-2.5-0.1-2.8-0.2
			c-0.2-0.1-0.3-0.3-0.3-0.5c0-0.3,0.2-0.5,0.5-0.6C707.6,98.7,710.2,98.6,714.8,98.5z"/>
		<path class="st4" d="M724.3,101.5v-0.6c0-1.5,0.3-2.2,0.8-2.2c0.2,0,0.3,0.1,0.5,0.3l0.3,0.3l0.1,2.5c0,1.3,0.1,4.4,0.2,9.4
			c0.1,4.9,0.2,8.3,0.3,10.3c0.1,2.7,0.1,4.1,0.1,4.2c0,0.7,0,1.1-0.1,1.3c-0.1,0.2-0.2,0.3-0.4,0.4c-0.2,0.1-0.4,0.1-0.6,0
			c-0.2-0.1-0.3-0.3-0.4-0.5c-0.2-0.6-0.3-5.5-0.5-14.9C724.4,105.5,724.4,102.1,724.3,101.5z"/>
		<path class="st4" d="M737.9,97c0.2,0,0.4,0,0.6,0c0,0,0.1,0,0.2,0c0.1,0,0.2,0,0.2,0c0.1,0,0.3,0.1,0.5,0.3
			c0.2,0.2,0.3,0.3,0.3,0.5c0,0.4-0.4,0.6-1.1,0.8c-0.8,0.1-1.6,0.7-2.4,1.8c-1.1,1.5-1.9,3.2-2.3,5c-0.4,1.8-0.7,4.3-0.7,7.4
			c0,4.9,0.8,8.4,2.3,10.7c0.5,0.8,1.2,1.3,1.9,1.7c0.7,0.4,1.7,0.6,2.9,0.7c0.8,0.1,1.2,0.4,1.2,0.8c0,0.5-0.3,0.8-1,0.8h-0.3
			c-2.4-0.1-4.3-1-5.7-2.6c-1.3-1.6-2.3-4.3-2.8-7.9c-0.1-0.6-0.2-2.1-0.2-4.3c0-1.8,0.1-3.2,0.2-4.1c0.3-3.4,1.2-6.1,2.7-8.3
			C735.6,98.2,736.7,97.2,737.9,97z"/>
	</g>
	<rect x="217.8" y="70" class="st5" width="208.2" height="80.1"/>
	<g>
		<g>
			<path class="st0" d="M515.9,78.8c-1.5,4.6-2.8,9.2-3.3,14c-0.5,4.1-0.2,8.3,0.6,12.3c0.9,4.8,2.6,9.4,3.8,14.1
				c1.2,4.7,1.8,9.5,2,14.4c0.2,5.4,0,10.9-0.8,16.2c-0.2,1.6,2.2,2.3,2.4,0.7c1.4-9.4,1.4-19.2-0.4-28.6c-1-4.8-2.8-9.4-3.9-14.2
				c-1-4.1-1.6-8.3-1.4-12.6c0.3-5.4,1.7-10.6,3.4-15.6C518.8,77.9,516.4,77.2,515.9,78.8L515.9,78.8z"/>
		</g>
	</g>
	<g>
		<g>
			<path class="st0" d="M519.1,151.3c5.7,1.9,11.9,2.4,18,2.4c6.9,0,13.9-0.7,20.7-1.6c14-1.9,27.8-5.3,41.8-6.8
				c17.5-1.9,35.2-1.5,52.7,0.1c17.8,1.7,35.4,4.8,52.9,8.1c8.6,1.6,17.1,2.8,25.8,1.4c8-1.3,15.9-4.1,24.1-4c2,0,4,0.3,6,0.7
				c1.6,0.4,2.2-2,0.7-2.4c-7.9-1.9-15.9,0-23.7,1.8c-4.1,0.9-8.2,1.8-12.3,2.1c-4.5,0.3-8.9-0.1-13.3-0.8
				c-8.8-1.3-17.5-3.2-26.2-4.7c-8.7-1.5-17.4-2.8-26.1-3.8c-17.5-2-35.2-2.9-52.7-1.6c-14.7,1.1-29,4.3-43.4,6.6
				c-7,1.1-14,2-21,2.4c-6.3,0.3-12.8,0.3-19.1-1.1c-1.4-0.3-2.7-0.7-4-1.1C518.2,148.4,517.5,150.8,519.1,151.3L519.1,151.3z"/>
		</g>
	</g>
	<g>
		<g>
			<path class="st0" d="M762.6,150.7c1.6-10,1.2-20.2,0.2-30.1c-1.2-10.7-3.2-21.2-6-31.6c-1.4-5.3-3.1-10.5-5-15.6
				c-0.6-1.5-3-0.8-2.4,0.7c3.5,9.2,6.2,18.9,8.1,28.5c2.1,10.4,3.5,21,3.7,31.6c0.1,5.3-0.1,10.6-0.9,15.9
				C759.9,151.6,762.3,152.3,762.6,150.7L762.6,150.7z"/>
		</g>
	</g>
	<g>
		<g>
			<path class="st0" d="M517.1,80.4c31.6,1.4,62.7-5.2,94.1-6.7c30.1-1.5,60,2.9,90.1,4c16.5,0.6,33.2,0.3,49.5-2.7
				c1.6-0.3,0.9-2.7-0.7-2.4c-29.4,5.5-59.6,2.2-89.2,0c-14.8-1.1-29.6-2-44.4-1.6c-15.7,0.5-31.4,2.4-47,4.1
				c-17.4,1.9-34.9,3.6-52.4,2.8C515.5,77.8,515.5,80.3,517.1,80.4L517.1,80.4z"/>
		</g>
	</g>
</g>
</svg>
