<svg xmlns="http://www.w3.org/2000/svg" viewBox="0 0 44.53 42.28"><title>icon weight</title><g id="Calque_1" data-name="Calque 1"><path d="M44.5,37.08a115.1,115.1,0,0,0-7.39-25.62,1.17,1.17,0,0,0-1.42-.75c-3.75,0-7.46.09-11.16.28a5.27,5.27,0,0,0,2.1-5.36C26,1.77,22.07-.45,18.34.08s-6.18,3.7-5.18,7.38A6.94,6.94,0,0,0,16,11.57c-3.46.28-6.93.6-10.43.95l-.13,0a1.24,1.24,0,0,0-1.31,1.07A252.51,252.51,0,0,0,0,40a1.22,1.22,0,0,0,1.05,1.4,1.56,1.56,0,0,0,.45.1c14.27.83,28.12,2.06,42-2.57a1.43,1.43,0,0,0,1-1.08A1.59,1.59,0,0,0,44.5,37.08ZM19.53,3c1.95,0,4,1.33,4.2,3.44S21.83,9.32,20,9.6,16.81,8.81,16.18,7C15.33,4.64,17.16,3,19.53,3ZM3.15,38.58c.77-7.79,2.13-15.5,3.63-23.18,9.38-.93,18.61-1.67,28-1.68a110.72,110.72,0,0,1,6.52,22.72C28.7,40.32,16.13,39.37,3.15,38.58Z" style="fill:#1d1d1b"/><path d="M21.15,28.92a20.87,20.87,0,0,0-4.41-1.25c.68-1.56,1.35-3.14,2-4.73.71-1.79-2.19-2.57-2.9-.79C15.26,23.58,14.66,25,14,26.4c-.3-1.32-.61-2.64-.91-4-.44-1.88-3.33-1.08-2.9.8l2.67,11.5c.43,1.88,3.33,1.09,2.89-.8-.21-.92-.43-1.84-.64-2.77.11-.23.2-.46.31-.69a19.8,19.8,0,0,1,4.89,1.33,1.5,1.5,0,1,0,.8-2.89Z" style="fill:#1d1d1b"/><path d="M31.88,24.23a1.53,1.53,0,0,0-1.44-1.1,4.64,4.64,0,0,0-2.86.67,1.5,1.5,0,0,0,1.51,2.59,1.35,1.35,0,0,1,.3-.14,4.59,4.59,0,0,1,.42,2.18c-.59,1-2.73.08-3.32-.4-1.55-1.25-2.33-6.38.6-6.65,1.91-.18,1.93-3.18,0-3-5.65.52-6.4,8.7-2.59,11.92a6.16,6.16,0,0,0,6.61.92C33.93,29.72,32.46,26.63,31.88,24.23Z" style="fill:#1d1d1b"/></g></svg>