<?xml version="1.0" encoding="utf-8"?>
<!-- Generator: Adobe Illustrator 24.0.1, SVG Export Plug-In . SVG Version: 6.00 Build 0)  -->
<svg version="1.1" xmlns="http://www.w3.org/2000/svg" xmlns:xlink="http://www.w3.org/1999/xlink" x="0px" y="0px"
	 viewBox="0 0 1000 365.3" style="enable-background:new 0 0 1000 365.3;" xml:space="preserve">
<style type="text/css">
	.st0{display:none;}
	.st1{display:inline;}
	.st2{fill:#95D2EF;}
	.st3{fill:#FCDE8A;}
	.st4{fill:#1E1E1C;}
	.st5{fill:#1E1E1C;stroke:#1E1E1C;stroke-width:0.25;stroke-miterlimit:10;}
	.st6{fill:#1E1E1C;stroke:#1E1E1C;stroke-width:0.15;stroke-miterlimit:10;}
	.st7{fill:#FFFFFF;}
	.st8{stroke:#1E1E1C;stroke-miterlimit:10;}
	.st9{fill:none;stroke:#1E1E1C;stroke-width:3;stroke-linecap:round;stroke-linejoin:round;stroke-miterlimit:10;}
</style>
<g id="Calque_2" class="st0">
	
		<image style="display:inline;overflow:visible;" width="800" height="461" xlink:href="7B693354.jpg"  transform="matrix(0.7655 0 0 0.7655 179.1685 14.0233)">
	</image>
</g>
<g id="Calque_1">
	<path d="M544.2,304.2c0-0.7-0.4-1.4-1.3-1.6c-2.4-0.4-3.5-2.9-3.7-5.1c-0.3-3.5,1-7,0.5-10.6c-0.2-1.6-0.7-2.9-2.1-3.8
		c-1.2-0.8-2.7-1.2-4-1.9c-2.6-1.3-5-3-7.1-4.9c-4.5-4-8.1-9-10.9-14.4c-3-5.8-5.4-12.2-5.4-18.8c0-6.1,2.3-11.7,6.5-16.2
		c3.9-4.2,8.8-7.2,14-9.6c1.3-0.6,2.7-1.2,4-1.7c1.6-0.6,2.9-1.4,3.5-3.1c0.5-1.5,0.5-3.3,0.7-4.9c0.2-1.9,0.4-3.9,0.5-5.8
		c0.3-3.7,0.4-7.5,0.5-11.2c0-1.4,0.1-2.9-0.7-4.1c-1.1-1.6-3-1.6-4.7-1.6c-8.7-0.1-17.3-0.2-26-0.3c-4.2-0.1-8.4-0.2-12.6-0.1
		c-3.7,0.1-7.5,0.7-10.7,2.6c-0.6,0.4-0.9,0.9-0.9,1.5c0,0,0,0.1,0,0.1c-1.4,15,1.3,30,1.2,45c-0.2,15.5-2,31-2.1,46.5
		c-0.1,8.7,0.5,17.5,2.1,26.1c0,0.2,0.1,0.4,0.2,0.5c-0.1,0.8,0.3,1.7,1.3,2c4.3,1.5,8.7,1.8,13.1,1.2c4.6-0.6,9.1-1.8,13.6-2.6
		c9.3-1.6,18.9-2.6,28.3-1.3c0.2,0,0.4,0,0.5,0c0.8,0,1.5-0.4,1.8-1.3C544.2,304.7,544.3,304.5,544.2,304.2z M514.6,303.7
		c-4.6,0.8-9.1,1.8-13.7,2.6c-4,0.7-7.9,0.6-11.8-0.5c0-0.1,0-0.2,0-0.3c-2.9-15.2-2-30.8-1-46.2c0.5-7.7,1-15.4,1.2-23
		c0.2-7.5-0.3-15-0.8-22.5c-0.6-7.9-1.1-15.8-0.4-23.7c2.5-1.2,5.4-1.6,8.2-1.6c3.6-0.1,7.2,0.1,10.9,0.1c7.7,0.1,15.3,0.2,23,0.3
		c1.8,0,3.7,0,5.5,0.1c0.7,0,0.7-0.1,0.7,0.7c0,0.9,0,1.9,0,2.8c-0.1,3.7-0.3,7.5-0.6,11.2c-0.1,1.8-0.3,3.6-0.5,5.4
		c-0.1,0.8,0,1.8-0.3,2.5c-0.2,0.6-0.8,0.7-1.3,0.9c-2.7,1.1-5.4,2.3-8,3.6c-5,2.7-9.7,6.2-13.2,10.7c-3.8,4.9-5.8,10.8-5.7,17
		c0.1,6.7,2.3,13.2,5.3,19.2c2.7,5.3,6.1,10.4,10.3,14.6c2.3,2.3,4.8,4.3,7.6,5.9c1.5,0.9,3,1.6,4.5,2.3c0.6,0.2,1.3,0.4,1.6,1
		c0.3,0.7,0.2,1.9,0.1,2.6c-0.2,3.7-1.3,7.4-0.1,11c0.2,0.6,0.5,1.2,0.8,1.8C529.3,301.8,521.9,302.5,514.6,303.7z"/>
	<path d="M658.2,228.8c0.2-13.1-0.1-26.2-0.9-39.3c0-0.6-0.3-1.1-0.7-1.4c-0.2-0.6-0.8-1.1-1.7-1.1c-16.4,0.4-32.8,2-49.3,1.6
		c-0.9,0-1.5,0.5-1.7,1.2c-0.1,0.2-0.1,0.4-0.2,0.7c-0.3,4.7-0.6,9.4-0.8,14.2c-0.1,2.3-0.3,4.6-0.4,7c-0.1,2.1,0.4,3.9,2.2,5
		c1.5,0.9,3.3,1.4,4.9,2.2c1.7,0.8,3.4,1.8,5,2.9c3.3,2.3,5.9,5.2,7.9,8.6c7.6,13.2,8.6,32.2-2,44.1c-5.1,5.7-12.3,9.6-20.1,9.4
		c-1.3,0-2.1,1.2-1.8,2.4c1.3,5.3,0,11.1-3.5,15.3c-0.2,0.1-0.3,0.3-0.4,0.5c-0.3,0.6-0.3,1.1-0.1,1.7c0.1,0.4,0.4,0.7,0.7,0.9
		c0,0,0,0,0,0c0,0,0,0,0,0c0.2,0.1,0.4,0.2,0.7,0.3c4.9,1.8,10.1,2.1,15.2,1.8c5.6-0.3,11.1-0.9,16.7-1.4c5.8-0.5,11.6-1.1,17.3-1.6
		c2.8-0.3,5.8-0.3,8.6-0.8c1.2-0.2,2.2-0.8,2.7-1.9c0.5-1.1,0.3-2.2,0.2-3.4c-1.7-11.3-1-22.8-0.2-34.2
		C657.4,251.9,658,240.4,658.2,228.8z M653.3,299.4C653.2,299.5,653.2,299.5,653.3,299.4L653.3,299.4z M653.3,256.6
		c-0.7,10.9-1.8,21.9-1.1,32.8c0.2,2.8,0.4,5.5,0.8,8.2c0.1,0.5,0.1,1,0.2,1.5c0,0,0,0.1,0,0.1c-0.1,0-0.5,0-0.5,0
		c-1.4,0.2-2.8,0.3-4.2,0.4c-5.6,0.5-11.2,1-16.8,1.5c-6,0.5-12.1,1.2-18.1,1.6c-4.8,0.3-9.6,0.4-14.2-0.9c2.8-4.3,4-9.4,3.3-14.5
		c14.6-0.9,26.2-13.4,28.7-27.5c1.5-8.4,0.5-17.2-2.6-25.2c-1.6-4.1-3.5-8-6.4-11.3c-2.6-3.1-6-5.5-9.6-7.4c-1.9-1-4-1.7-5.9-2.7
		c-0.9-0.5-0.7-1.2-0.7-2.2c0.1-1.4,0.2-2.8,0.3-4.2c0.3-4.9,0.6-9.8,0.9-14.7c15.4,0.3,30.8-1.2,46.2-1.6
		C654.8,212.7,654.7,234.7,653.3,256.6z"/>
	<path d="M250.4,144.9c10.2,0,20.4,0.4,30.5,1.2c10.2,0.8,20.4,2.1,30.7,2.5c20.5,0.7,41.1-1.1,61.6-2.2c11.6-0.6,23.1-1.3,34.7-1.9
		c2.4-0.1,2.4-3.9,0-3.8c-20.5,1.2-41.1,2.3-61.6,3.4c-10.2,0.5-20.4,1-30.7,0.8c-10.3-0.2-20.5-1.4-30.7-2.2
		c-11.5-1-22.9-1.5-34.4-1.5C248,141.2,248,144.9,250.4,144.9L250.4,144.9z"/>
	<path d="M412.4,81.1c-1.1,2.3-2.2,4.6-3.3,6.8c-19,0.3-38.1,0.5-57.1,0.8c0.7-1.2,1.4-2.4,2.1-3.6c1.3-2.1-2-3.9-3.2-1.9
		c-1.1,1.8-2.2,3.7-3.1,5.6c-16.2,0.2-32.4,0.5-48.6,0.7c0.5-1,1-2,1.5-3c1.1-2.2-2.2-4.1-3.2-1.9c-0.8,1.6-1.6,3.3-2.5,4.9
		c-3.3,0-6.6,0.1-9.8,0.1c-11.7,0.2-23.4,0.3-35.1,0.5c-2.4,0-2.4,3.8,0,3.8c14.4-0.2,28.7-0.4,43.1-0.6
		c-6.7,13.5-13.5,27-20.2,40.4c-2.3,4.7-4.7,9.3-7,14c-1.1,2.2,2.2,4.1,3.2,1.9c8.2-16.4,16.4-32.8,24.6-49.1
		c1.2-2.4,2.4-4.8,3.6-7.3c5.2-0.1,10.3-0.1,15.5-0.2c11.1-0.2,22.1-0.3,33.2-0.5c-6.5,14-9.9,29.4-15.6,43.8c-2,5-4.2,9.8-7,14.4
		c-1.2,2.1,2,4,3.2,1.9c9.9-16.5,13.3-35.7,20.5-53.3c0.9-2.3,2-4.6,3.1-6.9c8.5-0.1,17-0.2,25.6-0.4c10.6-0.2,21.1-0.3,31.7-0.5
		c-7.3,14.9-14.6,29.9-21.8,44.8c-2.5,5.2-5.1,10.4-7.6,15.7c-1.1,2.2,2.2,4.1,3.2,1.9c9-18.5,18-37,27-55.5c0.3-0.5,0.5-1,0.8-1.6
		c-0.4,15.3-1.1,30.6-2.1,45.8c-0.2,2.4,3.6,2.4,3.8,0c1.2-17.2,2-34.4,2.3-51.6c0-0.3-0.1-0.6-0.2-0.9c0.1-0.3,0.1-0.7,0.1-1
		c1-2.1,2.1-4.3,3.1-6.4C416.7,80.8,413.5,78.9,412.4,81.1z"/>
	<path d="M568.9,197.8c0.4,0.2,0.7,0.3,1.1,0.5c0.5,0.2,1,0.5,1.5,0.6c0.3,0.1,0.6,0.2,1,0.1c0.2,0,0.5,0,0.7-0.1
		c0.2-0.1,0.4-0.1,0.6-0.3c0.4-0.2,0.7-0.5,0.9-0.9c0.1-0.3,0.2-0.5,0.3-0.8c0-0.3,0-0.6-0.1-0.9c-0.1-0.5-0.4-0.9-0.9-1.1
		c-0.4-0.2-1-0.3-1.4-0.2c-0.5,0.1-0.9,0.4-1.1,0.9c-0.2,0.4-0.3,1-0.2,1.4c0,0,0,0.1,0,0.1c0-0.2,0-0.3-0.1-0.5c0,0,0,0.1,0,0.1
		c0-0.2,0-0.3,0.1-0.5c0,0,0,0.1,0,0.1c0.1-0.1,0.1-0.3,0.2-0.4c0,0,0,0.1-0.1,0.1c0.1-0.1,0.2-0.3,0.3-0.4c0,0-0.1,0.1-0.1,0.1
		c0.1-0.1,0.3-0.2,0.4-0.3c0,0-0.1,0.1-0.2,0.1c0.1-0.1,0.3-0.1,0.4-0.2c-0.1,0-0.1,0-0.2,0c0.2,0,0.3,0,0.5-0.1c-0.1,0-0.1,0-0.2,0
		c0.2,0,0.3,0,0.5,0.1c-0.2,0-0.3-0.1-0.5-0.2c0.1,0.1,0.3,0.1,0.4,0.2c-0.6-0.3-1.3-0.6-1.9-0.8c-0.2-0.1-0.4-0.2-0.7-0.2
		c-0.2-0.1-0.5,0-0.7,0c-0.4,0.1-0.9,0.5-1.1,0.9c-0.2,0.4-0.3,1-0.2,1.4C568.2,197.1,568.5,197.6,568.9,197.8L568.9,197.8z"/>
	<path d="M651.3,171.2c-1.1-13.8-1.5-27.7-1.5-41.6c0-14.3,1-28.5,1.2-42.8c0.1-8.4-0.2-16.8-1.4-25.1c-0.1-1-1.4-1.6-2.3-1.3
		c-0.1,0-0.2,0.1-0.2,0.1c-30.1,0.8-60.2-0.1-90.2-0.9c-30-0.8-60-1.3-90,0.1c-16.8,0.8-33.6,2.1-50.3,3.9c-1,0.1-1.9,0.8-1.9,1.9
		c0,0.8,0.6,1.7,1.5,1.9c0.6,1.7,1.2,3.4,1.8,5c-21.9,2.2-44,2.1-65.9,1.5c-22.4-0.6-44.7-1.5-67.1-2.3c-6.3-0.2-12.6-0.4-18.9-0.7
		c-5.7-0.2-11.6-0.5-16.9,1.7c-0.9,0.4-1.6,1.2-1.3,2.3c0.2,0.9,1.4,1.7,2.3,1.3c4.8-1.9,9.9-1.8,14.9-1.6
		c5.5,0.2,10.9,0.4,16.4,0.6c11.1,0.4,22.2,0.8,33.3,1.1c22.2,0.8,44.5,1.8,66.7,1.6c12.5-0.1,24.9-0.7,37.3-1.9
		c0.1,0,0.2,0,0.3-0.1c3.1,10.2,5.2,20.6,7,31.1c0.6,3.6,1.3,7.1,1.8,10.7c0.5,3.4,0.2,6.7-0.7,10c-0.9,3.4-2.3,6.7-3.4,10
		c-1.1,3.3-2.1,6.6-2.9,9.9c-0.9,3.7-1.5,7.4-1.9,11.2c-22.7,0.3-45.4,0.6-68.1,1c-11.3,0.2-22.6,0.3-34,0.5
		c-11.3,0.2-22.6,0.3-34-0.3c-6.3-0.3-12.6-0.9-18.9-1.7c-6-0.7-12.1-1.2-18,0.5c-2.3,0.7-1.3,4.3,1,3.6c5.2-1.5,10.6-1.1,15.8-0.5
		c5.5,0.6,11.1,1.3,16.6,1.6c11.2,0.7,22.5,0.6,33.7,0.5c22.6-0.3,45.1-0.6,67.7-1c12.6-0.2,25.2-0.4,37.7-0.5c-0.2,3-0.3,6-0.3,8.9
		c0,1.7,1.8,2.2,2.9,1.5c16.5-0.7,33.1-1,49.7-0.9c16.5,0.1,33.1,1.1,49.6,0.7c9.3-0.2,18.6-0.9,27.8-2.4c0,0,0,0,0,0
		c-0.1,8.5-0.1,17,0,25.6c0.4,22.6,0.9,45.1,1.3,67.7c0.2,12.7,0.5,25.5,0.7,38.2c0,2.4,3.8,2.4,3.8,0c-0.4-22.7-0.9-45.5-1.3-68.2
		c-0.4-22.6-1.3-45.2-0.7-67.8c0.4-12.6,0.8-25.2-1-37.7c0-0.3-0.2-0.5-0.4-0.8c-0.3-0.4-0.8-0.6-1.4-0.6c-25.3,0.8-50.7,0.1-76-0.4
		c-6.8-0.1-13.7-0.2-20.5-0.3c0-8.9,0.1-17.8,0.1-26.7c18,1.3,35.9-0.6,53.8-1.4c17.6-0.8,35.2-0.4,52.8-0.1
		c0.7,9.9,1.5,19.9,2.2,29.8c0,0,0,0-0.1,0c-1.3-0.4-2.8-0.4-4.1,0.1c-0.8,0.3-1.4,0.9-1.4,1.8c-0.1,22.3-0.1,44.6,0.1,66.8
		c0.2,22.4,0.5,44.7,1,67.1c0.3,12.5,0.6,25.1,1,37.6c0.1,2.4,3.8,2.4,3.8,0c-0.7-22.3-1.2-44.5-1.5-66.8
		c-0.4-22.4-0.6-44.7-0.6-67.1c0-12,0-24,0-36c0.2,0,0.5,0.1,0.7,0.1c0.5,0.2,1,0.1,1.3-0.1c1.1,14.4,2.2,28.8,3.2,43.2
		c0.5,7.3,1,14.6,1.5,21.8c0.1,2.4,3.9,2.4,3.8,0c-1.5-25.7-3.6-51.4-5.6-77.1c-0.5-7.1-1.1-14.2-1.6-21.2c3.9,0,7.8,0.1,11.7,0.1
		c-1.9,24.9-3.1,49.8-3.6,74.8c-0.2,7.2-0.3,14.4-0.3,21.6c0,2.4,3.7,2.4,3.8,0c0.1-20.5,0.7-41.1,1.7-61.6c0.1,0,0.1,0,0.2,0
		c2-0.5,3,2.2,3.2,3.7c0.3,2.6,0,5.4,0,8c-0.1,5.6-0.2,11.2-0.3,16.7c-0.2,11.2-0.4,22.5-0.5,33.7c-0.3,22.3-0.5,44.6-0.7,66.9
		c-0.1,12.7-0.2,25.3-0.2,38c0,2.4,3.7,2.4,3.8,0c0.1-23.3,0.2-46.6,0.5-69.9c0.2-23.3,0.5-46.6,0.9-69.9c0.1-6.5,0.2-13,0.3-19.5
		c0.1-2.8,0.2-6-1.4-8.4c-1.3-1.9-3.4-3.2-5.6-3c0.2-3.6,0.4-7.3,0.6-10.9c0.4-6.7,0.9-13.4,1.4-20.1c4.7,0.1,9.5,0.1,14.2,0.2
		c0.5,3,0.5,6,0.3,9c-0.2,3.5-0.4,7-0.6,10.6c-0.2,3.2-0.4,6.4-0.6,9.6c-0.9,0-1.8,0-2.7-0.1c-0.3,0-0.6,0-0.9-0.1
		c-0.1,0-0.3,0-0.4,0c0,0,0,0,0,0c0,0,0,0,0,0c-0.6-0.1-1.1-0.2-1.7-0.3c-1-0.2-2.1,0.3-2.3,1.3c-0.2,0.7,0.1,1.6,0.8,2.1
		c0,0.1,0.1,0.3,0.1,0.4c1.8,4.9,1.5,10.1,1.4,15.3c-0.1,5.5-0.2,11-0.3,16.5c-0.2,11.1-0.4,22.3-0.6,33.4
		c-0.4,22.4-0.8,44.7-1.2,67.1c-0.2,12.6-0.5,25.1-0.7,37.7c0,2.4,3.7,2.4,3.8,0c0.4-22.4,0.8-44.9,1.2-67.3
		c0.4-20.4,0.7-40.7,1.1-61.1c1.3-0.4,3-0.1,4.3,0c2.1,0.1,4.1,0.2,6.2,0.3c4.1,0.2,8.3,0.4,12.4,0.6c8.2,0.4,16.4,0.9,24.6,0.6
		c4.1-0.2,8.1,0.1,12.2-0.4c0.2,0,0.3-0.1,0.5-0.1C650.7,172.8,651.4,172.2,651.3,171.2z M431.9,122.3c0-0.9,0-1.9,0-2.9
		c-0.3-3.5-1-6.9-1.6-10.3c-0.3-2-0.7-4.1-1.1-6.1c3.1-0.5,6.4,0.4,9.5,0.8c1.8,0.3,3.7,0.5,5.5,0.4c1.6-0.1,3.5-0.4,5,0.3
		c0,0,0,0,0.1,0c0,5.5-0.1,11-0.1,16.5c-0.2,0-0.4,0-0.6,0c-3.4,0.8-6.9,1.3-10.4,1.4c-1.8,0-3.6,0-5.3-0.1
		C432.5,122.4,432.2,122.4,431.9,122.3z M428.1,96.7c0.1-0.1,0.2-0.3,0.3-0.4c0.1,0,0.2-0.1,0.3-0.1c0.3,0,0.8,0,1.1,0
		c0.9,0,1.9,0,2.8,0c2,0,4.1,0,6.1,0c3.5,0,7.1,0,10.6,0.2c0,1.5,0,2.9,0,4.4c-1.3-0.3-2.7-0.3-4.1-0.3c-2,0.1-3.9,0-5.9-0.3
		c-3.5-0.5-7.2-1.4-10.8-0.9C428.4,98.5,428.2,97.6,428.1,96.7z M428.3,96.3C428.3,96.4,428.3,96.4,428.3,96.3L428.3,96.3z
		 M428.4,96.3c0-0.1,0.1-0.2,0.1-0.3C428.4,96.2,428.4,96.2,428.4,96.3z M449.5,64.6c0,9.3-0.1,18.7-0.1,28c-4.3-0.2-8.7-0.2-13-0.2
		c-2.4,0-4.7,0-7.1,0c-0.7,0-1.4,0.1-2,0.3c-0.3-1.6-0.7-3.2-1-4.8c-1.6-7.2-3.6-14.2-6.2-21.1c9.8-1,19.7-1.8,29.5-2.5
		C449.5,64.5,449.5,64.5,449.5,64.6z M430.5,130c0.4-1.2,0.7-2.5,0.9-3.7c0.1-0.1,0.2-0.1,0.3-0.2c0.1,0,0.2,0,0.3,0
		c0.4,0,0.8,0.1,1.2,0.1c0.7,0.1,1.4,0.1,2.1,0.1c1.6,0,3.2,0,4.8-0.1c3.1-0.2,6.1-0.7,9.1-1.4c0,4.6,0,9.2-0.1,13.8
		c-0.2,0-0.3-0.1-0.5-0.1c-4.1-0.1-8.2-0.2-12.4-0.3c-2.9-0.1-5.9-0.2-8.8,0.2C428.5,135.7,429.6,132.9,430.5,130z M422.2,169.2
		c0-6.5,0.7-12.9,2.1-19.2c0.5-2.5,1.2-5,1.9-7.4c3.4-0.8,7.1-0.5,10.6-0.5c4,0.1,7.9,0.2,11.9,0.2c0.2,0,0.3,0,0.5-0.1
		c0,0.9,0,1.7,0,2.6c0,7.6-0.1,15.3-0.1,22.9c0,0.2,0,0.4,0.1,0.6c-0.1,0-0.3,0-0.4,0C439.9,168.6,431,168.8,422.2,169.2z
		 M547.4,166.7c-16.2,2.7-32.6,2.6-48.9,2.2c-15.3-0.4-30.6-0.7-45.8-0.5c0.1-0.2,0.1-0.4,0.1-0.6c0-9.6,0.1-19.2,0.1-28.9
		c0.1,0,0.3,0,0.4,0c6.2-0.2,12.3,0,18.5,0.3c6.2,0.3,12.4,0.4,18.6,0.3c12.3-0.1,24.6-0.3,37-0.5c6.9-0.1,13.9-0.3,20.8-0.4
		c0.2,0,0.3,0,0.5-0.1c0.5,7.9,0.3,15.9,0.1,23.8c0,1.5-0.1,3-0.1,4.5C548.2,166.7,547.9,166.6,547.4,166.7z M528.5,130.7
		c6.4,0,12.9-0.1,19.3-0.3c0.2,1.5,0.3,2.9,0.5,4.4c-0.1,0-0.1,0-0.2,0c-12.4,0.3-24.8,0.5-37.2,0.7c-12.3,0.2-24.6,0.5-36.9,0
		c-6.9-0.3-13.8-0.6-20.7-0.4c-0.1,0-0.3,0-0.4,0.1c0-1.8,0-3.7,0-5.5C478.1,130.1,503.3,130.8,528.5,130.7z M592.1,131.1
		c-0.1,1.8-0.2,3.7-0.3,5.5c-0.2,0-0.4-0.1-0.6-0.1c-0.3,0-0.6,0-0.9,0c-0.2-1.9-0.5-3.8-1-5.6C590.2,131.1,591.1,131.1,592.1,131.1
		z M626,169.7c-8.5-0.3-17-0.8-25.5-1.2c-2.4-0.1-4.8-0.2-7.2-0.3c-1.1-0.1-2.3-0.1-3.5,0c0-0.8,0-1.6,0-2.4
		c0.1-6.3,0.2-12.6,0.3-19c0-2.1,0.1-4.3,0.1-6.5c0,0,0.1,0,0.1,0c0.3,0,0.5,0,0.8,0c0.3,0.1,0.6,0.1,0.9,0.2
		c0.2,0.1,0.3,0.1,0.5,0.1c1.1,0.4,2.6-0.2,2.7-1.7c0.4-7.3,0.9-14.5,1.3-21.8c0.4-7,1.4-14.4-0.1-21.3c-0.2-1-1-1.4-1.8-1.3
		c-0.2-0.1-0.5-0.2-0.9-0.2c-18.5-0.2-37-0.5-55.6-0.6c-9.3-0.1-18.6-0.1-27.9,0.2c-9.2,0.3-18.4,1-27.6,1.5
		c-9.9,0.5-19.8,0.7-29.7,0c0-2.7,0-5.3,0-8c0-7.6,0.1-15.3,0.1-22.9c0-0.1,0-0.3,0-0.4c17.8-1.1,35.6-1.7,53.4-1.7
		c30.1,0,60.1,1.2,90.2,1.8c16.5,0.3,33,0.4,49.5,0c1.9,14.2,0.9,28.6,0.3,42.9c-0.6,13.7-0.6,27.4-0.2,41.2
		c0.2,7,0.6,14.1,1.1,21.1c-3,0.2-6.1,0.1-9.2,0.2C634.2,169.7,630.1,169.8,626,169.7z"/>
	<path d="M451.3,251.9c-2.2-2.5-5-4.5-8.1-5.6c-1.4-0.5-3.2-0.6-4.2,0.6c-0.6,0.7-0.7,1.5-0.8,2.4c-0.1,1-0.3,1.9-0.4,2.9
		c0,0,0,0.1,0,0.1c-1.6,0.1-3.3,0.3-4.9,0.4c-3.6,0.2-7.2,0.2-10.8-0.1c-3.5-0.3-7-0.8-10.5-1c-3.5-0.1-7,0.1-10.4,0.6
		c-1.6,0.2-0.9,2.6,0.7,2.4c3.4-0.5,6.8-0.7,10.3-0.5c3.4,0.2,6.7,0.7,10,0.9c3.3,0.3,6.7,0.3,10.1,0.1c1.8-0.1,3.6-0.4,5.4-0.5
		c0,0.6,0.1,1.2,0.4,1.8c0.7,1.7,2.5,2.2,4.2,2c1.8-0.2,3.6-0.6,5.2-1.2c0.8-0.3,1.7-0.7,2.5-1.1c0.8-0.4,1.5-1,1.7-1.9
		c0.1-0.4,0.1-0.7,0-1C451.7,252.9,451.7,252.4,451.3,251.9z M442.4,256c0.1-0.1,0.1-0.2,0.1-0.3c0.5,0,0.9,0,1.4,0
		c-0.2,0.1-0.5,0.1-0.7,0.2C442.9,256,442.6,256,442.4,256z"/>
	<path d="M732.8,245.3c-14.1,0.4-28.1,1.3-42.2,2.8c0.1-1,0.2-2,0.3-2.9c0-0.3-0.1-0.5-0.3-0.8c-0.1-0.1-0.2-0.3-0.3-0.4
		c-0.6-0.6-1.3-0.5-2-0.3c-1.1,0.3-2.1,0.7-3.2,1.1c-1.1,0.4-2.3,0.9-3.4,1.4c-1,0.4-1.9,0.9-2.6,1.8c-0.7,0.9-0.9,2.2-0.4,3.2
		c0.5,0.9,1.4,1.4,2.3,1.9c2.4,1.1,4.8,2,7.4,2.6c0.8,0.2,1.5-0.4,1.6-1.2c0.1-1.3,0.2-2.5,0.3-3.8c14.1-1.5,28.2-2.5,42.4-2.9
		C734.4,247.7,734.4,245.2,732.8,245.3z M683.5,251.2c0.1,0.2,0.3,0.3,0.4,0.4c-0.3-0.1-0.6-0.2-0.9-0.4
		C683.2,251.2,683.3,251.2,683.5,251.2z M684.5,251.7c0.1,0,0.1,0,0.1,0c0,0,0,0.1,0.1,0.1c-0.1,0-0.2-0.1-0.3-0.1
		C684.4,251.7,684.4,251.7,684.5,251.7z M686.8,252.5C686.8,252.5,686.8,252.5,686.8,252.5c0,0.1-0.1,0-0.2,0
		C686.6,252.5,686.7,252.5,686.8,252.5z M681.1,250c0-0.2,0-0.1,0-0.2c0,0,0-0.1,0-0.1c0,0,0,0,0,0c0.1,0.3,0.2,0.5,0.4,0.7
		c-0.1-0.1-0.2-0.2-0.3-0.2C681.1,250.1,681.1,250,681.1,250z"/>
	<path d="M563.9,205.3c-0.3,0.6-0.5,1.1-0.8,1.7c-0.1,0.1-0.1,0.3-0.1,0.5c0,0.2,0,0.3,0,0.5c0,0.2,0.1,0.3,0.2,0.4
		c0.1,0.1,0.2,0.2,0.4,0.3c0.3,0.2,0.6,0.2,1,0.1c0.3-0.1,0.6-0.3,0.7-0.6c0.3-0.6,0.5-1.1,0.8-1.7c0.1-0.1,0.1-0.3,0.1-0.5
		c0-0.2,0-0.3,0-0.5c0-0.2-0.1-0.3-0.2-0.4c-0.1-0.1-0.2-0.2-0.4-0.3c-0.3-0.2-0.6-0.2-1-0.1C564.3,204.8,564,205,563.9,205.3
		L563.9,205.3z"/>
	<path d="M570.8,221.1c0-3.8,0.1-7.7,0.2-11.5c0.1-1.6-2.4-1.6-2.5,0c-0.1,3.8-0.2,7.7-0.2,11.5
		C568.3,222.7,570.8,222.7,570.8,221.1L570.8,221.1z"/>
	<path d="M570.7,203.6c0.6,0.9,1.2,1.8,1.9,2.6c0.2,0.3,0.4,0.5,0.7,0.6c0.3,0.1,0.7,0,1-0.1c0.3-0.2,0.5-0.4,0.6-0.7
		c0.1-0.3,0.1-0.7-0.1-1c-0.6-0.9-1.2-1.8-1.9-2.6c-0.2-0.3-0.4-0.5-0.7-0.6c-0.3-0.1-0.7,0-1,0.1c-0.3,0.2-0.5,0.4-0.6,0.7
		C570.5,202.9,570.5,203.3,570.7,203.6L570.7,203.6z"/>
	<path d="M565.7,228.9c-0.2,1.9-0.3,3.7-0.5,5.6c0,0.5-0.1,0.9-0.1,1.4c0,0.1-0.1,0.6,0,0.5c0,0.1,0,0.1,0,0.2c0,0.1,0,0.1,0,0
		c0.2-0.2,0.4-0.3,0.7-0.2c-0.1,0-0.2,0-0.1,0c0,0-0.2-0.2-0.3-0.2c-0.4-0.2-0.8-0.3-1.3-0.4c0,0.8,0,1.7,0,2.5
		c0.9,0.1,1.8,0.3,2.7,0.6c0.1-0.8,0.2-1.6,0.3-2.5c-1,0.1-1.9-0.1-2.8-0.4c-0.5-0.2-1,0.1-1.3,0.4c-0.3,0.4-0.3,0.9-0.1,1.4
		c0.5,0.9,1,1.7,1.4,2.6c0.5,0.9,1.7,0.8,2.2,0c0.5-0.7,0.9-1.5,1.2-2.3c0.3-0.6,0.2-1.3-0.4-1.7c-0.5-0.3-1.4-0.2-1.7,0.4
		c-0.3,0.8-0.7,1.6-1.2,2.3c0.7,0,1.4,0,2.2,0c-0.5-0.9-1-1.7-1.4-2.6c-0.5,0.6-0.9,1.2-1.4,1.8c1.1,0.4,2.3,0.6,3.4,0.5
		c1.4-0.1,1.6-1.9,0.3-2.5c-1.1-0.4-2.2-0.6-3.4-0.7c-0.7,0-1.3,0.6-1.3,1.3c0,0.7,0.6,1.2,1.3,1.3c-0.2,0,0,0.1,0.1,0.1
		c0.2,0.1,0.4,0.2,0.7,0.3c0.5,0.2,1.1,0.2,1.6-0.1c1-0.6,1.1-1.7,1.2-2.8c0.2-2.3,0.4-4.6,0.6-6.8c0.1-0.7-0.6-1.3-1.3-1.3
		C566.2,227.7,565.7,228.2,565.7,228.9L565.7,228.9z"/>
	<path d="M571.3,230.2c-0.2,1.3,0.4,2.7,0.7,4c0.3,1.4,0.7,2.8,0.9,4.2c0.5,2.7,0.8,5.5,0.6,8.3c-0.1,1.6,2.4,1.6,2.5,0
		c0.2-2.8-0.1-5.6-0.6-8.3c-0.3-1.4-0.6-2.7-0.9-4c-0.3-1.3-0.9-2.8-0.8-4.1c0.1-0.7-0.6-1.3-1.3-1.3
		C571.8,229,571.4,229.5,571.3,230.2L571.3,230.2z"/>
	<path d="M572,248.5c1.1,0.7,2.5,0.9,3.7,0.5c0.5-0.2,0.9-0.6,0.9-1.2c0-0.5-0.4-1.1-0.9-1.2c-0.9-0.2-1.9-0.3-2.8-0.5
		c-0.3-0.1-0.6-0.1-0.9-0.1c-0.5,0-1,0.3-1.3,0.7c-0.4,0.6-0.1,1.3,0.1,1.9c0.3,0.9,0.7,1.8,1,2.7c0.3,0.7,0.5,1.3,1.3,1.6
		c0.4,0.1,0.9,0,1.2-0.2c0.3-0.2,0.5-0.5,0.8-0.8c0.6-0.8,1-1.8,1.3-2.8c0.2-0.6-0.2-1.4-0.9-1.5c-0.7-0.2-1.3,0.2-1.5,0.9
		c-0.1,0.3-0.2,0.5-0.3,0.8c-0.1,0.2,0,0.1,0,0c0,0.1-0.1,0.1-0.1,0.2c-0.1,0.1-0.1,0.3-0.2,0.4c-0.1,0.2-0.3,0.5-0.4,0.7
		c-0.1,0.1-0.2,0.2-0.2,0.4c-0.1,0.1-0.2,0.2,0,0c0,0,0,0,0,0c0.1-0.1,0.2-0.2,0.3-0.2c0.1,0,0.2,0,0.3,0c0,0,0,0-0.1,0
		c0.1,0,0.2,0,0.3,0c0.2,0.1,0.4,0.2,0.5,0.4c0,0,0-0.1,0-0.1c0-0.1,0,0,0.1,0.2c0-0.1,0-0.1-0.1-0.2c-0.1-0.2-0.1-0.3-0.2-0.5
		c-0.1-0.4-0.3-0.7-0.4-1.1c-0.1-0.4-0.3-0.7-0.4-1.1c-0.1-0.3-0.3-0.7-0.4-1c0,0.1,0,0.2,0,0.3c0,0,0-0.1,0-0.1c0,0.1,0,0.2,0,0.3
		c-0.1,0.1-0.2,0.3-0.2,0.4c-0.2,0.1-0.4,0.2-0.6,0.3c0,0,0.1,0,0.1,0C572.1,248.5,572,248.5,572,248.5
		C571.9,248.5,572,248.5,572,248.5c-0.1,0-0.2,0-0.3-0.1c1.1,0.2,2.2,0.4,3.3,0.6c0-0.8,0-1.6,0-2.4c-0.2,0.1-0.4,0.1-0.5,0.1
		c0.1,0,0.2,0,0.3,0c-0.3,0-0.6,0-0.8,0c0.1,0,0.2,0,0.3,0c-0.2,0-0.5-0.1-0.7-0.2c-0.2-0.1,0.1,0,0.1,0c0,0-0.1-0.1-0.2-0.1
		c-0.1-0.1-0.2-0.1-0.3-0.2c-0.5-0.4-1.4-0.1-1.7,0.4C571.2,247.5,571.4,248.1,572,248.5L572,248.5z"/>
</g>
</svg>
