<?xml version="1.0" encoding="utf-8"?>
<!-- Generator: Adobe Illustrator 24.0.1, SVG Export Plug-In . SVG Version: 6.00 Build 0)  -->
<svg version="1.1" xmlns="http://www.w3.org/2000/svg" xmlns:xlink="http://www.w3.org/1999/xlink" x="0px" y="0px"
	 viewBox="0 0 1000 365.3" style="enable-background:new 0 0 1000 365.3;" xml:space="preserve">
<style type="text/css">
	.st0{fill:#95D2EF;}
	.st1{fill:#FCDE8A;}
	.st2{fill:#1E1E1C;}
	.st3{fill:#1E1E1C;stroke:#1E1E1C;stroke-width:0.25;stroke-miterlimit:10;}
	.st4{fill:#1E1E1C;stroke:#1E1E1C;stroke-width:0.15;stroke-miterlimit:10;}
	.st5{fill:#FFFFFF;}
	.st6{stroke:#1E1E1C;stroke-miterlimit:10;}
	.st7{fill:none;stroke:#1E1E1C;stroke-width:3;stroke-linecap:round;stroke-linejoin:round;stroke-miterlimit:10;}
</style>
<g id="Calque_2">
</g>
<g id="Calque_1">
	<path d="M593.9,189.8c-1.3-7.9-2.6-16-1.6-24.1c0.2-1.8,0.4-3.9,1.2-5.5c0.2-0.5,0.6-1.3,1.2-1.5c0.7-0.2,1.1,0.7,1.3,1.3
		c1.3,2.9,2.7,6.8,0.9,9.8c0.5-0.2,0.9-0.4,1.4-0.6c-1.7-0.4-0.5-4.7-0.3-5.8c0.5-2.4,1.7-4.9,4.2-5.6c2.5-0.7,3.8,1.4,4.1,3.6
		c0.3,2,0.6,5.3-1.2,6.7c0.6,0,1.2,0,1.8,0c-2.1-2.1-1.4-6-0.5-8.5c0.5-1.3,1.6-2.9,3.2-2.7c1.7,0.1,2,2.6,2.3,3.8
		c2,7.5,3.8,15.1,5.3,22.8c0.3,1.6,2.7,0.9,2.4-0.7c-0.9-4.9-2-9.8-3.2-14.6c-0.6-2.5-1.2-5-1.9-7.5c-0.5-1.8-0.8-4.1-2.3-5.4
		c-1.3-1.2-3.2-1.2-4.8-0.5c-1.7,0.8-2.8,2.5-3.4,4.2c-1.1,3.4-1.5,8,1.2,10.7c0.5,0.5,1.2,0.4,1.8,0c2.6-2.1,2.4-6.9,1.7-9.8
		c-0.8-3.3-3.6-5.5-7.1-4.6c-3.7,1-5.4,4.5-6.1,7.9c-0.5,2.5-1.5,7.5,2.2,8.3c0.5,0.1,1.1-0.1,1.4-0.6c1.7-3,1.2-6.4,0.2-9.5
		c-0.8-2.4-2.3-6.6-5.6-5.1c-3,1.3-3.3,5.7-3.7,8.4c-0.5,4-0.5,8-0.2,12c0.4,4.6,1.1,9.1,1.8,13.6
		C591.8,192,594.2,191.4,593.9,189.8L593.9,189.8z"/>
	<path d="M662.9,141.4c-8.3-0.9-17.4-1.9-24.5-6.7c-1.3-0.9-3.5-2.8-2.7-4.6c0.9-2.2,4.1-1.6,5.8-1.2c0.9,0.2,1.7,0.5,0.3,0.8
		c-0.9,0.2-1.9-0.1-2.8-0.4c-1.5-0.5-3.6-1.5-4.2-3.1c-0.9-2.2,2.3-3.6,3.8-4.3c2.1-1,4.7-1.8,6.9-0.6c-0.1-0.6-0.3-1.1-0.4-1.7
		c-1.4,1.9-5.3,2.3-6.4-0.2c-1.4-3.1,6.2-1.8,7.3-1.6c7.6,0.8,15.2,2.3,22.6,4.3c1.6,0.4,2.2-2,0.7-2.4c-7.7-2.1-15.6-3.6-23.5-4.4
		c-2.7-0.3-6.7-1.2-8.9,1.1c-2.1,2.3-0.2,5.6,2.3,6.7c2.9,1.3,6.2,0.3,8.1-2.2c0.4-0.5,0.1-1.4-0.4-1.7c-2.8-1.5-5.9-0.9-8.7,0.3
		c-2.3,1-5.3,2.5-5.9,5.3c-0.5,2.6,1.5,4.7,3.5,5.9c2.2,1.3,5.3,2.4,7.7,1.2c1-0.5,1.8-1.4,1.8-2.6c-0.1-1.4-1.3-2.2-2.5-2.6
		c-2.6-0.9-6.1-1.2-8.3,0.9c-2.1,2-1.6,4.8,0,6.9c1.9,2.4,5,3.9,7.7,5.1c6.6,2.8,13.7,3.6,20.7,4.3
		C664.5,144.1,664.5,141.6,662.9,141.4L662.9,141.4z"/>
	<path d="M618.8,65.3c-6.3,8.3-13.9,18.5-12.4,29.6c0.3,2.2,1.4,4.3,3.7,4.9c2.1,0.5,4.4-0.5,5.7-2.1c1.6-2,2.1-4.9,2.1-7.4
		c0-2-1.3-4.3-3.6-3.5c-2.1,0.8-2.7,3.6-3.1,5.6c-0.5,2.4-0.5,5.1,1.2,7.1c3.4,4,9.2,2.1,12.1-1.3c1.4-1.6,2.5-4,0.4-5.6
		c-1.8-1.4-4.1-0.8-5.6,0.6c-2.7,2.5-5.6,8.9-1.5,11.5c2.5,1.6,5.5,0.1,7.6-1.4c2.6-1.8,5-3.7,7.4-5.7c4.8-4.1,9.2-8.8,13-13.9
		c1-1.3-1.2-2.5-2.2-1.3c-4.8,6.3-10.6,12-16.9,16.8c-1.5,1.1-8.4,6.5-8.5,1.6c0-1.5,0.8-3.1,1.6-4.3c0.5-0.9,2.3-3.3,3.6-2
		c1,1-1.9,3.2-2.7,3.7c-1.5,0.9-3.2,1.3-4.9,0.7c-1.8-0.7-2.5-2.4-2.4-4.2c0.1-1.5,0.4-3.7,1.3-5c0.5-0.7,0.7-0.5,0.7,0.3
		c0.1,0.9-0.1,2-0.2,3c-0.3,1.7-1,3.5-2.6,4.2c-4.2,1.8-3.8-4.9-3.5-7.2c1-8.9,6.8-16.5,12-23.3C621.9,65.3,619.7,64,618.8,65.3
		L618.8,65.3z"/>
	<g>
		<path d="M371.6,97.2c0.7-0.1,2,1.6,2.4,2c1.2,1.1,2.6,1.7,4.2,1.8c1.5,0.1,3-0.3,4.3-1c0.7-0.3,1.3-0.8,1.9-1.3
			c0.4-0.4,0.8-1,1.3-1.4c0.8,0.1,1.6,0.7,2.2,0.9c1.1,0.5,2.1,0.9,3.2,1.4c2.1,0.9,4.3,1.8,6.4,2.7c4.2,1.8,8.4,3.5,12.7,5.3
			c4.3,1.8,8.6,3.6,12.9,5.4c1,0.4,1.9,0.8,2.9,1.2c0.6,0.3,1.3,0.5,1.3,1.2c0,0.7-0.5,1.5-0.7,2.2c-0.3,0.9-0.5,1.8-0.5,2.8
			c0.3,3.9,4.1,5,6.7,7.1c0.8,0.6,1.9,0.8,2.7,0c0.7-0.6,0.8-2,0-2.7c-1.6-1.3-3.8-2.1-5.1-3.6c-1.3-1.5,0.5-3.8,0.7-5.5
			c0.3-2.9-2-4.2-4.4-5.2c-3.1-1.3-6.1-2.6-9.2-3.9c-5.9-2.5-11.8-5-17.7-7.4c-3-1.3-6-2.5-9-3.8c-2.5-1-5.5-3.1-7.8-0.6
			c-1.4,1.5-3.8,3.6-6,2c-2.1-1.5-3.3-3.8-6.3-3.2C368.2,94.1,369.2,97.7,371.6,97.2z"/>
		<path d="M629.4,116.1c-0.4,0.1-0.7,0.2-1.1,0.4c0.3-0.3,0.6-0.6,0.9-1c1.7-1.7-1-4.4-2.7-2.7c-0.7,0.7-1.5,1.5-2.2,2.2
			c-5.2-2.2-9.8-5.8-14.3-9.2c-2.4-1.9-4.8-3.7-7.4-5.4c-1.1-0.7-2.2-1.4-3.6-1.3c-1.7,0.1-3.2,1.4-4.6,2.2
			c-2.6,1.5-5.1,3.1-7.7,4.6c0-0.1-0.1-0.2-0.1-0.3c-2.3-4.6-5.3-8.9-8.8-12.7c-0.6-0.6-1.6-0.7-2.3-0.3
			c-17.8,10-35.3,20.6-52.4,31.8c-0.9,0.6-1.1,1.6-0.7,2.6c4.6,10.4,10.6,20.1,16.9,29.7c-0.1,0-0.2,0.1-0.3,0.1
			c-6.1,3.2-12.4,6.2-18.8,8.9c-0.6-1.8-1.2-3.6-1.8-5.4c-0.5-1.8-1.5-4.6,0.3-5.9c1.9-1.4,4.5-0.2,6.4,0.5c1.5,0.6,2.1-1.8,0.7-2.4
			c-2-0.8-4.1-1.5-6.3-1.1c-2,0.4-3.6,1.8-4.1,3.7c-0.5,2,0.1,4.1,0.7,6c0.6,1.8,1.2,3.6,1.8,5.4c-1.1,0.5-2.2,0.9-3.3,1.3
			c-1.2-2.9-2.9-5.6-5.2-7.8c-3-2.9-7-4.3-11.1-4.9c-4-0.5-8.4-0.4-12,1.7c-2.1,1.3-4.2,2.7-6.2,4.2c-1.5,1.1-2.9,2.3-4.2,3.6
			c-0.1-0.1-0.1-0.1-0.2-0.2c-7.1-4.6-14-9.6-21.6-13.4c1.6-3.2,3.2-6.4,4.8-9.6c1.1-2.2-2.2-4.1-3.2-1.9
			c-6.4,12.9-13.1,25.7-20.2,38.4c-14.1-7.5-28.5-14.2-43.3-20.1c-3.7-1.5-7.4-2.9-11.1-4.3c2.2-4.9,5.2-9.5,8.9-13.4
			c0.1-0.1,0.2-0.2,0.3-0.3c0.3,0.2,0.7,0.4,1,0.6c2.7,1.5,5.2,3.4,8,4.7c2.7,1.3,5.9,2.1,8.8,1c2.9-1.1,4.9-3.5,6.9-5.7
			c2.6-2.8,5.2-5.6,7.9-8.4c0.7-0.7,1.3-1.4,2-2.1c0.5-0.5,0.7-0.9,1.4-0.7c1.7,0.5,3.5,1.6,5.1,2.4c2.2,1,4.1-2.2,1.9-3.2
			c-1.5-0.7-2.9-1.4-4.4-2c-1.3-0.6-2.7-1.3-4.2-0.8c-1.3,0.4-2.3,1.5-3.2,2.5c-1.1,1.2-2.2,2.4-3.3,3.6c-2.3,2.4-4.6,4.9-6.9,7.3
			c-1.8,1.9-3.7,4.2-6.5,4.1c-2.8-0.1-5.3-1.8-7.6-3.3c-2.5-1.6-5.1-3.1-7.8-4.5c-2.7-1.4-5.4-2.6-8.2-3.7c-1.3-0.5-2.7-1-4-1.5
			c-0.6-0.2-1.3-0.3-1.8-0.6c-0.7-0.3-0.3-0.7-0.1-1.6c1.4-7.3,2.8-14.7,4.2-22c0.2-1-0.3-2-1.3-2.3c-2.2-0.7-4.3-1.8-6.1-3.3
			c-1.8-1.5-4.5,1.1-2.7,2.7c1.9,1.5,3.9,2.8,6.1,3.7c-1.2,6.3-2.4,12.6-3.6,18.8c-0.3,1.5-0.9,3.3-0.5,4.8c0.4,1.4,1.5,2.3,2.9,2.8
			c2.9,1.1,5.8,2,8.6,3.2c1.4,0.6,2.7,1.2,4,1.9c-4.3,4.7-7.7,10.1-10,16.1c-0.4,1,0.4,2,1.3,2.3c15.2,5.6,30.2,12,44.7,19.2
			c4.2,2.1,8.3,4.2,12.5,6.4c0.9,0.5,2.1,0.2,2.6-0.7c5-8.9,9.8-18,14.5-27c7.4,3.7,14.3,8.7,21.3,13.2c-1.9,3.5-1.8,7.5-0.9,11.5
			c1,4.4,3.2,8.7,6.8,11.6c3.2,2.6,7.2,4.2,11.3,4.7c0,0,0,0.1,0,0.1c-0.6,4.2-0.8,8.4-0.5,12.7c0.1,1.1,0.2,2.2,0.3,3.3
			c-2.6,0.5-5.2,1.1-7.8,1.3c-1.6,0.1-3.6,0.4-5.1-0.3c-1.7-0.7-0.9-2.8,0.8-2.7c0.1,0,0.2,0,0.3,0c0,0.1,0,0.1,0.1,0.2
			c0.1,0.4,0.3,0.7,0.7,0.8c0.4,0.2,0.7,0.1,1.1-0.1c0.8-0.4,1.6-0.8,2.3-1.3c0.9-0.7,2.2-1.5,1.8-2.9c-0.2-0.7-0.8-1-1.5-1.3
			c-0.4-0.1-0.8-0.3-1.2-0.4c-1-0.3-2-0.5-3-0.6c-0.1,0-0.1,0-0.2,0c-0.2-0.1-0.4-0.1-0.7,0c-0.6,0.2-1.1,0.9-0.9,1.5
			c0.2,0.5,0.4,1,0.5,1.5c-2.9,0.2-4.7,3.4-3.1,6c1.9,3,7,2.2,9.9,1.8c2.1-0.3,4.1-0.7,6.2-1.1c0,0.2,0,0.3,0.1,0.5
			c0.3,1.7,0.8,3.5,1,5.2c-4.1,0.2-8.2,0.4-12.3,0.6c-2.4,0.1-2.4,3.9,0,3.8c14.8-0.8,29.6-1.6,44.5-2.3c4,19.2,6.4,38.6,7.1,58.2
			c0,0.5,0.3,1.6,0,2c-0.1,0.2-0.4,0.2-0.8,0.3c-1.3,0.3-2.6,0.5-4,0.7c-2.9,0.3-5.8,0.4-8.7,0.2c-0.1,0-0.1,0-0.2,0
			c-0.2-4.4-0.5-8.8-0.9-13.2c-0.1-1.5-0.1-3.2-0.6-4.7c-0.6-1.6-2-2.3-3.6-2.8c-3.5-1-7-2-10.4-3c-1.9-0.5-3.8-1.1-5.7-1.6
			c-2-0.6-4.1-1-6-1.7c-2.9-1.1-2.7-4.7-2.5-7.3c0.1-1.9-2.2-2.3-3.2-1.2c-0.1-0.7-0.5-1.3-1.3-1.5c-0.9-0.3-2.2,0.3-2.3,1.3
			c-0.2,1.5,0,2.7,0.3,4.2c0.2,1,0.3,1.9-0.4,2.8c-1,1.5-2.9,2.4-4.4,3.5c-1.9,1.4-3.5,2.9-4.3,5.2c-0.9,2.7-0.4,5.7,0,8.4
			c1.1,6.8,2.1,13.7,3.2,20.5c0.5,3.3,1,6.5,1.5,9.8c0.3,1.6,0.5,3.3,0.8,4.9c0.2,1.6,0.3,3.3,1.2,4.7c1.4,2,3.8,2.2,5.9,2.6
			c0.6,0.1,1.8,0.2,2.1,0.7c0.3,0.4,0.2,1.2,0.3,1.7c0.1,0.8,0.3,1.6,0.7,2.3c0.8,1.3,2.3,1.1,3.1,0.2c1.4,1.3,4-0.4,2.9-2.3
			c-0.5-0.8-0.7-1.6-0.8-2.5c6.2-1.2,12.2-3.2,17.8-6c2.7-1.3,5.9-2.6,6.5-5.9c0.3-1.7,0.2-3.4,0.2-5c0-1.8,0-3.6,0-5.4
			c0-1.6,0-3.3-0.1-4.9c0,0,0,0,0.1,0c2.7,0.2,5.5,0.1,8.2-0.2c2.3-0.2,5.2-0.3,7.2-1.5c2.4-1.5,1.7-4.6,1.6-7
			c-0.1-2.7-0.3-5.4-0.4-8.1c-0.7-10.9-1.9-21.8-3.6-32.6c-1-6.1-2.1-12.2-3.4-18.3c-0.2-0.8-1-1.4-1.8-1.4c-10,0.5-19.9,1-29.9,1.5
			c-0.2-2.1-0.7-4.2-1.1-6.3c0.8-0.2,1.5-0.3,2.3-0.5c2-0.4,4.1-0.8,6.1-1.2c1.6-0.3,3.3-0.7,4.4-2.1c0.9-1.3,0.9-3-0.2-4.1
			c-1.1-1-2.7-0.9-3.8-1.8c-1.2-1-3,0.8-1.8,1.8c0.9,0.7,1.9,1,2.9,1.4c0.4,0.2,1.1,0.3,1.1,0.9c0,0.7-1,1.1-1.5,1.2
			c-1.6,0.5-3.4,0.7-5.1,1c-1.6,0.3-3.1,0.6-4.7,0.9c-0.1-0.7-0.2-1.4-0.3-2c-0.3-4-0.3-8.1,0.3-12.2c0-0.3,0-0.6,0-0.9
			c3.9-0.1,7.7-1.1,11.2-2.6c4.1-1.7,8.4-4.1,10.2-8.4c1.7-4.1,1.1-9,0-13.2c1.2-0.5,2.3-0.9,3.4-1.4c1.4,3.6,3,7.4,5.7,10.2
			c2.6,2.6,6.6,4.1,10.2,2.7c4.1-1.6,4.7-5.7,4.2-9.6c0.5-0.2,1-0.4,1.4-0.6c0.6-0.4,0.7-1.1,0.4-1.7c-0.5-1.1-1.2-2.2-1.9-3.2
			c-0.4-0.6-0.8-1.1-1.3-1.6c-0.4-0.4-1-0.7-1.6-0.6c-0.6,0.1-0.9,0.6-1.2,1.1c-0.2,0.6-0.4,1.2-0.6,1.8c-0.2,0.6-0.4,1.1-0.5,1.7
			c-0.1,0.6-0.1,1.3,0.2,1.8c0,0.6,0.3,1,0.9,1.2c0.5,0.2,1.1,0.3,1.6,0.3c0.3,1.6,0.3,3.4-0.4,4.9c-0.8,1.7-2.6,2.4-4.4,2.4
			c-4.2,0-6.8-3.7-8.4-7.1c-0.8-1.5-1.5-3.1-2.1-4.7c6.6-2.8,13-5.8,19.3-9.1c0.2-0.1,0.3-0.2,0.4-0.3c2.1,3.2,4.2,6.4,6.3,9.6
			c1.3,2,4.6,0.1,3.2-1.9c-8.6-13.2-17.9-26.3-24.5-40.7c16.2-10.5,32.8-20.6,49.6-30.1c2.9,3.3,5.4,6.9,7.3,10.9
			c0.1,0.1,0.1,0.2,0.2,0.3c-2.5,1.5-5.1,3-7.6,4.5c-1.6,0.9-3.1,1.9-4.7,2.8c-1.3,0.8-2.7,1.5-3.6,2.7c-2.1,2.8-0.3,6.5,0.4,9.5
			c1,3.8,2,7.7,2.9,11.5c0.4,1.6,3,9-0.4,9c-2.2,0-2.4,3-0.7,3.6c-0.3,0.1-0.7,0.2-1,0.3c-2.4,0.5-1.4,4.1,1,3.6
			c2.2-0.5,3.8-2,5.8-3c2-0.9,3.5,0.5,5,1.6c2.1,1.6,4.4,2.3,7.1,1.7c2.9-0.6,5.4-2.5,7.9-4c5.4-3.2,10.8-6.3,16.2-9.5
			c2.7-1.6,5.4-3.2,8.1-4.8c2.3-1.4,5.1-2.6,5.6-5.5c0.4-2.7-1-5.2-0.2-7.8c0.7-2.3,2.6-4,4.9-4.6
			C632.7,119.1,631.7,115.5,629.4,116.1z M514.3,301.5c-0.2,1.4-1.6,1.9-2.8,2.5c-6.4,3.3-13.2,5.6-20.3,6.9
			c-0.7,0.1-1.1,0.7-1.3,1.3c-0.3-0.3-0.7-0.6-1.1-0.8c-1.7-0.9-3.6-0.7-5.4-1.3c-0.8-0.3-1.1-0.5-1.3-1.3c-0.5-1.7-0.6-3.5-0.8-5.3
			c-0.5-3.3-1-6.5-1.5-9.8c-1-6.5-2-13-3-19.6c-0.4-2.7-1.2-5.7-0.9-8.5c0.3-2.2,1.7-3.5,3.4-4.7c1.9-1.3,3.9-2.5,5.2-4.5
			c0.2-0.3,0.4-0.7,0.5-1c0.2,0.4,0.3,0.9,0.6,1.3c1.6,2.9,4.8,3.5,7.7,4.3c3.3,1,6.6,1.9,10,2.9c1.6,0.5,3.2,0.9,4.7,1.4
			c0.8,0.2,1.6,0.5,2.4,0.7c0.6,0.2,1.7,0.3,2.3,0.7c0.4,0.3,0.3,0.8,0.4,1.3c0.1,0.8,0.2,1.6,0.2,2.4c0.2,1.8,0.3,3.6,0.4,5.4
			c0.3,3.6,0.4,7.2,0.5,10.8c0.1,3.4,0.1,6.9,0.1,10.3C514.4,298.4,514.5,300,514.3,301.5z M513.1,180.4c-0.1,1.8-0.7,3.6-1.8,4.9
			c-1.2,1.4-2.8,2.3-4.4,3.2c-3.6,1.9-7.6,3.3-11.7,3.5c-7.6,0.4-15.1-3.3-17.8-10.6c-1.4-3.8-2.5-9,0.1-12.6
			c1.3-1.7,3.1-3.1,4.8-4.4c1.9-1.5,3.9-2.8,6-4.1c2.4-1.4,5.4-1.6,8.2-1.4c3,0.2,6,1,8.6,2.6C510.9,165.3,513.6,173.9,513.1,180.4z
			 M621.9,129.8c0.2,1.3,0.3,2.2-0.9,3c-2.5,1.7-5.3,3.1-7.9,4.7c-5.4,3.2-10.8,6.3-16.2,9.5c-2.6,1.5-5.2,3.3-7.9,4.6
			c-1.1,0.5-2.4,1-3.6,0.8c-1.1-0.2-2.1-1-2.9-1.6c-2.1-1.5-4.2-2.8-6.9-2.1c-0.1,0-0.2,0.1-0.2,0.1c0.4-0.8,0.7-1.7,0.8-2.7
			c0.1-1.6-0.3-3.2-0.6-4.8c-0.4-1.9-0.8-3.7-1.3-5.6c-0.8-3.4-1.7-6.9-2.6-10.3c-0.4-1.3-1.2-3.2-1-4.6c0.2-1.3,2.1-2.1,3.1-2.7
			c6.1-3.6,12.2-7.3,18.3-10.9c1.4-0.8,2.8-1.7,4.2-2.5c0.8-0.5,1.6-0.9,2.3-1.4c0.7-0.4,0.8-0.6,1.5-0.2c2.5,1.5,4.9,3.4,7.2,5.2
			c5.4,4.1,10.8,8.3,17.1,10.7c0,0,0,0,0.1,0c-1.8,1.9-2.9,4.4-3,7.1C621.4,127.4,621.6,128.6,621.9,129.8z"/>
	</g>
	<path d="M542.1,276.1c-0.1-1.9-0.4-9,2.9-8.9c1.7,0.1,2.9,2.2,3.6,3.6c0.8,1.6,1.3,3.4,1.6,5.2c0.6,3.4,0.7,7,0.4,10.5
		c-0.2,3.3-0.9,6.8-2.9,9.6c-0.3,0.4-0.6,0.8-0.9,1.1c-0.5,0.5-0.7,0.3-1.2-0.2c-0.7-0.7-1.2-1.5-1.7-2.4c-1-1.8-1.5-3.8-0.9-5.8
		c0.3-0.8-0.4-1.5-1.2-1.6c-0.9-0.1-1.8-0.1-2.6-0.2c0,0.8,0,1.7,0,2.5c1.7-0.2,3.3-0.6,4.9-1.3c0.5-0.2,0.7-0.9,0.6-1.4
		c-0.7-1.8-1.6-3.3-2.9-4.7c-0.5-0.5-1.3-0.5-1.8,0c-1.5,1.6-2.3,3.6-2.6,5.8c-0.1,0.7,0.6,1.2,1.3,1.3c2.6,0.1,3.3-2.5,3.2-4.6
		c-0.7,0.3-1.4,0.6-2.1,0.9c0.5,0.5,1,1,1.5,1.5c1.1,1.1,2.9-0.6,1.8-1.8c-0.5-0.5-1-1-1.5-1.5c-0.7-0.7-2.2-0.2-2.1,0.9
		c0,0.6,0.3,2.2-0.7,2.1c0.4,0.4,0.8,0.8,1.3,1.3c0.2-1.5,0.8-2.9,1.9-4c-0.6,0-1.2,0-1.8,0c1,1,1.8,2.2,2.3,3.6
		c0.2-0.5,0.4-0.9,0.6-1.4c-1.1,0.5-2.4,0.8-3.6,0.9c-1.6,0.2-1.6,2.4,0,2.5c0.9,0.1,1.8,0.1,2.6,0.2c-0.4-0.5-0.8-1.1-1.2-1.6
		c-0.7,2.3-0.3,4.5,0.6,6.7c0.8,1.8,2.3,4.4,4.2,5.1c2.3,0.7,3.9-1.6,4.9-3.3c1.2-1.9,1.9-4.2,2.3-6.4c0.8-4.6,0.7-9.5,0-14.2
		c-0.6-3.9-2.4-10.3-7-11.2c-5.8-1.1-6.3,7.6-6.1,11.3C539.7,277.7,542.2,277.7,542.1,276.1L542.1,276.1z"/>
	<path d="M449,247.7c0.5,0.9,1.3,1.6,2.1,2.2c0.8,0.7,1.5,1.5,2.3,2.2c1.5,1.5,2.9,3.1,4.2,4.7c0.4,0.5,1.3,0.4,1.8,0
		c0.5-0.5,0.4-1.2,0-1.8c-1.3-1.6-2.7-3.1-4.1-4.6c-0.7-0.7-1.4-1.4-2.1-2.1c-0.4-0.4-0.8-0.7-1.1-1.1c-0.2-0.1-0.3-0.3-0.5-0.5
		c-0.2-0.2-0.2-0.2-0.3-0.4c-0.3-0.6-1.1-0.8-1.7-0.4C448.9,246.4,448.7,247.1,449,247.7L449,247.7z"/>
	<path d="M453.9,245.3c3.5,2.3,7.3,4.1,11.4,5.2c1.6,0.4,2.2-2,0.7-2.4c-3.8-1.1-7.5-2.7-10.8-4.9c-0.6-0.4-1.4-0.1-1.7,0.4
		C453.1,244.2,453.4,245,453.9,245.3L453.9,245.3z"/>
	<path d="M456.1,240.7c3.6,1.5,7.3,2.6,11.2,3.3c0.7,0.1,1.3-0.2,1.5-0.9c0.2-0.6-0.2-1.4-0.9-1.5c-3.8-0.7-7.6-1.8-11.2-3.3
		c-0.6-0.3-1.4,0.3-1.5,0.9C455,239.9,455.5,240.5,456.1,240.7L456.1,240.7z"/>
	<path d="M461,327.5c1.5-5.5,3-11,4.4-16.4c0.4-1.6-2-2.2-2.4-0.7c-1.5,5.5-3,11-4.4,16.4C458.1,328.4,460.6,329,461,327.5
		L461,327.5z"/>
	<path d="M464.8,326c2.2-3.4,4.3-6.9,6.5-10.3c0.9-1.4-1.3-2.6-2.2-1.3c-2.2,3.4-4.3,6.9-6.5,10.3
		C461.8,326.1,463.9,327.3,464.8,326L464.8,326z"/>
	<path d="M468.4,329.2c0.1,0.3-0.1,0.4,0.2,0.1c0.2-0.2,0.4-0.4,0.5-0.6c0.4-0.4,0.8-0.9,1.2-1.3c0.8-0.8,1.6-1.7,2.4-2.5
		c1.6-1.6,3.3-3.2,5.1-4.6c0.5-0.4,0.4-1.3,0-1.8c-0.5-0.5-1.2-0.4-1.8,0c-2,1.6-3.8,3.3-5.6,5.1c-0.9,0.9-1.7,1.8-2.5,2.7
		c-0.8,1-2.3,2.2-1.8,3.6C466.4,331.4,468.9,330.7,468.4,329.2L468.4,329.2z"/>
	<path d="M521.2,318.3c5.6,1,11.3,1.9,17,2.7c0.7,0.1,1.3-0.2,1.5-0.9c0.2-0.6-0.2-1.4-0.9-1.5c-5.7-0.8-11.3-1.7-17-2.7
		C520.3,315.6,519.6,318,521.2,318.3L521.2,318.3z"/>
	<path d="M522.8,309.6c3.2,1.6,6.3,3.1,9.5,4.7c0.6,0.3,1.4,0.2,1.7-0.4c0.3-0.6,0.2-1.4-0.4-1.7c-3.2-1.6-6.3-3.1-9.5-4.7
		c-0.6-0.3-1.4-0.2-1.7,0.4C522,308.5,522.1,309.3,522.8,309.6L522.8,309.6z"/>
	<path d="M523.9,301.5c4.2,2.8,6.9,7.3,10.8,10.5c0.5,0.4,1.3,0.5,1.8,0c0.4-0.4,0.5-1.3,0-1.8c-4-3.3-6.9-7.9-11.3-10.9
		c-0.6-0.4-1.4-0.1-1.7,0.4C523.1,300.4,523.4,301.2,523.9,301.5L523.9,301.5z"/>
	<path d="M571.6,74c2.1-0.8,4.2-1.5,6.3-2.1c1-0.3,2-0.6,3-0.7c1.2-0.1,2.5,0.6,1.5,1.8c-1.3,1.8-3.2,3.2-4.9,4.6
		c-1.7,1.4-3.4,2.7-5.1,4c-3.5,2.5-7.2,5-11,7c-1.8,1-3.8,1.8-5.8,2.2c-1.8,0.4-4.2,0.7-5.8-0.2c-2.4-1.3,0.8-4.1,2-5.2
		c1.5-1.4,3.9-4.2,6.2-3.5c1.2,0.4,1.8-0.9,1.4-1.8c-0.5-1.1-1-2.1-1.6-3c-0.7,0.5-1.3,1-2,1.5c0.9,1.1,1.7,2.2,2.6,3.3
		c0.6-0.6,1.2-1.2,1.8-1.8c-0.6-0.6-1.2-1.1-1.8-1.7c-0.2-0.2-0.5-0.6-0.8-0.8c-0.3-0.4-0.4-0.4-0.5,0.1c-0.3,0.4-0.2,0.5,0.3,0.4
		c0.6,0.2,1.7-0.1,2.3-0.1c0.9,0,1.9-0.1,2.8-0.1c-0.4-0.5-0.8-1.1-1.2-1.6c-0.7,1.7-1.7,3.3-3.1,4.6c0.7,0.2,1.4,0.4,2.1,0.6
		c-0.1-0.6-0.2-1.3-0.3-1.9c0-0.3-0.1-0.6-0.1-0.9c-0.8,0.2-1,0.3-0.6,0.4c0.6,0.4,1.6,0.2,2.1-0.1c0.5-0.3,0.7-0.9,0.6-1.4
		c-0.2-0.9-1-1.5-2-1.5c-1.1,0-1.9,0.9-2.3,1.9c-0.2,0.5-0.2,1.1,0.2,1.5c0.7,0.8,1.8,0.6,2.4-0.3c0.9-1.4-1.3-2.6-2.2-1.3
		c0,0.1-0.1,0.1-0.1,0.2c0.4-0.2,0.7-0.4,1.1-0.6c-0.1,0-0.1,0-0.2,0c0.3,0.1,0.6,0.2,0.9,0.4c0,0-0.1-0.1-0.1-0.1
		c0.1,0.5,0.1,1,0.2,1.5c0.3-0.4,0.2-0.7-0.3-0.9c0.2-0.5,0.4-0.9,0.6-1.4c0.1,0-0.9-0.3-1.2-0.2c-0.6,0.1-1.1,0.3-1.4,0.9
		c-0.3,0.6-0.2,1.3-0.1,1.9c0.1,0.9,0.3,1.9,0.4,2.8c0.1,1,1.5,1.2,2.1,0.6c1.6-1.7,2.8-3.6,3.7-5.7c0.3-0.8-0.5-1.6-1.2-1.6
		c-1.4,0-2.8,0.1-4.2,0.1c-1.1,0-2.4-0.1-3.2,0.7c-0.7,0.8-0.4,1.9,0.2,2.7c0.9,1.1,2,2,3.1,3c1.2,1.1,2.7-0.5,1.8-1.8
		c-0.9-1.1-1.7-2.2-2.6-3.3c-0.9-1.1-2.7,0.3-2,1.5c0.6,1,1.2,2,1.6,3c0.5-0.6,0.9-1.2,1.4-1.8c-2.8-0.9-5.2,1-7.1,2.7
		c-1.9,1.6-4.3,3.6-5,6.1c-0.6,2.3,1,4.2,3.1,4.9c2.5,0.8,5.5,0.4,7.9-0.3c5.4-1.6,10.3-5,14.9-8.2c2.4-1.7,4.7-3.4,6.9-5.3
		c1.1-0.9,2.1-1.8,3.1-2.7c1-0.9,2.1-1.9,2.6-3.2c1.3-3-2-5-4.6-4.7c-3.2,0.3-6.5,1.6-9.5,2.8C569.5,72.2,570.1,74.6,571.6,74
		L571.6,74z"/>
	<g>
		<path d="M330.9,69c-0.2-1.1-0.3-2.3-0.3-3.6c0-1,0-1.8,0.1-2.4c0.3-1.8,0.8-3.6,1.7-5.2c0.6-1.1,0.6-1.4,0.6-1.6
			c0-0.1,0-0.4-0.3-0.6c-0.3-0.3-0.5-0.3-0.7-0.3c-0.3,0-0.5,0.2-0.7,0.4c-0.1,0.1-0.3,0.4-0.8,1.4c-0.4,0.7-0.6,1.3-0.8,1.8
			c-0.3,0.9-0.6,1.9-0.8,3c-0.2,0.9-0.3,2-0.3,3.3v0.9c0,1.6,0.2,3,0.4,4.1c0.5,2.1,1.2,3.8,2.2,5.3c0.5,0.7,0.9,1,1.3,1
			c0.1,0,0.2,0,0.4-0.1c0.2-0.1,0.3-0.3,0.4-0.5l0-0.3c0-0.2-0.1-0.5-0.7-1.4C331.9,73,331.3,71.2,330.9,69z"/>
		<path d="M341.6,59.1c-0.2-0.3-0.5-0.6-0.9-1s-0.8-0.7-1.1-0.9c-1-0.6-2-0.9-2.9-0.9c-0.3,0-0.5,0-0.6,0.1
			c-0.4,0.1-0.6,0.4-0.6,0.5c-0.1,0.2-0.1,0.5-0.1,0.9c0,0.7,0,2,0.1,4l0.1,3.6c0.1,4.4,0.2,6.9,0.4,7.7c0.1,0.3,0.3,0.8,1.3,0.8
			h0.2c1,0,2-0.3,2.9-0.8c1.4-0.8,2.3-2.3,2.7-4.3c0.1-0.4,0.1-1.1,0.1-2.3c0-1.3,0-2.2-0.1-2.7C342.9,61.9,342.4,60.3,341.6,59.1z
			 M337.7,71.9c-0.1-0.4-0.1-1.4-0.3-4.7c0-0.2,0-1-0.1-2.5c0-1.5-0.1-2.8-0.1-3.9c0-1.1-0.1-1.9-0.2-2.4c0-0.1,0-0.1,0-0.2
			c0.1,0,0.3,0.1,0.5,0.1l0,0c0.9,0.3,1.6,0.7,2.1,1.4c0.9,1.1,1.5,2.8,1.7,5.1c0,0.6,0.1,1.1,0.1,1.6c0,1.5-0.1,2.1-0.1,2.4
			c-0.4,1.8-1.5,2.9-3.1,3.2C338,71.9,337.8,71.9,337.7,71.9z"/>
		<path d="M347.8,58.5c1.5,0,1.9-0.1,2-0.4c0.3-0.5,0.1-1-0.1-1.1c-0.2-0.2-0.6-0.3-1.3-0.3c-0.5,0-0.9,0-1.2,0h-0.4
			c-0.2,0-0.3,0-0.4,0c-0.2,0-0.5,0-0.6,0.1l-0.2,0c-0.1,0-0.2,0.1-0.3,0.1c-0.1,0.1-0.2,0.1-0.2,0.2l-0.1,0.1
			c0,0.1-0.1,0.2-0.1,2.3c0,2.3,0,5,0.1,8.2c0.1,4.9,0.2,5.1,0.2,5.2c0.1,0.3,0.4,0.6,0.7,0.6c0.1,0,0.4,0,1.6,0c0,0,0,0,0,0l1.9,0
			l0.1-0.3c0.2-0.4,0.3-0.6,0.2-0.9c-0.1-0.3-0.3-0.6-0.7-0.6c-0.1,0-0.4-0.1-1.3-0.1c-0.4,0-0.7,0-0.9,0c0-0.2-0.1-0.6-0.1-1.3
			c-0.1-1-0.1-2-0.1-2.8c0-0.4,0-0.7,0-0.9l0-0.2c0.4,0,0.9-0.1,1.1-0.5c0.1-0.1,0.1-0.3,0.1-0.5c0-0.3-0.1-0.9-1.3-0.9
			c0-0.2,0-1-0.1-3.4l0-2.7h0C347.1,58.5,347.4,58.5,347.8,58.5z"/>
		<path d="M355,57.3c-0.4-0.8-0.7-1.3-1-1.6c-0.3-0.3-0.6-0.3-0.8-0.3c-0.5,0-0.9,0.3-0.9,0.9c0,0.1,0,0.2,0.6,1.5
			c0.8,1.7,1.4,3.4,1.7,5.2c0.1,0.6,0.2,1.6,0.2,2.9c0,0.5,0,1-0.1,1.5c-0.1,1.6-0.4,3.1-0.9,4.5c-0.3,1-0.9,2.1-1.7,3.2
			c-0.2,0.3-0.3,0.5-0.3,0.7c0,0.3,0.1,0.5,0.3,0.7c0.2,0.2,0.4,0.3,0.6,0.3c0.4,0,0.7-0.3,1.2-1c0.7-1,1.3-2.2,1.8-3.6
			c0.6-1.8,1-3.9,1-6.3V65c-0.1-2.1-0.3-3.9-0.9-5.5C355.6,58.8,355.3,58.1,355,57.3z"/>
		<path d="M370.1,70.2c-0.4-2.6-0.8-5.4-1.3-8.4c-0.6-3.9-0.6-4-0.7-4.1c-0.3-0.6-1.1-0.8-1.6-0.3c-0.2,0.1-0.5,0.5-1.5,2.1
			c-0.5,0.7-0.8,1.2-1,1.4c-0.2-0.2-0.4-0.6-0.8-1.2c-1.2-1.8-1.3-1.9-1.3-1.9c-0.4-0.5-0.8-0.6-1.1-0.6c-0.3,0-0.6,0.1-0.7,0.4
			c-0.1,0.1-0.2,0.4-0.2,1c-0.1,0.9-0.2,1.8-0.3,2.8c-0.8,7-1.1,10.8-1.1,11.5c0,0.5,0.3,0.7,0.4,0.8c0.3,0.2,0.6,0.2,0.9-0.1
			c0.3-0.2,0.4-0.5,0.5-1.7c0.1-0.9,0.4-3.8,0.8-8.7c0.1-1.4,0.2-2.3,0.3-2.9c0.1,0.1,0.1,0.2,0.2,0.2c0.5,0.8,0.9,1.4,1.2,1.8
			c0.5,0.9,0.8,1.2,1.2,1.2c0.4,0,0.6-0.3,0.7-0.4c0.1-0.2,0.4-0.5,0.8-1.1c0.4-0.6,0.8-1.2,1.2-1.8c0.3,1.4,0.6,4.1,1.2,7.9
			c0.7,5.4,1,5.7,1.1,5.9c0.2,0.2,0.4,0.3,0.6,0.3c0.1,0,0.2,0,0.3-0.1c0.3-0.1,0.5-0.4,0.5-0.8c0-0.1,0-0.3-0.1-1
			C370.4,72.2,370.3,71.5,370.1,70.2z"/>
		<path d="M380.8,60c-0.5-1.7-1.4-2.8-2.6-3.3c-0.3-0.2-0.8-0.2-1.5-0.2c-0.3,0-0.6,0-0.8,0h0c-0.8,0.1-1.4,0.4-2,1
			c-0.9,0.8-1.4,2-1.5,3.5c-0.1,0.8-0.1,1.9-0.1,3.2c0,0.4,0,0.6,0.1,0.8c0,0.1,0,0.4,0,1.3c0,1.2,0.2,2.5,0.5,3.7
			c0.2,0.9,0.5,1.6,0.8,2.1c0.3,0.5,0.8,0.9,1.3,1.3c0.6,0.4,1.2,0.5,1.9,0.5c1,0,1.9-0.3,2.5-0.9c0.8-0.7,1.3-1.8,1.6-3.1
			c0.2-1.1,0.3-2.5,0.3-4.1c0-1.5-0.1-2.6-0.1-3.4C381.2,61.5,381,60.8,380.8,60z M376.1,71.7c-0.4-0.2-0.8-0.6-1-1.3
			c-0.3-0.7-0.5-1.8-0.7-3.3c-0.1-0.8-0.1-2-0.1-3.3c0-1.6,0.1-2.6,0.2-3.1c0.3-1.4,0.9-2.2,1.9-2.4c0.2,0,0.3,0,0.4,0
			c0.5,0,1,0.2,1.4,0.6l0,0c0.4,0.4,0.8,1.1,1.1,2c0.3,1,0.4,2.1,0.4,3.2c0,0.9,0,1.2,0.1,1.4l0,0.1c0,1.3-0.1,2.5-0.3,3.5
			c-0.2,1-0.6,1.8-1.1,2.3c-0.3,0.3-0.8,0.5-1.3,0.5C376.4,71.8,376.2,71.8,376.1,71.7z"/>
		<path d="M390.9,58.2c-0.3,0-0.6,0.2-0.7,0.5c-0.1,0.2-0.1,0.5,0,0.7c0,0,0,0.2,0,1c0,0.6,0,2.3-0.1,5.1c0,2-0.1,3.2-0.1,3.6
			c0,0.4-0.1,0.7-0.3,1.1c-0.5,1-1.1,1.5-1.8,1.5c-0.4,0-0.7-0.1-1-0.4c-0.5-0.5-0.9-1.1-1.1-1.9c-0.3-0.9-0.5-2.5-0.6-4.7
			c-0.2-3.2-0.3-5-0.3-5.5c-0.1-0.8-0.2-1.1-0.5-1.3c-0.2-0.1-0.6-0.2-1,0.2l0,0c-0.2,0.2-0.3,0.5-0.3,1c0,0.6,0,1.6,0.1,3
			c0,0.3,0,0.8,0.1,1.4c0,0.6,0.1,1.1,0.1,1.5c0,0.4,0,0.7,0,0.9c0.1,2.5,0.5,4.2,1.1,5.4c0.6,1.1,1.3,1.7,2.1,2.1
			c0.3,0.1,0.7,0.2,1.3,0.2c0.5,0,1-0.1,1.3-0.3c0.5-0.3,1.1-0.7,1.5-1.3c0.5-0.6,0.8-1.2,0.9-1.8c0.1-0.5,0.3-1.8,0.3-7.3
			c0-3.5-0.1-3.8-0.1-3.9C391.7,58.2,391.1,58.2,390.9,58.2z M383.8,58.5L383.8,58.5L383.8,58.5L383.8,58.5z"/>
		<path d="M396.1,71.9c-0.2,0-0.3,0-0.4,0c0-0.7-0.1-2.8-0.1-8.6c-0.1-5.2-0.1-5.3-0.1-5.4c-0.3-0.6-0.7-0.7-0.9-0.7
			c-0.2,0-0.4,0.1-0.5,0.3c-0.2,0.2-0.2,0.2-0.2,6.9c0,7.7,0.1,8,0.1,8.2c0.1,0.4,0.2,1,0.7,1.2c0.1,0.1,0.1,0.1,1.2,0.1
			c0.3,0,0.5,0,0.8,0c0.2,0,0.4-0.1,0.7-0.2c0.3-0.2,0.4-0.5,0.4-0.7c0-0.2-0.1-0.4-0.3-0.7C397.2,72,396.8,72,396.1,71.9z"/>
		<path d="M405.7,59.1c-0.2-0.3-0.5-0.6-0.9-1s-0.8-0.7-1.1-0.9c-1-0.6-2-0.9-2.9-0.9c-0.3,0-0.5,0-0.6,0.1
			c-0.4,0.1-0.6,0.4-0.6,0.5c-0.1,0.2-0.1,0.5-0.1,0.9c0,0.7,0,2,0.1,4l0.1,3.6c0.1,4.4,0.2,6.9,0.4,7.7c0.1,0.3,0.3,0.8,1.3,0.8
			h0.2c1,0,2-0.3,2.9-0.8c1.4-0.8,2.3-2.3,2.7-4.3c0.1-0.4,0.1-1.1,0.1-2.3c0-1.3,0-2.2-0.1-2.7C407,61.9,406.5,60.3,405.7,59.1z
			 M401.8,71.9c-0.1-0.4-0.1-1.4-0.3-4.7c0-0.2,0-1-0.1-2.5c0-1.5-0.1-2.8-0.1-3.9c0-1.1-0.1-1.9-0.2-2.4c0-0.1,0-0.1,0-0.2
			c0.1,0,0.3,0.1,0.5,0.1l0,0c0.9,0.3,1.6,0.7,2.1,1.4c0.9,1.1,1.5,2.8,1.7,5.1c0,0.6,0.1,1.1,0.1,1.6c0,1.5-0.1,2.1-0.1,2.4
			c-0.4,1.8-1.5,2.9-3.1,3.2C402,71.9,401.9,71.9,401.8,71.9z"/>
		<path d="M411.2,70.1c0-1-0.1-2.9-0.1-5.5c-0.1-2.7-0.1-4.3-0.1-5l0-1.5l-0.3-0.3c-0.2-0.2-0.4-0.3-0.7-0.3c-0.9,0-0.9,1.3-0.9,1.7
			l0,0.4c0,0.3,0.1,2.1,0.1,5.6c0.1,7.7,0.2,8,0.3,8.2c0.1,0.2,0.2,0.4,0.4,0.5c0.1,0.1,0.3,0.1,0.5,0.1c0.1,0,0.3,0,0.4-0.1
			c0.2-0.1,0.4-0.3,0.5-0.5c0-0.1,0.1-0.3,0.1-0.9c0,0,0-0.4,0-1.1L411.2,70.1z"/>
		<path d="M420.5,58c-0.2-0.8-0.7-0.9-0.9-0.9c-0.2,0-0.5,0.1-0.7,0.6c-0.1,0.2-0.1,0.5-0.1,0.7c0.1,1.1,0.2,2.7,0.3,4.8l0.1,2.2
			c0.1,1.2,0.1,2.3,0.2,3.2c0,0,0,0,0,0.1c-0.6-1.3-1.3-3.1-2.2-5.4c-1.8-4.4-2.3-5.3-2.6-5.6c-0.3-0.3-0.6-0.5-0.9-0.5
			c-0.3,0-0.7,0.1-0.8,1.1v0.1c0,0.8,0.1,3.4,0.3,7.6c0.3,6.4,0.3,6.6,0.4,6.7c0.2,0.8,0.7,0.9,0.9,0.9c0.2,0,0.5-0.1,0.7-0.5
			c0.1-0.1,0.1-0.2,0.1-0.8c0-1.2-0.1-4.1-0.3-8.7c0-0.5,0-0.9,0-1.2c0.7,1.7,1.5,3.7,2.4,5.8c1,2.4,1.7,3.8,1.9,4.3
			c0.3,0.6,0.5,1,0.8,1.1c0.1,0.1,0.2,0.1,0.4,0.1c0.2,0,0.3,0,0.4-0.1c0.4-0.2,0.5-0.8,0.5-1.8c0-0.8,0-1.8-0.1-3.1
			C420.9,62.3,420.7,58.8,420.5,58z"/>
		<path d="M431.2,65.4c-0.2-0.2-0.5-0.3-1.3-0.3c-0.7,0-1.1,0.1-1.3,0.3c-0.3,0.3-0.3,0.5-0.3,0.7c0,0.2,0.1,0.4,0.3,0.7
			c0.2,0.2,0.5,0.2,1,0.2h0.1c0,0.2,0,0.5,0,0.9c0,1.9-0.1,2.6-0.2,2.9c0,0.1-0.1,0.3-0.3,0.4c-0.1,0.2-0.3,0.3-0.4,0.3
			c-0.1,0-0.2,0.1-0.3,0.2c0,0-0.1,0-0.1,0c-0.3,0-0.5,0-0.7-0.1c-0.9-0.2-1.6-0.8-2.1-2c-0.5-1-0.7-2.7-0.7-5.2
			c0-1.5,0.1-2.6,0.3-3.2c0.2-0.7,0.5-1.3,0.8-1.9c0.4-0.6,0.7-1,1.2-1.3c0.4-0.3,0.9-0.4,1.4-0.5c0.4,0,0.7-0.2,0.8-0.3
			c0.2-0.2,0.3-0.5,0.3-0.6c0-0.2-0.1-0.4-0.3-0.6c-0.3-0.3-0.6-0.3-0.9-0.3c-0.3,0-0.6,0.1-1,0.2c-0.8,0.2-1.6,0.7-2.3,1.5
			c-1.2,1.3-1.9,3.1-2,5.3c0,0.5-0.1,1.1-0.1,1.8c0,1.2,0,2.2,0.1,3.1c0.1,0.8,0.3,1.6,0.6,2.5c0.3,0.9,0.7,1.6,1.1,2.1
			c0.4,0.4,0.9,0.8,1.5,1.1c0.6,0.3,1.3,0.5,1.8,0.5c0.4,0,1-0.1,1.6-0.5c0.3-0.2,0.6-0.5,1-0.8c0.3-0.4,0.5-0.8,0.6-1.2
			c0-0.2,0.1-0.6,0.1-2.5c0-0.5,0-1.1,0-1.7C431.6,66.2,431.5,65.7,431.2,65.4z"/>
	</g>
	<g>
		<path d="M595.6,39.1c-0.4-0.4-0.8-0.4-1.1-0.2l0,0c-0.3,0.2-0.4,0.7-0.4,1c0,0.1,0,0.5,0.1,2.1c0.1,1.6,0.2,2.6,0.2,3.1v0.5h-3.5
			V43c0-3.2-0.1-3.4-0.2-3.5c-0.2-0.3-0.4-0.5-0.7-0.5c-0.4,0-0.7,0.2-0.8,0.6c-0.1,0.1-0.1,0.2-0.1,7.7v7.6l0.1,0.1
			c0.3,0.3,0.6,0.4,0.8,0.4c0.2,0,0.4-0.1,0.6-0.4c0.1-0.2,0.2-0.2,0.2-4.2l0-3.3h3.7c0,0.1,0,0.3,0,0.6c0,0.7,0.1,1.8,0.1,3.3
			c0,1.7,0.1,2.7,0.1,3.1c0.1,0.6,0.3,1,0.6,1.2c0.2,0.1,0.3,0.1,0.5,0.1c0.1,0,0.2,0,0.2,0c0.2-0.1,0.4-0.2,0.5-0.5l0-0.1
			c0-0.1,0-0.3,0-0.4c0-0.7-0.2-4.2-0.5-10.6C595.9,39.5,595.8,39.3,595.6,39.1z"/>
		<path d="M601.2,40.2c1.5,0,1.9-0.1,2-0.4c0.3-0.5,0.1-1-0.1-1.1c-0.2-0.2-0.6-0.3-1.3-0.3c-0.5,0-0.9,0-1.2,0h-0.4
			c-0.2,0-0.3,0-0.4,0c-0.2,0-0.5,0-0.6,0.1l-0.2,0c-0.1,0-0.2,0.1-0.3,0.1c-0.1,0.1-0.2,0.1-0.2,0.2l-0.1,0.1
			c0,0.1-0.1,0.2-0.1,2.3c0,2.3,0,5,0.1,8.2c0.1,4.9,0.2,5.1,0.2,5.2c0.1,0.3,0.4,0.6,0.7,0.6c0.1,0,0.4,0,1.6,0c0,0,0,0,0,0l1.9,0
			l0.1-0.3c0.2-0.4,0.3-0.6,0.2-0.9c-0.1-0.3-0.3-0.6-0.7-0.6c-0.1,0-0.4-0.1-1.3-0.1c-0.4,0-0.7,0-0.9,0c0-0.2-0.1-0.6-0.1-1.3
			c-0.1-1-0.1-2-0.1-2.8c0-0.4,0-0.7,0-0.9l0-0.2c0.4,0,0.9-0.1,1.1-0.5c0.1-0.1,0.1-0.3,0.1-0.5c0-0.3-0.1-0.9-1.3-0.9
			c0-0.2,0-1-0.1-3.4l0-2.7h0C600.5,40.2,600.8,40.2,601.2,40.2z"/>
		<path d="M611.6,43.9c-1.1-4.2-1.3-4.4-1.5-4.6c-0.2-0.2-0.7-0.3-1.3,0.1c-0.4,0.2-0.6,0.5-0.7,0.9c-0.1,0.2-0.5,2.4-1.3,6.3
			c-0.8,4.1-1.3,6.4-1.4,7.1c-0.1,0.5-0.1,0.7-0.1,0.8c0,0.1,0,0.3,0.1,0.5c0.2,0.4,0.6,0.5,0.8,0.5c0.3,0,0.6-0.2,0.8-0.5
			c0-0.1,0.1-0.4,0.5-2.1c0.3-1.2,0.5-2.4,0.7-3.6c0.1-0.7,0.2-1.1,0.3-1.4c0.1,0,0.1,0,0.2,0c1.6,0,2.1,0,2.1,0c0,0,0.1,0.2,0.3,1
			c1.4,5.7,1.6,6.2,1.7,6.3c0.1,0.3,0.3,0.6,0.6,0.6c0.1,0,0.2,0,0.2,0c0.1,0,0.3,0,0.4-0.1c0.3-0.2,0.4-0.4,0.4-0.8
			c0-0.1,0-0.4-0.7-3.1C612.8,48.5,612.1,45.8,611.6,43.9z M609.4,42.7c0,0.1,0.1,0.2,0.1,0.4c0.1,0.4,0.2,0.9,0.4,1.5
			c0.2,0.6,0.3,1,0.3,1.1c0,0.1,0.1,0.3,0.1,0.4c-0.2,0-0.4,0-0.7,0l-0.8,0c0,0,0,0,0,0c0.1-0.4,0.2-1,0.4-2.3
			C609.2,43.4,609.3,43,609.4,42.7z"/>
		<path d="M622.7,38.9c-0.5,0-1.1,0-1.6,0c-3.8,0.1-4.1,0.2-4.3,0.2c-0.4,0.1-0.6,0.4-0.6,0.8c0,0.3,0.2,0.6,0.5,0.7
			c0.2,0.1,0.4,0.2,1.7,0.2h0.8l0,4.6c0,2.3,0,4.6,0,6.9c0,2.6,0.1,2.7,0.2,2.8c0.2,0.2,0.4,0.4,0.7,0.4c0.1,0,0.5,0,0.7-0.2
			c0.2-0.2,0.2-0.2,0.3-7.7c0-4.2,0-6.1,0-6.8l0.2,0c0.4,0,0.8,0,1.3-0.1c0.7,0,0.8-0.1,0.9-0.1c0.4-0.2,0.5-0.4,0.6-0.6
			c0.1-0.3,0-0.6-0.2-0.8C623.5,38.9,623.3,38.9,622.7,38.9z"/>
		<path d="M627.9,51.7c0-1-0.1-2.9-0.1-5.5c-0.1-2.7-0.1-4.3-0.1-5l0-1.5l-0.3-0.3c-0.2-0.2-0.4-0.3-0.7-0.3c-0.9,0-0.9,1.3-0.9,1.7
			l0,0.4c0,0.3,0.1,2.1,0.1,5.6c0.1,7.7,0.2,8,0.3,8.2c0.1,0.2,0.2,0.4,0.4,0.5c0.1,0.1,0.3,0.1,0.5,0.1c0.1,0,0.3,0,0.4-0.1
			c0.2-0.1,0.4-0.3,0.5-0.5c0-0.1,0.1-0.3,0.1-0.9c0,0,0-0.4,0-1.1L627.9,51.7z"/>
		<path d="M637.2,39.7c-0.2-0.8-0.7-0.9-0.9-0.9c-0.2,0-0.5,0.1-0.7,0.6c-0.1,0.2-0.1,0.5-0.1,0.7c0.1,1.1,0.2,2.7,0.3,4.8l0.1,2.2
			c0.1,1.2,0.1,2.3,0.2,3.2c0,0,0,0,0,0.1c-0.6-1.3-1.3-3.1-2.2-5.4c-1.8-4.4-2.3-5.3-2.6-5.6c-0.3-0.3-0.6-0.5-0.9-0.5
			c-0.3,0-0.7,0.1-0.8,1.1v0.1c0,0.8,0.1,3.4,0.3,7.6c0.3,6.4,0.3,6.6,0.4,6.7c0.2,0.8,0.7,0.9,0.9,0.9c0.2,0,0.5-0.1,0.7-0.5
			c0.1-0.1,0.1-0.2,0.1-0.8c0-1.2-0.1-4.1-0.3-8.7c0-0.5,0-0.9,0-1.2c0.7,1.7,1.5,3.7,2.4,5.8c1,2.4,1.7,3.8,1.9,4.3
			c0.3,0.6,0.5,1,0.8,1.1c0.1,0.1,0.2,0.1,0.4,0.1c0.2,0,0.3,0,0.4-0.1c0.4-0.2,0.5-0.8,0.5-1.8c0-0.8,0-1.8-0.1-3.1
			C637.6,43.9,637.4,40.4,637.2,39.7z"/>
		<path d="M647.8,47.1c-0.2-0.2-0.5-0.3-1.3-0.3c-0.7,0-1.1,0.1-1.3,0.3c-0.3,0.3-0.3,0.5-0.3,0.7c0,0.2,0.1,0.4,0.3,0.7
			c0.2,0.2,0.5,0.2,1,0.2h0.1c0,0.2,0,0.5,0,0.9c0,1.9-0.1,2.6-0.2,2.9c0,0.1-0.1,0.3-0.3,0.4c-0.1,0.2-0.3,0.3-0.4,0.3
			c-0.1,0-0.2,0.1-0.3,0.2c0,0-0.1,0-0.1,0c-0.3,0-0.5,0-0.7-0.1c-0.9-0.2-1.6-0.8-2.1-2c-0.5-1-0.7-2.7-0.7-5.2
			c0-1.5,0.1-2.6,0.3-3.2c0.2-0.7,0.5-1.3,0.8-1.9c0.4-0.6,0.7-1,1.2-1.3c0.4-0.3,0.9-0.4,1.4-0.5c0.4,0,0.7-0.2,0.8-0.3
			c0.2-0.2,0.3-0.5,0.3-0.6c0-0.2-0.1-0.4-0.3-0.6c-0.3-0.3-0.6-0.3-0.9-0.3c-0.3,0-0.6,0.1-1,0.2c-0.8,0.2-1.6,0.7-2.3,1.5
			c-1.2,1.3-1.9,3.1-2,5.3c0,0.5-0.1,1.1-0.1,1.8c0,1.2,0,2.2,0.1,3.1c0.1,0.8,0.3,1.6,0.6,2.5c0.3,0.9,0.7,1.6,1.1,2.1
			c0.4,0.4,0.9,0.8,1.5,1.1c0.6,0.3,1.3,0.5,1.8,0.5c0.4,0,1-0.1,1.6-0.5c0.3-0.2,0.6-0.5,1-0.8c0.3-0.4,0.5-0.8,0.6-1.2
			c0-0.2,0.1-0.6,0.1-2.5c0-0.5,0-1.1,0-1.7C648.3,47.8,648.2,47.3,647.8,47.1z"/>
	</g>
	<g>
		<path d="M381.3,329.7c-0.6-0.1-1.1-0.2-1.4-0.3c-0.3-0.1-0.6-0.4-0.8-0.7c-0.8-1.1-1.2-3-1.2-5.5c0-1.6,0.1-2.9,0.3-3.9
			c0.2-0.9,0.6-1.8,1.2-2.5c0.3-0.4,0.7-0.7,1-0.8c0.8-0.2,1-0.6,1-0.9c0-0.2-0.1-0.4-0.3-0.6c-0.2-0.2-0.4-0.3-0.6-0.3l-0.2,0
			c-0.2,0-0.3,0-0.4,0c-0.8,0.1-1.5,0.8-2.2,1.9c-0.8,1.2-1.3,2.8-1.5,4.7c-0.1,0.5-0.1,1.2-0.1,2.2c0,1.3,0,2.1,0.1,2.4
			c0.3,2.1,0.9,3.5,1.6,4.5c0.8,1,2,1.5,3.4,1.6h0.1c0.8,0,1.1-0.5,1.1-0.9C382.4,330.4,382.3,329.8,381.3,329.7z"/>
		<path d="M392.7,317.8c-0.5-1.7-1.4-2.8-2.6-3.3c-0.3-0.2-0.8-0.2-1.5-0.2c-0.3,0-0.6,0-0.8,0h0c-0.8,0.1-1.4,0.4-2,1
			c-0.9,0.8-1.4,2-1.5,3.5c-0.1,0.8-0.1,1.9-0.1,3.2c0,0.4,0,0.6,0.1,0.8c0,0.1,0,0.4,0,1.3c0,1.2,0.2,2.5,0.5,3.7
			c0.2,0.9,0.5,1.6,0.8,2.1c0.3,0.5,0.8,0.9,1.3,1.3c0.6,0.4,1.2,0.5,1.9,0.5c1,0,1.9-0.3,2.5-0.9c0.8-0.7,1.3-1.8,1.6-3.1
			c0.2-1.1,0.3-2.5,0.3-4.1c0-1.5-0.1-2.6-0.1-3.4C393.1,319.3,392.9,318.6,392.7,317.8z M391.5,323.4c0,1.3-0.1,2.5-0.3,3.5
			c-0.2,1-0.6,1.8-1.1,2.3c-0.3,0.3-0.8,0.5-1.3,0.5c-0.4,0-0.7-0.1-0.8-0.1c-0.4-0.2-0.8-0.6-1-1.3c-0.3-0.7-0.5-1.8-0.7-3.3
			c-0.1-0.8-0.1-2-0.1-3.3c0-1.6,0.1-2.6,0.2-3.1c0.3-1.4,0.9-2.2,1.9-2.4c0.2,0,0.3,0,0.4,0c0.5,0,1,0.2,1.4,0.6l0,0
			c0.4,0.4,0.8,1.1,1.1,2c0.3,1,0.4,2.1,0.4,3.2C391.4,322.8,391.4,323.1,391.5,323.4L391.5,323.4z"/>
		<path d="M403.5,317.8c-0.5-1.7-1.4-2.8-2.6-3.3c-0.3-0.2-0.8-0.2-1.5-0.2c-0.3,0-0.6,0-0.8,0h0c-0.8,0.1-1.4,0.4-2,1
			c-0.9,0.8-1.4,2-1.5,3.5c-0.1,0.8-0.1,1.9-0.1,3.2c0,0.4,0,0.6,0.1,0.8c0,0.1,0,0.4,0,1.3c0,1.2,0.2,2.5,0.5,3.7
			c0.2,0.9,0.5,1.6,0.8,2.1c0.3,0.5,0.8,0.9,1.3,1.3c0.6,0.4,1.2,0.5,1.9,0.5c1,0,1.9-0.3,2.5-0.9c0.8-0.7,1.3-1.8,1.6-3.1
			c0.2-1.1,0.3-2.5,0.3-4.1c0-1.5-0.1-2.6-0.1-3.4C403.9,319.3,403.8,318.6,403.5,317.8z M402.3,323.4c0,1.3-0.1,2.5-0.3,3.5
			c-0.2,1-0.6,1.8-1.1,2.3c-0.3,0.3-0.8,0.5-1.3,0.5c-0.4,0-0.7-0.1-0.8-0.1c-0.4-0.2-0.8-0.6-1-1.3c-0.3-0.7-0.5-1.8-0.7-3.3
			c-0.1-0.8-0.1-2-0.1-3.3c0-1.6,0.1-2.6,0.2-3.1c0.3-1.4,0.9-2.2,1.9-2.4c0.2,0,0.3,0,0.4,0c0.5,0,1,0.2,1.4,0.6l0,0
			c0.4,0.4,0.8,1.1,1.1,2c0.3,1,0.4,2.1,0.4,3.2C402.3,322.8,402.3,323.1,402.3,323.4L402.3,323.4z"/>
		<path d="M408.2,329.7c-0.2,0-0.3,0-0.4,0c0-0.7-0.1-2.8-0.1-8.6c-0.1-5.2-0.1-5.3-0.1-5.4c-0.3-0.6-0.7-0.7-0.9-0.7
			c-0.2,0-0.4,0.1-0.5,0.3c-0.2,0.2-0.2,0.2-0.2,6.9c0,7.7,0.1,8,0.1,8.2c0.1,0.4,0.2,1,0.7,1.2c0.1,0.1,0.1,0.1,1.2,0.1
			c0.3,0,0.5,0,0.8,0c0.2,0,0.4-0.1,0.7-0.2c0.3-0.2,0.4-0.5,0.4-0.7c0-0.2-0.1-0.4-0.3-0.7C409.2,329.8,408.8,329.7,408.2,329.7z"
			/>
		<path d="M413.6,327.9c0-1-0.1-2.9-0.1-5.5c-0.1-2.7-0.1-4.3-0.1-5l0-1.5l-0.3-0.3c-0.2-0.2-0.4-0.3-0.7-0.3
			c-0.9,0-0.9,1.3-0.9,1.7l0,0.4c0,0.3,0.1,2.1,0.1,5.6c0.1,7.7,0.2,8,0.3,8.2c0.1,0.2,0.2,0.4,0.4,0.5c0.1,0.1,0.3,0.1,0.5,0.1
			c0.1,0,0.3,0,0.4-0.1c0.2-0.1,0.4-0.3,0.5-0.5c0-0.1,0.1-0.3,0.1-0.9c0,0,0-0.4,0-1.1L413.6,327.9z"/>
		<path d="M422.9,315.8c-0.2-0.8-0.7-0.9-0.9-0.9c-0.2,0-0.5,0.1-0.7,0.6c-0.1,0.2-0.1,0.5-0.1,0.7c0.1,1.1,0.2,2.7,0.3,4.8l0.1,2.2
			c0.1,1.2,0.1,2.3,0.2,3.2c0,0,0,0,0,0.1c-0.6-1.3-1.3-3.1-2.2-5.4c-1.8-4.4-2.3-5.3-2.6-5.6c-0.3-0.3-0.6-0.5-0.9-0.5
			c-0.3,0-0.7,0.1-0.8,1.1v0.1c0,0.8,0.1,3.4,0.3,7.6c0.3,6.4,0.3,6.6,0.4,6.7c0.2,0.8,0.7,0.9,0.9,0.9c0.2,0,0.5-0.1,0.7-0.5
			c0.1-0.1,0.1-0.2,0.1-0.8c0-1.2-0.1-4.1-0.3-8.7c0-0.5,0-0.9,0-1.2c0.7,1.7,1.5,3.7,2.4,5.8c1,2.4,1.7,3.8,1.9,4.3
			c0.3,0.6,0.5,1,0.8,1.1c0.1,0.1,0.2,0.1,0.4,0.1c0.2,0,0.3,0,0.4-0.1c0.4-0.2,0.5-0.8,0.5-1.8c0-0.8,0-1.8-0.1-3.1
			C423.3,320.1,423.1,316.6,422.9,315.8z"/>
		<path d="M433.6,323.2c-0.2-0.2-0.5-0.3-1.3-0.3c-0.7,0-1.1,0.1-1.3,0.3c-0.3,0.3-0.3,0.5-0.3,0.7c0,0.2,0.1,0.4,0.3,0.7
			c0.2,0.2,0.5,0.2,1,0.2h0.1c0,0.2,0,0.5,0,0.9c0,1.9-0.1,2.6-0.2,2.9c0,0.1-0.1,0.3-0.3,0.4c-0.1,0.2-0.3,0.3-0.4,0.3
			c-0.1,0-0.2,0.1-0.3,0.2c0,0-0.1,0-0.1,0c-0.3,0-0.5,0-0.7-0.1c-0.9-0.2-1.6-0.8-2.1-2c-0.5-1-0.7-2.7-0.7-5.2
			c0-1.5,0.1-2.6,0.3-3.2c0.2-0.7,0.5-1.3,0.8-1.9c0.4-0.6,0.7-1,1.2-1.3c0.4-0.3,0.9-0.4,1.4-0.5c0.4,0,0.7-0.2,0.8-0.3
			c0.2-0.2,0.3-0.5,0.3-0.6c0-0.2-0.1-0.4-0.3-0.6c-0.3-0.3-0.6-0.3-0.9-0.3c-0.3,0-0.6,0.1-1,0.2c-0.8,0.2-1.6,0.7-2.3,1.5
			c-1.2,1.3-1.9,3.1-2,5.3c0,0.5-0.1,1.1-0.1,1.8c0,1.2,0,2.2,0.1,3.1c0.1,0.8,0.3,1.6,0.6,2.5c0.3,0.9,0.7,1.6,1.1,2.1
			c0.4,0.4,0.9,0.8,1.5,1.1c0.6,0.3,1.3,0.5,1.8,0.5c0.4,0,1-0.1,1.6-0.5c0.3-0.2,0.6-0.5,1-0.8c0.3-0.4,0.5-0.8,0.6-1.2
			c0-0.2,0.1-0.6,0.1-2.5c0-0.5,0-1.1,0-1.7C434,324,433.9,323.5,433.6,323.2z"/>
	</g>
</g>
</svg>
