<?xml version="1.0" encoding="utf-8"?>
<!-- Generator: Adobe Illustrator 24.0.1, SVG Export Plug-In . SVG Version: 6.00 Build 0)  -->
<svg version="1.1" xmlns="http://www.w3.org/2000/svg" xmlns:xlink="http://www.w3.org/1999/xlink" x="0px" y="0px"
	 viewBox="0 0 1000 365.3" style="enable-background:new 0 0 1000 365.3;" xml:space="preserve">
<style type="text/css">
	.st0{fill:#95D2EF;}
	.st1{fill:#FCDE8A;}
	.st2{fill:#1E1E1C;}
	.st3{fill:#1E1E1C;stroke:#1E1E1C;stroke-width:0.25;stroke-miterlimit:10;}
	.st4{fill:#1E1E1C;stroke:#1E1E1C;stroke-width:0.15;stroke-miterlimit:10;}
	.st5{fill:#FFFFFF;}
	.st6{stroke:#1E1E1C;stroke-miterlimit:10;}
	.st7{fill:none;stroke:#1E1E1C;stroke-width:3;stroke-linecap:round;stroke-linejoin:round;stroke-miterlimit:10;}
</style>
<g id="Calque_2">
</g>
<g id="Calque_1">
	<path d="M359.5,202.2c3.2-4.6,7-8.8,10.7-13.1c0.7-0.8,0.8-1.9,0-2.7c-0.7-0.7-2-0.8-2.7,0c-3.9,4.5-7.9,8.9-11.3,13.8
		c-0.6,0.8-0.2,2.1,0.7,2.6C357.9,203.4,359,203,359.5,202.2L359.5,202.2z"/>
	<path d="M369.3,185.3c-6-3.3-12.1-6.6-18.1-9.9c-0.8-0.4-1.6-0.2-2.1,0.3c-0.4,0-0.8,0.2-1.2,0.5c-1,1-1.9,2.1-2.8,3.2
		c-9.2-6.5-19.6-11.5-30.5-14.5c-5.1-1.4-11.2-2.4-16,0.6c-4.2,2.6-6.1,7.4-7.1,12.1c-1,4.7-0.9,9.9-2.9,14.3
		c-2.1,4.5-6.2,6.5-11,6.9c-5,0.4-9.9-0.6-14.8-1.4c-5.1-0.9-10.2-2-15.2-3.4c-11.2-3.1-22-8-30.3-16.3c-1.7-1.7-4.4,0.9-2.7,2.7
		c7.4,7.5,16.9,12.4,26.8,15.7c5,1.7,10.1,2.9,15.3,4c5,1,10.2,2,15.3,2.4c4.8,0.4,9.9,0.2,14.1-2.3c4.6-2.7,6.7-7.6,7.6-12.6
		c0.9-4.7,0.9-9.6,2.9-14c0.9-2.1,2.3-3.9,4.3-5c2.3-1.3,5.1-1.3,7.7-1c3.1,0.4,6.2,1.4,9.1,2.3c3.1,1,6.1,2.1,9,3.5
		c5.7,2.5,11.1,5.6,16.2,9.2c-1.3,2.1-2.3,4.4-3.2,6.7c0,0.1-0.1,0.3-0.1,0.4c-0.4,0.8-0.4,1.9,0.6,2.5c5.5,3.2,10.7,6.8,15.6,10.7
		c0.8,0.6,1.9,0.8,2.7,0c0.7-0.7,0.8-2,0-2.7c-4.8-3.8-9.8-7.3-15.1-10.5c0.3-0.9,0.6-1.6,1-2.4c0.5-1.1,1.1-2.1,1.7-3.1
		c0.3-0.5,0.6-1,1-1.4c0.2-0.2,0.3-0.4,0.5-0.7c0.1-0.1,0.1-0.2,0.2-0.3c0,0,0.2-0.2,0.2-0.2c0.7-0.8,1.4-1.6,2.1-2.3
		c5.7,3.1,11.5,6.3,17.2,9.4C369.5,189.7,371.4,186.5,369.3,185.3z"/>
	<path d="M360.8,204.1c2.6,3.5,4.5,7.3,5.8,11.3c0.3,0.9,1.3,1.6,2.3,1.3c0.9-0.3,1.6-1.3,1.3-2.3c-1.4-4.4-3.5-8.5-6.2-12.2
		c-0.6-0.8-1.7-1.3-2.6-0.7C360.7,202.1,360.2,203.3,360.8,204.1L360.8,204.1z"/>
	<path d="M369.4,197.1c4.9-0.1,9.9-0.7,14.7-1.7c1-0.2,1.6-1.4,1.3-2.3c-0.3-1-1.3-1.5-2.3-1.3c-4.5,1-9.1,1.5-13.7,1.6
		c-1,0-1.9,0.8-1.9,1.9C367.5,196.2,368.4,197.1,369.4,197.1L369.4,197.1z"/>
	<path d="M615.6,147.8c-0.2-0.3-0.5-0.6-1-0.8c-10.4-3.6-21.4-4.2-32.3-4.8c-2.4-0.1-2.4,3.6,0,3.8c1.2,0.1,2.5,0.1,3.7,0.2
		c-1.4,5,0.6,10,3.3,14.3c2.9,4.6,6.7,9.7,12.7,9.4c-1.1,2.5-2.1,5-3,7.6c-0.9,2.3,2.8,3.2,3.6,1c3.7-9.8,8.2-19.2,13.4-28.3
		C616.6,149.2,616.2,148.3,615.6,147.8z M602.1,166.1c-4.6,0.3-7.4-4.1-9.6-7.6c-2.2-3.5-4.5-8-2.7-12.1c7.4,0.5,14.9,1.4,22,3.6
		c-3,5.4-5.8,10.9-8.3,16.6C603.2,166.3,602.7,166.1,602.1,166.1z"/>
	<path d="M714,112.7c-0.3-4.1-0.6-8.2-1.1-12.2c-0.1-1-0.8-1.9-1.9-1.9c-10.3-0.5-20.6-0.1-30.9-0.3c-4.8-0.1-9.5-0.4-14.3-0.5
		c-4.4-0.1-8.7,0.2-13,0.6c-5.8,0.6-11.7,1.1-17.5,1.4c-0.2,0-0.4,0.1-0.6,0.1c-0.7,0.2-1.3,0.7-1.3,1.7c0.8,9,0.8,18.1,0,27.1
		c-0.8,9-2.1,18-2,27.1c0,0.3,0.1,0.6,0.2,0.8c-0.5,1.1,0,2.7,1.6,2.8c8.5,0,17.1,0,25.6,0.1c-0.4,1.9-0.6,3.9-0.5,5.8
		c0,0.1,0,0.3,0.1,0.4c-0.8-0.2-1.6-0.5-2.4-0.7c-2.3-0.7-3.3,2.9-1,3.6c6.3,2.1,13,3,19.7,2.7c6.9-0.2,13.7-0.9,20.6-1.4
		c2.4-0.2,2.4-3.9,0-3.8c-2.2,0.2-4.3,0.3-6.5,0.5c0.2-0.4,0.3-0.9,0.2-1.3c-0.5-1.9-1-3.9-1.5-5.8c2.5,0,5.1,0,7.6,0
		c5.8,0,11.6,0,17.3,0c0.7,0,1.2-0.3,1.5-0.7c0.2-0.3,0.4-0.7,0.4-1.1C714.7,142.8,714.9,127.7,714,112.7z M683.6,159.8
		c0.6,2.2,1.1,4.4,1.7,6.7c0.1,0.2,0.2,0.4,0.3,0.6c-3.5,0.3-6.9,0.5-10.4,0.6c-4.6,0.2-9.1-0.2-13.5-1.1c0.3-0.3,0.5-0.7,0.4-1.2
		c0-1.2,0-2.4,0.2-3.6c0.1-0.7,0.3-1.5,0.4-2.2c7,0,14,0,20.9,0.1C683.6,159.7,683.6,159.8,683.6,159.8z M650.8,155.8
		c-5.2,0-10.5,0-15.7,0c-0.1-9,1.3-17.9,2-26.9c0.7-8.4,0.8-16.9,0.1-25.4c9-0.5,17.9-2,26.8-1.9c4.6,0,9.3,0.3,13.9,0.4
		c5,0.2,10.1,0.1,15.1,0.1c5.4-0.1,10.8,0,16.2,0.2c1.7,14.3,1.7,28.9,1.5,43.3c0,3.5-0.1,6.9-0.2,10.4
		C690.7,155.9,670.7,155.9,650.8,155.8z"/>
	<path d="M647.4,112.9c-0.2,9.9-0.2,19.8,0.2,29.8c0.1,2.4,3.8,2.4,3.8,0c-0.3-9.9-0.4-19.8-0.2-29.8
		C651.2,110.4,647.4,110.4,647.4,112.9L647.4,112.9z"/>
	<path d="M648.7,145c15.8,0,31.5,0.5,47.3,1.3c2.4,0.1,2.4-3.6,0-3.8c-15.7-0.8-31.5-1.3-47.3-1.3C646.3,141.3,646.3,145,648.7,145
		L648.7,145z"/>
	<path d="M650.8,133.4c0.3-0.8,2-3.3,2.9-2.6c0.5,0.3,0.8,1.1,1.1,1.6c0.4,0.7,0.9,1.3,1.5,1.9c1.6,1.4,3.8,1.5,5.6,0.5
		c1.8-1.1,2.7-2.9,3.7-4.7c1.1-1.9,2.4-3.6,3.9-5.1c0.4-0.4,0.8-0.8,1.2-1.1c0.1-0.1,0.3-0.2,0.5-0.3c-0.3-0.1-0.5-0.3-0.7-0.5
		c-0.1,0.1,0.2,1.4,0.3,1.6c0.1,0.6,0.2,1.3,0.3,1.9c0.3,2,0.3,4.7,2.8,5.2c2.1,0.4,2.7-1.5,4.3-2.2c-0.9-0.7-1.8-1.4-2.8-2.1
		c-0.4,2.2,1.2,4.2,3.5,4.2c2.4,0,3.9-2.1,5.4-3.6c3.2-3.1,7.2-5.1,11.5-6c2.4-0.5,1.4-4.1-1-3.6c-3.3,0.7-6.6,2-9.4,3.9
		c-1.4,0.9-2.7,2-3.9,3.2c-0.6,0.5-1.1,1.2-1.6,1.7c-0.2,0.2-0.6,0.4-0.8,0.6c0,0.1-0.1,0.1-0.2,0c0.1,0.2,0.1,0.3,0.1,0.6
		c0.3-1.7-1.2-2.8-2.8-2.1c-0.6,0.3-1.1,0.7-1.5,1.1c-0.1,0.1-0.7,0.6-0.6,0.6c0,0,1.1,0.5,1.2,0.5c0,0-0.1-0.6-0.1-0.6
		c-0.4-1.9-0.4-3.9-0.9-5.8c-0.5-1.8-2.1-2.7-3.9-2.2c-1.6,0.5-3,1.9-4.1,3.1c-1.2,1.3-2.3,2.7-3.2,4.2c-0.8,1.3-1.4,3.1-2.6,4.1
		c-1.1,0.8-1.6,0.1-2.2-0.8c-0.6-1-1.2-2.1-2.2-2.8c-3.5-2.6-7.4,1.6-8.6,4.8C646.4,134.6,650,135.6,650.8,133.4L650.8,133.4z"/>
	<path d="M685.2,279.4c-22.1-0.5-44.1-0.6-66.2-0.7c-24.9-0.1-49.7,0-74.6-0.1c-19.1-0.1-38.1-0.4-57.1-0.8
		c12-14.1,24.3-27.9,36.9-41.5c4.2-4.6,8.5-9.1,12.8-13.6c-0.2,2.7-0.4,5.4-0.4,8.1c0,2.4,3.7,2.4,3.8,0c0.1-4.2,0.3-8.4,0.9-12.5
		c7.3-7.5,14.6-14.9,22-22.3c7.5-7.4,15.2-14.7,22.9-22c1.8-1.7-0.9-4.3-2.7-2.7c-13.7,12.8-27,25.9-40.1,39.2
		c-1.7,1.7-3.4,3.5-5.1,5.2c-7.2,3.4-14.8,5.8-22.6,7.4c-2.4,0.5-1.4,4.1,1,3.6c5.2-1,10.3-2.4,15.2-4.3c-9.1,9.5-18,19.2-26.8,29
		c-6.7,7.5-13.3,15.1-19.9,22.8c-15-9.1-30-18.2-45-27.4c-1.7-1-3.3-2-5-3.1c-2-5.1-4.1-10.1-6.1-15.2c-0.4-0.9-1.2-1.6-2.3-1.3
		c-0.9,0.2-1.7,1.4-1.3,2.3c1.5,3.6,2.9,7.2,4.4,10.8c-11.2-7.2-22.2-14.7-33-22.6c-7.9-5.8-15.7-11.8-23.6-17.7
		c-0.8-0.6-2.1-0.1-2.6,0.7c-0.6,1-0.1,2,0.7,2.6c13.9,10.5,27.7,21.1,42.1,30.9c3.8,2.6,7.7,5.2,11.6,7.7
		c-4.6-0.7-9.2-1.3-13.9-1.7c-1-0.1-1.9,0.9-1.9,1.9c0,1.1,0.9,1.8,1.9,1.9c7.4,0.7,14.8,1.7,22.1,3.1c0,0,0,0,0,0
		c8.3,5.2,16.8,10.2,25.2,15.3c8.3,5,16.5,10.1,24.8,15.1c-3.2-0.1-6.4-0.1-9.6-0.2c-32.2-0.8-64.4-1.6-96.6-2.4
		c-32.3-0.8-64.7-1.6-97-2.4c-4-0.1-8.1-0.2-12.1-0.3c-2.4-0.1-2.4,3.7,0,3.8c32.3,0.8,64.7,1.6,97,2.4c32.2,0.8,64.4,1.6,96.6,2.4
		c24.6,0.6,49.3,1.2,73.9,1.3c24.7,0.1,49.5,0.1,74.2,0.2c22.8,0,45.6,0.1,68.5,0.5c2.3,0,4.7,0.1,7,0.2
		C687.6,283.2,687.6,279.5,685.2,279.4z"/>
	<g>
		<path d="M247.2,142.8c0-1-0.1-2.9-0.1-5.5c-0.1-2.7-0.1-4.3-0.1-5l0-1.5l-0.3-0.3c-0.2-0.2-0.4-0.3-0.7-0.3
			c-0.9,0-0.9,1.3-0.9,1.7l0,0.4c0,0.3,0.1,2.1,0.1,5.6c0.1,7.7,0.2,8,0.3,8.2c0.1,0.2,0.2,0.4,0.4,0.5c0.1,0.1,0.3,0.1,0.5,0.1
			c0.1,0,0.3,0,0.4-0.1c0.2-0.1,0.4-0.3,0.5-0.5c0-0.1,0.1-0.3,0.1-0.9c0,0,0-0.4,0-1.1L247.2,142.8z"/>
		<path d="M256.5,130.8c-0.2-0.8-0.7-0.9-0.9-0.9c-0.2,0-0.5,0.1-0.7,0.6c-0.1,0.2-0.1,0.5-0.1,0.7c0.1,1.1,0.2,2.7,0.3,4.8l0.1,2.2
			c0.1,1.2,0.1,2.3,0.2,3.2c0,0,0,0,0,0.1c-0.6-1.3-1.3-3.1-2.2-5.4c-1.8-4.4-2.3-5.3-2.6-5.6c-0.3-0.3-0.6-0.5-0.9-0.5
			c-0.3,0-0.7,0.1-0.8,1.1v0.1c0,0.8,0.1,3.4,0.3,7.6c0.3,6.4,0.3,6.6,0.4,6.7c0.2,0.8,0.7,0.9,0.9,0.9c0.2,0,0.5-0.1,0.7-0.5
			c0.1-0.1,0.1-0.2,0.1-0.8c0-1.2-0.1-4.1-0.3-8.7c0-0.5,0-0.9,0-1.2c0.7,1.7,1.5,3.7,2.4,5.8c1,2.4,1.7,3.8,1.9,4.3
			c0.3,0.6,0.5,1,0.8,1.1c0.1,0.1,0.2,0.1,0.4,0.1c0.2,0,0.3,0,0.4-0.1c0.4-0.2,0.5-0.8,0.5-1.8c0-0.8,0-1.8-0.1-3.1
			C256.9,135,256.7,131.5,256.5,130.8z"/>
		<path d="M261.8,129.3c-1.8,0-2,0-2.1,0.1c-0.4,0.2-0.6,0.6-0.6,0.8c0,0.1-0.1,0.3-0.1,3.6c0,6.6,0.1,10.3,0.2,11.3
			c0.1,1.2,0.6,1.5,1,1.5c0.2,0,0.3-0.1,0.5-0.2l0.3-0.3v-1.5c-0.1-3.3-0.1-5.6-0.1-6.7v-0.4c0.4,0,0.6,0,0.8,0
			c0.4,0,0.7-0.1,0.9-0.4c0.2-0.2,0.3-0.3,0.3-0.5c0-0.2-0.2-0.4-0.3-0.5l-0.3-0.4h-1.5v-1.6c0-0.5,0-1,0-1.7c0-0.6,0-1,0-1.1v-0.2
			l1.2,0c1.3,0,1.6-0.1,1.7-0.1c0.4-0.1,0.6-0.4,0.6-0.8c0-0.3-0.1-0.6-0.4-0.8C263.9,129.4,263.7,129.3,261.8,129.3z"/>
		<path d="M271.4,140.9c-0.4-0.8-0.8-1.4-1.2-1.6l-0.3-0.3c0.5-0.3,1-0.7,1.4-1.3c0.5-0.6,0.8-1.2,0.9-1.8c0-0.1,0-0.2,0-0.7
			c0-0.8-0.1-1.5-0.2-2.1c-0.2-1-0.7-1.9-1.5-2.8c-0.6-0.7-1.4-1.1-2.1-1.4c-0.4-0.1-0.7-0.2-1-0.2c-0.4,0-0.6,0.2-0.7,0.3l-0.1,0.1
			v0c-0.1,0.2-0.1,0.9-0.2,3c0,2,0,4-0.1,5.8c0,0.6,0,1.5,0,2.6c0,1.4,0,2.3,0,2.9c0,1.2,0.1,1.9,0.1,2.2c0.1,0.5,0.2,0.8,0.6,0.9
			c0.1,0,0.3,0.1,0.4,0.1c0.3,0,0.6-0.2,0.8-0.5c0.1-0.1,0.1-0.2,0.1-1.1c0-0.9,0-1.7,0-2.4c0-0.9,0-1.8,0-2.7c0,0,0,0,0,0
			c0.7,0.5,1.3,1.2,1.8,2.1c0.2,0.5,0.5,1.2,0.8,2c0.7,1.9,0.8,2,0.9,2c0.3,0.3,0.8,0.3,1.2,0c0.2-0.2,0.3-0.4,0.3-0.7
			c0-0.2-0.1-0.6-0.5-1.8C272,142.4,271.7,141.5,271.4,140.9z M268.1,137.6v-0.3c0-2.5,0-4.6,0.1-6c0-0.2,0-0.3,0-0.4
			c1.4,0.8,2.1,2.1,2.1,4.1c0,0.6,0,0.8,0,0.8c0,0-0.1,0.2-0.4,0.6c-0.4,0.6-0.6,0.8-0.7,0.8c-0.1,0-0.4,0.1-0.8,0.3
			C268.2,137.6,268.2,137.6,268.1,137.6z"/>
		<path d="M281.1,134.9c-1.1-4.2-1.3-4.4-1.5-4.6c-0.2-0.2-0.7-0.3-1.3,0.1c-0.4,0.2-0.6,0.5-0.7,0.9c-0.1,0.2-0.5,2.4-1.3,6.3
			c-0.8,4.1-1.3,6.4-1.4,7.1c-0.1,0.5-0.1,0.7-0.1,0.8c0,0.1,0,0.3,0.1,0.5c0.2,0.4,0.6,0.5,0.8,0.5c0.3,0,0.6-0.2,0.8-0.5
			c0-0.1,0.1-0.4,0.5-2.1c0.3-1.2,0.5-2.4,0.7-3.6c0.1-0.7,0.2-1.1,0.3-1.4c0.1,0,0.1,0,0.2,0c1.6,0,2.1,0,2.1,0c0,0,0.1,0.2,0.3,1
			c1.4,5.7,1.6,6.2,1.7,6.3c0.1,0.3,0.3,0.6,0.6,0.6c0.1,0,0.2,0,0.2,0c0.1,0,0.3,0,0.4-0.1c0.3-0.2,0.4-0.4,0.4-0.8
			c0-0.1,0-0.4-0.7-3.1C282.3,139.6,281.6,136.8,281.1,134.9z M278.9,133.8c0,0.1,0.1,0.2,0.1,0.4c0.1,0.4,0.2,0.9,0.4,1.5
			c0.2,0.6,0.3,1,0.3,1.1c0,0.1,0.1,0.3,0.1,0.4c-0.2,0-0.4,0-0.7,0l-0.8,0c0,0,0,0,0,0c0.1-0.4,0.2-1,0.4-2.3
			C278.8,134.4,278.9,134.1,278.9,133.8z"/>
		<path d="M290.9,140.9c-0.4-0.8-0.8-1.4-1.2-1.6l-0.3-0.3c0.5-0.3,1-0.7,1.4-1.3c0.5-0.6,0.8-1.2,0.9-1.8c0-0.1,0-0.2,0-0.7
			c0-0.8-0.1-1.5-0.2-2.1c-0.2-1-0.7-1.9-1.5-2.8c-0.6-0.7-1.4-1.1-2.1-1.4c-0.4-0.1-0.7-0.2-1-0.2c-0.4,0-0.6,0.2-0.7,0.3l-0.1,0.1
			v0c-0.1,0.2-0.1,0.9-0.2,3c0,2,0,4-0.1,5.8c0,0.6,0,1.5,0,2.6c0,1.4,0,2.3,0,2.9c0,1.2,0.1,1.9,0.1,2.2c0.1,0.5,0.2,0.8,0.6,0.9
			c0.1,0,0.3,0.1,0.4,0.1c0.3,0,0.6-0.2,0.8-0.5c0.1-0.1,0.1-0.2,0.1-1.1c0-0.9,0-1.7,0-2.4c0-0.9,0-1.8,0-2.7c0,0,0,0,0,0
			c0.7,0.5,1.3,1.2,1.8,2.1c0.2,0.5,0.5,1.2,0.8,2c0.7,1.9,0.8,2,0.9,2c0.3,0.3,0.8,0.3,1.2,0c0.2-0.2,0.3-0.4,0.3-0.7
			c0-0.2-0.1-0.6-0.5-1.8C291.5,142.4,291.2,141.5,290.9,140.9z M287.6,137.6v-0.3c0-2.5,0-4.6,0.1-6c0-0.2,0-0.3,0-0.4
			c1.4,0.8,2.1,2.1,2.1,4.1c0,0.6,0,0.8,0,0.8c0,0-0.1,0.2-0.4,0.6c-0.4,0.6-0.6,0.8-0.7,0.8c-0.1,0-0.4,0.1-0.8,0.3
			C287.7,137.6,287.6,137.6,287.6,137.6z"/>
		<path d="M297,131.2c1.5,0,1.9-0.1,2-0.4c0.3-0.5,0.1-1-0.1-1.1c-0.2-0.2-0.6-0.3-1.3-0.3c-0.5,0-0.9,0-1.2,0h-0.4
			c-0.2,0-0.3,0-0.4,0c-0.2,0-0.5,0-0.6,0.1l-0.2,0c-0.1,0-0.2,0.1-0.3,0.1c-0.1,0.1-0.2,0.1-0.2,0.2l-0.1,0.1
			c0,0.1-0.1,0.2-0.1,2.3c0,2.3,0,5,0.1,8.2c0.1,4.9,0.2,5.1,0.2,5.2c0.1,0.3,0.4,0.6,0.7,0.6c0.1,0,0.5,0,1.6,0l1.9,0l0.1-0.3
			c0.2-0.4,0.3-0.6,0.2-0.9c-0.1-0.3-0.3-0.6-0.7-0.6c-0.1,0-0.4-0.1-1.3-0.1c-0.4,0-0.7,0-0.9,0c0-0.2-0.1-0.6-0.1-1.3
			c-0.1-1-0.1-2-0.1-2.8c0-0.4,0-0.7,0-0.9l0-0.2c0.4,0,0.9-0.1,1.1-0.5c0.1-0.1,0.1-0.3,0.1-0.5c0-0.3-0.1-0.9-1.3-0.9
			c0-0.2,0-1-0.1-3.4l0-2.7h0C296.3,131.3,296.7,131.2,297,131.2z"/>
		<path d="M308.8,136.5c-0.2-1.8-0.8-3.4-1.6-4.7c-0.2-0.3-0.5-0.6-0.9-1s-0.8-0.7-1.1-0.9c-1-0.6-2-0.9-2.9-0.9
			c-0.3,0-0.5,0-0.6,0.1c-0.4,0.1-0.6,0.4-0.6,0.5c-0.1,0.2-0.1,0.5-0.1,0.9c0,0.7,0,2,0.1,4l0.1,3.6c0.1,4.4,0.2,6.9,0.4,7.7
			c0.1,0.3,0.3,0.8,1.3,0.8h0.2c1,0,2-0.3,2.9-0.8c1.4-0.8,2.3-2.3,2.7-4.3c0.1-0.4,0.1-1.1,0.1-2.3
			C308.9,137.9,308.9,137,308.8,136.5z M303.4,144.7c-0.1-0.4-0.1-1.4-0.3-4.7c0-0.2,0-1-0.1-2.5c0-1.5-0.1-2.8-0.1-3.9
			c0-1.1-0.1-1.9-0.2-2.4c0-0.1,0-0.1,0-0.2c0.1,0,0.3,0.1,0.5,0.1l0,0c0.9,0.3,1.6,0.7,2.1,1.4c0.9,1.1,1.5,2.8,1.7,5.1
			c0,0.6,0.1,1.1,0.1,1.6c0,1.5-0.1,2.1-0.1,2.4c-0.4,1.8-1.5,2.9-3.1,3.2C303.6,144.7,303.5,144.7,303.4,144.7z"/>
	</g>
	<g>
		<path d="M605.6,66.9c-1.6-1.5-1.9-1.9-1.9-2c-0.1-0.2-0.1-0.4-0.1-0.7c0-0.5,0.2-1,0.5-1.4c0.3-0.3,0.6-0.5,1.1-0.7
			c0.4-0.2,0.6-0.2,0.6-0.3c0.1-0.1,0.3-0.3,0.3-0.6c0-0.7-0.7-1-1.5-0.7c-0.8,0.2-1.4,0.7-2,1.3c-0.6,0.7-0.9,1.5-0.9,2.3
			c0,0.2,0,0.4,0,0.5c0.1,0.8,0.5,1.6,1.2,2.2c0.2,0.1,0.6,0.6,1.5,1.4c0.6,0.6,0.9,1,1.1,1.2c0.2,0.2,0.3,0.5,0.5,0.9
			c0.2,0.5,0.3,1.2,0.3,1.9c0,0.4,0,0.7-0.1,0.9c-0.1,0.6-0.4,1.1-0.9,1.5c-0.4,0.4-0.9,0.7-1.5,0.8c-1.5,0.3-1.7,0.5-1.8,0.6
			c-0.1,0.1-0.3,0.3-0.3,0.7c0,0.2,0,0.4,0.1,0.6c0.1,0.2,0.4,0.3,0.7,0.3c0.5,0,0.8-0.1,1-0.2c0.1,0,0.4-0.1,0.8-0.2
			c0.5-0.1,0.9-0.3,1.1-0.4c0.4-0.2,0.8-0.5,1.2-0.9c1-1,1.6-2.3,1.6-3.7c0-1.7-0.4-3.1-1.2-4.2C606.9,68.3,606.8,68.1,605.6,66.9z"
			/>
		<path d="M612.7,62.6c1.5,0,1.9-0.1,2-0.4c0.3-0.5,0.1-1-0.1-1.1c-0.2-0.2-0.6-0.3-1.3-0.3c-0.5,0-0.9,0-1.2,0h-0.4
			c-0.2,0-0.3,0-0.4,0c-0.2,0-0.5,0-0.6,0.1l-0.2,0c-0.1,0-0.2,0.1-0.3,0.1c-0.1,0.1-0.2,0.1-0.2,0.2l-0.1,0.1
			c0,0.1-0.1,0.2-0.1,2.3c0,2.3,0,5,0.1,8.2c0.1,4.9,0.2,5.1,0.2,5.2c0.1,0.3,0.4,0.6,0.7,0.6c0.1,0,0.4,0,1.6,0c0,0,0,0,0,0l1.9,0
			l0.1-0.3c0.2-0.4,0.3-0.6,0.2-0.9c-0.1-0.3-0.3-0.6-0.7-0.6c-0.1,0-0.4-0.1-1.3-0.1c-0.4,0-0.7,0-0.9,0c0-0.2-0.1-0.6-0.1-1.3
			c-0.1-1-0.1-2-0.1-2.8c0-0.4,0-0.7,0-0.9l0-0.2c0.4,0,0.9-0.1,1.1-0.5c0.1-0.1,0.1-0.3,0.1-0.5c0-0.3-0.1-0.9-1.3-0.9
			c0-0.2,0-1-0.1-3.4l0-2.7h0C612,62.7,612.3,62.6,612.7,62.6z"/>
		<path d="M624.3,62.1c-0.2-0.8-0.7-0.9-0.9-0.9c-0.2,0-0.5,0.1-0.7,0.6c-0.1,0.2-0.1,0.5-0.1,0.7c0.1,1.1,0.2,2.7,0.3,4.8l0.1,2.2
			c0.1,1.2,0.1,2.3,0.2,3.2c0,0,0,0,0,0.1c-0.6-1.3-1.3-3.1-2.2-5.4c-1.8-4.4-2.3-5.3-2.6-5.6c-0.3-0.3-0.6-0.5-0.9-0.5
			c-0.3,0-0.7,0.1-0.8,1.1v0.1c0,0.8,0.1,3.4,0.3,7.6c0.3,6.4,0.3,6.6,0.4,6.7c0.2,0.8,0.7,0.9,0.9,0.9c0.2,0,0.5-0.1,0.7-0.5
			c0.1-0.1,0.1-0.2,0.1-0.8c0-1.2-0.1-4.1-0.3-8.7c0-0.5,0-0.9,0-1.2c0.7,1.7,1.5,3.7,2.4,5.8c1,2.4,1.7,3.8,1.9,4.3
			c0.3,0.6,0.5,1,0.8,1.1c0.1,0.1,0.2,0.1,0.4,0.1c0.2,0,0.3,0,0.4-0.1c0.4-0.2,0.5-0.8,0.5-1.8c0-0.8,0-1.8-0.1-3.1
			C624.6,66.4,624.4,62.9,624.3,62.1z"/>
		<path d="M630.7,66.9c-1.6-1.5-1.9-1.9-1.9-2c-0.1-0.2-0.1-0.4-0.1-0.7c0-0.5,0.2-1,0.5-1.4c0.3-0.3,0.6-0.5,1.1-0.7
			c0.4-0.2,0.6-0.2,0.6-0.3c0.1-0.1,0.3-0.3,0.3-0.6c0-0.7-0.7-1-1.5-0.7c-0.8,0.2-1.4,0.7-2,1.3c-0.6,0.7-0.9,1.5-0.9,2.3
			c0,0.2,0,0.4,0,0.5c0.1,0.8,0.5,1.6,1.2,2.2c0.2,0.1,0.6,0.6,1.5,1.4c0.6,0.6,0.9,1,1.1,1.2c0.2,0.2,0.3,0.5,0.5,0.9
			c0.2,0.5,0.3,1.2,0.3,1.9c0,0.4,0,0.7-0.1,0.9c-0.1,0.6-0.4,1.1-0.9,1.5c-0.4,0.4-0.9,0.7-1.5,0.8c-1.5,0.3-1.7,0.5-1.8,0.6
			c-0.1,0.1-0.3,0.3-0.3,0.7c0,0.2,0,0.4,0.1,0.6c0.1,0.2,0.4,0.3,0.7,0.3c0.5,0,0.8-0.1,1-0.2c0.1,0,0.4-0.1,0.8-0.2
			c0.5-0.1,0.9-0.3,1.1-0.4c0.4-0.2,0.8-0.5,1.2-0.9c1-1,1.6-2.3,1.6-3.7c0-1.7-0.4-3.1-1.2-4.2C632.1,68.3,632,68.1,630.7,66.9z"/>
		<path d="M643.6,64.2c-0.5-1.7-1.4-2.8-2.6-3.3c-0.3-0.2-0.8-0.2-1.5-0.2c-0.3,0-0.6,0-0.8,0h0c-0.8,0.1-1.4,0.4-2,1
			c-0.9,0.8-1.4,2-1.5,3.5c-0.1,0.8-0.1,1.9-0.1,3.2c0,0.4,0,0.6,0.1,0.8c0,0.1,0,0.4,0,1.3c0,1.2,0.2,2.5,0.5,3.7
			c0.2,0.9,0.5,1.6,0.8,2.1c0.3,0.5,0.8,0.9,1.3,1.3c0.6,0.4,1.2,0.5,1.9,0.5c1,0,1.9-0.3,2.5-0.9c0.8-0.7,1.3-1.8,1.6-3.1
			c0.2-1.1,0.3-2.5,0.3-4.1c0-1.5-0.1-2.6-0.1-3.4C644,65.7,643.8,64.9,643.6,64.2z M638.8,75.9c-0.4-0.2-0.8-0.6-1-1.3
			c-0.3-0.7-0.5-1.8-0.7-3.3c-0.1-0.8-0.1-2-0.1-3.3c0-1.6,0.1-2.6,0.2-3.1c0.3-1.4,0.9-2.2,1.9-2.4c0.2,0,0.3,0,0.4,0
			c0.5,0,1,0.2,1.4,0.6l0,0c0.4,0.4,0.8,1.1,1.1,2c0.3,1,0.4,2.1,0.4,3.2c0,0.9,0,1.2,0.1,1.4l0,0.1c0,1.3-0.1,2.5-0.3,3.5
			c-0.2,1-0.6,1.8-1.1,2.3c-0.3,0.3-0.8,0.5-1.3,0.5C639.2,76,638.9,75.9,638.8,75.9z"/>
		<path d="M652.2,75.1c-0.5-1.3-0.8-2.2-1.1-2.8c-0.4-0.8-0.8-1.4-1.2-1.6l-0.3-0.3c0.5-0.3,1-0.7,1.4-1.3c0.5-0.6,0.8-1.2,0.9-1.8
			c0-0.1,0-0.2,0-0.7c0-0.8-0.1-1.5-0.2-2.1c-0.2-1-0.7-1.9-1.5-2.8c-0.6-0.7-1.4-1.1-2.1-1.4c-0.4-0.1-0.7-0.2-1-0.2
			c-0.4,0-0.6,0.2-0.7,0.3l-0.1,0.1v0c-0.1,0.2-0.1,0.9-0.2,3c0,2,0,4-0.1,5.8c0,0.6,0,1.5,0,2.6c0,1.4,0,2.3,0,2.9
			c0,1.2,0.1,1.9,0.1,2.2c0.1,0.5,0.2,0.8,0.6,0.9c0.1,0,0.3,0.1,0.4,0.1c0.3,0,0.6-0.2,0.8-0.5c0.1-0.1,0.1-0.2,0.1-1.1
			c0-0.9,0-1.7,0-2.4c0-0.9,0-1.8,0-2.7c0,0,0,0,0,0c0.7,0.5,1.3,1.2,1.8,2.1c0.2,0.5,0.5,1.2,0.8,2c0.7,1.9,0.8,2,0.9,2
			c0.3,0.3,0.8,0.3,1.2,0c0.2-0.2,0.3-0.4,0.3-0.7C652.7,76.6,652.6,76.2,652.2,75.1z M647.8,69v-0.3c0-2.5,0-4.6,0.1-6
			c0-0.2,0-0.3,0-0.4c1.4,0.8,2.1,2.1,2.1,4.1c0,0.6,0,0.8,0,0.8c0,0-0.1,0.2-0.4,0.6c-0.4,0.6-0.6,0.8-0.7,0.8
			c-0.1,0-0.4,0.1-0.8,0.3C647.9,69,647.9,69,647.8,69z"/>
	</g>
	<g>
		<path d="M468.3,296.9c-1.6-1.5-1.9-1.9-1.9-2c-0.1-0.2-0.1-0.4-0.1-0.7c0-0.5,0.2-1,0.5-1.4c0.3-0.3,0.6-0.5,1.1-0.7
			c0.4-0.2,0.6-0.2,0.6-0.3c0.1-0.1,0.3-0.3,0.3-0.6c0-0.7-0.7-1-1.5-0.7c-0.8,0.2-1.4,0.7-2,1.3c-0.6,0.7-0.9,1.5-0.9,2.3
			c0,0.2,0,0.4,0,0.5c0.1,0.8,0.5,1.6,1.2,2.2c0.2,0.1,0.6,0.6,1.5,1.4c0.6,0.6,0.9,1,1.1,1.2c0.2,0.2,0.3,0.5,0.5,0.9
			c0.2,0.5,0.3,1.2,0.3,1.9c0,0.4,0,0.7-0.1,0.9c-0.1,0.6-0.4,1.1-0.9,1.5c-0.4,0.4-0.9,0.7-1.5,0.8c-1.5,0.3-1.7,0.5-1.8,0.6
			c-0.1,0.1-0.3,0.3-0.3,0.7c0,0.2,0,0.4,0.1,0.6c0.1,0.2,0.4,0.3,0.7,0.3c0.5,0,0.8-0.1,1-0.2c0.1,0,0.4-0.1,0.8-0.2
			c0.5-0.1,0.9-0.3,1.1-0.4c0.4-0.2,0.8-0.5,1.2-0.9c1-1,1.6-2.3,1.6-3.7c0-1.7-0.4-3.1-1.2-4.2C469.7,298.2,469.6,298,468.3,296.9z
			"/>
		<path d="M479.1,296.2c-1.1-4.2-1.3-4.4-1.5-4.6c-0.2-0.2-0.7-0.3-1.3,0.1c-0.4,0.2-0.6,0.5-0.7,0.9c-0.1,0.2-0.5,2.4-1.3,6.3
			c-0.8,4.1-1.3,6.4-1.4,7.1c-0.1,0.5-0.1,0.7-0.1,0.8c0,0.1,0,0.3,0.1,0.5c0.2,0.4,0.6,0.5,0.8,0.5c0.3,0,0.6-0.2,0.8-0.5
			c0-0.1,0.1-0.4,0.5-2.1c0.3-1.2,0.5-2.4,0.7-3.6c0.1-0.7,0.2-1.1,0.3-1.4c0.1,0,0.1,0,0.2,0c1.6,0,2.1,0,2.1,0c0,0,0.1,0.2,0.3,1
			c1.4,5.7,1.6,6.2,1.7,6.3c0.1,0.3,0.3,0.6,0.6,0.6c0.1,0,0.2,0,0.2,0c0.1,0,0.3,0,0.4-0.1c0.3-0.2,0.4-0.4,0.4-0.8
			c0-0.1,0-0.4-0.7-3.1C480.3,300.9,479.6,298.1,479.1,296.2z M476.9,295c0,0.1,0.1,0.2,0.1,0.4c0.1,0.4,0.2,0.9,0.4,1.5
			c0.2,0.6,0.3,1,0.3,1.1c0,0.1,0.1,0.3,0.1,0.4c-0.2,0-0.4,0-0.7,0l-0.8,0c0,0,0,0,0,0c0.1-0.4,0.2-1,0.4-2.3
			C476.7,295.7,476.8,295.3,476.9,295z"/>
		<path d="M495.2,304.3c-0.4-2.6-0.8-5.4-1.3-8.4c-0.6-3.9-0.6-4-0.7-4.1c-0.3-0.6-1.1-0.8-1.6-0.3c-0.2,0.1-0.5,0.5-1.5,2.1
			c-0.5,0.7-0.8,1.2-1,1.4c-0.2-0.2-0.4-0.6-0.8-1.2c-1.2-1.8-1.3-1.9-1.3-1.9c-0.4-0.5-0.8-0.6-1.1-0.6c-0.3,0-0.6,0.1-0.7,0.4
			c-0.1,0.1-0.2,0.4-0.2,1c-0.1,0.9-0.2,1.8-0.3,2.8c-0.8,7-1.1,10.8-1.1,11.5c0,0.5,0.3,0.7,0.4,0.8c0.3,0.2,0.6,0.2,0.9-0.1
			c0.3-0.2,0.4-0.5,0.5-1.7c0.1-0.9,0.4-3.8,0.8-8.7c0.1-1.4,0.2-2.3,0.3-2.9c0.1,0.1,0.1,0.2,0.2,0.2c0.5,0.8,0.9,1.4,1.2,1.8
			c0.5,0.9,0.8,1.2,1.2,1.2c0.4,0,0.6-0.3,0.7-0.4c0.1-0.2,0.4-0.5,0.8-1.1c0.4-0.6,0.8-1.2,1.2-1.8c0.3,1.4,0.6,4.1,1.2,7.9
			c0.7,5.4,1,5.7,1.1,5.9c0.2,0.2,0.4,0.3,0.6,0.3c0.1,0,0.2,0,0.3-0.1c0.3-0.1,0.5-0.4,0.5-0.8c0-0.1,0-0.3-0.1-1
			C495.5,306.2,495.4,305.5,495.2,304.3z"/>
		<path d="M501.2,291.1c-1.1-0.7-2-1.1-2.7-1.1l-0.2,0c-0.3,0-0.7,0.2-0.9,0.9c0,0.1-0.1,0.2-0.1,0.8c0,1,0,2.3,0.1,3.9
			c0,0.9,0.1,3,0.1,6c0.1,4.9,0.1,5.2,0.1,5.3c0.1,0.3,0.1,0.5,0.3,0.6c0.2,0.2,0.5,0.3,0.6,0.3c0.3,0,0.6-0.1,0.9-0.4l0.2-0.2
			l-0.1-3.1v-1.6c0-0.8,0-1.2,0-1.3c0.1-0.1,0.2-0.2,0.5-0.4c0.4-0.3,0.8-0.6,1.2-0.9c0.7-0.6,1.2-1.1,1.5-1.6
			c0.3-0.5,0.6-1.1,0.7-1.8c0-0.2,0.1-0.5,0.1-0.9c0-0.9-0.2-1.8-0.6-2.6C502.5,292.2,501.9,291.6,501.2,291.1z M499.3,292.1
			c1.1,0.5,1.9,1.3,2.2,2.4c0.1,0.4,0.2,0.8,0.2,1.3c0,0.3,0,0.5-0.1,0.7c-0.2,0.7-0.7,1.4-1.4,2c-0.2,0.2-0.4,0.4-0.6,0.5
			c0-0.5-0.1-1.4-0.1-2.9c0-0.4,0-1.1-0.1-1.9c0-0.9-0.1-1.4-0.1-1.6L499.3,292.1C499.2,292.1,499.3,292.1,499.3,292.1z"/>
		<path d="M507.6,306c-0.2,0-0.3,0-0.4,0c0-0.7-0.1-2.8-0.1-8.6c-0.1-5.2-0.1-5.3-0.1-5.4c-0.3-0.6-0.7-0.7-0.9-0.7
			c-0.2,0-0.4,0.1-0.5,0.3c-0.2,0.2-0.2,0.2-0.2,6.9c0,7.7,0.1,8,0.1,8.2c0.1,0.4,0.2,1,0.7,1.2c0.1,0.1,0.1,0.1,1.2,0.1
			c0.3,0,0.5,0,0.8,0c0.2,0,0.4-0.1,0.7-0.2c0.3-0.2,0.4-0.5,0.4-0.7c0-0.2-0.1-0.4-0.3-0.7C508.6,306.1,508.3,306,507.6,306z"/>
		<path d="M515.2,306c-0.1,0-0.4-0.1-1.3-0.1c-0.4,0-0.7,0-0.9,0c0-0.2-0.1-0.6-0.1-1.3c-0.1-1-0.1-2-0.1-2.8c0-0.4,0-0.7,0-0.9
			l0-0.2c0.4,0,0.9-0.1,1.1-0.5c0.1-0.1,0.1-0.3,0.1-0.5c0-0.3-0.1-0.9-1.3-0.9c0-0.2,0-1-0.1-3.4l0-2.7h0c0.3,0,0.6-0.1,1-0.1
			c1.5,0,1.9-0.1,2-0.4c0.3-0.5,0.1-1-0.1-1.1c-0.2-0.2-0.6-0.3-1.3-0.3c-0.5,0-0.9,0-1.2,0h-0.4c-0.2,0-0.3,0-0.4,0
			c-0.2,0-0.5,0-0.6,0.1l-0.2,0c-0.1,0-0.2,0.1-0.3,0.1c-0.1,0.1-0.2,0.1-0.2,0.2l-0.1,0.1c0,0.1-0.1,0.2-0.1,2.3c0,2.3,0,5,0.1,8.2
			c0.1,4.9,0.2,5.1,0.2,5.2c0.1,0.3,0.4,0.6,0.7,0.6c0.1,0,0.4,0,1.6,0c0,0,0,0,0,0l1.9,0l0.1-0.3c0.2-0.4,0.3-0.6,0.2-0.9
			C515.8,306.3,515.5,306.1,515.2,306z"/>
	</g>
</g>
</svg>
