<?xml version="1.0" encoding="utf-8"?>
<!-- Generator: Adobe Illustrator 24.0.1, SVG Export Plug-In . SVG Version: 6.00 Build 0)  -->
<svg version="1.1" xmlns="http://www.w3.org/2000/svg" xmlns:xlink="http://www.w3.org/1999/xlink" x="0px" y="0px"
	 viewBox="0 0 1000 365.3" style="enable-background:new 0 0 1000 365.3;" xml:space="preserve">
<style type="text/css">
	.st0{fill:#95D2EF;}
	.st1{fill:#FCDE8A;}
	.st2{fill:#1E1E1C;}
	.st3{fill:#1E1E1C;stroke:#1E1E1C;stroke-width:0.25;stroke-miterlimit:10;}
	.st4{fill:#1E1E1C;stroke:#1E1E1C;stroke-width:0.15;stroke-miterlimit:10;}
	.st5{fill:#FFFFFF;}
	.st6{stroke:#1E1E1C;stroke-miterlimit:10;}
	.st7{fill:none;stroke:#1E1E1C;stroke-width:3;stroke-linecap:round;stroke-linejoin:round;stroke-miterlimit:10;}
</style>
<g id="Calque_2">
</g>
<g id="Calque_1">
	<path d="M431.3,128.2c-0.2-13.6-0.4-27.3-0.7-40.9c0-2.4-3.8-2.4-3.8,0c0.5,24.3,0.8,48.5,0.9,72.8c0,0.5,0,1,0,1.5
		c-1.4,0.1-2.8,0.1-4.1,0.2c-0.2-19-0.4-37.9-0.6-56.9c-0.1-5.4-0.1-10.8-0.2-16.2c0-2.4-3.8-2.4-3.8,0c0.2,19.3,0.4,38.6,0.6,57.9
		c0.1,5.2,0.1,10.4,0.2,15.6c-1.4,0.4-2.6,1.3-3.3,2.5c-0.2,0-0.3-0.1-0.5-0.1c-19.3-0.3-38.5-0.1-57.8,0.7c-5,0.2-10,0.4-14.9,0.7
		c-0.3-0.3-0.7-0.5-1.2-0.6c-1-0.2-2-0.2-3-0.3c-0.6-0.1-1.2-0.1-1.8-0.2c0-0.1,0-0.3,0-0.4c0.4-3.8,0.7-8.3-2.2-11.2
		c-1.7-1.7-4-2.4-6.3-2.9c-2.6-0.6-5.3-1-8-1.2c-1.6-0.1-3.2-0.2-4.9-0.2c0,0,0-0.1,0-0.1c-0.5-4.9-1.2-10-3.7-14.3
		c-2.8-4.7-7.6-7.2-13-7.4c-6-0.3-11.7,2-17.5,3.4c-5.7,1.3-11.9,1.9-17.5-0.1c-4.6-1.7-8.6-5.2-9.9-10c-1.4-5.4,0.3-11.2,2.3-16.1
		c4-9.7,9.8-18.7,16.7-26.5c7.7-8.8,16.9-16.2,27.1-21.8c2.1-1.2,0.2-4.4-1.9-3.2C280,62.9,264.6,79,255.4,98.3
		c-4.7,9.7-8.8,22.8,0.5,31.3c4,3.6,9.3,5.5,14.6,5.8c6.4,0.4,12.6-1.3,18.8-3c5.7-1.6,13-3.1,17.8,1.4c4,3.7,4.7,9.9,5.3,15
		c0,0.1,0,0.2,0.1,0.3c-2.7,0.2-5.3,0.6-7.9,1.2c-0.7,0.2-1.1,0.6-1.3,1.2c-0.9,0-1.8,0.6-1.8,1.8c0,3.5,0.2,6.9,0.3,10.4
		c-0.7,0-1.4,0-2.1-0.1c-0.9,0-1.9-0.1-2.7,0.3c-0.3-0.2-0.6-0.3-1-0.4c-12.9-0.8-25.8-0.9-38.6-0.2c-12.8,0.7-25.5,1.9-38.2,3
		c-7.2,0.6-14.4,1.3-21.7,2c-0.8-1.4-2.3-2.3-4.1-2.7c-0.3,0-0.6-0.1-0.8-0.1c1.9-17.2,2.9-34.5,2.9-51.8c0-5,0-10.1-0.2-15.1
		c-0.1-2.4-3.8-2.4-3.8,0c0.4,17.6,0,35.2-1.4,52.7c-0.4,4.7-0.8,9.3-1.3,14c-0.8,0-1.6,0.1-2.4,0.2c0.1-10.1,0.3-20.2,0.7-30.3
		c0.5-12.5,1.2-25.1,2.3-37.6c0.2-2.4-3.5-2.4-3.8,0c-1.9,22.2-2.8,44.5-3,66.8c-0.2,22.1,0.2,44.3,0.9,66.4
		c0.4,12.6,0.8,25.1,1.3,37.7c0.1,2.4,3.8,2.4,3.8,0c-0.8-22.3-1.6-44.6-1.9-66.9c-0.1-6-0.2-11.9-0.2-17.9c0.8,0.1,1.7,0.1,2.5,0
		c0.5,22.2,1.3,44.5,2,66.7c0.2,6.3,0.4,12.6,0.6,18.8c0.1,2.4,3.8,2.4,3.8,0c-0.7-22.4-1.5-44.8-2.1-67.2
		c-0.2-6.3-0.3-12.6-0.5-18.9c1.1-0.2,2.2-0.5,3-1.2c0.9-0.8,1.3-1.9,1.5-3c25.9-2.4,51.9-4.4,77.9-5.8c6.9-0.4,14-0.6,20.9,0.3
		c0,0.6,0,1.3,0,1.9c0,1.4,0.5,2.8,2,3.2c1,0.3,2.3,0.1,3.3,0.1c0.5,0,1.1,0,1.6,0c0.2,1.6,0.3,3.3,0.5,4.9c0.3,2.4,0.4,4.8,1.1,7.1
		c0.5,1.9,1.7,2.8,3.2,3.3c0.1,0.4,0.2,0.7,0.5,1c1.6,1.4,3.2,2.8,4.4,4.6c1.1,1.6,2,3.1,3.7,4.1c0.1,2.9,0.2,5.9,0.3,8.8
		c0.1,1.3,0.2,2.7,0.1,4c-0.1,1.4-0.5,1.6-1.9,1.7c-6.4,0.4-12.8-0.1-19.2,0.1c-12.7,0.5-25.3,3.4-38.1,2.8c-7-0.3-14-1.6-21-0.1
		c-0.8,0.2-1.4,1-1.4,1.8c0.1,3.8,2.5,7.1,5.8,9c3.9,2.2,8.5,2.2,12.8,2.1c9.7-0.3,19.4-0.6,29.1-0.9c19.5-0.6,39-1.3,58.5-2
		c11-0.4,21.9-0.6,32.9-0.5c2.4,0,2.4-3.7,0-3.8c-18.8-0.2-37.6,0.7-56.3,1.3c-18.7,0.6-37.3,1.3-56,1.8c-2.6,0.1-5.1,0.2-7.7,0.2
		c-2.4,0.1-4.9,0.2-7.2-0.2c-3.2-0.5-6.8-2.4-7.8-5.6c5.9-0.9,12,0.2,17.9,0.5c6.7,0.4,13.4-0.2,20.1-1c6.6-0.7,13.2-1.6,19.9-1.8
		c3.4-0.1,6.8,0,10.2,0c1.5,0,3.1,0,4.6,0c1.6,0,3.3,0,4.8-0.3c3.5-0.9,3.8-4.3,3.6-7.3c-0.1-3.3-0.3-6.6-0.4-10c0.2,0,0.3,0,0.5,0
		c0.6-0.1,1.1-0.2,1.6-0.5c0.8-0.3,1.1-0.8,1.4-1.6c0.7-1.9,1.6-3.7,2.6-5.5c2.9,0.1,6-0.5,7.6-3.1c1.2-2,1.2-4.5,1.4-6.7
		c0.3-2.6,0.5-5.1,0.8-7.7c0-0.4,0.1-0.7,0.1-1.1c0.3,0.1,0.6,0.1,0.9,0c0.9-0.2,1.9-0.4,2.8-0.6c1-0.2,2-0.3,2.8-1.1
		c0.4-0.4,0.6-0.8,0.7-1.3c19.2-0.2,38.4-0.4,57.7-0.6c4.9-0.1,9.8-0.1,14.8-0.2c0,1,0.1,2,0.6,2.9c0.6,1.2,1.9,1.8,3.2,1.8
		c0.3,0,0.6,0,0.9,0c-0.1,23.5-0.1,46.9-0.2,70.4c0,6.7,0,13.5-0.1,20.2c0,2.4,3.7,2.4,3.8,0c0.1-23.8,0.1-47.7,0.2-71.5
		c0-6.4,0-12.8,0.1-19.3c1.2-0.1,2.5-0.1,3.7-0.2c0,17.8-0.1,35.6-0.3,53.5c-0.2,13.6-0.4,27.3-0.7,40.9c0,2.4,3.7,2.4,3.8,0
		c0.5-24.3,0.8-48.5,0.9-72.8C431.7,176.4,431.6,152.3,431.3,128.2z M194.1,173.9c-0.2,1.3-0.3,2.7-0.6,4c0,0.3-0.1,0.5-0.2,0.8
		c0,0.1-0.1,0.3-0.1,0.4c0-0.1,0-0.1-0.1,0.1c0,0-0.2,0.1-0.2,0.2c0.1,0-0.5,0.1-0.6,0.1c-2,0.4-4,0.8-6,0.5c0-3.5,0-7,0-10.6
		c0.9-0.2,1.8-0.3,2.7-0.3c0.7,0,1.4,0,2.1,0c0.3,0,0.7,0.1,1,0.1c0,0,0.5,0.1,0.6,0.1c0.6,0.1,0.8,0.2,1.2,0.5
		c-0.2-0.2,0.2,0.2,0.2,0.2c0.1,0.1,0.2,0.3,0.2,0.5c0.1,0.4,0,1.1-0.1,1.6C194.3,172.7,194.2,173.3,194.1,173.9z M278.4,169.3
		c-6.7,0.3-13.3,0.7-20,1.2c-13.3,0.8-26.6,1.8-39.9,2.9c-6.9,0.6-13.9,1.2-20.8,1.9c0-0.1,0-0.2,0-0.3c0.1-0.9,0.3-1.9,0.4-2.9
		c12.6-1.2,25.3-2.3,37.9-3.4c12.7-1.1,25.4-2,38.2-2.1c7.2,0,14.4,0.2,21.6,0.7c0,0.4,0,0.8,0,1.2c0,0.4,0,0.8,0,1.2
		C290.1,169,284.3,169,278.4,169.3z M299.6,175.8c0,0,0-0.1,0-0.1C299.6,175.8,299.6,175.8,299.6,175.8z M300.4,175
		c-0.3,0-0.5,0-0.8,0c0-0.2,0-0.4,0-0.6c0-1.4,0-2.8,0-4.2c0-0.7,0-1.4,0-2.2c0-0.2,0-0.5,0-0.7c0.3,0,0.6,0,0.9,0c0.5,0,1,0,1.5,0
		c0.1,2.5,0.3,5.1,0.5,7.6C301.8,174.9,301.1,174.9,300.4,175z M313.8,195.4c2.7,0.5,5.5,0.9,8.2,1.2c-0.7,1.4-1.3,2.8-1.9,4.2
		c-0.6,0.2-1.3,0.1-1.9-0.2c-0.9-0.5-1.5-1.4-2-2.3C315.5,197.3,314.7,196.3,313.8,195.4z M333.9,162.6c-0.3,4.2-0.9,8.5-1.3,12.7
		c-0.5,4.4-0.9,8.9-1.4,13.3c-0.2,1.5-0.2,3.3-1.7,4.1c-1.2,0.6-2.7,0.6-4.1,0.5c-4.2-0.3-8.4-1.1-12.5-1.8c-1-0.2-2.1-0.4-3.1-0.6
		c-1-0.2-1.5-0.2-1.8-1.2c-0.5-2-0.7-4.1-0.9-6.2c-0.2-2-0.4-4-0.6-6c0.1-0.2,0.1-0.4,0.1-0.6c0-0.3-0.1-0.6-0.2-0.8
		c-0.6-7.3-1-14.7-1.1-22.1c0.1,0,0.2,0,0.3,0c4.2-0.9,8.4-1.3,12.7-1.2c4,0.1,8.4,0.6,12.2,1.9C334,155.9,334.2,159.3,333.9,162.6z
		 M339.8,173.3c0,0.2,0,0.4-0.1,0.6c0,0,0,0,0,0.1c0,0,0,0,0,0c0,0,0,0,0,0c-0.1,0-0.3,0.1-0.4,0.1c-0.4,0.1-0.8,0.1-1.1,0.2
		c-0.6,0.1-1.2,0.2-1.8,0.3c0.2-2,0.4-4,0.6-6.1c1.1,0.1,2.2,0.2,3.3,0.3c0,0,0,0.1,0,0.1c-0.1,0.7-0.2,1.4-0.3,2.1
		C340,171.9,339.9,172.6,339.8,173.3z M359.2,171.5c-5.1,0.1-10.2,0.1-15.4,0.2c0-0.2,0.1-0.5,0.1-0.7c0-0.4,0.1-0.8,0.2-1.2
		c18.5-1,37.1-1.5,55.7-1.5c5.3,0,10.7,0.1,16,0.1c-0.1,0.9-0.1,1.7-0.1,2.6C396.8,171.1,378,171.3,359.2,171.5z M419.4,175.6
		C419.4,175.6,419.4,175.6,419.4,175.6C419.3,175.6,419.3,175.6,419.4,175.6z M419.5,175.6c0-0.1,0-0.2-0.1-0.2c0,0,0-0.4-0.1-0.5
		c0-1.4,0-2.7,0-4.1c0-0.6,0-1.3,0-1.9c0-0.5,0-1.1,0.1-1.4c0.1-0.2,0.1-0.5,0.2-0.7c0,0,0.2-0.3,0.2-0.3c0.1-0.1,0.1-0.2,0.2-0.2
		c0,0,0.1,0,0.2-0.1c0.2-0.1,0.3-0.2,0.4-0.2c1-0.3,2-0.3,3.2-0.4c1.3-0.1,2.5-0.1,3.8-0.2c0,3.3,0,6.6,0,9.9
		c-2.6,0.2-5.3,0.3-7.9,0.5C419.8,175.6,419.7,175.6,419.5,175.6z"/>
	<g>
		<g>
			<path d="M234.6,231.8c2.4,0,2.4-3.8,0-3.8C232.2,228,232.2,231.8,234.6,231.8L234.6,231.8z"/>
		</g>
	</g>
	<path d="M232.4,230.3c3.7,6.8,12.2,8,19.2,8.4c10.2,0.6,20.3,0.5,30.5,0.1c20.4-0.9,40.7-3.1,61.1-3.4c11.6-0.1,23.2,0.3,34.8,1.3
		c2.4,0.2,2.4-3.5,0-3.8c-20-1.7-39.9-1.6-59.9-0.3c-19.8,1.3-39.7,3.2-59.6,2.6c-4.6-0.1-9.3-0.2-13.8-1.2
		c-3.6-0.8-7.2-2.3-9.1-5.7C234.5,226.3,231.3,228.2,232.4,230.3L232.4,230.3z"/>
	<path d="M230.3,233.7c1.5,3.6,3.5,7.5,7.4,9c2.2,0.9,4.7,0.7,7.1,0.8c2.6,0,5.3,0,7.9,0c10.4,0,20.9,0,31.3-0.3
		c10.6-0.3,21.1-0.8,31.7-1.8c5.1-0.5,10.2-1,15.3-1.3c5.3-0.3,10.6-0.3,15.9-0.3c11.9,0.1,23.7,0.5,35.6,1.2c2.4,0.1,2.4-3.6,0-3.8
		c-20.4-1.1-41-2-61.4-0.1c-20.4,1.9-40.8,2.6-61.4,2.6c-5.8,0-11.5,0.1-17.3-0.1c-2.3,0-4.2-0.5-5.8-2.2c-1.4-1.6-2.3-3.7-3.1-5.7
		c-0.4-0.9-1.8-1.1-2.6-0.7C230,231.7,229.9,232.8,230.3,233.7L230.3,233.7z"/>
	<path d="M226.5,239.3c3,2.3,4.7,6,8,8c1.9,1.2,4,1.6,6.2,1.6c2.6,0,5.2-0.1,7.8-0.2c10.9-0.3,21.7-0.8,32.6-1.3
		c21.6-0.9,43.1-2,64.7-2.3c12.2-0.2,24.4-0.1,36.6,0.3c2.4,0.1,2.4-3.7,0-3.8c-21.4-0.8-42.8-0.4-64.2,0.4
		c-21.3,0.8-42.6,1.9-64,2.6c-3,0.1-6,0.2-9,0.3c-2.5,0.1-5.6,0.6-7.9-0.4c-1.8-0.8-3.1-2.4-4.4-3.9c-1.4-1.7-2.8-3.3-4.6-4.7
		c-0.8-0.6-2.1-0.1-2.6,0.7C225.2,237.7,225.7,238.7,226.5,239.3L226.5,239.3z"/>
	<path d="M224.4,242.3c2.5,3.5,5.2,7.2,9.1,9.3c4.4,2.4,9.8,1.9,14.7,2c11,0.1,22,0.1,33.1-0.1c22-0.4,44.1-1.3,66.1-2.2
		c12.4-0.5,24.8-1,37.1-1.5c2.4-0.1,2.4-3.9,0-3.8c-21.5,0.9-43,1.8-64.5,2.6c-21.5,0.8-43.1,1.4-64.6,1.3c-3,0-6,0-8.9-0.1
		c-2.7,0-5.6,0.1-8.3-0.4c-4.8-1-7.8-5.2-10.5-9C226.3,238.5,223,240.3,224.4,242.3L224.4,242.3z"/>
	<path d="M222.2,246.4c3.7,2.3,6.2,6.1,9.7,8.7c4.1,3,9.2,3.4,14.1,3.7c11.2,0.7,22.5-0.8,33.6-1.4c11.3-0.6,22.6-1,33.9-0.9
		c11.2,0.1,22.4,1,33.6,0.2c12.4-0.9,24.9-2.6,37.3-1.2c1,0.1,1.9-0.9,1.9-1.9c0-1.1-0.9-1.8-1.9-1.9c-11-1.3-22,0-32.9,0.8
		c-5.4,0.4-10.9,0.8-16.3,0.7c-5.6,0-11.1-0.4-16.7-0.5c-11.1-0.3-22.3-0.1-33.4,0.5c-11.1,0.5-22.3,1.8-33.4,1.8
		c-3.1,0-6.2-0.1-9.3-0.5c-2.5-0.3-5.1-0.7-7.3-2.1c-4.2-2.5-6.8-6.9-10.9-9.6C222,241.9,220.2,245.1,222.2,246.4L222.2,246.4z"/>
	<path d="M219.6,249c3.5,4.1,7,8.1,11.7,10.8c4.2,2.5,8.9,3.9,13.7,4.6c10.7,1.6,21.6,0.6,32.4,0.3c24.3-0.8,48.6-1.8,72.8-3
		c13.7-0.7,27.3-1.4,41-2.1c2.4-0.1,2.4-3.9,0-3.7c-23.9,1.3-47.9,2.5-71.8,3.5c-11.9,0.5-23.9,1-35.8,1.4
		c-6.1,0.2-12.1,0.4-18.2,0.6c-5,0.2-9.9,0.3-14.9,0c-5.2-0.4-10.5-1.3-15.3-3.6c-5.4-2.6-9.2-6.9-13-11.3
		C220.7,244.5,218,247.2,219.6,249L219.6,249z"/>
	<path d="M216.7,251.9c4.3,4.2,8.4,8.5,12.5,13c1.7,1.9,3.5,3.7,6,4.6c2.4,1,5.1,1,7.7,1c12.3-0.1,24.6-0.3,36.8-0.4
		c24.5-0.3,49.1-0.4,73.6-1.9c13.9-0.8,27.8-2.2,41.7-3c2.4-0.1,2.4-3.9,0-3.8c-12.1,0.7-24.1,1.9-36.2,2.7
		c-12.2,0.8-24.4,1.3-36.5,1.6c-24.2,0.6-48.3,0.7-72.5,0.9c-3.2,0-6.4,0.2-9.6,0c-3-0.2-5.1-1.2-7.2-3.3
		c-4.5-4.7-8.9-9.6-13.6-14.2C217.6,247.6,215,250.2,216.7,251.9L216.7,251.9z"/>
	<path d="M213.1,252.9c0,0.1,0,0.1,0,0.2c0,0.3,0,0.5,0.2,0.7c0.1,0.2,0.2,0.4,0.4,0.6c0.2,0.2,0.4,0.3,0.6,0.4
		c0.2,0.1,0.5,0.2,0.7,0.2c0.2,0,0.3,0,0.5-0.1c0.3-0.1,0.6-0.2,0.8-0.5c0.1-0.1,0.2-0.3,0.3-0.4c0.2-0.3,0.3-0.6,0.3-0.9
		c0-0.1,0-0.1,0-0.2c0-0.3,0-0.5-0.2-0.7c-0.1-0.2-0.2-0.4-0.4-0.6c-0.2-0.2-0.4-0.3-0.6-0.4c-0.2-0.1-0.5-0.2-0.7-0.2
		c-0.2,0-0.3,0-0.5,0.1c-0.3,0.1-0.6,0.2-0.8,0.5c-0.1,0.1-0.2,0.3-0.3,0.4C213.2,252.2,213.1,252.6,213.1,252.9L213.1,252.9z"/>
	<path d="M213,254.3c3.4,5.1,7.2,9.9,11.3,14.5c1.8,2,3.7,4.1,6.2,5.2c2.9,1.3,6.1,1.2,9.1,1.3c12.7,0.5,25.5,1.1,38.2,1.2
		c12.9,0.1,25.9-0.4,38.8-0.8c13.1-0.4,26.2-1,39.3-1.7c14.6-0.7,29.2-1.6,43.8-2.6c2.4-0.2,2.4-3.9,0-3.8
		c-25.5,1.8-51,3.1-76.6,4.1c-12.8,0.5-25.5,0.9-38.3,1c-12.5,0.1-25-0.4-37.6-0.9c-3.5-0.1-7-0.2-10.5-0.4
		c-1.6-0.1-3.3-0.2-4.7-0.9c-1.3-0.6-2.4-1.5-3.3-2.5c-4.7-4.7-8.7-10.1-12.5-15.6C214.9,250.5,211.7,252.3,213,254.3L213,254.3z"/>
	<path d="M209.3,256.4c4.1,5.4,8.3,10.8,12.4,16.2c1.8,2.4,3.5,4.7,6.4,5.7c2.8,1,6,1,8.9,1.2c13.6,1.1,27.3,1.5,40.9,1.5
		c27.1,0,54.3-1,81.4-2.3c15.3-0.7,30.6-1.7,45.9-2.7c2.4-0.2,2.4-3.9,0-3.8c-26.6,1.8-53.2,3.2-79.9,4.1
		c-26.6,0.9-53.3,1.7-79.9,0.1c-3.8-0.2-7.6-0.5-11.4-0.9c-1.5-0.1-3.1-0.2-4.5-0.7c-1.5-0.5-2.5-1.5-3.4-2.6
		c-4.7-5.7-9.1-11.8-13.6-17.7c-0.6-0.8-1.6-1.2-2.6-0.7C209.2,254.3,208.7,255.6,209.3,256.4L209.3,256.4z"/>
	<path d="M207.2,259.6c1.9,3.1,3.7,6.2,5.6,9.3c1.7,2.8,3.3,5.6,5.3,8.2c3.9,4.9,9.3,7.2,15.4,8c6.3,0.8,12.8,0.4,19.1,0.4
		c7.3,0,14.5-0.1,21.8-0.1c7.2,0,14.3,0,21.5-0.3c7-0.3,13.8-1.4,20.8-2c14.3-1.2,28.4,1.9,42.7,1.8c15.7-0.1,31.2-4.1,47-2.9
		c2.4,0.2,2.4-3.6,0-3.8c-13.8-1.1-27.5,1.9-41.2,2.7c-14,0.8-27.8-2-41.7-2c-7,0-13.9,1.2-20.8,1.9c-6.9,0.7-13.9,0.7-20.9,0.7
		c-13.9,0.1-27.8,0.3-41.7,0.2c-6.1-0.1-12.9-0.6-17.5-5.2c-2.4-2.4-4.1-5.5-5.9-8.5c-2.1-3.4-4.2-6.9-6.2-10.3
		C209.2,255.6,206,257.5,207.2,259.6L207.2,259.6z"/>
	<path d="M819.8,275.8c-15.7-26.3-30-53.5-43.2-81.1c-13.2-27.6-25.4-55.8-36.6-84.3c-5.1-13-9.3-27.2-21.3-35.6
		c-0.8-0.6-1.7-0.3-2.2,0.3c-0.1,0.1-0.3,0.2-0.4,0.4c-14.9,22.4-29.2,45.1-43.1,68.1c-13.8,22.9-27.1,46-39.9,69.5
		c-3.5,6.5-7,13-10.6,19.5c-3.5,6.3-7.1,12.5-11.5,18.2c-0.2,0.3-0.3,0.6-0.4,0.8c-1.6,0.7-1.3,3.6,0.8,3.6c0.8,0,1.9,0.9,2.5,1.3
		c0.9,0.5,1.7,1,2.6,1.4c1.9,1,3.8,2.1,5.6,3.1c3.8,2.1,7.5,4.2,11.3,6.3c3.3,1.9,6.6,3.6,9.7,5.9c2.6,1.9,5.4,3.6,8.8,3.6
		c21.6,0.2,43.3,0.5,64.9,0.7c21.6,0.2,43.1,0.5,64.7,0.7c12.2,0.1,24.4,0.3,36.6,0.4c0.8,0,1.3-0.4,1.6-1
		C820.1,277.2,820.2,276.5,819.8,275.8z M633.6,263.1c-3.8-2.1-7.5-4.2-11.3-6.3c-1.9-1-3.8-2.1-5.6-3.1c-0.7-0.4-1.5-0.9-2.2-1.3
		c7.6-10,13.2-21.3,19.2-32.3c6.4-11.8,12.9-23.6,19.6-35.2c13.3-23.3,27.1-46.4,41.5-69.1c5.6-8.9,11.3-17.8,17.1-26.6
		c-9.3,21.5-18.7,42.9-27.2,64.6c-4.9,12.5-9.4,25.3-13.1,38.2c-3.6,12.7-6.2,25.6-8.8,38.5c-2.9,14.4-6.1,28.9-11.7,42.5
		c0,0,0,0,0,0c-2.6-0.5-4.8-2.4-6.9-3.9C640.6,266.7,637,265,633.6,263.1z M753.1,274.2c-21.5-0.2-43.1-0.5-64.6-0.7
		c-11.3-0.1-22.5-0.2-33.8-0.4c9.7-24.1,12.1-50.2,18.8-75.1c7-25.9,17.3-50.8,27.8-75.4c6-14.1,12.1-28.2,18.2-42.3
		c8.3,7.4,12,18.4,15.9,28.6c5.3,14,11.1,27.8,17,41.6c12,28,25,55.6,39.2,82.6c7.4,14.1,15.2,28.1,23.3,41.8
		C794.3,274.6,773.7,274.4,753.1,274.2z"/>
	<path d="M570.1,175.6c-0.6-0.6-1.1-1.2-1.7-1.7c-1.2-1.2-2.5-2.3-4-3.1c-0.7-0.4-1.5-0.8-2.3-1c-0.8-0.3-1.8-0.6-2.7-0.2
		c-0.7,0.3-1.1,0.9-1.2,1.5c-0.1,0.2-0.2,0.4-0.2,0.6c-0.1,1.5-0.2,3-0.3,4.5c-17.5-0.2-35.1-0.5-52.6-0.9
		c-5.2-0.1-10.5-0.2-15.7-0.4c-1.6,0-1.6,2.5,0,2.5c18.4,0.5,36.7,0.8,55.1,1.1c4.3,0.1,8.7,0.1,13,0.2c-0.1,0.6-0.1,1.3-0.1,1.9
		c0,0.7,0.1,1.5,0.4,2.2c1.1,1.9,3.3,1,4.9,0.5c1.7-0.5,3.3-1,4.8-1.8c0.7-0.4,1.4-0.8,2.1-1.3c0.7-0.5,1.5-1.1,1.7-2
		C571.5,177,570.8,176.3,570.1,175.6z"/>
</g>
</svg>
