<?xml version="1.0" encoding="utf-8"?>
<!-- Generator: Adobe Illustrator 24.0.1, SVG Export Plug-In . SVG Version: 6.00 Build 0)  -->
<svg version="1.1" xmlns="http://www.w3.org/2000/svg" xmlns:xlink="http://www.w3.org/1999/xlink" x="0px" y="0px"
	 viewBox="0 0 1000 365.3" style="enable-background:new 0 0 1000 365.3;" xml:space="preserve">
<style type="text/css">
	.st0{fill:#95D2EF;}
	.st1{fill:#FCDE8A;}
	.st2{fill:#1E1E1C;}
	.st3{fill:#1E1E1C;stroke:#1E1E1C;stroke-width:0.25;stroke-miterlimit:10;}
	.st4{fill:#1E1E1C;stroke:#1E1E1C;stroke-width:0.15;stroke-miterlimit:10;}
	.st5{fill:#FFFFFF;}
	.st6{stroke:#1E1E1C;stroke-miterlimit:10;}
	.st7{fill:none;stroke:#1E1E1C;stroke-width:3;stroke-linecap:round;stroke-linejoin:round;stroke-miterlimit:10;}
</style>
<g id="Calque_2">
</g>
<g id="Calque_1">
	<path d="M603.6,84.8c-17-1.7-34.1-2.3-51.2-1.8c-0.2-3.4-0.4-6.7-0.6-10.1c0.2,0.1,0.4,0.1,0.6,0.1c16.6-0.7,33.1-0.5,49.7,0.5
		c2.4,0.1,2.4-3.6,0-3.8c-16.5-1-33.1-1.2-49.7-0.5c-0.3,0-0.6,0.1-0.8,0.2c-0.2-3.5-0.4-7-0.6-10.5c0-0.3-0.1-0.6-0.3-0.9
		c-0.3-0.6-0.8-1-1.6-1c-14.1,0-28.2,0.4-42.3,1.3c-4.3,0.3-8.6,0.6-12.8,0.9c-0.2,0-0.4,0.1-0.5,0.1c-0.8,0.1-1.4,0.7-1.4,1.8
		c0.2,3.1,0.4,6.1,0.6,9.2c-0.2-0.1-0.4-0.1-0.7-0.1c-14.2,0.5-28.4,0.9-42.6,1.4c-14.1,0.5-28.1,1.1-42.2,0.6
		c-7.9-0.3-15.9-0.9-23.7-1.8c-1-0.1-1.9,0.9-1.9,1.9c0,1.1,0.9,1.8,1.9,1.9c14,1.6,28.2,2.2,42.3,2c14.1-0.3,28.2-0.9,42.4-1.3
		c8-0.3,16-0.5,23.9-0.8c0.4,0,0.7-0.1,0.9-0.3c0.2,3.4,0.5,6.8,0.7,10.2c-0.3-0.3-0.7-0.5-1.2-0.4c-28.4,0.7-56.8,1.4-85.2,2.1
		c-8.1,0.2-16.1,0.4-24.2,0.6c-2.4,0.1-2.4,3.8,0,3.8c28.4-0.7,56.8-1.4,85.2-2.1c8-0.2,16.1-0.4,24.1-0.6c0.7,0,1.1-0.3,1.4-0.7
		c0.3,3.7,0.6,7.5,0.9,11.2c0.5,5.6,1.9,10.8,5,15.5c3.1,4.7,6.9,9,10.4,13.4c1.6,2,3.1,4.3,5.3,5.8c0.2,0.1,0.3,0.2,0.5,0.3
		c-0.6,11,0.5,22,1.1,33c0.3,5.6,0.5,11.2,0.3,16.8c-0.2,5.4-1.5,11-0.4,16.3c0.5,2.5,1.6,5,3.5,6.8c1.6,1.6,4,2.6,5.1,4.7
		c0.5,1,2.2,1.3,2.9,0.4c0.8-0.9,1.6-1.9,2.3-2.8c0.8-0.9,1.7-1.8,2.2-2.9c0.5-1,0.6-2.2,0.6-3.3c0-1.4,0-2.8,0-4.2
		c0-5.3,0.2-10.7,0.4-16c0.4-10.7,1.2-21.5,1.3-32.3c0.1-6.1-0.1-12.1-0.5-18.2c0-0.1,0-0.1,0-0.2c1.1-0.9,2.1-1.9,3.1-2.9
		c2.1-2.1,4.3-4.1,6.4-6.2c2-2,4.2-3.8,6-6c1.8-2,3-4.3,3.4-7c0.4-2.8,0-5.6-0.1-8.4c-0.3-4.5-0.5-9-0.8-13.5
		c17-0.5,34.1,0.1,51,1.8c1,0.1,1.9-0.9,1.9-1.9C605.4,85.6,604.6,84.9,603.6,84.8z M520.7,146.4c1.8-0.3,3.5-1.6,5-2.6
		c2.1-1.5,3.9-3.2,5.6-5.1c0.1,2.1,0.1,4.2,0.1,6.3c-0.1,0-0.2,0.1-0.3,0.2c-2.2,1.5-3.7,3.8-5.6,5.4c-0.8,0.6-2,1.1-2.9,1.2
		c-0.6,0-1.2,0-1.6-0.1c-0.3-0.1-0.5-0.1-0.8-0.2c0-0.1-0.1-0.3-0.2-0.4c0-0.1,0-0.2,0-0.4c-0.1-1.4-0.1-2.8-0.2-4.2
		C520,146.4,520.4,146.4,520.7,146.4z M525,198.4c-0.4,0.2-0.8,0.5-1.2,0.7c0,0-0.2,0.1-0.3,0.1c-0.1,0-0.3,0.1-0.4,0.1
		c0,0,0,0-0.1,0c0,0,0,0,0,0c-0.2-1-1.4-1.6-2.3-1.3c0,0-0.1,0-0.1,0.1c-0.2-1-0.3-2.1-0.4-3.1c1.8,0.4,3.7-0.1,5.4-0.9
		c1.5-0.7,2.9-1.5,4.2-2.5c0,0.4,0,0.9,0,1.3c0,0.8,0,1.6,0,2.4C528.2,196.4,526.6,197.4,525,198.4z M520.8,191.3
		c-0.2,0-0.3-0.2-0.5-0.3c0.2-1.8,0.4-3.7,0.6-5.5c1.4,0.3,3.1,0.1,4.5-0.1c1.5-0.2,3-0.8,4.2-1.7c0.2-0.1,0.3-0.3,0.4-0.4
		c0,1.2-0.1,2.4-0.1,3.5c-0.1,0.1-0.2,0.1-0.3,0.2c-1.5,1.3-3.2,2.5-5.2,3.4c-0.8,0.4-1.8,0.8-2.6,0.9c-0.2,0-0.4,0-0.6,0
		C521.3,191.4,520.9,191.3,520.8,191.3z M521.5,181.8c0,0,0,0.1,0,0.1C521.6,181.9,521.5,181.9,521.5,181.8z M530.3,178.1
		c-0.7,0.5-1.3,1-1.9,1.7c-0.2,0.2-0.4,0.4-0.6,0.6c-0.1,0.1-0.2,0.2-0.3,0.3c0,0-0.1,0.1-0.2,0.1c-0.2,0.2-0.5,0.3-0.7,0.4
		c0,0-0.2,0.1-0.3,0.1c-0.1,0-0.3,0.1-0.3,0.1c-0.5,0.2-1.1,0.3-1.6,0.4c0,0-0.1,0-0.1,0c0,0,0,0-0.1,0c-0.2,0-0.3,0-0.5,0
		c-0.3,0-0.6,0-0.9,0c-0.3,0-0.6,0-0.9,0c0,0-0.1,0-0.1,0c0.1-0.6-0.1-1.4-0.6-1.8c0-1.2,0-2.4,0-3.6c1.6,0.4,3.2,0,4.6-0.7
		c1.7-0.8,3.2-1.9,4.7-3.1C530.4,174.4,530.3,176.3,530.3,178.1z M521.9,172.8C522,172.8,522,172.8,521.9,172.8L521.9,172.8z
		 M530.8,167.3c0,0-0.1,0.1-0.1,0.1c-1.8,1.8-3.5,3.2-5.6,4.5c-1,0.6-1.8,1-2.7,1c0,0,0,0,0,0c0,0,0,0-0.1,0c-0.1,0-0.2-0.1-0.3-0.1
		c0,0,0,0,0,0c-0.1,0-0.2-0.1-0.2-0.1c0,0,0,0-0.1-0.1c0,0,0,0-0.1-0.1c0,0,0,0,0,0c0,0,0,0,0,0c0-0.1-0.1-0.2-0.1-0.3
		c0-0.3-0.2-0.5-0.3-0.7c-0.1-1.9-0.2-3.8-0.3-5.7c1.5,0.4,3.1,0,4.6-0.6c1.5-0.7,2.8-1.6,4.1-2.5c0.5-0.4,1-0.7,1.5-1.1
		C531,163.4,530.9,165.3,530.8,167.3z M531.2,156.6c-2.1,1.7-4.2,3.2-6.5,4.6c-0.9,0.6-1.8,1-2.8,0.9c0,0,0,0,0,0c0,0,0,0,0,0
		c-0.1,0-0.2-0.1-0.4-0.1c0,0,0,0-0.1,0c0,0,0,0,0,0c-0.1-0.1-0.2-0.1-0.3-0.2c0,0,0,0,0,0c0,0,0,0,0,0c0,0-0.1-0.1-0.2-0.2
		c0-0.1-0.1-0.2-0.1-0.3c-0.1-0.3-0.2-0.5-0.3-0.7c-0.1-1.8-0.2-3.6-0.3-5.4c1.7,0.3,3.5,0.2,5.1-0.4c1.7-0.7,3.1-1.8,4.3-3.1
		c0.6-0.6,1.2-1.3,1.8-2C531.3,152,531.3,154.3,531.2,156.6z M528.5,204.6c-0.5,0.6-0.9,1.1-1.4,1.7c-0.9-0.8-1.9-1.6-2.8-2.3
		c-0.4-0.3-0.8-0.6-1.1-1c0.9,0,1.8-0.4,2.6-0.8c1-0.6,2-1.2,3-1.9c0.3-0.2,0.7-0.4,1-0.6c0,0.7,0,1.4,0,2
		C529.8,203.1,529.4,203.6,528.5,204.6z M531,133.3c-0.3,0.2-0.5,0.4-0.7,0.6c-1.6,2.2-3.5,4.2-5.6,5.9c-1,0.8-2.1,1.5-3.2,2.2
		c-0.5,0.3-1.1,0.6-1.5,0.7c0,0,0,0-0.1,0c0-0.3-0.1-0.5-0.3-0.7c0-2.8,0-5.6,0.1-8.5c1.1-0.1,2.2-0.3,3.3-0.5
		c2.6-0.6,5.3,0.2,7.9-0.4c0,0,0.1,0,0.1,0C531,132.8,531,133.1,531,133.3z M549.5,109.6c-0.7,2.2-2.4,3.9-4,5.5c-2,2-4.1,4-6.2,6
		c-2,1.9-4,3.9-6,5.8c-0.7,0.7-1.5,1.5-2.5,1.9c-1.2,0.5-2.6,0.3-3.8,0.3c-1.3-0.1-2.5-0.1-3.8,0.1c-1.3,0.2-2.5,0.8-3.8,0.7
		c-2.1-0.1-3.5-2.3-4.7-3.8c-3.4-4.2-6.9-8.4-10.1-12.7c-1.5-2-2.8-4.1-3.8-6.3c-1.1-2.4-1.6-5.1-1.9-7.7c-0.7-6.2-1-12.5-1.5-18.8
		c-0.4-5.9-0.9-11.8-1.3-17.7c13.3-0.9,26.6-1.7,39.9-1.9c3.8-0.1,7.7-0.1,11.5-0.1c0.6,10.8,1.2,21.6,1.9,32.4
		c0.2,2.8,0.3,5.6,0.5,8.4C549.8,104.3,550.2,107.1,549.5,109.6z"/>
	<path d="M578.4,306.8c-3.1-23.9-5.4-47.8-7-71.8c-0.4-6.7-0.8-13.5-1.1-20.2c0-0.5-0.2-0.9-0.4-1.2c-0.2-0.6-0.8-1.1-1.7-1.2
		c-8.8-0.4-17.5-0.7-26.3-0.4c-8.7,0.3-17.2,1.5-25.9,2.1c-4.3,0.3-8.7,0.4-13,0.1c-0.6-3.9-0.6-7.9-0.5-11.8
		c0.1-4.6,0.3-9.2,0.4-13.9c0.3-9.3,0.5-18.6,0.8-28c0-0.2,0-0.3,0-0.5c0.5-1.1,0-2.8-1.6-2.7c-12.2,0.4-24.3,0.8-36.5,1.2
		c-6,0.2-11.9,0.3-17.9-0.2c-5.9-0.5-11.7-1.2-17.6-1.4c-5.8-0.2-12.5-0.4-17.3,3.5c-0.6,0.5-0.7,1.3-0.4,1.9
		c-0.1,0.2-0.1,0.4-0.1,0.6c-0.7,18.6-0.8,37.2-0.3,55.7c0.3,9.3,0.7,18.6,1.2,27.9c0.3,4.6,0.6,9.3,0.7,13.9
		c0.1,4.6-0.1,9.3-0.3,13.9c-0.5,10.4-1.1,20.7-1.7,31.1c0,0.8,0.3,1.3,0.9,1.6c0.2,0.2,0.4,0.4,0.8,0.5c10,3.4,20.5,1.2,30.7,0.1
		c10.9-1.1,22-1.1,33-0.7c5.5,0.2,10.9,0.5,16.4,0.6c5.6,0.1,11.3-0.1,16.9-0.2c10.5-0.3,21.1-0.5,31.6-0.3
		c11.5,0.2,23,0.8,34.5,1.4c0.8,0,1.3-0.3,1.6-0.8C578.3,307.5,578.4,307.2,578.4,306.8z M514.8,303.7c-5.5,0.1-11,0.4-16.4,0.4
		c-5.6,0-11.2-0.2-16.8-0.5c-10.9-0.5-21.8-0.6-32.7,0.1c-11,0.7-22.5,3.9-33.3,0.8c0.5-8.8,1-17.6,1.4-26.4
		c0.5-9.3,0.6-18.5,0-27.8c-1.1-18.6-1.7-37.1-1.7-55.7c0-10.5,0.2-20.9,0.6-31.4c0-0.1,0-0.2,0-0.3c1.7-1.1,3.8-1.6,5.8-1.8
		c2.7-0.3,5.5-0.3,8.3-0.2c5.7,0.2,11.4,0.9,17.2,1.4c11.6,0.9,23.3,0,34.9-0.3c6-0.2,11.9-0.4,17.9-0.6c-0.3,9.3-0.5,18.6-0.8,27.8
		c-0.1,4.6-0.3,9.2-0.4,13.8c-0.1,4.6,0,9.1,0.9,13.6c0.2,0.9,1,1.3,1.8,1.4c8.6,0.8,17.2-0.2,25.8-1c8.7-0.9,17.3-1.3,26.1-1.2
		c4.4,0.1,8.9,0.2,13.3,0.4c1.2,23.6,3,47.1,5.6,70.5c0.7,6.1,1.4,12.1,2.2,18.1C554.5,303.8,534.7,303.2,514.8,303.7z"/>
	<path d="M549.7,195.7c1.6-3.2,3.3-6.4,5.2-9.4c0.5-0.8,0.9-1.5,1.4-2.3c0.2-0.3,0.4-0.7,0.6-1c0.1-0.2,0.6-0.8,0.7-1
		c-0.1,0.6-1.3-0.4-0.5,0.3c0.3,0.3,0.6,0.5,0.9,0.8c0.7,0.7,1.5,1.3,2.2,2c0.6,0.6,1.3,1.2,1.9,1.8c0.3,0.3,0.7,0.6,1,1
		c0.1,0.1,0.9,1,1.1,1c-0.1,0,0.1-0.6,0-0.7c0,0-0.4,0.2-0.4,0.2c-0.5,0.2-1.1,0.3-1.6,0.5c-2.5,0.6-5.1,0.8-7.6,1.2
		c-2.8,0.5-5.7,1.3-7.8,3.3c-1.7,1.7,0.9,4.3,2.7,2.7c0.8-0.8,1.9-1.3,3.1-1.6c1.4-0.4,2.8-0.7,4.3-0.9c2.9-0.4,6-0.5,8.7-1.7
		c1.8-0.8,3.1-2.8,2-4.8c-0.5-0.8-1.3-1.4-1.9-2c-0.8-0.8-1.6-1.5-2.4-2.3c-0.8-0.7-1.5-1.4-2.3-2.1c-0.8-0.7-1.5-1.6-2.5-2
		c-2.4-1.1-3.8,1.3-4.9,2.9c-2.6,3.9-4.9,8-6.9,12.2c-0.4,0.9-0.2,2,0.7,2.6C548,196.8,549.3,196.6,549.7,195.7L549.7,195.7z"/>
	<path d="M547,175.6c-0.3-3.7-0.2-7.5,0.4-11.2c0.1-0.4,0.1-0.8,0.2-1.3c0-0.1,0.2-0.9,0.2-1c0,0-0.8,0.4,0,0.2
		c0.2,0,0.4-0.1,0.6-0.1c0.5-0.1,1-0.2,1.4-0.3c1.9-0.4,3.8-0.8,5.7-1.2c-0.8-0.8-1.5-1.5-2.3-2.3c-0.8,2.8-2.3,5.3-3.7,7.8
		c-1.6,2.8-3.2,5.6-4.8,8.4c-1.2,2.1,2.1,4,3.2,1.9c1.6-2.9,3.3-5.8,4.9-8.7c1.5-2.7,3.1-5.4,3.9-8.4c0.4-1.4-0.9-2.6-2.3-2.3
		c-2.1,0.5-4.2,0.9-6.4,1.4c-1,0.2-2.2,0.3-3,1.1c-0.8,0.8-1,1.9-1.2,2.9c-0.7,4.4-1,8.8-0.7,13.2c0.1,1,0.8,1.9,1.9,1.9
		C546.1,177.4,547.1,176.6,547,175.6L547,175.6z"/>
	<path d="M563.4,201.3c4.4-1.2,8.8-2.4,13.2-3.6c4.3-1.2,8.4-2.5,12.8-1.3c-0.5-0.6-0.9-1.2-1.4-1.8c-0.1,1.3-0.3,2.6-0.4,4
		c0,0.3-0.1,0.5-0.1,0.8c0.7-0.5,0.8-0.7,0.3-0.5c-0.4-0.2-1.5,0.1-2,0.1c-2.5,0.1-5.1,0-7.6-0.1c-5.1-0.1-10.2-0.2-15.3-0.3
		c-2.4-0.1-2.4,3.7,0,3.8c6,0.1,12,0.3,18,0.4c1.5,0,3,0.1,4.5,0c1.3,0,2.8,0,4-0.4c1.4-0.5,1.7-1.7,1.9-3c0.2-1.6,0.3-3.1,0.5-4.7
		c0.1-0.8-0.6-1.6-1.4-1.8c-4.8-1.3-9.2-0.2-13.9,1c-4.7,1.3-9.4,2.6-14.1,3.9C560.1,198.3,561,201.9,563.4,201.3L563.4,201.3z"/>
	<path d="M575.5,178.3c1.2-1.7,2.4-3.3,3.6-5c0.6-0.8,1.2-1.7,1.8-2.5c0.1-0.2,0.3-0.4,0.4-0.6c0.2-0.3,0,0,0,0c0,0,0,0,0.1-0.1
		c0.2-0.2,0-0.2-0.6,0c0.5-0.1-0.7,0.3-0.8,0c0,0.1,0.2,0.2,0.2,0.2c0.2,0.2,0.4,0.4,0.6,0.6c1.3,1.4,2.7,3,3.9,4.3
		c-0.1-0.1,0.1,0.1,0.1,0.1c0,0,0,0,0-0.1c-0.1-0.3,0.1-0.6,0.6-0.8c0.8-0.9,0.8-0.8,0.1-0.7c-0.5,0-1,0-1.6,0.1c-1,0.1-2,0.1-3,0.2
		c-2.3,0.3-4.7,0.7-7,1.2c-1,0.2-1.6,1.3-1.3,2.3c0.3,1,1.3,1.6,2.3,1.3c2.4-0.6,4.7-1,7-1.2c1.2-0.1,2.5-0.2,3.7-0.2
		c0.8,0,1.5-0.2,2.1-0.7c0.6-0.6,0.8-1.5,0.7-2.4c-0.3-1.2-1.4-2.2-2.1-3.1c-0.8-0.9-1.6-1.8-2.4-2.7c-0.9-1-2-2.2-3.5-2
		c-1.5,0.2-2.2,1.6-3,2.7c-1.7,2.3-3.3,4.6-5,6.9c-0.6,0.8-0.1,2.1,0.7,2.6C573.8,179.5,574.9,179.1,575.5,178.3L575.5,178.3z"/>
</g>
</svg>
