<?xml version="1.0" encoding="utf-8"?>
<!-- Generator: Adobe Illustrator 24.0.1, SVG Export Plug-In . SVG Version: 6.00 Build 0)  -->
<svg version="1.1" xmlns="http://www.w3.org/2000/svg" xmlns:xlink="http://www.w3.org/1999/xlink" x="0px" y="0px"
	 viewBox="0 0 1000 365.3" style="enable-background:new 0 0 1000 365.3;" xml:space="preserve">
<style type="text/css">
	.st0{fill:#95D2EF;}
	.st1{fill:#FCDE8A;}
	.st2{fill:#1E1E1C;}
	.st3{fill:#1E1E1C;stroke:#1E1E1C;stroke-width:0.25;stroke-miterlimit:10;}
	.st4{fill:#1E1E1C;stroke:#1E1E1C;stroke-width:0.15;stroke-miterlimit:10;}
	.st5{fill:#FFFFFF;}
	.st6{stroke:#1E1E1C;stroke-miterlimit:10;}
	.st7{fill:none;stroke:#1E1E1C;stroke-width:3;stroke-linecap:round;stroke-linejoin:round;stroke-miterlimit:10;}
</style>
<g id="Calque_2">
</g>
<g id="Calque_1">
	<path d="M490.5,150.1c-16.3,3.7-33,0-49.4,0.5c-1.1-1.7-0.8-4-0.8-6c0.1-2.2,0.3-4.4,0.7-6.6c7.4,0.7,14.7,0.3,22.1-0.1
		c8.1-0.4,16.3-0.9,24.4-1.3c2.4-0.1,2.4-3.9,0-3.8c-8.1,0.4-16.3,0.9-24.4,1.3c-8,0.4-15.9,0.9-23.9-0.1c-1-0.1-1.9,0.9-1.9,1.9
		c0,0.3,0.1,0.6,0.2,0.8c-0.1,0.3-0.1,0.6-0.2,0.9c-4.9,0-9.8-0.1-14.7-0.1c-1.8,0-3.6-0.1-5.4,0c-0.7,0-1.4,0.1-2.1,0.2
		c0.1-5.2,0.1-10.3,0.3-15.5c0-0.9-0.4-1.4-1-1.7c-0.2-0.1-0.5-0.2-0.9-0.2c-11.2-0.4-22.4-0.8-33.6-1c-11.4-0.2-22.8-0.1-34.1,0
		c-3.1,0-6.3,0.1-9.4,0.1c-1.6,0-3.2,0.1-4.8,0c-1.5-0.1-3-0.3-4.5-0.3c-0.1,0-0.2,0-0.3,0c-0.7,0-1.3,0.4-1.5,1.3
		c-2.4,12.4,0.3,25-0.9,37.5c-27.4-0.3-54.9-0.6-82.3-0.9c-28.4-0.3-56.9-0.5-85.3-0.7c-4.2,0-8.3,0-12.5-0.1
		c9.9-13.6,18.7-27.9,26.3-42.9c2.3-4.5,4.3-9.1,7.4-13.1c0.9-1.2-0.3-2.8-1.6-2.8c-3.2-0.1-6.4-0.1-9.5-0.2
		c-7.6-0.1-15.3-0.3-22.9-0.4c-9.2-0.2-18.4-0.3-27.6-0.5c-8-0.1-16-0.3-24-0.4c-3.9-0.1-7.8-0.3-11.7-0.2c-0.1,0-0.1,0-0.2,0
		c-1.3,0-2.1,1.2-1.8,2.4c1,4.4,3.5,8.5,5.8,12.3c2.3,4,4.9,7.8,7.6,11.5c5.4,7.3,10.7,14.7,15.3,22.5c2.2,3.8,4.3,7.7,6.3,11.7
		c-1.6,0-3.2,0-4.7,0c-0.8,0-1.4,0.4-1.6,1c-0.1,0.2-0.2,0.5-0.3,0.9c-0.3,4.9-0.7,9.8-1.1,14.7c-1.8-0.3-3.6-0.7-5.5-0.8
		c-3.7-0.2-7.4,0.8-11,0.1c-1-0.2-2,0.3-2.3,1.3c-0.2,0.9,0.3,2.1,1.3,2.3c3.9,0.7,7.7-0.1,11.6,0c1.8,0,3.6,0.5,5.4,0.8
		c0,0,0.1,0,0.1,0c-0.2,2.4-0.4,4.9-0.5,7.3c-5.1,0.2-10.2,0.5-15.4,0.7c-2.4,0.1-2.4,3.9,0,3.8c5.1-0.2,10.1-0.4,15.2-0.7
		c-0.1,3.3-0.2,6.6,0,9.9c0,0.8,0.5,1.4,1.1,1.6c0.3,0.3,0.7,0.4,1.2,0.5c28.6,1.5,57.3,2.2,86,2c14.3-0.1,28.5-0.4,42.8-0.9
		c14.2-0.5,28.3-1.2,42.5-1.2c15.7,0,31.3,0.4,47,0.9c-0.1,14.2-0.3,28.4-0.4,42.5c0,0.9,0.6,1.5,1.3,1.7c0.2,0.1,0.4,0.1,0.6,0.2
		c22.1,1.8,44.3,2.2,66.4,2c6.3,0,12.6-0.1,18.9-0.2c0.5,0,0.9-0.2,1.2-0.4c0.4-0.3,0.7-0.8,0.7-1.4c0-7.4-0.1-14.8-0.1-22.2
		c0.6,0,1.2-0.1,1.7-0.1c2.4,0.2,4.7,0.6,7.1,0.8c4.5,0.2,9-0.1,13.4-1c0,1.1,0,2.2,0.1,3.3c0,1,0.8,1.9,1.9,1.9
		c0.4,0,0.7-0.1,1-0.3c0.1,0,0.1,0,0.2,0c1.8-0.3,3.7,0,5.5,0.3c1.9,0.3,3.8,0.5,5.8,0.5c3.9,0.1,7.7-0.2,11.6-0.3
		c7.9-0.3,15.8-0.5,23.7-0.8c2.4-0.1,2.4-3.8,0-3.8c-8.1,0.3-16.1,0.5-24.2,0.8c-3.9,0.1-7.9,0.4-11.8,0.3c-3.3-0.1-6.6-1-9.9-0.8
		c-0.1-4.2,0.1-8.3,0.6-12.5c14.4-0.2,28.7-0.6,43.1-1.2c2.4-0.1,2.4-3.8,0-3.8c-14.7,0.5-29.5,0.9-44.2,1.2c-1,0-1.6,0.7-1.7,1.4
		c-0.4,0.3-0.7,0.9-0.8,1.5c-0.1,0.9-0.2,1.7-0.3,2.6c-7.3,0.3-14.8,1-22-0.2c-0.2,0-0.5,0-0.7,0c0-5.2,0-10.3,0.1-15.5
		c0.2-15.9,1-31.8,1.1-47.7c0-0.3,0-0.5,0-0.8c0.4,0.3,0.9,0.4,1.5,0.2c1.6-0.5,3.2-0.4,4.9-0.3c1.7,0.1,3.5,0.1,5.2,0.1
		c3.3,0,6.7-0.1,10-0.3c0.1,1.7,0.4,3.4,1.4,4.8c0,0,0,0,0,0c0.1,0.9,0.7,1.7,1.8,1.6c17.2-0.7,34.6,3.2,51.7-0.7
		C493.9,153.2,492.9,149.6,490.5,150.1z M403.5,140.9c0-0.2,0-0.4,0-0.7c-0.4-2.6,0.1-5.4,0.4-8c0.4-2.8,0.7-5.6,0.3-8.4
		c2.5,0.1,4.9,0.2,7.4,0.2c-0.5,15.1-0.2,30.3-0.7,45.5c-0.5,16.1-0.9,32.1-0.8,48.1c0,8.4,0.1,16.8,0.2,25.2c-1.7,0-3.3,0.1-5,0.1
		c0.1-0.2,0.1-0.3,0.1-0.5c0.3-3.6,0.3-7.3,0.2-10.9c0-0.3,0-0.5,0-0.8c-0.1-3.6-0.3-7.3-0.5-10.9c0-1.1-0.9-1.8-1.9-1.9
		c-5.8-0.6-11.6-2.1-17-4.2c0.1-17,0.2-34.1,0.3-51.1c0-4.8,0.1-9.7,0.1-14.5c0.1,0,0.2-0.1,0.3-0.2c0.3-0.1,0.5-0.2,0.8-0.4
		c0.6-0.3,1.2-0.5,1.9-0.8c1.4-0.6,2.7-1.1,4.1-1.6c2.8-1,5.6-1.8,8.4-2.6C403,142.3,403.4,141.6,403.5,140.9z M382,139.1
		c6-1.7,11.9-3.5,17.9-5.2c-0.2,1.8-0.4,3.6-0.3,5.4c-2.7,0.7-5.5,1.6-8.1,2.6c-1.6,0.6-3.2,1.3-4.8,2c-1.6,0.7-3,1.2-3.6,2.9
		c-0.1,0.2-0.1,0.3-0.1,0.5c-0.1,0.2-0.1,0.4-0.1,0.6c-0.1,17.3-0.2,34.7-0.3,52c0,4.9-0.1,9.8-0.1,14.7c0,0.6,0.2,1.1,0.6,1.4
		c0.2,0.4,0.7,0.7,1.1,0.9c5.5,2.3,11.4,3.8,17.3,4.6c0.1,2.4,0.2,4.9,0.3,7.3c-1.3-0.5-2.5-1.1-3.8-1.5c-2.2-0.6-4.5-0.8-6.7-1.5
		c-2.2-0.7-4.4-1.6-6.4-2.6c-1.9-0.9-3.7-1.8-5.5-2.8c0.7-21.1,1.4-42.1,2.1-63.2C381.6,151.2,381.8,145.2,382,139.1
		C382,139.2,382,139.2,382,139.1z M386.7,147.8c0,0,0,0.1,0,0.1C386.6,147.9,386.6,147.9,386.7,147.8
		C386.6,147.9,386.6,147.8,386.7,147.8z M328.6,123.1c2.2,0.1,4.3,0.3,6.5,0.3c2.8,0,5.6-0.1,8.4-0.1c5.7-0.1,11.4-0.1,17.1-0.2
		c11.4,0,22.7,0.1,34.1,0.5c2,0.1,3.9,0.1,5.9,0.2c0,0.2,0,0.5,0,0.7c0.3,1.8,0.2,3.6-0.1,5.5c-7,2.1-14.1,4.1-21.1,6.2
		c-1.4,0.4-1.6,1.9-1,2.8c0,0.1,0,0.3-0.1,0.4c-0.4,11.2-0.7,22.4-1.1,33.7c-4,0.8-8,1.3-12,1.5c0,0-0.1,0-0.1,0
		c-0.6-1.4-1.2-2.9-1.7-4.3c-0.1-0.3-0.3-0.6-0.5-0.8c-0.1-0.1-0.1-0.1-0.2-0.2c-0.1,0-0.1-0.1-0.2-0.1c0,0,0,0,0,0
		c-0.1-0.1-0.2-0.1-0.3-0.1c0,0,0,0,0,0c-5.9-1.9-11.9-3.9-17.8-5.8c-2.9-0.9-5.8-1.9-8.6-2.8c-2.5-0.8-4.9-1.5-7.5-1.7
		C329.3,146.6,326.7,134.7,328.6,123.1z M377,176.7c-0.1,2.7-0.2,5.4-0.3,8.1c-1.7-0.4-3.4-0.9-5-1.5c0,0-0.4-0.2-0.5-0.2
		c-0.2-0.1-0.4-0.2-0.6-0.3c-0.5-0.2-1-0.5-1.4-0.7c-0.4-0.2-0.8-0.5-1.2-0.7c-0.1,0-0.2-0.1-0.2-0.1c-0.1-0.4-0.2-0.8-0.5-1.1
		c-0.3-0.7-0.5-1.4-0.8-2.1C370,177.9,373.6,177.4,377,176.7z M104.6,133c-5-7.5-10.8-14.5-15.6-22.2c-2.1-3.5-4.6-7.2-6-11.2
		c2.3,0,4.7,0.1,7,0.1c7.6,0.1,15.3,0.3,22.9,0.4c9.2,0.2,18.4,0.3,27.6,0.5c8,0.1,16,0.3,24,0.4c2.6,0,5.3,0.1,7.9,0.1
		c0.1,0,0.2,0,0.4,0c-1.7,2.8-3.2,5.7-4.6,8.7c-2,3.9-4,7.8-6.2,11.7c-4.3,7.8-9,15.4-13.9,22.8c-2.7,4.1-5.5,8-8.4,12
		c-7.3,0-14.6-0.1-21.9-0.1C113.9,148.2,109.5,140.4,104.6,133z M110.6,160c27.8,0.1,55.7,0.3,83.5,0.5c28.4,0.2,56.9,0.5,85.3,0.8
		c4.5,0.1,8.9,0.1,13.4,0.2c-0.1,0.2-0.2,0.3-0.3,0.6c-0.4,1-0.7,2-1.1,2.9c-6.9-0.1-13.8,0-20.7,0c0.3-0.9,0.1-1.8-0.8-2.3
		c-0.8-0.5-2.2-0.3-2.6,0.7c-0.2,0.6-0.5,1.1-0.7,1.7c-8.6,0.1-17.2,0.2-25.8,0.4c0.1-0.2,0.2-0.4,0.3-0.7c0.4-0.9-0.4-2.1-1.3-2.3
		c-1.1-0.3-1.9,0.4-2.3,1.3c-0.2,0.6-0.5,1.1-0.7,1.7c-8.6,0.1-17.2,0.3-25.8,0.4c0.1-0.3,0.2-0.7,0.3-1c0.7-2.3-2.9-3.3-3.6-1
		c-0.2,0.7-0.4,1.4-0.7,2.1c-9.1,0.1-18.2,0.3-27.3,0.5c0.3-0.4,0.5-0.8,0.8-1.2c0.6-0.8,0.1-2.1-0.7-2.6c-1-0.6-2-0.1-2.6,0.7
		c-0.8,1-1.4,2.1-1.9,3.2c-5.4,0.1-10.8,0.3-16.2,0.5c-3.5,0.1-7,0.3-10.5,0.5c0.3-0.8,0.7-1.6,1-2.5c0.4-0.9-0.4-2.1-1.3-2.3
		c-1.1-0.3-1.9,0.4-2.3,1.3c-0.5,1.2-1,2.5-1.5,3.7c-9.7,0.6-19.4,1.4-29.1,2.5c0.2-0.9,0.5-1.8,0.7-2.7c0.6-2.3-3-3.3-3.6-1
		c-0.6,2.2-1.1,4.5-1.6,6.7c-0.5,0-0.9,0-1.4-0.1C110,168.8,110.4,164.4,110.6,160z M143.4,180.8c1.3-3.1,2.5-6.2,3.8-9.3
		c8.9-0.5,17.8-0.8,26.6-1c-0.8,2.3-1.5,4.7-2.5,7c-1.5,3.5-3.2,7-4.9,10.4c-3.3,0-6.6,0-9.8-0.1c-5.3,0-10.7-0.1-16-0.1
		C141.6,185.3,142.5,183,143.4,180.8z M139.8,179.8c-1,2.5-2,5.1-3.1,7.6c0,0.1-0.1,0.2-0.1,0.3c-8.1,0-16.2-0.1-24.3-0.1
		c0.6-4.5,1.3-8.9,2.3-13.3c9.5-1.1,19-1.9,28.5-2.5C142,174.4,140.9,177.1,139.8,179.8z M174.6,179.3c1.2-2.9,2-6,3.2-9
		c5.7-0.1,11.3-0.2,17-0.3c3.7-0.1,7.4-0.1,11.1-0.2c-1.1,3.2-2.2,6.4-3.3,9.5c-0.9,2.5-1.9,4.9-2.9,7.4c-0.2,0.4-0.4,0.9-0.6,1.4
		c-9.5-0.1-19-0.1-28.4-0.2C172,185,173.4,182.2,174.6,179.3z M203.2,187.9c1-2.5,2-5,3-7.6c1.3-3.5,2.5-7,3.7-10.6
		c8.5-0.2,16.9-0.3,25.4-0.5c-2.8,6.4-5.8,12.7-9,19c-7.7,0-15.4-0.1-23.2-0.1C203.1,188,203.2,187.9,203.2,187.9z M109.3,177
		c0.3,0,0.6,0,1,0.1c-0.4,2.2-0.8,4.4-1.1,6.6c-0.1,0-0.2,0-0.3,0C108.9,181.4,109.1,179.2,109.3,177z M108.5,196c0-0.4,0-0.7,0-1.1
		c1,0.8,3.1,0.4,3.2-1.4c0.1-0.7,0.1-1.5,0.2-2.2c7.7,0,15.5,0.1,23.2,0.1c-0.4,1.2-0.8,2.3-1.1,3.5c-0.2,1.1,0.4,1.9,1.3,2.2
		C126.4,196.8,117.4,196.4,108.5,196z M224,197.3c-22.9,0.7-45.8,0.8-68.6,0.3c-6.2-0.1-12.5-0.3-18.7-0.5c0.5-0.2,0.9-0.6,1-1.2
		c0.3-1.5,0.9-3,1.5-4.5c8.5,0.1,17,0.1,25.5,0.2c-0.2,0.5-0.5,0.9-0.7,1.4c-1.1,2.2,2.2,4.1,3.2,1.9c0.5-1.1,1.1-2.2,1.6-3.3
		c7.9,0,15.9,0.1,23.8,0.1c1.6,0,3.2,0,4.9,0c-0.3,0.9-0.6,1.7-0.7,2.6c-0.2,1,0.3,2,1.3,2.3c0.9,0.3,2.1-0.3,2.3-1.3
		c0.2-1.2,0.6-2.4,1.1-3.6c7.6,0,15.2,0.1,22.9,0.1c-0.5,0.9-1,1.9-1.5,2.8C222.2,195.8,223,196.9,224,197.3z M254.3,196.2
		c-4.5,0.1-9,0.3-13.5,0.5c-5.2,0.2-10.3,0.4-15.5,0.5c0.3-0.1,0.6-0.4,0.8-0.8c0.8-1.5,1.6-3.1,2.4-4.7c8.7,0,17.4,0.1,26,0.2
		c-0.1,0.3-0.3,0.7-0.4,1C253.7,194.1,253.5,195.3,254.3,196.2z M238.6,188.2c-2.7,0-5.4,0-8.1,0c3.2-6.3,6.1-12.6,8.8-19.1
		c8.6-0.1,17.1-0.3,25.7-0.3c-1.7,3.9-3.5,7.8-5.2,11.7c-1.2,2.6-2.3,5.2-3.5,7.8C250.4,188.3,244.5,188.3,238.6,188.2z
		 M281.4,195.8c-8,0-16,0.1-24,0.4c0.4-0.5,0.5-1.1,0.2-1.7c0.2-0.2,0.3-0.7,0.4-0.9c0.2-0.5,0.4-1,0.7-1.5
		c5.2,0.1,10.4,0.1,15.5,0.2c2.6,0,5.1,0.1,7.7,0.2c-0.2,0.6-0.4,1.3-0.6,1.9C281.1,194.9,281.2,195.4,281.4,195.8z M260.3,188.3
		c0.1-0.2,0.1-0.3,0.2-0.5c1.1-2.5,2.2-5,3.4-7.5c1.7-3.9,3.4-7.7,5.2-11.6c2.4,0,4.7-0.1,7.1-0.1c4.6,0,9.3,0,13.9,0
		c-2.4,6.6-4.7,13.3-6.9,20C275.6,188.4,268,188.3,260.3,188.3z M307.9,194.9c-0.2,0.4-0.3,0.9-0.2,1.3c-7.7-0.2-15.4-0.3-23-0.4
		c0.1-0.1,0.2-0.3,0.2-0.4c0.3-0.9,0.6-1.8,0.9-2.8c7.5,0.3,15,0.7,22.5,1.4C308.2,194.3,308,194.6,307.9,194.9z M287.1,188.8
		c2.3-6.7,4.6-13.4,7-20.1c8.6,0.1,17.1,0.3,25.6,0.6c-3.3,7-6.6,14-9.7,21C302.3,189.6,294.7,189.1,287.1,188.8z M318,191.3
		c-1.4-0.2-2.7-0.3-4.1-0.5c1.7-3.7,3.3-7.3,5-11C318.3,183.6,317.9,187.4,318,191.3z M325.2,196.6c-4.6-0.1-9.2-0.3-13.8-0.4
		c0.3-0.6,0.6-1.3,0.9-1.9c2.4,0.3,4.8,0.5,7.2,0.9c0.3,0,0.6,0,0.8-0.2c0.9-0.1,1.7-0.6,1.6-1.8c-0.7-8.1,1.7-16,2.1-24.1
		c0.6-1.2,1.2-2.5,1.7-3.7c1-2.2-2.2-4.1-3.2-1.9c-0.3,0.7-0.6,1.4-1,2.1c-8.7-0.4-17.3-0.6-26-0.7c0.2-0.7,0.5-1.3,0.7-2
		c0.2-0.6,0.1-1.1-0.2-1.5c10,0.1,20.1,0.2,30.1,0.4c0.2,0.1,0.4,0.1,0.6,0.1c2.9,0.1,5.6,1,8.4,1.9c2.9,0.9,5.8,1.9,8.7,2.8
		c5.5,1.8,10.9,3.6,16.4,5.4c1.1,3.1,2.5,6.2,3.6,9.3c0,0,0,0,0,0.1c-1.2,1.9-2.4,3.9-3.4,5.9C348.8,190.9,337,194,325.2,196.6z
		 M345.6,242.3c-5.6-0.3-11.3-0.6-16.9-1.1c0.1-13.9,0.3-27.7,0.4-41.6c11.1-2.5,22.1-5.5,32.9-8.9c0.3-0.1,0.6-0.3,0.8-0.5
		c0.2-0.1,0.4-0.3,0.5-0.6c0.8-1.7,1.8-3.4,2.8-5c0.3,0.2,0.5,0.3,0.8,0.5c1,0.6,2,1.1,3,1.5c2.1,0.9,4.4,1.6,6.7,2.1c0,0,0,0,0.1,0
		c-0.2,4.6-0.3,9.2-0.5,13.8c-0.2,6-0.4,12-0.6,17.9c0,0.3,0,0.6,0.2,0.8c-0.1,0.7,0.1,1.4,0.8,1.8c2,1.3,4.2,2.3,6.3,3.4
		c2.2,1.1,4.5,2.1,6.9,2.9c2.3,0.7,4.8,0.9,7.1,1.6c1.7,0.5,3.3,1.3,4.9,1.9c0.1,3.2,0,6.4-0.2,9.6c0,0.2,0,0.4,0.1,0.6
		C383,243.2,364.3,243.2,345.6,242.3z M436.2,216.3c0,0.7-0.1,1.4-0.1,2c0,0,0,0-0.1,0c-3.9,0.8-7.9,1.2-11.8,1.1
		c-1.9,0-3.9-0.2-5.8-0.5c-1.6-0.2-3.1-0.4-4.6-0.3c0-0.9,0-1.8,0-2.7C421.2,217.1,428.8,216.6,436.2,216.3z M436.6,144.2
		c-3.5,0.2-7,0.4-10.5,0.3c-1.8,0-3.6-0.1-5.4-0.2c-1.8-0.1-3.6-0.1-5.3,0.5c-0.2,0.1-0.3,0.1-0.5,0.2c0-1.2,0-2.3,0-3.5
		c0.9-0.2,2.2-0.2,3.1-0.3c1.8,0,3.7,0,5.5,0c4.4,0,8.8,0.1,13.2,0.1C436.7,142.3,436.6,143.3,436.6,144.2z"/>
	<path d="M717.4,289.2c-1.1-7.6-1.1-15.3-1.2-22.9c-0.1-7.2-0.2-14.4-0.3-21.6c-0.2-14.9-0.5-29.8-0.7-44.8
		c-0.1-8.3-0.3-16.5-0.4-24.8c0-0.1,0-0.2,0-0.3c0-0.7-0.4-1.4-1.3-1.6c-12-2.1-23.9-4.3-35.9-6.4c-5.9-1.1-11.7-2.3-17.4-4.2
		c-5.5-1.9-11-4.1-16.5-5.8c-6.4-2-13-3.1-19.7-3.9c-0.3,0-0.5,0-0.8,0.1c-8.4,1.9-16.2,6.1-23.9,9.7c-0.5,0.2-0.8,0.8-0.9,1.3
		c-0.1,0.2-0.1,0.5-0.1,0.8c1.1,14.5,1.1,29,0.8,43.5c-0.3,14.5-0.9,29-1.3,43.5c-0.3,8.2-0.5,16.4-0.8,24.7c0,0.8,0.4,1.3,0.9,1.6
		c0,0,0,0,0,0c3.5,2.2,6.8,4.2,10.9,4.9c3.4,0.6,6.9,0.7,10.2,1.2c3.3,0.6,6.5,1.7,9.6,2.8c6.4,2.2,13,3.2,19.7,4.1
		c6.5,0.9,12.8,2.1,19.1,4.2c6.8,2.3,13.7,4.8,21,4.9c0.1,0,0.3,0,0.4,0c0.3,0.2,0.6,0.2,1,0.2c4.9-0.3,9.3-1.6,13.7-3.6
		c4.2-1.9,8.2-4,12.6-5.4c0,0,0,0,0,0C717.2,291.2,717.6,290.2,717.4,289.2z M624.1,156.7c5.8,0.7,11.6,1.7,17.2,3.3
		c5.5,1.6,10.9,3.8,16.3,5.7c11.2,3.9,23,5.5,34.7,7.6c6,1.1,12,2.2,18,3.2c-8.1,1.9-16,4.9-23.3,8.8c-21.9-5.5-43.6-11.9-65.4-17.8
		c-5.1-1.4-10.2-2.7-15.2-4C612.1,160.8,617.9,158.1,624.1,156.7z M661.3,289.7c-3.2-0.8-6.4-1.3-9.7-1.8
		c-6.5-0.9-13.1-1.5-19.3-3.5c-3.2-1-6.3-2.3-9.5-3.1c-3.3-0.8-6.6-1.1-10-1.4c-2.3-0.2-4.7-0.5-6.8-1.3c-1.7-0.7-3.6-1.9-5.3-3
		c0.4-14.3,0.9-28.6,1.3-42.8c0.5-14.5,1-28.9,0.9-43.4c-0.1-7.7-0.3-15.4-0.9-23.1c22.2,5.5,44.1,12.1,66.2,18.1
		c5.8,1.6,11.6,3.1,17.4,4.5c0.4,3.1,0.1,6.3-0.2,9.4c-0.4,3.5-0.7,7-0.5,10.6c0.1,3.6,0.6,7.1,0.9,10.6c0.3,3.6,0.6,7.3,0.7,10.9
		c0.6,14.5,0.4,28.9,0.3,43.4c-0.1,7.6-0.2,15.1-0.2,22.7c-5.6-0.4-11-2.2-16.3-4C667.3,291.4,664.4,290.4,661.3,289.7z
		 M690.3,296.7c0.1-14,0.4-28,0.3-42.1c0-7.3-0.1-14.7-0.3-22c-0.1-3.7-0.3-7.5-0.6-11.2c-0.3-3.6-0.8-7.1-1-10.7c-0.3-4,0-8,0.4-12
		c0.4-3.5,0.6-7,0.2-10.4c6.9-3.6,14.2-6.4,21.8-8.2c0.4,28.1,0.9,56.2,1.4,84.3c0.1,8,0.1,16,1.1,24
		C705.8,291.1,698.8,296,690.3,296.7z"/>
	<path d="M920.4,146.2c0.2-8.1,0.5-16.2,0.8-24.4c0-0.8-0.4-1.4-0.9-1.6c-0.1-0.1-0.3-0.1-0.4-0.2c-23-7-46.4-12.5-69.7-18.2
		c-3.2-0.8-6.4-1.6-9.6-2.4c-3.3-0.8-6.7-1.8-10.1-1.5c-0.7,0.1-1.3,0.5-1.5,1c-6.1,3.3-13.1,4.4-19.9,5.4
		c-7.5,1.2-14.8,2.8-21.9,5.5c-3.9,1.5-7.7,3.3-11.3,5.2c-0.1,0-0.2,0.1-0.3,0.1c-0.1,0-0.1,0.1-0.2,0.1c-0.9,0.5-1.1,1.3-0.8,2.1
		c-1.6,28.2-2.4,56.5-2.4,84.8c0,8.1,0.1,16.2,0.2,24.3c0,0.9,0.5,1.4,1.1,1.7c0.2,0.4,0.6,0.6,1,0.7c12,1.7,23.7,5.2,35.5,8.2
		c5.7,1.5,11.5,2.8,17,4.7c5.2,1.7,10.2,3.9,15.4,5.7c5.8,2,11.7,3.6,17.9,3.7c0.3,0.1,0.7,0.2,1.1,0.1c19.7-3.8,39.2-9.1,58.6-14.3
		c0.2-0.1,0.4-0.1,0.5-0.2c0,0,0,0,0.1,0c0,0,0.1-0.1,0.1-0.1c0.4-0.3,0.7-0.8,0.6-1.4c-0.6-15.1-1.1-30.2-1.2-45.2
		C919.9,175.3,920.1,160.7,920.4,146.2z M863.2,206c0.3-7.1,0.5-14.2,0.4-21.3c-0.1-7-0.5-13.9-0.7-20.9c-0.3-7.5-0.6-15-0.9-22.5
		c0.4,0.1,0.9,0,1.3-0.2c3.5-1.6,7.4-2.3,11.1-3.2c3.7-0.9,7.4-2,11-3.3c7.1-2.5,14.1-5.5,21.3-7.7c3.5-1,7-1.9,10.6-2.3
		c-1.1,28.3-1.5,56.7-0.8,85.1c0.2,8,0.5,15.9,0.8,23.9c-18,4.8-36.1,9.7-54.4,13.3C862,233.4,862.7,219.7,863.2,206z M798.2,110.2
		c7.2-1.8,14.6-2.4,21.8-4.1c4-0.9,7.9-2.3,11.4-4.3c0.1,0,0.2-0.1,0.2-0.2c2.5,0,5,0.7,7.4,1.3c2.9,0.7,5.8,1.4,8.7,2.2
		c5.8,1.4,11.6,2.9,17.3,4.3c11.5,2.9,23.1,5.6,34.5,8.7c4.4,1.2,8.7,2.4,13.1,3.7c-13.1,2.7-25.1,9.2-38.1,12.4
		c-4.3,1-8.6,1.9-12.6,3.6c-9.7-5.8-20.3-9.5-31.3-12.1c-11.3-2.7-22.7-4.8-34-6.9c-4.8-0.9-9.6-1.8-14.4-2.7
		C787.3,113.5,792.7,111.6,798.2,110.2z M829.4,238.6c-5.5-1.9-11.2-3.3-16.9-4.8c-5.8-1.5-11.7-3-17.5-4.5
		c-6.3-1.6-12.6-3.1-19-4.1c-0.4-28.1-0.1-56.2,1.1-84.3c0.3-7.4,0.7-14.7,1.1-22.1c10.8,2.2,21.6,4,32.4,6.2
		c10.9,2.2,22,4.3,32.6,7.9c5.3,1.8,10.3,4.1,15.2,6.9c0.6,14.1,1.3,28.2,1.7,42.3c0.3,14.1-0.7,28.2-1.1,42.3
		c-0.2,7.6-0.1,15.2,0.5,22.8C848.8,247,839.1,242.1,829.4,238.6z"/>
	<g>
		<path d="M831.1,175.9c1.3-5.5-1.3-12.4-5.5-16c-1.7-1.5-3.6-2.9-5.8-3.6c-2.8-0.9-5.7-0.3-8.4,0.8c-0.2,0-0.4,0.1-0.6,0.3
			c-0.2,0.1-0.3,0.2-0.4,0.3c-4.3,3.1-5.2,8.9-4.1,13.8c1.2,5.4,5.1,10.5,10.6,12.1c0,0,0,0,0,0.1c0,0.9-0.1,1.8-0.2,2.7
			c-0.3-0.1-0.5-0.2-0.8-0.2c-0.5,0-1,0.2-1.3,0.5c-0.3,0.4-0.6,0.8-0.5,1.3c0,0.5,0.2,1,0.5,1.3c0.5,0.5,1.1,0.8,1.7,1.1
			c-0.1,0.8-0.2,1.6-0.4,2.4c-0.1,0.4,0,0.8,0.1,1.2c0,0-0.1,0-0.1,0c-0.2,0-0.3,0-0.5,0c-0.2,0-0.4,0-0.5,0.1
			c-2,0.3-3.9,1.4-5.5,2.6c-2.3,1.7-3.3,4.3-3.7,7c-0.9,5.9,0.9,12.1,5.8,15.8c4.5,3.4,10.5,3.5,15,0c4.6-3.7,5.5-9.6,3.3-14.9
			c-1.9-4.6-5.8-8.6-10.6-10c0.2-0.2,0.3-0.5,0.4-0.8c0.2-1,0.3-1.9,0.4-2.9c0.2,0,0.4-0.1,0.5-0.1c0.5-0.1,0.9-0.5,1.1-0.9
			c0.2-0.4,0.3-1,0.2-1.4c-0.2-0.7-0.8-1.2-1.4-1.3c0.1-1,0.2-2.1,0.2-3.1C825.4,183.8,830,180.9,831.1,175.9z M825.3,215.3
			c-2.6,3-6.7,3.8-10.2,1.9c-4-2.1-5.9-6.4-5.8-10.7c0-2.1,0.3-5,1.9-6.5c0.7-0.6,1.5-1.1,2.3-1.5c0.4-0.2,0.8-0.4,1.2-0.6
			c0.2-0.1,0.3-0.1,0.5-0.2c0.1,0,0.4-0.1,0.4-0.1C823.2,197.8,831,208.7,825.3,215.3z M810.5,172.5c-1.3-3.8-1.6-9.4,2.2-11.9
			c1.8-0.8,3.8-1.3,5.7-0.8c1.3,0.3,2.5,1.1,3.5,2c3.3,2.7,5.5,6.6,5.7,10.9c0.1,2.1-0.5,4.1-2.1,5.6c-1.5,1.4-3.4,2.1-5.4,2
			C815.6,180.2,812,176.6,810.5,172.5z"/>
		<path d="M816.1,203.4c-0.3,0-0.6,0.1-0.8,0.3c-0.4,0.2-0.8,0.6-1,1c-0.4,0.7-0.4,1.5-0.4,2.3c0,0.4,0.1,0.8,0.2,1.2
			c0.2,0.5,0.4,0.9,0.8,1.3c0.5,0.6,1.1,0.9,1.8,1.2c1.3,0.5,3,0.1,4-1c0.5-0.5,0.9-1.2,1-1.9c0.1-0.3,0.1-0.7,0.1-1.1
			c0-0.6-0.2-1-0.4-1.5c-0.6-1.4-2.3-2.4-3.9-2.3C816.9,202.9,816.5,203.1,816.1,203.4C816.1,203.4,816.1,203.4,816.1,203.4z
			 M817.6,206.8C817.6,206.8,817.6,206.8,817.6,206.8c0-0.1,0.1-0.1,0.1-0.1c0,0,0,0,0.1,0c0,0,0,0,0.1,0.1c0,0,0,0,0,0.1
			c0,0,0,0,0,0c0,0,0,0,0,0.1c0,0,0,0,0,0.1c0,0,0,0.1-0.1,0.1c0,0,0,0,0,0c0,0,0,0,0,0c0,0-0.1,0-0.1,0c0,0,0,0,0,0c0,0,0,0,0,0
			C817.7,207,817.6,206.9,817.6,206.8z"/>
		<path d="M822.2,169.9c0.5-1.6-0.1-3.4-1.5-4.2c-1.1-0.6-2.4-0.7-3.6-0.6c-0.5,0.1-0.9,0.2-1.3,0.5c-0.2,0.2-0.4,0.5-0.5,0.8
			c-0.1,0-0.1,0.1-0.2,0.1c-0.4,0.5-0.6,0.8-0.8,1.3c-0.1,0.4-0.2,0.8-0.2,1.2c0,0.7,0.2,1.6,0.6,2.2c0.2,0.3,0.4,0.6,0.7,0.8
			c0.4,0.4,0.8,0.6,1.3,0.8c0.7,0.3,1.5,0.3,2.3,0.1C820.6,172.6,821.7,171.4,822.2,169.9z M818.3,169.3c-0.1,0-0.1,0.1-0.2,0.1
			c0,0,0,0-0.1,0c0,0,0,0-0.1,0c0,0,0,0-0.1,0c0,0,0,0,0,0c0,0,0,0,0,0c0,0,0,0,0,0c0,0,0,0,0-0.1c0,0,0-0.1,0-0.1
			c0,0,0-0.1,0.1-0.1c0.1-0.1,0.1-0.2,0.1-0.2c0.1,0,0.3,0,0.4,0c0,0,0.1,0,0.1,0c0,0.1-0.1,0.1-0.1,0.2
			C818.4,169.1,818.4,169.2,818.3,169.3z"/>
	</g>
	<path d="M740.1,176.5c-2.3,0.9-4.4,2.4-5.6,4.6c-0.9,1.7-1.3,3.8-1.2,5.7c0.1,2,0.5,4.1,1.1,6c0.7,2.3,2.3,4.8,4.5,6
		c0.9,0.5,1.9,0.7,2.8,1c1.3,0.4,2.5,0.8,3.9,0.8c3,0.1,5.9-0.4,8.2-2.3c4.6-3.6,5.4-10,3.3-15.2c-0.6-1.5-1.4-3.1-2.6-4.3
		c-1.1-1.1-2.5-1.7-4-2.1C747.3,175.9,743.5,175.3,740.1,176.5c-2.3,0.8-1.3,4.4,1,3.6c2.4-0.8,4.8-0.5,7.2,0
		c0.9,0.2,1.9,0.4,2.8,0.8c1,0.5,1.6,1.3,2.1,2.3c1.9,3.6,2.2,8.4-0.8,11.5c-1.5,1.5-3.3,2.1-5.4,2.2c-1.1,0-2.2,0-3.2-0.4
		c-0.7-0.3-1.5-0.5-2.3-0.7c-3.2-1.1-3.8-5.1-4.3-8.1c-0.2-1.2-0.2-2.8,0.3-4.1c0.6-1.6,2-2.8,3.6-3.4c0.9-0.4,1.6-1.3,1.3-2.3
		C742.2,176.9,741.1,176.1,740.1,176.5L740.1,176.5z"/>
	<path d="M745,183.9c-0.5,0.1-0.9,0.1-1.4,0.4c-0.4,0.3-0.8,0.6-1,1.1c-0.4,0.7-0.5,1.4-0.6,2.1c-0.1,1.6,0.2,3.2,1.3,4.4
		c0.5,0.6,1.2,1,1.9,1.2c0.9,0.2,1.8,0.1,2.6-0.3c1.4-0.7,2.3-2.4,2.2-3.9c-0.2-1.8-1.2-3.3-2.7-4.3c-0.8-0.5-2.1-0.2-2.6,0.7
		c-0.5,0.9-0.2,2,0.7,2.6c0.1,0.1,0.3,0.2,0.4,0.3c-0.1-0.1-0.3-0.2-0.4-0.3c0.3,0.2,0.5,0.4,0.7,0.7c-0.1-0.1-0.2-0.3-0.3-0.4
		c0.2,0.2,0.3,0.5,0.5,0.8c-0.1-0.1-0.1-0.3-0.2-0.4c0.1,0.2,0.2,0.5,0.2,0.7c0-0.2,0-0.3-0.1-0.5c0,0.2,0,0.4,0,0.6
		c0-0.2,0-0.3,0.1-0.5c0,0.2-0.1,0.4-0.1,0.5c0.1-0.1,0.1-0.3,0.2-0.4c-0.1,0.2-0.2,0.4-0.3,0.5c0.1-0.1,0.2-0.3,0.3-0.4
		c-0.1,0.2-0.3,0.3-0.4,0.4c0.1-0.1,0.3-0.2,0.4-0.3c-0.1,0.1-0.3,0.2-0.5,0.3c0.1-0.1,0.3-0.1,0.4-0.2c-0.1,0.1-0.3,0.1-0.4,0.1
		c0.2,0,0.3,0,0.5-0.1c-0.1,0-0.3,0-0.4,0c0.2,0,0.3,0,0.5,0.1c-0.2,0-0.3-0.1-0.5-0.1c0.1,0.1,0.3,0.1,0.4,0.2
		c-0.2-0.1-0.3-0.2-0.5-0.3c0.1,0.1,0.3,0.2,0.4,0.3c-0.2-0.1-0.3-0.3-0.5-0.5c0.1,0.1,0.2,0.3,0.3,0.4c-0.1-0.2-0.3-0.4-0.4-0.6
		c0.1,0.1,0.1,0.3,0.2,0.4c-0.1-0.3-0.2-0.6-0.2-0.9c0,0.2,0,0.3,0.1,0.5c-0.1-0.6-0.1-1.1,0-1.7c0,0.2,0,0.3-0.1,0.5
		c0-0.2,0.1-0.5,0.2-0.7c-0.1,0.1-0.1,0.3-0.2,0.4c0.1-0.1,0.1-0.3,0.2-0.4c-0.1,0.1-0.2,0.3-0.3,0.4c0.1-0.1,0.1-0.1,0.2-0.2
		c-0.1,0.1-0.3,0.2-0.4,0.3c0.1-0.1,0.1-0.1,0.2-0.1c-0.1,0.1-0.3,0.1-0.4,0.2c0.1,0,0.1,0,0.2-0.1c-0.2,0-0.3,0-0.5,0.1
		c0,0,0,0,0.1,0c0.5-0.1,0.9-0.2,1.3-0.5c0.3-0.3,0.6-0.9,0.5-1.3c0-0.5-0.2-1-0.5-1.3C745.9,184.2,745.4,183.9,745,183.9L745,183.9
		z"/>
	<path d="M745.6,213.9c-4.9,0.6-10.3,2-11.8,7.4c-0.7,2.6-0.5,5.4,0.1,8c0.6,2.7,1.9,5.1,4.1,6.7c4.1,3,10.1,2.9,14.3,0.1
		c4.2-2.8,6.3-8.1,5.1-13C756.2,218,750.7,214.3,745.6,213.9c-1-0.1-1.9,0.9-1.9,1.9c0,1.1,0.9,1.8,1.9,1.9c3,0.2,6.6,2.5,7.8,5.3
		c1.4,3.1,0.3,7-2.2,9.3c-2.6,2.4-6.7,3-9.8,1.5c-3.6-1.7-4.5-6.2-4.3-9.9c0.1-2,1-3.7,2.8-4.7c1.7-0.9,3.8-1.2,5.7-1.5
		c1-0.1,1.9-0.8,1.9-1.9C747.5,214.9,746.7,213.8,745.6,213.9L745.6,213.9z"/>
	<path d="M745.7,225.3c0.3-0.2,0.5-0.5,0.7-0.8c0.6-1.1,0.1-2.5-1.1-2.8c-0.8-0.2-1.5,0.1-2.2,0.5c-0.6,0.4-1.1,0.8-1.5,1.3
		c-0.7,1.1-0.4,2.7,0.2,3.8c1.1,1.8,3.3,2.9,5.4,2.3c1.1-0.3,2-1,2.6-1.9c0.5-0.8,0.9-1.9,0.7-2.8c-0.1-0.7-0.2-1.3-0.6-1.9
		c-0.4-0.6-0.8-1-1.3-1.4c-1-0.7-2.3-0.9-3.4-0.6c-1,0.2-1.6,1.4-1.3,2.3c0.3,1,1.3,1.6,2.3,1.3c0.1,0,0.1,0,0.2,0
		c-0.2,0-0.3,0-0.5,0.1c0.2,0,0.4,0,0.6,0c-0.2,0-0.3,0-0.5-0.1c0.2,0,0.4,0.1,0.6,0.2c-0.1-0.1-0.3-0.1-0.4-0.2
		c0.2,0.1,0.4,0.2,0.6,0.3c-0.1-0.1-0.3-0.2-0.4-0.3c0.2,0.2,0.4,0.3,0.5,0.5c-0.1-0.1-0.2-0.3-0.3-0.4c0.1,0.2,0.2,0.3,0.3,0.5
		c-0.1-0.1-0.1-0.3-0.2-0.4c0.1,0.2,0.1,0.4,0.2,0.6c0-0.2,0-0.3-0.1-0.5c0,0.2,0,0.4,0,0.6c0-0.2,0-0.3,0.1-0.5
		c0,0.2-0.1,0.4-0.2,0.7c0.1-0.1,0.1-0.3,0.2-0.4c-0.1,0.2-0.2,0.5-0.4,0.7c0.1-0.1,0.2-0.3,0.3-0.4c-0.2,0.2-0.3,0.4-0.5,0.5
		c0.1-0.1,0.3-0.2,0.4-0.3c-0.2,0.1-0.4,0.3-0.6,0.3c0.1-0.1,0.3-0.1,0.4-0.2c-0.2,0.1-0.4,0.1-0.6,0.2c0.2,0,0.3,0,0.5-0.1
		c-0.3,0-0.5,0-0.8,0c0.2,0,0.3,0,0.5,0.1c-0.3,0-0.5-0.1-0.7-0.2c0.1,0.1,0.3,0.1,0.4,0.2c-0.2-0.1-0.5-0.2-0.7-0.4
		c0.1,0.1,0.3,0.2,0.4,0.3c-0.2-0.2-0.4-0.4-0.6-0.6c0.1,0.1,0.2,0.3,0.3,0.4c-0.2-0.2-0.3-0.4-0.4-0.7c0.1,0.1,0.1,0.3,0.2,0.4
		c-0.1-0.2-0.1-0.4-0.2-0.6c0,0.2,0,0.3,0.1,0.5c0-0.2,0-0.3,0-0.5c0,0.2,0,0.3-0.1,0.5c0-0.1,0.1-0.2,0.1-0.4
		c-0.1,0.1-0.1,0.3-0.2,0.4c0,0,0-0.1,0.1-0.1c-0.1,0.1-0.2,0.3-0.3,0.4c0.1-0.1,0.2-0.2,0.3-0.3c-0.1,0.1-0.3,0.2-0.4,0.3
		c0.3-0.3,0.7-0.5,1.1-0.7c-0.1,0.1-0.3,0.1-0.4,0.2c0,0,0.1,0,0.1,0c-0.2,0-0.3,0-0.5,0.1c0,0,0,0,0,0c-0.2,0-0.3,0-0.5-0.1
		c0,0,0,0,0,0c-0.1-0.1-0.3-0.1-0.4-0.2c0,0,0,0,0,0c-0.2-0.2-0.4-0.4-0.7-0.7c0,0,0,0,0,0c-0.1-0.1-0.1-0.3-0.2-0.4c0,0,0,0,0,0
		c0-0.3,0-0.7,0-1c0,0,0,0,0,0c0.1-0.1,0.1-0.3,0.2-0.4c0,0,0,0,0,0c0.1-0.1,0.2-0.3,0.3-0.4c-0.1,0.1-0.2,0.2-0.4,0.4
		c-0.3,0.3-0.5,0.9-0.5,1.3c0,0.5,0.2,1,0.5,1.3c0.4,0.3,0.8,0.6,1.3,0.5C744.9,225.8,745.3,225.6,745.7,225.3L745.7,225.3z"/>
	<path d="M744.6,199.1c-0.1,0.6-0.3,1.2-0.4,1.9c-0.1,0.3-0.1,0.6-0.2,0.9c0,0.1-0.1,0.2-0.1,0.3c0,0.1,0,0.3,0,0.1
		c0,0,0.1-0.1,0.1-0.1c-0.1,0.1-0.2,0.1-0.3,0.2c-0.3,0.2-0.5,0.3-0.8,0.5c-0.6,0.3-1.2,0.7-1.8,1c-2.2,1.2-4.5,2.3-6.8,3.4
		c-1.1,0.5-2.2,0.9-2.9,2c-0.7,1.1-0.7,2.8,0.3,3.8c1.1,1.1,2.6,0.8,4,0.6c1.3-0.2,2.7-0.4,4-0.6c1.5-0.2,2.9-0.4,4.4-0.6
		c0.2,0,0.6,0,0.8-0.1c0.3-0.2-0.1,0,0,0c-0.6-0.8-0.8-1-0.6-0.6c0,0.1,0,0.1,0,0.2c0.1,0.6,0.1,1.3,0.1,1.9c-0.1,1,0.9,1.9,1.9,1.9
		c1.1,0,1.8-0.9,1.9-1.9c0.1-1.2,0.1-2.7-0.5-3.8c-0.8-1.5-2.3-1.5-3.8-1.3c-2.6,0.4-5.1,0.8-7.7,1.1c-0.5,0.1-1.1,0.1-1.6,0.2
		c-0.2,0-0.6,0-0.7,0c0.4-0.2,0.9,0.7,0.9,1c0,0-0.1,0.2-0.1,0.2c0,0.1-0.4,0.2,0.1-0.1c0,0-0.2,0.1,0,0c0.2-0.1,0.4-0.2,0.6-0.3
		c0.6-0.2,1.1-0.5,1.7-0.7c2.3-1,4.5-2.1,6.7-3.4c1.2-0.7,2.7-1.3,3.4-2.5c0.3-0.6,0.4-1.2,0.6-1.9c0.2-0.7,0.3-1.5,0.5-2.2
		c0.2-1-0.3-2-1.3-2.3C745.9,197.5,744.8,198.1,744.6,199.1L744.6,199.1z"/>
	<path d="M750.8,215.2c-0.2-1.5-0.1-3,0.2-4.4c0.1-0.4,0.3-1.2,0.4-1.4c0.2-0.2,0.5-0.3,0.8-0.5c0.4-0.2,0.7-0.4,1-0.7
		c1.4-1,2.7-3,1.1-4.6c-0.7-0.7-1.6-0.9-2.6-0.7c-0.4,0.1-0.7,0.2-1.1,0.3c-0.2,0-0.4,0.1-0.5,0.1c-0.1,0-0.2,0-0.2,0.1
		c-0.2,0.1-0.2,0,0.2,0c0.3,0.2,0.6,0.3,0.8,0.5c0.1,0.1-0.1-0.4-0.1-0.5c-0.1-0.3-0.1-0.6-0.1-0.9c0-0.6,0.1-1.2,0.4-1.7
		c0.4-0.9,0.3-2-0.7-2.6c-0.8-0.5-2.1-0.2-2.6,0.7c-0.9,1.9-1.2,4.2-0.5,6.2c0.4,1.2,1.3,2.2,2.6,2.1c0.5,0,1-0.2,1.5-0.3
		c0.3-0.1,0.5-0.2,0.8-0.2c0.3-0.1,0.1,0,0,0c-0.3-0.2-0.6-0.3-0.8-0.5c-0.1-0.1-0.1-0.2-0.2-0.3c0-0.3,0-0.7,0-1
		c-0.1,0.6,0,0.1,0,0.1c-0.1,0-0.3,0.3-0.4,0.3c-0.4,0.3-0.8,0.5-1.2,0.7c-1.1,0.7-1.7,1.6-2.1,2.8c-0.8,2.4-0.9,4.9-0.5,7.4
		c0.2,1,1.4,1.6,2.3,1.3C750.6,217.2,751,216.2,750.8,215.2L750.8,215.2z"/>
	<path d="M624.4,156.4c-0.4,2.4-0.5,4.9-0.4,7.4c0,0.7,0.5,1.3,1.3,1.3c0.6,0,1.3-0.6,1.3-1.3c-0.1-1.2-0.1-2.3,0-3.5
		c0-0.6,0.1-1.1,0.1-1.7c0.1-0.6,0.1-1.1,0.2-1.6c0.1-0.6-0.2-1.4-0.9-1.5C625.3,155.4,624.5,155.7,624.4,156.4L624.4,156.4z"/>
	<path d="M623.9,171c0.1,2.6,0,5.2-0.3,7.8c-0.1,0.7,0.6,1.3,1.3,1.3c0.7,0,1.2-0.6,1.3-1.3c0.3-2.6,0.4-5.2,0.3-7.8
		c0-0.7-0.6-1.3-1.3-1.3C624.5,169.8,623.9,170.3,623.9,171L623.9,171z"/>
	<path d="M624.1,187.2c-0.1,2.4-0.3,4.7-0.4,7.1c0,0.7,0.6,1.3,1.3,1.3c0.7,0,1.2-0.5,1.3-1.3c0.1-2.4,0.3-4.7,0.4-7.1
		c0-0.7-0.6-1.3-1.3-1.3C624.6,185.9,624.1,186.5,624.1,187.2L624.1,187.2z"/>
	<path d="M624,201.2c-0.1,2-0.3,4.1-0.4,6.1c0,0.7,0.6,1.3,1.3,1.3c0.7,0,1.2-0.5,1.3-1.3c0.1-2,0.3-4.1,0.4-6.1
		c0-0.7-0.6-1.3-1.3-1.3C624.5,200,624.1,200.5,624,201.2L624,201.2z"/>
	<path d="M624.2,216.4c-0.3,2.7-0.5,5.3-0.8,8c-0.1,0.7,0.6,1.3,1.3,1.3c0.7,0,1.2-0.6,1.3-1.3c0.3-2.7,0.5-5.3,0.8-8
		c0.1-0.7-0.6-1.3-1.3-1.3C624.8,215.2,624.3,215.7,624.2,216.4L624.2,216.4z"/>
	<path d="M623.6,230.3c-0.3,2.5-0.3,5.1,0,7.6c0.1,0.6,0.5,1.3,1.3,1.3c0.6,0,1.3-0.6,1.3-1.3c-0.3-2.5-0.3-5.1,0-7.6
		c0.1-0.7-0.6-1.3-1.3-1.3C624.1,229.1,623.7,229.6,623.6,230.3L623.6,230.3z"/>
	<path d="M624.4,247c0,2,0,4.1,0,6.1c0,0.7,0.6,1.3,1.3,1.3c0.7,0,1.3-0.5,1.3-1.3c0-2,0-4.1,0-6.1c0-0.7-0.6-1.3-1.3-1.3
		C624.9,245.8,624.4,246.3,624.4,247L624.4,247z"/>
	<path d="M625,261.5c-0.4,2.3-0.3,4.7,0.2,7c0.1,0.6,0.9,1.1,1.5,0.9c0.7-0.2,1-0.9,0.9-1.5c-0.1-0.3-0.1-0.5-0.1-0.8
		c0-0.1,0-0.3-0.1-0.4c0-0.3,0,0.2,0-0.1c-0.1-0.5-0.1-1-0.1-1.5c0-0.5,0-1,0-1.5c0-0.2,0-0.5,0.1-0.7c0-0.1,0-0.2,0-0.4
		c0,0.3,0-0.2,0-0.3c0.1-0.6-0.2-1.4-0.9-1.5C625.9,260.5,625.1,260.8,625,261.5L625,261.5z"/>
	<path d="M625.7,269.9c1.8,0.9,3.7,1.5,5.7,1.9c0.6,0.1,1.4-0.2,1.5-0.9c0.1-0.6-0.2-1.4-0.9-1.5c-0.9-0.2-1.8-0.4-2.7-0.7
		c-0.4-0.1-0.9-0.3-1.3-0.5c-0.1,0-0.2-0.1-0.3-0.1c-0.1-0.1-0.1-0.1,0,0c-0.1,0-0.1-0.1-0.2-0.1c-0.2-0.1-0.4-0.2-0.6-0.3
		c-0.6-0.3-1.4-0.2-1.7,0.4C624.9,268.7,625,269.6,625.7,269.9L625.7,269.9z"/>
	<path d="M636.3,271.6c0.5,1.5,2,1.8,3.4,2c1.5,0.2,3,0.3,4.5,0.5c0.7,0.1,1.3-0.6,1.3-1.3c0-0.7-0.6-1.2-1.3-1.3
		c-1.3-0.1-2.5-0.3-3.8-0.4c-0.3,0-0.6-0.1-0.9-0.1c-0.4,0,0.3,0.1-0.1,0c-0.1,0-0.2,0-0.3-0.1c-0.1,0-0.3-0.1-0.3-0.1
		c0.2,0.1,0.2,0.1,0.1,0c0,0,0,0-0.1,0c0,0-0.1-0.1-0.1-0.1c0.1,0.1,0.2,0.1,0.1,0c0.1,0.2,0.1,0.2,0.1,0.1c0.1,0.2,0.1,0.2,0,0.1
		c-0.2-0.6-0.9-1.1-1.5-0.9C636.6,270.3,636.1,271,636.3,271.6L636.3,271.6z"/>
	<path d="M649.8,275.2c1.9,0.8,3.9,1.5,5.9,1.9c0.6,0.1,1.4-0.2,1.5-0.9c0.1-0.6-0.2-1.4-0.9-1.5c-0.9-0.2-1.9-0.4-2.8-0.7
		c-0.5-0.1-0.9-0.3-1.3-0.5c-0.2-0.1-0.5-0.2-0.7-0.3c-0.1,0-0.2-0.1-0.3-0.1c0,0-0.5-0.2-0.2-0.1c-0.3-0.1-0.6-0.2-1-0.1
		c-0.3,0.1-0.6,0.3-0.7,0.6C649,274.1,649.1,275,649.8,275.2L649.8,275.2z"/>
	<path d="M662,278.4c2.2,0.7,4.5,1.4,6.8,1.9c0.6,0.1,1.4-0.2,1.5-0.9c0.1-0.6-0.2-1.4-0.9-1.5c-2.3-0.5-4.6-1.2-6.8-1.9
		c-0.6-0.2-1.4,0.2-1.5,0.9C660.9,277.6,661.3,278.2,662,278.4L662,278.4z"/>
	<path d="M674.9,281.9c1.8,0.5,3.7,1,5.6,1.3c0.6,0.1,1.4-0.2,1.5-0.9c0.1-0.6-0.2-1.4-0.9-1.5c-1.9-0.3-3.8-0.8-5.6-1.3
		c-0.6-0.2-1.4,0.2-1.5,0.9C673.9,281,674.2,281.7,674.9,281.9L674.9,281.9z"/>
	<path d="M688.5,285c1.7,0.5,3.4,0.8,5.2,0.9c0.7,0.1,1.3-0.6,1.3-1.3c0-0.7-0.6-1.2-1.3-1.3c-0.4,0-0.8-0.1-1.2-0.1c0.3,0,0,0,0,0
		c-0.1,0-0.2,0-0.3,0c-0.2,0-0.4-0.1-0.6-0.1c-0.8-0.1-1.6-0.3-2.3-0.6c-0.6-0.2-1.4,0.2-1.5,0.9C687.4,284.1,687.8,284.8,688.5,285
		L688.5,285z"/>
	<path d="M699.5,288.4c2.1,0.5,4.3,0.8,6.5,0.8c0.7,0,1.3-0.6,1.3-1.3c0-0.7-0.5-1.3-1.3-1.3c-1,0-2-0.1-3-0.2c0,0-0.4,0-0.2,0
		c0.1,0,0.1,0-0.1,0c-0.1,0-0.2,0-0.2,0c-0.2,0-0.5-0.1-0.7-0.1c-0.5-0.1-1-0.2-1.5-0.3c-0.6-0.2-1.4,0.2-1.5,0.9
		C698.5,287.5,698.9,288.3,699.5,288.4L699.5,288.4z"/>
	<path d="M600.3,278.1c1.9-0.3,3.7-1.1,5.3-2c0.6-0.3,0.8-1.1,0.4-1.7c-0.4-0.6-1.1-0.8-1.7-0.4c-0.4,0.2-0.8,0.5-1.2,0.7
		c-0.2,0.1-0.4,0.2-0.6,0.3c-0.1,0.1-0.1,0,0.1,0c-0.1,0-0.1,0-0.2,0.1c-0.1,0-0.2,0.1-0.3,0.1c-0.8,0.3-1.7,0.6-2.6,0.7
		c-0.6,0.1-1.1,0.9-0.9,1.5C599,277.9,599.7,278.2,600.3,278.1L600.3,278.1z"/>
	<path d="M610.8,274c1.9-0.4,3.9-0.9,5.7-1.5c0.6-0.2,1.1-0.9,0.9-1.5c-0.2-0.6-0.9-1.1-1.5-0.9c-1.9,0.7-3.8,1.2-5.7,1.5
		c-0.6,0.1-1.1,0.9-0.9,1.5C609.4,273.9,610.1,274.2,610.8,274L610.8,274z"/>
	<path d="M620.8,271.2c2-0.2,4.1-0.5,5.6-1.9c0.5-0.4,0.5-1.3,0-1.8c-0.5-0.5-1.3-0.5-1.8,0c-0.1,0.1-0.2,0.1-0.2,0.2
		c0,0,0.2-0.2,0.1-0.1c0,0-0.1,0.1-0.1,0.1c-0.2,0.1-0.3,0.2-0.5,0.3c-0.1,0-0.2,0.1-0.3,0.1c0,0,0.3-0.1,0.1,0c0,0-0.1,0-0.1,0.1
		c-0.2,0.1-0.4,0.1-0.6,0.2c-0.4,0.1-0.8,0.2-1.2,0.2c-0.1,0-0.2,0-0.3,0c-0.2,0,0.3,0,0.1,0c0,0-0.1,0-0.1,0
		c-0.2,0-0.4,0.1-0.6,0.1c-0.3,0-0.6,0.1-0.9,0.4c-0.2,0.2-0.4,0.6-0.4,0.9C619.5,270.6,620.1,271.3,620.8,271.2L620.8,271.2z"/>
	<path d="M733.9,251.8c-4.6-2.6-8.8-6.7-9.9-12c-0.6-2.5-0.1-5.1,0.6-7.6c0.9-3.6,2.2-7,3.8-10.2c0.7-1.4-1.5-2.7-2.2-1.3
		c-1.7,3.5-3.2,7.2-4.1,11.1c-0.7,2.9-1.1,5.8-0.5,8.7c1.3,5.9,6,10.6,11.1,13.5C734.1,254.7,735.3,252.6,733.9,251.8L733.9,251.8z"
		/>
	<path d="M725.2,220.6c1.2,0.7,2.5,1.3,3.9,1.7c0.4,0.1,0.8,0,1.1-0.2c0.3-0.2,0.5-0.6,0.5-1c-0.2-1.5-0.4-3-0.6-4.4
		c-0.1-0.5-0.2-0.8-0.6-1.1c-0.4-0.2-0.9-0.2-1.3,0c-1.6,0.8-3,2.1-3.9,3.7c-0.3,0.6-0.1,1.4,0.4,1.7c0.6,0.3,1.3,0.1,1.7-0.4
		c0.1-0.2,0.2-0.3,0.3-0.5c0.1-0.1,0.1-0.2,0.2-0.2c0,0-0.2,0.2-0.1,0.1c0,0,0.1-0.1,0.1-0.1c0.3-0.3,0.5-0.6,0.8-0.9
		c0.1-0.1,0.3-0.3,0.4-0.4c0,0,0.1-0.1,0.1-0.1c0.1-0.1-0.2,0.2-0.1,0.1c0.1-0.1,0.2-0.1,0.2-0.2c0.3-0.2,0.7-0.4,1-0.6
		c-0.6-0.4-1.3-0.7-1.9-1.1c0.2,1.5,0.4,3,0.6,4.4c0.5-0.4,1.1-0.8,1.6-1.2c-0.3-0.1-0.6-0.2-0.9-0.3c-0.1-0.1-0.3-0.1-0.4-0.2
		c-0.1,0-0.1,0,0.1,0c0,0-0.1,0-0.1,0c-0.1,0-0.1-0.1-0.2-0.1c-0.6-0.3-1.1-0.6-1.7-0.9c-0.6-0.3-1.4-0.1-1.7,0.4
		C724.4,219.5,724.6,220.3,725.2,220.6L725.2,220.6z"/>
	<g>
		<g>
			<path d="M727,220.1c1.6,0,1.6-2.5,0-2.5C725.4,217.6,725.4,220.1,727,220.1L727,220.1z"/>
		</g>
	</g>
	<path d="M758,216.2c1.2-1.1,2.4-2.2,3.5-3.4c0.4-0.4,0.5-0.9,0.3-1.4c-0.2-0.5-0.6-0.7-1.1-0.8c-0.4,0-0.8,0-1.1-0.1
		c-0.1,0-0.2,0-0.3,0c-0.1,0-0.1,0-0.2,0c0.2,0,0.2,0,0.1,0c-0.2,0-0.4-0.1-0.6-0.1c-0.7-0.1-1.5-0.3-2.2-0.5
		c-0.9-0.3-1.8,0.6-1.5,1.5c0.4,1.2,0.8,2.4,1.3,3.6c0.1,0.3,0.3,0.6,0.6,0.7c0.3,0.2,0.7,0.2,1,0.1c0.3-0.1,0.6-0.3,0.7-0.6
		c0.1-0.3,0.3-0.7,0.1-1c-0.5-1.2-0.9-2.4-1.3-3.6c-0.5,0.5-1,1-1.5,1.5c1.6,0.5,3.2,0.7,4.9,0.8c-0.3-0.7-0.6-1.4-0.9-2.1
		c-1.1,1.2-2.3,2.3-3.5,3.4c-0.5,0.4-0.5,1.3,0,1.8C756.8,216.6,757.5,216.6,758,216.2L758,216.2z"/>
	<path d="M663,197.5c-0.4,0.2-0.8,0.3-1.2,0.6c-0.4,0.2-0.7,0.5-1,0.8c-0.6,0.5-1.1,1.2-1.4,1.8c-0.2,0.3-0.2,0.6-0.1,1
		c0.1,0.3,0.3,0.6,0.6,0.7c0.6,0.3,1.4,0.2,1.7-0.4c0.2-0.3,0.3-0.6,0.5-0.8c-0.1,0.1-0.1,0.2-0.2,0.3c0.3-0.4,0.6-0.7,1-1
		c-0.1,0.1-0.2,0.1-0.3,0.2c0.4-0.3,0.8-0.5,1.2-0.7c-0.1,0-0.2,0.1-0.3,0.1c0,0,0.1,0,0.1-0.1c0.3-0.1,0.6-0.3,0.7-0.6
		c0.2-0.3,0.2-0.7,0.1-1c-0.1-0.3-0.3-0.6-0.6-0.7C663.7,197.5,663.3,197.4,663,197.5L663,197.5z"/>
	<path d="M658.2,206c-0.7,1-0.5,2.2-0.3,3.3c0.3,1.1,0.7,2.1,1.2,3.1c0.3,0.6,1.2,0.8,1.7,0.4c0.6-0.4,0.8-1.1,0.4-1.7
		c-0.1-0.2-0.2-0.4-0.3-0.6c0-0.1-0.2-0.4,0-0.1c-0.1-0.1-0.1-0.2-0.1-0.3c-0.2-0.4-0.3-0.8-0.4-1.2c-0.1-0.2-0.1-0.4-0.1-0.6
		c0-0.1,0-0.1,0-0.2c0,0.2,0,0.2,0,0.1c0-0.1,0-0.2,0-0.2c0-0.1,0-0.2,0-0.3c0-0.3-0.1,0.3,0,0c0-0.1,0.1-0.2,0.1-0.3
		c-0.1,0.2-0.1,0.2,0,0.1c0,0,0.1-0.1,0.1-0.1c0.4-0.5,0.1-1.4-0.4-1.7C659.3,205.3,658.6,205.5,658.2,206L658.2,206z"/>
	<path d="M662,217.3c0.2,0.8,0.9,1.3,1.7,1.6c0.6,0.3,1.2,0.6,1.8,0.9c0.3,0.2,0.6,0.2,1,0.1c0.3-0.1,0.6-0.3,0.7-0.6
		c0.2-0.3,0.2-0.6,0.1-1c-0.1-0.3-0.3-0.6-0.6-0.7c-0.5-0.2-0.9-0.5-1.4-0.7c-0.4-0.2-0.8-0.4-1.2-0.6c0.1,0.1,0.2,0.1,0.3,0.2
		c-0.1-0.1-0.1-0.1-0.2-0.2c0.1,0.1,0.1,0.2,0.2,0.3c0-0.1-0.1-0.1-0.1-0.2c0,0.1,0.1,0.2,0.1,0.3c0,0,0-0.1,0-0.1
		c-0.1-0.3-0.3-0.6-0.6-0.7c-0.3-0.2-0.7-0.2-1-0.1C662.2,216,661.8,216.6,662,217.3L662,217.3z"/>
	<path d="M674.3,220.7c0.9-0.2,1.7-0.5,2.5-0.9c0.3-0.1,0.5-0.5,0.6-0.7c0.1-0.3,0-0.7-0.1-1c-0.2-0.3-0.4-0.5-0.7-0.6
		c-0.1,0-0.2,0-0.3,0c-0.2,0-0.4,0.1-0.6,0.2c-0.2,0.1-0.3,0.2-0.5,0.2c0.1,0,0.2-0.1,0.3-0.1c-0.6,0.2-1.2,0.4-1.7,0.6
		c-0.3,0.1-0.6,0.3-0.7,0.6c-0.2,0.3-0.2,0.7-0.1,1c0.1,0.3,0.3,0.6,0.6,0.7C673.6,220.7,674,220.7,674.3,220.7L674.3,220.7z"/>
	<path d="M682,213.7c0.5-1.8,0.5-3.6,0.2-5.4c0-0.3-0.3-0.6-0.6-0.7c-0.3-0.2-0.7-0.2-1-0.1c-0.7,0.2-1,0.8-0.9,1.5
		c0,0,0.1,0.4,0,0.2c0-0.2,0,0.1,0,0.2c0,0.2,0,0.4,0,0.5c0,0.4,0,0.8,0,1.1c0,0.2,0,0.4,0,0.5c0,0.1,0,0.2,0,0.3c0,0.3,0-0.2,0,0.1
		c-0.1,0.4-0.1,0.8-0.2,1.1c-0.2,0.6,0.2,1.4,0.9,1.5C681.1,214.7,681.8,214.4,682,213.7L682,213.7z"/>
	<path d="M668.7,198.6c0.3-0.1,0.6-0.1,0.8-0.2c-0.1,0-0.2,0-0.3,0c0.6-0.1,1.3-0.1,1.9,0c-0.1,0-0.2,0-0.3,0
		c0.4,0.1,0.8,0.1,1.1,0.2c0.6,0.2,1.4-0.2,1.5-0.9c0.2-0.7-0.2-1.3-0.9-1.5c-1.5-0.4-3.1-0.4-4.6-0.1c-0.6,0.2-1.1,0.9-0.9,1.5
		C667.3,198.3,668,198.7,668.7,198.6L668.7,198.6z"/>
	<path d="M675.8,201.3c0.2,0.1,0.5,0.3,0.7,0.4c-0.1-0.1-0.2-0.1-0.3-0.2c0.3,0.2,0.6,0.5,0.8,0.8c-0.1-0.1-0.1-0.2-0.2-0.3
		c0.2,0.3,0.4,0.6,0.6,1c0-0.1-0.1-0.2-0.1-0.3c0.1,0.2,0.2,0.4,0.2,0.6c0.1,0.3,0.3,0.6,0.6,0.7c0.3,0.2,0.7,0.2,1,0.1
		c0.7-0.2,1-0.9,0.9-1.5c-0.4-1.5-1.5-2.9-2.9-3.6c-0.3-0.2-0.6-0.2-1-0.1c-0.3,0.1-0.6,0.3-0.7,0.6c-0.2,0.3-0.2,0.6-0.1,1
		C675.4,200.9,675.6,201.2,675.8,201.3L675.8,201.3z"/>
	<path d="M667.5,206.2c-0.3,0.2-0.5,0.4-0.7,0.7c0,0-0.1,0.1-0.1,0.2c-0.1,0.1-0.1,0.3-0.2,0.4c0,0.1,0,0.3-0.1,0.4c0,0,0,0.1,0,0.1
		c0,0.2,0,0.3,0.1,0.5c0,0.1,0,0.1,0,0.2c0.1,0.1,0.1,0.3,0.2,0.4c0.1,0.1,0.2,0.3,0.3,0.4c0.1,0.1,0.3,0.2,0.4,0.2
		c0.2,0.1,0.3,0.1,0.5,0c0.2,0,0.3-0.1,0.5-0.1c0.1-0.1,0.2-0.1,0.3-0.2c0.2-0.2,0.3-0.3,0.3-0.6c0-0.1,0-0.2,0-0.3
		c0-0.2-0.1-0.4-0.2-0.6c0,0-0.1-0.1-0.1-0.1c0,0.1,0.1,0.2,0.1,0.3c0-0.1,0-0.1-0.1-0.2c0,0.1,0,0.2,0,0.3c0-0.1,0-0.2,0-0.2
		c0,0.1,0,0.2,0,0.3c0-0.1,0-0.1,0.1-0.2c0,0.1-0.1,0.2-0.1,0.3c0-0.1,0.1-0.1,0.1-0.2c-0.1,0.1-0.1,0.2-0.2,0.3
		c0,0,0.1-0.1,0.1-0.1c-0.1,0.1-0.2,0.1-0.3,0.2c0,0,0.1,0,0.1-0.1c0.1-0.1,0.3-0.2,0.4-0.3c0.1-0.1,0.2-0.3,0.2-0.4
		c0.1-0.2,0.1-0.3,0-0.5c0-0.2-0.1-0.3-0.1-0.5c-0.1-0.1-0.1-0.2-0.2-0.3c-0.2-0.2-0.3-0.3-0.6-0.3c-0.1,0-0.2,0-0.3,0
		C667.9,206.1,667.7,206.1,667.5,206.2L667.5,206.2z"/>
	<path d="M670.9,212.4c0.3-0.1,0.7-0.2,1-0.3c0.2,0,0.3-0.1,0.4-0.2c0.1-0.1,0.2-0.2,0.3-0.4c0.1-0.1,0.1-0.3,0.1-0.5
		c0-0.2,0-0.3,0-0.5c0-0.1-0.1-0.2-0.1-0.3c-0.1-0.2-0.3-0.3-0.4-0.4c-0.1,0-0.2-0.1-0.3-0.1c-0.2-0.1-0.4-0.1-0.7,0
		c-0.3,0.1-0.7,0.2-1,0.3c-0.2,0-0.3,0.1-0.4,0.2c-0.1,0.1-0.2,0.2-0.3,0.4c-0.1,0.1-0.1,0.3-0.1,0.5c0,0.2,0,0.3,0,0.5
		c0,0.1,0.1,0.2,0.1,0.3c0.1,0.2,0.3,0.3,0.4,0.4c0.1,0,0.2,0.1,0.3,0.1C670.4,212.4,670.7,212.4,670.9,212.4L670.9,212.4z"/>
	<path d="M670.5,207.7c0.1,0,0.1,0,0.2,0c-0.1,0-0.2,0-0.3,0c0.1,0,0.2,0,0.3,0.1c-0.1,0-0.2-0.1-0.3-0.1c0.1,0,0.2,0.1,0.3,0.2
		c-0.1-0.1-0.2-0.1-0.3-0.2c0.1,0.1,0.2,0.2,0.3,0.3C670.5,207.7,670.5,207.6,670.5,207.7c0,0,0.1,0.1,0.1,0.2
		c0-0.1-0.1-0.2-0.1-0.3c0,0.1,0.1,0.2,0.1,0.3c0-0.1,0-0.2,0-0.3c0,0.1,0,0.2,0,0.3c0,0.2,0,0.3,0.1,0.5c0.1,0.2,0.1,0.3,0.3,0.4
		c0.1,0.1,0.2,0.2,0.4,0.3c0.1,0.1,0.3,0.1,0.5,0.1c0.3,0,0.7-0.1,0.9-0.4c0.1-0.1,0.1-0.2,0.2-0.3c0.1-0.2,0.2-0.4,0.2-0.6
		c0-0.2,0-0.3,0-0.4c0-0.1,0-0.3-0.1-0.4c-0.1-0.2-0.1-0.4-0.2-0.5c-0.1-0.2-0.2-0.3-0.4-0.5c-0.1-0.1-0.3-0.3-0.4-0.4
		c-0.1-0.1-0.2-0.1-0.2-0.1c-0.2-0.1-0.4-0.2-0.5-0.2c-0.2,0-0.4-0.1-0.6-0.1c-0.3,0-0.7,0.1-0.9,0.4c-0.1,0.1-0.2,0.2-0.3,0.4
		c-0.1,0.1-0.1,0.3-0.1,0.5c0,0.3,0.1,0.7,0.4,0.9C669.8,207.5,670.1,207.7,670.5,207.7L670.5,207.7z"/>
	<path d="M668.2,222.2c0,0.6,0,1.1,0,1.7c0,0.3,0.1,0.7,0.4,0.9c0.1,0.1,0.2,0.2,0.4,0.3c0.1,0.1,0.3,0.1,0.5,0.1
		c0.3,0,0.7-0.1,0.9-0.4c0.2-0.2,0.4-0.5,0.4-0.9c0-0.6,0-1.1,0-1.7c0-0.3-0.1-0.7-0.4-0.9c-0.1-0.1-0.2-0.2-0.4-0.3
		c-0.1-0.1-0.3-0.1-0.5-0.1c-0.3,0-0.7,0.1-0.9,0.4C668.4,221.5,668.2,221.8,668.2,222.2L668.2,222.2z"/>
	<path d="M667.3,225.6c-0.8,0.1-1.7,0.2-2.5,0.2c-0.3,0-0.6,0.1-0.9,0.4c-0.2,0.2-0.4,0.6-0.4,0.9c0,0.3,0.1,0.7,0.4,0.9
		c0.2,0.2,0.6,0.4,0.9,0.4c0.8-0.1,1.7-0.2,2.5-0.2c0.3,0,0.6-0.1,0.9-0.4c0.2-0.2,0.4-0.6,0.4-0.9c0-0.3-0.1-0.7-0.4-0.9
		C668,225.7,667.6,225.6,667.3,225.6L667.3,225.6z"/>
	<path d="M659.9,227.3c-0.7,0-1.5,0.1-2.2,0.1c-0.3,0-0.6,0.1-0.9,0.4c-0.2,0.2-0.4,0.6-0.4,0.9c0,0.3,0.1,0.7,0.4,0.9
		c0.2,0.2,0.5,0.4,0.9,0.4c0.7,0,1.5-0.1,2.2-0.1c0.3,0,0.6-0.1,0.9-0.4c0.2-0.2,0.4-0.6,0.4-0.9c0-0.3-0.1-0.7-0.4-0.9
		C660.5,227.4,660.2,227.3,659.9,227.3L659.9,227.3z"/>
	<path d="M654.2,229.3c-0.3,0.4-0.5,0.7-0.6,1.2c-0.1,0.3-0.1,0.7-0.1,1.1c0.1,0.5,0.2,0.9,0.4,1.3c0.2,0.4,0.5,0.7,0.9,1
		c0.9,0.7,2.1,0.5,2.9-0.2c0.7-0.8,0.9-1.8,0.7-2.8c-0.1-0.4-0.3-0.9-0.5-1.3c-0.3-0.6-0.9-1.1-1.6-1c-0.3,0-0.6,0.1-0.9,0.4
		c-0.2,0.2-0.4,0.6-0.4,0.9c0,0.3,0.1,0.7,0.4,0.9c0.2,0.2,0.6,0.4,0.9,0.4c0,0,0.1,0,0.1,0c-0.1,0-0.2,0-0.3,0c0,0,0.1,0,0.1,0
		c-0.1,0-0.2-0.1-0.3-0.1c0,0,0.1,0,0.1,0.1c-0.1-0.1-0.2-0.1-0.3-0.2c0,0,0.1,0.1,0.1,0.1c-0.1-0.1-0.1-0.2-0.2-0.3
		c0.1,0.1,0.1,0.2,0.2,0.3c0-0.1-0.1-0.2-0.1-0.3c0.1,0.4,0.3,0.7,0.3,1.1c0-0.1,0-0.2,0-0.3c0,0.2,0,0.4,0,0.5c0-0.1,0-0.2,0-0.3
		c0,0.1,0,0.3-0.1,0.4c0-0.1,0.1-0.2,0.1-0.3c0,0.1-0.1,0.2-0.2,0.3c0.1-0.1,0.1-0.2,0.2-0.3c-0.1,0.1-0.1,0.2-0.2,0.2
		c0.1-0.1,0.2-0.1,0.3-0.2c-0.1,0.1-0.1,0.1-0.2,0.1c0.1,0,0.2-0.1,0.3-0.1c-0.1,0-0.1,0-0.2,0.1c0.1,0,0.2,0,0.3,0
		c-0.1,0-0.2,0-0.2,0c0.1,0,0.2,0,0.3,0c-0.1,0-0.2,0-0.2-0.1c0.1,0,0.2,0.1,0.3,0.1c-0.1-0.1-0.2-0.1-0.3-0.2
		c0.1,0.1,0.2,0.1,0.3,0.2c-0.1-0.1-0.2-0.2-0.3-0.3c0.1,0.1,0.1,0.2,0.2,0.3c-0.1-0.1-0.2-0.3-0.2-0.4c0,0.1,0.1,0.2,0.1,0.3
		c-0.1-0.2-0.1-0.3-0.1-0.5c0,0.1,0,0.2,0,0.3c0-0.2,0-0.3,0-0.5c0,0.1,0,0.2,0,0.3c0-0.2,0.1-0.3,0.1-0.5c0,0.1-0.1,0.2-0.1,0.3
		c0.1-0.1,0.1-0.2,0.2-0.3c-0.1,0.1-0.1,0.2-0.2,0.3c0,0,0,0,0,0c0.2-0.3,0.4-0.5,0.4-0.9c0-0.3-0.1-0.7-0.4-0.9
		c-0.2-0.2-0.6-0.4-0.9-0.4C654.7,229,654.4,229.1,654.2,229.3L654.2,229.3z"/>
	<path d="M659,233.9c0.3-0.2,0.7-0.4,1.1-0.5c-0.1,0-0.2,0.1-0.3,0.1c0.4-0.2,0.8-0.3,1.2-0.4c0.3-0.1,0.6-0.3,0.7-0.6
		c0.2-0.3,0.2-0.7,0.1-1c-0.1-0.3-0.3-0.6-0.6-0.7c-0.3-0.2-0.6-0.2-1-0.1c-0.9,0.2-1.7,0.6-2.5,1.1c-0.3,0.2-0.5,0.4-0.6,0.7
		c-0.1,0.3,0,0.7,0.1,1c0.2,0.3,0.4,0.5,0.7,0.6C658.4,234.1,658.8,234.1,659,233.9L659,233.9z"/>
	<path d="M664.7,232.2c0.6-0.2,1.1-0.3,1.7-0.5c0.3-0.1,0.6-0.3,0.7-0.6c0.1-0.1,0.1-0.3,0.1-0.5c0-0.2,0-0.3,0-0.5
		c-0.1-0.3-0.3-0.6-0.6-0.7c-0.3-0.2-0.6-0.2-1-0.1c-0.6,0.2-1.1,0.3-1.7,0.5c-0.3,0.1-0.6,0.3-0.7,0.6c-0.1,0.1-0.1,0.3-0.1,0.5
		c0,0.2,0,0.3,0,0.5c0.1,0.3,0.3,0.6,0.6,0.7C664,232.2,664.4,232.3,664.7,232.2L664.7,232.2z"/>
	<path d="M670.1,231.3C670.1,231.2,670.1,231.2,670.1,231.3c0,0-0.1,0.1-0.2,0.2c0,0,0,0,0.1-0.1c-0.1,0.1-0.2,0.1-0.3,0.2
		c0,0,0.1,0,0.1,0c-0.1,0-0.2,0.1-0.3,0.1c0,0,0.1,0,0.1,0c-0.1,0-0.2,0-0.3,0c0,0,0.1,0,0.1,0c-0.1,0-0.2,0-0.3,0
		c0.1,0,0.1,0,0.1,0c-0.1,0-0.2-0.1-0.3-0.1c0,0,0.1,0,0.1,0.1c-0.1-0.1-0.2-0.1-0.3-0.2c0,0,0.1,0.1,0.1,0.1
		c-0.1-0.1-0.1-0.2-0.2-0.3c0,0.1,0.1,0.1,0.1,0.2c0-0.1-0.1-0.2-0.1-0.3c0,0.1,0.1,0.2,0.1,0.3c0-0.1,0-0.2,0-0.3
		c0,0.2,0,0.4,0,0.6c0,0.2,0,0.5,0,0.7c0,0.3,0.1,0.7,0.4,0.9c0.2,0.2,0.6,0.4,0.9,0.4c0.3,0,0.7-0.1,0.9-0.4
		c0.2-0.2,0.4-0.5,0.4-0.9c0-0.3,0-0.7,0-1c0-0.2,0-0.5-0.1-0.7c0-0.1,0-0.1-0.1-0.2c-0.1-0.2-0.1-0.3-0.2-0.5
		c-0.2-0.3-0.4-0.5-0.6-0.7c-0.1-0.1-0.3-0.1-0.4-0.2c-0.1,0-0.3-0.1-0.5-0.1c-0.3,0-0.6,0.1-0.9,0.2c-0.2,0.1-0.5,0.4-0.6,0.6
		c-0.1,0.1-0.1,0.3-0.1,0.5c0,0.2,0,0.3,0,0.5c0.1,0.3,0.3,0.6,0.6,0.7c0.3,0.2,0.6,0.2,1,0.1C669.7,231.7,670,231.5,670.1,231.3
		L670.1,231.3z"/>
	<path d="M668.4,234.3c-0.9,0.3-1.7,0.7-2.5,1.1c-0.3,0.1-0.5,0.5-0.6,0.7c-0.1,0.3,0,0.7,0.1,1c0.2,0.3,0.4,0.5,0.7,0.6
		c0.3,0.1,0.7,0,1-0.1c0.4-0.2,0.9-0.4,1.3-0.6c-0.1,0-0.2,0.1-0.3,0.1c0.3-0.1,0.6-0.2,0.9-0.3c0.3-0.1,0.6-0.3,0.7-0.6
		c0.2-0.3,0.2-0.7,0.1-1c-0.1-0.3-0.3-0.6-0.6-0.7C669,234.3,668.7,234.2,668.4,234.3L668.4,234.3z"/>
	<path d="M661.6,238.3c-1.4,0.8-2.3,2.4-2.4,4c0,0.7,0.6,1.3,1.3,1.3c0.7,0,1.2-0.5,1.3-1.3c0-0.1,0-0.2,0-0.3c0,0.1,0,0.2,0,0.3
		c0-0.3,0.1-0.6,0.2-0.9c0,0.1-0.1,0.2-0.1,0.3c0.1-0.3,0.3-0.5,0.5-0.8c-0.1,0.1-0.1,0.2-0.2,0.3c0.2-0.2,0.4-0.5,0.6-0.6
		c-0.1,0.1-0.2,0.1-0.3,0.2c0.1-0.1,0.2-0.2,0.4-0.2c0.3-0.2,0.5-0.4,0.6-0.7c0.1-0.3,0-0.7-0.1-1
		C662.9,238.2,662.2,238,661.6,238.3L661.6,238.3z"/>
	<path d="M659,247.6c0.2,1.6,0.9,3,1.9,4.3c0.2,0.2,0.6,0.4,0.9,0.4c0.3,0,0.7-0.1,0.9-0.4c0.2-0.2,0.4-0.6,0.4-0.9
		c0-0.4-0.1-0.6-0.4-0.9c0,0-0.1-0.1-0.1-0.1c0.1,0.1,0.1,0.2,0.2,0.3c-0.4-0.5-0.7-1.1-1-1.7c0,0.1,0.1,0.2,0.1,0.3
		c-0.3-0.6-0.4-1.2-0.5-1.9c0-0.3-0.3-0.6-0.6-0.7c-0.3-0.2-0.7-0.2-1-0.1c-0.3,0.1-0.6,0.3-0.7,0.6c0,0.1-0.1,0.2-0.1,0.3
		C658.9,247.2,658.9,247.4,659,247.6L659,247.6z"/>
	<path d="M663.4,255.3c0.9,1.1,2.2,1.8,3.6,2.2c0.3,0.1,0.7,0,1-0.1c0.3-0.2,0.5-0.4,0.6-0.7c0.1-0.3,0.1-0.7-0.1-1
		c-0.2-0.3-0.4-0.5-0.7-0.6c-0.3-0.1-0.6-0.2-0.9-0.3c0.1,0,0.2,0.1,0.3,0.1c-0.5-0.2-0.9-0.5-1.3-0.8c0.1,0.1,0.2,0.1,0.3,0.2
		c-0.3-0.2-0.6-0.5-0.8-0.8c-0.2-0.2-0.6-0.4-0.9-0.4c-0.3,0-0.7,0.1-0.9,0.4c-0.2,0.2-0.4,0.6-0.4,0.9
		C663,254.8,663.1,255.1,663.4,255.3L663.4,255.3z"/>
	<path d="M672.2,258.7c1.8,0.4,3.7,0.1,5.2-1c0.3-0.2,0.5-0.4,0.6-0.7c0.1-0.3,0-0.7-0.1-1c-0.3-0.5-1.1-0.9-1.7-0.4
		c-0.3,0.2-0.6,0.4-1,0.6c0.1,0,0.2-0.1,0.3-0.1c-0.4,0.2-0.9,0.3-1.4,0.4c0.1,0,0.2,0,0.3,0c-0.5,0.1-0.9,0.1-1.4,0
		c0.1,0,0.2,0,0.3,0c-0.2,0-0.3-0.1-0.5-0.1c-0.6-0.1-1.4,0.2-1.5,0.9C671.2,257.8,671.5,258.5,672.2,258.7L672.2,258.7z"/>
	<path d="M681.2,253.5c0.8-1.6,1.3-3.3,1.4-5.1c0-0.7-0.6-1.3-1.3-1.3c-0.7,0-1.2,0.5-1.3,1.3c0,0.3,0,0.5-0.1,0.8
		c0-0.1,0-0.2,0-0.3c-0.1,0.6-0.2,1.2-0.4,1.8c-0.1,0.3-0.2,0.6-0.3,0.9c0,0.1-0.1,0.1-0.1,0.2c0-0.1,0-0.1,0.1-0.2
		c0,0,0,0.1-0.1,0.1c-0.1,0.1-0.1,0.3-0.2,0.4c-0.3,0.6-0.2,1.4,0.4,1.7C680.1,254.2,680.9,254.1,681.2,253.5L681.2,253.5z"/>
	<path d="M673.6,237.1c0.2-0.1,0.5-0.2,0.8-0.2c-0.1,0-0.2,0-0.3,0c0.3,0,0.6,0,0.9,0c-0.1,0-0.2,0-0.3,0c0.3,0,0.6,0.1,0.9,0.2
		c-0.1,0-0.2-0.1-0.3-0.1c0.3,0.1,0.5,0.3,0.8,0.4c-0.1-0.1-0.2-0.1-0.3-0.2c0.2,0.2,0.4,0.4,0.6,0.6c-0.1-0.1-0.1-0.2-0.2-0.3
		c0,0,0,0,0,0c0.2,0.3,0.4,0.5,0.7,0.6c0.3,0.1,0.7,0,1-0.1c0.3-0.2,0.5-0.4,0.6-0.7c0.1-0.3,0.1-0.7-0.1-1
		c-0.4-0.5-0.7-0.8-1.2-1.2c-0.4-0.3-0.9-0.5-1.3-0.6c-0.9-0.3-2-0.3-2.9,0.1c-0.3,0.1-0.6,0.3-0.7,0.6c-0.2,0.3-0.2,0.7-0.1,1
		C672.2,236.8,672.9,237.3,673.6,237.1L673.6,237.1z"/>
	<path d="M678.2,241.8c0.2,0.3,0.4,0.6,0.5,0.9c0-0.1-0.1-0.2-0.1-0.3c0.2,0.5,0.4,1.1,0.4,1.6c0-0.1,0-0.2,0-0.3
		c0,0.3,0.1,0.6,0.1,0.9c0,0.7,0.6,1.3,1.3,1.3c0.7,0,1.2-0.5,1.3-1.3c0-1.4-0.4-2.9-1.2-4.1c-0.2-0.3-0.4-0.5-0.7-0.6
		c-0.3-0.1-0.7,0-1,0.1C678.1,240.4,677.8,241.2,678.2,241.8L678.2,241.8z"/>
	<path d="M666.8,244.7c-0.1,0.1-0.2,0.2-0.2,0.4c-0.1,0.2-0.2,0.5-0.3,0.7c0,0.2-0.1,0.3-0.1,0.5c0,0.1,0,0.1,0,0.2
		c0,0.2,0,0.5,0.1,0.7c0,0.2,0.1,0.3,0.2,0.4c0.1,0.1,0.2,0.2,0.4,0.3c0.1,0.1,0.3,0.1,0.5,0.1c0.2,0,0.3,0,0.5,0
		c0.3-0.1,0.6-0.3,0.7-0.6c0-0.1,0.1-0.2,0.1-0.3c0.1-0.2,0.1-0.4,0-0.7c0,0,0-0.1,0-0.1c0,0.1,0,0.2,0,0.3c0-0.2,0-0.4,0-0.6
		c0,0.1,0,0.2,0,0.3c0-0.2,0.1-0.4,0.2-0.5c0,0.1-0.1,0.2-0.1,0.3c0.1-0.1,0.1-0.3,0.2-0.4c0.1-0.1,0.1-0.3,0.1-0.5
		c0-0.2,0-0.3,0-0.5c0-0.2-0.1-0.3-0.2-0.4c-0.1-0.1-0.2-0.2-0.4-0.3c-0.3-0.2-0.6-0.2-1-0.1c-0.1,0-0.2,0.1-0.3,0.1
		C667,244.4,666.9,244.5,666.8,244.7L666.8,244.7z"/>
	<path d="M668.4,249.8c0.5,0.4,1,0.7,1.6,0.8c0.3,0,0.6,0.1,0.9,0c0.2,0,0.4,0,0.6-0.1c0.2-0.1,0.4-0.1,0.6-0.2
		c0.1-0.1,0.3-0.2,0.4-0.3c0.1-0.1,0.2-0.3,0.2-0.4c0.1-0.3,0-0.7-0.1-1c-0.2-0.3-0.4-0.5-0.7-0.6c-0.1,0-0.2,0-0.3,0
		c-0.2,0-0.4,0.1-0.6,0.2c0,0,0,0,0,0c0.1,0,0.2-0.1,0.3-0.1c-0.2,0.1-0.3,0.1-0.5,0.1c0.1,0,0.2,0,0.3,0c-0.2,0-0.4,0-0.5,0
		c0.1,0,0.2,0,0.3,0c-0.2,0-0.4-0.1-0.5-0.1c0.1,0,0.2,0.1,0.3,0.1c-0.2-0.1-0.3-0.2-0.4-0.3c0.1,0.1,0.2,0.1,0.3,0.2
		c0,0-0.1,0-0.1-0.1c-0.1-0.1-0.2-0.2-0.4-0.3c-0.1-0.1-0.3-0.1-0.5-0.1c-0.3,0-0.7,0.1-0.9,0.4c-0.2,0.2-0.4,0.6-0.4,0.9
		C668,249.3,668.1,249.6,668.4,249.8L668.4,249.8z"/>
	<path d="M669.8,245.5c0.4,0.1,0.8,0.2,1.2,0.4c-0.1,0-0.2-0.1-0.3-0.1c0.3,0.1,0.5,0.3,0.8,0.4c-0.1-0.1-0.2-0.1-0.3-0.2
		c0.2,0.1,0.3,0.3,0.5,0.5c-0.1-0.1-0.1-0.2-0.2-0.3c0.1,0.1,0.2,0.3,0.3,0.4c0-0.1-0.1-0.2-0.1-0.3c0,0.1,0.1,0.2,0.1,0.4
		c0.1,0.3,0.3,0.6,0.6,0.7c0.3,0.2,0.7,0.2,1,0.1c0.3-0.1,0.6-0.3,0.7-0.6c0.2-0.3,0.2-0.6,0.1-1c-0.2-0.9-0.8-1.6-1.5-2.1
		c-0.6-0.4-1.4-0.7-2.2-0.9c-0.3-0.1-0.7,0-1,0.1c-0.3,0.2-0.5,0.4-0.6,0.7C668.8,244.6,669.2,245.3,669.8,245.5L669.8,245.5z"/>
	<path d="M670.4,223.9c0.1,0.2,0.2,0.4,0.3,0.6c0-0.1-0.1-0.2-0.1-0.3c0.3,0.8,0.6,1.6,0.8,2.4c0.1,0.3,0.3,0.6,0.6,0.7
		c0.3,0.2,0.7,0.2,1,0.1c0.6-0.2,1.1-0.9,0.9-1.5c-0.3-1.1-0.7-2.2-1.2-3.3c-0.1-0.3-0.5-0.5-0.7-0.6c-0.3-0.1-0.7,0-1,0.1
		c-0.3,0.2-0.5,0.4-0.6,0.7c0,0.1,0,0.2,0,0.3C670.3,223.5,670.3,223.8,670.4,223.9L670.4,223.9z"/>
	<path d="M671.4,228.1c-0.2,0.9-0.4,1.8-0.5,2.7c-0.1,0.3,0,0.7,0.1,1c0.2,0.3,0.4,0.5,0.7,0.6c0.3,0.1,0.7,0.1,1-0.1
		c0.3-0.2,0.5-0.4,0.6-0.7c0.2-0.9,0.4-1.8,0.5-2.7c0.1-0.3,0-0.7-0.1-1c-0.2-0.3-0.4-0.5-0.7-0.6c-0.3-0.1-0.7-0.1-1,0.1
		C671.8,227.6,671.5,227.8,671.4,228.1L671.4,228.1z"/>
	<g>
		<path d="M181.3,261.4c-1.8,0-2,0-2.1,0.1c-0.4,0.2-0.6,0.6-0.6,0.8c0,0.1-0.1,0.3-0.1,3.6c0,6.6,0.1,10.3,0.2,11.3
			c0.1,1.2,0.6,1.5,1,1.5c0.2,0,0.3-0.1,0.5-0.2l0.3-0.3v-1.5c-0.1-3.3-0.1-5.6-0.1-6.7v-0.4c0.4,0,0.6,0,0.8,0
			c0.4,0,0.7-0.1,0.9-0.4c0.2-0.2,0.3-0.3,0.3-0.5c0-0.2-0.2-0.4-0.3-0.5l-0.3-0.4h-1.5v-1.6c0-0.5,0-1,0-1.7c0-0.6,0-1,0-1.1v-0.2
			l1.2,0c1.3,0,1.6-0.1,1.7-0.1c0.4-0.1,0.6-0.4,0.6-0.8c0-0.3-0.1-0.6-0.4-0.8C183.4,261.5,183.3,261.4,181.3,261.4z"/>
		<path d="M188.5,263.3c1.5,0,1.9-0.1,2-0.4c0.3-0.5,0.1-1-0.1-1.1c-0.2-0.2-0.6-0.3-1.3-0.3c-0.5,0-0.9,0-1.2,0h-0.4
			c-0.2,0-0.3,0-0.4,0c-0.2,0-0.5,0-0.6,0.1l-0.2,0c-0.1,0-0.2,0.1-0.3,0.1c-0.1,0.1-0.2,0.1-0.2,0.2l-0.1,0.1
			c0,0.1-0.1,0.2-0.1,2.3c0,2.3,0,5,0.1,8.2c0.1,4.9,0.2,5.1,0.2,5.2c0.1,0.3,0.4,0.6,0.7,0.6c0.1,0,0.4,0,1.6,0c0,0,0,0,0,0l1.9,0
			l0.1-0.3c0.2-0.4,0.3-0.6,0.2-0.9c-0.1-0.3-0.3-0.6-0.7-0.6c-0.1,0-0.4-0.1-1.3-0.1c-0.4,0-0.7,0-0.9,0c0-0.2-0.1-0.6-0.1-1.3
			c-0.1-1-0.1-2-0.1-2.8c0-0.4,0-0.7,0-0.9l0-0.2c0.4,0,0.9-0.1,1.1-0.5c0.1-0.1,0.1-0.3,0.1-0.5c0-0.3-0.1-0.9-1.3-0.9
			c0-0.2,0-1-0.1-3.4l0-2.7h0C187.8,263.3,188.2,263.3,188.5,263.3z"/>
		<path d="M195.3,263.3c1.5,0,1.9-0.1,2-0.4c0.3-0.5,0.1-1-0.1-1.1c-0.2-0.2-0.6-0.3-1.3-0.3c-0.5,0-0.9,0-1.2,0h-0.4
			c-0.2,0-0.3,0-0.4,0c-0.2,0-0.5,0-0.6,0.1l-0.2,0c-0.1,0-0.2,0.1-0.3,0.1c-0.1,0.1-0.2,0.1-0.2,0.2l-0.1,0.1
			c0,0.1-0.1,0.2-0.1,2.3c0,2.3,0,5,0.1,8.2c0.1,4.9,0.2,5.1,0.2,5.2c0.1,0.3,0.4,0.6,0.7,0.6c0.1,0,0.4,0,1.6,0c0,0,0,0,0,0l1.9,0
			l0.1-0.3c0.2-0.4,0.3-0.6,0.2-0.9c-0.1-0.3-0.3-0.6-0.7-0.6c-0.1,0-0.4-0.1-1.3-0.1c-0.4,0-0.7,0-0.9,0c0-0.2-0.1-0.6-0.1-1.3
			c-0.1-1-0.1-2-0.1-2.8c0-0.4,0-0.7,0-0.9l0-0.2c0.4,0,0.9-0.1,1.1-0.5c0.1-0.1,0.1-0.3,0.1-0.5c0-0.3-0.1-0.9-1.3-0.9
			c0-0.2,0-1-0.1-3.4l0-2.7h0C194.6,263.3,194.9,263.3,195.3,263.3z"/>
		<path d="M207.1,268.5c-0.2-1.8-0.8-3.4-1.6-4.7c-0.2-0.3-0.5-0.6-0.9-1s-0.8-0.7-1.1-0.9c-1-0.6-2-0.9-2.9-0.9
			c-0.3,0-0.5,0-0.6,0.1c-0.4,0.1-0.6,0.4-0.6,0.5c-0.1,0.2-0.1,0.5-0.1,0.9c0,0.7,0,2,0.1,4l0.1,3.6c0.1,4.4,0.2,6.9,0.4,7.7
			c0.1,0.3,0.3,0.8,1.3,0.8h0.2c1,0,2-0.3,2.9-0.8c1.4-0.8,2.3-2.3,2.7-4.3c0.1-0.4,0.1-1.1,0.1-2.3
			C207.2,270,207.2,269.1,207.1,268.5z M201.6,276.8c-0.1-0.4-0.1-1.4-0.3-4.7c0-0.2,0-1-0.1-2.5c0-1.5-0.1-2.8-0.1-3.9
			c0-1.1-0.1-1.9-0.2-2.4c0-0.1,0-0.1,0-0.2c0.1,0,0.3,0.1,0.5,0.1l0,0c0.9,0.3,1.6,0.7,2.1,1.4c0.9,1.1,1.5,2.8,1.7,5.1
			c0,0.6,0.1,1.1,0.1,1.6c0,1.5-0.1,2.1-0.1,2.4c-0.4,1.8-1.5,2.9-3.1,3.2C201.9,276.7,201.7,276.8,201.6,276.8z"/>
	</g>
	<g>
		<path d="M356.2,274.8c-0.4-2.6-0.8-5.4-1.3-8.4c-0.6-3.9-0.6-4-0.7-4.1c-0.3-0.6-1.1-0.8-1.6-0.3c-0.2,0.1-0.5,0.5-1.5,2.1
			c-0.5,0.7-0.8,1.2-1,1.4c-0.2-0.2-0.4-0.6-0.8-1.2c-1.2-1.8-1.3-1.9-1.3-1.9c-0.4-0.5-0.8-0.6-1.1-0.6c-0.3,0-0.6,0.1-0.7,0.4
			c-0.1,0.1-0.2,0.4-0.2,1c-0.1,0.9-0.2,1.8-0.3,2.8c-0.8,7-1.1,10.8-1.1,11.5c0,0.5,0.3,0.7,0.4,0.8c0.3,0.2,0.6,0.2,0.9-0.1
			c0.3-0.2,0.4-0.5,0.5-1.7c0.1-0.9,0.4-3.8,0.8-8.7c0.1-1.4,0.2-2.3,0.3-2.9c0.1,0.1,0.1,0.2,0.2,0.2c0.5,0.8,0.9,1.4,1.2,1.8
			c0.5,0.9,0.8,1.2,1.2,1.2c0.4,0,0.6-0.3,0.7-0.4c0.1-0.2,0.4-0.5,0.8-1.1c0.4-0.6,0.8-1.2,1.2-1.8c0.3,1.4,0.6,4.1,1.2,7.9
			c0.7,5.4,1,5.7,1.1,5.9c0.2,0.2,0.4,0.3,0.6,0.3c0.1,0,0.2,0,0.3-0.1c0.3-0.1,0.5-0.4,0.5-0.8c0-0.1,0-0.3-0.1-1
			C356.5,276.8,356.3,276,356.2,274.8z"/>
		<path d="M366.8,264.6c-0.5-1.7-1.4-2.8-2.6-3.3c-0.3-0.2-0.8-0.2-1.5-0.2c-0.3,0-0.6,0-0.8,0h0c-0.8,0.1-1.4,0.4-2,1
			c-0.9,0.8-1.4,2-1.5,3.5c-0.1,0.8-0.1,1.9-0.1,3.2c0,0.4,0,0.6,0.1,0.8c0,0.1,0,0.4,0,1.3c0,1.2,0.2,2.5,0.5,3.7
			c0.2,0.9,0.5,1.6,0.8,2.1c0.3,0.5,0.8,0.9,1.3,1.3c0.6,0.4,1.2,0.5,1.9,0.5c1,0,1.9-0.3,2.5-0.9c0.8-0.7,1.3-1.8,1.6-3.1
			c0.2-1.1,0.3-2.5,0.3-4.1c0-1.5-0.1-2.6-0.1-3.4C367.2,266.1,367.1,265.4,366.8,264.6z M362.1,276.3c-0.4-0.2-0.8-0.6-1-1.3
			c-0.3-0.7-0.5-1.8-0.7-3.3c-0.1-0.8-0.1-2-0.1-3.3c0-1.6,0.1-2.6,0.2-3.1c0.3-1.4,0.9-2.2,1.9-2.4c0.2,0,0.3,0,0.4,0
			c0.5,0,1,0.2,1.4,0.6l0,0c0.4,0.4,0.8,1.1,1.1,2c0.3,1,0.4,2.1,0.4,3.2c0,0.9,0,1.2,0.1,1.4l0,0.1c0,1.3-0.1,2.5-0.3,3.5
			c-0.2,1-0.6,1.8-1.1,2.3c-0.3,0.3-0.8,0.5-1.3,0.5C362.5,276.4,362.2,276.4,362.1,276.3z"/>
		<path d="M376.9,262.8c-0.3,0-0.6,0.2-0.7,0.5c-0.1,0.2-0.1,0.5,0,0.7c0,0,0,0.2,0,1c0,0.6,0,2.3-0.1,5.1c0,2-0.1,3.2-0.1,3.6
			c0,0.4-0.1,0.7-0.3,1.1c-0.5,1-1.1,1.5-1.8,1.5c-0.4,0-0.7-0.1-1-0.4c-0.5-0.5-0.9-1.1-1.1-1.9c-0.3-0.9-0.5-2.5-0.6-4.7
			c-0.2-3.2-0.3-5-0.3-5.5c-0.1-0.8-0.2-1.1-0.5-1.3c-0.2-0.1-0.6-0.2-1,0.2l0,0c-0.2,0.2-0.3,0.5-0.3,1c0,0.6,0,1.6,0.1,3
			c0,0.3,0,0.8,0.1,1.4c0,0.6,0.1,1.1,0.1,1.5c0,0.4,0,0.7,0,0.9c0.1,2.5,0.5,4.2,1.1,5.4c0.6,1.1,1.3,1.7,2.1,2.1
			c0.3,0.1,0.7,0.2,1.3,0.2c0.5,0,1-0.1,1.3-0.3c0.5-0.3,1.1-0.7,1.5-1.3c0.5-0.6,0.8-1.2,0.9-1.8c0.1-0.5,0.3-1.8,0.3-7.3
			c0-3.5-0.1-3.8-0.1-3.9C377.7,262.7,377.2,262.7,376.9,262.8z M369.8,263.1L369.8,263.1L369.8,263.1L369.8,263.1z"/>
		<path d="M382.1,276.5c-0.2,0-0.3,0-0.4,0c0-0.7-0.1-2.8-0.1-8.6c-0.1-5.2-0.1-5.3-0.1-5.4c-0.3-0.6-0.7-0.7-0.9-0.7
			c-0.2,0-0.4,0.1-0.5,0.3c-0.2,0.2-0.2,0.2-0.2,6.9c0,7.7,0.1,8,0.1,8.2c0.1,0.4,0.2,1,0.7,1.2c0.1,0.1,0.1,0.1,1.2,0.1
			c0.3,0,0.5,0,0.8,0c0.2,0,0.4-0.1,0.7-0.2c0.3-0.2,0.4-0.5,0.4-0.7c0-0.2-0.1-0.4-0.3-0.7C383.2,276.6,382.8,276.5,382.1,276.5z"
			/>
		<path d="M393.3,268.3c-0.2-1.8-0.8-3.4-1.6-4.7c-0.2-0.3-0.5-0.6-0.9-1s-0.8-0.7-1.1-0.9c-1-0.6-2-0.9-2.9-0.9
			c-0.3,0-0.5,0-0.6,0.1c-0.4,0.1-0.6,0.4-0.6,0.5c-0.1,0.2-0.1,0.5-0.1,0.9c0,0.7,0,2,0.1,4l0.1,3.6c0.1,4.4,0.2,6.9,0.4,7.7
			c0.1,0.3,0.3,0.8,1.3,0.8h0.2c1,0,2-0.3,2.9-0.8c1.4-0.8,2.3-2.3,2.7-4.3c0.1-0.4,0.1-1.1,0.1-2.3
			C393.4,269.8,393.4,268.9,393.3,268.3z M387.8,276.5c-0.1-0.4-0.1-1.4-0.3-4.7c0-0.2,0-1-0.1-2.5c0-1.5-0.1-2.8-0.1-3.9
			c0-1.1-0.1-1.9-0.2-2.4c0-0.1,0-0.1,0-0.2c0.1,0,0.3,0.1,0.5,0.1l0,0c0.9,0.3,1.6,0.7,2.1,1.4c0.9,1.1,1.5,2.8,1.7,5.1
			c0,0.6,0.1,1.1,0.1,1.6c0,1.5-0.1,2.1-0.1,2.4c-0.4,1.8-1.5,2.9-3.1,3.2C388.1,276.5,387.9,276.5,387.8,276.5z"/>
	</g>
	<g>
		<path d="M444.3,276.6c-0.6-0.1-1.1-0.2-1.4-0.3c-0.3-0.1-0.6-0.4-0.8-0.7c-0.8-1.1-1.2-3-1.2-5.5c0-1.6,0.1-2.9,0.3-3.9
			c0.2-0.9,0.6-1.8,1.2-2.5c0.3-0.4,0.7-0.7,1-0.8c0.8-0.2,1-0.6,1-0.9c0-0.2-0.1-0.4-0.3-0.6c-0.2-0.2-0.4-0.3-0.6-0.3l-0.2,0
			c-0.2,0-0.3,0-0.4,0c-0.8,0.1-1.5,0.8-2.2,1.9c-0.8,1.2-1.3,2.8-1.5,4.7c-0.1,0.5-0.1,1.2-0.1,2.2c0,1.3,0,2.1,0.1,2.4
			c0.3,2.1,0.9,3.5,1.6,4.5c0.8,1,2,1.5,3.4,1.6h0.1c0.8,0,1.1-0.5,1.1-0.9C445.4,277.3,445.3,276.7,444.3,276.6z"/>
		<path d="M449.5,276.7c-0.2,0-0.3,0-0.4,0c0-0.7-0.1-2.8-0.1-8.6c-0.1-5.2-0.1-5.3-0.1-5.4c-0.3-0.6-0.7-0.7-0.9-0.7
			c-0.2,0-0.4,0.1-0.5,0.3c-0.2,0.2-0.2,0.2-0.2,6.9c0,7.7,0.1,8,0.1,8.2c0.1,0.4,0.2,1,0.7,1.2c0.1,0.1,0.1,0.1,1.2,0.1
			c0.3,0,0.5,0,0.8,0c0.2,0,0.4-0.1,0.7-0.2c0.3-0.2,0.4-0.5,0.4-0.7c0-0.2-0.1-0.4-0.3-0.7C450.6,276.8,450.2,276.7,449.5,276.7z"
			/>
		<path d="M459.2,266.9c-1.1-4.2-1.3-4.4-1.5-4.6c-0.2-0.2-0.7-0.3-1.3,0.1c-0.4,0.2-0.6,0.5-0.7,0.9c-0.1,0.2-0.5,2.4-1.3,6.3
			c-0.8,4.1-1.3,6.4-1.4,7.1c-0.1,0.5-0.1,0.7-0.1,0.8c0,0.1,0,0.3,0.1,0.5c0.2,0.4,0.6,0.5,0.8,0.5c0.3,0,0.6-0.2,0.8-0.5
			c0-0.1,0.1-0.4,0.5-2.1c0.3-1.2,0.5-2.4,0.7-3.6c0.1-0.7,0.2-1.1,0.3-1.4c0.1,0,0.1,0,0.2,0c1.6,0,2.1,0,2.1,0c0,0,0.1,0.2,0.3,1
			c1.4,5.7,1.6,6.2,1.7,6.3c0.1,0.3,0.3,0.6,0.6,0.6c0.1,0,0.2,0,0.2,0c0.1,0,0.3,0,0.4-0.1c0.3-0.2,0.4-0.4,0.4-0.8
			c0-0.1,0-0.4-0.7-3.1C460.5,271.6,459.8,268.8,459.2,266.9z M457.1,265.7c0,0.1,0.1,0.2,0.1,0.4c0.1,0.4,0.2,0.9,0.4,1.5
			c0.2,0.6,0.3,1,0.3,1.1c0,0.1,0.1,0.3,0.1,0.4c-0.2,0-0.4,0-0.7,0l-0.8,0c0,0,0,0,0,0c0.1-0.4,0.2-1,0.4-2.3
			C456.9,266.4,457,266,457.1,265.7z"/>
		<path d="M475.4,275c-0.4-2.6-0.8-5.4-1.3-8.4c-0.6-3.9-0.6-4-0.7-4.1c-0.3-0.6-1.1-0.8-1.6-0.3c-0.2,0.1-0.5,0.5-1.5,2.1
			c-0.5,0.7-0.8,1.2-1,1.4c-0.2-0.2-0.4-0.6-0.8-1.2c-1.2-1.8-1.3-1.9-1.3-1.9c-0.4-0.5-0.8-0.6-1.1-0.6c-0.3,0-0.6,0.1-0.7,0.4
			c-0.1,0.1-0.2,0.4-0.2,1c-0.1,0.9-0.2,1.8-0.3,2.8c-0.8,7-1.1,10.8-1.1,11.5c0,0.5,0.3,0.7,0.4,0.8c0.3,0.2,0.6,0.2,0.9-0.1
			c0.3-0.2,0.4-0.5,0.5-1.7c0.1-0.9,0.4-3.8,0.8-8.7c0.1-1.4,0.2-2.3,0.3-2.9c0.1,0.1,0.1,0.2,0.2,0.2c0.5,0.8,0.9,1.4,1.2,1.8
			c0.5,0.9,0.8,1.2,1.2,1.2c0.4,0,0.6-0.3,0.7-0.4c0.1-0.2,0.4-0.5,0.8-1.1c0.4-0.6,0.8-1.2,1.2-1.8c0.3,1.4,0.6,4.1,1.2,7.9
			c0.7,5.4,1,5.7,1.1,5.9c0.2,0.2,0.4,0.3,0.6,0.3c0.1,0,0.2,0,0.3-0.1c0.3-0.1,0.5-0.4,0.5-0.8c0-0.1,0-0.3-0.1-1
			C475.7,276.9,475.6,276.2,475.4,275z"/>
		<path d="M483.1,263.7c-0.4-0.8-1-1.5-1.8-2c-1.1-0.7-2-1.1-2.7-1.1l-0.2,0c-0.3,0-0.7,0.2-0.9,0.9c0,0.1-0.1,0.2-0.1,0.8
			c0,1,0,2.3,0.1,3.9c0,0.9,0.1,3,0.1,6c0.1,4.9,0.1,5.2,0.1,5.3c0.1,0.3,0.1,0.5,0.3,0.6c0.2,0.2,0.5,0.3,0.6,0.3
			c0.3,0,0.6-0.1,0.9-0.4l0.2-0.2l-0.1-3.1v-1.6c0-0.8,0-1.2,0-1.3c0.1-0.1,0.2-0.2,0.5-0.4c0.4-0.3,0.8-0.6,1.2-0.9
			c0.7-0.6,1.2-1.1,1.5-1.6c0.3-0.5,0.6-1.1,0.7-1.8c0-0.2,0.1-0.5,0.1-0.9C483.8,265.4,483.5,264.6,483.1,263.7z M479.4,262.8
			c1.1,0.5,1.9,1.3,2.2,2.4c0.1,0.4,0.2,0.8,0.2,1.3c0,0.3,0,0.5-0.1,0.7c-0.2,0.7-0.7,1.4-1.4,2c-0.2,0.2-0.4,0.4-0.6,0.5
			c0-0.5-0.1-1.4-0.1-2.9c0-0.4,0-1.1-0.1-1.9c0-0.9-0.1-1.4-0.1-1.6L479.4,262.8C479.4,262.8,479.4,262.8,479.4,262.8z"/>
	</g>
	<g>
		<path d="M602.5,135.1c-0.6-0.1-1.1-0.2-1.4-0.3c-0.3-0.1-0.6-0.4-0.8-0.7c-0.8-1.1-1.2-3-1.2-5.5c0-1.6,0.1-2.9,0.3-3.9
			c0.2-0.9,0.6-1.8,1.2-2.5c0.3-0.4,0.7-0.7,1-0.8c0.8-0.2,1-0.6,1-0.9c0-0.2-0.1-0.4-0.3-0.6c-0.2-0.2-0.4-0.3-0.6-0.3l-0.2,0
			c-0.2,0-0.3,0-0.4,0c-0.8,0.1-1.5,0.8-2.2,1.9c-0.8,1.2-1.3,2.8-1.5,4.7c-0.1,0.5-0.1,1.2-0.1,2.2c0,1.3,0,2.1,0.1,2.4
			c0.3,2.1,0.9,3.5,1.6,4.5c0.8,1,2,1.5,3.4,1.6h0.1c0.8,0,1.1-0.5,1.1-0.9C603.6,135.8,603.5,135.2,602.5,135.1z"/>
		<path d="M611.8,125.4c-1.1-4.2-1.3-4.4-1.5-4.6c-0.2-0.2-0.7-0.3-1.3,0.1c-0.4,0.2-0.6,0.5-0.7,0.9c-0.1,0.2-0.5,2.4-1.3,6.3
			c-0.8,4.1-1.3,6.4-1.4,7.1c-0.1,0.5-0.1,0.7-0.1,0.8c0,0.1,0,0.3,0.1,0.5c0.2,0.4,0.6,0.5,0.8,0.5c0.3,0,0.6-0.2,0.8-0.5
			c0-0.1,0.1-0.4,0.5-2.1c0.3-1.2,0.5-2.4,0.7-3.6c0.1-0.7,0.2-1.1,0.3-1.4c0.1,0,0.1,0,0.2,0c1.6,0,2.1,0,2.1,0c0,0,0.1,0.2,0.3,1
			c1.4,5.7,1.6,6.2,1.7,6.3c0.1,0.3,0.3,0.6,0.6,0.6c0.1,0,0.2,0,0.2,0c0.1,0,0.3,0,0.4-0.1c0.3-0.2,0.4-0.4,0.4-0.8
			c0-0.1,0-0.4-0.7-3.1C613,130.1,612.3,127.3,611.8,125.4z M609.6,124.2c0,0.1,0.1,0.2,0.1,0.4c0.1,0.4,0.2,0.9,0.4,1.5
			c0.2,0.6,0.3,1,0.3,1.1c0,0.1,0.1,0.3,0.1,0.4c-0.2,0-0.4,0-0.7,0l-0.8,0c0,0,0,0,0,0c0.1-0.4,0.2-1,0.4-2.3
			C609.4,124.9,609.5,124.5,609.6,124.2z"/>
		<path d="M626.3,121.7c-0.1,0.2-0.2,0.4-0.3,0.8c-0.1,0.4-0.2,0.9-0.5,1.7c-1.4,4.7-2.4,7.8-3,9.5c-0.2-0.6-0.6-1.5-1.1-3
			c-3.2-8.5-3.4-8.7-3.5-8.8c-0.3-0.3-0.5-0.3-0.7-0.3c-0.5,0-0.9,0.4-0.9,0.9c0,0.1,0,0.3,0.4,1.4c0.1,0.2,0.2,0.6,0.4,1.1
			c0.2,0.5,0.3,0.9,0.4,1.1c1,2.8,1.9,5.3,2.8,7.4c1.3,3.3,1.5,3.5,1.7,3.6c0.2,0.1,0.4,0.2,0.5,0.2c0.2,0,0.6-0.1,0.9-0.6
			c0.2-0.3,0.7-1.9,3.5-11.3c0.7-2.2,0.8-2.7,0.8-3c0-0.2-0.1-0.4-0.3-0.7C627.3,121.2,626.6,121.2,626.3,121.7z"/>
		<path d="M631.7,133.3c0-1-0.1-2.9-0.1-5.5c-0.1-2.7-0.1-4.3-0.1-5l0-1.5l-0.3-0.3c-0.2-0.2-0.4-0.3-0.7-0.3
			c-0.9,0-0.9,1.3-0.9,1.7l0,0.4c0,0.3,0.1,2.1,0.1,5.6c0.1,7.7,0.2,8,0.3,8.2c0.1,0.2,0.2,0.4,0.4,0.5c0.1,0.1,0.3,0.1,0.5,0.1
			c0.1,0,0.3,0,0.4-0.1c0.2-0.1,0.4-0.3,0.5-0.5c0-0.1,0.1-0.3,0.1-0.9c0,0,0-0.4,0-1.1L631.7,133.3z"/>
		<path d="M640,120.4c-0.5,0-1.1,0-1.6,0c-3.8,0.1-4.1,0.2-4.3,0.2c-0.4,0.1-0.6,0.4-0.6,0.8c0,0.3,0.2,0.6,0.5,0.7
			c0.2,0.1,0.4,0.2,1.7,0.2h0.8l0,4.6c0,2.3,0,4.6,0,6.9c0,2.6,0.1,2.7,0.2,2.8c0.2,0.2,0.4,0.4,0.7,0.4c0.1,0,0.5,0,0.7-0.2
			c0.2-0.2,0.2-0.2,0.3-7.7c0-4.2,0-6.1,0-6.8l0.2,0c0.4,0,0.8,0,1.3-0.1c0.7,0,0.8-0.1,0.9-0.1c0.4-0.2,0.5-0.4,0.6-0.6
			c0.1-0.3,0-0.6-0.2-0.8C640.9,120.5,640.6,120.4,640,120.4z"/>
		<path d="M649.7,120.2L649.7,120.2c-0.1,0.1-0.2,0.2-0.5,1c-0.2,0.5-0.4,1-0.6,1.6c-0.2,0.5-0.3,0.8-0.4,1
			c-0.2,0.6-0.2,0.7-0.2,0.8c0,0.1-0.1,0.2-0.2,0.4c-0.4-0.5-1-1.3-1.2-1.7c-1.6-2.3-1.7-2.3-1.7-2.4c-0.5-0.5-1-0.5-1.4,0
			c-0.1,0.2-0.2,0.4-0.2,0.6c0,0.2,0,0.3,2.1,3.3c1.1,1.6,1.5,2.2,1.6,2.3c0,0.2,0.1,1.2,0.1,4.6c0.1,4.7,0.1,4.8,0.1,4.9
			c0.1,0.2,0.2,0.4,0.3,0.5c0.1,0.1,0.3,0.2,0.5,0.2c0,0,0.1,0,0.1,0c0.4,0,0.6-0.2,0.6-0.3c0.2-0.2,0.2-0.5,0.2-0.8
			c0-0.1,0-0.3,0-0.5c0-0.2,0-0.4,0-0.8c0-0.3,0-0.7,0-1c0-0.4,0-1.9-0.1-4.7l-0.1-2l0.4-0.7c0.1-0.3,0.3-0.6,0.3-0.7
			c0.1-0.2,0.1-0.3,0.2-0.5c0.1-0.2,0.2-0.4,0.3-0.7c1.2-2.9,1.3-3.6,1.3-3.9C651.2,119.8,650.2,119.6,649.7,120.2z"/>
	</g>
	<g>
		<path d="M793.4,87.7c-0.6-0.1-1.1-0.2-1.4-0.3c-0.3-0.1-0.6-0.4-0.8-0.7c-0.8-1.1-1.2-3-1.2-5.5c0-1.6,0.1-2.9,0.3-3.9
			c0.2-0.9,0.6-1.8,1.2-2.5c0.3-0.4,0.7-0.7,1-0.8c0.8-0.2,1-0.6,1-0.9c0-0.2-0.1-0.4-0.3-0.6c-0.2-0.2-0.4-0.3-0.6-0.3l-0.2,0
			c-0.2,0-0.3,0-0.4,0c-0.8,0.1-1.5,0.8-2.2,1.9c-0.8,1.2-1.3,2.8-1.5,4.7c-0.1,0.5-0.1,1.2-0.1,2.2c0,1.3,0,2.1,0.1,2.4
			c0.3,2.1,0.9,3.5,1.6,4.5c0.8,1,2,1.5,3.4,1.6h0.1c0.8,0,1.1-0.5,1.1-0.9C794.5,88.4,794.4,87.8,793.4,87.7z"/>
		<path d="M804.8,75.8c-0.5-1.7-1.4-2.8-2.6-3.3c-0.3-0.2-0.8-0.2-1.5-0.2c-0.3,0-0.6,0-0.8,0h0c-0.8,0.1-1.4,0.4-2,1
			c-0.9,0.8-1.4,2-1.5,3.5c-0.1,0.8-0.1,1.9-0.1,3.2c0,0.4,0,0.6,0.1,0.8c0,0.1,0,0.4,0,1.3c0,1.2,0.2,2.5,0.5,3.7
			c0.2,0.9,0.5,1.6,0.8,2.1c0.3,0.5,0.8,0.9,1.3,1.3c0.6,0.4,1.2,0.5,1.9,0.5c1,0,1.9-0.3,2.5-0.9c0.8-0.7,1.3-1.8,1.6-3.1
			c0.2-1.1,0.3-2.5,0.3-4.1c0-1.5-0.1-2.6-0.1-3.4C805.2,77.3,805,76.6,804.8,75.8z M800.1,87.5c-0.4-0.2-0.8-0.6-1-1.3
			c-0.3-0.7-0.5-1.8-0.7-3.3c-0.1-0.8-0.1-2-0.1-3.3c0-1.6,0.1-2.6,0.2-3.1c0.3-1.4,0.9-2.2,1.9-2.4c0.2,0,0.3,0,0.4,0
			c0.5,0,1,0.2,1.4,0.6l0,0c0.4,0.4,0.8,1.1,1.1,2c0.3,1,0.4,2.1,0.4,3.2c0,0.9,0,1.2,0.1,1.4l0,0.1c0,1.3-0.1,2.5-0.3,3.5
			c-0.2,1-0.6,1.8-1.1,2.3c-0.3,0.3-0.8,0.5-1.3,0.5C800.4,87.6,800.2,87.6,800.1,87.5z"/>
		<path d="M812.3,84c-0.4-0.8-0.8-1.4-1.2-1.6l-0.3-0.3c0.5-0.3,1-0.7,1.4-1.3c0.5-0.6,0.8-1.2,0.9-1.8c0-0.1,0-0.2,0-0.7
			c0-0.8-0.1-1.5-0.2-2.1c-0.2-1-0.7-1.9-1.5-2.8c-0.6-0.7-1.4-1.1-2.1-1.4c-0.4-0.2-0.7-0.2-1-0.2c-0.4,0-0.6,0.2-0.7,0.3l-0.1,0.1
			v0c-0.1,0.2-0.1,0.9-0.2,3c0,2,0,4-0.1,5.8c0,0.6,0,1.5,0,2.6c0,1.4,0,2.3,0,2.9c0,1.2,0.1,1.9,0.1,2.2c0.1,0.5,0.2,0.8,0.6,0.9
			c0.1,0,0.3,0.1,0.4,0.1c0.3,0,0.6-0.2,0.8-0.5c0.1-0.1,0.1-0.2,0.1-1.1c0-0.9,0-1.7,0-2.4c0-0.9,0-1.8,0-2.7c0,0,0,0,0,0
			c0.7,0.5,1.3,1.2,1.8,2.1c0.2,0.5,0.5,1.2,0.8,2c0.7,1.9,0.8,2,0.9,2c0.3,0.3,0.8,0.3,1.2,0c0.2-0.2,0.3-0.4,0.3-0.7
			c0-0.2-0.1-0.6-0.5-1.8C813,85.5,812.6,84.6,812.3,84z M809,80.7v-0.3c0-2.5,0-4.6,0.1-6c0-0.2,0-0.3,0-0.4
			c1.4,0.8,2.1,2.1,2.1,4.1c0,0.6,0,0.8,0,0.8c0,0-0.1,0.2-0.4,0.6c-0.4,0.6-0.6,0.8-0.7,0.8c-0.1,0-0.4,0.1-0.8,0.3
			C809.2,80.7,809.1,80.7,809,80.7z"/>
		<path d="M819.9,87.8c-0.1,0-0.4-0.1-1.3-0.1c-0.4,0-0.7,0-0.9,0c0-0.2-0.1-0.6-0.1-1.3c-0.1-1-0.1-2-0.1-2.8c0-0.4,0-0.7,0-0.9
			l0-0.2c0.4,0,0.9-0.1,1.1-0.5c0.1-0.1,0.1-0.3,0.1-0.5c0-0.3-0.1-0.9-1.3-0.9c0-0.2,0-1-0.1-3.4l0-2.7h0c0.3,0,0.6-0.1,1-0.1
			c1.5,0,1.9-0.1,2-0.4c0.3-0.5,0.1-1-0.1-1.1c-0.2-0.2-0.6-0.3-1.3-0.3c-0.5,0-0.9,0-1.2,0h-0.4c-0.2,0-0.3,0-0.4,0
			c-0.2,0-0.5,0-0.6,0.1l-0.2,0c-0.1,0-0.2,0.1-0.3,0.1c-0.1,0.1-0.2,0.1-0.2,0.2l-0.1,0.1c0,0.1-0.1,0.2-0.1,2.3c0,2.3,0,5,0.1,8.2
			c0.1,4.9,0.2,5.1,0.2,5.2c0.1,0.3,0.4,0.6,0.7,0.6c0.1,0,0.4,0,1.6,0c0,0,0,0,0,0l1.9,0l0.1-0.3c0.2-0.4,0.3-0.6,0.2-0.9
			C820.5,88.1,820.2,87.9,819.9,87.8z"/>
	</g>
	<g>
		<path d="M697.4,120.2c-1.1-0.7-2-1.1-2.7-1.1l-0.2,0c-0.3,0-0.7,0.2-0.9,0.9c0,0.1-0.1,0.2-0.1,0.8c0,1,0,2.3,0.1,3.9
			c0,0.9,0.1,3,0.1,6c0.1,4.9,0.1,5.2,0.1,5.3c0.1,0.3,0.1,0.5,0.3,0.6c0.2,0.2,0.5,0.3,0.6,0.3c0.3,0,0.6-0.1,0.9-0.4l0.2-0.2
			l-0.1-3.1v-1.6c0-0.8,0-1.2,0-1.3c0.1-0.1,0.2-0.2,0.5-0.4c0.4-0.3,0.8-0.6,1.2-0.9c0.7-0.6,1.2-1.1,1.5-1.6
			c0.3-0.5,0.6-1.1,0.7-1.8c0-0.2,0.1-0.5,0.1-0.9c0-0.9-0.2-1.8-0.6-2.6C698.8,121.3,698.2,120.7,697.4,120.2z M695.5,121.2
			c1.1,0.5,1.9,1.3,2.2,2.4c0.1,0.4,0.2,0.8,0.2,1.3c0,0.3,0,0.5-0.1,0.7c-0.2,0.7-0.7,1.4-1.4,2c-0.2,0.2-0.4,0.4-0.6,0.5
			c0-0.5-0.1-1.4-0.1-2.9c0-0.4,0-1.1-0.1-1.9c0-0.9-0.1-1.4-0.1-1.6L695.5,121.2C695.5,121.2,695.5,121.2,695.5,121.2z"/>
		<path d="M706.7,131.3c-0.4-0.8-0.8-1.4-1.2-1.6l-0.3-0.3c0.5-0.3,1-0.7,1.4-1.3c0.5-0.6,0.8-1.2,0.9-1.8c0-0.1,0-0.2,0-0.7
			c0-0.8-0.1-1.5-0.2-2.1c-0.2-1-0.7-1.9-1.5-2.8c-0.6-0.7-1.4-1.1-2.1-1.4c-0.4-0.1-0.7-0.2-1-0.2c-0.4,0-0.6,0.2-0.7,0.3l-0.1,0.1
			v0c-0.1,0.2-0.1,0.9-0.2,3c0,2,0,4-0.1,5.8c0,0.6,0,1.5,0,2.6c0,1.4,0,2.3,0,2.9c0,1.2,0.1,1.9,0.1,2.2c0.1,0.5,0.2,0.8,0.6,0.9
			c0.1,0,0.3,0.1,0.4,0.1c0.3,0,0.6-0.2,0.8-0.5c0.1-0.1,0.1-0.2,0.1-1.1c0-0.9,0-1.7,0-2.4c0-0.9,0-1.8,0-2.7c0,0,0,0,0,0
			c0.7,0.5,1.3,1.2,1.8,2.1c0.2,0.5,0.5,1.2,0.8,2c0.7,1.9,0.8,2,0.9,2c0.3,0.3,0.8,0.3,1.2,0c0.2-0.2,0.3-0.4,0.3-0.7
			c0-0.2-0.1-0.6-0.5-1.8C707.4,132.8,707,131.9,706.7,131.3z M703.4,128.1v-0.3c0-2.5,0-4.6,0.1-6c0-0.2,0-0.3,0-0.4
			c1.4,0.8,2.1,2.1,2.1,4.1c0,0.6,0,0.8,0,0.8c0,0-0.1,0.2-0.4,0.6c-0.4,0.6-0.6,0.8-0.7,0.8c-0.1,0-0.4,0.1-0.8,0.3
			C703.6,128,703.5,128,703.4,128.1z"/>
		<path d="M718.6,123.2c-0.5-1.7-1.4-2.8-2.6-3.3c-0.3-0.2-0.8-0.2-1.5-0.2c-0.3,0-0.6,0-0.8,0h0c-0.8,0.1-1.4,0.4-2,1
			c-0.9,0.8-1.4,2-1.5,3.5c-0.1,0.8-0.1,1.9-0.1,3.2c0,0.4,0,0.6,0.1,0.8c0,0.1,0,0.4,0,1.3c0,1.2,0.2,2.5,0.5,3.7
			c0.2,0.9,0.5,1.6,0.8,2.1c0.3,0.5,0.8,0.9,1.3,1.3c0.6,0.4,1.2,0.5,1.9,0.5c1,0,1.9-0.3,2.5-0.9c0.8-0.7,1.3-1.8,1.6-3.1
			c0.2-1.1,0.3-2.5,0.3-4.1c0-1.5-0.1-2.6-0.1-3.4C719,124.7,718.8,123.9,718.6,123.2z M717.4,128.7c0,1.3-0.1,2.5-0.3,3.5
			c-0.2,1-0.6,1.8-1.1,2.3c-0.3,0.3-0.8,0.5-1.3,0.5c-0.4,0-0.7-0.1-0.8-0.1c-0.4-0.2-0.8-0.6-1-1.3c-0.3-0.7-0.5-1.8-0.7-3.3
			c-0.1-0.8-0.1-2-0.1-3.3c0-1.6,0.1-2.6,0.2-3.1c0.3-1.4,0.9-2.2,1.9-2.4c0.2,0,0.3,0,0.4,0c0.5,0,1,0.2,1.4,0.6l0,0
			c0.4,0.4,0.8,1.1,1.1,2c0.3,1,0.4,2.1,0.4,3.2C717.3,128.1,717.3,128.5,717.4,128.7L717.4,128.7z"/>
		<path d="M727.1,122.2c-0.2-0.3-0.5-0.6-0.9-1s-0.8-0.7-1.1-0.9c-1-0.6-2-0.9-2.9-0.9c-0.3,0-0.5,0-0.6,0.1
			c-0.4,0.1-0.6,0.4-0.6,0.5c-0.1,0.2-0.1,0.5-0.1,0.9c0,0.7,0,2,0.1,4l0.1,3.6c0.1,4.4,0.2,6.9,0.4,7.7c0.1,0.3,0.3,0.8,1.3,0.8
			h0.2c1,0,2-0.3,2.9-0.8c1.4-0.8,2.3-2.3,2.7-4.3c0.1-0.4,0.1-1.1,0.1-2.3c0-1.3,0-2.2-0.1-2.7C728.5,125,727.9,123.5,727.1,122.2z
			 M723.2,135.1c-0.1-0.4-0.1-1.4-0.3-4.7c0-0.2,0-1-0.1-2.5c0-1.5-0.1-2.8-0.1-3.9c0-1.1-0.1-1.9-0.2-2.4c0-0.1,0-0.1,0-0.2
			c0.1,0,0.3,0.1,0.5,0.1l0,0c0.9,0.3,1.6,0.7,2.1,1.4c0.9,1.1,1.5,2.8,1.7,5.1c0,0.6,0.1,1.1,0.1,1.6c0,1.5-0.1,2.1-0.1,2.4
			c-0.4,1.8-1.5,2.9-3.1,3.2C723.5,135.1,723.4,135.1,723.2,135.1z"/>
		<path d="M738.3,121.3c-0.3,0-0.6,0.2-0.7,0.5c-0.1,0.2-0.1,0.5,0,0.7c0,0,0,0.2,0,1c0,0.6,0,2.3-0.1,5.1c0,2-0.1,3.2-0.1,3.6
			c0,0.4-0.1,0.7-0.3,1.1c-0.5,1-1.1,1.5-1.8,1.5c-0.4,0-0.7-0.1-1-0.4c-0.5-0.5-0.9-1.1-1.1-1.9c-0.3-0.9-0.5-2.5-0.6-4.7
			c-0.2-3.2-0.3-5-0.3-5.5c-0.1-0.8-0.2-1.1-0.5-1.3c-0.2-0.1-0.6-0.2-1,0.2l0,0c-0.2,0.2-0.3,0.5-0.3,1c0,0.6,0,1.6,0.1,3
			c0,0.3,0,0.8,0.1,1.4c0,0.6,0.1,1.1,0.1,1.5c0,0.4,0,0.7,0,0.9c0.1,2.5,0.5,4.2,1.1,5.4c0.6,1.1,1.3,1.7,2.1,2.1
			c0.3,0.1,0.7,0.2,1.3,0.2c0.5,0,1-0.1,1.3-0.3c0.5-0.3,1.1-0.7,1.5-1.3c0.5-0.6,0.8-1.2,0.9-1.8c0.1-0.5,0.3-1.8,0.3-7.3
			c0-3.5-0.1-3.8-0.1-3.9C739.1,121.3,738.6,121.3,738.3,121.3z"/>
		<path d="M746.5,135c-0.6-0.1-1.1-0.2-1.4-0.3c-0.3-0.1-0.6-0.4-0.8-0.7c-0.8-1.1-1.2-3-1.2-5.5c0-1.6,0.1-2.9,0.3-3.9
			c0.2-0.9,0.6-1.8,1.2-2.5c0.3-0.4,0.7-0.7,1-0.8c0.8-0.2,1-0.6,1-0.9c0-0.2-0.1-0.4-0.3-0.6c-0.2-0.2-0.4-0.3-0.6-0.3l-0.2,0
			c-0.2,0-0.3,0-0.4,0c-0.8,0.1-1.5,0.8-2.2,1.9c-0.8,1.2-1.3,2.8-1.5,4.7c-0.1,0.5-0.1,1.2-0.1,2.2c0,1.3,0,2.1,0.1,2.4
			c0.3,2.1,0.9,3.5,1.6,4.5c0.8,1,2,1.5,3.4,1.6h0.1c0.8,0,1.1-0.5,1.1-0.9C747.6,135.7,747.5,135.1,746.5,135z"/>
		<path d="M757,120.6c-0.2-0.2-0.5-0.3-1-0.3c-0.5,0-1.1,0-1.6,0c-3.8,0.1-4.1,0.2-4.3,0.2c-0.4,0.1-0.6,0.4-0.6,0.8
			c0,0.3,0.2,0.6,0.5,0.7c0.2,0.1,0.4,0.2,1.7,0.2h0.8l0,4.6c0,2.3,0,4.6,0,6.9c0,2.6,0.1,2.7,0.2,2.8c0.2,0.2,0.4,0.4,0.7,0.4
			c0.1,0,0.5,0,0.7-0.2c0.2-0.2,0.2-0.2,0.3-7.7c0-4.2,0-6.1,0-6.8l0.2,0c0.4,0,0.8,0,1.3-0.1c0.7,0,0.8-0.1,0.9-0.1
			c0.4-0.2,0.5-0.4,0.6-0.6C757.4,121.1,757.3,120.8,757,120.6z"/>
	</g>
	<g>
		<path d="M725.9,263.5c-1.6-1.5-1.9-1.9-1.9-2c-0.1-0.2-0.1-0.4-0.1-0.7c0-0.5,0.2-1,0.5-1.4c0.3-0.3,0.6-0.5,1.1-0.7
			c0.4-0.2,0.6-0.2,0.6-0.3c0.1-0.1,0.3-0.3,0.3-0.6c0-0.7-0.7-1-1.5-0.7c-0.8,0.2-1.4,0.7-2,1.3c-0.6,0.7-0.9,1.5-0.9,2.3
			c0,0.2,0,0.4,0,0.5c0.1,0.8,0.5,1.6,1.2,2.2c0.2,0.1,0.6,0.6,1.5,1.4c0.6,0.6,0.9,1,1.1,1.2c0.2,0.2,0.3,0.5,0.5,0.9
			c0.2,0.5,0.3,1.2,0.3,1.9c0,0.4,0,0.7-0.1,0.9c-0.1,0.6-0.4,1.1-0.9,1.5c-0.4,0.4-0.9,0.7-1.5,0.8c-1.5,0.3-1.7,0.5-1.8,0.6
			c-0.1,0.1-0.3,0.3-0.3,0.7c0,0.2,0,0.4,0.1,0.6c0.1,0.2,0.4,0.3,0.7,0.3c0.5,0,0.8-0.1,1-0.2c0.1,0,0.4-0.1,0.8-0.2
			c0.5-0.1,0.9-0.3,1.1-0.4c0.4-0.2,0.8-0.5,1.2-0.9c1-1,1.6-2.3,1.6-3.7c0-1.7-0.4-3.1-1.2-4.2
			C727.2,264.8,727.1,264.6,725.9,263.5z"/>
		<path d="M734,257.7c-1.1-0.7-2-1.1-2.7-1.1l-0.2,0c-0.3,0-0.7,0.2-0.9,0.9c0,0.1-0.1,0.2-0.1,0.8c0,1,0,2.3,0.1,3.9
			c0,0.9,0.1,3,0.1,6c0.1,4.9,0.1,5.2,0.1,5.3c0.1,0.3,0.1,0.5,0.3,0.6c0.2,0.2,0.5,0.3,0.6,0.3c0.3,0,0.6-0.1,0.9-0.4l0.2-0.2
			l-0.1-3.1v-1.6c0-0.8,0-1.2,0-1.3c0.1-0.1,0.2-0.2,0.5-0.4c0.4-0.3,0.8-0.6,1.2-0.9c0.7-0.6,1.2-1.1,1.5-1.6
			c0.3-0.5,0.6-1.1,0.7-1.8c0-0.2,0.1-0.5,0.1-0.9c0-0.9-0.2-1.8-0.6-2.6C735.3,258.8,734.7,258.2,734,257.7z M732.1,258.7
			c1.1,0.5,1.9,1.3,2.2,2.4c0.1,0.4,0.2,0.8,0.2,1.3c0,0.3,0,0.5-0.1,0.7c-0.2,0.7-0.7,1.4-1.4,2c-0.2,0.2-0.4,0.4-0.6,0.5
			c0-0.5-0.1-1.4-0.1-2.9c0-0.4,0-1.1-0.1-1.9c0-0.9-0.1-1.4-0.1-1.6L732.1,258.7C732.1,258.7,732.1,258.7,732.1,258.7z"/>
		<path d="M743.3,268.8c-0.4-0.8-0.8-1.4-1.2-1.6l-0.3-0.3c0.5-0.3,1-0.7,1.4-1.3c0.5-0.6,0.8-1.2,0.9-1.8c0-0.1,0-0.2,0-0.7
			c0-0.8-0.1-1.5-0.2-2.1c-0.2-1-0.7-1.9-1.5-2.8c-0.6-0.7-1.4-1.1-2.1-1.4c-0.4-0.1-0.7-0.2-1-0.2c-0.4,0-0.6,0.2-0.7,0.3l-0.1,0.1
			v0c-0.1,0.2-0.1,0.9-0.2,3c0,2,0,4-0.1,5.8c0,0.6,0,1.5,0,2.6c0,1.4,0,2.3,0,2.9c0,1.2,0.1,1.9,0.1,2.2c0.1,0.5,0.2,0.8,0.6,0.9
			c0.1,0,0.3,0.1,0.4,0.1c0.3,0,0.6-0.2,0.8-0.5c0.1-0.1,0.1-0.2,0.1-1.1c0-0.9,0-1.7,0-2.4c0-0.9,0-1.8,0-2.7c0,0,0,0,0,0
			c0.7,0.5,1.3,1.2,1.8,2.1c0.2,0.5,0.5,1.2,0.8,2c0.7,1.9,0.8,2,0.9,2c0.3,0.3,0.8,0.3,1.2,0c0.2-0.2,0.3-0.4,0.3-0.7
			c0-0.2-0.1-0.6-0.5-1.8C743.9,270.3,743.6,269.4,743.3,268.8z M740,265.6v-0.3c0-2.5,0-4.6,0.1-6c0-0.2,0-0.3,0-0.4
			c1.4,0.8,2.1,2.1,2.1,4.1c0,0.6,0,0.8,0,0.8c0,0-0.1,0.2-0.4,0.6c-0.4,0.6-0.6,0.8-0.7,0.8c-0.1,0-0.4,0.1-0.8,0.3
			C740.1,265.5,740.1,265.5,740,265.6z"/>
		<path d="M754.4,258.8c-0.3,0-0.6,0.2-0.7,0.5c-0.1,0.2-0.1,0.5,0,0.7c0,0,0,0.2,0,1c0,0.6,0,2.3-0.1,5.1c0,2-0.1,3.2-0.1,3.6
			c0,0.4-0.1,0.7-0.3,1.1c-0.5,1-1.1,1.5-1.8,1.5c-0.4,0-0.7-0.1-1-0.4c-0.5-0.5-0.9-1.1-1.1-1.9c-0.3-0.9-0.5-2.5-0.6-4.7
			c-0.2-3.2-0.3-5-0.3-5.5c-0.1-0.8-0.2-1.1-0.5-1.3c-0.2-0.1-0.5-0.2-1,0.2l0,0c-0.2,0.2-0.3,0.5-0.3,1c0,0.6,0,1.6,0.1,3
			c0,0.3,0,0.8,0.1,1.4c0,0.6,0.1,1.1,0.1,1.5c0,0.4,0,0.7,0,0.9c0.1,2.5,0.5,4.2,1.1,5.4c0.6,1.1,1.3,1.7,2.1,2.1
			c0.3,0.1,0.7,0.2,1.3,0.2c0.5,0,1-0.1,1.3-0.3c0.5-0.3,1.1-0.7,1.5-1.3c0.5-0.6,0.8-1.2,0.9-1.8c0.1-0.5,0.3-1.8,0.3-7.3
			c0-3.5-0.1-3.8-0.1-3.9C755.2,258.8,754.6,258.8,754.4,258.8z"/>
		<path d="M761.6,272.6c-0.1,0-0.4-0.1-1.3-0.1c-0.4,0-0.7,0-0.9,0c0-0.2-0.1-0.6-0.1-1.3c-0.1-1-0.1-2-0.1-2.8c0-0.4,0-0.7,0-0.9
			l0-0.2c0.4,0,0.9-0.1,1.1-0.5c0.1-0.1,0.1-0.3,0.1-0.5c0-0.3-0.1-0.9-1.3-0.9c0-0.2,0-1-0.1-3.4l0-2.7h0c0.3,0,0.6-0.1,1-0.1
			c1.5,0,1.9-0.1,2-0.4c0.3-0.5,0.1-1-0.1-1.1c-0.2-0.2-0.6-0.3-1.3-0.3c-0.5,0-0.9,0-1.2,0h-0.4c-0.2,0-0.3,0-0.4,0
			c-0.2,0-0.5,0-0.6,0.1l-0.2,0c-0.1,0-0.2,0.1-0.3,0.1c-0.1,0.1-0.2,0.1-0.2,0.2l-0.1,0.1c0,0.1-0.1,0.2-0.1,2.3c0,2.3,0,5,0.1,8.2
			c0.1,4.9,0.2,5.1,0.2,5.2c0.1,0.3,0.4,0.6,0.7,0.6c0.1,0,0.4,0,1.6,0c0,0,0,0,0,0l1.9,0l0.1-0.3c0.2-0.4,0.3-0.6,0.2-0.9
			C762.1,272.9,761.9,272.7,761.6,272.6z"/>
	</g>
	<g>
		<path d="M774.7,295.6c-0.4-0.8-0.8-1.4-1.2-1.6l-0.3-0.3c0.5-0.3,1-0.7,1.4-1.3c0.5-0.6,0.8-1.2,0.9-1.8c0-0.1,0-0.2,0-0.7
			c0-0.8-0.1-1.5-0.2-2.1c-0.2-1-0.7-1.9-1.5-2.8c-0.6-0.7-1.4-1.1-2.1-1.4c-0.4-0.1-0.7-0.2-1-0.2c-0.4,0-0.6,0.2-0.7,0.3l-0.1,0.1
			v0c-0.1,0.2-0.1,0.9-0.2,3c0,2,0,4-0.1,5.8c0,0.6,0,1.5,0,2.6c0,1.4,0,2.3,0,2.9c0,1.2,0.1,1.9,0.1,2.2c0.1,0.5,0.2,0.8,0.6,0.9
			c0.1,0,0.3,0.1,0.4,0.1c0.3,0,0.6-0.2,0.8-0.5c0.1-0.1,0.1-0.2,0.1-1.1c0-0.9,0-1.7,0-2.4c0-0.9,0-1.8,0-2.7c0,0,0,0,0,0
			c0.7,0.5,1.3,1.2,1.8,2.1c0.2,0.5,0.5,1.2,0.8,2c0.7,1.9,0.8,2,0.9,2c0.3,0.3,0.8,0.3,1.2,0c0.2-0.2,0.3-0.4,0.3-0.7
			c0-0.2-0.1-0.6-0.5-1.8C775.3,297,775,296.1,774.7,295.6z M771.4,292.3v-0.3c0-2.5,0-4.6,0.1-6c0-0.2,0-0.3,0-0.4
			c1.4,0.8,2.1,2.1,2.1,4.1c0,0.6,0,0.8,0,0.8c0,0-0.1,0.2-0.4,0.6c-0.4,0.6-0.6,0.8-0.7,0.8c-0.1,0-0.4,0.1-0.8,0.3
			C771.5,292.2,771.4,292.2,771.4,292.3z"/>
		<path d="M785.8,285.5c-0.3,0-0.6,0.2-0.7,0.5c-0.1,0.2-0.1,0.5,0,0.7c0,0,0,0.2,0,1c0,0.6,0,2.3-0.1,5.1c0,2-0.1,3.2-0.1,3.6
			c0,0.4-0.1,0.7-0.3,1.1c-0.5,1-1.1,1.5-1.8,1.5c-0.4,0-0.7-0.1-1-0.4c-0.5-0.5-0.9-1.1-1.1-1.9c-0.3-0.9-0.5-2.5-0.6-4.7
			c-0.2-3.2-0.3-5-0.3-5.5c-0.1-0.8-0.2-1.1-0.5-1.3c-0.2-0.1-0.6-0.2-1,0.2l0,0c-0.2,0.2-0.3,0.5-0.3,1c0,0.6,0,1.6,0.1,3
			c0,0.3,0,0.8,0.1,1.4c0,0.6,0.1,1.1,0.1,1.5c0,0.4,0,0.7,0,0.9c0.1,2.5,0.5,4.2,1.1,5.4c0.6,1.1,1.3,1.7,2.1,2.1
			c0.3,0.1,0.7,0.2,1.3,0.2c0.5,0,1-0.1,1.3-0.3c0.5-0.3,1.1-0.7,1.5-1.3c0.5-0.6,0.8-1.2,0.9-1.8c0.1-0.5,0.3-1.8,0.3-7.3
			c0-3.5-0.1-3.8-0.1-3.9C786.6,285.5,786,285.5,785.8,285.5z"/>
		<path d="M796.3,285.4c-0.2-0.8-0.7-0.9-0.9-0.9c-0.2,0-0.5,0.1-0.7,0.6c-0.1,0.2-0.1,0.5-0.1,0.7c0.1,1.1,0.2,2.7,0.3,4.8l0.1,2.2
			c0.1,1.2,0.1,2.3,0.2,3.2c0,0,0,0,0,0.1c-0.6-1.3-1.3-3.1-2.2-5.4c-1.8-4.4-2.3-5.3-2.6-5.6c-0.3-0.3-0.6-0.5-0.9-0.5
			c-0.3,0-0.7,0.1-0.8,1.1v0.1c0,0.8,0.1,3.4,0.3,7.6c0.3,6.4,0.3,6.6,0.4,6.7c0.2,0.8,0.7,0.9,0.9,0.9c0.2,0,0.5-0.1,0.7-0.5
			c0.1-0.1,0.1-0.2,0.1-0.8c0-1.2-0.1-4.1-0.3-8.7c0-0.5,0-0.9,0-1.2c0.7,1.7,1.5,3.7,2.4,5.8c1,2.4,1.7,3.8,1.9,4.3
			c0.3,0.6,0.5,1,0.8,1.1c0.1,0.1,0.2,0.1,0.4,0.1c0.2,0,0.3,0,0.4-0.1c0.4-0.2,0.5-0.8,0.5-1.8c0-0.8,0-1.8-0.1-3.1
			C796.7,289.6,796.4,286.1,796.3,285.4z"/>
		<path d="M806.4,285.4c-0.2-0.8-0.7-0.9-0.9-0.9c-0.2,0-0.5,0.1-0.7,0.6c-0.1,0.2-0.1,0.5-0.1,0.7c0.1,1.1,0.2,2.7,0.3,4.8l0.1,2.2
			c0.1,1.2,0.1,2.3,0.2,3.2c0,0,0,0,0,0.1c-0.6-1.3-1.3-3.1-2.2-5.4c-1.8-4.4-2.3-5.3-2.6-5.6c-0.3-0.3-0.6-0.5-0.9-0.5
			c-0.3,0-0.7,0.1-0.8,1.1v0.1c0,0.8,0.1,3.4,0.3,7.6c0.3,6.4,0.3,6.6,0.4,6.7c0.2,0.8,0.7,0.9,0.9,0.9c0.2,0,0.5-0.1,0.7-0.5
			c0.1-0.1,0.1-0.2,0.1-0.8c0-1.2-0.1-4.1-0.3-8.7c0-0.5,0-0.9,0-1.2c0.7,1.7,1.5,3.7,2.4,5.8c1,2.4,1.7,3.8,1.9,4.3
			c0.3,0.6,0.5,1,0.8,1.1c0.1,0.1,0.2,0.1,0.4,0.1c0.2,0,0.3,0,0.4-0.1c0.4-0.2,0.5-0.8,0.5-1.8c0-0.8,0-1.8-0.1-3.1
			C806.8,289.6,806.5,286.1,806.4,285.4z"/>
		<path d="M811.7,285.9c1.5,0,1.9-0.1,2-0.4c0.3-0.5,0.1-1-0.1-1.1c-0.2-0.2-0.6-0.3-1.3-0.3c-0.5,0-0.9,0-1.2,0h-0.4
			c-0.2,0-0.3,0-0.4,0c-0.2,0-0.5,0-0.6,0.1l-0.2,0c-0.1,0-0.2,0.1-0.3,0.1c-0.1,0.1-0.2,0.1-0.2,0.2l-0.1,0.1
			c0,0.1-0.1,0.2-0.1,2.3c0,2.3,0,5,0.1,8.2c0.1,4.9,0.2,5.1,0.2,5.2c0.1,0.3,0.4,0.6,0.7,0.6c0.1,0,0.4,0,1.6,0l1.9,0l0.1-0.3
			c0.2-0.4,0.3-0.6,0.2-0.9c-0.1-0.3-0.3-0.6-0.7-0.6c-0.1,0-0.4-0.1-1.3-0.1c-0.4,0-0.7,0-0.9,0c0-0.2-0.1-0.6-0.1-1.3
			c-0.1-1-0.1-2-0.1-2.8c0-0.4,0-0.7,0-0.9l0-0.2c0.4,0,0.9-0.1,1.1-0.5c0.1-0.1,0.1-0.3,0.1-0.5c0-0.3-0.1-0.9-1.3-0.9
			c0-0.2,0-1-0.1-3.4l0-2.7h0C811,285.9,811.3,285.9,811.7,285.9z"/>
		<path d="M822,298.3c-0.5-1.3-0.8-2.2-1.1-2.8c-0.4-0.8-0.8-1.4-1.2-1.6l-0.3-0.3c0.5-0.3,1-0.7,1.4-1.3c0.5-0.6,0.8-1.2,0.9-1.8
			c0-0.1,0-0.2,0-0.7c0-0.8-0.1-1.5-0.2-2.1c-0.2-1-0.7-1.9-1.5-2.8c-0.6-0.7-1.4-1.1-2.1-1.4c-0.4-0.1-0.7-0.2-1-0.2
			c-0.4,0-0.6,0.2-0.7,0.3l-0.1,0.1v0c-0.1,0.2-0.1,0.9-0.2,3c0,2,0,4-0.1,5.8c0,0.6,0,1.5,0,2.6c0,1.4,0,2.3,0,2.9
			c0,1.2,0.1,1.9,0.1,2.2c0.1,0.5,0.2,0.8,0.6,0.9c0.1,0,0.3,0.1,0.4,0.1c0.3,0,0.6-0.2,0.8-0.5c0.1-0.1,0.1-0.2,0.1-1.1
			c0-0.9,0-1.7,0-2.4c0-0.9,0-1.8,0-2.7c0,0,0,0,0,0c0.7,0.5,1.3,1.2,1.8,2.1c0.2,0.5,0.5,1.2,0.8,2c0.7,1.9,0.8,2,0.9,2
			c0.3,0.3,0.8,0.3,1.2,0c0.2-0.2,0.3-0.4,0.3-0.7C822.4,299.9,822.4,299.5,822,298.3z M817.6,292.3v-0.3c0-2.5,0-4.6,0.1-6
			c0-0.2,0-0.3,0-0.4c1.4,0.8,2.1,2.1,2.1,4.1c0,0.6,0,0.8,0,0.8c0,0-0.1,0.2-0.4,0.6c-0.4,0.6-0.6,0.8-0.7,0.8
			c-0.1,0-0.4,0.1-0.8,0.3C817.7,292.2,817.6,292.2,817.6,292.3z"/>
	</g>
	<path d="M758.1,214.8c5.9,6.7,9.3,15.2,12.6,23.4c3.3,8.4,6.1,17.1,8.3,25.9c1.2,5,2.3,10.1,3.1,15.3c0.3,1.6,2.7,0.9,2.4-0.7
		c-3.1-18.3-8.5-36.5-16.6-53.2c-2.2-4.5-4.7-8.7-8-12.5C758.8,211.8,757,213.6,758.1,214.8L758.1,214.8z"/>
	<path d="M742.1,164.9c-0.1-0.7-0.7-1.2-1.3-1.5c-0.6-0.2-1.4-0.2-2.1-0.1c-0.1-0.2-0.2-0.4-0.2-0.7c-1-2.8-2.2-5.6-3.5-8.3
		c-2.1-4.7-4.4-9.6-7.4-13.8c-0.9-1.3-3.1,0-2.2,1.3c2.9,4,5,8.7,7.1,13.2c1.2,2.6,2.4,5.3,3.4,8c0.1,0.3,0.2,0.6,0.3,0.9
		c-0.6,0.2-1.1,0.5-1.6,0.9c-0.5,0.3-0.8,0.9-0.6,1.5c0,0.8,0.4,1.5,0.8,2.1c0.5,0.8,1.2,1.4,1.9,2c0.3,0.3,0.7,0.6,1.1,0.8
		c0.4,0.3,0.8,0.7,1.3,0.8c0.9,0.3,1.6-0.3,1.8-1.1c0.2-0.5,0.3-1,0.5-1.5c0.3-1,0.5-2,0.6-3C742.2,166,742.2,165.4,742.1,164.9z"/>
	<path d="M588,84.1c-0.3-1-0.8-2-1.3-3c-0.5-0.9-1-1.8-1.7-2.6c-0.4-0.6-0.9-1.1-1.6-1.1c-0.7,0-1.2,0.5-1.7,1
		c-0.6,0.6-1.1,1.2-1.6,1.8c-13.3-5.7-27.2-10.1-41.4-12.9c-14.6-2.9-29.5-4.4-44.4-4.4c-14.9,0-29.8,1.6-44.4,4.5
		c-14.6,2.9-28.9,7.4-42.6,13.2c-13.8,5.8-27,13.1-39.2,21.7c-1.5,1.1-3,2.1-4.4,3.2c-1.3,1,0,3.1,1.3,2.2
		c11.8-8.8,24.5-16.3,37.9-22.4c13.4-6.1,27.5-10.8,41.8-14.1c14.4-3.3,29.1-5.2,43.8-5.6c14.7-0.4,29.5,0.6,44,3.1
		c14.5,2.5,28.7,6.5,42.4,12.1c1.2,0.5,2.5,1,3.7,1.6c-0.4,0.6-0.8,1.2-1.2,1.9c-0.2,0.3-0.2,0.7-0.1,1c0,0,0,0.1,0,0.1
		c-0.1,0.4,0,0.9,0.3,1.2c0.5,0.5,1.1,0.6,1.6,0.5c0.5,0.4,1.1,0.6,1.8,0.7c1.2,0.2,2.4,0.4,3.7,0.4c1,0,2.3,0.1,3.1-0.7
		C588.7,86.5,588.3,85.2,588,84.1z"/>
</g>
</svg>
