<?xml version="1.0" encoding="utf-8"?>
<!-- Generator: Adobe Illustrator 24.0.1, SVG Export Plug-In . SVG Version: 6.00 Build 0)  -->
<svg version="1.1" xmlns="http://www.w3.org/2000/svg" xmlns:xlink="http://www.w3.org/1999/xlink" x="0px" y="0px"
	 viewBox="0 0 1000 365.3" style="enable-background:new 0 0 1000 365.3;" xml:space="preserve">
<style type="text/css">
	.st0{fill:#95D2EF;}
	.st1{fill:#FCDE8A;}
	.st2{fill:#1E1E1C;}
	.st3{fill:#1E1E1C;stroke:#1E1E1C;stroke-width:0.25;stroke-miterlimit:10;}
	.st4{fill:#1E1E1C;stroke:#1E1E1C;stroke-width:0.15;stroke-miterlimit:10;}
	.st5{fill:#FFFFFF;}
	.st6{stroke:#1E1E1C;stroke-miterlimit:10;}
	.st7{fill:none;stroke:#1E1E1C;stroke-width:3;stroke-linecap:round;stroke-linejoin:round;stroke-miterlimit:10;}
</style>
<g id="Calque_2">
	<g>
		<path d="M138.1,246.1c-0.5,0-1.1,0-1.6,0c-3.8,0.1-4.1,0.2-4.3,0.2c-0.4,0.1-0.6,0.4-0.6,0.8c0,0.3,0.2,0.6,0.5,0.7
			c0.2,0.1,0.4,0.2,1.7,0.2h0.8l0,4.6c0,2.3,0,4.6,0,6.9c0,2.6,0.1,2.7,0.2,2.8c0.2,0.2,0.4,0.4,0.7,0.4c0.1,0,0.5,0,0.7-0.2
			c0.2-0.2,0.2-0.2,0.3-7.7c0-4.2,0-6.1,0-6.8l0.2,0c0.4,0,0.8,0,1.3-0.1c0.7,0,0.8-0.1,0.9-0.1c0.4-0.2,0.5-0.4,0.6-0.6
			c0.1-0.3,0-0.6-0.2-0.8C138.9,246.2,138.6,246.1,138.1,246.1z"/>
		<path d="M147.6,246.4c-0.4-0.4-0.8-0.4-1.1-0.2l0,0c-0.3,0.2-0.4,0.7-0.4,1c0,0.1,0,0.5,0.1,2.1c0.1,1.6,0.2,2.6,0.2,3.1v0.5h-3.5
			v-2.6c0-3.2-0.1-3.4-0.2-3.5c-0.2-0.3-0.4-0.5-0.7-0.5c-0.4,0-0.7,0.2-0.8,0.6c-0.1,0.1-0.1,0.2-0.1,7.7v7.6l0.1,0.1
			c0.3,0.3,0.6,0.4,0.8,0.4c0.2,0,0.4-0.1,0.6-0.4c0.1-0.2,0.2-0.2,0.2-4.2l0-3.3h3.7c0,0.1,0,0.3,0,0.6c0,0.7,0.1,1.8,0.1,3.3
			c0,1.7,0.1,2.7,0.1,3.1c0.1,0.6,0.3,1,0.6,1.2c0.2,0.1,0.3,0.1,0.5,0.1c0.1,0,0.2,0,0.2,0c0.2-0.1,0.4-0.2,0.5-0.5l0-0.1
			c0-0.1,0-0.3,0-0.4c0-0.7-0.2-4.2-0.5-10.6C147.9,246.8,147.8,246.6,147.6,246.4z"/>
		<path d="M153.2,247.5c1.5,0,1.9-0.1,2-0.4c0.3-0.5,0.1-1-0.1-1.1c-0.2-0.2-0.6-0.3-1.3-0.3c-0.5,0-0.9,0-1.2,0h-0.4
			c-0.2,0-0.3,0-0.4,0c-0.2,0-0.5,0-0.6,0.1l-0.2,0c-0.1,0-0.2,0.1-0.3,0.1c-0.1,0.1-0.2,0.1-0.2,0.2l-0.1,0.1
			c0,0.1-0.1,0.2-0.1,2.3c0,2.3,0,5,0.1,8.2c0.1,4.9,0.2,5.1,0.2,5.2c0.1,0.3,0.4,0.6,0.7,0.6c0.1,0,0.4,0,1.6,0c0,0,0,0,0,0l1.9,0
			l0.1-0.3c0.2-0.4,0.3-0.6,0.2-0.9c-0.1-0.3-0.3-0.6-0.7-0.6c-0.1,0-0.4-0.1-1.3-0.1c-0.4,0-0.7,0-0.9,0c0-0.2-0.1-0.6-0.1-1.3
			c-0.1-1-0.1-2-0.1-2.8c0-0.4,0-0.7,0-0.9l0-0.2c0.4,0,0.9-0.1,1.1-0.5c0.1-0.1,0.1-0.3,0.1-0.5c0-0.3-0.1-0.9-1.3-0.9
			c0-0.2,0-1-0.1-3.4l0-2.7h0C152.5,247.5,152.8,247.5,153.2,247.5z"/>
		<path d="M162.3,257.2c-0.4-0.8-0.8-1.4-1.2-1.6l-0.3-0.3c0.5-0.3,1-0.7,1.4-1.3c0.5-0.6,0.8-1.2,0.9-1.8c0-0.1,0-0.2,0-0.7
			c0-0.8-0.1-1.5-0.2-2.1c-0.2-1-0.7-1.9-1.5-2.8c-0.6-0.7-1.4-1.1-2.1-1.4c-0.4-0.1-0.7-0.2-1-0.2c-0.4,0-0.6,0.2-0.7,0.3l-0.1,0.1
			v0c-0.1,0.2-0.1,0.9-0.2,3c0,2,0,4-0.1,5.8c0,0.6,0,1.5,0,2.6c0,1.4,0,2.3,0,2.9c0,1.2,0.1,1.9,0.1,2.2c0.1,0.5,0.2,0.8,0.6,0.9
			c0.1,0,0.3,0.1,0.4,0.1c0.3,0,0.6-0.2,0.8-0.5c0.1-0.1,0.1-0.2,0.1-1.1c0-0.9,0-1.7,0-2.4c0-0.9,0-1.8,0-2.7c0,0,0,0,0,0
			c0.7,0.5,1.3,1.2,1.8,2.1c0.2,0.5,0.5,1.2,0.8,2c0.7,1.9,0.8,2,0.9,2c0.3,0.3,0.8,0.3,1.2,0c0.2-0.2,0.3-0.4,0.3-0.7
			c0-0.2-0.1-0.6-0.5-1.8C163,258.6,162.6,257.7,162.3,257.2z M159.1,253.9v-0.3c0-2.5,0-4.6,0.1-6c0-0.2,0-0.3,0-0.4
			c1.4,0.8,2.1,2.1,2.1,4.1c0,0.6,0,0.8,0,0.8c0,0-0.1,0.2-0.4,0.6c-0.4,0.6-0.6,0.8-0.7,0.8c-0.1,0-0.4,0.1-0.8,0.3
			C159.2,253.8,159.1,253.8,159.1,253.9z"/>
		<path d="M177.3,259.2c-0.4-2.6-0.8-5.4-1.3-8.4c-0.6-3.9-0.6-4-0.7-4.1c-0.3-0.6-1.1-0.8-1.6-0.3c-0.2,0.1-0.5,0.5-1.5,2.1
			c-0.5,0.7-0.8,1.2-1,1.4c-0.2-0.2-0.4-0.6-0.8-1.2c-1.2-1.8-1.3-1.9-1.3-1.9c-0.4-0.5-0.8-0.6-1.1-0.6c-0.3,0-0.6,0.1-0.7,0.4
			c-0.1,0.1-0.2,0.4-0.2,1c-0.1,0.9-0.2,1.8-0.3,2.8c-0.8,7-1.1,10.8-1.1,11.5c0,0.5,0.3,0.7,0.4,0.8c0.3,0.2,0.6,0.2,0.9-0.1
			c0.3-0.2,0.4-0.5,0.5-1.7c0.1-0.9,0.4-3.8,0.8-8.7c0.1-1.4,0.2-2.3,0.3-2.9c0.1,0.1,0.1,0.2,0.2,0.2c0.5,0.8,0.9,1.4,1.2,1.8
			c0.5,0.9,0.8,1.2,1.2,1.2c0.4,0,0.6-0.3,0.7-0.4c0.1-0.2,0.4-0.5,0.8-1.1c0.4-0.6,0.8-1.2,1.2-1.8c0.3,1.4,0.6,4.1,1.2,7.9
			c0.7,5.4,1,5.7,1.1,5.9c0.2,0.2,0.4,0.3,0.6,0.3c0.1,0,0.2,0,0.3-0.1c0.3-0.1,0.5-0.4,0.5-0.8c0-0.1,0-0.3-0.1-1
			C177.6,261.1,177.5,260.4,177.3,259.2z"/>
		<path d="M188,249c-0.5-1.7-1.4-2.8-2.6-3.3c-0.3-0.2-0.8-0.2-1.5-0.2c-0.3,0-0.6,0-0.8,0h0c-0.8,0.1-1.4,0.4-2,1
			c-0.9,0.8-1.4,2-1.5,3.5c-0.1,0.8-0.1,1.9-0.1,3.2c0,0.4,0,0.6,0.1,0.8c0,0.1,0,0.4,0,1.3c0,1.2,0.2,2.5,0.5,3.7
			c0.2,0.9,0.5,1.6,0.8,2.1c0.3,0.5,0.8,0.9,1.3,1.3c0.6,0.4,1.2,0.5,1.9,0.5c1,0,1.9-0.3,2.5-0.9c0.8-0.7,1.3-1.8,1.6-3.1
			c0.2-1.1,0.3-2.5,0.3-4.1c0-1.5-0.1-2.6-0.1-3.4C188.4,250.5,188.2,249.7,188,249z M186.8,254.5c0,1.3-0.1,2.5-0.3,3.5
			c-0.2,1-0.6,1.8-1.1,2.3c-0.3,0.3-0.8,0.5-1.3,0.5c-0.4,0-0.7-0.1-0.8-0.1c-0.4-0.2-0.8-0.6-1-1.3c-0.3-0.7-0.5-1.8-0.7-3.3
			c-0.1-0.8-0.1-2-0.1-3.3c0-1.6,0.1-2.6,0.2-3.1c0.3-1.4,0.9-2.2,1.9-2.4c0.2,0,0.3,0,0.4,0c0.5,0,1,0.2,1.4,0.6l0,0
			c0.4,0.4,0.8,1.1,1.1,2c0.3,1,0.4,2.1,0.4,3.2C186.7,253.9,186.7,254.3,186.8,254.5L186.8,254.5z"/>
		<path d="M194.2,251.8c-1.6-1.5-1.9-1.9-1.9-2c-0.1-0.2-0.1-0.4-0.1-0.7c0-0.5,0.2-1,0.5-1.4c0.3-0.3,0.6-0.5,1.1-0.7
			c0.4-0.2,0.6-0.2,0.6-0.3c0.1-0.1,0.3-0.3,0.3-0.6c0-0.7-0.7-1-1.5-0.7c-0.8,0.2-1.4,0.7-2,1.3c-0.6,0.7-0.9,1.5-0.9,2.3
			c0,0.2,0,0.4,0,0.5c0.1,0.8,0.5,1.6,1.2,2.2c0.2,0.1,0.6,0.6,1.5,1.4c0.6,0.6,0.9,1,1.1,1.2c0.2,0.2,0.3,0.5,0.5,0.9
			c0.2,0.5,0.3,1.2,0.3,1.9c0,0.4,0,0.7-0.1,0.9c-0.1,0.6-0.4,1.1-0.9,1.5c-0.4,0.4-0.9,0.7-1.5,0.8c-1.5,0.3-1.7,0.5-1.8,0.6
			c-0.1,0.1-0.3,0.3-0.3,0.7c0,0.2,0,0.4,0.1,0.6c0.1,0.2,0.4,0.3,0.7,0.3c0.5,0,0.8-0.1,1-0.2c0.1,0,0.4-0.1,0.8-0.2
			c0.5-0.1,0.9-0.3,1.1-0.4c0.4-0.2,0.8-0.5,1.2-0.9c1-1,1.6-2.3,1.6-3.7c0-1.7-0.4-3.1-1.2-4.2C195.6,253.1,195.5,253,194.2,251.8z
			"/>
		<path d="M201.4,247.5c1.5,0,1.9-0.1,2-0.4c0.3-0.5,0.1-1-0.1-1.1c-0.2-0.2-0.6-0.3-1.3-0.3c-0.5,0-0.9,0-1.2,0h-0.4
			c-0.2,0-0.3,0-0.4,0c-0.2,0-0.5,0-0.6,0.1l-0.2,0c-0.1,0-0.2,0.1-0.3,0.1c-0.1,0.1-0.2,0.1-0.2,0.2l-0.1,0.1
			c0,0.1-0.1,0.2-0.1,2.3c0,2.3,0,5,0.1,8.2c0.1,4.9,0.2,5.1,0.2,5.2c0.1,0.3,0.4,0.6,0.7,0.6c0.1,0,0.4,0,1.6,0c0,0,0,0,0,0l1.9,0
			l0.1-0.3c0.2-0.4,0.3-0.6,0.2-0.9c-0.1-0.3-0.3-0.6-0.7-0.6c-0.1,0-0.4-0.1-1.3-0.1c-0.4,0-0.7,0-0.9,0c0-0.2-0.1-0.6-0.1-1.3
			c-0.1-1-0.1-2-0.1-2.8c0-0.4,0-0.7,0-0.9l0-0.2c0.4,0,0.9-0.1,1.1-0.5c0.1-0.1,0.1-0.3,0.1-0.5c0-0.3-0.1-0.9-1.3-0.9
			c0-0.2,0-1-0.1-3.4l0-2.7h0C200.7,247.5,201,247.5,201.4,247.5z"/>
		<path d="M213,246.4c-0.2-0.2-0.5-0.3-1-0.3c-0.5,0-1.1,0-1.6,0c-3.8,0.1-4.1,0.2-4.3,0.2c-0.4,0.1-0.6,0.4-0.6,0.8
			c0,0.3,0.2,0.6,0.5,0.7c0.2,0.1,0.4,0.2,1.7,0.2h0.8l0,4.6c0,2.3,0,4.6,0,6.9c0,2.6,0.1,2.7,0.2,2.8c0.2,0.2,0.4,0.4,0.7,0.4
			c0.1,0,0.5,0,0.7-0.2c0.2-0.2,0.2-0.2,0.3-7.7c0-4.2,0-6.1,0-6.8l0.2,0c0.4,0,0.8,0,1.3-0.1c0.7,0,0.8-0.1,0.9-0.1
			c0.4-0.2,0.5-0.4,0.6-0.6C213.3,246.9,213.2,246.6,213,246.4z"/>
	</g>
	<g>
		<path d="M451.7,246.1c-0.5,0-1.1,0-1.6,0c-3.8,0.1-4.1,0.2-4.3,0.2c-0.4,0.1-0.6,0.4-0.6,0.8c0,0.3,0.2,0.6,0.5,0.7
			c0.2,0.1,0.4,0.2,1.7,0.2h0.8l0,4.6c0,2.3,0,4.6,0,6.9c0,2.6,0.1,2.7,0.2,2.8c0.2,0.2,0.4,0.4,0.7,0.4c0.1,0,0.5,0,0.7-0.2
			c0.2-0.2,0.2-0.2,0.3-7.7c0-4.2,0-6.1,0-6.8l0.2,0c0.4,0,0.8,0,1.3-0.1c0.7,0,0.8-0.1,0.9-0.1c0.4-0.2,0.5-0.4,0.6-0.6
			c0.1-0.3,0-0.6-0.2-0.8C452.6,246.2,452.3,246.1,451.7,246.1z"/>
		<path d="M461.3,246.4c-0.4-0.4-0.8-0.4-1.1-0.2l0,0c-0.3,0.2-0.4,0.7-0.4,1c0,0.1,0,0.5,0.1,2.1c0.1,1.6,0.2,2.6,0.2,3.1v0.5h-3.5
			v-2.6c0-3.2-0.1-3.4-0.2-3.5c-0.2-0.3-0.4-0.5-0.7-0.5c-0.4,0-0.7,0.2-0.8,0.6c-0.1,0.1-0.1,0.2-0.1,7.7v7.6l0.1,0.1
			c0.3,0.3,0.6,0.4,0.8,0.4c0.2,0,0.4-0.1,0.6-0.4c0.1-0.2,0.2-0.2,0.2-4.2l0-3.3h3.7c0,0.1,0,0.3,0,0.6c0,0.7,0.1,1.8,0.1,3.3
			c0,1.7,0.1,2.7,0.1,3.1c0.1,0.6,0.3,1,0.6,1.2c0.2,0.1,0.3,0.1,0.5,0.1c0.1,0,0.2,0,0.2,0c0.2-0.1,0.4-0.2,0.5-0.5l0-0.1
			c0-0.1,0-0.3,0-0.4c0-0.7-0.2-4.2-0.5-10.6C461.5,246.8,461.4,246.6,461.3,246.4z"/>
		<path d="M466.9,247.4c1.5,0,1.9-0.1,2-0.4c0.3-0.5,0.1-1-0.1-1.1c-0.2-0.2-0.6-0.3-1.3-0.3c-0.5,0-0.9,0-1.2,0h-0.4
			c-0.2,0-0.3,0-0.4,0c-0.2,0-0.5,0-0.6,0.1l-0.2,0c-0.1,0-0.2,0.1-0.3,0.1c-0.1,0.1-0.2,0.1-0.2,0.2l-0.1,0.1
			c0,0.1-0.1,0.2-0.1,2.3c0,2.3,0,5,0.1,8.2c0.1,4.9,0.2,5.1,0.2,5.2c0.1,0.3,0.4,0.6,0.7,0.6c0.1,0,0.4,0,1.6,0c0,0,0,0,0,0l1.9,0
			l0.1-0.3c0.2-0.4,0.3-0.6,0.2-0.9c-0.1-0.3-0.3-0.6-0.7-0.6c-0.1,0-0.4-0.1-1.3-0.1c-0.4,0-0.7,0-0.9,0c0-0.2-0.1-0.6-0.1-1.3
			c-0.1-1-0.1-2-0.1-2.8c0-0.4,0-0.7,0-0.9l0-0.2c0.4,0,0.9-0.1,1.1-0.5c0.1-0.1,0.1-0.3,0.1-0.5c0-0.3-0.1-0.9-1.3-0.9
			c0-0.2,0-1-0.1-3.4l0-2.7h0C466.1,247.5,466.5,247.4,466.9,247.4z"/>
		<path d="M476,257.1c-0.4-0.8-0.8-1.4-1.2-1.6l-0.3-0.3c0.5-0.3,1-0.7,1.4-1.3c0.5-0.6,0.8-1.2,0.9-1.8c0-0.1,0-0.2,0-0.7
			c0-0.8-0.1-1.5-0.2-2.1c-0.2-1-0.7-1.9-1.5-2.8c-0.6-0.7-1.4-1.1-2.1-1.4c-0.4-0.1-0.7-0.2-1-0.2c-0.4,0-0.6,0.2-0.7,0.3l-0.1,0.1
			v0c-0.1,0.2-0.1,0.9-0.2,3c0,2,0,4-0.1,5.8c0,0.6,0,1.5,0,2.6c0,1.4,0,2.3,0,2.9c0,1.2,0.1,1.9,0.1,2.2c0.1,0.5,0.2,0.8,0.6,0.9
			c0.1,0,0.3,0.1,0.4,0.1c0.3,0,0.6-0.2,0.8-0.5c0.1-0.1,0.1-0.2,0.1-1.1c0-0.9,0-1.7,0-2.4c0-0.9,0-1.8,0-2.7c0,0,0,0,0,0
			c0.7,0.5,1.3,1.2,1.8,2.1c0.2,0.5,0.5,1.2,0.8,2c0.7,1.9,0.8,2,0.9,2c0.3,0.3,0.8,0.3,1.2,0c0.2-0.2,0.3-0.4,0.3-0.7
			c0-0.2-0.1-0.6-0.5-1.8C476.7,258.6,476.3,257.7,476,257.1z M472.7,253.8v-0.3c0-2.5,0-4.6,0.1-6c0-0.2,0-0.3,0-0.4
			c1.4,0.8,2.1,2.1,2.1,4.1c0,0.6,0,0.8,0,0.8c0,0-0.1,0.2-0.4,0.6c-0.4,0.6-0.6,0.8-0.7,0.8c-0.1,0-0.4,0.1-0.8,0.3
			C472.9,253.8,472.8,253.8,472.7,253.8z"/>
		<path d="M491,259.2c-0.4-2.6-0.8-5.4-1.3-8.4c-0.6-3.9-0.6-4-0.7-4.1c-0.3-0.6-1.1-0.8-1.6-0.3c-0.2,0.1-0.5,0.5-1.5,2.1
			c-0.5,0.7-0.8,1.2-1,1.4c-0.2-0.2-0.4-0.6-0.8-1.2c-1.2-1.8-1.3-1.9-1.3-1.9c-0.4-0.5-0.8-0.6-1.1-0.6c-0.3,0-0.6,0.1-0.7,0.4
			c-0.1,0.1-0.2,0.4-0.2,1c-0.1,0.9-0.2,1.8-0.3,2.8c-0.8,7-1.1,10.8-1.1,11.5c0,0.5,0.3,0.7,0.4,0.8c0.3,0.2,0.6,0.2,0.9-0.1
			c0.3-0.2,0.4-0.5,0.5-1.7c0.1-0.9,0.4-3.8,0.8-8.7c0.1-1.4,0.2-2.3,0.3-2.9c0.1,0.1,0.1,0.2,0.2,0.2c0.5,0.8,0.9,1.4,1.2,1.8
			c0.5,0.9,0.8,1.2,1.2,1.2c0.4,0,0.6-0.3,0.7-0.4c0.1-0.2,0.4-0.5,0.8-1.1c0.4-0.6,0.8-1.2,1.2-1.8c0.3,1.4,0.6,4.1,1.2,7.9
			c0.7,5.4,1,5.7,1.1,5.9c0.2,0.2,0.4,0.3,0.6,0.3c0.1,0,0.2,0,0.3-0.1c0.3-0.1,0.5-0.4,0.5-0.8c0-0.1,0-0.3-0.1-1
			C491.2,261.1,491.1,260.4,491,259.2z"/>
		<path d="M501.6,249c-0.5-1.7-1.4-2.8-2.6-3.3c-0.3-0.2-0.8-0.2-1.5-0.2c-0.3,0-0.6,0-0.8,0h0c-0.8,0.1-1.4,0.4-2,1
			c-0.9,0.8-1.4,2-1.5,3.5c-0.1,0.8-0.1,1.9-0.1,3.2c0,0.4,0,0.6,0.1,0.8c0,0.1,0,0.4,0,1.3c0,1.2,0.2,2.5,0.5,3.7
			c0.2,0.9,0.5,1.6,0.8,2.1c0.3,0.5,0.8,0.9,1.3,1.3c0.6,0.4,1.2,0.5,1.9,0.5c1,0,1.9-0.3,2.5-0.9c0.8-0.7,1.3-1.8,1.6-3.1
			c0.2-1.1,0.3-2.5,0.3-4.1c0-1.5-0.1-2.6-0.1-3.4C502,250.5,501.9,249.7,501.6,249z M500.4,254.5c0,1.3-0.1,2.5-0.3,3.5
			c-0.2,1-0.6,1.8-1.1,2.3c-0.3,0.3-0.8,0.5-1.3,0.5c-0.4,0-0.7-0.1-0.8-0.1c-0.4-0.2-0.8-0.6-1-1.3c-0.3-0.7-0.5-1.8-0.7-3.3
			c-0.1-0.8-0.1-2-0.1-3.3c0-1.6,0.1-2.6,0.2-3.1c0.3-1.4,0.9-2.2,1.9-2.4c0.2,0,0.3,0,0.4,0c0.5,0,1,0.2,1.4,0.6l0,0
			c0.4,0.4,0.8,1.1,1.1,2c0.3,1,0.4,2.1,0.4,3.2C500.4,253.9,500.4,254.3,500.4,254.5L500.4,254.5z"/>
		<path d="M507.7,245.9c-1.1-0.7-2-1.1-2.7-1.1l-0.2,0c-0.3,0-0.7,0.2-0.9,0.9c0,0.1-0.1,0.2-0.1,0.8c0,1,0,2.3,0.1,3.9
			c0,0.9,0.1,3,0.1,6c0.1,4.9,0.1,5.2,0.1,5.3c0.1,0.3,0.1,0.5,0.3,0.6c0.2,0.2,0.5,0.3,0.6,0.3c0.3,0,0.6-0.1,0.9-0.4l0.2-0.2
			l-0.1-3.1v-1.6c0-0.8,0-1.2,0-1.3c0.1-0.1,0.2-0.2,0.5-0.4c0.4-0.3,0.8-0.6,1.2-0.9c0.7-0.6,1.2-1.1,1.5-1.6
			c0.3-0.5,0.6-1.1,0.7-1.8c0-0.2,0.1-0.5,0.1-0.9c0-0.9-0.2-1.8-0.6-2.6C509.1,247.1,508.5,246.4,507.7,245.9z M505.8,247
			c1.1,0.5,1.9,1.3,2.2,2.4c0.1,0.4,0.2,0.8,0.2,1.3c0,0.3,0,0.5-0.1,0.7c-0.2,0.7-0.7,1.4-1.4,2c-0.2,0.2-0.4,0.4-0.6,0.5
			c0-0.5-0.1-1.4-0.1-2.9c0-0.4,0-1.1-0.1-1.9c0-0.9-0.1-1.4-0.1-1.6L505.8,247C505.8,247,505.8,247,505.8,247z"/>
		<path d="M514.1,260.9c-0.2,0-0.3,0-0.4,0c0-0.7-0.1-2.8-0.1-8.6c-0.1-5.2-0.1-5.3-0.1-5.4c-0.3-0.6-0.7-0.7-0.9-0.7
			c-0.2,0-0.4,0.1-0.5,0.3c-0.2,0.2-0.2,0.2-0.2,6.9c0,7.7,0.1,8,0.1,8.2c0.1,0.4,0.2,1,0.7,1.2c0.1,0.1,0.1,0.1,1.2,0.1
			c0.3,0,0.5,0,0.8,0c0.2,0,0.4-0.1,0.7-0.2c0.3-0.2,0.4-0.5,0.4-0.7c0-0.2-0.1-0.4-0.3-0.7C515.2,261,514.8,260.9,514.1,260.9z"/>
		<path d="M523.9,251.1c-1.1-4.2-1.3-4.4-1.5-4.6c-0.2-0.2-0.7-0.3-1.3,0.1c-0.4,0.2-0.6,0.5-0.7,0.9c-0.1,0.2-0.5,2.4-1.3,6.3
			c-0.8,4.1-1.3,6.4-1.4,7.1c-0.1,0.5-0.1,0.7-0.1,0.8c0,0.1,0,0.3,0.1,0.5c0.2,0.4,0.6,0.5,0.8,0.5c0.3,0,0.6-0.2,0.8-0.5
			c0-0.1,0.1-0.4,0.5-2.1c0.3-1.2,0.5-2.4,0.7-3.6c0.1-0.7,0.2-1.1,0.3-1.4c0.1,0,0.1,0,0.2,0c1.6,0,2.1,0,2.1,0c0,0,0.1,0.2,0.3,1
			c1.4,5.7,1.6,6.2,1.7,6.3c0.1,0.3,0.3,0.6,0.6,0.6c0.1,0,0.2,0,0.2,0c0.1,0,0.3,0,0.4-0.1c0.3-0.2,0.4-0.4,0.4-0.8
			c0-0.1,0-0.4-0.7-3.1C525.1,255.8,524.4,253,523.9,251.1z M521.7,249.9c0,0.1,0.1,0.2,0.1,0.4c0.1,0.4,0.2,0.9,0.4,1.5
			c0.2,0.6,0.3,1,0.3,1.1c0,0.1,0.1,0.3,0.1,0.4c-0.2,0-0.4,0-0.7,0l-0.8,0c0,0,0,0,0,0c0.1-0.4,0.2-1,0.4-2.3
			C521.6,250.6,521.6,250.2,521.7,249.9z"/>
		<path d="M532.4,251.7c-1.6-1.5-1.9-1.9-1.9-2c-0.1-0.2-0.1-0.4-0.1-0.7c0-0.5,0.2-1,0.5-1.4c0.3-0.3,0.6-0.5,1.1-0.7
			c0.4-0.2,0.6-0.2,0.6-0.3c0.1-0.1,0.3-0.3,0.3-0.6c0-0.7-0.7-1-1.5-0.7c-0.8,0.2-1.4,0.7-2,1.3c-0.6,0.7-0.9,1.5-0.9,2.3
			c0,0.2,0,0.4,0,0.5c0.1,0.8,0.5,1.6,1.2,2.2c0.2,0.1,0.6,0.6,1.5,1.4c0.6,0.6,0.9,1,1.1,1.2c0.2,0.2,0.3,0.5,0.5,0.9
			c0.2,0.5,0.3,1.2,0.3,1.9c0,0.4,0,0.7-0.1,0.9c-0.1,0.6-0.4,1.1-0.9,1.5c-0.4,0.4-0.9,0.7-1.5,0.8c-1.5,0.3-1.7,0.5-1.8,0.6
			c-0.1,0.1-0.3,0.3-0.3,0.7c0,0.2,0,0.4,0.1,0.6c0.1,0.2,0.4,0.3,0.7,0.3c0.5,0,0.8-0.1,1-0.2c0.1,0,0.4-0.1,0.8-0.2
			c0.5-0.1,0.9-0.3,1.1-0.4c0.4-0.2,0.8-0.5,1.2-0.9c1-1,1.6-2.3,1.6-3.7c0-1.7-0.4-3.1-1.2-4.2
			C533.7,253.1,533.6,252.9,532.4,251.7z"/>
		<path d="M544.3,246.4c-0.2-0.2-0.5-0.3-1-0.3c-0.5,0-1.1,0-1.6,0c-3.8,0.1-4.1,0.2-4.3,0.2c-0.4,0.1-0.6,0.4-0.6,0.8
			c0,0.3,0.2,0.6,0.5,0.7c0.2,0.1,0.4,0.2,1.7,0.2h0.8l0,4.6c0,2.3,0,4.6,0,6.9c0,2.6,0.1,2.7,0.2,2.8c0.2,0.2,0.4,0.4,0.7,0.4
			c0.1,0,0.5,0,0.7-0.2c0.2-0.2,0.2-0.2,0.3-7.7c0-4.2,0-6.1,0-6.8l0.2,0c0.4,0,0.8,0,1.3-0.1c0.7,0,0.8-0.1,0.9-0.1
			c0.4-0.2,0.5-0.4,0.6-0.6C544.7,246.9,544.6,246.6,544.3,246.4z"/>
	</g>
	<g>
		<path d="M777.3,247.4c1.5,0,1.9-0.1,2-0.4c0.3-0.5,0.1-1-0.1-1.1c-0.2-0.2-0.6-0.3-1.3-0.3c-0.5,0-0.9,0-1.2,0h-0.4
			c-0.2,0-0.3,0-0.4,0c-0.2,0-0.5,0-0.6,0.1l-0.2,0c-0.1,0-0.2,0.1-0.3,0.1c-0.1,0.1-0.2,0.1-0.2,0.2l-0.1,0.1
			c0,0.1-0.1,0.2-0.1,2.3c0,2.3,0,5,0.1,8.2c0.1,4.9,0.2,5.1,0.2,5.2c0.1,0.3,0.4,0.6,0.7,0.6c0.1,0,0.4,0,1.6,0c0,0,0,0,0,0l1.9,0
			l0.1-0.3c0.2-0.4,0.3-0.6,0.2-0.9c-0.1-0.3-0.3-0.6-0.7-0.6c-0.1,0-0.4-0.1-1.3-0.1c-0.4,0-0.7,0-0.9,0c0-0.2-0.1-0.6-0.1-1.3
			c-0.1-1-0.1-2-0.1-2.8c0-0.4,0-0.7,0-0.9l0-0.2c0.4,0,0.9-0.1,1.1-0.5c0.1-0.1,0.1-0.3,0.1-0.5c0-0.3-0.1-0.9-1.3-0.9
			c0-0.2,0-1-0.1-3.4l0-2.7h0C776.6,247.5,776.9,247.4,777.3,247.4z"/>
		<path d="M783.6,260.9c-0.2,0-0.3,0-0.4,0c0-0.7-0.1-2.8-0.1-8.6c-0.1-5.2-0.1-5.3-0.1-5.4c-0.3-0.6-0.7-0.7-0.9-0.7
			c-0.2,0-0.4,0.1-0.5,0.3c-0.2,0.2-0.2,0.2-0.2,6.9c0,7.7,0.1,8,0.1,8.2c0.1,0.4,0.2,1,0.7,1.2c0.1,0.1,0.1,0.1,1.2,0.1
			c0.3,0,0.5,0,0.8,0c0.2,0,0.4-0.1,0.7-0.2c0.3-0.2,0.4-0.5,0.4-0.7c0-0.2-0.1-0.4-0.3-0.7C784.6,261,784.2,260.9,783.6,260.9z"/>
		<path d="M793.3,251.1c-1.1-4.2-1.3-4.4-1.5-4.6c-0.2-0.2-0.7-0.3-1.3,0.1c-0.4,0.2-0.6,0.5-0.7,0.9c-0.1,0.2-0.5,2.4-1.3,6.3
			c-0.8,4.1-1.3,6.4-1.4,7.1c-0.1,0.5-0.1,0.7-0.1,0.8c0,0.1,0,0.3,0.1,0.5c0.2,0.4,0.6,0.5,0.8,0.5c0.3,0,0.6-0.2,0.8-0.5
			c0-0.1,0.1-0.4,0.5-2.1c0.3-1.2,0.5-2.4,0.7-3.6c0.1-0.7,0.2-1.1,0.3-1.4c0.1,0,0.1,0,0.2,0c1.6,0,2.1,0,2.1,0c0,0,0.1,0.2,0.3,1
			c1.4,5.7,1.6,6.2,1.7,6.3c0.1,0.3,0.3,0.6,0.6,0.6c0.1,0,0.2,0,0.2,0c0.1,0,0.3,0,0.4-0.1c0.3-0.2,0.4-0.4,0.4-0.8
			c0-0.1,0-0.4-0.7-3.1C794.5,255.8,793.8,253,793.3,251.1z M791.1,249.9c0,0.1,0.1,0.2,0.1,0.4c0.1,0.4,0.2,0.9,0.4,1.5
			c0.2,0.6,0.3,1,0.3,1.1c0,0.1,0.1,0.3,0.1,0.4c-0.2,0-0.4,0-0.7,0l-0.8,0c0,0,0,0,0,0c0.1-0.4,0.2-1,0.4-2.3
			C791,250.6,791.1,250.2,791.1,249.9z"/>
		<path d="M801.8,251.7c-1.6-1.5-1.9-1.9-1.9-2c-0.1-0.2-0.1-0.4-0.1-0.7c0-0.5,0.2-1,0.5-1.4c0.3-0.3,0.6-0.5,1.1-0.7
			c0.4-0.2,0.6-0.2,0.6-0.3c0.1-0.1,0.3-0.3,0.3-0.6c0-0.7-0.7-1-1.5-0.7c-0.8,0.2-1.4,0.7-2,1.3c-0.6,0.7-0.9,1.5-0.9,2.3
			c0,0.2,0,0.4,0,0.5c0.1,0.8,0.5,1.6,1.2,2.2c0.2,0.1,0.6,0.6,1.5,1.4c0.6,0.6,0.9,1,1.1,1.2c0.2,0.2,0.3,0.5,0.5,0.9
			c0.2,0.5,0.3,1.2,0.3,1.9c0,0.4,0,0.7-0.1,0.9c-0.1,0.6-0.4,1.1-0.9,1.5c-0.4,0.4-0.9,0.7-1.5,0.8c-1.5,0.3-1.7,0.5-1.8,0.6
			c-0.1,0.1-0.3,0.3-0.3,0.7c0,0.2,0,0.4,0.1,0.6c0.1,0.2,0.4,0.3,0.7,0.3c0.5,0,0.8-0.1,1-0.2c0.1,0,0.4-0.1,0.8-0.2
			c0.5-0.1,0.9-0.3,1.1-0.4c0.4-0.2,0.8-0.5,1.2-0.9c1-1,1.6-2.3,1.6-3.7c0-1.7-0.4-3.1-1.2-4.2
			C803.2,253.1,803.1,252.9,801.8,251.7z"/>
		<path d="M812.7,246.1c-0.5,0-1.1,0-1.6,0c-3.8,0.1-4.1,0.2-4.3,0.2c-0.4,0.1-0.6,0.4-0.6,0.8c0,0.3,0.2,0.6,0.5,0.7
			c0.2,0.1,0.4,0.2,1.7,0.2h0.8l0,4.6c0,2.3,0,4.6,0,6.9c0,2.6,0.1,2.7,0.2,2.8c0.2,0.2,0.4,0.4,0.7,0.4c0.1,0,0.5,0,0.7-0.2
			c0.2-0.2,0.2-0.2,0.3-7.7c0-4.2,0-6.1,0-6.8l0.2,0c0.4,0,0.8,0,1.3-0.1c0.7,0,0.8-0.1,0.9-0.1c0.4-0.2,0.5-0.4,0.6-0.6
			c0.1-0.3,0-0.6-0.2-0.8C813.6,246.2,813.3,246.1,812.7,246.1z"/>
		<path d="M824.3,249c-0.5-1.7-1.4-2.8-2.6-3.3c-0.3-0.2-0.8-0.2-1.5-0.2c-0.3,0-0.6,0-0.8,0h0c-0.8,0.1-1.4,0.4-2,1
			c-0.9,0.8-1.4,2-1.5,3.5c-0.1,0.8-0.1,1.9-0.1,3.2c0,0.4,0,0.6,0.1,0.8c0,0.1,0,0.4,0,1.3c0,1.2,0.2,2.5,0.5,3.7
			c0.2,0.9,0.5,1.6,0.8,2.1c0.3,0.5,0.8,0.9,1.3,1.3c0.6,0.4,1.2,0.5,1.9,0.5c1,0,1.9-0.3,2.5-0.9c0.8-0.7,1.3-1.8,1.6-3.1
			c0.2-1.1,0.3-2.5,0.3-4.1c0-1.5-0.1-2.6-0.1-3.4C824.7,250.5,824.6,249.7,824.3,249z M823.1,254.5c0,1.3-0.1,2.5-0.3,3.5
			c-0.2,1-0.6,1.8-1.1,2.3c-0.3,0.3-0.8,0.5-1.3,0.5c-0.4,0-0.7-0.1-0.8-0.1c-0.4-0.2-0.8-0.6-1-1.3c-0.3-0.7-0.5-1.8-0.7-3.3
			c-0.1-0.8-0.1-2-0.1-3.3c0-1.6,0.1-2.6,0.2-3.1c0.3-1.4,0.9-2.2,1.9-2.4c0.2,0,0.3,0,0.4,0c0.5,0,1,0.2,1.4,0.6l0,0
			c0.4,0.4,0.8,1.1,1.1,2c0.3,1,0.4,2.1,0.4,3.2C823,253.9,823.1,254.3,823.1,254.5L823.1,254.5z"/>
		<path d="M838.2,259.2c-0.4-2.6-0.8-5.4-1.3-8.4c-0.6-3.9-0.6-4-0.7-4.1c-0.3-0.6-1.1-0.8-1.6-0.3c-0.2,0.1-0.5,0.5-1.5,2.1
			c-0.5,0.7-0.8,1.2-1,1.4c-0.2-0.2-0.4-0.6-0.8-1.2c-1.2-1.8-1.3-1.9-1.3-1.9c-0.4-0.5-0.8-0.6-1.1-0.6c-0.3,0-0.6,0.1-0.7,0.4
			c-0.1,0.1-0.2,0.4-0.2,1c-0.1,0.9-0.2,1.8-0.3,2.8c-0.8,7-1.1,10.8-1.1,11.5c0,0.5,0.3,0.7,0.4,0.8c0.3,0.2,0.6,0.2,0.9-0.1
			c0.3-0.2,0.4-0.5,0.5-1.7c0.1-0.9,0.4-3.8,0.8-8.7c0.1-1.4,0.2-2.3,0.3-2.9c0.1,0.1,0.1,0.2,0.2,0.2c0.5,0.8,0.9,1.4,1.2,1.8
			c0.5,0.9,0.8,1.2,1.2,1.2c0.4,0,0.6-0.3,0.7-0.4c0.1-0.2,0.4-0.5,0.8-1.1c0.4-0.6,0.8-1.2,1.2-1.8c0.3,1.4,0.6,4.1,1.2,7.9
			c0.7,5.4,1,5.7,1.1,5.9c0.2,0.2,0.4,0.3,0.6,0.3c0.1,0,0.2,0,0.3-0.1c0.3-0.1,0.5-0.4,0.5-0.8c0-0.1,0-0.3-0.1-1
			C838.5,261.1,838.4,260.4,838.2,259.2z"/>
		<path d="M843.2,247.4c1.5,0,1.9-0.1,2-0.4c0.3-0.5,0.1-1-0.1-1.1c-0.2-0.2-0.6-0.3-1.3-0.3c-0.5,0-0.9,0-1.2,0h-0.4
			c-0.2,0-0.3,0-0.4,0c-0.2,0-0.5,0-0.6,0.1l-0.2,0c-0.1,0-0.2,0.1-0.3,0.1c-0.1,0.1-0.2,0.1-0.2,0.2l-0.1,0.1
			c0,0.1-0.1,0.2-0.1,2.3c0,2.3,0,5,0.1,8.2c0.1,4.9,0.2,5.1,0.2,5.2c0.1,0.3,0.4,0.6,0.7,0.6c0.1,0,0.4,0,1.6,0c0,0,0,0,0,0l1.9,0
			l0.1-0.3c0.2-0.4,0.3-0.6,0.2-0.9c-0.1-0.3-0.3-0.6-0.7-0.6c-0.1,0-0.4-0.1-1.3-0.1c-0.4,0-0.7,0-0.9,0c0-0.2-0.1-0.6-0.1-1.3
			c-0.1-1-0.1-2-0.1-2.8c0-0.4,0-0.7,0-0.9l0-0.2c0.4,0,0.9-0.1,1.1-0.5c0.1-0.1,0.1-0.3,0.1-0.5c0-0.3-0.1-0.9-1.3-0.9
			c0-0.2,0-1-0.1-3.4l0-2.7h0C842.5,247.5,842.9,247.4,843.2,247.4z"/>
		<path d="M853.5,259.9c-0.5-1.3-0.8-2.2-1.1-2.8c-0.4-0.8-0.8-1.4-1.2-1.6l-0.3-0.3c0.5-0.3,1-0.7,1.4-1.3c0.5-0.6,0.8-1.2,0.9-1.8
			c0-0.1,0-0.2,0-0.7c0-0.8-0.1-1.5-0.2-2.1c-0.2-1-0.7-1.9-1.5-2.8c-0.6-0.7-1.4-1.1-2.1-1.4c-0.4-0.1-0.7-0.2-1-0.2
			c-0.4,0-0.6,0.2-0.7,0.3l-0.1,0.1v0c-0.1,0.2-0.1,0.9-0.2,3c0,2,0,4-0.1,5.8c0,0.6,0,1.5,0,2.6c0,1.4,0,2.3,0,2.9
			c0,1.2,0.1,1.9,0.1,2.2c0.1,0.5,0.2,0.8,0.6,0.9c0.1,0,0.3,0.1,0.4,0.1c0.3,0,0.6-0.2,0.8-0.5c0.1-0.1,0.1-0.2,0.1-1.1
			c0-0.9,0-1.7,0-2.4c0-0.9,0-1.8,0-2.7c0,0,0,0,0,0c0.7,0.5,1.3,1.2,1.8,2.1c0.2,0.5,0.5,1.2,0.8,2c0.7,1.9,0.8,2,0.9,2
			c0.3,0.3,0.8,0.3,1.2,0c0.2-0.2,0.3-0.4,0.3-0.7C854,261.4,853.9,261,853.5,259.9z M849.1,253.8v-0.3c0-2.5,0-4.6,0.1-6
			c0-0.2,0-0.3,0-0.4c1.4,0.8,2.1,2.1,2.1,4.1c0,0.6,0,0.8,0,0.8c0,0-0.1,0.2-0.4,0.6c-0.4,0.6-0.6,0.8-0.7,0.8
			c-0.1,0-0.4,0.1-0.8,0.3C849.2,253.8,849.2,253.8,849.1,253.8z"/>
	</g>
</g>
<g id="Calque_1">
	<path d="M74.3,120.5c9.1,12.1,21.6,21.1,35.2,27.6c15.6,7.4,32.4,11.6,49.1,15.6c17.4,4.2,34.9,7.9,52.5,11.2
		c17.6,3.3,35.2,6.2,53,8.7c17.8,2.5,35.7,4.5,53.6,6.1c2.2,0.2,4.4,0.4,6.6,0.6c2.4,0.2,2.4-3.5,0-3.8c-17.6-1.5-35.1-3.4-52.6-5.7
		c-17.5-2.3-34.9-5.1-52.3-8.2c-17.4-3.2-34.7-6.7-51.8-10.7c-16.6-3.9-33.5-7.7-49.3-14.1c-13.9-5.6-27.1-13.7-37.1-25
		c-1.2-1.4-2.4-2.8-3.4-4.2c-0.6-0.8-1.6-1.2-2.6-0.7C74.2,118.4,73.7,119.7,74.3,120.5L74.3,120.5z"/>
	<path d="M59.1,132c3.7,6.5,9.6,11.2,16,14.9c7,4.1,14.6,7.2,22.4,9.5c16.6,4.9,34.1,5.2,51.1,2.9c17.4-2.4,34.4-7.2,51.3-12.2
		c16.4-4.8,32.8-9.7,49.8-12.3c16.5-2.6,33.6-3,49.9,1.2c2,0.5,4,1.1,5.9,1.8c2.3,0.8,3.3-2.9,1-3.6c-15.8-5.2-32.6-5.9-49-4.1
		c-16.8,1.9-33.1,6.1-49.3,10.8c-16.7,4.9-33.4,10.1-50.6,13.3c-16.8,3.1-34.1,4.2-50.9,0.7c-8-1.7-15.8-4.3-23.1-7.8
		c-6.6-3.2-13.3-7-18.1-12.6c-1.1-1.3-2.1-2.8-3-4.3C61.2,128,57.9,129.9,59.1,132L59.1,132z"/>
	<path d="M61.9,163.8c16.6,2.4,33.2,4.8,49.9,5.6c16.1,0.8,32.3-0.2,48.3-2.3c15.8-2.1,31.4-5.2,47-8.3c15.6-3.2,31.2-6.4,47-8.7
		c7.9-1.2,15.8-2.1,23.8-2.7c7.5-0.6,15.3-1,22.7,0.9c1.8,0.5,3.5,1,5.3,1.8c0.9,0.4,2.1-0.4,2.3-1.3c0.3-1.1-0.4-1.9-1.3-2.3
		c-7.1-2.9-14.8-3.4-22.4-3.2c-7.8,0.3-15.6,1.1-23.4,2.1c-15.9,2.1-31.6,5.1-47.3,8.3c-15.6,3.1-31.2,6.4-47,8.8
		c-15.7,2.4-31.6,3.9-47.6,3.5c-16.8-0.3-33.5-2.5-50.2-4.9c-2-0.3-4.1-0.6-6.1-0.9c-1-0.1-2,0.2-2.3,1.3
		C60.4,162.4,60.9,163.6,61.9,163.8L61.9,163.8z"/>
	<path d="M57.5,195.2c12.9,8.5,28,13.5,43.4,14.6c7.7,0.6,15.5,0.1,23-1.3c8.1-1.5,15.9-4.2,23.4-7.4c15.3-6.4,29.6-14.7,44.8-21.3
		c15.4-6.6,31.4-11.9,47.7-15.3c16.2-3.3,32.9-4.7,49.5-3.3c2,0.2,4.1,0.4,6.1,0.6c1,0.1,1.9-0.9,1.9-1.9c0-1.1-0.9-1.8-1.9-1.9
		c-16.4-2-32.9-1.3-49.2,1.4c-16.4,2.7-32.3,7.5-47.7,13.6c-7.8,3.1-15.4,6.5-23,10.2c-7.3,3.6-14.5,7.4-21.9,10.8
		c-14.5,6.8-29.7,12.1-45.9,12.2c-15.2,0.1-30.4-3.8-43.6-11.3c-1.6-0.9-3.2-1.9-4.8-3C57.4,190.7,55.5,193.9,57.5,195.2L57.5,195.2
		z"/>
	<path d="M61.2,182.1c13,7.5,27.3,12.6,42,15.7c14.9,3.2,30.1,4.5,45.3,4.9c16,0.4,32.2,0.3,48-1.9c8.1-1.1,16.2-2.9,23.9-5.7
		c7.6-2.8,15-6.3,22.3-9.8c14.3-6.9,29.5-14.1,45.9-13.5c2,0.1,3.9,0.2,5.9,0.6c1,0.2,2-0.3,2.3-1.3c0.3-0.9-0.3-2.1-1.3-2.3
		c-16.2-2.6-31.9,2.8-46.4,9.5c-7.4,3.4-14.6,7.1-22.1,10.4c-7.4,3.2-15.1,5.7-23.1,7.3c-15.9,3.2-32.3,3.4-48.4,3.3
		c-15.1-0.1-30.2-1-45.1-3.6c-14.7-2.6-29.1-6.9-42.4-13.8c-1.7-0.9-3.3-1.8-4.9-2.7C61,177.6,59.1,180.8,61.2,182.1L61.2,182.1z"/>
	<path d="M87.4,146.7c-0.3,1.1-0.5,2.1-0.7,3.2c-0.1,0.2-0.1,0.5,0,0.7c0,0.2,0.1,0.5,0.2,0.7c0.2,0.4,0.7,0.8,1.1,0.9
		c0.5,0.1,1,0.1,1.4-0.2c0.1-0.1,0.3-0.2,0.4-0.3c0.2-0.2,0.4-0.5,0.5-0.8c0.2-1.1,0.4-2.2,0.7-3.2c0.1-0.5,0.1-1-0.2-1.4
		c-0.2-0.4-0.7-0.8-1.1-0.9c-0.5-0.1-1-0.1-1.4,0.2C87.9,145.8,87.5,146.2,87.4,146.7L87.4,146.7z"/>
	<g>
		<g>
			<path d="M90,145.3c2.4,0,2.4-3.8,0-3.8C87.5,141.5,87.5,145.3,90,145.3L90,145.3z"/>
		</g>
	</g>
	<path d="M92.4,140.3c0.3-0.8,0.6-1.5,0.8-2.4c0.2-0.8,0.3-1.7,0.4-2.5c0-0.5-0.2-1-0.5-1.3c-0.3-0.3-0.9-0.6-1.3-0.5
		c-0.5,0-1,0.2-1.3,0.5c-0.3,0.4-0.5,0.8-0.5,1.3c0,0.3,0,0.6-0.1,0.9c0-0.2,0-0.3,0.1-0.5c-0.1,1-0.4,1.9-0.8,2.8
		c0.1-0.1,0.1-0.3,0.2-0.4c0,0.1-0.1,0.1-0.1,0.2c-0.1,0.2-0.2,0.4-0.2,0.7c-0.1,0.2,0,0.5,0,0.7c0.1,0.4,0.5,0.9,0.9,1.1
		c0.4,0.2,1,0.3,1.4,0.2C91.7,141.1,92.2,140.8,92.4,140.3L92.4,140.3z"/>
	<path d="M135.6,163.7c0,0.1-0.1,0.2-0.1,0.3c-0.1,0.2-0.2,0.4-0.2,0.7c-0.1,0.2,0,0.5,0,0.7c0.1,0.2,0.2,0.5,0.3,0.6
		c0.1,0.2,0.3,0.4,0.5,0.5c0.1,0.1,0.3,0.1,0.4,0.2c0.3,0.1,0.7,0.1,1,0c0.1-0.1,0.3-0.1,0.4-0.2c0.3-0.2,0.5-0.4,0.7-0.7
		c0-0.1,0.1-0.2,0.1-0.3c0.1-0.2,0.2-0.4,0.2-0.7c0.1-0.2,0-0.5,0-0.7c-0.1-0.2-0.2-0.5-0.3-0.6c-0.1-0.2-0.3-0.4-0.5-0.5
		c-0.1-0.1-0.3-0.1-0.4-0.2c-0.3-0.1-0.7-0.1-1,0c-0.1,0.1-0.3,0.1-0.4,0.2C136,163.2,135.8,163.4,135.6,163.7L135.6,163.7z"/>
	<g>
		<g>
			<path d="M137.5,162.6c2.4,0,2.4-3.8,0-3.8C135.1,158.8,135.1,162.6,137.5,162.6L137.5,162.6z"/>
		</g>
	</g>
	<path d="M178.6,158.4c-0.1,0.1-0.3,0.2-0.4,0.2c-0.2,0.1-0.4,0.3-0.5,0.5c-0.2,0.2-0.3,0.4-0.3,0.6c-0.1,0.2-0.1,0.5,0,0.7
		c0,0.2,0.1,0.5,0.2,0.7c0.1,0.1,0.2,0.3,0.3,0.4c0.2,0.2,0.5,0.4,0.8,0.5c0.2,0,0.3,0,0.5,0.1c0.3,0,0.7-0.1,0.9-0.3
		c0.1-0.1,0.3-0.2,0.4-0.2c0.2-0.1,0.4-0.3,0.5-0.5c0.2-0.2,0.3-0.4,0.3-0.6c0.1-0.2,0.1-0.5,0-0.7c0-0.2-0.1-0.5-0.2-0.7
		c-0.1-0.1-0.2-0.3-0.3-0.4c-0.2-0.2-0.5-0.4-0.8-0.5c-0.2,0-0.3,0-0.5-0.1C179.2,158.1,178.9,158.2,178.6,158.4L178.6,158.4z"/>
	<g>
		<g>
			<path d="M179.7,157.6c2.4,0,2.4-3.8,0-3.8C177.3,153.9,177.3,157.6,179.7,157.6L179.7,157.6z"/>
		</g>
	</g>
	<path d="M179.6,150.3c0,0-0.1,0-0.1,0c-0.3,0-0.5,0-0.7,0.2c-0.2,0.1-0.4,0.2-0.6,0.4c-0.2,0.2-0.3,0.4-0.4,0.6
		c-0.1,0.2-0.2,0.5-0.2,0.7c0,0.2,0,0.3,0.1,0.5c0.1,0.3,0.2,0.6,0.5,0.8c0.1,0.1,0.3,0.2,0.4,0.3c0.3,0.2,0.6,0.3,0.9,0.3
		c0,0,0.1,0,0.1,0c0.3,0,0.5,0,0.7-0.2c0.2-0.1,0.4-0.2,0.6-0.4c0.2-0.2,0.3-0.4,0.4-0.6c0.1-0.2,0.2-0.5,0.2-0.7
		c0-0.2,0-0.3-0.1-0.5c-0.1-0.3-0.2-0.6-0.5-0.8c-0.1-0.1-0.3-0.2-0.4-0.3C180.3,150.4,179.9,150.3,179.6,150.3L179.6,150.3z"/>
	<path d="M90.4,190.9c0.1-0.1,0.1-0.3,0.2-0.4c0.1-0.2,0.1-0.5,0-0.7c0-0.2-0.1-0.5-0.2-0.7c-0.1-0.2-0.3-0.4-0.5-0.5
		c-0.2-0.2-0.4-0.3-0.6-0.3c-0.2,0-0.3,0-0.5-0.1c-0.3,0-0.7,0.1-0.9,0.3c-0.1,0.1-0.3,0.2-0.4,0.3c-0.2,0.2-0.4,0.5-0.5,0.8
		c-0.1,0.1-0.1,0.3-0.2,0.4c-0.1,0.2-0.1,0.5,0,0.7c0,0.2,0.1,0.5,0.2,0.7c0.1,0.2,0.3,0.4,0.5,0.5c0.2,0.2,0.4,0.3,0.6,0.3
		c0.2,0,0.3,0,0.5,0.1c0.3,0,0.7-0.1,0.9-0.3c0.1-0.1,0.3-0.2,0.4-0.3C90.1,191.4,90.3,191.2,90.4,190.9L90.4,190.9z"/>
	<g>
		<g>
			<path d="M89.5,187.3c2.4,0,2.4-3.8,0-3.8C87.1,183.5,87.1,187.3,89.5,187.3L89.5,187.3z"/>
		</g>
	</g>
	<path d="M91.2,182.6c0,0,0.1-0.1,0.1-0.1c0.2-0.2,0.3-0.4,0.4-0.6c0.1-0.2,0.2-0.5,0.2-0.7c0-0.3,0-0.5-0.2-0.7
		c-0.1-0.2-0.2-0.4-0.4-0.6c-0.1-0.1-0.3-0.2-0.4-0.3c-0.3-0.2-0.6-0.3-0.9-0.3c-0.2,0-0.3,0-0.5,0.1c-0.3,0.1-0.6,0.2-0.8,0.5
		c0,0-0.1,0.1-0.1,0.1c-0.2,0.2-0.3,0.4-0.4,0.6c-0.1,0.2-0.2,0.5-0.2,0.7c0,0.3,0,0.5,0.2,0.7c0.1,0.2,0.2,0.4,0.4,0.6
		c0.1,0.1,0.3,0.2,0.4,0.3c0.3,0.2,0.6,0.3,0.9,0.3c0.2,0,0.3,0,0.5-0.1C90.7,182.9,91,182.8,91.2,182.6L91.2,182.6z"/>
	<g>
		<g>
			<path d="M90.8,178.9c2.4,0,2.4-3.8,0-3.8C88.3,175.2,88.3,178.9,90.8,178.9L90.8,178.9z"/>
		</g>
	</g>
	<g>
		<g>
			<path d="M91.1,175.3c2.4,0,2.4-3.8,0-3.8C88.7,171.5,88.7,175.3,91.1,175.3L91.1,175.3z"/>
		</g>
	</g>
	<g>
		<g>
			<path d="M91.7,171.4c2.4,0,2.4-3.8,0-3.8C89.3,167.6,89.3,171.4,91.7,171.4L91.7,171.4z"/>
		</g>
	</g>
	<path d="M60.2,194.2c0,0,0,0.1,0,0.1c0,0.3,0,0.5,0.2,0.7c0.1,0.2,0.2,0.4,0.4,0.6c0.2,0.2,0.4,0.3,0.6,0.4
		c0.2,0.1,0.5,0.2,0.7,0.2c0.2,0,0.3,0,0.5-0.1c0.3-0.1,0.6-0.2,0.8-0.5c0.1-0.1,0.2-0.3,0.3-0.4c0.2-0.3,0.3-0.6,0.3-0.9
		c0,0,0-0.1,0-0.1c0-0.3,0-0.5-0.2-0.7c-0.1-0.2-0.2-0.4-0.4-0.6c-0.2-0.2-0.4-0.3-0.6-0.4c-0.2-0.1-0.5-0.2-0.7-0.2
		c-0.2,0-0.3,0-0.5,0.1c-0.3,0.1-0.6,0.2-0.8,0.5c-0.1,0.1-0.2,0.3-0.3,0.4C60.3,193.5,60.2,193.8,60.2,194.2L60.2,194.2z"/>
	<g>
		<g>
			<path d="M63.3,193c2.4,0,2.4-3.8,0-3.8C60.9,189.2,60.9,193,63.3,193L63.3,193z"/>
		</g>
	</g>
	<g>
		<g>
			<path d="M63.9,189.3c2.4,0,2.4-3.8,0-3.8C61.5,185.6,61.5,189.3,63.9,189.3L63.9,189.3z"/>
		</g>
	</g>
	<path d="M65.2,182c-0.1,0-0.2-0.1-0.3-0.1c-0.2-0.1-0.4-0.2-0.7-0.2c-0.2-0.1-0.5,0-0.7,0c-0.2,0.1-0.5,0.2-0.6,0.3
		c-0.2,0.1-0.4,0.3-0.5,0.5c-0.1,0.1-0.1,0.3-0.2,0.4c-0.1,0.3-0.1,0.7,0,1c0.1,0.1,0.1,0.3,0.2,0.4c0.2,0.3,0.4,0.5,0.7,0.7
		c0.1,0,0.2,0.1,0.3,0.1c0.2,0.1,0.4,0.2,0.7,0.2c0.2,0.1,0.5,0,0.7,0c0.2-0.1,0.5-0.2,0.6-0.3c0.2-0.1,0.4-0.3,0.5-0.5
		c0.1-0.1,0.1-0.3,0.2-0.4c0.1-0.3,0.1-0.7,0-1c-0.1-0.1-0.1-0.3-0.2-0.4C65.7,182.4,65.5,182.2,65.2,182L65.2,182z"/>
	<path d="M98.9,205.2C98.9,205.2,98.9,205.2,98.9,205.2c0.1,0,0.3,0,0.5-0.1c0,0,0,0,0,0c0.2,0,0.3,0,0.5,0.1c0,0,0,0,0,0
		c0.1,0.1,0.3,0.1,0.4,0.2c0,0,0,0,0,0c0.1,0.1,0.3,0.2,0.4,0.3c0,0,0,0,0,0c0.1,0.1,0.2,0.3,0.3,0.4c0,0,0-0.1,0-0.1
		c0.1,0.1,0.1,0.3,0.2,0.4c0-0.1,0-0.1,0-0.2c0,0.2,0,0.3,0.1,0.5c0-0.1,0-0.1,0-0.2c0,0.2,0,0.3-0.1,0.5c0.1-0.4,0.2-0.8,0.3-1.1
		c-0.1,0.1-0.1,0.3-0.2,0.4c0.1-0.2,0.2-0.4,0.3-0.6c0.1-0.2,0.2-0.4,0.2-0.7c0.1-0.2,0-0.5,0-0.7c-0.1-0.2-0.2-0.5-0.3-0.6
		c-0.1-0.2-0.3-0.4-0.5-0.5c-0.4-0.2-1-0.3-1.4-0.2c-0.5,0.2-0.9,0.4-1.1,0.9c-0.2,0.4-0.4,0.8-0.5,1.2c-0.1,0.3-0.2,0.5-0.2,0.8
		c-0.1,0.5-0.2,1,0,1.6c0.1,0.2,0.1,0.4,0.2,0.5c0.2,0.3,0.4,0.5,0.7,0.7c0.2,0.1,0.3,0.2,0.5,0.2c0.1,0,0.4,0.1,0.5,0.1
		c0.2,0,0.3,0,0.5-0.1c0,0,0,0,0,0c0.2-0.1,0.5-0.2,0.6-0.3c0.2-0.1,0.4-0.3,0.5-0.5c0.1-0.2,0.2-0.4,0.2-0.7c0.1-0.2,0-0.5,0-0.7
		c-0.1-0.5-0.4-0.9-0.9-1.1C99.9,205.1,99.4,205,98.9,205.2L98.9,205.2z"/>
	<path d="M102.7,202.1c0,0,0-0.1,0-0.1c0-0.3,0-0.5-0.2-0.7c-0.1-0.2-0.2-0.4-0.4-0.6c-0.2-0.2-0.4-0.3-0.6-0.4
		c-0.2-0.1-0.5-0.2-0.7-0.2c-0.2,0-0.3,0-0.5,0.1c-0.3,0.1-0.6,0.2-0.8,0.5c-0.1,0.1-0.2,0.3-0.3,0.4c-0.2,0.3-0.3,0.6-0.3,0.9
		c0,0,0,0.1,0,0.1c0,0.3,0,0.5,0.2,0.7c0.1,0.2,0.2,0.4,0.4,0.6c0.2,0.2,0.4,0.3,0.6,0.4c0.2,0.1,0.5,0.2,0.7,0.2
		c0.2,0,0.3,0,0.5-0.1c0.3-0.1,0.6-0.2,0.8-0.5c0.1-0.1,0.2-0.3,0.3-0.4C102.6,202.7,102.7,202.4,102.7,202.1L102.7,202.1z"/>
	<path d="M103.3,198.3C103.3,198.3,103.3,198.3,103.3,198.3c0,0.1,0,0.3,0.1,0.5c0-0.1,0-0.1,0-0.2c0,0.2,0,0.3-0.1,0.5
		c0-0.1,0-0.1,0.1-0.2c-0.1,0.1-0.1,0.3-0.2,0.4c0-0.1,0.1-0.1,0.1-0.2c0.1-0.2,0.2-0.4,0.2-0.7c0.1-0.2,0-0.5,0-0.7
		c-0.1-0.2-0.2-0.5-0.3-0.6c-0.1-0.2-0.3-0.4-0.5-0.5c-0.1-0.1-0.3-0.1-0.4-0.2c-0.3-0.1-0.7-0.1-1,0c-0.1,0.1-0.3,0.1-0.4,0.2
		c-0.3,0.2-0.5,0.4-0.7,0.7c0,0-0.1,0.1-0.1,0.2c-0.1,0.2-0.1,0.3-0.2,0.5c0,0,0,0,0,0c0,0,0,0.1,0,0.1c0,0,0,0.1,0,0.1
		c0,0.2,0,0.3-0.1,0.5c0,0,0,0,0,0c0,0,0,0,0,0c0,0,0,0.1,0,0.1c0,0.1,0,0.2,0,0.3c0,0.1,0,0.2,0,0.3c0.1,0.2,0.2,0.5,0.3,0.6
		c0.1,0.2,0.3,0.4,0.5,0.5c0.2,0.1,0.4,0.2,0.7,0.2c0.2,0.1,0.5,0,0.7,0c0.1-0.1,0.3-0.1,0.4-0.2c0.3-0.2,0.5-0.4,0.7-0.7
		c0.1-0.1,0.1-0.3,0.2-0.4C103.4,199,103.4,198.6,103.3,198.3L103.3,198.3z"/>
	<path d="M163.9,200.8c0,0,0.1,0,0.1,0c0.3,0,0.5,0,0.7-0.2c0.2-0.1,0.4-0.2,0.6-0.4c0.2-0.2,0.3-0.4,0.4-0.6
		c0.1-0.2,0.2-0.5,0.2-0.7c0-0.2,0-0.3-0.1-0.5c-0.1-0.3-0.2-0.6-0.5-0.8c-0.1-0.1-0.3-0.2-0.4-0.3c-0.3-0.2-0.6-0.3-0.9-0.3
		c0,0-0.1,0-0.1,0c-0.3,0-0.5,0-0.7,0.2c-0.2,0.1-0.4,0.2-0.6,0.4c-0.2,0.2-0.3,0.4-0.4,0.6c-0.1,0.2-0.2,0.5-0.2,0.7
		c0,0.2,0,0.3,0.1,0.5c0.1,0.3,0.2,0.6,0.5,0.8c0.1,0.1,0.3,0.2,0.4,0.3C163.3,200.7,163.6,200.8,163.9,200.8L163.9,200.8z"/>
	<g>
		<g>
			<path d="M164.4,197.4c2.4,0,2.4-3.8,0-3.8C162,193.7,162,197.4,164.4,197.4L164.4,197.4z"/>
		</g>
	</g>
	<path d="M163.7,190.6c-0.1,0-0.2,0.1-0.3,0.1c-0.2,0.1-0.4,0.3-0.5,0.5c-0.2,0.2-0.3,0.4-0.3,0.6c-0.1,0.2-0.1,0.5,0,0.7
		c0,0.2,0.1,0.5,0.2,0.7c0.1,0.1,0.2,0.3,0.3,0.4c0.2,0.2,0.5,0.4,0.8,0.5c0.2,0,0.3,0,0.5,0.1c0.3,0,0.7-0.1,0.9-0.3
		c0.1,0,0.2-0.1,0.3-0.1c0.2-0.1,0.4-0.3,0.5-0.5c0.2-0.2,0.3-0.4,0.3-0.6c0.1-0.2,0.1-0.5,0-0.7c0-0.2-0.1-0.5-0.2-0.7
		c-0.1-0.1-0.2-0.3-0.3-0.4c-0.2-0.2-0.5-0.4-0.8-0.5c-0.2,0-0.3,0-0.5-0.1C164.3,190.4,164,190.5,163.7,190.6L163.7,190.6z"/>
	<g>
		<g>
			<path d="M176.8,184.4c2.4,0,2.4-3.8,0-3.8C174.4,180.7,174.4,184.4,176.8,184.4L176.8,184.4z"/>
		</g>
	</g>
	<g>
		<g>
			<path d="M176.8,181.1c2.4,0,2.4-3.8,0-3.8C174.4,177.4,174.4,181.1,176.8,181.1L176.8,181.1z"/>
		</g>
	</g>
	<g>
		<g>
			<path d="M176.6,177.3c2.4,0,2.4-3.8,0-3.8C174.2,173.6,174.2,177.3,176.6,177.3L176.6,177.3z"/>
		</g>
	</g>
	<g>
		<g>
			<path d="M177.3,173.9c2.4,0,2.4-3.8,0-3.8C174.9,170.2,174.9,173.9,177.3,173.9L177.3,173.9z"/>
		</g>
	</g>
	<g>
		<g>
			<path d="M177.2,170.8c2.4,0,2.4-3.8,0-3.8C174.8,167,174.8,170.8,177.2,170.8L177.2,170.8z"/>
		</g>
	</g>
	<path d="M203.8,196c0,0,0-0.1,0-0.1c0-0.3,0-0.5-0.2-0.7c-0.1-0.2-0.2-0.4-0.4-0.6c-0.2-0.2-0.4-0.3-0.6-0.4
		c-0.2-0.1-0.5-0.2-0.7-0.2c-0.2,0-0.3,0-0.5,0.1c-0.3,0.1-0.6,0.2-0.8,0.5c-0.1,0.1-0.2,0.3-0.3,0.4c-0.2,0.3-0.3,0.6-0.3,0.9
		c0,0,0,0.1,0,0.1c0,0.3,0,0.5,0.2,0.7c0.1,0.2,0.2,0.4,0.4,0.6c0.2,0.2,0.4,0.3,0.6,0.4c0.2,0.1,0.5,0.2,0.7,0.2
		c0.2,0,0.3,0,0.5-0.1c0.3-0.1,0.6-0.2,0.8-0.5c0.1-0.1,0.2-0.3,0.3-0.4C203.7,196.7,203.8,196.3,203.8,196L203.8,196z"/>
	<g>
		<g>
			<path d="M202.6,194.6c2.4,0,2.4-3.8,0-3.8C200.2,190.9,200.2,194.6,202.6,194.6L202.6,194.6z"/>
		</g>
	</g>
	<g>
		<g>
			<path d="M203.1,191c2.4,0,2.4-3.8,0-3.8C200.7,187.2,200.7,191,203.1,191L203.1,191z"/>
		</g>
	</g>
	<g>
		<g>
			<path d="M203.4,187.6c2.4,0,2.4-3.8,0-3.8C201,183.8,201,187.6,203.4,187.6L203.4,187.6z"/>
		</g>
	</g>
	<path d="M202,180.2c0,0.1-0.1,0.2-0.1,0.3c-0.1,0.2-0.2,0.4-0.2,0.7c-0.1,0.2,0,0.5,0,0.7c0.1,0.2,0.2,0.5,0.3,0.6
		c0.1,0.2,0.3,0.4,0.5,0.5c0.1,0.1,0.3,0.1,0.4,0.2c0.3,0.1,0.7,0.1,1,0c0.1-0.1,0.3-0.1,0.4-0.2c0.3-0.2,0.5-0.4,0.7-0.7
		c0-0.1,0.1-0.2,0.1-0.3c0.1-0.2,0.2-0.4,0.2-0.7c0.1-0.2,0-0.5,0-0.7c-0.1-0.2-0.2-0.5-0.3-0.6c-0.1-0.2-0.3-0.4-0.5-0.5
		c-0.1-0.1-0.3-0.1-0.4-0.2c-0.3-0.1-0.7-0.1-1,0c-0.1,0.1-0.3,0.1-0.4,0.2C202.4,179.7,202.2,179.9,202,180.2L202,180.2z"/>
	<path d="M205.5,177.6c0,0,0-0.1,0-0.1c0-0.3,0-0.5-0.2-0.7c-0.1-0.2-0.2-0.4-0.4-0.6c-0.2-0.2-0.4-0.3-0.6-0.4
		c-0.2-0.1-0.5-0.2-0.7-0.2c-0.2,0-0.3,0-0.5,0.1c-0.3,0.1-0.6,0.2-0.8,0.5c-0.1,0.1-0.2,0.3-0.3,0.4c-0.2,0.3-0.3,0.6-0.3,0.9
		c0,0,0,0.1,0,0.1c0,0.3,0,0.5,0.2,0.7c0.1,0.2,0.2,0.4,0.4,0.6c0.2,0.2,0.4,0.3,0.6,0.4c0.2,0.1,0.5,0.2,0.7,0.2
		c0.2,0,0.3,0,0.5-0.1c0.3-0.1,0.6-0.2,0.8-0.5c0.1-0.1,0.2-0.3,0.3-0.4C205.4,178.2,205.5,177.9,205.5,177.6L205.5,177.6z"/>
	<path d="M206.1,174.6c0,0,0-0.1,0-0.1c0-0.3,0-0.5-0.2-0.7c-0.1-0.2-0.2-0.4-0.4-0.6c-0.2-0.2-0.4-0.3-0.6-0.4
		c-0.2-0.1-0.5-0.2-0.7-0.2c-0.2,0-0.3,0-0.5,0.1c-0.3,0.1-0.6,0.2-0.8,0.5c-0.1,0.1-0.2,0.3-0.3,0.4c-0.2,0.3-0.3,0.6-0.3,0.9
		c0,0,0,0.1,0,0.1c0,0.3,0,0.5,0.2,0.7c0.1,0.2,0.2,0.4,0.4,0.6c0.2,0.2,0.4,0.3,0.6,0.4c0.2,0.1,0.5,0.2,0.7,0.2
		c0.2,0,0.3,0,0.5-0.1c0.3-0.1,0.6-0.2,0.8-0.5c0.1-0.1,0.2-0.3,0.3-0.4C206.1,175.2,206.1,174.9,206.1,174.6L206.1,174.6z"/>
	<path d="M225.8,161.2C225.8,161.2,225.8,161.2,225.8,161.2c-0.2,0-0.4,0-0.6,0.1c0,0-0.1,0-0.1,0c0,0,0,0,0,0
		c-0.1,0.1-0.3,0.1-0.4,0.2c0,0,0,0,0,0c0,0,0,0,0,0c0,0,0,0,0,0c-0.1,0.1-0.3,0.2-0.4,0.3c0,0,0,0-0.1,0.1c0,0,0,0,0,0
		c-0.1,0.1-0.2,0.3-0.3,0.4c0,0,0,0,0,0c0,0,0,0,0,0c0,0,0,0,0,0c-0.1,0.2-0.1,0.3-0.2,0.5c0,0,0,0.1,0,0.1c-0.1,0.2-0.1,0.5,0,0.7
		c0,0.2,0.1,0.5,0.2,0.7c0.1,0.2,0.3,0.4,0.5,0.5c0.2,0.2,0.4,0.3,0.6,0.3c0.2,0,0.3,0,0.5,0.1c0.3,0,0.7-0.1,0.9-0.3
		c0.1-0.1,0.3-0.2,0.4-0.3c0.2-0.2,0.4-0.5,0.5-0.8c0,0,0-0.1,0-0.1c-0.1,0.1-0.1,0.3-0.2,0.4c0,0,0-0.1,0.1-0.1
		c-0.1,0.1-0.2,0.3-0.3,0.4c0,0,0.1-0.1,0.1-0.1c-0.1,0.1-0.3,0.2-0.4,0.3c0,0,0.1,0,0.1-0.1c-0.1,0.1-0.3,0.1-0.4,0.2
		c0,0,0.1,0,0.1,0c-0.2,0-0.3,0-0.5,0.1c0,0,0,0,0.1,0c0.3,0,0.5,0,0.7-0.2c0.2-0.1,0.4-0.2,0.6-0.4c0.2-0.2,0.3-0.4,0.4-0.6
		c0.1-0.2,0.2-0.5,0.2-0.7c0-0.2,0-0.3-0.1-0.5c-0.1-0.3-0.2-0.6-0.5-0.8c-0.1-0.1-0.3-0.2-0.4-0.3
		C226.4,161.2,226.1,161.2,225.8,161.2L225.8,161.2z"/>
	<g>
		<g>
			<path d="M225.6,161.5c2.4,0,2.4-3.8,0-3.8C223.2,157.7,223.2,161.5,225.6,161.5L225.6,161.5z"/>
		</g>
	</g>
	<g>
		<g>
			<path d="M225.4,157.4c2.4,0,2.4-3.8,0-3.8C223,153.6,223,157.4,225.4,157.4L225.4,157.4z"/>
		</g>
	</g>
	<path d="M255.1,144.2c0,0-0.1,0-0.1,0c-0.3,0-0.5,0-0.7,0.2c-0.2,0.1-0.4,0.2-0.6,0.4c-0.2,0.2-0.3,0.4-0.4,0.6
		c-0.1,0.2-0.2,0.5-0.2,0.7c0,0.2,0,0.3,0.1,0.5c0.1,0.3,0.2,0.6,0.5,0.8c0.1,0.1,0.3,0.2,0.4,0.3c0.3,0.2,0.6,0.3,0.9,0.3
		c0,0,0.1,0,0.1,0c0.3,0,0.5,0,0.7-0.2c0.2-0.1,0.4-0.2,0.6-0.4c0.2-0.2,0.3-0.4,0.4-0.6c0.1-0.2,0.2-0.5,0.2-0.7
		c0-0.2,0-0.3-0.1-0.5c-0.1-0.3-0.2-0.6-0.5-0.8c-0.1-0.1-0.3-0.2-0.4-0.3C255.7,144.3,255.4,144.2,255.1,144.2L255.1,144.2z"/>
	<g>
		<g>
			<path d="M254.4,143.8c2.4,0,2.4-3.8,0-3.8C252,140.1,252,143.8,254.4,143.8L254.4,143.8z"/>
		</g>
	</g>
	<g>
		<g>
			<path d="M254.7,139.8c2.4,0,2.4-3.8,0-3.8C252.3,136,252.3,139.8,254.7,139.8L254.7,139.8z"/>
		</g>
	</g>
	<g>
		<g>
			<path d="M254.8,136.4c2.4,0,2.4-3.8,0-3.8C252.4,132.6,252.4,136.4,254.8,136.4L254.8,136.4z"/>
		</g>
	</g>
	<path d="M265.3,178.9c0,0-0.1-0.1-0.1-0.1c-0.2-0.2-0.4-0.3-0.6-0.4c-0.2-0.1-0.5-0.2-0.7-0.2c-0.3,0-0.5,0-0.7,0.2
		c-0.2,0.1-0.4,0.2-0.6,0.4c-0.1,0.1-0.2,0.3-0.3,0.4c-0.2,0.3-0.3,0.6-0.3,0.9c0,0.2,0,0.3,0.1,0.5c0.1,0.3,0.2,0.6,0.5,0.8
		c0,0,0.1,0.1,0.1,0.1c0.2,0.2,0.4,0.3,0.6,0.4c0.2,0.1,0.5,0.2,0.7,0.2c0.3,0,0.5,0,0.7-0.2c0.2-0.1,0.4-0.2,0.6-0.4
		c0.1-0.1,0.2-0.3,0.3-0.4c0.2-0.3,0.3-0.6,0.3-0.9c0-0.2,0-0.3-0.1-0.5C265.7,179.4,265.6,179.1,265.3,178.9L265.3,178.9z"/>
	<g>
		<g>
			<path d="M264.4,179.5c2.4,0,2.4-3.8,0-3.8C262,175.7,262,179.5,264.4,179.5L264.4,179.5z"/>
		</g>
	</g>
	<g>
		<g>
			<path d="M289.8,169.4c2.4,0,2.4-3.8,0-3.8C287.4,165.7,287.4,169.4,289.8,169.4L289.8,169.4z"/>
		</g>
	</g>
	<g>
		<g>
			<path d="M289,166.6c2.4,0,2.4-3.8,0-3.8C286.6,162.9,286.6,166.6,289,166.6L289,166.6z"/>
		</g>
	</g>
	<path d="M288.4,163.6c0,0,0.1,0,0.1,0c0.3,0,0.5,0,0.7-0.2c0.2-0.1,0.4-0.2,0.6-0.4c0.2-0.2,0.3-0.4,0.4-0.6
		c0.1-0.2,0.2-0.5,0.2-0.7c0-0.2,0-0.3-0.1-0.5c-0.1-0.3-0.2-0.6-0.5-0.8c-0.1-0.1-0.3-0.2-0.4-0.3c-0.3-0.2-0.6-0.3-0.9-0.3
		c0,0-0.1,0-0.1,0c-0.3,0-0.5,0-0.7,0.2c-0.2,0.1-0.4,0.2-0.6,0.4c-0.2,0.2-0.3,0.4-0.4,0.6c-0.1,0.2-0.2,0.5-0.2,0.7
		c0,0.2,0,0.3,0.1,0.5c0.1,0.3,0.2,0.6,0.5,0.8c0.1,0.1,0.3,0.2,0.4,0.3C287.7,163.5,288,163.6,288.4,163.6L288.4,163.6z"/>
	<path d="M636.4,158.4c-17.6-0.5-35.3-1.4-52.9-2.8c-5.1-0.4-10.2-0.8-15.3-1.3c10.1-4.9,20.7-8.8,32-8.9c2,0,4,0.1,5.9,0.3
		c1,0.1,1.9-0.9,1.9-1.9c0-1.1-0.9-1.8-1.9-1.9c-15.8-1.7-31.1,4.5-44.8,11.7c-10.2-1-20.5-2.1-30.7-3.4c-1.8-0.2-3.6-0.5-5.4-0.7
		c8.5-3.3,17.1-6.2,25.9-8.5c15.9-4.2,32.4-6.4,48.9-6c2.1,0.1,4.2,0.2,6.3,0.3c2.4,0.2,2.4-3.6,0-3.8c-16.4-1.1-32.9,0.5-49,4
		c-13.6,3-26.8,7.5-39.6,12.9c-9.5-1.3-19-2.8-28.5-4.3c9.6-2.2,19.2-4.7,28.7-7.1c15.3-4,30.6-8,46.1-11.2c7.7-1.6,15.4-3,23.2-4
		c7.6-1,15.5-1.9,23.1-0.5c1.9,0.4,3.8,0.9,5.7,1.5c2.3,0.8,3.3-2.8,1-3.6c-7.4-2.6-15.4-2.7-23.1-1.9c-7.9,0.8-15.7,2-23.5,3.5
		c-15.5,2.9-30.9,6.8-46.2,10.7c-14.9,3.8-29.7,7.8-44.7,10.9c-0.4-0.1-0.7-0.1-1.1-0.2c-4.6-0.8-9.3-1.6-14-2.5
		c15.3-3.3,30.2-8.5,45-13.7c16.2-5.7,32.4-11.5,49.2-15.2c16.4-3.5,33.5-5,50.1-1.7c2.1,0.4,4.2,0.9,6.3,1.5c2.3,0.6,3.3-3,1-3.6
		c-16.2-4.4-33.2-4.1-49.7-1.4c-16.8,2.8-33,8-49,13.7c-16.1,5.7-32.2,11.6-48.8,15.7c-4.6,1.1-9.2,2.1-13.8,2.8
		c-8.8-1.9-17.6-4.1-26.1-7c-14.2-4.9-27.9-12.2-38.5-23c-1.3-1.3-2.6-2.7-3.8-4.2c-1.6-1.9-4.2,0.8-2.7,2.7
		c9.8,11.7,23,19.9,37,25.6c7.6,3.1,15.4,5.4,23.3,7.4c-8.6,0.8-17.2,0.7-25.7-0.6c-8.3-1.2-16.4-3.4-24.1-6.6
		c-6.8-2.8-13.7-6.3-18.9-11.6c-1.2-1.3-2.3-2.6-3.2-4.1c-1.3-2-4.5-0.1-3.2,1.9c4,6.3,10.2,10.7,16.7,14c7.5,3.8,15.4,6.6,23.6,8.5
		c15,3.4,30.4,3.3,45.6,0.9c4.9,1,9.8,1.9,14.8,2.8c-12.8,2.3-25.7,4-38.6,4.5c-16.9,0.6-33.8-0.7-50.6-2.2
		c-2.1-0.2-4.3-0.4-6.4-0.6c-2.4-0.2-2.4,3.5,0,3.8c16.8,1.5,33.7,3,50.6,2.9c16-0.1,31.9-2,47.6-5c2.6-0.5,5.1-1,7.7-1.5
		c10.6,1.8,21.2,3.5,31.8,5c-0.3,0.1-0.5,0.2-0.8,0.4c-7.5,3.4-14.8,7.1-21.9,11.1c-7.1,4-14.2,8.2-21.3,12
		c-3.6,1.9-7.2,3.8-10.9,5.5c-10.8,0.2-21.6-0.2-32.4-1.5c-14.9-1.7-29.8-5.3-43.6-11.5c-1.7-0.8-3.4-1.6-5.1-2.5
		c-2.1-1.1-4,2.1-1.9,3.2c13.6,6.9,28.3,11.2,43.3,13.5c10.1,1.6,20.4,2.3,30.6,2.4c-8,3-16.4,5.1-25.1,5.7
		c-15.4,1.1-31.1-1.9-44.9-8.8c-1.7-0.8-3.4-1.8-5-2.7c-2.1-1.2-4,2-1.9,3.2c13.5,7.9,29,12.1,44.6,12.3c7.8,0.1,15.7-0.8,23.3-2.8
		c6.5-1.7,12.8-4.1,18.9-6.9c1.9,0,3.9-0.1,5.8-0.1c15.9-0.5,32-1.5,47.5-4.7c7.9-1.6,15.7-3.9,23.1-7.1c7.4-3.2,14.4-7.1,21.4-10.9
		c2.3-1.3,4.6-2.5,7-3.8c4.7,0.5,9.4,0.9,14.1,1.3c17.8,1.5,35.7,2.6,53.6,3.2c2.2,0.1,4.5,0.1,6.7,0.2
		C638.8,162.2,638.8,158.5,636.4,158.4z M539.4,165.4c-7.2,3.6-14.7,6.5-22.5,8.6c-15.4,4-31.4,5.2-47.2,6c-1.5,0.1-3,0.1-4.5,0.2
		c13.3-6.9,25.9-14.9,39.3-21.5c4.5-2.2,9.1-4.3,13.7-6.3c1.6,0.2,3.1,0.4,4.7,0.7c10.8,1.4,21.6,2.7,32.4,3.8
		C550.1,159.7,544.8,162.7,539.4,165.4z"/>
	<path d="M695.9,116.8c9.8,11.7,23,19.9,37,25.6c15.8,6.4,32.8,9.7,49.5,12.7c17.6,3.2,35.3,6,53.1,8.4c17.7,2.4,35.4,4.3,53.1,5.8
		c17.8,1.5,35.7,2.6,53.6,3.2c2.2,0.1,4.5,0.1,6.7,0.2c2.4,0.1,2.4-3.7,0-3.8c-17.6-0.5-35.3-1.4-52.9-2.8
		c-17.7-1.4-35.3-3.2-52.9-5.4c-17.5-2.2-35-4.8-52.4-7.9c-16.8-2.9-33.7-5.9-49.9-11.4c-14.2-4.9-27.9-12.2-38.5-23
		c-1.3-1.3-2.6-2.7-3.8-4.2C697,112.3,694.4,115,695.9,116.8L695.9,116.8z"/>
	<path d="M681,128.8c4,6.3,10.2,10.7,16.7,14c7.5,3.8,15.4,6.6,23.6,8.5c16.7,3.8,33.9,3.2,50.6,0c17-3.2,33.5-8.9,49.8-14.7
		c16.2-5.7,32.4-11.5,49.2-15.2c16.4-3.5,33.5-5,50.1-1.7c2.1,0.4,4.2,0.9,6.3,1.5c2.3,0.6,3.3-3,1-3.6c-16.2-4.4-33.2-4.1-49.7-1.4
		c-16.8,2.8-33,8-49,13.7c-16.1,5.7-32.2,11.6-48.8,15.7c-16.4,4-33.5,6.1-50.3,3.6c-8.3-1.2-16.4-3.4-24.1-6.6
		c-6.8-2.8-13.7-6.3-18.9-11.6c-1.2-1.3-2.3-2.6-3.2-4.1C683,124.8,679.7,126.7,681,128.8L681,128.8z"/>
	<path d="M686,160.5c16.8,1.5,33.7,3,50.6,2.9c16-0.1,31.9-2,47.6-5c15.5-2.9,30.8-6.8,46.1-10.8c15.3-4,30.6-8,46.1-11.2
		c7.7-1.6,15.4-3,23.2-4c7.6-1,15.5-1.9,23.1-0.5c1.9,0.4,3.8,0.9,5.7,1.5c2.3,0.8,3.3-2.8,1-3.6c-7.4-2.6-15.4-2.7-23.1-1.9
		c-7.9,0.8-15.7,2-23.5,3.5c-15.5,2.9-30.9,6.8-46.2,10.7c-15.4,4-30.7,8-46.3,11.3c-15.6,3.2-31.3,5.6-47.2,6.1
		c-16.9,0.6-33.8-0.7-50.6-2.2c-2.1-0.2-4.3-0.4-6.4-0.6C683.6,156.5,683.6,160.3,686,160.5L686,160.5z"/>
	<path d="M682.9,192c13.5,7.9,29,12.1,44.6,12.3c7.8,0.1,15.7-0.8,23.3-2.8c7.9-2,15.6-5.2,22.9-8.8c14.8-7.3,28.6-16.3,43.4-23.6
		c14.9-7.4,30.5-13.5,46.5-17.7c15.9-4.2,32.4-6.4,48.9-6c2.1,0.1,4.2,0.2,6.3,0.3c2.4,0.2,2.4-3.6,0-3.8c-16.4-1.1-32.9,0.5-49,4
		c-16.2,3.6-31.8,9.2-46.9,16.1c-7.5,3.4-14.8,7.1-21.9,11.1c-7.1,4-14.2,8.2-21.3,12c-14.1,7.6-28.9,13.8-45,14.9
		c-15.4,1.1-31.1-1.9-44.9-8.8c-1.7-0.8-3.4-1.8-5-2.7C682.7,187.6,680.8,190.8,682.9,192L682.9,192z"/>
	<path d="M685.8,178.7c13.6,6.9,28.3,11.2,43.3,13.5c15.3,2.4,30.8,2.8,46.3,2.3c15.9-0.5,32-1.5,47.5-4.7
		c7.9-1.6,15.7-3.9,23.1-7.1c7.4-3.2,14.4-7.1,21.4-10.9c13.9-7.7,28.8-15.7,45.1-15.9c2,0,4,0.1,5.9,0.3c1,0.1,1.9-0.9,1.9-1.9
		c0-1.1-0.9-1.8-1.9-1.9c-16.2-1.7-31.7,4.8-45.7,12.2c-7,3.7-13.9,7.8-21,11.3c-7.2,3.6-14.7,6.5-22.5,8.6c-15.4,4-31.4,5.2-47.2,6
		c-15.3,0.8-30.7,0.7-45.9-1c-14.9-1.7-29.8-5.3-43.6-11.5c-1.7-0.8-3.4-1.6-5.1-2.5C685.5,174.4,683.6,177.6,685.8,178.7
		L685.8,178.7z"/>
	<path d="M710.2,141.9c-0.3,1.2-0.4,2.5-0.5,3.8c0,0.5,0.2,1,0.5,1.3c0.3,0.3,0.9,0.6,1.3,0.5c0.5,0,1-0.2,1.3-0.5
		c0.1-0.1,0.2-0.3,0.3-0.4c0.2-0.3,0.3-0.6,0.3-0.9c0-0.4,0.1-0.9,0.1-1.3c0,0.2,0,0.3-0.1,0.5c0.1-0.7,0.2-1.3,0.3-1.9
		c0.1-0.5,0.1-1-0.2-1.4c-0.2-0.4-0.7-0.8-1.1-0.9c-0.5-0.1-1-0.1-1.4,0.2C710.7,141,710.3,141.4,710.2,141.9L710.2,141.9z"/>
	<g>
		<g>
			<path d="M712.5,140.4c2.4,0,2.4-3.8,0-3.8C710.1,136.7,710.1,140.4,712.5,140.4L712.5,140.4z"/>
		</g>
	</g>
	<path d="M714.9,135c0.5-1.4,0.8-2.9,0.8-4.5c0-0.5-0.2-1-0.5-1.3c-0.3-0.3-0.9-0.6-1.3-0.5c-1,0-1.9,0.8-1.9,1.9c0,0.5,0,1-0.1,1.5
		c0-0.2,0-0.3,0.1-0.5c-0.1,0.9-0.3,1.7-0.6,2.5c-0.2,0.4,0,1.1,0.2,1.4c0.2,0.4,0.7,0.8,1.1,0.9c0.5,0.1,1,0.1,1.4-0.2
		C714.5,135.9,714.7,135.5,714.9,135L714.9,135z"/>
	<path d="M802,148.6c-0.1,0.1-0.3,0.2-0.4,0.3c-0.2,0.1-0.4,0.3-0.5,0.5c-0.2,0.2-0.3,0.4-0.3,0.6c-0.1,0.2-0.1,0.5,0,0.7
		c0,0.2,0.1,0.5,0.2,0.7c0.1,0.1,0.2,0.3,0.3,0.4c0.2,0.2,0.5,0.4,0.8,0.5c0.2,0,0.3,0,0.5,0.1c0.3,0,0.7-0.1,0.9-0.3
		c0.1-0.1,0.3-0.2,0.4-0.3c0.2-0.1,0.4-0.3,0.5-0.5c0.2-0.2,0.3-0.4,0.3-0.6c0.1-0.2,0.1-0.5,0-0.7c0-0.2-0.1-0.5-0.2-0.7
		c-0.1-0.1-0.2-0.3-0.3-0.4c-0.2-0.2-0.5-0.4-0.8-0.5c-0.2,0-0.3,0-0.5-0.1C802.6,148.4,802.3,148.5,802,148.6L802,148.6z"/>
	<g>
		<g>
			<path d="M802.8,147.9c2.4,0,2.4-3.8,0-3.8C800.4,144.2,800.4,147.9,802.8,147.9L802.8,147.9z"/>
		</g>
	</g>
	<path d="M802.5,140.6c0,0-0.1,0-0.1,0c-0.3,0-0.5,0-0.7,0.2c-0.2,0.1-0.4,0.2-0.6,0.4c-0.2,0.2-0.3,0.4-0.4,0.6
		c-0.1,0.2-0.2,0.5-0.2,0.7c0,0.2,0,0.3,0.1,0.5c0.1,0.3,0.2,0.6,0.5,0.8c0.1,0.1,0.3,0.2,0.4,0.3c0.3,0.2,0.6,0.3,0.9,0.3
		c0,0,0.1,0,0.1,0c0.3,0,0.5,0,0.7-0.2c0.2-0.1,0.4-0.2,0.6-0.4c0.2-0.2,0.3-0.4,0.4-0.6c0.1-0.2,0.2-0.5,0.2-0.7
		c0-0.2,0-0.3-0.1-0.5c-0.1-0.3-0.2-0.6-0.5-0.8c-0.1-0.1-0.3-0.2-0.4-0.3C803.2,140.7,802.8,140.6,802.5,140.6L802.5,140.6z"/>
	<path d="M715.5,186c0-0.1,0.1-0.3,0.1-0.4c0.1-0.2,0.1-0.5,0-0.7c0-0.2-0.1-0.5-0.2-0.7c-0.1-0.2-0.3-0.4-0.5-0.5
		c-0.2-0.2-0.4-0.3-0.6-0.3c-0.2,0-0.3,0-0.5-0.1c-0.3,0-0.7,0.1-0.9,0.3c-0.1,0.1-0.3,0.2-0.4,0.3c-0.2,0.2-0.4,0.5-0.5,0.8
		c0,0.1-0.1,0.3-0.1,0.4c-0.1,0.2-0.1,0.5,0,0.7c0,0.2,0.1,0.5,0.2,0.7c0.1,0.2,0.3,0.4,0.5,0.5c0.2,0.2,0.4,0.3,0.6,0.3
		c0.2,0,0.3,0,0.5,0.1c0.3,0,0.7-0.1,0.9-0.3c0.1-0.1,0.3-0.2,0.4-0.3C715.3,186.6,715.4,186.4,715.5,186L715.5,186z"/>
	<g>
		<g>
			<path d="M714.4,182.4c2.4,0,2.4-3.8,0-3.8C711.9,178.7,711.9,182.4,714.4,182.4L714.4,182.4z"/>
		</g>
	</g>
	<path d="M715.8,177.7c0,0,0.1-0.1,0.1-0.1c0.2-0.2,0.3-0.4,0.4-0.6c0.1-0.2,0.2-0.5,0.2-0.7c0-0.3,0-0.5-0.2-0.7
		c-0.1-0.2-0.2-0.4-0.4-0.6c-0.1-0.1-0.3-0.2-0.4-0.3c-0.3-0.2-0.6-0.3-0.9-0.3c-0.2,0-0.3,0-0.5,0.1c-0.3,0.1-0.6,0.2-0.8,0.5
		c0,0-0.1,0.1-0.1,0.1c-0.2,0.2-0.3,0.4-0.4,0.6c-0.1,0.2-0.2,0.5-0.2,0.7c0,0.3,0,0.5,0.2,0.7c0.1,0.2,0.2,0.4,0.4,0.6
		c0.1,0.1,0.3,0.2,0.4,0.3c0.3,0.2,0.6,0.3,0.9,0.3c0.2,0,0.3,0,0.5-0.1C715.3,178.1,715.6,177.9,715.8,177.7L715.8,177.7z"/>
	<g>
		<g>
			<path d="M715.1,174c2.4,0,2.4-3.8,0-3.8C712.7,170.3,712.7,174,715.1,174L715.1,174z"/>
		</g>
	</g>
	<g>
		<g>
			<path d="M715.3,170.4c2.4,0,2.4-3.8,0-3.8C712.9,166.6,712.9,170.4,715.3,170.4L715.3,170.4z"/>
		</g>
	</g>
	<g>
		<g>
			<path d="M715.7,166.4c2.4,0,2.4-3.8,0-3.8C713.3,162.7,713.3,166.4,715.7,166.4L715.7,166.4z"/>
		</g>
	</g>
	<path d="M724.9,199.7C724.9,199.7,724.9,199.7,724.9,199.7c0.1,0,0.3,0,0.5-0.1c0,0,0,0,0,0c0.2,0,0.3,0,0.5,0.1c0,0,0,0,0,0
		c0.1,0.1,0.3,0.1,0.4,0.2c0,0,0,0,0,0c0.1,0.1,0.3,0.2,0.4,0.3c0,0,0,0,0,0c0.1,0.1,0.2,0.3,0.3,0.4c0,0,0-0.1-0.1-0.1
		c0.1,0.1,0.1,0.3,0.2,0.4c0-0.1,0-0.1,0-0.2c0,0.2,0,0.3,0.1,0.5c0-0.1,0-0.2,0-0.3c0,0.2,0,0.3-0.1,0.5c0.1-0.4,0.2-0.8,0.3-1.2
		c-0.1,0.1-0.1,0.3-0.2,0.4c0.1-0.1,0.1-0.3,0.2-0.4c0.2-0.4,0.3-1,0.2-1.4c-0.1-0.2-0.2-0.5-0.3-0.6c-0.1-0.2-0.3-0.4-0.5-0.5
		c-0.4-0.2-1-0.3-1.4-0.2c-0.5,0.1-0.9,0.4-1.1,0.9c-0.2,0.4-0.4,0.8-0.5,1.2c-0.1,0.3-0.2,0.5-0.2,0.8c0,0.3-0.1,0.5-0.1,0.8
		c0,0.5,0.1,0.8,0.3,1.2c0.2,0.3,0.5,0.6,0.8,0.8c0.3,0.2,0.5,0.2,0.8,0.3c0.2,0,0.2,0,0.3,0c0.2,0,0.3,0,0.5-0.1c0,0,0,0,0,0
		c0.2-0.1,0.5-0.2,0.6-0.3c0.2-0.1,0.4-0.3,0.5-0.5c0.1-0.2,0.2-0.4,0.2-0.7c0.1-0.2,0-0.5,0-0.7c-0.1-0.5-0.4-0.9-0.9-1.1
		c-0.1-0.1-0.3-0.1-0.4-0.2C725.6,199.6,725.2,199.6,724.9,199.7L724.9,199.7z"/>
	<path d="M728.4,196.6c0,0,0-0.1,0-0.1c0-0.3,0-0.5-0.2-0.7c-0.1-0.2-0.2-0.4-0.4-0.6c-0.2-0.2-0.4-0.3-0.6-0.4
		c-0.2-0.1-0.5-0.2-0.7-0.2c-0.2,0-0.3,0-0.5,0.1c-0.3,0.1-0.6,0.2-0.8,0.5c-0.1,0.1-0.2,0.3-0.3,0.4c-0.2,0.3-0.3,0.6-0.3,0.9
		c0,0,0,0.1,0,0.1c0,0.3,0,0.5,0.2,0.7c0.1,0.2,0.2,0.4,0.4,0.6c0.2,0.2,0.4,0.3,0.6,0.4c0.2,0.1,0.5,0.2,0.7,0.2
		c0.2,0,0.3,0,0.5-0.1c0.3-0.1,0.6-0.2,0.8-0.5c0.1-0.1,0.2-0.3,0.3-0.4C728.3,197.2,728.4,196.9,728.4,196.6L728.4,196.6z"/>
	<path d="M728.9,192.8C728.9,192.7,728.9,192.7,728.9,192.8c0,0.1,0,0.2,0.1,0.4c0-0.1,0-0.1,0-0.2c0,0.2,0,0.3-0.1,0.5
		c0-0.1,0-0.1,0.1-0.2c-0.1,0.1-0.1,0.3-0.2,0.4c0,0,0-0.1,0.1-0.1c0.1-0.2,0.2-0.4,0.2-0.7c0.1-0.2,0-0.5,0-0.7
		c-0.1-0.2-0.2-0.5-0.3-0.6c-0.1-0.2-0.3-0.4-0.5-0.5c-0.1-0.1-0.3-0.1-0.4-0.2c-0.3-0.1-0.7-0.1-1,0c-0.1,0.1-0.3,0.1-0.4,0.2
		c-0.3,0.2-0.5,0.4-0.7,0.7c0,0,0,0.1,0,0.1c0,0,0,0,0,0c-0.1,0.2-0.1,0.3-0.2,0.5c0,0.1,0,0.1-0.1,0.2c0,0.1,0,0.2,0,0.3
		c0,0.1,0,0.2,0,0.3c0,0,0,0.1,0,0.1c0,0,0,0.1,0,0.1c0,0.2,0,0.3,0.1,0.5c0,0,0,0,0,0c0,0,0,0,0,0c0.1,0.2,0.2,0.5,0.3,0.6
		c0.1,0.2,0.3,0.4,0.5,0.5c0.2,0.1,0.4,0.2,0.7,0.2c0.2,0.1,0.5,0,0.7,0c0.1-0.1,0.3-0.1,0.4-0.2c0.3-0.2,0.5-0.4,0.7-0.7
		c0.1-0.1,0.1-0.3,0.2-0.4C729,193.4,729,193.1,728.9,192.8L728.9,192.8z"/>
	<path d="M849.2,148.9C849.2,148.9,849.2,148.9,849.2,148.9c-0.2,0-0.4,0-0.6,0.1c0,0,0,0,0,0c-0.2,0.1-0.4,0.2-0.5,0.2
		c0,0,0,0-0.1,0c-0.2,0.1-0.3,0.2-0.4,0.3c0,0,0,0,0,0c-0.1,0.1-0.3,0.3-0.3,0.4c0,0,0,0,0,0.1c-0.1,0.2-0.1,0.3-0.2,0.5
		c0,0,0,0,0,0c0,0,0,0,0,0c0,0.2-0.1,0.4-0.1,0.5c0,0.3,0,0.5,0.2,0.7c0.1,0.2,0.2,0.4,0.4,0.6c0.2,0.2,0.4,0.3,0.6,0.4
		c0.2,0.1,0.5,0.2,0.7,0.2c0.2,0,0.3,0,0.5-0.1c0.3-0.1,0.6-0.2,0.8-0.5c0.1-0.1,0.2-0.3,0.3-0.4c0.2-0.3,0.3-0.6,0.3-0.9
		c0,0,0,0,0,0c0,0.2,0,0.3-0.1,0.5c0,0,0-0.1,0-0.1c-0.1,0.1-0.1,0.3-0.2,0.4c0,0,0-0.1,0.1-0.1c-0.1,0.1-0.2,0.3-0.3,0.4
		c0,0,0-0.1,0.1-0.1c-0.1,0.1-0.3,0.2-0.4,0.3c0,0,0.1,0,0.1-0.1c-0.1,0.1-0.3,0.1-0.4,0.2c0,0,0.1,0,0.1,0c-0.2,0-0.3,0-0.5,0.1
		c0,0,0,0,0,0c0.3,0,0.5,0,0.7-0.2c0.2-0.1,0.4-0.2,0.6-0.4c0.2-0.2,0.3-0.4,0.4-0.6c0.1-0.2,0.2-0.5,0.2-0.7c0-0.2,0-0.3-0.1-0.5
		c-0.1-0.3-0.2-0.6-0.5-0.8c-0.1-0.1-0.3-0.2-0.4-0.3C849.9,149,849.5,148.9,849.2,148.9L849.2,148.9z"/>
	<g>
		<g>
			<path d="M848.8,149.2c2.4,0,2.4-3.8,0-3.8C846.4,145.5,846.4,149.2,848.8,149.2L848.8,149.2z"/>
		</g>
	</g>
	<g>
		<g>
			<path d="M848.4,145.2c2.4,0,2.4-3.8,0-3.8C846,141.4,846,145.2,848.4,145.2L848.4,145.2z"/>
		</g>
	</g>
	<g>
		<g>
			<path d="M913.4,153.7c2.4,0,2.4-3.8,0-3.8C910.9,149.9,910.9,153.7,913.4,153.7L913.4,153.7z"/>
		</g>
	</g>
	<g>
		<g>
			<path d="M912.4,150.9c2.4,0,2.4-3.8,0-3.8C910,147.2,910,150.9,912.4,150.9L912.4,150.9z"/>
		</g>
	</g>
	<path d="M911.7,147.9c0,0,0.1,0,0.1,0c0.3,0,0.5,0,0.7-0.2c0.2-0.1,0.4-0.2,0.6-0.4c0.2-0.2,0.3-0.4,0.4-0.6
		c0.1-0.2,0.2-0.5,0.2-0.7c0-0.2,0-0.3-0.1-0.5c-0.1-0.3-0.2-0.6-0.5-0.8c-0.1-0.1-0.3-0.2-0.4-0.3c-0.3-0.2-0.6-0.3-0.9-0.3
		c0,0-0.1,0-0.1,0c-0.3,0-0.5,0-0.7,0.2c-0.2,0.1-0.4,0.2-0.6,0.4c-0.2,0.2-0.3,0.4-0.4,0.6c-0.1,0.2-0.2,0.5-0.2,0.7
		c0,0.2,0,0.3,0.1,0.5c0.1,0.3,0.2,0.6,0.5,0.8c0.1,0.1,0.3,0.2,0.4,0.3C911,147.8,911.3,147.9,911.7,147.9L911.7,147.9z"/>
</g>
</svg>
