<?xml version="1.0" encoding="utf-8"?>
<!-- Generator: Adobe Illustrator 24.0.1, SVG Export Plug-In . SVG Version: 6.00 Build 0)  -->
<svg version="1.1" xmlns="http://www.w3.org/2000/svg" xmlns:xlink="http://www.w3.org/1999/xlink" x="0px" y="0px"
	 viewBox="0 0 1000 365.3" style="enable-background:new 0 0 1000 365.3;" xml:space="preserve">
<style type="text/css">
	.st0{fill:#95D2EF;}
	.st1{fill:#FCDE8A;}
	.st2{fill:#1E1E1C;}
	.st3{fill:#1E1E1C;stroke:#1E1E1C;stroke-width:0.25;stroke-miterlimit:10;}
	.st4{fill:#1E1E1C;stroke:#1E1E1C;stroke-width:0.15;stroke-miterlimit:10;}
	.st5{fill:#FFFFFF;}
	.st6{stroke:#1E1E1C;stroke-miterlimit:10;}
	.st7{fill:none;stroke:#1E1E1C;stroke-width:3;stroke-linecap:round;stroke-linejoin:round;stroke-miterlimit:10;}
</style>
<g id="Calque_2">
</g>
<g id="Calque_1">
	<path d="M119.5,184.4c-14.5,0-26.3-11.8-26.3-26.3s11.8-26.3,26.3-26.3s26.3,11.8,26.3,26.3S134,184.4,119.5,184.4z M119.5,135.4
		c-12.6,0-22.8,10.2-22.8,22.8s10.2,22.8,22.8,22.8s22.8-10.2,22.8-22.8S132.1,135.4,119.5,135.4z"/>
	<path d="M86.9,127.1c-11.1,0-20.1-9-20.1-20.1s9-20.1,20.1-20.1c11.1,0,20.1,9,20.1,20.1S98,127.1,86.9,127.1z M86.9,90.4
		c-9.2,0-16.6,7.5-16.6,16.6s7.5,16.6,16.6,16.6c9.2,0,16.6-7.5,16.6-16.6S96.1,90.4,86.9,90.4z"/>
	<path d="M213.1,126.9c-11.1,0-20.1-9-20.1-20.1s9-20.1,20.1-20.1c11.1,0,20.1,9,20.1,20.1S224.1,126.9,213.1,126.9z M213.1,90.2
		c-9.2,0-16.6,7.5-16.6,16.6s7.5,16.6,16.6,16.6c9.2,0,16.6-7.5,16.6-16.6S222.2,90.2,213.1,90.2z"/>
	<path d="M224.4,229.2c-11.1,0-20.1-9-20.1-20.1s9-20.1,20.1-20.1c11.1,0,20.1,9,20.1,20.1S235.5,229.2,224.4,229.2z M224.4,192.5
		c-9.2,0-16.6,7.5-16.6,16.6s7.5,16.6,16.6,16.6c9.2,0,16.6-7.5,16.6-16.6S233.6,192.5,224.4,192.5z"/>
	<path d="M86.9,229.4c-11.1,0-20.1-9-20.1-20.1s9-20.1,20.1-20.1c11.1,0,20.1,9,20.1,20.1S98,229.4,86.9,229.4z M86.9,192.7
		c-9.2,0-16.6,7.5-16.6,16.6s7.5,16.6,16.6,16.6c9.2,0,16.6-7.5,16.6-16.6S96.1,192.7,86.9,192.7z"/>
	<path d="M182.5,184c-14.5,0-26.3-11.8-26.3-26.3s11.8-26.3,26.3-26.3s26.3,11.8,26.3,26.3S197,184,182.5,184z M182.5,134.9
		c-12.6,0-22.8,10.2-22.8,22.8s10.2,22.8,22.8,22.8s22.8-10.2,22.8-22.8S195.1,134.9,182.5,134.9z"/>
	<g>
		<g>
			<path d="M183.6,145.8c0.1,0,0.3,0,0.5,0c0,0,0.1,0,0.1,0c0.1,0,0.1,0,0.2,0c0.1,0,0.2,0.1,0.4,0.2c0.2,0.1,0.2,0.3,0.2,0.4
				c0,0.3-0.3,0.5-0.9,0.6c-0.6,0.1-1.3,0.6-1.9,1.4c-0.9,1.2-1.5,2.5-1.9,4s-0.5,3.4-0.5,5.9c0,3.9,0.6,6.7,1.9,8.5
				c0.4,0.6,0.9,1.1,1.5,1.3c0.6,0.3,1.3,0.5,2.3,0.6c0.6,0.1,1,0.3,1,0.7c0,0.4-0.3,0.6-0.8,0.6h-0.2c-1.9-0.1-3.4-0.8-4.5-2.1
				c-1.1-1.3-1.8-3.4-2.3-6.3c-0.1-0.5-0.1-1.7-0.1-3.5c0-1.5,0-2.5,0.1-3.2c0.3-2.7,1-4.9,2.1-6.6
				C181.8,146.8,182.7,146,183.6,145.8z"/>
			<path d="M185.7,170.5h-0.2c-2.1-0.1-3.7-0.8-4.9-2.3c-1.1-1.4-1.9-3.6-2.4-6.6c-0.1-0.5-0.1-1.7-0.1-3.6c0-1.5,0-2.6,0.1-3.3
				c0.3-2.8,1-5.1,2.2-6.8c1.1-1.6,2.1-2.5,3.2-2.7c0.2,0,0.4,0,0.6,0c0,0,0.1,0,0.2,0c0.3,0,0.6,0.1,0.8,0.3
				c0.1,0.1,0.4,0.4,0.4,0.7c0,0.6-0.4,0.9-1.3,1.1c-0.5,0.1-1.1,0.5-1.6,1.2c-0.9,1.1-1.5,2.4-1.8,3.8c-0.3,1.4-0.5,3.4-0.5,5.8
				c0,3.8,0.6,6.5,1.8,8.2c0.4,0.5,0.8,0.9,1.3,1.2c0.5,0.3,1.2,0.4,2.2,0.5c1.2,0.2,1.4,0.8,1.4,1.2
				C187,169.7,186.9,170.5,185.7,170.5z M184,146.3c-0.1,0-0.2,0-0.3,0l0,0c-0.8,0.1-1.6,0.9-2.5,2.3c-1.1,1.6-1.8,3.8-2,6.4
				c-0.1,0.7-0.1,1.8-0.1,3.2c0,1.8,0,2.9,0.1,3.4c0.4,2.8,1.2,4.9,2.2,6.1c1,1.2,2.4,1.8,4.2,1.9h0.2c0.3,0,0.3-0.1,0.3-0.1
				c0-0.1-0.1-0.2-0.5-0.2c-1-0.1-1.9-0.3-2.5-0.6c-0.6-0.3-1.2-0.8-1.7-1.5c-1.3-1.9-2-4.8-2-8.8c0-2.5,0.2-4.5,0.5-6
				c0.4-1.5,1-2.9,2-4.2c0.7-0.9,1.5-1.5,2.2-1.6c0.2,0,0.3-0.1,0.4-0.1c-0.1-0.1-0.1-0.1-0.1-0.1c0,0-0.1,0-0.2,0
				C184.1,146.3,184.1,146.3,184,146.3z"/>
		</g>
	</g>
	<g>
		<g>
			<path d="M119.2,146.1c0.1,0,0.3,0,0.5,0c0,0,0.1,0,0.1,0c0.1,0,0.1,0,0.2,0c0.1,0,0.2,0.1,0.4,0.2c0.2,0.1,0.2,0.3,0.2,0.4
				c0,0.3-0.3,0.5-0.9,0.6c-0.6,0.1-1.3,0.6-1.9,1.4c-0.9,1.2-1.5,2.5-1.9,4s-0.5,3.4-0.5,5.9c0,3.9,0.6,6.7,1.9,8.5
				c0.4,0.6,0.9,1.1,1.5,1.3c0.6,0.3,1.3,0.5,2.3,0.6c0.6,0.1,1,0.3,1,0.7c0,0.4-0.3,0.6-0.8,0.6H121c-1.9-0.1-3.4-0.8-4.5-2.1
				c-1.1-1.3-1.8-3.4-2.3-6.3c-0.1-0.5-0.1-1.7-0.1-3.5c0-1.5,0-2.5,0.1-3.2c0.3-2.7,1-4.9,2.1-6.6
				C117.3,147.1,118.3,146.2,119.2,146.1z"/>
			<path d="M121.2,170.8H121c-2.1-0.1-3.7-0.8-4.9-2.3c-1.1-1.4-1.9-3.6-2.4-6.6c-0.1-0.5-0.1-1.7-0.1-3.6c0-1.5,0-2.6,0.1-3.3
				c0.3-2.8,1-5.1,2.2-6.8c1.1-1.6,2.1-2.5,3.2-2.7c0.2,0,0.4,0,0.6,0c0,0,0.1,0,0.2,0c0.3,0,0.6,0.1,0.8,0.3
				c0.1,0.1,0.4,0.4,0.4,0.7c0,0.6-0.4,0.9-1.3,1.1c-0.5,0.1-1.1,0.5-1.6,1.2c-0.9,1.1-1.5,2.4-1.8,3.8c-0.3,1.4-0.5,3.4-0.5,5.8
				c0,3.8,0.6,6.5,1.8,8.2c0.4,0.5,0.8,0.9,1.3,1.2c0.5,0.3,1.2,0.4,2.2,0.5c1.2,0.2,1.4,0.8,1.4,1.2
				C122.6,169.9,122.5,170.8,121.2,170.8z M119.6,146.5c-0.1,0-0.2,0-0.3,0l0,0c-0.8,0.1-1.6,0.9-2.5,2.3c-1.1,1.6-1.8,3.8-2,6.4
				c-0.1,0.7-0.1,1.8-0.1,3.2c0,1.8,0,2.9,0.1,3.4c0.4,2.8,1.2,4.9,2.2,6.1c1,1.2,2.4,1.8,4.2,1.9h0.2c0.3,0,0.3-0.1,0.3-0.1
				c0-0.1-0.1-0.2-0.5-0.2c-1-0.1-1.9-0.3-2.5-0.6c-0.6-0.3-1.2-0.8-1.7-1.5c-1.3-1.9-2-4.8-2-8.8c0-2.5,0.2-4.5,0.5-6
				c0.4-1.5,1-2.9,2-4.2c0.7-0.9,1.5-1.5,2.2-1.6c0.2,0,0.3-0.1,0.4-0.1c-0.1-0.1-0.1-0.1-0.1-0.1c0,0-0.1,0-0.2,0
				C119.7,146.5,119.6,146.5,119.6,146.5z"/>
		</g>
	</g>
	<g>
		<g>
			<path d="M214.8,99.4c0.2-0.1,0.3-0.1,0.5,0.1c0.1,0.1,0.2,1.6,0.4,4.4c0.3,5.9,0.5,9.2,0.5,9.8c0,0.1,0,0.2,0,0.3v0
				c-0.1,0.2-0.2,0.3-0.4,0.1c-0.2-0.1-0.3-0.4-0.4-0.8c0-0.4-0.1-1.3-0.1-2.8c0-1.4-0.1-2.4-0.1-3.1c0-0.5,0-0.8,0-0.8v-0.1h-4.3
				l0,3.5c0,2.3-0.1,3.6-0.1,3.7c-0.2,0.2-0.4,0.2-0.6-0.1v-6.8c0-4.6,0-6.9,0-7c0.1-0.2,0.2-0.3,0.3-0.3c0.1,0,0.2,0.1,0.3,0.2
				c0.1,0.2,0.1,1.2,0.1,3.1v2.9h4.1v-1c0-0.4,0-1.4-0.1-2.9c-0.1-1.1-0.1-1.8-0.1-1.9C214.6,99.6,214.7,99.4,214.8,99.4z"/>
			<path d="M215.9,114.7c-0.1,0-0.3,0-0.4-0.1c-0.3-0.2-0.5-0.6-0.6-1.1c-0.1-0.4-0.1-1.4-0.1-2.9c0-1.4-0.1-2.4-0.1-3.1
				c0-0.2,0-0.4,0-0.5h-3.3l0,3c-0.1,3.7-0.1,3.7-0.2,3.9c-0.2,0.2-0.4,0.4-0.6,0.4c-0.3,0-0.5-0.1-0.8-0.4l-0.1-0.1v-7
				c0-6.9,0-7,0.1-7.2c0.1-0.4,0.4-0.6,0.8-0.6c0.3,0,0.6,0.2,0.7,0.5c0.1,0.2,0.2,0.3,0.2,3.3v2.4h3.1v-0.5c0-0.4,0-1.4-0.1-2.9
				c-0.1-1.1-0.1-1.8-0.1-1.9c0-0.3,0-0.7,0.4-1l0,0c0.3-0.2,0.7-0.2,1.1,0.2c0.2,0.2,0.3,0.4,0.5,4.7c0.3,6,0.5,9.2,0.5,9.9
				c0,0.1,0,0.3,0,0.4l0,0.1c-0.1,0.3-0.3,0.4-0.5,0.5C216,114.7,215.9,114.7,215.9,114.7z"/>
		</g>
	</g>
	<g>
		<g>
			<path d="M88.6,201.9c0.2-0.1,0.3-0.1,0.5,0.1c0.1,0.1,0.2,1.6,0.4,4.4c0.3,5.9,0.5,9.2,0.5,9.8c0,0.1,0,0.2,0,0.3v0
				c-0.1,0.2-0.2,0.3-0.4,0.1c-0.2-0.1-0.3-0.4-0.4-0.8c0-0.4-0.1-1.3-0.1-2.8c0-1.4-0.1-2.4-0.1-3.1c0-0.5,0-0.8,0-0.8v-0.1h-4.3
				l0,3.5c0,2.3-0.1,3.6-0.1,3.7c-0.2,0.2-0.4,0.2-0.6-0.1v-6.8c0-4.6,0-6.9,0-7c0.1-0.2,0.2-0.3,0.3-0.3c0.1,0,0.2,0.1,0.3,0.2
				c0.1,0.2,0.1,1.2,0.1,3.1v2.9h4.1v-1c0-0.4,0-1.4-0.1-2.9c-0.1-1.1-0.1-1.8-0.1-1.9C88.5,202.1,88.5,202,88.6,201.9z"/>
			<path d="M89.7,217.3c-0.1,0-0.3,0-0.4-0.1c-0.3-0.2-0.5-0.6-0.6-1.1c-0.1-0.4-0.1-1.4-0.1-2.9c0-1.4-0.1-2.4-0.1-3.1
				c0-0.2,0-0.4,0-0.5h-3.3l0,3c-0.1,3.7-0.1,3.7-0.2,3.9c-0.2,0.2-0.4,0.4-0.6,0.4c-0.3,0-0.5-0.1-0.8-0.4l-0.1-0.1v-7
				c0-6.9,0-7,0.1-7.2c0.1-0.4,0.4-0.6,0.8-0.6c0.3,0,0.6,0.2,0.7,0.5c0.1,0.2,0.2,0.3,0.2,3.3v2.4h3.1v-0.5c0-0.4,0-1.4-0.1-2.9
				c-0.1-1.1-0.1-1.8-0.1-1.9c0-0.3,0-0.7,0.4-1l0,0c0.3-0.2,0.7-0.2,1.1,0.2c0.2,0.2,0.3,0.4,0.5,4.7c0.3,6,0.5,9.2,0.5,9.9
				c0,0.1,0,0.3,0,0.4l0,0.1c-0.1,0.3-0.3,0.4-0.5,0.5C89.9,217.3,89.8,217.3,89.7,217.3z"/>
		</g>
	</g>
	<g>
		<g>
			<path d="M226.1,201.7c0.2-0.1,0.3-0.1,0.5,0.1c0.1,0.1,0.2,1.6,0.4,4.4c0.3,5.9,0.5,9.2,0.5,9.8c0,0.1,0,0.2,0,0.3v0
				c-0.1,0.2-0.2,0.3-0.4,0.1c-0.2-0.1-0.3-0.4-0.4-0.8c0-0.4-0.1-1.3-0.1-2.8c0-1.4-0.1-2.4-0.1-3.1c0-0.5,0-0.8,0-0.8v-0.1h-4.3
				l0,3.5c0,2.3-0.1,3.6-0.1,3.7c-0.2,0.2-0.4,0.2-0.6-0.1v-6.8c0-4.6,0-6.9,0-7c0.1-0.2,0.2-0.3,0.3-0.3c0.1,0,0.2,0.1,0.3,0.2
				c0.1,0.2,0.1,1.2,0.1,3.1v2.9h4.1v-1c0-0.4,0-1.4-0.1-2.9c-0.1-1.1-0.1-1.8-0.1-1.9C226,201.9,226,201.7,226.1,201.7z"/>
			<path d="M227.2,217.1c-0.1,0-0.3,0-0.4-0.1c-0.3-0.2-0.5-0.6-0.6-1.1c-0.1-0.4-0.1-1.4-0.1-2.9c0-1.4-0.1-2.4-0.1-3.1
				c0-0.2,0-0.4,0-0.5h-3.3l0,3c-0.1,3.7-0.1,3.7-0.2,3.9c-0.2,0.2-0.4,0.4-0.6,0.4c-0.3,0-0.5-0.1-0.8-0.4l-0.1-0.1v-7
				c0-6.9,0-7,0.1-7.2c0.1-0.4,0.4-0.6,0.8-0.6c0.3,0,0.6,0.2,0.7,0.5c0.1,0.2,0.2,0.3,0.2,3.3v2.4h3.1V207c0-0.4,0-1.4-0.1-2.9
				c-0.1-1.1-0.1-1.8-0.1-1.9c0-0.3,0-0.7,0.4-1l0,0c0.3-0.2,0.7-0.2,1.1,0.2c0.2,0.2,0.3,0.4,0.5,4.7c0.3,6,0.5,9.2,0.5,9.9
				c0,0.1,0,0.3,0,0.4l0,0.1c-0.1,0.3-0.3,0.4-0.5,0.5C227.4,217,227.3,217.1,227.2,217.1z"/>
		</g>
	</g>
	<g>
		<g>
			<path d="M88.6,99.6c0.2-0.1,0.3-0.1,0.5,0.1c0.1,0.1,0.2,1.6,0.4,4.4c0.3,5.9,0.5,9.2,0.5,9.8c0,0.1,0,0.2,0,0.3v0
				c-0.1,0.2-0.2,0.3-0.4,0.1c-0.2-0.1-0.3-0.4-0.4-0.8c0-0.4-0.1-1.3-0.1-2.8c0-1.4-0.1-2.4-0.1-3.1c0-0.5,0-0.8,0-0.8v-0.1h-4.3
				l0,3.5c0,2.3-0.1,3.6-0.1,3.7c-0.2,0.2-0.4,0.2-0.6-0.1V107c0-4.6,0-6.9,0-7c0.1-0.2,0.2-0.3,0.3-0.3c0.1,0,0.2,0.1,0.3,0.2
				c0.1,0.2,0.1,1.2,0.1,3.1v2.9h4.1v-1c0-0.4,0-1.4-0.1-2.9c-0.1-1.1-0.1-1.8-0.1-1.9C88.5,99.8,88.5,99.6,88.6,99.6z"/>
			<path d="M89.7,115c-0.1,0-0.3,0-0.4-0.1c-0.3-0.2-0.5-0.6-0.6-1.1c-0.1-0.4-0.1-1.4-0.1-2.9c0-1.4-0.1-2.4-0.1-3.1
				c0-0.2,0-0.4,0-0.5h-3.3l0,3c-0.1,3.7-0.1,3.7-0.2,3.9c-0.2,0.2-0.4,0.4-0.6,0.4c-0.3,0-0.5-0.1-0.8-0.4l-0.1-0.1v-7
				c0-6.9,0-7,0.1-7.2c0.1-0.4,0.4-0.6,0.8-0.6c0.3,0,0.6,0.2,0.7,0.5c0.1,0.2,0.2,0.3,0.2,3.3v2.4h3.1v-0.5c0-0.4,0-1.4-0.1-2.9
				c-0.1-1.1-0.1-1.8-0.1-1.9c0-0.3,0-0.7,0.4-1l0,0c0.3-0.2,0.7-0.2,1.1,0.2c0.2,0.2,0.3,0.4,0.5,4.7c0.3,6,0.5,9.2,0.5,9.9
				c0,0.1,0,0.3,0,0.4l0,0.1c-0.1,0.3-0.3,0.4-0.5,0.5C89.9,114.9,89.8,115,89.7,115z"/>
		</g>
	</g>
	<path d="M199.9,138.4c1.7-4.7,4-9.4,7.8-12.8c0.8-0.7,0.7-2,0-2.7c-0.7-0.7-1.9-0.7-2.7,0c-4.3,3.9-6.8,9.1-8.8,14.5
		c-0.4,0.9,0.4,2.1,1.3,2.3C198.6,140,199.5,139.3,199.9,138.4L199.9,138.4z"/>
	<path d="M143.8,154.5c4.7,0,9.4-0.1,14.1-0.4c1-0.1,1.9-0.8,1.9-1.9c0-1-0.9-1.9-1.9-1.9c-4.7,0.3-9.4,0.5-14.1,0.4
		C141.4,150.7,141.4,154.5,143.8,154.5L143.8,154.5z"/>
	<path d="M145.8,161.1c0.1,0.8-0.1,1.3-0.7,1.5c0.1,0,0.1,0,0.2,0c-0.3,0-0.2,0,0.1,0c0.1,0,0.3,0,0.4,0c0.5,0,1-0.1,1.6-0.1
		c1.1-0.1,2.2-0.2,3.3-0.3c2.2-0.2,4.4-0.3,6.6-0.5c1-0.1,1.9-0.8,1.9-1.9c0-1-0.9-2-1.9-1.9c-2.8,0.2-5.6,0.4-8.4,0.6
		c-1.4,0.1-2.9,0.1-4.3,0.4c-1.5,0.3-2.6,1.6-2.3,3.2c0.2,1,1.4,1.6,2.3,1.3C145.5,163.1,146,162.1,145.8,161.1L145.8,161.1z"/>
	<path d="M99.4,123.5c0,0,0-0.1,0-0.1c-0.3,0.4-0.6,0.7-0.9,1.1c0,0,0.1,0,0.1-0.1c-0.3,0.1-0.6,0.2-0.9,0.3c0,0,0.1,0,0.1,0
		c-0.3-0.1-0.6-0.2-0.9-0.3c0,0,0.1,0.1,0.1,0.1c-0.2-0.2-0.4-0.4-0.7-0.7c0.3,0.5,0.5,1.1,0.8,1.6c0.2,0.5,0.5,1,0.7,1.5
		c0.6,1.1,1.1,2.2,1.7,3.3c1.2,2.2,2.4,4.3,3.7,6.4c0.5,0.9,1.7,1.2,2.6,0.7c0.9-0.5,1.2-1.7,0.7-2.6c-1.6-2.5-3-5.1-4.4-7.8
		c-0.7-1.3-1.3-2.6-1.9-3.9c-0.4-0.8-0.7-1.6-1.6-2c-1.2-0.5-2.5,0.2-2.8,1.4C95.1,124.8,98.8,125.8,99.4,123.5L99.4,123.5z"/>
	<path d="M98.3,193.7c2.5-4.2,5.3-8,8.5-11.6c0.6-0.7,0.8-1.9,0-2.7c-0.7-0.6-2-0.8-2.7,0c-3.4,3.9-6.4,8-9.1,12.4
		c-0.5,0.8-0.2,2.1,0.7,2.6C96.6,194.8,97.7,194.6,98.3,193.7L98.3,193.7z"/>
	<path d="M200.5,176.5c-0.5-0.2,0.2,0.5,0.3,0.7c0.2,0.3,0.5,0.6,0.7,1c0.5,0.7,1.1,1.4,1.6,2.2c1.1,1.5,2.1,2.9,3.1,4.4
		c2,3,3.9,6,5.7,9.2c1.2,2.1,4.4,0.2,3.2-1.9c-2-3.4-4.1-6.8-6.3-10c-1.1-1.6-2.2-3.1-3.3-4.7c-0.6-0.9-1.3-1.7-1.9-2.5
		c-0.7-0.8-1.2-1.5-2.2-1.9c-0.9-0.4-2.1,0.4-2.3,1.3C198.9,175.2,199.6,176.1,200.5,176.5L200.5,176.5z"/>
	<path d="M327,125.8c-14.5,0-26.3-11.8-26.3-26.3s11.8-26.3,26.3-26.3s26.3,11.8,26.3,26.3S341.5,125.8,327,125.8z M327,76.7
		c-12.6,0-22.8,10.2-22.8,22.8s10.2,22.8,22.8,22.8s22.8-10.2,22.8-22.8S339.6,76.7,327,76.7z"/>
	<path d="M294.4,68.5c-11.1,0-20.1-9-20.1-20.1s9-20.1,20.1-20.1c11.1,0,20.1,9,20.1,20.1S305.5,68.5,294.4,68.5z M294.4,31.7
		c-9.2,0-16.6,7.5-16.6,16.6S285.3,65,294.4,65c9.2,0,16.6-7.5,16.6-16.6S303.6,31.7,294.4,31.7z"/>
	<path d="M410.5,68.3c-11.1,0-20.1-9-20.1-20.1s9-20.1,20.1-20.1c11.1,0,20.1,9,20.1,20.1S421.6,68.3,410.5,68.3z M410.5,31.5
		c-9.2,0-16.6,7.5-16.6,16.6s7.5,16.6,16.6,16.6c9.2,0,16.6-7.5,16.6-16.6S419.7,31.5,410.5,31.5z"/>
	<path d="M431.9,167.6c-11.1,0-20.1-9-20.1-20.1c0-11.1,9-20.1,20.1-20.1c11.1,0,20.1,9,20.1,20.1C452,158.5,443,167.6,431.9,167.6z
		 M431.9,130.8c-9.2,0-16.6,7.5-16.6,16.6c0,9.2,7.5,16.6,16.6,16.6c9.2,0,16.6-7.5,16.6-16.6C448.5,138.3,441.1,130.8,431.9,130.8z
		"/>
	<path d="M294.4,163.8c-11.1,0-20.1-9-20.1-20.1s9-20.1,20.1-20.1c11.1,0,20.1,9,20.1,20.1S305.5,163.8,294.4,163.8z M294.4,127.1
		c-9.2,0-16.6,7.5-16.6,16.6s7.5,16.6,16.6,16.6c9.2,0,16.6-7.5,16.6-16.6S303.6,127.1,294.4,127.1z"/>
	<path d="M390,125.4c-14.5,0-26.3-11.8-26.3-26.3s11.8-26.3,26.3-26.3s26.3,11.8,26.3,26.3S404.5,125.4,390,125.4z M390,76.3
		c-12.6,0-22.8,10.2-22.8,22.8s10.2,22.8,22.8,22.8s22.8-10.2,22.8-22.8S402.6,76.3,390,76.3z"/>
	<g>
		<g>
			<path d="M391.1,87.2c0.1,0,0.3,0,0.5,0c0,0,0.1,0,0.1,0c0.1,0,0.1,0,0.2,0c0.1,0,0.2,0.1,0.4,0.2c0.2,0.1,0.2,0.3,0.2,0.4
				c0,0.3-0.3,0.5-0.9,0.6c-0.6,0.1-1.3,0.6-1.9,1.4c-0.9,1.2-1.5,2.5-1.9,4s-0.5,3.4-0.5,5.9c0,3.9,0.6,6.7,1.9,8.5
				c0.4,0.6,0.9,1.1,1.5,1.3c0.6,0.3,1.3,0.5,2.3,0.6c0.6,0.1,1,0.3,1,0.7c0,0.4-0.3,0.6-0.8,0.6h-0.2c-1.9-0.1-3.4-0.8-4.5-2.1
				c-1.1-1.3-1.8-3.4-2.3-6.3c-0.1-0.5-0.1-1.7-0.1-3.5c0-1.5,0-2.5,0.1-3.2c0.3-2.7,1-4.9,2.1-6.6
				C389.2,88.2,390.2,87.4,391.1,87.2z"/>
			<path d="M393.1,111.9h-0.2c-2.1-0.1-3.7-0.8-4.9-2.3c-1.1-1.4-1.9-3.6-2.4-6.6c-0.1-0.5-0.1-1.7-0.1-3.6c0-1.5,0-2.6,0.1-3.3
				c0.3-2.8,1-5.1,2.2-6.8c1.1-1.6,2.1-2.5,3.2-2.7c0.2,0,0.4,0,0.6,0c0,0,0.1,0,0.2,0c0.3,0,0.6,0.1,0.8,0.3
				c0.1,0.1,0.4,0.4,0.4,0.7c0,0.6-0.4,0.9-1.3,1.1c-0.5,0.1-1.1,0.5-1.6,1.2c-0.9,1.1-1.5,2.4-1.8,3.8c-0.3,1.4-0.5,3.4-0.5,5.8
				c0,3.8,0.6,6.5,1.8,8.2c0.4,0.5,0.8,0.9,1.3,1.2c0.5,0.3,1.2,0.4,2.2,0.5c1.2,0.2,1.4,0.8,1.4,1.2
				C394.5,111.1,394.4,111.9,393.1,111.9z M391.5,87.7c-0.1,0-0.2,0-0.3,0l0,0c-0.8,0.1-1.6,0.9-2.5,2.3c-1.1,1.6-1.8,3.8-2,6.4
				c-0.1,0.7-0.1,1.8-0.1,3.2c0,1.8,0,2.9,0.1,3.4c0.4,2.8,1.2,4.9,2.2,6.1c1,1.2,2.4,1.8,4.2,1.9h0.2c0.3,0,0.3-0.1,0.3-0.1
				c0-0.1-0.1-0.2-0.5-0.2c-1-0.1-1.9-0.3-2.5-0.6c-0.6-0.3-1.2-0.8-1.7-1.5c-1.3-1.9-2-4.8-2-8.8c0-2.5,0.2-4.5,0.5-6
				c0.4-1.5,1-2.9,2-4.2c0.7-0.9,1.5-1.5,2.2-1.6c0.2,0,0.3-0.1,0.4-0.1c-0.1-0.1-0.1-0.1-0.1-0.1c0,0-0.1,0-0.2,0
				C391.6,87.7,391.5,87.7,391.5,87.7z"/>
		</g>
	</g>
	<g>
		<g>
			<path d="M326.7,87.4c0.1,0,0.3,0,0.5,0c0,0,0.1,0,0.1,0c0.1,0,0.1,0,0.2,0c0.1,0,0.2,0.1,0.4,0.2c0.2,0.1,0.2,0.3,0.2,0.4
				c0,0.3-0.3,0.5-0.9,0.6c-0.6,0.1-1.3,0.6-1.9,1.4c-0.9,1.2-1.5,2.5-1.9,4s-0.5,3.4-0.5,5.9c0,3.9,0.6,6.7,1.9,8.5
				c0.4,0.6,0.9,1.1,1.5,1.3c0.6,0.3,1.3,0.5,2.3,0.6c0.6,0.1,1,0.3,1,0.7c0,0.4-0.3,0.6-0.8,0.6h-0.2c-1.9-0.1-3.4-0.8-4.5-2.1
				c-1.1-1.3-1.8-3.4-2.3-6.3c-0.1-0.5-0.1-1.7-0.1-3.5c0-1.5,0-2.5,0.1-3.2c0.3-2.7,1-4.9,2.1-6.6
				C324.8,88.4,325.7,87.6,326.7,87.4z"/>
			<path d="M328.7,112.1h-0.2c-2.1-0.1-3.7-0.8-4.9-2.3c-1.1-1.4-1.9-3.6-2.4-6.6c-0.1-0.5-0.1-1.7-0.1-3.6c0-1.5,0-2.6,0.1-3.3
				c0.3-2.8,1-5.1,2.2-6.8c1.1-1.6,2.1-2.5,3.2-2.7c0.2,0,0.4,0,0.6,0c0,0,0.1,0,0.2,0c0.3,0,0.6,0.1,0.8,0.3
				c0.1,0.1,0.4,0.4,0.4,0.7c0,0.6-0.4,0.9-1.3,1.1c-0.5,0.1-1.1,0.5-1.6,1.2c-0.9,1.1-1.5,2.4-1.8,3.8c-0.3,1.4-0.5,3.4-0.5,5.8
				c0,3.8,0.6,6.5,1.8,8.2c0.4,0.5,0.8,0.9,1.3,1.2c0.5,0.3,1.2,0.4,2.2,0.5c1.2,0.2,1.4,0.8,1.4,1.2
				C330,111.3,329.9,112.1,328.7,112.1z M327.1,87.9c-0.1,0-0.2,0-0.3,0l0,0c-0.8,0.1-1.6,0.9-2.5,2.3c-1.1,1.6-1.8,3.8-2,6.4
				c-0.1,0.7-0.1,1.8-0.1,3.2c0,1.8,0,2.9,0.1,3.4c0.4,2.8,1.2,4.9,2.2,6.1c1,1.2,2.4,1.8,4.2,1.9h0.2c0.3,0,0.3-0.1,0.3-0.1
				c0-0.1-0.1-0.2-0.5-0.2c-1-0.1-1.9-0.3-2.5-0.6c-0.6-0.3-1.2-0.8-1.7-1.5c-1.3-1.9-2-4.8-2-8.8c0-2.5,0.2-4.5,0.5-6
				c0.4-1.5,1-2.9,2-4.2c0.7-0.9,1.5-1.5,2.2-1.6c0.2,0,0.3-0.1,0.4-0.1c-0.1-0.1-0.1-0.1-0.1-0.1c0,0-0.1,0-0.2,0
				C327.2,87.9,327.1,87.9,327.1,87.9z"/>
		</g>
	</g>
	<g>
		<g>
			<path d="M412.2,40.7c0.2-0.1,0.3-0.1,0.5,0.1c0.1,0.1,0.2,1.6,0.4,4.4c0.3,5.9,0.5,9.2,0.5,9.8c0,0.1,0,0.2,0,0.3v0
				c-0.1,0.2-0.2,0.3-0.4,0.1c-0.2-0.1-0.3-0.4-0.4-0.8c0-0.4-0.1-1.3-0.1-2.8c0-1.4-0.1-2.4-0.1-3.1c0-0.5,0-0.8,0-0.8v-0.1h-4.3
				l0,3.5c0,2.3-0.1,3.6-0.1,3.7c-0.2,0.2-0.4,0.2-0.6-0.1v-6.8c0-4.6,0-6.9,0-7c0.1-0.2,0.2-0.3,0.3-0.3c0.1,0,0.2,0.1,0.3,0.2
				c0.1,0.2,0.1,1.2,0.1,3.1V47h4.1v-1c0-0.4,0-1.4-0.1-2.9c-0.1-1.1-0.1-1.8-0.1-1.9C412.1,41,412.1,40.8,412.2,40.7z"/>
			<path d="M413.3,56.1c-0.1,0-0.3,0-0.4-0.1c-0.3-0.2-0.5-0.6-0.6-1.1c-0.1-0.4-0.1-1.4-0.1-2.9c0-1.4-0.1-2.4-0.1-3.1
				c0-0.2,0-0.4,0-0.5h-3.3l0,3c-0.1,3.7-0.1,3.7-0.2,3.9c-0.2,0.2-0.4,0.4-0.6,0.4c-0.3,0-0.5-0.1-0.8-0.4l-0.1-0.1v-7
				c0-6.9,0-7,0.1-7.2c0.1-0.4,0.4-0.6,0.8-0.6c0.3,0,0.6,0.2,0.7,0.5c0.1,0.2,0.2,0.3,0.2,3.3v2.4h3.1v-0.5c0-0.4,0-1.4-0.1-2.9
				c-0.1-1.1-0.1-1.8-0.1-1.9c0-0.3,0-0.7,0.4-1l0,0c0.3-0.2,0.7-0.2,1.1,0.2c0.2,0.2,0.3,0.4,0.5,4.7c0.3,6,0.5,9.2,0.5,9.9
				c0,0.1,0,0.3,0,0.4l0,0.1c-0.1,0.3-0.3,0.4-0.5,0.5C413.5,56.1,413.4,56.1,413.3,56.1z"/>
		</g>
	</g>
	<g>
		<g>
			<path d="M296.1,136.3c0.2-0.1,0.3-0.1,0.5,0.1c0.1,0.1,0.2,1.6,0.4,4.4c0.3,5.9,0.5,9.2,0.5,9.8c0,0.1,0,0.2,0,0.3v0
				c-0.1,0.2-0.2,0.3-0.4,0.1c-0.2-0.1-0.3-0.4-0.4-0.8c0-0.4-0.1-1.3-0.1-2.8c0-1.4-0.1-2.4-0.1-3.1c0-0.5,0-0.8,0-0.8v-0.1h-4.3
				l0,3.5c0,2.3-0.1,3.6-0.1,3.7c-0.2,0.2-0.4,0.2-0.6-0.1v-6.8c0-4.6,0-6.9,0-7c0.1-0.2,0.2-0.3,0.3-0.3c0.1,0,0.2,0.1,0.3,0.2
				c0.1,0.2,0.1,1.2,0.1,3.1v2.9h4.1v-1c0-0.4,0-1.4-0.1-2.9c-0.1-1.1-0.1-1.8-0.1-1.9C296,136.5,296,136.3,296.1,136.3z"/>
			<path d="M297.2,151.6c-0.1,0-0.3,0-0.4-0.1c-0.3-0.2-0.5-0.6-0.6-1.1c-0.1-0.4-0.1-1.4-0.1-2.9c0-1.4-0.1-2.4-0.1-3.1
				c0-0.2,0-0.4,0-0.5h-3.3l0,3c-0.1,3.7-0.1,3.7-0.2,3.9c-0.2,0.2-0.4,0.4-0.6,0.4c-0.3,0-0.5-0.1-0.8-0.4l-0.1-0.1v-7
				c0-6.9,0-7,0.1-7.2c0.1-0.4,0.4-0.6,0.8-0.6c0.3,0,0.6,0.2,0.7,0.5c0.1,0.2,0.2,0.3,0.2,3.3v2.4h3.1v-0.5c0-0.4,0-1.4-0.1-2.9
				c-0.1-1.1-0.1-1.8-0.1-1.9c0-0.3,0-0.7,0.4-1l0,0c0.3-0.2,0.7-0.2,1.1,0.2c0.2,0.2,0.3,0.4,0.5,4.7c0.3,6,0.5,9.2,0.5,9.9
				c0,0.1,0,0.3,0,0.4l0,0.1c-0.1,0.3-0.3,0.4-0.5,0.5C297.4,151.6,297.3,151.6,297.2,151.6z"/>
		</g>
	</g>
	<g>
		<g>
			<path d="M433.6,140c0.2-0.1,0.3-0.1,0.5,0.1c0.1,0.1,0.2,1.6,0.4,4.4c0.3,5.9,0.5,9.2,0.5,9.8c0,0.1,0,0.2,0,0.3v0
				c-0.1,0.2-0.2,0.3-0.4,0.1c-0.2-0.1-0.3-0.4-0.4-0.8c0-0.4-0.1-1.3-0.1-2.8c0-1.4-0.1-2.4-0.1-3.1c0-0.5,0-0.8,0-0.8v-0.1h-4.3
				l0,3.5c0,2.3-0.1,3.6-0.1,3.7c-0.2,0.2-0.4,0.2-0.6-0.1v-6.8c0-4.6,0-6.9,0-7c0.1-0.2,0.2-0.3,0.3-0.3c0.1,0,0.2,0.1,0.3,0.2
				c0.1,0.2,0.1,1.2,0.1,3.1v2.9h4.1v-1c0-0.4,0-1.4-0.1-2.9c-0.1-1.1-0.1-1.8-0.1-1.9C433.5,140.3,433.5,140.1,433.6,140z"/>
			<path d="M434.7,155.4c-0.1,0-0.3,0-0.4-0.1c-0.3-0.2-0.5-0.6-0.6-1.1c-0.1-0.4-0.1-1.4-0.1-2.9c0-1.4-0.1-2.4-0.1-3.1
				c0-0.2,0-0.4,0-0.5h-3.3l0,3c-0.1,3.7-0.1,3.7-0.2,3.9c-0.2,0.2-0.4,0.4-0.6,0.4c-0.3,0-0.5-0.1-0.8-0.4l-0.1-0.1v-7
				c0-6.9,0-7,0.1-7.2c0.1-0.4,0.4-0.6,0.8-0.6c0.3,0,0.6,0.2,0.7,0.5c0.1,0.2,0.2,0.3,0.2,3.3v2.4h3.1v-0.5c0-0.4,0-1.4-0.1-2.9
				c-0.1-1.1-0.1-1.8-0.1-1.9c0-0.3,0-0.7,0.4-1l0,0c0.3-0.2,0.7-0.2,1.1,0.2c0.2,0.2,0.3,0.4,0.5,4.7c0.3,6,0.5,9.2,0.5,9.9
				c0,0.1,0,0.3,0,0.4l0,0.1c-0.1,0.3-0.3,0.4-0.5,0.5C434.9,155.4,434.8,155.4,434.7,155.4z"/>
		</g>
	</g>
	<g>
		<g>
			<path d="M296.1,40.9c0.2-0.1,0.3-0.1,0.5,0.1c0.1,0.1,0.2,1.6,0.4,4.4c0.3,5.9,0.5,9.2,0.5,9.8c0,0.1,0,0.2,0,0.3v0
				c-0.1,0.2-0.2,0.3-0.4,0.1c-0.2-0.1-0.3-0.4-0.4-0.8c0-0.4-0.1-1.3-0.1-2.8c0-1.4-0.1-2.4-0.1-3.1c0-0.5,0-0.8,0-0.8v-0.1h-4.3
				l0,3.5c0,2.3-0.1,3.6-0.1,3.7c-0.2,0.2-0.4,0.2-0.6-0.1v-6.8c0-4.6,0-6.9,0-7c0.1-0.2,0.2-0.3,0.3-0.3c0.1,0,0.2,0.1,0.3,0.2
				c0.1,0.2,0.1,1.2,0.1,3.1v2.9h4.1v-1c0-0.4,0-1.4-0.1-2.9c-0.1-1.1-0.1-1.8-0.1-1.9C296,41.2,296,41,296.1,40.9z"/>
			<path d="M297.2,56.3c-0.1,0-0.3,0-0.4-0.1c-0.3-0.2-0.5-0.6-0.6-1.1c-0.1-0.4-0.1-1.4-0.1-2.9c0-1.4-0.1-2.4-0.1-3.1
				c0-0.2,0-0.4,0-0.5h-3.3l0,3c-0.1,3.7-0.1,3.7-0.2,3.9c-0.2,0.2-0.4,0.4-0.6,0.4c-0.3,0-0.5-0.1-0.8-0.4l-0.1-0.1v-7
				c0-6.9,0-7,0.1-7.2c0.1-0.4,0.4-0.6,0.8-0.6c0.3,0,0.6,0.2,0.7,0.5c0.1,0.2,0.2,0.3,0.2,3.3v2.4h3.1v-0.5c0-0.4,0-1.4-0.1-2.9
				c-0.1-1.1-0.1-1.8-0.1-1.9c0-0.3,0-0.7,0.4-1l0,0c0.3-0.2,0.7-0.2,1.1,0.2c0.2,0.2,0.3,0.4,0.5,4.7c0.3,6,0.5,9.2,0.5,9.9
				c0,0.1,0,0.3,0,0.4l0,0.1c-0.1,0.3-0.3,0.4-0.5,0.5C297.4,56.3,297.3,56.3,297.2,56.3z"/>
		</g>
	</g>
	<path d="M368.6,297.4c-14.5,0-26.3-11.8-26.3-26.3s11.8-26.3,26.3-26.3s26.3,11.8,26.3,26.3S383.1,297.4,368.6,297.4z M368.6,248.3
		c-12.6,0-22.8,10.2-22.8,22.8s10.2,22.8,22.8,22.8s22.8-10.2,22.8-22.8S381.1,248.3,368.6,248.3z"/>
	<path d="M340,240.1c-11.1,0-20.1-9-20.1-20.1s9-20.1,20.1-20.1s20.1,9,20.1,20.1S351.1,240.1,340,240.1z M340,203.4
		c-9.2,0-16.6,7.5-16.6,16.6s7.5,16.6,16.6,16.6s16.6-7.5,16.6-16.6S349.2,203.4,340,203.4z"/>
	<path d="M462.1,242.9c-11.1,0-20.1-9-20.1-20.1s9-20.1,20.1-20.1s20.1,9,20.1,20.1S473.2,242.9,462.1,242.9z M462.1,206.1
		c-9.2,0-16.6,7.5-16.6,16.6s7.5,16.6,16.6,16.6s16.6-7.5,16.6-16.6S471.3,206.1,462.1,206.1z"/>
	<path d="M472.5,338.2c-11.1,0-20.1-9-20.1-20.1s9-20.1,20.1-20.1s20.1,9,20.1,20.1S483.6,338.2,472.5,338.2z M472.5,301.5
		c-9.2,0-16.6,7.5-16.6,16.6s7.5,16.6,16.6,16.6s16.6-7.5,16.6-16.6S481.6,301.5,472.5,301.5z"/>
	<path d="M338,340.4c-11.1,0-20.1-9-20.1-20.1s9-20.1,20.1-20.1s20.1,9,20.1,20.1S349.1,340.4,338,340.4z M338,303.7
		c-9.2,0-16.6,7.5-16.6,16.6s7.5,16.6,16.6,16.6s16.6-7.5,16.6-16.6S347.2,303.7,338,303.7z"/>
	<path d="M431.6,297c-14.5,0-26.3-11.8-26.3-26.3s11.8-26.3,26.3-26.3s26.3,11.8,26.3,26.3S446.1,297,431.6,297z M431.6,247.9
		c-12.6,0-22.8,10.2-22.8,22.8s10.2,22.8,22.8,22.8s22.8-10.2,22.8-22.8S444.1,247.9,431.6,247.9z"/>
	<g>
		<g>
			<path d="M432.7,258.8c0.1,0,0.3,0,0.5,0c0,0,0.1,0,0.1,0c0.1,0,0.1,0,0.2,0c0.1,0,0.2,0.1,0.4,0.2c0.2,0.1,0.2,0.3,0.2,0.4
				c0,0.3-0.3,0.5-0.9,0.6c-0.6,0.1-1.3,0.6-1.9,1.4c-0.9,1.2-1.5,2.5-1.9,4s-0.5,3.4-0.5,5.9c0,3.9,0.6,6.7,1.9,8.5
				c0.4,0.6,0.9,1.1,1.5,1.3c0.6,0.3,1.3,0.5,2.3,0.6c0.6,0.1,1,0.3,1,0.7c0,0.4-0.3,0.6-0.8,0.6h-0.2c-1.9-0.1-3.4-0.8-4.5-2.1
				c-1.1-1.3-1.8-3.4-2.3-6.3c-0.1-0.5-0.1-1.7-0.1-3.5c0-1.5,0-2.5,0.1-3.2c0.3-2.7,1-4.9,2.1-6.6
				C430.8,259.8,431.8,259,432.7,258.8z"/>
			<path d="M434.7,283.5h-0.2c-2.1-0.1-3.7-0.8-4.9-2.3c-1.1-1.4-1.9-3.6-2.4-6.6c-0.1-0.5-0.1-1.7-0.1-3.6c0-1.5,0-2.6,0.1-3.3
				c0.3-2.8,1-5.1,2.2-6.8c1.1-1.6,2.1-2.5,3.2-2.7c0.2,0,0.4,0,0.6,0c0,0,0.1,0,0.2,0c0.3,0,0.6,0.1,0.8,0.3
				c0.1,0.1,0.4,0.4,0.4,0.7c0,0.6-0.4,0.9-1.3,1.1c-0.5,0.1-1.1,0.5-1.6,1.2c-0.9,1.1-1.5,2.4-1.8,3.8c-0.3,1.4-0.5,3.4-0.5,5.8
				c0,3.8,0.6,6.5,1.8,8.2c0.4,0.5,0.8,0.9,1.3,1.2c0.5,0.3,1.2,0.4,2.2,0.5c1.2,0.2,1.4,0.8,1.4,1.2
				C436,282.7,436,283.5,434.7,283.5z M433.1,259.3c-0.1,0-0.2,0-0.3,0l0,0c-0.8,0.1-1.6,0.9-2.5,2.3c-1.1,1.6-1.8,3.8-2,6.4
				c-0.1,0.7-0.1,1.8-0.1,3.2c0,1.8,0,2.9,0.1,3.4c0.4,2.8,1.2,4.9,2.2,6.1c1,1.2,2.4,1.8,4.2,1.9h0.2c0.3,0,0.3-0.1,0.3-0.1
				c0-0.1-0.1-0.2-0.5-0.2c-1-0.1-1.9-0.3-2.5-0.6c-0.6-0.3-1.2-0.8-1.7-1.5c-1.3-1.9-2-4.8-2-8.8c0-2.5,0.2-4.5,0.5-6
				c0.4-1.5,1-2.9,2-4.2c0.7-0.9,1.5-1.5,2.2-1.6c0.2,0,0.3-0.1,0.4-0.1c-0.1-0.1-0.1-0.1-0.1-0.1c0,0-0.1,0-0.2,0
				C433.2,259.3,433.1,259.3,433.1,259.3z"/>
		</g>
	</g>
	<g>
		<g>
			<path d="M368.2,259.1c0.1,0,0.3,0,0.5,0c0,0,0.1,0,0.1,0c0.1,0,0.1,0,0.2,0c0.1,0,0.2,0.1,0.4,0.2c0.2,0.1,0.2,0.3,0.2,0.4
				c0,0.3-0.3,0.5-0.9,0.6c-0.6,0.1-1.3,0.6-1.9,1.4c-0.9,1.2-1.5,2.5-1.9,4s-0.5,3.4-0.5,5.9c0,3.9,0.6,6.7,1.9,8.5
				c0.4,0.6,0.9,1.1,1.5,1.3c0.6,0.3,1.3,0.5,2.3,0.6c0.6,0.1,1,0.3,1,0.7c0,0.4-0.3,0.6-0.8,0.6h-0.2c-1.9-0.1-3.4-0.8-4.5-2.1
				c-1.1-1.3-1.8-3.4-2.3-6.3c-0.1-0.5-0.1-1.7-0.1-3.5c0-1.5,0-2.5,0.1-3.2c0.3-2.7,1-4.9,2.1-6.6
				C366.4,260,367.3,259.2,368.2,259.1z"/>
			<path d="M370.3,283.8h-0.2c-2.1-0.1-3.7-0.8-4.9-2.3c-1.1-1.4-1.9-3.6-2.4-6.6c-0.1-0.5-0.1-1.7-0.1-3.6c0-1.5,0-2.6,0.1-3.3
				c0.3-2.8,1-5.1,2.2-6.8c1.1-1.6,2.1-2.5,3.2-2.7c0.2,0,0.4,0,0.6,0c0,0,0.1,0,0.2,0c0.3,0,0.6,0.1,0.8,0.3
				c0.1,0.1,0.4,0.4,0.4,0.7c0,0.6-0.4,0.9-1.3,1.1c-0.5,0.1-1.1,0.5-1.6,1.2c-0.9,1.1-1.5,2.4-1.8,3.8c-0.3,1.4-0.5,3.4-0.5,5.8
				c0,3.8,0.6,6.5,1.8,8.2c0.4,0.5,0.8,0.9,1.3,1.2c0.5,0.3,1.2,0.4,2.2,0.5c1.2,0.2,1.4,0.8,1.4,1.2
				C371.6,282.9,371.5,283.8,370.3,283.8z M368.6,259.5c-0.1,0-0.2,0-0.3,0l0,0c-0.8,0.1-1.6,0.9-2.5,2.3c-1.1,1.6-1.8,3.8-2,6.4
				c-0.1,0.7-0.1,1.8-0.1,3.2c0,1.8,0,2.9,0.1,3.4c0.4,2.8,1.2,4.9,2.2,6.1c1,1.2,2.4,1.8,4.2,1.9h0.2c0.3,0,0.3-0.1,0.3-0.1
				c0-0.1-0.1-0.2-0.5-0.2c-1-0.1-1.9-0.3-2.5-0.6c-0.6-0.3-1.2-0.8-1.7-1.5c-1.3-1.9-2-4.8-2-8.8c0-2.5,0.2-4.5,0.5-6
				c0.4-1.5,1-2.9,2-4.2c0.7-0.9,1.5-1.5,2.2-1.6c0.2,0,0.3-0.1,0.4-0.1c-0.1-0.1-0.1-0.1-0.1-0.1c0,0-0.1,0-0.2,0
				C368.7,259.5,368.7,259.5,368.6,259.5z"/>
		</g>
	</g>
	<g>
		<g>
			<path d="M463.8,215.3c0.2-0.1,0.3-0.1,0.5,0.1c0.1,0.1,0.2,1.6,0.4,4.4c0.3,5.9,0.5,9.2,0.5,9.8c0,0.1,0,0.2,0,0.3v0
				c-0.1,0.2-0.2,0.3-0.4,0.1c-0.2-0.1-0.3-0.4-0.4-0.8c0-0.4-0.1-1.3-0.1-2.8c0-1.4-0.1-2.4-0.1-3.1c0-0.5,0-0.8,0-0.8v-0.1h-4.3
				l0,3.5c0,2.3-0.1,3.6-0.1,3.7c-0.2,0.2-0.4,0.2-0.6-0.1v-6.8c0-4.6,0-6.9,0-7c0.1-0.2,0.2-0.3,0.3-0.3c0.1,0,0.2,0.1,0.3,0.2
				c0.1,0.2,0.1,1.2,0.1,3.1v2.9h4.1v-1c0-0.4,0-1.4-0.1-2.9c-0.1-1.1-0.1-1.8-0.1-1.9C463.7,215.6,463.7,215.4,463.8,215.3z"/>
			<path d="M464.9,230.7c-0.1,0-0.3,0-0.4-0.1c-0.3-0.2-0.5-0.6-0.6-1.1c-0.1-0.4-0.1-1.4-0.1-2.9c0-1.4-0.1-2.4-0.1-3.1
				c0-0.2,0-0.4,0-0.5h-3.3l0,3c-0.1,3.7-0.1,3.7-0.2,3.9c-0.2,0.2-0.4,0.4-0.6,0.4c-0.3,0-0.5-0.1-0.8-0.4l-0.1-0.1v-7
				c0-6.9,0-7,0.1-7.2c0.1-0.4,0.4-0.6,0.8-0.6c0.3,0,0.6,0.2,0.7,0.5c0.1,0.2,0.2,0.3,0.2,3.3v2.4h3.1v-0.5c0-0.4,0-1.4-0.1-2.9
				c-0.1-1.1-0.1-1.8-0.1-1.9c0-0.3,0-0.7,0.4-1l0,0c0.3-0.2,0.7-0.2,1.1,0.2c0.2,0.2,0.3,0.4,0.5,4.7c0.3,6,0.5,9.2,0.5,9.9
				c0,0.1,0,0.3,0,0.4l0,0.1c-0.1,0.3-0.3,0.4-0.5,0.5C465.1,230.7,465,230.7,464.9,230.7z"/>
		</g>
	</g>
	<g>
		<g>
			<path d="M339.7,312.9c0.2-0.1,0.3-0.1,0.5,0.1c0.1,0.1,0.2,1.6,0.4,4.4c0.3,5.9,0.5,9.2,0.5,9.8c0,0.1,0,0.2,0,0.3v0
				c-0.1,0.2-0.2,0.3-0.4,0.1c-0.2-0.1-0.3-0.4-0.4-0.8c0-0.4-0.1-1.3-0.1-2.8c0-1.4-0.1-2.4-0.1-3.1c0-0.5,0-0.8,0-0.8V320h-4.3
				l0,3.5c0,2.3-0.1,3.6-0.1,3.7c-0.2,0.2-0.4,0.2-0.6-0.1v-6.8c0-4.6,0-6.9,0-7c0.1-0.2,0.2-0.3,0.3-0.3c0.1,0,0.2,0.1,0.3,0.2
				c0.1,0.2,0.1,1.2,0.1,3.1v2.9h4.1v-1c0-0.4,0-1.4-0.1-2.9c-0.1-1.1-0.1-1.8-0.1-1.9C339.6,313.1,339.6,312.9,339.7,312.9z"/>
			<path d="M340.8,328.3c-0.1,0-0.3,0-0.4-0.1c-0.3-0.2-0.5-0.6-0.6-1.1c-0.1-0.4-0.1-1.4-0.1-2.9c0-1.4-0.1-2.4-0.1-3.1
				c0-0.2,0-0.4,0-0.5h-3.3l0,3c-0.1,3.7-0.1,3.7-0.2,3.9c-0.2,0.2-0.4,0.4-0.6,0.4c-0.3,0-0.5-0.1-0.8-0.4l-0.1-0.1v-7
				c0-6.9,0-7,0.1-7.2c0.1-0.4,0.4-0.6,0.8-0.6c0.3,0,0.6,0.2,0.7,0.5c0.1,0.2,0.2,0.3,0.2,3.3v2.4h3.1v-0.5c0-0.4,0-1.4-0.1-2.9
				c-0.1-1.1-0.1-1.8-0.1-1.9c0-0.3,0-0.7,0.4-1l0,0c0.3-0.2,0.7-0.2,1.1,0.2c0.2,0.2,0.3,0.4,0.5,4.7c0.3,6,0.5,9.2,0.5,9.9
				c0,0.1,0,0.3,0,0.4l0,0.1c-0.1,0.3-0.3,0.4-0.5,0.5C341,328.2,340.9,328.3,340.8,328.3z"/>
		</g>
	</g>
	<g>
		<g>
			<path d="M474.2,310.7c0.2-0.1,0.3-0.1,0.5,0.1c0.1,0.1,0.2,1.6,0.4,4.4c0.3,5.9,0.5,9.2,0.5,9.8c0,0.1,0,0.2,0,0.3v0
				c-0.1,0.2-0.2,0.3-0.4,0.1c-0.2-0.1-0.3-0.4-0.4-0.8c0-0.4-0.1-1.3-0.1-2.8c0-1.4-0.1-2.4-0.1-3.1c0-0.5,0-0.8,0-0.8v-0.1h-4.3
				l0,3.5c0,2.3-0.1,3.6-0.1,3.7c-0.2,0.2-0.4,0.2-0.6-0.1v-6.8c0-4.6,0-6.9,0-7c0.1-0.2,0.2-0.3,0.3-0.3c0.1,0,0.2,0.1,0.3,0.2
				c0.1,0.2,0.1,1.2,0.1,3.1v2.9h4.1v-1c0-0.4,0-1.4-0.1-2.9c-0.1-1.1-0.1-1.8-0.1-1.9C474,310.9,474.1,310.7,474.2,310.7z"/>
			<path d="M475.3,326c-0.1,0-0.3,0-0.4-0.1c-0.3-0.2-0.5-0.6-0.6-1.1c-0.1-0.4-0.1-1.4-0.1-2.9c0-1.4-0.1-2.4-0.1-3.1
				c0-0.2,0-0.4,0-0.5h-3.3l0,3c-0.1,3.7-0.1,3.7-0.2,3.9c-0.2,0.2-0.4,0.4-0.6,0.4c-0.3,0-0.5-0.1-0.8-0.4l-0.1-0.1v-7
				c0-6.9,0-7,0.1-7.2c0.1-0.4,0.4-0.6,0.8-0.6c0.3,0,0.6,0.2,0.7,0.5c0.1,0.2,0.2,0.3,0.2,3.3v2.4h3.1V316c0-0.4,0-1.4-0.1-2.9
				c-0.1-1.1-0.1-1.8-0.1-1.9c0-0.3,0-0.7,0.4-1l0,0c0.3-0.2,0.7-0.2,1.1,0.2c0.2,0.2,0.3,0.4,0.5,4.7c0.3,6,0.5,9.2,0.5,9.9
				c0,0.1,0,0.3,0,0.4l0,0.1c-0.1,0.3-0.3,0.4-0.5,0.5C475.4,326,475.4,326,475.3,326z"/>
		</g>
	</g>
	<g>
		<g>
			<path d="M341.7,212.6c0.2-0.1,0.3-0.1,0.5,0.1c0.1,0.1,0.2,1.6,0.4,4.4c0.3,5.9,0.5,9.2,0.5,9.8c0,0.1,0,0.2,0,0.3v0
				c-0.1,0.2-0.2,0.3-0.4,0.1c-0.2-0.1-0.3-0.4-0.4-0.8c0-0.4-0.1-1.3-0.1-2.8c0-1.4-0.1-2.4-0.1-3.1c0-0.5,0-0.8,0-0.8v-0.1h-4.3
				l0,3.5c0,2.3-0.1,3.6-0.1,3.7c-0.2,0.2-0.4,0.2-0.6-0.1V220c0-4.6,0-6.9,0-7c0.1-0.2,0.2-0.3,0.3-0.3c0.1,0,0.2,0.1,0.3,0.2
				c0.1,0.2,0.1,1.2,0.1,3.1v2.9h4.1v-1c0-0.4,0-1.4-0.1-2.9c-0.1-1.1-0.1-1.8-0.1-1.9C341.6,212.8,341.6,212.6,341.7,212.6z"/>
			<path d="M342.8,227.9c-0.1,0-0.3,0-0.4-0.1c-0.3-0.2-0.5-0.6-0.6-1.1c-0.1-0.4-0.1-1.4-0.1-2.9c0-1.4-0.1-2.4-0.1-3.1
				c0-0.2,0-0.4,0-0.5h-3.3l0,3c-0.1,3.7-0.1,3.7-0.2,3.9c-0.2,0.2-0.4,0.4-0.6,0.4c-0.3,0-0.5-0.1-0.8-0.4l-0.1-0.1v-7
				c0-6.9,0-7,0.1-7.2c0.1-0.4,0.4-0.6,0.8-0.6c0.3,0,0.6,0.2,0.7,0.5c0.1,0.2,0.2,0.3,0.2,3.3v2.4h3.1v-0.5c0-0.4,0-1.4-0.1-2.9
				c-0.1-1.1-0.1-1.8-0.1-1.9c0-0.3,0-0.7,0.4-1l0,0c0.3-0.2,0.7-0.2,1.1,0.2c0.2,0.2,0.3,0.4,0.5,4.7c0.3,6,0.5,9.2,0.5,9.9
				c0,0.1,0,0.3,0,0.4l0,0.1c-0.1,0.3-0.3,0.4-0.5,0.5C343,227.9,342.9,227.9,342.8,227.9z"/>
		</g>
	</g>
	<path d="M306,65.6c0.1,0,0.1,0,0.2-0.1c-0.3,0.1-0.6,0.2-0.9,0.3c-0.2,0-0.4-0.2-0.6-0.2c-0.1,0-0.1-0.1,0.1,0.1
		c0.2,0.3,0.3,0.6,0.5,0.9c0.3,0.6,0.7,1.2,1,1.7c0.7,1.2,1.4,2.4,2.1,3.6c1.3,2.2,2.5,4.5,4.4,6.3c0.7,0.7,1.9,0.7,2.7,0
		c0.7-0.7,0.7-1.9,0-2.7c-1-0.9-1.6-1.9-2.3-3.1c-0.8-1.3-1.5-2.6-2.3-3.9c-0.8-1.3-1.5-2.6-2.3-3.9c-0.4-0.7-0.8-1.5-1.5-2
		c-0.9-0.7-1.8-0.7-2.9-0.3c-0.9,0.4-1.1,1.8-0.7,2.6C304,65.9,305.1,66,306,65.6L306,65.6z"/>
	<path d="M309,128.8c0.2,0.4,0.5,0.9,0.7,1.3c0,0.1,0,0.2,0,0.3c0-0.1,0-0.1,0,0c-0.1,0.1-0.1,0.2,0,0.1c0.1-0.1,0.2-0.3,0.3-0.5
		c0.2-0.3,0.5-0.7,0.7-1c0.1-0.2,0.2-0.3,0.4-0.5c0.1-0.1,0.1-0.1,0.2-0.2c0.1-0.2,0-0.1,0,0c0.1-0.2,0.3-0.4,0.4-0.5
		c0.1-0.2,0.3-0.3,0.4-0.5c1.1-1.3,2.2-2.4,3.4-3.5c0.7-0.7,0.7-2,0-2.7c-0.8-0.7-1.9-0.7-2.7,0c-1.5,1.3-2.8,2.8-4,4.3
		c-0.7,0.8-1.3,1.7-1.9,2.6c-0.3,0.4-0.6,0.9-0.7,1.4c-0.2,1,0.1,2.1,1.1,2.5c0.9,0.4,2.1,0.3,2.6-0.7
		C310.2,130.5,310,129.3,309,128.8L309,128.8z"/>
	<path d="M352.2,93.4C352.3,93.3,352.6,93.3,352.2,93.4c0.1,1.2,0.1,2.4,0.1,3.7c4.1-0.3,8.1-0.5,12.2-0.8c1-0.1,1.9-0.8,1.9-1.9
		c0-1-0.8-1.9-1.9-1.9C360.4,92.8,356.3,93.1,352.2,93.4c-0.9,0-1.8,0.8-1.8,1.8c0,1,0.8,1.9,1.9,1.9c0.7,0,1.2-0.2,1.8-0.5
		c0.9-0.4,1.2-1.7,0.7-2.6C354.2,93.1,353.1,93,352.2,93.4L352.2,93.4z"/>
	<path d="M352.6,105.6c4.4-0.2,8.8-0.9,13.1-2.1c1-0.3,1.6-1.3,1.3-2.3c-0.3-1-1.3-1.6-2.3-1.3c-4,1.1-8,1.8-12.1,2
		c-1,0-1.9,0.8-1.9,1.9C350.7,104.7,351.6,105.7,352.6,105.6L352.6,105.6z"/>
	<path d="M404.8,64.6c-1.8,1-1.9,3.3-2.3,5.1c-0.4,1.9-0.8,3.8-1.3,5.8c-0.2,1,0.3,2.1,1.3,2.3c0.9,0.2,2.1-0.3,2.3-1.3
		c0.4-1.7,0.8-3.5,1.1-5.2c0.2-0.9,0.4-1.7,0.6-2.6c0-0.2,0.1-0.9,0.3-1c-0.1,0.2-0.1,0.3-0.1,0.1c0-0.1,0.1-0.1,0.1-0.2
		c-0.2,0.2-0.2,0.2-0.1,0.1c-0.2,0.2-0.2,0.2-0.1,0.1c0.8-0.5,1.2-1.7,0.7-2.6C406.8,64.4,405.7,64.1,404.8,64.6L404.8,64.6z"/>
	<path d="M405.6,118.8c1.9,2.6,3.9,5.1,6.1,7.4c1,1.1,2.1,2.3,3.2,3.3c0.5,0.5,1.1,1,1.6,1.6c0.5,0.5,1.1,1,1.5,1.5
		c0.6,0.8,1.6,1.2,2.6,0.7c0.8-0.5,1.3-1.7,0.7-2.6c-0.9-1.3-2.1-2.3-3.3-3.4c-1.1-1.1-2.2-2.2-3.3-3.4c-2.1-2.2-4-4.6-5.8-7
		c-0.6-0.8-1.6-1.2-2.6-0.7C405.5,116.7,405,117.9,405.6,118.8L405.6,118.8z"/>
	<path d="M394.3,267.4c1.6-0.4,3.6-0.1,5.4,0.1c2,0.2,4,0.4,6,0.7c1,0.1,1.9-0.9,1.9-1.9c0-1.1-0.8-1.8-1.9-1.9
		c-2.1-0.2-4.2-0.5-6.3-0.7c-2.1-0.2-4.1-0.5-6.2,0c-1,0.2-1.6,1.4-1.3,2.3C392.3,267.1,393.3,267.7,394.3,267.4L394.3,267.4z"/>
	<path d="M393.2,275.8c4.7,0.6,9.4,0.5,14-0.4c1-0.2,1.6-1.4,1.3-2.3c-0.3-1-1.3-1.5-2.3-1.3c-3.9,0.8-8.1,0.9-12,0.4
		c-1-0.1-2,0.2-2.3,1.3C391.6,274.4,392.2,275.6,393.2,275.8L393.2,275.8z"/>
	<path d="M352.6,307.8c0.8-1,1.3-2.2,2-3.3c0.6-1,1.4-2.2,2-3c1.4-1.8,3.3-3.7,5.2-5.2c0.8-0.6,0.7-2,0-2.7c-0.8-0.8-1.8-0.7-2.7,0
		c-2.1,1.6-3.9,3.5-5.5,5.6c-0.8,1-1.6,2.1-2.2,3.3c-0.7,1.1-1.2,2.4-2.1,3.4c-0.6,0.8-0.1,2.1,0.7,2.6
		C351,309,351.9,308.7,352.6,307.8L352.6,307.8z"/>
	<path d="M347.6,237.1c1.5,4.5,3.4,8.8,5.6,13c0.5,0.9,1.7,1.2,2.6,0.7c0.9-0.5,1.1-1.7,0.7-2.6c-2.1-3.9-3.8-7.9-5.3-12.1
		c-0.3-1-1.3-1.6-2.3-1.3C347.9,235.1,347.2,236.2,347.6,237.1L347.6,237.1z"/>
	<path d="M449.1,252.3c0.3-0.5,0.7-0.9,1.1-1.4c0.4-0.5,0.5-0.7,0.8-1.1c0.7-0.9,1.4-1.8,2.2-2.7c0.7-0.9,1.4-1.7,2.2-2.6
		c0.4-0.4,0.7-0.8,1.1-1.2c0.2-0.2,0.4-0.5,0.6-0.7c0.1-0.1,0.2-0.2,0.2-0.2c0.1-0.1,0.1-0.1,0,0c-0.1,0.1-0.1,0.1-0.2,0.1
		c-0.8-0.6-1.6-1.2-2.4-1.8c0-0.2,0.1-0.3,0.1-0.5c-0.6,0.8-0.1,2.1,0.7,2.6c1,0.5,1.9,0.2,2.6-0.7c0.3-0.4,0.4-0.9,0.4-1.4
		c-0.1-1.1-1.2-2.3-2.4-1.8c-1.3,0.5-2,1.6-2.9,2.6c-0.8,1-1.6,1.9-2.4,2.9c-1.6,2-3.2,4-4.8,6.1c-0.6,0.8-0.2,2.1,0.7,2.6
		C447.6,253.5,448.5,253.1,449.1,252.3L449.1,252.3z"/>
	<path d="M447.6,289.4c3.8,4.8,7.6,9.5,11.4,14.2c0.6,0.8,2,0.7,2.7,0c0.8-0.8,0.6-1.9,0-2.7c-3.8-4.7-7.6-9.5-11.4-14.2
		c-0.6-0.8-2-0.7-2.7,0C446.9,287.5,447,288.6,447.6,289.4L447.6,289.4z"/>
	<path d="M526.8,183.3c2.1-0.9,4.7-1,6.9-1.3c2.4-0.3,4.7-0.5,7.1-0.7c4.8-0.4,9.6-0.6,14.4-0.7c9.6-0.2,19.2,0.1,28.7,0.6
		c5.5,0.3,11,0.6,16.4,1c1.6,0.1,1.6-2.4,0-2.5c-19.7-1.2-39.6-2.5-59.3-0.9c-2.7,0.2-5.4,0.5-8,0.8c-2.5,0.3-5.1,0.5-7.5,1.6
		C524.1,181.8,525.4,183.9,526.8,183.3L526.8,183.3z"/>
	<path d="M600.1,174.3c-0.9,1.8-1.5,3.8-1.7,5.8c-0.2,1.6-0.6,4,0.8,5.2c0.9,0.7,1.9,0.5,2.9,0.2c1-0.3,2-0.6,3-0.8
		c1-0.3,2-0.6,3-0.8c0.9-0.3,1.9-0.6,2.6-1.3c0.7-0.6,1.2-1.6,1.1-2.6c-0.1-1-0.6-1.8-1.1-2.6c-1-1.3-2.4-2.2-3.8-2.8
		c-0.8-0.4-1.6-0.7-2.4-1c-0.9-0.3-1.8-0.6-2.7-0.3c-1,0.3-1.5,1.2-1.9,2.1c-0.4,0.9-0.7,1.9-0.9,2.8c-0.2,1-0.5,2.2-0.4,3.2
		c0.1,1.3,1.5,2.2,2.7,1.5c1-0.6,1.4-1.9,1.7-2.9c0.4-1.1,0.6-2.2,0.7-3.3c0.1-0.6-0.5-1.2-1.1-1.2c-0.6-0.1-1.2,0.3-1.4,0.9
		c-0.3,1-0.5,2-0.6,3.1c-0.1,1-0.1,2.3,0.9,2.8c1.1,0.6,2.3-0.2,2.9-1.1c0.6-0.8,0.7-1.8,0.5-2.7c-0.1-0.5-0.7-0.9-1.2-0.9
		c-1.5,0.1-2.5,1.2-3.2,2.4c-0.4,0.7-0.6,1.6-0.1,2.3c0.5,0.8,1.5,1.1,2.3,0.6c0.8-0.5,0.8-2.1-0.3-2.3c-1-0.1-1.8,0.1-2.5,0.7
		c-1,0.9,0.1,2.3,1.2,2.1c1.8-0.3,3.6-0.9,5.3-1.6c1.2-0.5,0.5-2.4-0.6-2.3c-0.8,0-1.6,0.3-2.3,0.7c-1.2,0.8-0.4,2.5,1,2.3
		c1.3-0.2,2.9-0.2,3.8-1.3c1-1.1,0.6-2.9-0.9-3.2c-1.5-0.3-2.7,1.1-2.2,2.5c0.5,1.4,2.3,1.8,3.4,0.7c1.1-1,0.7-2.8-0.6-3.5
		c-1.4-0.8-3.3,0.3-2.9,2c0.3,1.3,1.9,2.1,3.1,1.5c1.1-0.6,1.5-2.1,0.8-3.2c-0.7-1.1-2.2-1.4-3.3-0.7c-1.4,0.9-1.4,3.1,0.4,3.5
		c1.6,0.4,2.3-1.4,1.9-2.6c-0.4-1.2-1.5-2.3-2.8-2.3c-1.4,0-2.5,1.5-1.8,2.8c0.8,1.4,2.8,1.2,3.2-0.4c0.9-3.3-5.5-4-5.1-0.6
		c0.2,1.7,2.3,2.4,3.3,0.9c0.9-1.3,0.3-3.4-1.4-3.4c-1.9,0-2.6,2.5-1,3.5c0.7,0.4,1.7,0.3,2.3-0.3c0.6-0.6,0.6-1.5,0.3-2.3
		c-0.3-0.6-1.2-0.8-1.7-0.4c-0.9,0.5-1.7,1.2-2.4,1.9c-0.6,0.7-0.4,1.9,0.6,2.1c0.9,0.2,1.8,0.4,2.7,0.6c0.4,0.1,0.8,0.2,1.3,0.3
		c0.2,0,0.4,0.1,0.6,0.1c0.1,0,0.2,0.1,0.4,0.1c0,0,0,0-0.1,0c-0.1-0.2-0.2-0.4-0.3-0.6c0.1,0.4,0.2,0.7,0.5,1
		c0.3,0.3,0.7,0.5,1.1,0.5c0.4,0,0.8-0.2,1.1-0.5c0.1-0.1,0.1-0.1,0.2-0.2c0.2-0.2,0,0-0.1,0.1c-0.2,0-0.4,0-0.7,0
		c-0.1,0-0.1,0-0.2-0.1c-0.1-0.1-0.3-0.3-0.4-0.4c-0.1-0.1,0.1,0.3,0.2,0.4c0.1,0.2,0.3,0.4,0.5,0.5c0.4,0.2,1,0.2,1.4-0.1
		c0.5-0.4,0.7-0.8,0.6-1.4c0,0,0,0,0-0.1c-0.1-0.7-0.9-1-1.5-0.9c-0.7,0.2-1,0.9-0.9,1.5c0,0,0,0,0,0.1c0.2-0.5,0.4-0.9,0.6-1.4
		c0,0,0,0-0.1,0c0.2-0.1,0.4-0.1,0.6-0.2c0,0-0.1,0-0.1,0c0.2,0.1,0.4,0.1,0.6,0.2c0,0-0.1,0-0.1,0c0.1,0.1,0.3,0.3,0.4,0.4
		c0.1,0.1-0.1-0.3-0.2-0.4c-0.1-0.2-0.3-0.3-0.4-0.4c-0.3-0.2-0.7-0.3-1.1-0.2c-0.3,0.1-0.5,0.2-0.8,0.4c-0.1,0.1-0.1,0.1-0.2,0.2
		c0,0-0.1,0-0.1,0.1c0.2-0.2,0.4-0.2,0.7-0.2c0.2,0.1,0.4,0.2,0.6,0.3c0.1,0.1,0.2,0.4,0.1,0.1c-0.1-0.2-0.2-0.4-0.3-0.5
		c-0.2-0.2-0.4-0.4-0.6-0.5c-0.5-0.3-1.2-0.4-1.8-0.5c-1.2-0.3-2.4-0.5-3.7-0.8c0.2,0.7,0.4,1.4,0.6,2.1c0.5-0.6,1.1-1.1,1.8-1.5
		c-0.6-0.1-1.1-0.3-1.7-0.4c-0.2-0.4-0.1-0.6,0.4-0.6c0.6-0.4,0.8-0.2,0.6,0.8c-0.1,0.1-0.3,0.1-0.4,0.2c-0.4-0.1-0.6-0.2-0.6-0.5
		c0,0,0-0.1,0-0.1c0,0,0,0.1,0,0.1c0.3,0,1-0.4,1.2,0c0.1,0.2,0,0.4-0.1,0.6c-0.1,0.2-0.3,0,0,0.1c0,0,0.5,0.1,0.5,0.2c0,0,0,0,0,0
		c-0.3-0.4-0.1-0.6,0.5-0.6c0.3-0.4,0.6-0.4,0.8-0.1c0,0.3-0.1,0.6-0.1,0.9c0.2-0.3-0.4,0.3-0.4,0.1c0-0.1,0.2,0.1,0.1,0
		c0.2,0.2,0.3,0.3,0.4,0.5c0,0,0.1,0.2,0.1,0.2c-0.2,0,1-0.9,0.3-0.6c0.2-0.1,0.4-0.1,0.6-0.2c1.4-0.2,0.7,0.7,0.5,1
		c-0.1,0.1-0.1,0-0.2,0c0.1-0.1,0.1,0.1,0.1,0c-0.1,0-0.1-0.1-0.1-0.2c0,0.1,0,0.2,0,0.1c0-0.2,0.1-0.4,0.4-0.3
		c0.3,0,0.4,0.5,0.2,0.7c-0.2,0.1-0.4,0.2-0.6,0.3c0.3-0.1-0.1,0-0.2-0.1c-0.2-0.2-0.1-0.4,0.1-0.5c0.3-0.2,0.7,0.1,0.7,0.4
		c0,0.6-0.9,0.8-1.1,0.1c0-0.1,0-0.4,0-0.4c-0.1,0-0.6,0.1-0.7,0.2c-0.6,0.1-1.3,0.2-1.9,0.3c0.3,0.8,0.6,1.5,1,2.3
		c0.3-0.2,0.6-0.4,1-0.4c-0.2-0.8-0.4-1.6-0.6-2.3c-1.5,0.6-3.1,1.1-4.7,1.4c0.4,0.7,0.8,1.4,1.2,2.1c0,0,0.2-0.1,0.1-0.1
		c-0.1-0.8-0.2-1.5-0.3-2.3c0,0,0.1,0,0.1,0c0.2,0,0.4,0,0.7,0c-0.5-0.1,0.7,0.4,0.4,0.7c0,0,0.1-0.2,0.1-0.2
		c0.1-0.2,0.2-0.4,0.4-0.6c0.1-0.2,0.3-0.3,0.4-0.4c0,0,0.2-0.1,0.2-0.1c-0.4-0.3-0.8-0.6-1.2-0.9c0,0.1,0,0.4-0.1,0.5
		c0,0-0.1,0.1-0.1,0.2c-0.1,0.1-0.3,0.1,0,0.1c0.2,0.1,0.4,0.1,0.6,0.2c0.3,0.1,0.3,0.7,0.3,0.3c0-0.1,0-0.3,0-0.4
		c0-0.4,0-0.7,0.1-1.1c0.1-0.7,0.2-1.3,0.5-1.9c-0.8-0.1-1.6-0.2-2.5-0.3c-0.1,0.8-0.3,1.6-0.5,2.4c-0.1,0.3-0.2,0.7-0.4,1
		c-0.1,0.2-0.2,0.4-0.2,0.5c-0.1,0-0.1,0.1-0.1,0.2c0.1,0.1,0.2,0.1,0.4-0.1c0.2,0.1,0.4,0.2,0.6,0.3c0,0,0,0,0,0.1
		c0.1,0.3,0.1,0.3,0.1,0.2c0,0,0-0.4,0-0.4c0-0.3,0.1-0.5,0.1-0.8c0.1-0.6,0.2-1.3,0.4-1.9c0.2-0.6,0.4-1.3,0.6-1.9
		c0.1-0.3,0.2-0.6,0.5-0.6c0.4,0,0.9,0.2,1.3,0.4c0.5,0.2,0.9,0.3,1.4,0.6c0.9,0.4,1.8,0.8,2.5,1.5c0.5,0.5,1.5,1.4,1.4,2.1
		c-0.1,0.9-1.6,1.1-2.3,1.3c-1.3,0.4-2.6,0.7-4,1.1c-0.6,0.2-1.2,0.3-1.9,0.5c-0.1,0-0.3,0.1-0.4,0.1c-0.1,0-0.1,0-0.2,0
		c-0.2,0-0.2,0-0.1,0c0,0,0.3,0.2,0.3,0.2c-0.1,0-0.1-0.2-0.1-0.2c-0.1-0.4-0.1-1.2,0-1.7c0-0.7,0.1-1.3,0.2-2
		c0.3-1.4,0.7-2.8,1.3-4.1c0.3-0.6,0.2-1.4-0.4-1.7C601.3,173.6,600.4,173.7,600.1,174.3L600.1,174.3z"/>
	<path d="M713.8,241c-14.5,0-26.3-11.8-26.3-26.3s11.8-26.3,26.3-26.3s26.3,11.8,26.3,26.3S728.3,241,713.8,241z M713.8,192
		c-12.6,0-22.8,10.2-22.8,22.8s10.2,22.8,22.8,22.8s22.8-10.2,22.8-22.8S726.4,192,713.8,192z"/>
	<g>
		<g>
			<path d="M713.5,202.7c0.1,0,0.3,0,0.5,0c0,0,0.1,0,0.1,0c0.1,0,0.1,0,0.2,0c0.1,0,0.2,0.1,0.4,0.2c0.2,0.1,0.2,0.3,0.2,0.4
				c0,0.3-0.3,0.5-0.9,0.6c-0.6,0.1-1.3,0.6-1.9,1.4c-0.9,1.2-1.5,2.5-1.9,4s-0.5,3.4-0.5,5.9c0,3.9,0.6,6.7,1.9,8.5
				c0.4,0.6,0.9,1.1,1.5,1.3c0.6,0.3,1.3,0.5,2.3,0.6c0.6,0.1,1,0.3,1,0.7c0,0.4-0.3,0.6-0.8,0.6h-0.2c-1.9-0.1-3.4-0.8-4.5-2.1
				c-1.1-1.3-1.8-3.4-2.3-6.3c-0.1-0.5-0.1-1.7-0.1-3.5c0-1.5,0-2.5,0.1-3.2c0.3-2.7,1-4.9,2.1-6.6
				C711.6,203.7,712.5,202.8,713.5,202.7z"/>
			<path d="M715.5,227.4h-0.2c-2.1-0.1-3.7-0.8-4.9-2.3c-1.1-1.4-1.9-3.6-2.4-6.6c-0.1-0.5-0.1-1.7-0.1-3.6c0-1.5,0-2.6,0.1-3.3
				c0.3-2.8,1-5.1,2.2-6.8c1.1-1.6,2.1-2.5,3.2-2.7c0.2,0,0.4,0,0.6,0c0,0,0.1,0,0.2,0c0.3,0,0.6,0.1,0.8,0.3
				c0.1,0.1,0.4,0.4,0.4,0.7c0,0.6-0.4,0.9-1.3,1.1c-0.5,0.1-1.1,0.5-1.6,1.2c-0.9,1.1-1.5,2.4-1.8,3.8c-0.3,1.4-0.5,3.4-0.5,5.8
				c0,3.8,0.6,6.5,1.8,8.2c0.4,0.5,0.8,0.9,1.3,1.2c0.5,0.3,1.2,0.4,2.2,0.5c1.2,0.2,1.4,0.8,1.4,1.2
				C716.8,226.5,716.7,227.4,715.5,227.4z M713.9,203.1c-0.1,0-0.2,0-0.3,0l0,0c-0.8,0.1-1.6,0.9-2.5,2.3c-1.1,1.6-1.8,3.8-2,6.4
				c-0.1,0.7-0.1,1.8-0.1,3.2c0,1.8,0,2.9,0.1,3.4c0.4,2.8,1.2,4.9,2.2,6.1c1,1.2,2.4,1.8,4.2,1.9h0.2c0.3,0,0.3-0.1,0.3-0.1
				c0-0.1-0.1-0.2-0.5-0.2c-1-0.1-1.9-0.3-2.5-0.6c-0.6-0.3-1.2-0.8-1.7-1.5c-1.3-1.9-2-4.8-2-8.8c0-2.5,0.2-4.5,0.5-6
				c0.4-1.5,1-2.9,2-4.2c0.7-0.9,1.5-1.5,2.2-1.6c0.2,0,0.3-0.1,0.4-0.1c-0.1-0.1-0.1-0.1-0.1-0.1c0,0-0.1,0-0.2,0
				C714,203.1,713.9,203.1,713.9,203.1z"/>
		</g>
	</g>
	<path d="M762.9,199c-14.5,0-26.3-11.8-26.3-26.3s11.8-26.3,26.3-26.3s26.3,11.8,26.3,26.3S777.4,199,762.9,199z M762.9,149.9
		c-12.6,0-22.8,10.2-22.8,22.8s10.2,22.8,22.8,22.8s22.8-10.2,22.8-22.8S775.4,149.9,762.9,149.9z"/>
	<g>
		<g>
			<path d="M762.5,160.6c0.1,0,0.3,0,0.5,0c0,0,0.1,0,0.1,0c0.1,0,0.1,0,0.2,0c0.1,0,0.2,0.1,0.4,0.2c0.2,0.1,0.2,0.3,0.2,0.4
				c0,0.3-0.3,0.5-0.9,0.6c-0.6,0.1-1.3,0.6-1.9,1.4c-0.9,1.2-1.5,2.5-1.9,4s-0.5,3.4-0.5,5.9c0,3.9,0.6,6.7,1.9,8.5
				c0.4,0.6,0.9,1.1,1.5,1.3c0.6,0.3,1.3,0.5,2.3,0.6c0.6,0.1,1,0.3,1,0.7c0,0.4-0.3,0.6-0.8,0.6h-0.2c-1.9-0.1-3.4-0.8-4.5-2.1
				c-1.1-1.3-1.8-3.4-2.3-6.3c-0.1-0.5-0.1-1.7-0.1-3.5c0-1.5,0-2.5,0.1-3.2c0.3-2.7,1-4.9,2.1-6.6
				C760.7,161.6,761.6,160.8,762.5,160.6z"/>
			<path d="M764.6,185.3h-0.2c-2.1-0.1-3.7-0.8-4.9-2.3c-1.1-1.4-1.9-3.6-2.4-6.6c-0.1-0.5-0.1-1.7-0.1-3.6c0-1.5,0-2.6,0.1-3.3
				c0.3-2.8,1-5.1,2.2-6.8c1.1-1.6,2.1-2.5,3.2-2.7c0.2,0,0.4,0,0.6,0c0,0,0.1,0,0.2,0c0.3,0,0.6,0.1,0.8,0.3
				c0.1,0.1,0.4,0.4,0.4,0.7c0,0.6-0.4,0.9-1.3,1.1c-0.5,0.1-1.1,0.5-1.6,1.2c-0.9,1.1-1.5,2.4-1.8,3.8c-0.3,1.4-0.5,3.4-0.5,5.8
				c0,3.8,0.6,6.5,1.8,8.2c0.4,0.5,0.8,0.9,1.3,1.2c0.5,0.3,1.2,0.4,2.2,0.5c1.2,0.2,1.4,0.8,1.4,1.2
				C765.9,184.5,765.8,185.3,764.6,185.3z M762.9,161.1c-0.1,0-0.2,0-0.3,0l0,0c-0.8,0.1-1.6,0.9-2.5,2.3c-1.1,1.6-1.8,3.8-2,6.4
				c-0.1,0.7-0.1,1.8-0.1,3.2c0,1.8,0,2.9,0.1,3.4c0.4,2.8,1.2,4.9,2.2,6.1c1,1.2,2.4,1.8,4.2,1.9h0.2c0.3,0,0.3-0.1,0.3-0.1
				c0-0.1-0.1-0.2-0.5-0.2c-1-0.1-1.9-0.3-2.5-0.6c-0.6-0.3-1.2-0.8-1.7-1.5c-1.3-1.9-2-4.8-2-8.8c0-2.5,0.2-4.5,0.5-6
				c0.4-1.5,1-2.9,2-4.2c0.7-0.9,1.5-1.5,2.2-1.6c0.2,0,0.3-0.1,0.4-0.1c-0.1-0.1-0.1-0.1-0.1-0.1c0,0-0.1,0-0.2,0
				C763,161.1,763,161.1,762.9,161.1z"/>
		</g>
	</g>
	<path d="M821.4,242.7c-14.5,0-26.3-11.8-26.3-26.3s11.8-26.3,26.3-26.3s26.3,11.8,26.3,26.3S835.9,242.7,821.4,242.7z M821.4,193.7
		c-12.6,0-22.8,10.2-22.8,22.8s10.2,22.8,22.8,22.8s22.8-10.2,22.8-22.8S834,193.7,821.4,193.7z"/>
	<g>
		<g>
			<path d="M821.1,204.4c0.1,0,0.3,0,0.5,0c0,0,0.1,0,0.1,0c0.1,0,0.1,0,0.2,0c0.1,0,0.2,0.1,0.4,0.2c0.2,0.1,0.2,0.3,0.2,0.4
				c0,0.3-0.3,0.5-0.9,0.6c-0.6,0.1-1.3,0.6-1.9,1.4c-0.9,1.2-1.5,2.5-1.9,4s-0.5,3.4-0.5,5.9c0,3.9,0.6,6.7,1.9,8.5
				c0.4,0.6,0.9,1.1,1.5,1.3c0.6,0.3,1.3,0.5,2.3,0.6c0.6,0.1,1,0.3,1,0.7c0,0.4-0.3,0.6-0.8,0.6h-0.2c-1.9-0.1-3.4-0.8-4.5-2.1
				c-1.1-1.3-1.8-3.4-2.3-6.3c-0.1-0.5-0.1-1.7-0.1-3.5c0-1.5,0-2.5,0.1-3.2c0.3-2.7,1-4.9,2.1-6.6
				C819.2,205.4,820.2,204.5,821.1,204.4z"/>
			<path d="M823.1,229.1h-0.2c-2.1-0.1-3.7-0.8-4.9-2.3c-1.1-1.4-1.9-3.6-2.4-6.6c-0.1-0.5-0.1-1.7-0.1-3.6c0-1.5,0-2.6,0.1-3.3
				c0.3-2.8,1-5.1,2.2-6.8c1.1-1.6,2.1-2.5,3.2-2.7c0.2,0,0.4,0,0.6,0c0,0,0.1,0,0.2,0c0.3,0,0.6,0.1,0.8,0.3
				c0.1,0.1,0.4,0.4,0.4,0.7c0,0.6-0.4,0.9-1.3,1.1c-0.5,0.1-1.1,0.5-1.6,1.2c-0.9,1.1-1.5,2.4-1.8,3.8c-0.3,1.4-0.5,3.4-0.5,5.8
				c0,3.8,0.6,6.5,1.8,8.2c0.4,0.5,0.8,0.9,1.3,1.2c0.5,0.3,1.2,0.4,2.2,0.5c1.2,0.2,1.4,0.8,1.4,1.2
				C824.4,228.2,824.3,229.1,823.1,229.1z M821.5,204.8c-0.1,0-0.2,0-0.3,0l0,0c-0.8,0.1-1.6,0.9-2.5,2.3c-1.1,1.6-1.8,3.8-2,6.4
				c-0.1,0.7-0.1,1.8-0.1,3.2c0,1.8,0,2.9,0.1,3.4c0.4,2.8,1.2,4.9,2.2,6.1c1,1.2,2.4,1.8,4.2,1.9h0.2c0.3,0,0.3-0.1,0.3-0.1
				c0-0.1-0.1-0.2-0.5-0.2c-1-0.1-1.9-0.3-2.5-0.6c-0.6-0.3-1.2-0.8-1.7-1.5c-1.3-1.9-2-4.8-2-8.8c0-2.5,0.2-4.5,0.5-6
				c0.4-1.5,1-2.9,2-4.2c0.7-0.9,1.5-1.5,2.2-1.6c0.2,0,0.3-0.1,0.4-0.1c-0.1-0.1-0.1-0.1-0.1-0.1c0,0-0.1,0-0.2,0
				C821.6,204.8,821.5,204.8,821.5,204.8z"/>
		</g>
	</g>
	<path d="M877.7,199c-14.5,0-26.3-11.8-26.3-26.3s11.8-26.3,26.3-26.3s26.3,11.8,26.3,26.3S892.2,199,877.7,199z M877.7,149.9
		c-12.6,0-22.8,10.2-22.8,22.8s10.2,22.8,22.8,22.8s22.8-10.2,22.8-22.8S890.3,149.9,877.7,149.9z"/>
	<g>
		<g>
			<path d="M877.4,160.6c0.1,0,0.3,0,0.5,0c0,0,0.1,0,0.1,0c0.1,0,0.1,0,0.2,0c0.1,0,0.2,0.1,0.4,0.2c0.2,0.1,0.2,0.3,0.2,0.4
				c0,0.3-0.3,0.5-0.9,0.6c-0.6,0.1-1.3,0.6-1.9,1.4c-0.9,1.2-1.5,2.5-1.9,4s-0.5,3.4-0.5,5.9c0,3.9,0.6,6.7,1.9,8.5
				c0.4,0.6,0.9,1.1,1.5,1.3c0.6,0.3,1.3,0.5,2.3,0.6c0.6,0.1,1,0.3,1,0.7c0,0.4-0.3,0.6-0.8,0.6h-0.2c-1.9-0.1-3.4-0.8-4.5-2.1
				c-1.1-1.3-1.8-3.4-2.3-6.3c-0.1-0.5-0.1-1.7-0.1-3.5c0-1.5,0-2.5,0.1-3.2c0.3-2.7,1-4.9,2.1-6.6
				C875.5,161.6,876.5,160.8,877.4,160.6z"/>
			<path d="M879.4,185.3h-0.2c-2.1-0.1-3.7-0.8-4.9-2.3c-1.1-1.4-1.9-3.6-2.4-6.6c-0.1-0.5-0.1-1.7-0.1-3.6c0-1.5,0-2.6,0.1-3.3
				c0.3-2.8,1-5.1,2.2-6.8c1.1-1.6,2.1-2.5,3.2-2.7c0.2,0,0.4,0,0.6,0c0,0,0.1,0,0.2,0c0.3,0,0.6,0.1,0.8,0.3
				c0.1,0.1,0.4,0.4,0.4,0.7c0,0.6-0.4,0.9-1.3,1.1c-0.5,0.1-1.1,0.5-1.6,1.2c-0.9,1.1-1.5,2.4-1.8,3.8c-0.3,1.4-0.5,3.4-0.5,5.8
				c0,3.8,0.6,6.5,1.8,8.2c0.4,0.5,0.8,0.9,1.3,1.2c0.5,0.3,1.2,0.4,2.2,0.5c1.2,0.2,1.4,0.8,1.4,1.2
				C880.7,184.5,880.6,185.3,879.4,185.3z M877.8,161.1c-0.1,0-0.2,0-0.3,0l0,0c-0.8,0.1-1.6,0.9-2.5,2.3c-1.1,1.6-1.8,3.8-2,6.4
				c-0.1,0.7-0.1,1.8-0.1,3.2c0,1.8,0,2.9,0.1,3.4c0.4,2.8,1.2,4.9,2.2,6.1c1,1.2,2.4,1.8,4.2,1.9h0.2c0.3,0,0.3-0.1,0.3-0.1
				c0-0.1-0.1-0.2-0.5-0.2c-1-0.1-1.9-0.3-2.5-0.6c-0.6-0.3-1.2-0.8-1.7-1.5c-1.3-1.9-2-4.8-2-8.8c0-2.5,0.2-4.5,0.5-6
				c0.4-1.5,1-2.9,2-4.2c0.7-0.9,1.5-1.5,2.2-1.6c0.2,0,0.3-0.1,0.4-0.1c-0.1-0.1-0.1-0.1-0.1-0.1c0,0-0.1,0-0.2,0
				C877.9,161.1,877.8,161.1,877.8,161.1z"/>
		</g>
	</g>
	<path d="M765.4,137.9c-11.1,0-20.1-9-20.1-20.1c0-11.1,9-20.1,20.1-20.1s20.1,9,20.1,20.1C785.5,128.9,776.5,137.9,765.4,137.9z
		 M765.4,101.2c-9.2,0-16.6,7.5-16.6,16.6c0,9.2,7.5,16.6,16.6,16.6S782,127,782,117.8C782,108.7,774.6,101.2,765.4,101.2z"/>
	<g>
		<g>
			<path d="M767.1,111.1c0.2-0.1,0.3-0.1,0.5,0.1c0.1,0.1,0.2,1.5,0.4,4c0.3,5.4,0.5,8.3,0.5,8.9c0,0.1,0,0.2,0,0.3v0
				c-0.1,0.2-0.2,0.2-0.4,0.1c-0.2-0.1-0.3-0.3-0.4-0.7c0-0.3-0.1-1.2-0.1-2.6c0-1.3-0.1-2.2-0.1-2.8c0-0.5,0-0.7,0-0.8v-0.1h-4.3
				l0,3.2c0,2.1-0.1,3.2-0.1,3.3c-0.2,0.2-0.4,0.2-0.6-0.1v-6.2c0-4.1,0-6.3,0-6.3c0.1-0.2,0.2-0.3,0.3-0.3c0.1,0,0.2,0.1,0.3,0.2
				c0.1,0.1,0.1,1.1,0.1,2.8v2.6h4.1v-0.9c0-0.4,0-1.3-0.1-2.6c-0.1-1-0.1-1.6-0.1-1.7C767,111.3,767,111.1,767.1,111.1z"/>
			<path d="M768.2,125.1c-0.1,0-0.3,0-0.4-0.1c-0.3-0.2-0.5-0.5-0.6-1c-0.1-0.4-0.1-1.2-0.1-2.6c0-1.3-0.1-2.2-0.1-2.8
				c0-0.2,0-0.3,0-0.4h-3.3l0,2.7c-0.1,3.4-0.1,3.4-0.2,3.6c-0.2,0.3-0.4,0.3-0.6,0.3c-0.3,0-0.5-0.1-0.8-0.3l-0.2-0.1v-6.4
				c0-6.3,0-6.4,0.1-6.5c0.1-0.3,0.4-0.6,0.8-0.6c0.3,0,0.6,0.2,0.7,0.4c0.1,0.2,0.2,0.3,0.2,3v2.1h3.1v-0.4c0-0.4,0-1.3-0.1-2.6
				c-0.1-1.5-0.1-1.7-0.1-1.8c0-0.2,0-0.7,0.4-0.9l0,0c0.4-0.2,0.8-0.1,1.1,0.2c0.2,0.2,0.3,0.3,0.5,4.3c0.3,5.4,0.5,8.4,0.5,9
				c0,0.1,0,0.2,0,0.4l0,0.1c-0.1,0.3-0.3,0.4-0.5,0.5C768.4,125.1,768.3,125.1,768.2,125.1z M762.9,111.6L762.9,111.6L762.9,111.6z
				"/>
		</g>
	</g>
	<g>
		<g>
			<path d="M676.2,172.5c0.2-0.1,0.3-0.1,0.5,0.1c0.1,0.1,0.2,1.5,0.4,4c0.3,5.4,0.5,8.3,0.5,8.9c0,0.1,0,0.2,0,0.3v0
				c-0.1,0.2-0.2,0.2-0.4,0.1c-0.2-0.1-0.3-0.3-0.4-0.7c0-0.3-0.1-1.2-0.1-2.6c0-1.3-0.1-2.2-0.1-2.8c0-0.5,0-0.7,0-0.8V179h-4.3
				l0,3.2c0,2.1-0.1,3.2-0.1,3.3c-0.2,0.2-0.4,0.2-0.6-0.1v-6.2c0-4.1,0-6.3,0-6.3c0.1-0.2,0.2-0.3,0.3-0.3c0.1,0,0.2,0.1,0.3,0.2
				c0.1,0.1,0.1,1.1,0.1,2.8v2.6h4.1v-0.9c0-0.4,0-1.3-0.1-2.6c-0.1-1-0.1-1.6-0.1-1.7C676,172.7,676.1,172.5,676.2,172.5z"/>
			<path d="M677.3,186.5c-0.1,0-0.3,0-0.4-0.1c-0.3-0.2-0.5-0.5-0.6-1c-0.1-0.4-0.1-1.2-0.1-2.6c0-1.3-0.1-2.2-0.1-2.8
				c0-0.2,0-0.3,0-0.4h-3.3l0,2.7c-0.1,3.4-0.1,3.4-0.2,3.6c-0.2,0.3-0.4,0.3-0.6,0.3c-0.3,0-0.5-0.1-0.8-0.3l-0.2-0.1v-6.4
				c0-6.3,0-6.4,0.1-6.5c0.1-0.3,0.4-0.6,0.8-0.6c0.3,0,0.6,0.2,0.7,0.4c0.1,0.2,0.2,0.3,0.2,3v2.1h3.1v-0.4c0-0.4,0-1.3-0.1-2.6
				c-0.1-1.5-0.1-1.7-0.1-1.8c0-0.2,0-0.7,0.4-0.9l0,0c0.4-0.2,0.8-0.1,1.1,0.2c0.2,0.2,0.3,0.3,0.5,4.3c0.3,5.4,0.5,8.4,0.5,9
				c0,0.1,0,0.2,0,0.4l0,0.1c-0.1,0.3-0.3,0.4-0.5,0.5C677.4,186.5,677.4,186.5,677.3,186.5z M672,172.9L672,172.9L672,172.9z"/>
		</g>
	</g>
	<path d="M713.8,294.1c-11.1,0-20.1-9-20.1-20.1s9-20.1,20.1-20.1s20.1,9,20.1,20.1S724.9,294.1,713.8,294.1z M713.8,257.4
		c-9.2,0-16.6,7.5-16.6,16.6s7.5,16.6,16.6,16.6s16.6-7.5,16.6-16.6S723,257.4,713.8,257.4z"/>
	<g>
		<g>
			<path d="M715.5,266.6c0.2-0.1,0.3-0.1,0.5,0.1c0.1,0.1,0.2,1.6,0.4,4.4c0.3,5.9,0.5,9.2,0.5,9.8c0,0.1,0,0.2,0,0.3v0
				c-0.1,0.2-0.2,0.3-0.4,0.1c-0.2-0.1-0.3-0.4-0.4-0.8c0-0.4-0.1-1.3-0.1-2.8c0-1.4-0.1-2.4-0.1-3.1c0-0.5,0-0.8,0-0.8v-0.1h-4.3
				l0,3.5c0,2.3-0.1,3.6-0.1,3.7c-0.2,0.2-0.4,0.2-0.6-0.1V274c0-4.6,0-6.9,0-7c0.1-0.2,0.2-0.3,0.3-0.3c0.1,0,0.2,0.1,0.3,0.2
				c0.1,0.2,0.1,1.2,0.1,3.1v2.9h4.1v-1c0-0.4,0-1.4-0.1-2.9c-0.1-1.1-0.1-1.8-0.1-1.9C715.4,266.8,715.4,266.6,715.5,266.6z"/>
			<path d="M716.6,281.9c-0.1,0-0.3,0-0.4-0.1c-0.3-0.2-0.5-0.6-0.6-1.1c-0.1-0.4-0.1-1.4-0.1-2.9c0-1.4-0.1-2.4-0.1-3.1
				c0-0.2,0-0.4,0-0.5H712l0,3c-0.1,3.7-0.1,3.7-0.2,3.9c-0.2,0.2-0.4,0.4-0.6,0.4c-0.3,0-0.5-0.1-0.8-0.4l-0.1-0.1v-7
				c0-6.9,0-7,0.1-7.2c0.1-0.4,0.4-0.6,0.8-0.6c0.3,0,0.6,0.2,0.7,0.5c0.1,0.2,0.2,0.3,0.2,3.3v2.4h3.1v-0.5c0-0.4,0-1.4-0.1-2.9
				c-0.1-1.1-0.1-1.8-0.1-1.9c0-0.3,0-0.7,0.4-1l0,0c0.3-0.2,0.7-0.2,1.1,0.2c0.2,0.2,0.3,0.4,0.5,4.7c0.3,6,0.5,9.2,0.5,9.9
				c0,0.1,0,0.3,0,0.4l0,0.1c-0.1,0.3-0.3,0.4-0.5,0.5C716.8,281.9,716.7,281.9,716.6,281.9z"/>
		</g>
	</g>
	<path d="M838.3,293.7c-11.1,0-20.1-9-20.1-20.1s9-20.1,20.1-20.1s20.1,9,20.1,20.1S849.4,293.7,838.3,293.7z M838.3,257
		c-9.2,0-16.6,7.5-16.6,16.6s7.5,16.6,16.6,16.6s16.6-7.5,16.6-16.6S847.5,257,838.3,257z"/>
	<g>
		<g>
			<path d="M840,266.2c0.2-0.1,0.3-0.1,0.5,0.1c0.1,0.1,0.2,1.6,0.4,4.4c0.3,5.9,0.5,9.2,0.5,9.8c0,0.1,0,0.2,0,0.3v0
				c-0.1,0.2-0.2,0.3-0.4,0.1c-0.2-0.1-0.3-0.4-0.4-0.8c0-0.4-0.1-1.3-0.1-2.8c0-1.4-0.1-2.4-0.1-3.1c0-0.5,0-0.8,0-0.8v-0.1H836
				l0,3.5c0,2.3-0.1,3.6-0.1,3.7c-0.2,0.2-0.4,0.2-0.6-0.1v-6.8c0-4.6,0-6.9,0-7c0.1-0.2,0.2-0.3,0.3-0.3c0.1,0,0.2,0.1,0.3,0.2
				c0.1,0.2,0.1,1.2,0.1,3.1v2.9h4.1v-1c0-0.4,0-1.4-0.1-2.9c-0.1-1.1-0.1-1.8-0.1-1.9C839.9,266.4,839.9,266.3,840,266.2z"/>
			<path d="M841.1,281.6c-0.1,0-0.3,0-0.4-0.1c-0.3-0.2-0.5-0.6-0.6-1.1c-0.1-0.4-0.1-1.4-0.1-2.9c0-1.4-0.1-2.4-0.1-3.1
				c0-0.2,0-0.4,0-0.5h-3.3l0,3c-0.1,3.7-0.1,3.7-0.2,3.9c-0.2,0.2-0.4,0.4-0.6,0.4c-0.3,0-0.5-0.1-0.8-0.4l-0.1-0.1v-7
				c0-6.9,0-7,0.1-7.2c0.1-0.4,0.4-0.6,0.8-0.6c0.3,0,0.6,0.2,0.7,0.5c0.1,0.2,0.2,0.3,0.2,3.3v2.4h3.1v-0.5c0-0.4,0-1.4-0.1-2.9
				c-0.1-1.1-0.1-1.8-0.1-1.9c0-0.3,0-0.7,0.4-1l0,0c0.3-0.2,0.7-0.2,1.1,0.2c0.2,0.2,0.3,0.4,0.5,4.7c0.3,6,0.5,9.2,0.5,9.9
				c0,0.1,0,0.3,0,0.4l0,0.1c-0.1,0.3-0.3,0.4-0.5,0.5C841.3,281.6,841.2,281.6,841.1,281.6z"/>
		</g>
	</g>
	<path d="M880.2,142.6c-11.1,0-20.1-9-20.1-20.1s9-20.1,20.1-20.1s20.1,9,20.1,20.1S891.3,142.6,880.2,142.6z M880.2,105.9
		c-9.2,0-16.6,7.5-16.6,16.6s7.5,16.6,16.6,16.6s16.6-7.5,16.6-16.6S889.4,105.9,880.2,105.9z"/>
	<g>
		<g>
			<path d="M882,115.1c0.2-0.1,0.3-0.1,0.5,0.1c0.1,0.1,0.2,1.6,0.4,4.4c0.3,5.9,0.5,9.2,0.5,9.8c0,0.1,0,0.2,0,0.3v0
				c-0.1,0.2-0.2,0.3-0.4,0.1c-0.2-0.1-0.3-0.4-0.4-0.8c0-0.4-0.1-1.3-0.1-2.8c0-1.4-0.1-2.4-0.1-3.1c0-0.5,0-0.8,0-0.8v-0.1H878
				l0,3.5c0,2.3-0.1,3.6-0.1,3.7c-0.2,0.2-0.4,0.2-0.6-0.1v-6.8c0-4.6,0-6.9,0-7c0.1-0.2,0.2-0.3,0.3-0.3c0.1,0,0.2,0.1,0.3,0.2
				c0.1,0.2,0.1,1.2,0.1,3.1v2.9h4.1v-1c0-0.4,0-1.4-0.1-2.9c-0.1-1.1-0.1-1.8-0.1-1.9C881.8,115.3,881.9,115.1,882,115.1z"/>
			<path d="M883.1,130.5c-0.1,0-0.3,0-0.4-0.1c-0.3-0.2-0.5-0.6-0.6-1.1c-0.1-0.4-0.1-1.4-0.1-2.9c0-1.4-0.1-2.4-0.1-3.1
				c0-0.2,0-0.4,0-0.5h-3.3l0,3c-0.1,3.7-0.1,3.7-0.2,3.9c-0.2,0.2-0.4,0.4-0.6,0.4c-0.3,0-0.5-0.1-0.8-0.4l-0.1-0.1v-7
				c0-6.9,0-7,0.1-7.2c0.1-0.4,0.4-0.6,0.8-0.6c0.3,0,0.6,0.2,0.7,0.5c0.1,0.2,0.2,0.3,0.2,3.3v2.4h3.1v-0.5c0-0.4,0-1.4-0.1-2.9
				c-0.1-1.1-0.1-1.8-0.1-1.9c0-0.3,0-0.7,0.4-1l0,0c0.3-0.2,0.7-0.2,1.1,0.2c0.2,0.2,0.3,0.4,0.5,4.7c0.3,6,0.5,9.2,0.5,9.9
				c0,0.1,0,0.3,0,0.4l0,0.1c-0.1,0.3-0.3,0.4-0.5,0.5C883.2,130.4,883.1,130.5,883.1,130.5z"/>
		</g>
	</g>
	<path d="M681.1,185.4c0.2-2.1,0.7-4.2,1.5-6.2c0.4-1,0.9-1.9,1.4-2.9c0.4-0.8,0.9-1.7,1.8-2.2c0.6-0.4,1.4-0.4,1.8,0.3
		c0.6,0.9,0.9,1.9,1.2,2.8c0.7,2.1,1,4.2,1,6.4c0,1.3,2,1.3,2,0c0-2-0.3-4.1-0.9-6.1c-0.3-1-0.7-1.9-1.1-2.9
		c-0.4-0.8-0.8-1.7-1.6-2.3c-1.6-1.1-3.7-0.3-4.8,1.1c-1.3,1.5-2.1,3.4-2.8,5.2c-0.8,2.2-1.3,4.4-1.6,6.7c-0.1,0.5,0.5,1,1,1
		C680.6,186.4,681,186,681.1,185.4L681.1,185.4z"/>
	<path d="M922.2,201.1c0.5-1.8,1.2-3.6,2-5.3c0.7-1.3,1.6-3,3.3-3.1c1.4-0.1,2.7,1.3,3.3,2.4c0.9,1.6,1.3,3.4,1.7,5.1
		c0.3,1.3,2.2,0.7,1.9-0.5c-0.5-2.1-1-4.3-2.2-6.1c-1.1-1.5-2.8-3.1-4.8-3c-2.2,0.2-3.7,1.8-4.7,3.6c-1.1,2-1.9,4.2-2.5,6.4
		C919.9,201.8,921.9,202.3,922.2,201.1L922.2,201.1z"/>
	<path d="M912.8,196.9c2.1-0.2,4.3-0.3,6.4-0.2c0.5,0,1-0.5,1-1c0-0.6-0.4-1-1-1c-2.1-0.1-4.3,0-6.4,0.2c-0.5,0.1-1,0.4-1,1
		C911.8,196.4,912.2,197,912.8,196.9L912.8,196.9z"/>
	<path d="M914.2,191.7c0.2,2.6,0.5,5.3,0.9,7.9c0.1,0.5,0.8,0.8,1.2,0.7c0.6-0.2,0.8-0.7,0.7-1.2c-0.4-2.4-0.6-4.9-0.8-7.4
		c0-0.5-0.4-1-1-1C914.7,190.7,914.1,191.2,914.2,191.7L914.2,191.7z"/>
	<path d="M676.9,192.9c0.4,3.4,2.3,6.4,4.4,9c1.9,2.4,4.3,4.5,6.9,6.2c0.8,0.6,2.1,0.2,2.6-0.7c0.5-0.9,0.2-2-0.7-2.6
		c-2.2-1.4-4.1-3.2-5.8-5.3c-0.7-0.9-1.5-2-2.1-3.1c-0.6-1.1-1.3-2.4-1.4-3.6c-0.1-1-0.8-1.9-1.9-1.9
		C677.8,191,676.8,191.9,676.9,192.9L676.9,192.9z"/>
	<path d="M735,199.5c0.3-0.4,0.6-0.9,0.9-1.3c0.2-0.2,0.3-0.4,0.5-0.6c-0.1,0.1-0.1,0.1,0,0c0.1-0.1,0.2-0.3,0.3-0.4
		c0.7-0.8,1.3-1.6,2.1-2.4c0.7-0.8,1.5-1.5,2.3-2.2c0.4-0.4,0.8-0.7,1.2-1c0.2-0.2,0.4-0.3,0.6-0.5c0.1-0.1,0.3-0.2,0.1-0.1
		c0.1-0.1,0.3-0.2,0.4-0.3c0.8-0.6,1.3-1.6,0.7-2.6c-0.5-0.8-1.7-1.3-2.6-0.7c-3.8,2.8-7,6.2-9.6,10.1c-0.5,0.8-0.2,2.1,0.7,2.6
		C733.3,200.7,734.4,200.4,735,199.5L735,199.5z"/>
	<path d="M764.5,136.8c-0.1,3.5-0.2,6.9-0.1,10.4c0,1,0.8,1.9,1.9,1.9c1,0,1.9-0.8,1.9-1.9c-0.1-3.5-0.1-6.9,0.1-10.4
		c0-1-0.9-1.9-1.9-1.9C765.3,134.9,764.6,135.7,764.5,136.8L764.5,136.8z"/>
	<path d="M779.4,191.9c2.8,3.2,6.5,5.3,10.3,7.1c4.1,2,8.4,4,13,3.1c2.4-0.5,1.4-4.1-1-3.6c-3.7,0.8-7.6-1.4-10.8-3
		c-3.3-1.6-6.4-3.5-8.9-6.2C780.5,187.5,777.8,190.1,779.4,191.9L779.4,191.9z"/>
	<path d="M844.3,202.9c4.6-4.5,9.6-8.7,15-12.4c0.8-0.6,1.2-1.6,0.7-2.6c-0.5-0.8-1.7-1.3-2.6-0.7c-5.6,3.9-10.8,8.2-15.7,13
		C839.9,201.9,842.6,204.6,844.3,202.9L844.3,202.9z"/>
	<path d="M880.1,143.1c0.1,0.1,0.1,0.1,0.2,0.2c-0.1-0.1-0.2-0.3-0.3-0.4c0.2,0.3,0.4,0.6,0.5,0.9c-0.1-0.1-0.1-0.3-0.2-0.4
		c0.1,0.4,0.2,0.7,0.3,1.1c0-0.2,0-0.3-0.1-0.5c0,0.4,0,0.8,0,1.1c0-0.2,0-0.3,0.1-0.5c-0.1,0.4-0.1,0.7-0.3,1
		c0.1-0.1,0.1-0.3,0.2-0.4c0,0,0,0,0,0.1c-0.1,0.2-0.2,0.4-0.2,0.7c-0.1,0.2,0,0.5,0,0.7c0.1,0.4,0.5,0.9,0.9,1.1
		c0.4,0.2,1,0.3,1.4,0.2c0.4-0.1,0.9-0.4,1.1-0.9c0.1-0.3,0.3-0.6,0.4-1c0.1-0.3,0.1-0.7,0.2-1.1c0.1-0.6,0-1.1-0.1-1.7
		c-0.2-1.1-0.7-2.2-1.5-3c-0.3-0.3-0.9-0.5-1.3-0.5c-0.5,0-1,0.2-1.3,0.5c-0.3,0.4-0.6,0.8-0.5,1.3
		C879.6,142.2,879.7,142.7,880.1,143.1L880.1,143.1z"/>
	<path d="M887.2,196.8c1.5,2.7,3.3,5.3,5.2,7.7c1.7,2.2,3.6,4.3,6.1,5.7c4.8,2.6,10.6,2.5,15.5,0.2c2.2-1,0.3-4.3-1.9-3.2
		c-3.9,1.8-8.7,1.7-12.4-0.5c-1.9-1.2-3.4-3-4.8-4.8c-1.6-2.2-3.1-4.5-4.5-6.9C889.2,192.8,886,194.7,887.2,196.8L887.2,196.8z"/>
	<path d="M832.9,239c1.6,2.1,2.8,4.3,3.4,7c0.6,2.7,0.8,5.5,1.1,8.3c0.1,1,0.8,1.9,1.9,1.9c0.9,0,2-0.9,1.9-1.9
		c-0.4-3.1-0.6-6.2-1.3-9.3c-0.6-2.9-1.9-5.5-3.7-7.9c-0.6-0.8-1.6-1.2-2.6-0.7C832.8,236.9,832.3,238.2,832.9,239L832.9,239z"/>
	<path d="M719.6,237.4c-1-0.2-1.9,0.1-2.5,1c-0.4,0.7-0.3,1.4-0.3,2.2c0,1.6,0.1,3.1,0.2,4.7c0.2,3,0.4,6-0.1,9
		c-0.2,1,0.3,2,1.3,2.3c0.9,0.2,2.2-0.3,2.3-1.3c0.4-2.7,0.4-5.3,0.3-8c-0.1-1.3-0.2-2.6-0.2-3.9c0-0.6-0.1-1.2-0.1-1.8
		c0-0.3,0-0.6,0-0.9c0-0.2,0-0.4,0-0.6c0-0.5,0-0.4-0.1,0.2c-0.2,0.2-0.4,0.4-0.7,0.7c0,0,0.1,0,0.1-0.1c-0.5,0.1-1,0.1-1.4,0.2
		c0,0,0.1,0,0.1,0c1,0.2,2-0.3,2.3-1.3C721.1,238.7,720.6,237.6,719.6,237.4L719.6,237.4z"/>
</g>
</svg>
