<?xml version="1.0" encoding="utf-8"?>
<!-- Generator: Adobe Illustrator 24.0.1, SVG Export Plug-In . SVG Version: 6.00 Build 0)  -->
<svg version="1.1" xmlns="http://www.w3.org/2000/svg" xmlns:xlink="http://www.w3.org/1999/xlink" x="0px" y="0px"
	 viewBox="0 0 1000 435.2" style="enable-background:new 0 0 1000 435.2;" xml:space="preserve">
<style type="text/css">
	.st0{fill:#FFE87B;}
	.st1{fill:#1E1E1C;}
	.st2{fill:#1E1E1C;stroke:#1E1E1C;stroke-width:0.25;stroke-miterlimit:10;}
	.st3{fill:#1E1E1C;stroke:#1E1E1C;stroke-width:0.15;stroke-miterlimit:10;}
	.st4{fill:#FFFFFF;}
	.st5{stroke:#1E1E1C;stroke-miterlimit:10;}
	.st6{fill:none;stroke:#1E1E1C;stroke-width:3;stroke-linecap:round;stroke-linejoin:round;stroke-miterlimit:10;}
	.st7{stroke:#000000;stroke-width:1.5;stroke-miterlimit:10;}
	.st8{fill:#010202;}
	.st9{stroke:#000000;stroke-miterlimit:10;}
</style>
<g id="Calque_2">
</g>
<g id="Calque_1">
	<path d="M631.8,211.6c1.2,13.3,2.6,26.6,2.5,40c0,2.4,3.7,2.4,3.8,0c0.1-13.4-1.3-26.7-2.5-40C635.3,209.3,631.6,209.2,631.8,211.6
		L631.8,211.6z"/>
	<g>
		<path d="M849.9,146.2c0,0-0.1-0.1-0.1-0.1c0-0.1-0.1-0.1-0.1-0.2c0,0,0-0.1-0.1-0.1c-0.2-0.2-0.4-0.4-0.7-0.5
			c-9.3-3.5-18.5-7.4-27.8-11.1c-4.4-1.8-8.8-3.5-13.2-5.2c-4.5-1.6-9-3-13.5-4.6c-5.7-2-11.3-4.1-16.7-6.9c0,0,0,0,0,0
			c-0.4-0.3-0.9-0.4-1.4-0.2c-12.7,5.1-25.6,9.6-38.6,13.8c-1.1-0.1-2.1,0.6-2.2,1.8c-0.4,18.7-1,37.4-1.7,56
			c-9.8-2.6-19.9-4.6-29.9-6.4c-6-1.1-12-2-18.1-3c-0.6-0.1-1.2,0-1.6,0.3c-0.4-0.2-1-0.1-1.5,0.2c-16.4,9.7-32.8,19.3-49.4,28.6
			c-1.1,0.6-1.1,1.9-0.5,2.7c-0.3,0.9,0,2,1.2,2.2c6.4,1.3,12.9,2.5,19.3,3.8c6.1,1.2,12.2,2.3,18,4.8c5.2,2.2,10.1,5,15.2,7.3
			c5.4,2.4,10.9,4,16.8,4.4c6.2,0.4,12.5,0,18.6,1.6c0,0.1,0,0.1,0,0.2c0.9,14.6-0.1,29.3-2.8,43.7c-10.2-4-20.4-7.9-30.8-11.1
			c-5.4-1.7-10.8-3.1-16.3-4.3c-5.5-1.2-11-2.4-16.3-4.4c-5.8-2.2-11.2-5.3-16.6-8.4c-2.1-1.2-4,2-1.9,3.2c4.9,2.8,9.7,5.5,14.9,7.7
			c5.2,2.2,10.6,3.6,16.1,4.8c11.3,2.5,22.3,5.7,33.1,9.6c6.1,2.2,12.2,4.6,18.3,7c0.2,0.1,0.3,0.1,0.5,0.1c0.6,0.2,1.3,0.2,1.9-0.4
			c13.8-12.5,27-25.6,39.7-39.3c0.1-0.2,0.2-0.3,0.3-0.5c0.5-0.2,1-0.5,1.3-1.2c2.1-6.3,1.8-13.1,2.5-19.6c0.2-2,0.6-3.9,1-5.9
			c8.4,2.3,16.8,4.9,25.2,7.4c4.3,1.3,8.6,2.5,12.9,3.7c4,1.1,7.9,0.2,11.9,0.3c0.1,0,0.2,0,0.3,0c0.5,0.4,1.2,0.5,1.9,0.1
			c8.3-4.9,16.6-9.8,24.8-14.8c1.1,0.5,2.7,0,2.7-1.6c0.1-8.5,0.9-16.9,2.2-25.3c0.6-4,1.3-8.1,1.5-12.1c0.3-4.1,0.3-8.3,0.3-12.4
			c0-4.8,0.1-9.6,0.1-14.4C850.7,147,850.3,146.5,849.9,146.2z M804.8,132c9.3,3.3,18.5,7.2,27.6,10.9c3.7,1.5,7.4,3,11.1,4.4
			c-0.6,0.4-1.2,0.7-1.8,1.1c-2.1,1.2-4.2,2.5-6.3,3.7c-4.2,2.5-8.3,4.9-12.5,7.4c-0.1-0.1-0.2-0.2-0.3-0.3c-2.1-1.7-5.2-2.2-7.7-3
			c-6.5-2-12.9-4.3-19.1-6.9c0.9-1.4,1.3-3.1,0.4-4.7c-1.1-2.2-3.8-3.1-6.1-3.3c-2.4-0.3-4.9,0.3-7.3,0.9c-2.6,0.7-5.1,1.7-7.7,2.6
			c0,0-0.1,0-0.1,0c-0.3-0.1-0.5-0.1-0.8-0.2c-1.1-0.3-2.3-0.6-3.4-0.9c-2.1-0.6-4.2-1.2-6.3-1.9c-4.2-1.3-8.4-2.8-12.6-4.4
			c-3.1-1.2-6.2-2.5-9.2-3.9c11.4-3.8,22.7-7.8,33.9-12.3C785.7,125.8,795.3,128.7,804.8,132z M799.2,192.9c-0.5-3.1-3.8-4-6.4-4.7
			c-5.9-1.8-12.2-2.4-17.7-5.1c-2.6-1.3-5.2-2.8-8.2-2.3c-2.8,0.4-4.6,2.5-5.2,5.2c-0.2,1.1-0.2,5.6-2.2,5.3
			c-0.5-0.1-1.1-0.6-1.6-0.8c-0.5-0.2-1-0.4-1.5-0.7c-1.1-0.5-1.8-0.9-1.9-2.1c-0.3-3.8-0.3-7.7-0.4-11.5c-0.1-1.9-0.1-3.8-0.2-5.7
			c0-1-0.1-2-0.1-2.9c0-0.4-0.1-1.1,0-1.6c0,0,0.1,0,0.2,0c0.6,0.1,1.1,0.1,1.7,0.3c0.8,0.2,1.6,0.4,2.4,0.6
			c1.7,0.5,3.3,1.2,4.9,1.8c3.6,1.5,7.1,3.1,10.7,4.6c1,0.4,2.5,0.2,2.8-1.1c0.8-4.5,1.3-9.1,1.4-13.7c0.1-2.4,0.1-4.7,0-7.1
			c0-1,0-2.3-0.2-3.4c3.2-1.2,6.6-2.5,9.9-2.8c1.6-0.1,3.4-0.1,4.8,0.8c1.2,0.9-0.3,2.3-1,3.1c-0.7,0.8-0.6,1.7-0.1,2.4
			c-0.7,3.3-1.2,6.6-1.6,10c-0.4,2.9-1,6.2-0.1,9.1c0.9,3,3.3,4.3,5.9,5.7c2.9,1.6,5.7,3.2,8.4,5c2.3,1.5,5.3,2.9,5.3,6
			c0,1.4-0.3,2.9-0.6,4.3c-0.3,1.7-0.6,3.4-0.9,5.1c-0.3,1.6-0.6,3.2-0.9,4.9c-0.2,0.9-0.2,2.5-1.4,2.6c-1.2,0.2-2.9-0.6-4-1
			c-0.7-0.2-1.4-0.5-2.1-0.8c-0.4-0.2-0.8-0.4-1.2-0.6c-0.2-0.1-0.4-0.2-0.5-0.3c0,0,0,0,0,0c0-0.6,0.4-1.3,0.5-1.8
			c0.2-0.7,0.4-1.5,0.6-2.2C799,195.8,799.4,194.3,799.2,192.9z M717.9,201.2c4,0.2,8.1,0.4,12,1.4c1.9,0.5,3.7,1.1,5.4,2.1
			c1,0.6,3.6,1.9,3,3.3c-0.3,0.8-1.2,1.5-1.8,2.1c-0.9,0.9-1.7,1.8-2.6,2.7c-1.7,1.8-3.4,3.6-5.2,5.3c-1.3,1.3-2.7,3.4-4.7,3.4
			c-2.1,0-4.4-0.7-6.5-1.2c-0.7-0.2-1.6-0.6-2.4-0.7c0.4-0.4,0.8-0.9,1.2-1.3c1.5-1.7,3.2-3.3,4.6-5.1c1.2-1.5,2.2-3.6,1.2-5.4
			c-1-1.9-3.1-2.1-5-2.4c-4.8-0.9-9.5-1.7-14.3-2.6c-4.3-0.8-9.3-2.4-13.6-0.9c-4,1.4-6.4,4.9-9.9,7.1c-0.9,0.6-1.8,1-2.9,0.7
			c-1.1-0.3-2.2-0.9-3.3-1.4c-1.1-0.6-2.2-1.2-3.3-1.9c-0.5-0.3-1-0.6-1.5-1c-0.1-0.1-0.2-0.1-0.2-0.2c0.6-0.3,1.3-0.5,1.6-0.7
			c1-0.5,1.9-0.9,2.9-1.4c1.9-1,3.8-2.1,5.6-3.2c3.5-2.2,6.6-5.2,11-5.1c4.2,0.1,8.2,2,12.4,2.4c2.5,0.2,3.8-1,5.5-2.7
			c1.7-1.8,3.4-3.6,5.1-5.4c0.2-0.2,0.4-0.5,0.4-0.7c3.6,0.7,7.1,1.4,10.7,2.2c-2.3,2.5-4.6,5-6.9,7.5
			C715.5,199.2,716.2,201.1,717.9,201.2z M689.6,227c-5.2-2.2-10.1-5-15.2-7.3c-5.7-2.6-11.5-4-17.7-5.2c-6.4-1.2-12.7-2.5-19.1-3.7
			c15.7-8.9,31.4-18,46.9-27.2c0.1,0,0.1-0.1,0.2-0.1c0,0,0,0,0,0c7.9,1.3,15.9,2.5,23.8,4c-0.9,0.9-1.8,1.9-2.7,2.8
			c-0.6,0.6-1.1,1.2-1.7,1.8c-0.8,0.8-1.1,1.4-2.3,1.3c-3.2-0.2-6.2-1.5-9.4-2c-3.2-0.6-6.3-0.5-9.3,0.9c-2.9,1.3-5.5,3.5-8.2,5.2
			c-3,1.8-6.1,3.2-9.2,4.7c-1.2,0.5-2.1,1.5-2.1,2.9c0.1,1.8,1.7,2.7,3,3.6c2.6,1.8,5.7,3.6,8.8,4.5c3.3,1,6.2-1.1,8.6-3.1
			c2-1.6,3.8-3.7,6.3-4.6c3.2-1.1,6.9,0.1,10.1,0.7c3.6,0.6,7.1,1.3,10.7,1.9c1.8,0.3,3.6,0.6,5.3,1c0.7,0.1,1.4,0.4,2.1,0.4
			c0.1,0,0.2,0,0.3,0.1c0,0.3-0.3,0.7-0.4,0.9c-0.8,1.2-1.9,2.3-2.9,3.3c-1.3,1.4-2.6,2.8-3.8,4.3c-1,1.2-1.2,2.8,0,4
			c1,1.1,2.6,1.4,4,1.8c1.6,0.4,3.3,0.8,4.9,1.1c1.7,0.3,3.5,0.7,5.3,0.2c1.4-0.4,2.6-1.3,3.6-2.3c1.4-1.3,2.7-2.7,4-4.1
			c1.4-1.4,2.7-2.9,4.1-4.3c1.3-1.3,2.9-2.7,3.8-4.4c1.9-3.4-0.9-6.4-3.6-8.2c-4.7-3-10.3-3.8-15.9-4.2c1.6-1.7,3.1-3.4,4.7-5.1
			c0.3-0.4,0.5-0.8,0.5-1.2c6.7,1.6,13.4,3.5,19.9,5.7c5.2,1.8,10.3,3.8,15.3,6.1c-12.2,10.3-24.8,20.2-37.7,29.6
			c-0.1-0.1-0.2-0.1-0.3-0.1c-5.8-1.9-11.9-1.8-17.9-2C700.6,230.4,695.1,229.3,689.6,227z M762,222.9c-0.7,6.1-0.3,12.3-2.2,18.2
			c-0.3,0.1-0.5,0.2-0.8,0.5c-11.4,12.3-23.3,24.2-35.7,35.6c2.3-13.4,3-27,2.3-40.5c13.3-9.6,26.2-19.7,38.7-30.3
			C764.6,211.9,762.6,217.5,762,222.9z M805,224.2c-4.2-1.2-8.3-2.4-12.5-3.6c-8.3-2.5-16.7-5-25-7.3c0.6-3.4,0.9-6.9,0.2-10.4
			c-0.1-0.7-0.6-1.1-1.1-1.3c-0.1-0.4-0.4-0.8-0.9-1.1c-9.1-4.3-18.6-7.7-28.3-10.4c0.1-0.2,0.2-0.5,0.2-0.8
			c0.7-17.7,1.3-35.5,1.7-53.2c6.5,3,13.2,5.7,20,8c3.9,1.3,7.9,2.5,11.9,3.6c0.8,0.2,1.9,0.7,2.7,0.7c0,0,0.1,0,0.2,0.1
			c0.1,0.5,0.1,1.1,0.1,1.6c0.1,2.1,0.1,4.3,0.1,6.4c-0.1,4.2-0.4,8.3-1,12.5c-2.6-1.1-5.2-2.2-7.9-3.4c-3.2-1.4-6.4-2.7-9.9-3.2
			c-1.5-0.2-3.1-0.3-4.3,1c-1,1.1-1.1,2.6-1,3.9c0.1,3.7,0.2,7.4,0.4,11.1c0.1,1.8,0.1,3.6,0.2,5.4c0.1,1.8-0.1,3.8,0.4,5.5
			c0.8,2.9,3.7,3.6,6,4.9c1.3,0.7,2.6,1.2,4.1,0.7c1.3-0.4,2.3-1.5,2.9-2.6c0.7-1.2,0.9-2.6,1.1-3.9c0.2-1.2,0.2-2.8,1.3-3.5
			c2.5-1.6,6.2,1.3,8.4,2.2c3.1,1.3,6.3,2.2,9.5,2.9c3.2,0.7,6.5,1.4,9.6,2.5c0.4,0.2,1.3,0.3,1.6,0.8c0.2,0.4,0.1,1,0,1.4
			c-0.3,1.7-0.8,3.4-1.3,5.2c-0.4,1.5-0.5,3,0.8,4.2c1.2,1.1,3.2,1.7,4.7,2.3c2.6,1,6.4,2.5,8.9,0.4c1.1-0.9,1.5-2.3,1.8-3.7
			c0.4-1.9,0.7-3.8,1-5.7c0.3-1.8,0.6-3.6,1-5.3c0.3-1.7,0.7-3.4,0.6-5.2c-0.2-4-3-6-6-8.1c-3.4-2.3-6.8-4.3-10.4-6.2
			c-1.2-0.6-2.6-1.3-3.2-2.6c-0.7-1.5-0.4-3.4-0.2-5c0.4-3.9,1-7.9,1.7-11.7c4.9,2,10,3.9,15,5.6c2.9,1,5.9,1.7,8.8,2.7
			c0.8,0.3,1.8,0.6,2.1,1.5c0.5,1.2,0.1,2.8-0.1,4.1c-1.5,12.7-3.3,25.3-4.5,38c-0.6,6.6-1.1,13.1-1.2,19.7
			c-1.5,0.1-2.9,0.2-4.4,0.3C808.5,225,806.9,224.8,805,224.2z M846.6,172.9c-0.4,8.3-2.3,16.4-3.1,24.6c-0.4,4.1-0.6,8.2-0.7,12.3
			c-8.1,4.8-16.1,9.6-24.2,14.4c0.4-12.5,1.7-24.9,3.2-37.3c0.8-6.7,1.7-13.3,2.5-20c0.2-1.3,0.3-2.7,0.1-3.9c0.1,0,0.1,0,0.2-0.1
			c4.1-2.4,8.1-4.8,12.2-7.2c2-1.2,3.9-2.3,5.9-3.5c1.3-0.8,2.7-1.8,4.2-2.5C846.9,157.4,847,165.2,846.6,172.9z"/>
		<path d="M759,328.7c-0.1-0.2-0.2-0.2-0.1,0.2c0,0,0.1,0.1,0.1,0.1c0,0,0,0,0-0.1C759,328.8,759,328.7,759,328.7z"/>
		<path d="M847.6,298.1c-1-2.5-2.8-4.5-4.7-6.4c-2.4-2.2-4.9-4.4-7.3-6.5c-0.7-0.6-1.8-0.7-2.5-0.1c-8.3-0.8-16.7-1.5-25-2.3
			c-0.1,0-0.1,0-0.2,0c-0.3-4.6-0.6-9.2-0.9-13.9c0,0,0,0,0,0c0.1-0.5,0.1-1.1,0-1.7c-0.3-2.5-1.9-4.5-3.8-6c0-0.6-0.3-1.3-0.9-1.5
			c-3.7-1.7-7.9-2-11.9-0.7c-2.5,0.8-6.2,2.7-7.1,5.3c0,0,0,0.1,0,0.1c0,0,0,0,0,0c0,0.1-0.1,0.3-0.1,0.4c-1.5,5.9-2.2,12-1.9,18
			c-12.5,0.2-25,1.5-37.2,4c-0.9,0.2-1.3,0.8-1.3,1.6c-1,1.2-1.2,3.1-1.6,4.5c-0.5,2.1-0.9,4.3-1.1,6.5c-0.5,4.2-0.5,8.4,0,12.6
			c0,0.2,0.1,0.4,0.2,0.6c-0.1,0.3-0.1,0.6,0,1c0.9,3.2,2.9,5.8,5.1,8c2.6,2.6,5.4,5.1,8.1,7.6c1.6,1.5,4.1,4,6.4,3.5
			c0.7,0.5,1.6,0.6,2.3-0.2c0.8-0.9,2.2-1.1,3.4-1.4c1.5-0.3,2.9-0.5,4.4-0.7c3.2-0.4,6.4-0.4,9.5-0.2c0.8,0,1.3-0.3,1.6-0.8
			c1,0,1.8-0.9,1.8-1.9c-0.2-4.9,0-9.9,0.6-14.8c3.7,0.8,7.4,1.2,11.2,1.1c4.3-0.1,8.5-1,12.7-2c4-1,8-2.2,12.2-2.4
			c2-0.1,4-0.1,5.9,0.4c1.5,0.3,2.9,0.9,4.4,1.3c1.1,4.4,0.7,8.9-1.1,13c-0.4,0.9,0.4,2.1,1.3,2.3c0.5,0.1,0.9,0.1,1.3-0.1
			c0.5,0.5,1.2,0.7,1.8,0.5c4-1.4,8.2-2.3,12.3-2.7c0.2,0,0.5-0.1,0.7-0.2c0.1,0,0.1,0,0.2,0.1c0.9,0.3,2.1-0.3,2.3-1.3
			c1.4-7.7,1.5-15.5,0.3-23.3C848.9,298.7,848.3,298.2,847.6,298.1z M833.2,288.9c0.3,0,0.5,0,0.7-0.1c2,1.8,4,3.5,6,5.3
			c0.9,0.9,2,1.9,2.7,2.8c0.7,0.9,1.3,2.1,1.7,3.1c-0.3-0.1-0.7-0.1-1.2,0c-4.7,1.7-9.7,1.5-14.6,1c-5.1-0.5-10.2-1-15.4-1
			c-10.5,0.1-21,1.8-31.3,3.6c-5.9,1-11.8,2-17.8,3c-0.2,0-0.4,0.1-0.5,0.2c-0.3-0.3-0.5-0.6-0.8-0.9c-1.2-1.4-2.4-2.9-3.7-4.3
			c-2.5-2.8-5.1-5.6-7.7-8.3c-1.1-1.1-2.2-2.3-3.4-3.4c11.2-2.1,22.6-3.2,34.1-3.3c0.3,0,0.5-0.1,0.7-0.1c0.2,0.1,0.4,0.1,0.6,0.1
			c0.9,0,2-0.9,1.9-1.9c-0.4-4.8-0.2-9.6,0.6-14.3c2,2,4.5,3.4,7.1,4.1c3.4,0.9,7.5,0.9,10.6-1c0.2,3.7,0.5,7.4,0.7,11.1
			c0.1,1,0.8,1.9,1.9,1.9c0.3,0,0.7-0.1,1-0.3c0.3,0.2,0.6,0.3,1,0.4C816.4,287.4,824.8,288.1,833.2,288.9z M787.6,264.6
			c1.1-0.9,2.3-1.5,3.6-2c2.8-0.9,5.9-1,8.6,0.1c0,0.4,0.2,0.8,0.5,1c1.8,1.4,4.3,4.1,1.8,6.1c-2,1.6-5.2,1.7-7.6,1.2
			c-2.6-0.6-5-1.9-6.8-4c-0.3-0.4-0.9-0.9-1-1.5c0-0.1,0-0.1,0.1-0.2c0,0,0-0.1,0-0.1C787.1,265,787.4,264.8,787.6,264.6z
			 M758.9,329.2c0-0.1,0-0.2,0-0.3c-0.3-0.2-0.7-0.3-0.9-0.5c-1.9-1.6-3.7-3.4-5.5-5.1c-3.3-3-7.5-6.1-8.7-10.7c0-0.1,0-0.1-0.1-0.2
			c0-0.2,0.1-0.3,0-0.5c-0.4-3.6-0.5-7.3-0.2-10.9c0.2-1.8,0.4-3.5,0.8-5.3c0.2-0.9,0.4-1.8,0.6-2.7c0.1-0.2,0.1-0.5,0.2-0.7
			c0.3,0.3,0.5,0.6,0.7,0.8c0.8,0.8,1.7,1.7,2.5,2.5c1.6,1.7,3.3,3.4,4.8,5.1c1.6,1.8,3.3,3.6,4.9,5.4c0.7,0.8,1.4,1.7,2.1,2.5
			c0.7,0.8,1.8,1.7,2.2,2.7c0.4,0.8-0.1,2-0.3,2.8c-0.3,1.3-0.5,2.6-0.8,3.9c-0.5,2.4-1,4.8-1.5,7.3c-0.2,1-0.7,2.2-0.7,3.3
			c0.2,0.3,0.3,0.9,0,0.3c0,0,0-0.1-0.1-0.1C759,329,758.9,329.1,758.9,329.2z M819.6,305.7c-4,0.3-8,1.2-11.9,2.2
			c-4,1-8,2-12.1,2.2c-4.4,0.2-8.8-0.3-13.1-1.4c-1.5-0.4-2.4,0.9-2.3,2c-0.2,0.2-0.3,0.4-0.3,0.7c-0.7,5-1,10-0.8,15.1
			c-3.4-0.2-6.8-0.1-10.2,0.4c-1.8,0.2-3.6,0.5-5.3,0.9c-0.2,0-0.3,0.1-0.5,0.1c0-0.3,0.1-0.6,0.2-0.8c0.4-2.1,0.9-4.2,1.3-6.3
			c0.4-1.8,0.8-3.5,1.1-5.3c0.4-1.8,1-3.7,0.2-5.4c10.2-1.7,20.4-3.6,30.6-5c5.2-0.7,10.4-1.2,15.6-1.3c5.2-0.1,10.3,0.4,15.4,0.9
			c5.5,0.6,11.2,0.8,16.5-1c1.1-0.4,1.4-1.5,1.2-2.4c0.1,0,0.2,0.1,0.3,0.1c0.9,6.3,0.8,12.8-0.3,19c-4.1,0.3-8.1,1.1-12.1,2.4
			c1.2-4.1,1.3-8.6,0.3-12.7c0-0.1-0.1-0.3-0.2-0.4c0.1-1-0.5-2-1.8-2.1c-2-0.1-3.9-1.2-5.9-1.6
			C823.7,305.7,821.6,305.6,819.6,305.7z"/>
	</g>
	<g>
		<path d="M227.1,106.2C227.1,106.1,227.1,106.1,227.1,106.2C227.1,106.1,227.1,106.1,227.1,106.2z"/>
		<path d="M222.4,117c0.4,0.7,1.1,1.2,1.9,1.4c1.5,0.3,3.1,0.3,4.7,0.5c1,0.1,1.9-0.9,1.9-1.9c0-3.4,0.2-6.8,0.1-10.2
			c0-1.6-0.6-3.3-2.2-4.1c-1.3-0.6-2.7-0.5-4.1-0.3c-0.7,0.1-1.2,0.7-1.3,1.4c-0.9,0.2-1.6,0.9-1.6,1.8c0.1,3,0.1,6,0.2,8.9
			C222,115.5,222,116.3,222.4,117z M227.2,106.2C227.2,106.2,227.1,106.1,227.2,106.2C227.1,106.1,227.2,106.1,227.2,106.2
			C227.2,106.2,227.2,106.2,227.2,106.2z M226.1,106c0.2,0,0.4,0,0.6,0c0,0,0.1,0,0.1,0c0.1,0,0.1,0,0.1,0c0,0,0.1,0,0.1,0
			c0,0,0,0,0,0c0,0,0,0,0,0c0,0,0,0,0,0c0,0,0,0,0,0c0,0,0,0,0,0c0,0,0,0,0,0c0,0,0,0,0,0c0,0,0,0.1,0,0.1c0,0,0,0.2,0,0.2
			c0,0.7,0,1.3,0,2c0,2.1-0.1,4.3-0.1,6.4c-0.5,0-0.9-0.1-1.4-0.1c0-0.5,0-1.1,0-1.6c-0.1-2.3-0.1-4.7-0.2-7c0,0,0.1,0,0.1,0
			C225.8,106.1,226.1,106.1,226.1,106z"/>
		<polygon points="227.2,106.2 227.2,106.2 227.2,106.2 227.2,106.2 		"/>
		<path d="M227.2,106.4C227.2,106.3,227.2,106.3,227.2,106.4C227.2,106.3,227.2,106.3,227.2,106.4z"/>
		<path d="M227.2,106.2C227.2,106.2,227.2,106.2,227.2,106.2C227.1,106.2,227.1,106.2,227.2,106.2
			C227.1,106.2,227.1,106.2,227.2,106.2z"/>
		<path d="M233,159.8c0-0.6-0.2-1.1-0.6-1.4c0.1-0.1,0.1-0.2,0.1-0.3c0.1-0.2,0.1-0.5,0-0.7c0-0.2-0.1-0.5-0.2-0.7
			c-0.1-0.1-0.2-0.3-0.3-0.4c-0.2-0.2-0.5-0.4-0.8-0.5c0,0-0.1,0-0.1,0c-0.1-0.1-0.2-0.1-0.3-0.2c-0.2-0.1-0.4-0.2-0.7-0.2
			c-0.2-0.1-0.5,0-0.7,0c-0.1,0.1-0.3,0.1-0.4,0.2c-0.1,0.1-0.2,0.1-0.3,0.2c-0.5-0.3-1.1-0.6-1.6-0.9c-0.6-0.5-1.1-1-1.6-1.6
			c-0.3-0.4-0.9-0.5-1.3-0.5c-0.5,0-1,0.2-1.3,0.5c-0.3,0.3-0.5,0.7-0.5,1c-0.5,0.3-0.9,0.8-0.9,1.6c0.2,20.2,0.4,40.3,0.6,60.5
			c-0.6-0.5-1-1-1.4-1.7c-0.7-1.4-0.7-3-0.9-4.6c-0.2-1.6-0.5-3.2-1.3-4.6c-0.4-0.7-0.9-1.3-1.5-1.8c-0.1-0.1-0.3-0.3-0.5-0.4
			c0.1-0.7,0.3-1.3,0.4-2c0.3-1.6,0.6-3.2,0.8-4.8c0.2-1.6,0.8-3.7-0.1-5.1c-0.9-1.5-2.5-2-4.1-1.9c0-0.1,0-0.2-0.1-0.2
			c-0.5-1.4-1-2.8-1.5-4.1c-0.3-0.7-0.5-1.5-0.8-2.2c-0.3-0.7-0.5-1.4-1.2-1.8c-1.3-0.8-3.2-0.1-4.4,0.5c-1.1,0.5-2.2,1.3-3.1,2
			c-1,0.8-2,1.8-2.2,3.2c-0.3,1.5,0.2,2.9,0.9,4.3c0.4,0.7,0.8,1.4,1.2,2.1c-1.9,0.4-3.8,2.6-4.7,4.1c-1.7,2.9-1.4,6.2-0.7,9.4
			c0.3,1.5,0.8,3.1,0.8,4.6c0,1.4-1,1.2-2.1,1.7c-1.3,0.6-1.9,1.7-2.3,3c-0.1,0.4-0.2,0.8-0.4,1.2c0-4.1,0-8.2-0.1-12.3
			c-0.2-21.7-0.7-43.4-1.4-65c-0.4-12.2-1-24.4-1.6-36.6c0,0,0-0.1,0-0.1c0-0.1,0-0.3,0-0.4c0-1-0.8-1.9-1.9-1.9c-1.7,0-3.5,0-5.2,0
			c-1,0-1.9,0.9-1.9,1.9c0,0.4,0.2,0.8,0.4,1.1c0.8,22,1.3,44,1.7,65.9c0.4,22.2,0.6,44.4,0.6,66.6c0,12.5,0,25-0.1,37.4
			c0,0.8,0.4,1.3,1,1.6c1.2,3.1,3,6,4.9,8.7c2.2,3,4.5,6,6.7,9c0.6,0.8,1.6,1.2,2.6,0.7c0,0,0,0,0,0c0.8,0.2,1.7-0.1,2.1-0.8
			c0.3-0.7,0.7-1.2,1.4-1.6c0.6-0.4,1.2-1.4,0.9-2.1c-1.6-3.7-3.3-7.3-5.4-10.8c0.4,0.1,0.8,0.2,1.3,0.3c1.5,0.2,2.9-0.4,4.1-1.4
			c0.5-0.4,1-1,1.5-1.5c0.2-0.2,0.4-0.5,0.6-0.8c0.3,0.3,0.7,0.6,1,0.9c0.7,0.5,1.3,1,2,1.4c1.5,0.9,3.1,1.4,4.8,1.5
			c1.5,0.1,3.1-0.2,4.4-1c0.1-0.1,0.2-0.1,0.3-0.2c-1.5,2.8-3,5.7-4.6,8.5c-0.9,1.5,0.6,2.9,1.9,2.8c0.6,0.9,1.3,1.8,1.9,2.7
			c0.3,0.4,0.6,0.7,1.1,0.9c0.4,0.1,0.8,0.1,1.2-0.1c0.8,0,1.4-0.6,1.7-1.4c2.8-6.9,6.5-13.5,10.8-19.5c0.9,0,1.8-0.6,1.8-1.8
			c-0.1-28.6-0.2-57.2-0.3-85.7C233.1,176,233.1,167.9,233,159.8z M214.4,193.3C214.4,193.3,214.4,193.3,214.4,193.3
			C214.4,193.3,214.4,193.3,214.4,193.3C214.4,193.3,214.4,193.3,214.4,193.3C214.4,193.3,214.4,193.3,214.4,193.3z M214.4,193.3
			C214.4,193.3,214.4,193.3,214.4,193.3C214.4,193.3,214.4,193.3,214.4,193.3z M214.1,193.3C214,193.3,214.1,193.3,214.1,193.3
			L214.1,193.3z M214.1,193.3C214.2,193.3,214.2,193.3,214.1,193.3c0.1,0,0.2,0,0.3,0.1c0,0,0,0.1,0,0.1c-0.1,0.4-0.1,0.9-0.1,1.3
			c-0.2,1.6-0.4,3.2-0.7,4.8c-0.1,0.6-0.2,1.1-0.3,1.7c-0.5,0.4-0.9,1.1-0.9,1.8c0,0-0.1,0-0.1,0c-0.8-0.2-1.5-0.5-2.3-0.7
			c-0.7-0.2-1.4-0.5-2.1-0.8c-0.1,0-0.2-0.1-0.3-0.1c0.1-0.3,0.2-0.6,0.2-0.6c0.1-0.4,0.3-0.8,0.4-1.2c0.3-0.7,0.5-1.5,0.8-2.2
			c0.4-1.2,0.9-2.3,1.3-3.5c1.2-0.4,2.5-0.7,3.6-0.8C213.9,193.3,214,193.3,214.1,193.3z M205.1,186.2c0.7-0.5,1.7-1.3,2.7-1.6
			c0,0.1,0.1,0.3,0.1,0.4c0.2,0.6,0.4,1.2,0.7,1.8c0.4,1.1,0.8,2.2,1.2,3.3c-0.4,0.1-0.8,0.2-1.1,0.4c-0.9,0-1.6,0.6-1.9,1.4
			c-0.2,0.4-0.3,0.9-0.5,1.3c-0.1-0.3-0.2-0.6-0.4-0.9c-0.6-1.3-1.6-2.5-2.1-3.9C203.6,187.3,204.2,186.8,205.1,186.2z M192.8,282.5
			c-1.9-2.6-3.8-5.4-4.9-8.5c-0.1-0.4-0.4-0.7-0.7-0.9c0.2-22,0.2-43.9,0-65.9c-0.2-22.2-0.6-44.4-1.1-66.6c-0.3-12-0.7-24-1.1-36
			c0.4,0,0.7,0,1.1,0c1.1,21.3,1.8,42.6,2.3,63.9c0.5,21.7,0.8,43.4,0.7,65.1c0,12.2-0.1,24.4-0.4,36.6c0,0.5,0.1,0.8,0.4,1.1
			c-0.1,0.4,0,0.8,0.2,1.2c3.8,5.2,7,10.7,9.6,16.6c-0.2,0.2-0.4,0.5-0.6,0.7C196.4,287.4,194.6,284.9,192.8,282.5z M217.5,272.5
			c-1,1-1.6,2.2-3.1,2.5c-2.9,0.6-5.3-1.5-7.4-3.2c-1.3-1-2.8-1.3-4,0c-0.8,0.9-1.5,2-2.5,2.8c-2.3,1.7-5-2.9-6.2-4.4
			c-0.4-0.5-1.2-0.6-1.8-0.5c0.1-3.8,0.1-7.5,0.2-11.3c0.8-0.2,1.4-0.8,1.6-1.6c0,0,0.1,0,0.1,0c0.5-0.2,1-0.4,1.4-0.6
			c0.9-0.5,1.7-1.2,2.3-1.9c1.5-1.8,1.8-4,2-6.2c0.1-1.3,0.3-3.7,1.7-4.2c0.6-0.3,1.5,0,2.2,0.1c0.9,0.1,1.8,0,2.6-0.5
			c2.2-1.4,1.3-4.1,1.1-6.2c-0.1-2,0-4,1.4-5.5c3-3,7.4-1.6,9.9,1.2c1.6,1.8,4.2-0.8,2.7-2.7c-2.5-2.9-6.4-4.6-10.2-3.9
			c-3.7,0.7-6.8,3.6-7.4,7.4c-0.2,1-0.2,2.1-0.1,3.1c0.1,1,0.1,2.2,0.3,3.1c-0.3,0-0.7,0-0.9,0c-0.9-0.1-1.7-0.1-2.5,0.1
			c-1.7,0.5-2.9,1.9-3.6,3.5c-0.8,1.8-0.7,3.6-1,5.5c-0.3,2.1-1.3,3.5-3.3,4.1c0,0-0.1,0-0.1,0c0.1-10.3,0.1-20.6,0.1-30.8
			c0.3-0.1,0.6-0.2,0.9-0.4c1-0.9,1.8-1.9,2.4-3.1c0.3-0.7,0.5-2.3,1-2.7c0.3-0.3,1-0.3,1.4-0.5c0.6-0.3,1.1-0.6,1.6-1.1
			c0.9-1,1.2-2.3,1.2-3.5c0-2.8-1.2-5.5-1.3-8.3c-0.1-1.3,0.1-2.7,0.8-3.9c0.3-0.5,0.6-0.9,0.9-1.3c0.2-0.2,0.4-0.4,0.7-0.6
			c0.1-0.1,0.1-0.1,0.2-0.2c0.1,0,0.1,0,0.1-0.1c0.4,0.2,0.8,0.2,1.1,0c0.1,0.3,0.2,0.7,0.3,1c0.1,0.2,0.2,0.4,0.3,0.6
			c0,0.1-0.1,0.2-0.1,0.3c-0.3,0.8-0.6,1.5-0.8,2.3c-0.4,2,0.9,3.2,2.6,3.9c1.5,0.6,3,1.1,4.6,1.5c1.3,0.4,3,1.1,4.2,0.4
			c0.7,0.8,1,1.9,1.2,3.1c0.3,2.2,0.4,4.3,1.3,6.3c0.9,1.8,2.4,3.3,4.2,4.2c0.2,0.1,0.4,0.1,0.5,0.2c0.1,7.5,0.2,15,0.2,22.4
			c0.1,8.1,0.2,16.3,0.3,24.4c0,0,0,0,0,0c-0.6,1.1-1.1,2.3-1.7,3.4C219.7,271,218.5,271.6,217.5,272.5z M229.1,268.8
			c-4.3,5.7-7.8,11.9-10.7,18.5c-0.3-0.4-0.5-0.7-0.8-1.1c-0.1-0.1-0.1-0.2-0.2-0.3c3.1-5.5,6-11.1,8.8-16.8
			c0.1-0.3,0.2-0.6,0.2-0.9c0.1-0.2,0.1-0.4,0.1-0.6c-0.3-29.1-0.6-58.2-0.9-87.3c-0.1-7.4-0.2-14.8-0.2-22.2c1,0.7,2.1,1.2,3.3,1.6
			c0.2,0.1,0.5,0.1,0.7,0.1c0,0,0,0,0,0c0.1,28.6,0.2,57.2,0.3,85.7c0,7.6,0.1,15.1,0.1,22.7C229.5,268.4,229.3,268.6,229.1,268.8z"
			/>
		<path d="M269.4,111.8c-11.9,14.2-23.8,28.5-35.7,42.7c-0.7,0.8-0.5,1.7-0.1,2.4c0,0.1,0,0.2,0,0.3c0.1,3.3,0.2,6.6,0.4,10
			c0,1,0.8,1.9,1.9,1.9c1,0,1.9-0.8,1.9-1.9c-0.1-3.3-0.2-6.6-0.4-10c0-0.3-0.1-0.6-0.3-0.9c11.7-14,23.3-27.9,35-41.9
			C273.5,112.6,270.9,109.9,269.4,111.8z"/>
		<path d="M191.5,108.9c-0.5,0.6-0.7,1.5-0.2,2.1c3,3.9,7.4,6,12.3,6.4c5.4,0.4,10.6-1.5,15.3-4c1-0.6,1.1-1.6,0.7-2.4
			c-0.8-16.2-0.2-32.5,1.6-48.6c0.1-1-0.9-1.9-1.9-1.9c-1.1,0-1.8,0.9-1.9,1.9c-1.8,16.1-2.4,32.2-1.6,48.4
			c-6.4,3.1-15.6,5-20.8-1.1c0.1-0.3,0.2-0.6,0.2-0.9c-0.1-15.5-0.3-30.9-0.7-46.3c-0.1-2.4-3.8-2.4-3.8,0
			c0.4,15.4,0.6,30.9,0.7,46.3C191.5,108.8,191.5,108.8,191.5,108.9z"/>
		<path d="M276.6,60.8c-2.2-0.5-4.4-1.2-6.4-2.3c-1-0.5-2-1.3-3.1-1.7c-1.1-0.4-2.4,0-3.2,0.8c-1.6,1.5-1.9,4-2.7,5.9
			c-0.3,0.8-0.7,1.6-1,2.4c0-0.2,0-0.4,0-0.6c-0.1-1,0-2.1-0.4-3c-0.7-2.1-2.8-2.6-4.8-2.5c-2.1,0.1-4.1,0.6-6,1.3
			c-1.8,0.6-4.3,1.2-4.7,3.3c-0.8,4.7-0.6,9.7,0.1,14.4c0.1,1,1.4,1.6,2.3,1.3c0.2-0.1,0.4-0.2,0.6-0.3c1.1,0.1,2.2,0.2,3.4,0.2
			c-0.6,0.7-1.2,1.4-1.9,2.1c-1,1.2-2.7,2.6-2.8,4.3c-0.1,1.7,1.5,3,2.6,4c1.2,1.1,2.5,2,3.8,2.8c0.8,0.5,1.8,1.1,2.8,1.2
			c-1.4,0.4-2.7,1.2-3.6,2.5c-1.4,1.9-1.7,4.4-1.9,6.7c-0.9,0-1.8-0.1-2.7-0.1c-1.9-0.1-4.5-0.7-6.1,0.5c-1.5,1.2-1.9,3.8-2.3,5.6
			c-1.1,4.6-1.4,9.4-0.9,14.2c0.1,0.9,0.7,1.8,1.7,1.9c0.2,0.2,0.3,0.4,0.5,0.5c0.9,0.5,2,0.2,2.6-0.7c0.9-1.3,2.8-1.7,4.3-1.9
			c1.9-0.3,4.1-0.2,5.6-1.6c1.4-1.3,1.4-3.6,1.7-5.4c0.1-0.8,0.2-1.7,0.3-2.5c0.8,0.2,1.6,0.5,2.4,0.7c0.9,0.2,2,0.6,2.9,0.4
			c1-0.2,1.6-0.8,2.2-1.5c0.7-0.8,1.5-1.6,2.2-2.5c2.8-3.1,5.6-6.3,8.4-9.4c0.7-0.8,0.8-2.4-0.4-2.9c-4.5-2.1-9.4-3.9-14.4-4.5
			c-0.4,0-0.8,0-1.1,0c0.2-0.1,0.5-0.3,0.7-0.5c0.5-0.5,0.8-1.3,1.2-1.9c0.4-0.7,0.9-1.3,1.3-2c0.9-1.2,1.9-2.3,2.9-3.3
			c1-1,2.3-1.8,3.3-2.8c1.4-1.4,1.8-3.7,0.3-5.3c-0.6-0.7-1.5-1.1-2.3-1.7c-0.9-0.6-1.7-1.2-2.6-1.7c-0.2-0.1-0.4-0.2-0.6-0.2
			c0-0.1,0-0.2,0-0.3c0-0.2,0-0.5,0-0.7c1.6,0.7,3.3,0.8,4.8,1.7c0.8,0.5,1.3,1.3,2,1.9c1,0.9,2.6,1.1,3.5,0c0.4-0.4,0.6-1,0.8-1.5
			c0.3-0.7,0.6-1.3,0.9-2c0.5-1.2,1.1-2.4,1.6-3.6c1.1-2.4,2.2-4.8,3.2-7.2C278.2,62.5,277.9,61.1,276.6,60.8z M243.1,107.4
			C243.1,107.4,243.1,107.4,243.1,107.4C243,107.4,243.1,107.4,243.1,107.4z M251,108.5c0,1-0.1,1.9-0.2,2.9
			c-0.1,1.8-0.3,3.7-0.6,5.5c-0.1,0.7-0.2,1.5-0.3,2.2c-0.1,0.6-0.3,0.6-0.9,0.7c-1.8,0.4-3.6,0.4-5.4,1c-0.9,0.3-1.7,0.7-2.4,1.2
			c-0.2-2.7-0.1-5.5,0.4-8.2c0.3-1.8,0.7-3.6,1.2-5.3c0.1-0.3,0.3-0.7,0.4-1.1c0.3,0,0.9,0,1,0c0.5,0,1,0.1,1.5,0.1
			c1.7,0.1,3.4,0.1,5.1,0.3c0,0,0.2,0,0.3,0C251.1,108,251,108.3,251,108.5z M258.9,98.6c3.1,0.7,6.2,1.6,9.1,2.8
			c-1.8,2.1-3.7,4.2-5.5,6.3c-0.6,0.7-1.2,1.4-1.8,2c-0.3,0.3-0.6,0.7-0.9,1c-0.2,0.3-0.7,0.6-0.9,1c0,0,0,0,0,0.1c0,0,0,0-0.1,0
			c-0.3-0.2-0.9-0.2-1.3-0.3c-0.9-0.2-1.8-0.5-2.7-0.7c-0.1,0-0.2,0-0.3,0c0-0.1,0-0.2,0-0.3c0.1-1.9,0.4-4.2-1.4-5.4
			c0-0.2,0.1-0.3,0.1-0.5c0.1-1.7,0.2-3.6,1.3-5C255.8,97.9,257.3,98.2,258.9,98.6z M266.5,60.4C266.6,60.2,266.7,60.3,266.5,60.4
			L266.5,60.4z M257,77.2C257,77.2,257,77.1,257,77.2C257,77.2,257,77.2,257,77.2z M256.4,63.7C256.4,63.7,256.4,63.7,256.4,63.7
			L256.4,63.7z M247.7,68c0.1-0.7,0.1-1.5,0.2-2.2c0,0,0-0.1,0-0.1c0.3-0.1,0.8-0.4,0.9-0.4c1.5-0.6,3.1-1.2,4.7-1.5
			c0.7-0.1,1.4-0.2,2.1-0.2c0.2,0,0.4,0,0.5,0c0.1,0,0.1,0,0.1,0c0.3,1.5,0.3,3,0.4,4.5c0.1,1.7,0.2,3.4,0.3,5.1
			c0,0.8,0.1,1.5,0.1,2.3c0,0.3,0,0.7,0,1c0,0,0,0.1,0,0.2c-0.3,0-0.7,0-1,0c-1-0.1-1.9-0.1-2.9-0.2c-1.8-0.1-3.7-0.3-5.5-0.4
			C247.5,73.5,247.5,70.7,247.7,68z M262,80.3c0.4,0.3,0.8,0.5,1.2,0.8c0.1,0.1,0.2,0.1,0.3,0.2c0,0.1-0.1,0.1-0.1,0.2
			c-0.2,0.3-0.6,0.5-0.9,0.7c-0.7,0.5-1.4,1.1-2,1.7c-1.2,1.1-2.3,2.4-3.3,3.7c-0.5,0.7-1,1.4-1.5,2.1c-0.2,0.3-0.4,0.7-0.6,1.1
			c0,0-0.1,0-0.1-0.1c-0.3-0.1-0.5-0.3-0.8-0.4c-0.6-0.4-1.2-0.7-1.7-1.2c-0.4-0.3-0.8-0.7-1.2-1c-0.3-0.3-0.6-0.5-0.9-0.8
			c-0.1-0.1-0.3-0.3-0.4-0.5c0.1-0.2,0.3-0.3,0.3-0.4c0.5-0.6,1-1.1,1.5-1.7c1.1-1.2,2.1-2.4,3.2-3.7c0.1-0.1,0.2-0.2,0.3-0.4
			c1.6,0.2,3.4,0.3,4.6-0.8c0.2-0.2,0.4-0.4,0.5-0.7C260.8,79.5,261.4,79.9,262,80.3z M271.3,68.6c-0.5,1.1-1,2.3-1.5,3.4
			c-0.2,0.5-0.5,1.1-0.7,1.6c0,0,0,0.1,0,0.1c-0.1-0.1-0.2-0.2-0.2-0.2c-0.7-0.6-1.5-1.1-2.3-1.5c-1.4-0.6-3.1-0.8-4.4-1.5
			c0.8-1.5,1.6-3,2.3-4.6c0.4-1,0.8-2,1.2-3c0.3-0.8,0.4-1.7,0.9-2.4c0,0,0,0,0,0c0.2,0.1,0.3,0.2,0.5,0.3c0.9,0.5,1.7,1,2.6,1.4
			c1.3,0.6,2.7,1.1,4,1.5C272.8,65.4,272.1,67,271.3,68.6z"/>
		<path d="M225.5,126.9c-1.5-0.8-3.4-1.4-5-0.3c-0.9,0.6-1.2,1.6-1.5,2.5c-0.4,1.1-0.7,2.2-1.1,3.3c-0.5,1.4-0.9,2.8-1.4,4.2
			c-2.5-0.3-5-0.1-7.4,0.5c-0.8-0.2-1.5,0.2-2,0.9c-1.3,1.7-2.5,3.6-3.6,5.5c-0.5,0.9-1.1,1.9-1.6,2.9c-0.5,1.1-1.2,2.3-1.3,3.5
			c-0.1,2.3,1.7,3.8,3.2,5.2c1.6,1.5,3.4,2.9,5.4,3.8c1.1,0.5,2.3,0.1,2.8-1.1c0.9-2.7,2.1-5.2,3.6-7.6c0.4-0.7,0.9-1.3,1.3-2
			c1.2,0.8,2.6,1.6,4,1.8c2.2,0.4,3.5-1.2,4.9-2.6c1.4-1.4,2.9-2.9,4.3-4.3c1.4-1.4,3-2.8,4.3-4.3c0.6-0.7,1-1.7,0.8-2.6
			c-0.2-1-0.9-1.7-1.5-2.5c-1.1-1.3-2.3-2.6-3.7-3.6C228.6,128.8,227.1,127.7,225.5,126.9z M222.5,129.6c0,0-0.1,0-0.1,0
			C222.4,129.6,222.4,129.6,222.5,129.6z M209.2,154.4c-0.8-0.5-1.6-1.1-2.3-1.8c-0.6-0.6-1.3-1.1-1.9-1.8c-0.5-0.5-0.7-0.8-0.4-1.4
			c1.3-3.1,3.1-6,5.1-8.7c0,0,0.1,0,0.1,0c1.9-0.6,4-0.8,6-0.6c0.4,0.7,1.2,1,2,0.9c-0.7,0.8-1.5,1.6-2.2,2.5
			C212.9,146.9,210.8,150.5,209.2,154.4z M230,137.9c-1.4,1.4-2.8,2.8-4.2,4.2c-0.7,0.7-1.5,1.5-2.2,2.2c-0.3,0.3-0.6,0.6-0.8,0.8
			c-0.3,0.3-0.7,0.9-1,1c-0.3,0.1,0.1,0.2-0.5,0c-0.4-0.2-0.8-0.3-1.1-0.5c-0.3-0.1-0.5-0.3-0.8-0.5c0.4-0.5,0.9-1,1.3-1.5
			c1-1.1,1.7-2.6,1.3-4.1c-0.3-1-1-1.6-1.8-2c0.4-1.1,0.8-2.3,1.1-3.4c0.3-0.8,0.6-1.7,0.8-2.5c0.2-0.5,0.3-1,0.5-1.5
			c0-0.1,0.1-0.2,0.1-0.4c0.9,0.4,3.2,1.8,3.5,2c1.4,1,2.7,2.1,3.8,3.3c0.5,0.5,0.9,1.1,1.3,1.6c-0.1,0.1-0.1,0.1-0.2,0.2
			C230.7,137.1,230.4,137.5,230,137.9z"/>
		<path d="M208.7,165.2c-0.7-1.8-1.1-4.3-3.2-5c-1.8-0.6-4,0.3-5.6,1c-1.8,0.8-3.4,1.9-4.8,3.2c0,0,0,0,0,0
			c-0.1,0.1-0.1,0.1-0.2,0.2c-0.9,0.8-0.7,1.9,0,2.6c0.9,3.6,1.9,7.2,2.8,10.8c0.2,0.9,0.4,1.8,0.8,2.6c0.6,1,1.7,1.4,2.8,1.1
			c1.9-0.6,3.8-1.5,5.7-2.3c1.6-0.6,4-1.1,4.9-2.8c1-1.8-0.4-4-1-5.6C210.1,169.1,209.4,167.1,208.7,165.2z M204.2,163.7
			C204.4,163.7,204.3,163.8,204.2,163.7L204.2,163.7z M204.2,176.5c-0.7,0.3-1.3,0.5-2,0.8c-0.2,0.1-0.5,0.2-0.8,0.4
			c-0.2-0.6-0.3-1.2-0.5-1.8c-0.3-1.2-0.6-2.4-1-3.5c-0.5-2-1-3.9-1.5-5.9c1.5-1.2,3.2-2.1,5-2.5c0.2,0,0.4-0.1,0.5-0.1
			c0,0,0.1,0,0.1,0c0.2,0.4,0.3,0.9,0.5,1.3c0.5,1.4,1.1,2.7,1.6,4.1c0.5,1.4,1.1,2.7,1.6,4.1c0,0.1,0.3,1.1,0.5,1.6
			c-0.1,0-0.2,0.1-0.2,0.1C206.8,175.5,205.5,176,204.2,176.5z"/>
		<path d="M298.1,61.4c-2.6-0.7-5.1-1.5-7.7-2.2c-1.2-0.3-2.5-0.8-3.7-0.8c-1.2,0.1-2.3,0.7-3.1,1.6c-0.7,0.9-1.2,1.9-1.6,2.9
			c-0.5,1.2-1,2.4-1.4,3.6c-0.9,2.5-1.5,5.1-1.7,7.7c0,0.5,0.1,0.8,0.3,1.1c0,0.6,0.2,1.2,0.9,1.6c2.1,1.3,4.4,2.4,6.7,3.4
			c1.2,0.5,2.4,1,3.7,0.6c1.2-0.4,1.7-1.5,2.2-2.6c2.2-4.7,4.4-9.5,6.6-14.2C299.7,63.1,299.3,61.8,298.1,61.4z M290.3,74.4
			c-0.4,0.9-0.8,1.9-1.3,2.8c-0.4-0.3-1-0.4-1.4-0.6c-1.7-0.7-3.4-1.6-5-2.5c0.1-2,0.7-4,1.3-6c0.6-1.8,1.2-3.9,2.2-5.5
			c0.3-0.5,0.5-0.6,1-0.6c1.1,0.2,2.2,0.6,3.2,0.9c1.5,0.4,3,0.9,4.5,1.3C293.4,67.8,291.9,71.1,290.3,74.4z"/>
	</g>
	<g>
		<polygon points="492,106.2 492,106.2 492,106.2 492,106.2 		"/>
		<path d="M491.9,106.2C491.9,106.1,491.9,106.1,491.9,106.2C491.9,106.1,491.9,106.1,491.9,106.2z"/>
		<path d="M492,106.4C492,106.3,492,106.3,492,106.4C492,106.3,492,106.3,492,106.4z"/>
		<path d="M492,106.2C492,106.2,492,106.2,492,106.2C491.9,106.2,491.9,106.2,492,106.2C491.9,106.2,491.9,106.2,492,106.2z"/>
		<path d="M498.3,157.2c0.1,3.3,0.2,6.6,0.4,10c0,1,0.8,1.9,1.9,1.9c1,0,1.9-0.8,1.9-1.9c-0.1-3.3-0.2-6.6-0.4-10
			c0-0.3-0.1-0.6-0.3-0.9c11.7-14,23.3-27.9,35-41.9c1.5-1.8-1.1-4.5-2.7-2.7c-11.9,14.2-23.8,28.5-35.7,42.7
			c-0.7,0.8-0.5,1.7-0.1,2.4C498.3,157,498.3,157.1,498.3,157.2z"/>
		<path d="M458.1,222.1c0,14.4,0.1,28.8,0.1,43.2c0,0.3,0,0.6,0.1,0.9c0.1,0.2,0.3,0.4,0.4,0.6c3.7,4.7,9.7,6.9,15.7,5.7
			c5.1-1,10.5-4.6,11.7-9.9c0.1-0.2,0.1-0.4,0.1-0.6c-0.3-26-0.4-52-0.3-78.1c0.1-24.5,0.4-49.1,0.8-73.6c0,1.5,0.1,2.9,0.1,4.4
			c0,0.8,0,1.6,0.4,2.4c0.4,0.7,1.1,1.2,1.9,1.4c1.5,0.3,3.1,0.3,4.7,0.5c1,0.1,1.9-0.9,1.9-1.9c0-3.4,0.2-6.8,0.1-10.2
			c0-1.6-0.6-3.3-2.2-4.1c-1.3-0.6-2.7-0.5-4.1-0.3c-0.7,0.1-1.2,0.7-1.3,1.4c-0.6,0.1-1.1,0.5-1.4,1c0.3-14.2,0.6-28.4,1-42.5
			c0.1-2.4-3.7-2.4-3.8,0c-0.7,25.9-1.3,51.9-1.6,77.8c-0.3,26-0.4,52-0.4,78.1c0,14.5,0.2,29,0.3,43.5c-1,3.9-5,6.3-8.7,7.1
			c-4.3,1-9-0.6-11.8-4c0-26-0.1-52-0.2-78c-0.1-27-0.2-54-0.3-81c-0.1-14.5-0.2-28.9-0.3-43.4c0-2.4-3.8-2.4-3.8,0
			c0.2,26.2,0.3,52.4,0.4,78.6C458,168.1,458.1,195.1,458.1,222.1z M492,106.2C492,106.2,491.9,106.1,492,106.2
			C491.9,106.1,492,106.1,492,106.2C492,106.2,492,106.2,492,106.2z M490.9,106c0.2,0,0.4,0,0.6,0c0,0,0.1,0,0.1,0
			c0.1,0,0.1,0,0.1,0c0,0,0.1,0,0.1,0c0,0,0,0,0,0c0,0,0,0,0,0c0,0,0,0,0,0c0,0,0,0,0,0h0c0,0,0,0,0,0c0,0,0,0,0,0c0,0,0,0.1,0,0.1
			c0,0,0,0.2,0,0.2c0,0.7,0,1.3,0,2c0,2.1-0.1,4.3-0.1,6.4c-0.5,0-0.9-0.1-1.4-0.1c0-0.5,0-1.1,0-1.6c-0.1-2.3-0.1-4.7-0.2-7
			c0,0,0.1,0,0.1,0C490.6,106.1,490.9,106.1,490.9,106z"/>
		<path d="M539.2,359.7c-0.3-9.4-0.7-18.8-1-28.1c-0.3-9.1-0.5-18.3-1.9-27.4c-0.8-5-1.9-9.9-3.4-14.7c-0.1-0.3-0.3-0.6-0.4-0.8
			c-0.3-0.4-0.8-0.6-1.4-0.6c-12.7-0.1-25.4,0-38,0.5c-2.2,0.1-4.4,0.2-6.6,0.4c2.7-6.2,6-12,10-17.4c0.9,0,1.8-0.6,1.8-1.8
			c-0.1-28.6-0.2-57.2-0.3-85.7c0-8.1-0.1-16.2-0.1-24.2c0-0.6-0.2-1.1-0.6-1.4c0.1-0.1,0.1-0.2,0.1-0.3c0.1-0.2,0.1-0.5,0-0.7
			c0-0.2-0.1-0.5-0.2-0.7c-0.1-0.1-0.2-0.3-0.3-0.4c-0.2-0.2-0.5-0.4-0.8-0.5c0,0-0.1,0-0.1,0c-0.1-0.1-0.2-0.1-0.3-0.2
			c-0.2-0.1-0.4-0.2-0.7-0.2c-0.2-0.1-0.5,0-0.7,0c-0.1,0.1-0.3,0.1-0.4,0.2c-0.1,0.1-0.2,0.1-0.3,0.2c-0.5-0.3-1.1-0.6-1.6-0.9
			c-0.6-0.5-1.1-1-1.6-1.6c-0.3-0.4-0.9-0.5-1.3-0.5c-0.5,0-1,0.2-1.3,0.5c-0.3,0.3-0.5,0.7-0.5,1c-0.5,0.3-0.9,0.8-0.9,1.6
			c0.3,29.1,0.6,58.2,0.9,87.3c0.1,8.1,0.2,16.3,0.3,24.4c0,0,0,0,0,0c-3,6.2-6.3,12.4-9.7,18.4c-0.9,1.5,0.6,2.9,1.9,2.8
			c0.3,0.4,0.6,0.8,0.9,1.2c-1.5,0.8-1,3,0.4,3.4c-0.1,5,0.5,9.9,1.9,14.7c0.2,0.7,1,1.4,1.8,1.4c5.7-0.4,11.4-0.3,17,0.5
			c2.7,0.4,5.4,0.8,8,1.5c2.4,0.6,4.2,1.7,5.4,3.9c2.6,4.6,4.2,9.9,5.3,15c0.3,1.2,0.3,2.5,0.7,3.6c0,0.1,0,0.2,0,0.2
			c-0.2,0.1-0.4,0.1-0.5,0.1c-0.7,0.1-1.5,0.2-2.3,0.3c-2.7,0.4-5.4,0.9-8.2,1.1c-1,0.1-2.3,0.1-3-0.6c-0.8-0.8-1-2.2-1.2-3.2
			c-0.8-3.1-1.6-6.3-2.4-9.4c-0.3-1-1.1-1.4-1.9-1.3c-8.9-2.8-18.1-1-27.1,0.4c-4.6,0.7-9.2,1.3-13.8,1.2c-4.6-0.1-9.3-0.5-13.7,0.7
			c-3.5,1-7,3.2-8.8,6.4c-0.5,0.8-0.8,1.7-1.1,2.6c-0.3,1-0.4,2-0.9,2.9c-0.8,1.4-2.6,1.4-4.1,1.2c-0.8-0.1-1.7-0.3-2.5-0.6
			c-1.1-0.3-1.3-0.5-1.4-1.6c-0.2-2.4-0.2-4.9,0-7.3c0.1-1.2,0.2-2.4,0.4-3.6c0.1-0.9,0.2-1.9,1.1-2.5c0.7-0.5,1.7-0.7,2.6-1
			c1.1-0.4,2.2-0.8,3.3-1.1c9.5-3.3,19.5-6.7,29.6-5.9c0.9,0.1,1.4-0.4,1.6-1c0.2-0.3,0.3-0.6,0.2-0.9c-0.6-5.9-1.7-11.7-3.3-17.4
			c0.3-0.1,0.5-0.3,0.7-0.5c0.4-0.1,0.7-0.4,0.9-0.8c0.3-0.7,0.7-1.2,1.4-1.6c0.6-0.4,1.2-1.4,0.9-2.1c-2.8-6.6-6.2-12.8-10.4-18.6
			c0,0-0.1-0.1-0.1-0.1c0-0.1,0-0.2,0-0.3c0.4-21.8,0.5-43.5,0.3-65.3c-0.2-21.7-0.7-43.4-1.4-65c-0.4-12.2-1-24.4-1.6-36.6
			c0,0,0-0.1,0-0.1c0-0.1,0-0.3,0-0.4c0-1-0.8-1.9-1.9-1.9c-1.7,0-3.5,0-5.2,0c-1,0-1.9,0.9-1.9,1.9c0,0.4,0.2,0.8,0.4,1.1
			c0.8,22,1.3,44,1.7,65.9c0.4,22.2,0.6,44.4,0.6,66.6c0,12.5,0,25-0.1,37.4c0,0.8,0.4,1.3,1,1.6c1.2,3.1,3,6,4.9,8.7
			c1.6,2.2,3.2,4.3,4.9,6.5c-3.1,0.3-6.2,0.9-9.3,0.9c-2.4,0-4.8-0.5-7.2-0.7c-2.3-0.2-4.7,0-7,0.2c-5.6,0.7-11.1,2.1-16.7,2.9
			c-1.3,0.2-2.5,0.3-3.8,0.5c-0.5,0-1.1,0.1-1.6,0.1c-0.2,0-0.3,0-0.5,0c0,0,0,0-0.1,0c-0.8-0.2-1.4,0-1.8,0.5
			c-0.3,0.3-0.6,0.7-0.6,1.3c-0.1,20.1,0.6,40.3,2.3,60.4c0,0.3,0.1,0.6,0.3,0.8c0.3,0.6,0.8,1,1.6,1c16.4,0.4,32.9,0.8,49.3,1.2
			c14.7,0.4,29.3,0.8,44,1.1c9.8,0.2,19.7,0.5,29.5,0.7c0.5,0,0.9-0.2,1.2-0.4C539,360.9,539.3,360.4,539.2,359.7z M493.4,159.8
			c0.2,0.1,0.5,0.1,0.7,0.1c0,0,0,0,0,0c0.1,28.6,0.2,57.2,0.3,85.7c0,7.6,0.1,15.1,0.1,22.7c-0.2,0.2-0.4,0.3-0.6,0.6
			c-4.3,5.7-7.8,11.9-10.7,18.5c-0.3-0.4-0.5-0.7-0.8-1.1c-0.1-0.1-0.1-0.2-0.2-0.3c3.1-5.5,6-11.1,8.8-16.8
			c0.1-0.3,0.2-0.6,0.2-0.9c0.1-0.2,0.1-0.4,0.1-0.6c-0.3-29.1-0.6-58.2-0.9-87.3c-0.1-7.4-0.2-14.8-0.2-22.2
			C491.1,158.9,492.2,159.4,493.4,159.8z M521.3,334.5C521.2,334.5,521.2,334.5,521.3,334.5L521.3,334.5z M452.7,274
			c-0.1-0.4-0.4-0.7-0.7-0.9c0.2-22,0.2-43.9,0-65.9c-0.2-22.2-0.6-44.4-1.1-66.6c-0.3-12-0.7-24-1.1-36c0.4,0,0.7,0,1.1,0
			c1.1,21.3,1.8,42.6,2.3,63.9c0.5,21.7,0.8,43.4,0.7,65.1c0,12.2-0.1,24.4-0.4,36.6c0,0.5,0.1,0.8,0.4,1.1c-0.1,0.4,0,0.8,0.2,1.2
			c3.8,5.2,7,10.7,9.6,16.6c-0.2,0.2-0.4,0.5-0.6,0.7c-1.8-2.4-3.7-4.9-5.5-7.3C455.6,279.8,453.8,277,452.7,274z M488.1,356.6
			c-14.7-0.4-29.3-0.8-44-1.1c-9.3-0.2-18.5-0.5-27.8-0.7c-1.5-18.8-2.2-37.6-2.1-56.5c1.2-0.1,2.3-0.3,3.4-0.4
			c2.7-0.3,5.4-0.8,8.1-1.3c2.6-0.5,5.1-1,7.7-1.5c2.3-0.4,4.6-0.6,7-0.6c2.4,0,4.8,0.4,7.2,0.6c4.3,0.4,8.4-0.7,12.7-0.9
			c1.4,5,2.4,10.1,3.1,15.3c-8.9-0.2-17.8,2.5-26.2,5.3c-2.3,0.8-4.5,1.5-6.7,2.3c-2.2,0.8-4,1.8-4.8,4.2c-0.8,2.4-0.8,5.1-0.9,7.6
			c-0.1,2.5-0.3,5.3,0.3,7.7c0.6,2.3,2.6,3,4.7,3.6c2,0.5,4.1,0.8,6.1,0.3c2.1-0.5,3.6-2,4.4-4.1c0.7-1.8,0.8-3.7,2-5.3
			c2.5-3.3,7-4.4,11-4.5c5-0.2,10,0.3,15.1-0.2c10.6-1.1,21.6-4.6,32.2-1.5c0.7,2.9,1.4,5.8,2.2,8.7c0.7,2.6,1.9,5.1,4.7,5.9
			c2.8,0.8,6-0.2,8.8-0.5c1.7-0.2,3.4-0.5,5-0.7c1.4-0.2,2.7-0.7,3.4-2c0.7-1.4,0.3-3,0.1-4.4c-0.3-1.6-0.6-3.1-1.1-4.7
			c-0.8-3.1-1.8-6.1-3.1-9.1c-1.2-2.8-2.3-5.8-4.8-7.7c-2.3-1.9-5.3-2.4-8.2-3c-7-1.4-14.2-1.9-21.4-1.5c-1.1-4.2-1.5-8.5-1.4-12.8
			c3.3-0.5,6.7-0.5,10.1-0.7c4.1-0.2,8.1-0.3,12.2-0.3c7.6-0.1,15.1-0.2,22.7-0.1c4.9,16.9,4.5,34.7,5.2,52.2
			c0.2,4.6,0.3,9.2,0.5,13.8C519.6,357.4,503.9,357,488.1,356.6z"/>
		<path d="M471.8,308.7c0.3,0.3,0.6,0.6,0.8,0.9c0.7,0.9,1.7,1.6,2.9,1.3c1.1-0.3,1.6-1.3,2.1-2.1c0.5-0.9,1-1.8,1.5-2.7
			c0.2-0.4,0.2-1-0.1-1.4c-0.3-0.4-0.8-0.5-1.3-0.4c-0.6,0.1-1.2,0.2-1.8,0.3c-0.2-2.8-0.5-5.6-0.9-8.4c-0.7-4.4-1.7-8.7-1.6-13.2
			c0-1.6-2.5-1.6-2.5,0c-0.1,4.4,0.7,8.7,1.5,12.9c0.5,3,0.8,6.1,1.1,9.1c-0.7,0.1-1.3,0.3-2,0.4c-0.3,0.1-0.5,0.3-0.7,0.5
			c-0.2,0.1-0.4,0.2-0.5,0.4c-0.3,0.6-0.2,1.4,0.4,1.7c0.2,0.1,0.4,0.2,0.6,0.3C471.6,308.5,471.6,308.6,471.8,308.7
			C471.5,308.5,471.8,308.7,471.8,308.7z"/>
	</g>
	<path d="M204.1,294.5c0-0.1,0-0.2,0-0.2c0,0.3,0,0.7,0,1c-0.1,0.2-0.1,0.3-0.2,0.5c-1.1-0.4-2.1-0.9-3.2-1.3c0,3,0,6.1,0.1,9.1
		c0,0.3-0.1,0.7,0,1c0,0.1,0,0.2,0,0.2c1.2-0.7,1.4-1,0.7-0.9c-0.5-0.2-1.4-0.1-1.9-0.2c-1.4-0.1-3-0.3-4.4-0.1
		c-3.2,0.4-2.3,4.4-2.3,6.7c0,1.4,0.1,2.7,0.1,4.1c0,1.4,0.3,2.8,1.8,3.3c1.2,0.4,2.8,0.1,4.1,0.1c1.5,0,2.9,0,4.4,0
		c3,0,6.1,0,9.1,0.1c2.9,0.1,5.9,0.3,8.8,0.4c3.6,0.1,3.4-3.6,3.5-6.2c0.1-1.6,0.2-3.2,0.2-4.9c0-1.4,0.2-3-0.7-4.1
		c-0.9-1-2.1-1.1-3.4-1.1c-1.8,0-3.6,0.1-5.3,0.1c0.6,0.6,1.3,1.3,1.9,1.9c0.1-2.4,0.1-4.8,0-7.2c-0.1-1.3-0.2-2.5-0.3-3.8
		c-0.1-1-0.2-2-1-2.7c-0.8-0.7-1.8-0.7-2.8-0.6c-1.2,0-2.5,0.1-3.7,0.3c-2.3,0.3-4.6,0.8-6.8,1.6c-2.3,0.8-1.3,4.4,1,3.6
		c1.8-0.6,3.6-1.1,5.4-1.4c0.9-0.1,1.8-0.2,2.7-0.3c0.5,0,0.9,0,1.4-0.1c0.2,0,0.5,0,0.7,0c0.6,0.1,0.4-0.2-0.7-0.7
		c-0.2,0.3,0.2,2.3,0.3,2.7c0.1,1,0.1,1.9,0.2,2.9c0.1,1.9,0.1,3.8,0,5.7c0,1,0.9,1.9,1.9,1.9c1.9,0,3.7-0.1,5.6-0.1
		c0.1,0,0.6,0,0.6,0c-0.3-0.7-0.5-0.9-0.5-0.5c0,0.2,0,0.3,0,0.5c0,1,0,1.9,0,2.9c-0.1,1.8-0.2,3.6-0.4,5.3c0,0-0.2,1.3-0.1,1.3
		c0.3-0.2,0.5-0.5,0.8-0.7c-0.3,0-0.7,0-1-0.1c-0.9,0-1.8-0.1-2.7-0.1c-3.7-0.2-7.4-0.3-11.1-0.3c-1.8,0-3.6,0-5.4,0c-1,0-2,0-2.9,0
		c-0.5,0-2.1,0.2-2.4,0c0.3,0.4,0.6,0.7,0.9,1.1c-0.4-0.9-0.1-2.4-0.2-3.4c0-1.3-0.1-2.5-0.1-3.8c0-0.3,0-0.7,0-1c0-0.2,0-0.3,0-0.5
		c-0.3,0.3-0.5,0.5-0.8,0.8c0,0.1,1.8,0,1.9,0c1.3,0,2.7,0.2,4,0.3c1.1,0,2.1-0.4,2.6-1.4c0.5-1.1,0.3-2.5,0.3-3.6
		c0-2.7,0-5.4-0.1-8.1c0-1.7-2-2.3-3.2-1.3c-0.8,0.6-0.9,1.5-0.7,2.4C200.9,297.8,204.5,296.8,204.1,294.5L204.1,294.5z"/>
	<g>
		<path d="M365.9,51c-1.1-0.7-2-1.1-2.8-1.1l-0.2,0c-0.1,0-0.2,0-0.3,0.1V49l-0.6,1.9c0,0.1,0,0.1,0,0.9c0,0.5,0,1,0,1.7v0.3l0,0
			c0,0.6,0,1.2,0.1,1.9c0,0.5,0.1,1.2,0.1,2.2c0,1,0,2.3,0,3.8c0,1.6,0,2.9,0.1,3.7c0,1.4,0,1.5,0.1,1.5c0,0.2,0.1,0.5,0.3,0.7
			c0.2,0.2,0.4,0.3,0.7,0.3c0.3,0,0.7-0.2,1-0.5l0.1-0.1l-0.1-3.1v-1.6c0-1,0-1.3,0-1.2c0,0,0,0,0.1-0.1c0.1-0.1,0.3-0.2,0.4-0.3
			c0.5-0.3,0.9-0.6,1.3-1c0.4-0.3,0.8-0.7,1.1-1.2c0.3-0.4,0.6-0.9,0.8-1.4c0.2-0.5,0.3-1.1,0.3-1.7c0-0.9-0.2-1.8-0.6-2.6
			C367.2,52.2,366.6,51.5,365.9,51z M364.1,56.1c0-0.2,0-0.5,0-0.8c0-0.3,0-0.7,0-1.1c0-0.4,0-0.8-0.1-1.1c0-0.3,0-0.4,0-0.6l0-0.2
			c0.7,0.3,1.2,0.7,1.5,1.2c0.5,0.6,0.7,1.4,0.7,2.3c0,0.3-0.1,0.7-0.2,1c-0.1,0.3-0.3,0.7-0.6,1c-0.2,0.3-0.5,0.6-0.8,0.8
			c-0.1,0.1-0.3,0.2-0.4,0.3c0-0.1,0-0.2,0-0.4C364.2,57.9,364.2,57.1,364.1,56.1z"/>
		<path d="M373,65.7V66c-0.2,0-0.5-0.1-0.8-0.1c-0.2,0-0.3,0-0.4,0c0-0.7,0-2.9-0.1-8.5c0-5.2-0.1-5.4-0.2-5.5
			c-0.2-0.6-0.7-0.7-0.9-0.7c-0.2,0-0.4,0.1-0.6,0.3c-0.1,0.1-0.3,0.3-0.3,6.9c0,2.6,0,4.5,0,5.9c0,1.8,0.1,2.2,0.1,2.4
			c0.1,0.3,0.2,0.6,0.3,0.8c0.1,0.2,0.3,0.4,0.5,0.5c0.1,0,0.2,0.1,0.4,0.1c0.2,0,0.4,0,0.6,0c0.2,0,0.4,0,0.6,0c0.2,0,0.3,0,0.4,0
			c0.3,0,0.5-0.1,0.8-0.2c0.3-0.2,0.4-0.5,0.4-0.8c0-0.3-0.1-0.5-0.4-0.7L373,65.7z"/>
		<path d="M384.1,52.4c-0.2-0.1-0.4-0.2-0.7-0.2c0,0,0,0,0,0c-0.2,0-0.5,0.1-0.6,0.3c-0.1,0.2-0.2,0.4-0.2,0.6c0,0.2,0,0.4,0.1,0.4
			c0,0,0,0,0,0.2c0,0.2,0,0.4,0,0.7c0,0.3,0,0.9,0,1.7c0,0.8,0,2-0.1,3.3c0,1,0,1.8-0.1,2.4c0,0.6,0,1-0.1,1.2
			c0,0.3-0.1,0.5-0.2,0.8c-0.1,0.3-0.3,0.6-0.5,0.9c-0.2,0.3-0.4,0.5-0.7,0.6c-0.5,0.3-1,0.3-1.4,0c-0.2-0.1-0.4-0.3-0.6-0.5
			c-0.2-0.2-0.3-0.5-0.4-0.7c-0.1-0.3-0.2-0.5-0.3-0.8c-0.1-0.4-0.3-1.1-0.3-1.8c-0.1-0.8-0.2-1.7-0.2-2.8c-0.1-1.6-0.2-2.8-0.2-3.7
			c0-0.9-0.1-1.5-0.1-1.8c-0.1-0.7-0.2-1.1-0.5-1.3c-0.3-0.2-0.8-0.2-1.2,0.2l-0.1,0.1v0c-0.1,0.2-0.2,0.5-0.2,1c0,0.3,0,0.7,0,1.2
			l0.1,1.8c0,0.2,0,0.5,0.1,0.8l0.1,0.9c0,0.4,0.1,0.9,0.1,1.2c0,0.4,0,0.6,0,0.7c0,0.7,0.1,1.4,0.2,2.3c0.1,0.9,0.3,1.7,0.6,2.5
			c0.3,0.8,0.8,1.5,1.3,2.1c0.6,0.6,1.4,0.9,2.4,0.9c0.5,0,1-0.1,1.4-0.3c0.4-0.2,0.8-0.5,1.1-0.8c0.3-0.3,0.6-0.7,0.8-1.1
			c0.2-0.4,0.4-0.8,0.5-1.3c0.2-0.8,0.3-3.2,0.3-7.4c0-3.6-0.1-3.8-0.2-4C384.4,52.7,384.2,52.5,384.1,52.4z"/>
		<path d="M394.6,62.8c-0.2-3.1-0.3-5.6-0.4-7.4c-0.1-1.8-0.2-2.9-0.3-3.3c-0.2-0.9-0.7-1-1-1c-0.2,0-0.4,0.1-0.7,0.5
			c-0.1,0.2-0.2,0.5-0.2,0.8v0.1c0,0.6,0.1,1.3,0.2,2.1c0.1,0.8,0.1,1.7,0.1,2.7c0,0.2,0,0.4,0,0.8c0,0.4,0.1,0.8,0.1,1.4
			c0.1,0.8,0.1,1.5,0.1,2.3c0,0.2,0,0.3,0,0.5c-0.1-0.3-0.3-0.6-0.4-1l-1.6-3.9c-1.8-4.5-2.4-5.3-2.6-5.6c-0.3-0.3-0.6-0.5-0.9-0.5
			c-0.3,0-0.8,0.2-0.9,1.2l0,0.2c0,0.4,0,1.2,0.1,2.5l0.2,5.1c0.1,2.2,0.2,3.8,0.2,4.9c0.1,1.7,0.1,1.8,0.1,1.8
			c0,0.3,0.2,0.6,0.4,0.8c0.3,0.3,0.7,0.3,1.1,0.2c0.1-0.1,0.3-0.2,0.4-0.5c0-0.1,0.1-0.3,0.1-0.9c0-0.6,0-1.6-0.1-3.1
			c-0.1-1.5-0.1-3.3-0.2-5.6c0-0.2,0-0.5,0-0.7c0.3,0.7,0.6,1.4,0.9,2.1c0.4,1,0.9,2.1,1.3,3.2c0.5,1.2,0.9,2.1,1.2,2.9
			c0.3,0.7,0.6,1.2,0.7,1.5c0.2,0.3,0.3,0.5,0.4,0.7c0.1,0.2,0.3,0.3,0.4,0.4c0.1,0.1,0.3,0.1,0.5,0.1c0.3,0,0.5-0.1,0.7-0.3
			c0.1-0.2,0.2-0.4,0.3-0.6c0-0.2,0.1-0.4,0.1-0.6c0-0.2,0-0.4,0-0.5c0-0.4,0-0.8,0-1.4C394.7,64,394.7,63.4,394.6,62.8z"/>
		<path d="M403.2,59.2c-0.1,0-0.3,0-0.4,0c-0.2,0-0.4,0-0.5,0.1c-0.2,0.1-0.3,0.2-0.5,0.3c-0.2,0.2-0.2,0.4-0.2,0.6
			c0,0.5,0.2,0.8,0.6,0.9c0.3,0.1,0.6,0.1,0.8,0.1h0c0,0,0,0.1,0,0.1V62c0,1.9-0.1,2.6-0.2,2.9c-0.1,0.2-0.2,0.4-0.3,0.5
			c-0.2,0.1-0.4,0.3-0.5,0.4h-0.1c-0.6,0-1-0.1-1.4-0.3c-0.4-0.2-0.7-0.5-1-0.9c-0.3-0.4-0.5-0.8-0.6-1.3c-0.2-0.5-0.3-1-0.4-1.6
			c-0.1-0.5-0.1-1.1-0.1-1.6c0-0.5,0-1,0-1.4c0-1.5,0.1-2.6,0.3-3.2c0.1-0.4,0.3-0.9,0.5-1.3c0.2-0.4,0.4-0.8,0.7-1.1
			c0.3-0.3,0.6-0.6,1-0.8c0.4-0.2,0.8-0.3,1.2-0.4c0.2,0,0.5-0.1,0.7-0.2c0.3-0.2,0.5-0.5,0.5-0.8c0-0.4-0.2-0.7-0.5-0.8
			c-0.6-0.3-1.1-0.2-1.8,0c-0.8,0.2-1.6,0.7-2.3,1.5l0,0c-0.9,1-1.5,2.2-1.7,3.4c-0.3,1.2-0.4,2.5-0.4,3.7c0,0.6,0,1.3,0,2
			c0,0.7,0.1,1.4,0.2,2c0.1,0.7,0.3,1.3,0.5,1.9c0.2,0.6,0.6,1.2,1.1,1.8c0.2,0.2,0.4,0.5,0.7,0.7c0.3,0.2,0.6,0.4,0.9,0.5
			c0.3,0.1,0.6,0.3,0.9,0.3c0.3,0.1,0.6,0.1,0.9,0.1c0.4,0,0.7-0.1,1.1-0.2c0.4-0.1,0.7-0.3,1-0.5c0.3-0.2,0.5-0.5,0.8-0.8
			c0.2-0.3,0.4-0.7,0.4-1c0-0.1,0.1-0.3,0.1-0.9c0-0.4,0-1,0-1.7c0-0.2,0-0.5,0-0.8c0-0.3,0-0.6,0-0.9c0-0.8-0.2-1.4-0.5-1.7
			C404.3,59.2,403.9,59.2,403.2,59.2z"/>
		<path d="M409.5,52.7c1.6,0,2-0.2,2.1-0.5l0.3-0.5h-0.1c0,0,0-0.1,0-0.1c0-0.3-0.1-0.5-0.3-0.7c-0.2-0.2-0.6-0.3-1.4-0.3h-0.6
			c-0.2,0-0.4,0-0.6,0c-0.5,0-1,0-1.3,0.1c-0.4,0-0.7,0.2-0.9,0.6l0,0c0,0.1-0.1,0.3-0.1,2.4c0,0.3,0,0.7,0,1.5l0,2.5c0,1,0,2,0,3
			c0,1.1,0,2,0.1,2.9c0,0.9,0.1,1.7,0.1,2.3c0,0.9,0.1,1.1,0.1,1.2c0.1,0.1,0.1,0.3,0.2,0.3c0.1,0.1,0.2,0.2,0.4,0.3
			c0.1,0,0.3,0.1,0.6,0.1c0.2,0,0.6,0,1,0l2.2,0l0.1-0.2c0.2-0.4,0.3-0.7,0.3-1c0-0.4-0.2-0.7-0.5-0.8c-0.2,0-0.5-0.1-1.5-0.1
			c-0.3,0-0.6,0-0.8,0h0c0,0,0-0.1,0-0.2c0-0.2,0-0.6-0.1-1c-0.1-1-0.1-2-0.1-2.8c0-0.2,0-0.4,0-0.5c0-0.2,0-0.3,0-0.4l0-0.1
			c0.2,0,0.5-0.1,0.7-0.2c0.4-0.2,0.6-0.5,0.6-0.9c0-0.4-0.2-1-1.3-1c0-0.2,0-0.4,0-0.8c0-0.6,0-1.4-0.1-2.5l0-2.6
			c0.1,0,0.3,0,0.4,0C409.1,52.7,409.3,52.7,409.5,52.7z"/>
		<path d="M420.1,65.8c-0.1-0.4-0.3-0.9-0.5-1.4c-0.2-0.5-0.4-0.9-0.5-1.4c-0.2-0.4-0.3-0.7-0.4-0.9c-0.4-0.8-0.9-1.4-1.3-1.7
			l-0.1-0.1h0c0,0,0,0,0,0l0,0c0.2-0.1,0.4-0.2,0.6-0.4c0.3-0.2,0.5-0.5,0.7-0.8c0.2-0.3,0.4-0.6,0.5-1c0.2-0.3,0.3-0.6,0.3-0.9
			c0-0.1,0-0.2,0-0.4v-0.4c0-1-0.1-1.9-0.3-2.6c-0.2-0.8-0.7-1.6-1.4-2.3c-0.2-0.2-0.4-0.4-0.6-0.5c-0.2-0.2-0.5-0.4-0.8-0.5
			c-0.3-0.2-0.6-0.3-0.9-0.4c-0.6-0.2-1.2-0.3-1.8,0.2l-0.1,0.1l0,0.2c0,0,0,0.1,0,0.1l0,0l0,0c-0.1,0.4-0.1,1.2-0.1,2.8
			c0,2,0,3.9-0.1,5.8c0,0.3,0,0.7,0,1.1v3.2c0,0.5,0,0.9,0,1.1c0,0.6,0.1,1.1,0.1,1.4c0,0.4,0,0.7,0,0.8c0,0.3,0.1,0.5,0.3,0.7
			c0.1,0.2,0.3,0.4,0.8,0.4c0.2,0,0.3,0,0.5-0.1c0.2-0.1,0.3-0.3,0.4-0.5c0-0.1,0.1-0.3,0.1-1.1v-1.3c0-0.4,0-0.8,0-1.2
			c0-0.5,0-1.1,0-1.6v-1c0.2,0.1,0.4,0.3,0.6,0.4c0.3,0.3,0.6,0.7,0.8,1.1c0.2,0.4,0.4,0.8,0.6,1.3c0.2,0.5,0.3,0.9,0.4,1.2
			c0.5,1.6,0.7,2,0.9,2.1c0,0,0,0,0,0l0.1-0.1l-0.1,0.1c0.2,0.1,0.3,0.2,0.5,0.2c0.2,0,0.5,0,0.8-0.3c0.2-0.2,0.3-0.5,0.3-0.7
			C420.3,66.7,420.3,66.5,420.1,65.8z M415.5,52.4c0.6,0.4,1.1,0.8,1.3,1.4c0.4,0.7,0.6,1.5,0.6,2.5c0,0.2,0,0.4,0,0.5
			c0,0.1,0,0.2,0,0.3c0,0.1,0,0.1-0.1,0.2l-0.3,0.4c-0.4,0.6-0.6,0.8-0.7,0.8c0,0-0.1,0-0.2,0.1c-0.1,0.1-0.3,0.1-0.6,0.2l-0.1,0
			v-0.2c0-1.3,0-2.4,0-3.4c0-1,0-1.9,0-2.6C415.5,52.6,415.5,52.5,415.5,52.4z"/>
	</g>
	<g>
		<path d="M101.2,364.3c0-0.1-0.1-0.3-0.1-0.7l-0.2-1.4c-0.2-1.3-0.4-2.6-0.6-4c-0.2-1.4-0.4-2.9-0.7-4.4l-0.5-2.9
			c-0.2-1.1-0.2-1.2-0.2-1.2c-0.3-0.5-0.7-0.6-1-0.6c-0.3,0-0.6,0.1-0.7,0.3c-0.1,0.1-0.2,0.2-0.6,0.7c-0.2,0.3-0.6,0.8-0.9,1.4
			c-0.3,0.5-0.6,0.8-0.8,1.1c-0.1,0.1-0.1,0.2-0.2,0.2c0,0-0.1-0.1-0.1-0.1c-0.2-0.3-0.4-0.6-0.7-1c-0.4-0.6-0.7-1-0.9-1.4
			c-0.2-0.3-0.3-0.4-0.4-0.5l0,0c-0.3-0.4-0.7-0.6-1.2-0.6c-0.3,0-0.6,0.1-0.7,0.3c-0.1,0.1-0.2,0.4-0.3,1.1c0,0.4-0.1,0.9-0.1,1.4
			c0,0.5-0.1,0.9-0.1,1.4v0c-0.8,7-1.1,10.8-1.1,11.5c0,0.3,0.1,0.6,0.3,0.8c0.2,0.2,0.4,0.3,0.7,0.3c0.2,0,0.4-0.1,0.6-0.3l0,0
			c0,0,0,0,0,0c0,0,0,0,0,0h0c0.2-0.2,0.3-0.5,0.4-1.7c0-0.4,0.1-1.4,0.3-2.8c0.2-1.5,0.3-3.4,0.6-5.9c0.1-1.3,0.2-2.1,0.2-2.6
			c0,0,0,0,0.1,0.1c0.6,0.8,0.9,1.4,1.2,1.8c0.5,0.9,0.9,1.2,1.3,1.2c0.2,0,0.5-0.1,0.7-0.4c0.1-0.2,0.4-0.5,0.8-1l0.2-0.2
			c0.2-0.3,0.5-0.6,0.7-1c0.1-0.2,0.3-0.4,0.4-0.7c0.1,0.6,0.2,1.4,0.4,2.3c0.2,1.4,0.5,3.2,0.7,5.3c0.2,1.7,0.4,3.1,0.6,4.1
			c0.3,1.4,0.4,1.7,0.5,1.8c0.1,0.1,0.2,0.2,0.3,0.3c0.1,0.1,0.2,0.1,0.3,0.1c0,0,0.1,0,0.1,0c0.2,0,0.4-0.1,0.6-0.3
			c0.2-0.2,0.3-0.4,0.3-0.7c0-0.1,0-0.2,0-0.4L101.2,364.3z"/>
		<path d="M112.1,354.2c-0.1-0.6-0.2-1.3-0.4-2c-0.2-0.7-0.5-1.3-0.8-1.9c-0.4-0.6-0.8-1.1-1.4-1.4c-0.6-0.4-1.3-0.6-2.1-0.6
			c-0.7,0-1.3,0.1-1.8,0.4c-0.5,0.2-1,0.6-1.3,1c-0.4,0.4-0.6,0.9-0.8,1.5c-0.2,0.5-0.3,1.1-0.4,1.8c0,0.4-0.1,0.9-0.1,1.4
			c0,0.5,0,1.1,0,1.7c0,0.4,0,0.7,0.1,0.9c0,0.2,0,0.6,0,1.2c0,0.6,0,1.2,0.1,1.9c0.1,0.6,0.2,1.2,0.4,1.9c0.1,0.5,0.2,0.9,0.4,1.2
			c0.1,0.3,0.3,0.6,0.5,0.9c0.2,0.3,0.4,0.5,0.6,0.7c0.2,0.2,0.5,0.4,0.7,0.6c0.6,0.4,1.2,0.6,2,0.6c1,0,1.9-0.3,2.6-1
			c0.5-0.5,0.9-1,1.1-1.6c0.3-0.6,0.5-1.2,0.6-1.9c0.1-0.6,0.2-1.3,0.2-2c0-0.7,0-1.3,0-1.9c0-0.8,0-1.4-0.1-2
			C112.1,355,112.1,354.6,112.1,354.2z M107.3,350.3c0.6,0,1,0.2,1.4,0.6c0.4,0.4,0.7,0.9,0.9,1.5c0.2,0.6,0.4,1.2,0.4,1.9
			c0.1,0.6,0.1,1.1,0.1,1.5l-0.2-0.4l0.3,2.1c0,0.5,0,1.1-0.1,1.9c0,0.7-0.1,1.4-0.3,2.1c-0.2,0.6-0.5,1.2-0.8,1.6
			c-0.3,0.4-0.8,0.6-1.4,0.6c-0.3,0-0.6,0-0.8-0.1c-0.4-0.1-0.7-0.5-0.9-1.1c-0.3-0.7-0.5-1.4-0.6-2.2c-0.1-0.8-0.2-1.7-0.3-2.5
			c0-0.8-0.1-1.5-0.1-2c0-1.6,0.1-2.6,0.2-3.1c0.1-0.3,0.2-0.6,0.3-0.9c0.1-0.3,0.3-0.5,0.4-0.8c0.2-0.2,0.4-0.4,0.6-0.5
			C106.7,350.4,107,350.3,107.3,350.3z"/>
		<path d="M116.9,363.6v0.3c-0.2,0-0.5-0.1-0.8-0.1c-0.2,0-0.3,0-0.4,0c0-0.7,0-2.9-0.1-8.5c0-5.2-0.1-5.4-0.2-5.5
			c-0.2-0.6-0.7-0.7-0.9-0.7c-0.2,0-0.4,0.1-0.6,0.3c-0.1,0.1-0.3,0.3-0.3,6.9c0,2.6,0,4.5,0,5.9c0,1.8,0.1,2.2,0.1,2.4
			c0.1,0.3,0.2,0.6,0.3,0.8c0.1,0.2,0.3,0.4,0.5,0.5c0.1,0,0.2,0.1,0.4,0.1c0.2,0,0.4,0,0.6,0c0.2,0,0.4,0,0.6,0c0.2,0,0.3,0,0.4,0
			c0.3,0,0.5-0.1,0.8-0.2c0.3-0.2,0.4-0.5,0.4-0.8c0-0.3-0.1-0.5-0.4-0.7L116.9,363.6z"/>
		<path d="M126.9,349.2c-0.2-0.1-0.5-0.1-0.8-0.1h-0.8c-0.3,0-0.5,0-0.8,0c-1.2,0-2.2,0.1-2.9,0.1c-1,0-1.2,0.1-1.4,0.1
			c-0.4,0.1-0.7,0.5-0.7,0.9c0,0.4,0.2,0.6,0.6,0.8c0.2,0.1,0.5,0.2,1.7,0.2h0.7l0,4.5c0,1.1,0,2.3,0,3.4c0,1.2,0,2.3,0,3.5
			c0,2.6,0.1,2.8,0.2,2.9l0.6,0.9v-0.5c0.1,0,0.1,0,0.2,0c0.4,0,0.7-0.2,0.8-0.3l0,0c0,0,0,0,0-0.1c0.1-0.2,0.2-1.1,0.2-7.6
			c0-2.1,0-3.8,0-5c0-0.8,0-1.4,0-1.8l0.1,0c0.2,0,0.4,0,0.7,0l0.7,0c0.2,0,0.4,0,0.6,0c0.2,0,0.3-0.1,0.4-0.1
			c0.2-0.1,0.3-0.2,0.5-0.3c0.2-0.2,0.2-0.5,0.2-0.6C127.4,349.4,127.1,349.2,126.9,349.2z"/>
		<path d="M131.9,350.6c1.6,0,2-0.2,2.1-0.5l0.3-0.5h-0.1c0,0,0-0.1,0-0.1c0-0.3-0.1-0.5-0.3-0.7c-0.2-0.2-0.6-0.3-1.4-0.3h-0.6
			c-0.2,0-0.4,0-0.6,0c-0.5,0-1,0-1.3,0.1c-0.4,0-0.7,0.2-0.9,0.6l0,0c0,0.1-0.1,0.3-0.1,2.4c0,0.3,0,0.7,0,1.5l0,2.5c0,1,0,2,0,3
			c0,1.1,0,2,0.1,2.9c0,0.9,0.1,1.7,0.1,2.3c0,0.9,0.1,1.1,0.1,1.2c0.1,0.1,0.1,0.3,0.2,0.3c0.1,0.1,0.2,0.2,0.4,0.3
			c0.1,0,0.3,0.1,0.6,0.1c0.2,0,0.6,0,1,0l2.2,0l0.1-0.2c0.2-0.4,0.3-0.7,0.3-1c0-0.4-0.2-0.7-0.5-0.8c-0.2,0-0.5-0.1-1.5-0.1
			c-0.3,0-0.6,0-0.8,0h0c0,0,0-0.1,0-0.2c0-0.2,0-0.6-0.1-1c-0.1-1-0.1-2-0.1-2.8c0-0.2,0-0.4,0-0.5c0-0.2,0-0.3,0-0.4l0-0.1
			c0.2,0,0.5-0.1,0.7-0.2c0.4-0.2,0.6-0.5,0.6-0.9c0-0.4-0.2-1-1.3-1c0-0.2,0-0.4,0-0.8c0-0.6,0-1.4-0.1-2.5l0-2.6
			c0.1,0,0.3,0,0.4,0C131.6,350.6,131.8,350.6,131.9,350.6z"/>
		<path d="M144.3,360.7c-0.2-3.1-0.3-5.6-0.4-7.4c-0.1-1.8-0.2-2.9-0.3-3.3c-0.2-0.9-0.7-1-1-1c-0.2,0-0.4,0.1-0.7,0.5
			c-0.1,0.2-0.2,0.5-0.2,0.8v0.1c0,0.6,0.1,1.3,0.2,2.1c0.1,0.8,0.1,1.7,0.1,2.7c0,0.2,0,0.4,0,0.8c0,0.4,0.1,0.8,0.1,1.4
			c0.1,0.8,0.1,1.5,0.1,2.3c0,0.2,0,0.3,0,0.5c-0.1-0.3-0.3-0.6-0.4-1l-1.6-3.9c-1.8-4.5-2.4-5.3-2.6-5.6c-0.3-0.3-0.6-0.5-0.9-0.5
			c-0.3,0-0.8,0.2-0.9,1.2l0,0.2c0,0.4,0,1.2,0.1,2.5l0.2,5.1c0.1,2.2,0.2,3.8,0.2,4.9c0.1,1.7,0.1,1.8,0.1,1.8
			c0,0.3,0.2,0.6,0.4,0.8c0.3,0.3,0.7,0.3,1.1,0.2c0.1-0.1,0.3-0.2,0.4-0.5c0-0.1,0.1-0.3,0.1-0.9c0-0.6,0-1.6-0.1-3.1
			c-0.1-1.5-0.1-3.3-0.2-5.6c0-0.2,0-0.5,0-0.7c0.3,0.7,0.6,1.4,0.9,2.1c0.4,1,0.9,2.1,1.3,3.2c0.5,1.2,0.9,2.1,1.2,2.9
			c0.3,0.7,0.6,1.2,0.7,1.5c0.2,0.3,0.3,0.5,0.4,0.7c0.1,0.2,0.3,0.3,0.4,0.4c0.1,0.1,0.3,0.1,0.5,0.1c0.3,0,0.5-0.1,0.7-0.3
			c0.1-0.2,0.2-0.4,0.3-0.6c0-0.2,0.1-0.4,0.1-0.6c0-0.2,0-0.4,0-0.5c0-0.4,0-0.8,0-1.4C144.4,361.9,144.3,361.3,144.3,360.7z"/>
		<path d="M156.6,348.9c-1.1-0.7-2-1.1-2.8-1.1l-0.2,0c-0.1,0-0.2,0-0.3,0.1v-1.1l-0.6,1.9c0,0.1,0,0.1,0,0.9c0,0.5,0,1,0,1.7v0.3
			l0,0c0,0.6,0,1.2,0.1,1.9c0,0.5,0.1,1.2,0.1,2.2c0,1,0,2.3,0,3.8c0,1.6,0,2.9,0.1,3.7c0,1.4,0,1.5,0.1,1.5c0,0.2,0.1,0.5,0.3,0.7
			c0.2,0.2,0.4,0.3,0.7,0.3c0.3,0,0.7-0.2,1-0.5l0.1-0.1L155,362v-1.6c0-1,0-1.3,0-1.2c0,0,0,0,0.1-0.1c0.1-0.1,0.3-0.2,0.4-0.3
			c0.5-0.3,0.9-0.6,1.3-1c0.4-0.3,0.8-0.7,1.1-1.2c0.3-0.4,0.6-0.9,0.8-1.4c0.2-0.5,0.3-1.1,0.3-1.7c0-0.9-0.2-1.8-0.6-2.6
			C157.9,350.1,157.4,349.4,156.6,348.9z M154.8,354c0-0.2,0-0.5,0-0.8c0-0.3,0-0.7,0-1.1c0-0.4,0-0.8-0.1-1.1c0-0.3,0-0.4,0-0.6
			l0-0.2c0.7,0.3,1.2,0.7,1.5,1.2c0.5,0.6,0.7,1.4,0.7,2.3c0,0.3-0.1,0.7-0.2,1c-0.1,0.3-0.3,0.7-0.6,1c-0.2,0.3-0.5,0.6-0.8,0.8
			c-0.1,0.1-0.3,0.2-0.4,0.3c0-0.1,0-0.2,0-0.4C154.9,355.8,154.9,355,154.8,354z"/>
		<path d="M163.7,363.6v0.3c-0.2,0-0.5-0.1-0.8-0.1c-0.2,0-0.3,0-0.4,0c0-0.7,0-2.9-0.1-8.5c0-5.2-0.1-5.4-0.2-5.5
			c-0.2-0.6-0.7-0.7-0.9-0.7c-0.2,0-0.4,0.1-0.6,0.3c-0.1,0.1-0.3,0.3-0.3,6.9c0,2.6,0,4.5,0,5.9c0,1.8,0.1,2.2,0.1,2.4
			c0.1,0.3,0.2,0.6,0.3,0.8c0.1,0.2,0.3,0.4,0.5,0.5c0.1,0,0.2,0.1,0.4,0.1c0.2,0,0.4,0,0.6,0c0.2,0,0.4,0,0.6,0c0.2,0,0.3,0,0.4,0
			c0.3,0,0.5-0.1,0.8-0.2c0.3-0.2,0.4-0.5,0.4-0.8c0-0.3-0.1-0.5-0.4-0.7L163.7,363.6z"/>
		<path d="M173.7,357.6c-0.4-1.4-0.7-2.5-0.9-3.5c-1.1-4.2-1.4-4.4-1.5-4.6c-0.4-0.3-1.1-0.3-1.6,0.2c-0.3,0.3-0.5,0.6-0.6,0.9
			c0,0.2-0.2,1-1.3,6.4c-0.4,2-0.7,3.6-1,4.8c-0.2,1.2-0.4,2-0.4,2.3c0,0.2-0.1,0.4-0.1,0.5c0,0.2,0,0.3,0,0.4
			c0,0.3,0.1,0.5,0.3,0.7c0.2,0.2,0.4,0.3,0.7,0.3c0.4,0,0.7-0.2,0.9-0.6c0-0.1,0.1-0.2,0.2-0.7c0.1-0.3,0.2-0.8,0.3-1.5
			c0.1-0.6,0.2-1.2,0.4-1.8c0.1-0.6,0.2-1.2,0.4-1.8c0.1-0.7,0.2-1.1,0.3-1.3c0,0,0.1,0,0.1,0c1.3,0,1.9,0,2.1,0.1
			c0,0.1,0.1,0.4,0.2,0.9c0.4,1.9,0.8,3.4,1.1,4.5c0.3,1.1,0.5,1.7,0.6,1.9c0.2,0.6,0.6,0.7,0.9,0.7c0.3,0,0.5-0.1,0.7-0.3
			c0.2-0.2,0.3-0.4,0.3-0.7c0-0.2-0.1-0.7-0.7-3.1C174.5,360.6,174.1,359,173.7,357.6z M171.2,356.3c-0.2,0-0.4,0-0.6,0h-0.7
			c0-0.1,0-0.2,0-0.3c0.1-0.4,0.2-1.1,0.4-1.9c0-0.3,0.1-0.5,0.1-0.7c0,0,0,0.1,0,0.1c0.1,0.5,0.2,1,0.4,1.4
			c0.1,0.3,0.2,0.5,0.2,0.7c0,0.2,0.1,0.3,0.1,0.4C171.2,356.1,171.2,356.2,171.2,356.3z"/>
		<path d="M182.7,356.1c0-0.1-0.1-0.2-0.5-0.5l-2.4-2.3c-0.4-0.4-0.5-0.5-0.5-0.5c0-0.1-0.1-0.2-0.1-0.3c0-0.1,0-0.2,0-0.3
			c0-0.5,0.1-0.9,0.4-1.2c0.3-0.3,0.7-0.6,1.2-0.8c0.5-0.2,0.7-0.3,0.7-0.4c0.2-0.1,0.2-0.3,0.2-0.6c0-0.6-0.4-0.9-1-0.9
			c-0.5,0-1,0.1-1.4,0.4c-0.4,0.2-0.8,0.5-1.1,0.9c-0.3,0.4-0.6,0.8-0.8,1.2c-0.2,0.5-0.3,0.9-0.3,1.4c0,0.5,0.1,1,0.4,1.5
			c0.2,0.5,0.5,0.9,0.9,1.2c0.1,0.1,0.3,0.3,0.5,0.5c0.2,0.2,0.6,0.6,1,1c0.4,0.4,0.7,0.7,0.9,1c0.2,0.3,0.4,0.5,0.6,0.8
			c0.1,0.3,0.2,0.6,0.3,0.9c0.1,0.3,0.1,0.8,0.1,1.3c0,0.8-0.2,1.5-0.7,2.1c-0.4,0.6-1,1-1.8,1.2c-1.4,0.3-1.7,0.5-1.9,0.6
			c-0.2,0.1-0.3,0.3-0.3,0.8c0,0.6,0.4,1,1,1c0.2,0,0.4,0,0.7-0.1c0.3-0.1,0.6-0.1,0.9-0.2c0.3-0.1,0.6-0.2,0.8-0.3
			c0.3-0.1,0.5-0.2,0.6-0.2c0.8-0.5,1.5-1.1,2-2c0.5-0.8,0.8-1.8,0.8-2.7c0-0.9-0.1-1.6-0.3-2.3C183.4,357.3,183,356.7,182.7,356.1z
			"/>
		<path d="M192.9,349.2c-0.2-0.1-0.5-0.1-0.8-0.1h-0.8c-0.3,0-0.5,0-0.8,0c-1.2,0-2.2,0.1-2.9,0.1c-1,0-1.2,0.1-1.4,0.1
			c-0.4,0.1-0.7,0.5-0.7,0.9c0,0.4,0.2,0.6,0.6,0.8c0.2,0.1,0.5,0.2,1.7,0.2h0.7l0,4.5c0,1.1,0,2.3,0,3.4c0,1.2,0,2.3,0,3.5
			c0,2.6,0.1,2.8,0.2,2.9l0.6,0.9v-0.5c0.1,0,0.1,0,0.2,0c0.4,0,0.7-0.2,0.8-0.3l0,0c0,0,0,0,0-0.1c0.1-0.2,0.2-1.1,0.2-7.6
			c0-2.1,0-3.8,0-5c0-0.8,0-1.4,0-1.8l0.1,0c0.2,0,0.4,0,0.7,0l0.7,0c0.2,0,0.4,0,0.6,0c0.2,0,0.3-0.1,0.4-0.1
			c0.2-0.1,0.3-0.2,0.5-0.3c0.2-0.2,0.2-0.5,0.2-0.6C193.4,349.4,193.1,349.2,192.9,349.2z"/>
		<path d="M197.3,356.7c0-1.7-0.1-3.5-0.1-5.3l0-1.6l-0.3-0.3c-0.2-0.2-0.5-0.3-0.7-0.3c-0.7,0-1,0.6-1,1.8l0,0.4
			c0,0.1,0,0.4,0.1,1.6c0,0.9,0,2.3,0.1,4c0.1,2.5,0.1,4.4,0.1,5.8c0.1,2.1,0.1,2.3,0.1,2.4c0.1,0.2,0.2,0.4,0.3,0.5
			c0.2,0.1,0.4,0.2,0.6,0.2c0.2,0,0.4-0.1,0.6-0.2c0.1-0.1,0.3-0.3,0.3-0.5c0.1-0.2,0.1-0.3,0.1-0.5c0-0.2,0-0.3,0-0.4l-0.1-2.3
			C197.4,360.2,197.3,358.5,197.3,356.7z"/>
		<path d="M204.4,363.7c-0.6-0.1-1.1-0.2-1.4-0.4c-0.3-0.1-0.6-0.4-0.8-0.7c-0.8-1.1-1.2-2.9-1.2-5.4c0-0.8,0-1.5,0.1-2.1
			c0.1-0.6,0.1-1.2,0.2-1.7c0.1-0.5,0.3-0.9,0.5-1.3c0.2-0.4,0.4-0.8,0.7-1.1c0.3-0.4,0.7-0.7,0.9-0.7c1-0.1,1.1-0.7,1.1-1
			c0-0.2-0.1-0.4-0.4-0.7c-0.2-0.2-0.5-0.3-0.6-0.3l-0.2,0c-0.7,0-1.2,0.2-1.7,0.7c-0.4,0.4-0.8,0.8-1.1,1.3l0,0
			c-0.7,1-1.1,2.2-1.3,3.4c-0.2,1.2-0.3,2.4-0.3,3.6c0,1.2,0,2,0.1,2.5c0.1,0.8,0.3,1.5,0.5,2.2c0.2,0.7,0.5,1.4,0.9,1.9
			c0.4,0.6,0.9,1.1,1.5,1.4c0.6,0.4,1.4,0.6,2.3,0.6h0.1c1,0,1.2-0.7,1.2-1C205.5,364.4,205.4,363.9,204.4,363.7z"/>
	</g>
	<g>
		<path d="M812.6,354.8c-0.2-0.1-0.5-0.2-2.3-0.2c-1.7,0-2,0-2.2,0.1c-0.3,0.1-0.6,0.3-0.7,0.9c0,0.1-0.1,0.4-0.1,3.6
			c0,6.6,0.1,10.3,0.2,11.3c0.1,1.3,0.7,1.5,1.1,1.5c0.2,0,0.4-0.1,0.6-0.2l0.4-0.3V370c-0.1-3.3-0.1-5.6-0.1-6.7v-0.3h0.3
			c0.2,0,0.3,0,0.4,0c0.2,0,0.5-0.1,0.7-0.2c0.3-0.2,0.5-0.4,0.5-0.8c0-0.2,0-0.3-0.1-0.4l-0.5-0.6h-1.4v-1.5c0-0.2,0-0.5,0-0.8
			c0-0.3,0-0.6,0-0.9c0-0.3,0-0.6,0-0.8c0-0.2,0-0.3,0-0.3v-0.1l2.3-0.1c0.3,0,0.6,0,0.7-0.1c0.3-0.1,0.4-0.3,0.4-0.4
			c0-0.1,0.1-0.3,0.1-0.5C813,355.2,812.8,355,812.6,354.8z"/>
		<path d="M816.8,362.9c0-1.7-0.1-3.5-0.1-5.3l0-1.6l-0.3-0.3c-0.2-0.2-0.5-0.3-0.7-0.3c-0.7,0-1,0.6-1,1.8l0,0.4
			c0,0.1,0,0.4,0.1,1.6c0,0.9,0,2.3,0.1,4c0.1,2.5,0.1,4.4,0.1,5.8c0.1,2.1,0.1,2.3,0.1,2.4c0.1,0.2,0.2,0.4,0.3,0.5
			c0.2,0.1,0.4,0.2,0.6,0.2c0.2,0,0.4-0.1,0.6-0.2c0.1-0.1,0.3-0.3,0.3-0.5c0.1-0.2,0.1-0.3,0.1-0.5c0-0.2,0-0.3,0-0.4l-0.1-2.3
			C816.9,366.4,816.9,364.7,816.8,362.9z"/>
		<path d="M826.9,366.8c-0.2-3.1-0.3-5.6-0.4-7.4c-0.1-1.8-0.2-2.9-0.3-3.3c-0.2-0.9-0.7-1-1-1c-0.2,0-0.4,0.1-0.7,0.5
			c-0.1,0.2-0.2,0.5-0.2,0.8v0.1c0,0.6,0.1,1.3,0.2,2.1c0.1,0.8,0.1,1.7,0.1,2.7c0,0.2,0,0.4,0,0.8c0,0.4,0.1,0.8,0.1,1.4
			c0.1,0.8,0.1,1.5,0.1,2.3c0,0.2,0,0.3,0,0.5c-0.1-0.3-0.3-0.6-0.4-1l-1.6-3.9c-1.8-4.5-2.4-5.3-2.6-5.6c-0.3-0.3-0.6-0.5-0.9-0.5
			c-0.3,0-0.8,0.2-0.9,1.2l0,0.2c0,0.4,0,1.2,0.1,2.5l0.2,5.1c0.1,2.2,0.2,3.8,0.2,4.9c0.1,1.7,0.1,1.8,0.1,1.8
			c0,0.3,0.2,0.6,0.4,0.8c0.3,0.3,0.7,0.3,1.1,0.2c0.1-0.1,0.3-0.2,0.4-0.5c0-0.1,0.1-0.3,0.1-0.9c0-0.6,0-1.6-0.1-3.1
			c-0.1-1.5-0.1-3.3-0.2-5.6c0-0.2,0-0.5,0-0.7c0.3,0.7,0.6,1.4,0.9,2.1c0.4,1,0.9,2.1,1.3,3.2c0.5,1.2,0.9,2.1,1.2,2.9
			c0.3,0.7,0.6,1.2,0.7,1.5c0.2,0.3,0.3,0.5,0.4,0.7c0.1,0.2,0.3,0.3,0.4,0.4c0.1,0.1,0.3,0.1,0.5,0.1c0.3,0,0.5-0.1,0.7-0.3
			c0.1-0.2,0.2-0.4,0.3-0.6c0-0.2,0.1-0.4,0.1-0.6c0-0.2,0-0.4,0-0.5c0-0.4,0-0.8,0-1.4C827,368.1,827,367.5,826.9,366.8z"/>
		<path d="M836.1,363.8c-0.4-1.4-0.7-2.5-0.9-3.5c-1.1-4.2-1.4-4.4-1.5-4.6c-0.4-0.4-1.1-0.3-1.6,0.2c-0.3,0.3-0.5,0.6-0.6,0.9
			c0,0.2-0.2,1-1.3,6.4c-0.4,2-0.7,3.6-1,4.8c-0.2,1.2-0.4,2-0.4,2.3c0,0.2-0.1,0.4-0.1,0.5c0,0.2,0,0.3,0,0.4
			c0,0.3,0.1,0.5,0.3,0.7c0.2,0.2,0.4,0.3,0.7,0.3c0.4,0,0.7-0.2,0.9-0.6c0-0.1,0.1-0.2,0.2-0.7c0.1-0.3,0.2-0.8,0.3-1.5
			c0.1-0.6,0.2-1.2,0.4-1.8c0.1-0.6,0.2-1.2,0.4-1.8c0.1-0.7,0.2-1.1,0.3-1.3c0,0,0.1,0,0.1,0c1.3,0,1.9,0,2.1,0.1
			c0,0.1,0.1,0.4,0.2,0.9c0.4,1.9,0.8,3.4,1.1,4.5c0.3,1.1,0.5,1.7,0.6,1.9c0.2,0.6,0.6,0.7,0.9,0.7c0.3,0,0.5-0.1,0.7-0.3
			c0.2-0.2,0.3-0.4,0.3-0.7c0-0.2-0.1-0.7-0.7-3.1C836.8,366.7,836.4,365.2,836.1,363.8z M833.6,362.5c-0.2,0-0.4,0-0.6,0h-0.7
			c0-0.1,0-0.2,0-0.3c0.1-0.4,0.2-1.1,0.4-1.9c0-0.3,0.1-0.5,0.1-0.7c0,0,0,0.1,0,0.1c0.1,0.5,0.2,1,0.4,1.4
			c0.1,0.3,0.2,0.5,0.2,0.7c0,0.2,0.1,0.3,0.1,0.4C833.6,362.3,833.6,362.4,833.6,362.5z"/>
		<path d="M842.7,369.8v0.3c-0.2,0-0.5-0.1-0.8-0.1c-0.2,0-0.3,0-0.4,0c0-0.7,0-2.9-0.1-8.5c0-5.2-0.1-5.4-0.2-5.5
			c-0.2-0.6-0.7-0.7-0.9-0.7c-0.2,0-0.4,0.1-0.6,0.3c-0.1,0.1-0.3,0.3-0.3,6.9c0,2.6,0,4.5,0,5.9c0,1.8,0.1,2.2,0.1,2.4
			c0.1,0.3,0.2,0.6,0.3,0.8c0.1,0.2,0.3,0.4,0.5,0.5c0.1,0,0.2,0.1,0.4,0.1c0.2,0,0.4,0,0.6,0c0.2,0,0.4,0,0.6,0c0.2,0,0.3,0,0.4,0
			c0.3,0,0.5-0.1,0.8-0.2c0.3-0.2,0.4-0.5,0.4-0.8c0-0.3-0.1-0.5-0.4-0.7L842.7,369.8z"/>
		<path d="M855.9,355.1c-1.1-0.7-2-1.1-2.8-1.1l-0.2,0c-0.3,0-0.8,0.3-1,0.9l0,0c0,0.1,0,0.1,0,0.9c0,0.5,0,1,0,1.7
			c0,0.6,0,1.4,0.1,2.2c0,0.5,0.1,1.2,0.1,2.2c0,1,0,2.3,0,3.8c0,1.6,0,2.9,0.1,3.7c0,1.4,0,1.5,0.1,1.5c0,0.2,0.1,0.5,0.3,0.7
			c0.2,0.2,0.4,0.3,0.7,0.3c0.3,0,0.7-0.2,1-0.5l0.1-0.1l-0.1-3.1v-1.6c0-1,0-1.3,0-1.2c0,0,0,0,0.1-0.1c0.1-0.1,0.3-0.2,0.4-0.3
			c0.5-0.3,0.9-0.6,1.3-1c0.4-0.3,0.8-0.7,1.1-1.2c0.3-0.4,0.6-0.9,0.8-1.4c0.2-0.5,0.3-1.1,0.3-1.7c0-0.9-0.2-1.8-0.6-2.6
			C857.2,356.3,856.6,355.6,855.9,355.1z M854.1,360.1c0-0.2,0-0.5,0-0.8c0-0.3,0-0.7,0-1.1c0-0.4,0-0.8-0.1-1.1c0-0.3,0-0.4,0-0.6
			l0-0.2c0.7,0.3,1.2,0.7,1.5,1.2c0.5,0.6,0.7,1.4,0.7,2.3c0,0.3-0.1,0.7-0.2,1c-0.1,0.3-0.3,0.7-0.6,1c-0.2,0.3-0.5,0.6-0.8,0.8
			c-0.1,0.1-0.3,0.2-0.4,0.3c0-0.1,0-0.2,0-0.4C854.2,362,854.2,361.2,854.1,360.1z"/>
		<path d="M862,362.9c0-1.7-0.1-3.5-0.1-5.3l0-1.6l-0.3-0.3c-0.2-0.2-0.5-0.3-0.7-0.3c-0.7,0-1,0.6-1,1.8l0,0.4c0,0.1,0,0.4,0.1,1.6
			c0,0.9,0,2.3,0.1,4c0.1,2.5,0.1,4.4,0.1,5.8c0.1,2.1,0.1,2.3,0.1,2.4c0.1,0.2,0.2,0.4,0.3,0.5c0.2,0.1,0.4,0.2,0.6,0.2
			c0.2,0,0.4-0.1,0.6-0.2c0.1-0.1,0.3-0.3,0.3-0.5c0.1-0.2,0.1-0.3,0.1-0.5c0-0.2,0-0.3,0-0.4l-0.1-2.3
			C862.1,366.4,862,364.7,862,362.9z"/>
		<path d="M866.5,356.7c1.6,0,2-0.2,2.1-0.5l0.3-0.5h-0.1c0,0,0-0.1,0-0.1c0-0.3-0.1-0.5-0.3-0.7c-0.2-0.2-0.6-0.3-1.4-0.3h-0.6
			c-0.2,0-0.4,0-0.6,0c-0.5,0-1,0-1.3,0.1c-0.4,0-0.7,0.2-0.9,0.6l0,0c0,0.1-0.1,0.3-0.1,2.4c0,0.3,0,0.7,0,1.5l0,2.5c0,1,0,2,0,3
			c0,1.1,0,2,0.1,2.9c0,0.9,0.1,1.7,0.1,2.3c0,0.9,0.1,1.1,0.1,1.2c0.1,0.1,0.1,0.3,0.2,0.3c0.1,0.1,0.2,0.2,0.4,0.3
			c0.1,0,0.3,0.1,0.6,0.1c0.2,0,0.6,0,1,0l2.2,0l0.1-0.2c0.2-0.4,0.3-0.7,0.3-1c0-0.4-0.2-0.7-0.5-0.8c-0.2,0-0.5-0.1-1.5-0.1
			c-0.3,0-0.6,0-0.8,0h0c0,0,0-0.1,0-0.2c0-0.2,0-0.6-0.1-1c-0.1-1-0.1-2-0.1-2.8c0-0.2,0-0.4,0-0.5c0-0.2,0-0.3,0-0.4l0-0.1
			c0.2,0,0.5-0.1,0.7-0.2c0.4-0.2,0.6-0.5,0.6-0.9c0-0.4-0.2-1-1.3-1c0-0.2,0-0.4,0-0.8c0-0.6,0-1.4-0.1-2.5l0-2.6
			c0.1,0,0.3,0,0.4,0C866.2,356.7,866.3,356.7,866.5,356.7z"/>
		<path d="M875.8,369.9c-0.6-0.1-1.1-0.2-1.4-0.4c-0.3-0.1-0.6-0.4-0.8-0.7c-0.8-1.1-1.2-2.9-1.2-5.4c0-0.8,0-1.5,0.1-2.1
			c0.1-0.6,0.1-1.2,0.2-1.7c0.1-0.5,0.3-0.9,0.5-1.3c0.2-0.4,0.4-0.8,0.7-1.1c0.3-0.4,0.7-0.7,0.9-0.7c1-0.1,1.1-0.7,1.1-1
			c0-0.2-0.1-0.4-0.4-0.7c-0.2-0.2-0.5-0.3-0.6-0.3l-0.2,0c-0.7,0-1.2,0.2-1.7,0.7c-0.4,0.4-0.8,0.8-1.1,1.3l0,0
			c-0.7,1-1.1,2.2-1.3,3.4c-0.2,1.2-0.3,2.4-0.3,3.6c0,1.2,0,2,0.1,2.5c0.1,0.8,0.3,1.5,0.5,2.2c0.2,0.7,0.5,1.4,0.9,1.9
			c0.4,0.6,0.9,1.1,1.5,1.4c0.6,0.4,1.4,0.6,2.3,0.6h0.1c1,0,1.2-0.7,1.2-1C877,370.6,876.8,370,875.8,369.9z"/>
		<path d="M883.2,370c-0.2,0-0.5-0.1-1.5-0.1c-0.3,0-0.6,0-0.8,0h0c0,0,0-0.1,0-0.2c0-0.2,0-0.6-0.1-1c-0.1-1-0.1-2-0.1-2.8
			c0-0.2,0-0.4,0-0.5c0-0.2,0-0.3,0-0.4l0-0.1c0.2,0,0.5-0.1,0.7-0.2c0.4-0.2,0.6-0.5,0.6-0.9c0-0.4-0.2-1-1.3-1c0-0.2,0-0.4,0-0.8
			c0-0.6,0-1.4-0.1-2.5l0-2.6c0.1,0,0.3,0,0.4,0c0.2,0,0.3,0,0.5,0c1.6,0,2-0.2,2.1-0.5l0.3-0.5h-0.1c0,0,0-0.1,0-0.1
			c0-0.3-0.1-0.5-0.3-0.7c-0.2-0.2-0.6-0.3-1.4-0.3h-0.6c-0.2,0-0.4,0-0.6,0c-0.5,0-1,0-1.3,0.1c-0.4,0-0.7,0.2-0.9,0.6l0,0
			c0,0.1-0.1,0.3-0.1,2.4c0,0.3,0,0.7,0,1.5l0,2.5c0,1,0,2,0,3c0,1.1,0,2,0.1,2.9c0,0.9,0.1,1.7,0.1,2.3c0,0.9,0.1,1.1,0.1,1.2
			c0.1,0.1,0.1,0.3,0.2,0.3c0.1,0.1,0.2,0.2,0.4,0.3c0.1,0,0.3,0.1,0.6,0.1c0.2,0,0.6,0,1,0l2.2,0l0.1-0.2c0.2-0.4,0.3-0.7,0.3-1
			C883.7,370.4,883.5,370.1,883.2,370z"/>
	</g>
	<g>
		<path d="M336.9,282.2c0-0.1-0.1-0.3-0.1-0.7l-0.2-1.4c-0.2-1.3-0.4-2.6-0.6-4c-0.2-1.4-0.4-2.9-0.7-4.4l-0.5-2.9
			c-0.2-1.1-0.2-1.2-0.2-1.2c-0.3-0.5-0.7-0.6-1-0.6c-0.3,0-0.6,0.1-0.7,0.3c-0.1,0.1-0.2,0.2-0.6,0.7c-0.2,0.3-0.6,0.8-0.9,1.4
			c-0.3,0.5-0.6,0.8-0.8,1.1c-0.1,0.1-0.1,0.2-0.2,0.2c0,0-0.1-0.1-0.1-0.1c-0.2-0.3-0.4-0.6-0.7-1c-0.4-0.6-0.7-1-0.9-1.4
			c-0.2-0.3-0.3-0.4-0.4-0.5l0,0c-0.3-0.4-0.7-0.6-1.2-0.6c-0.3,0-0.6,0.1-0.7,0.3c-0.1,0.1-0.2,0.4-0.3,1.1c0,0.4-0.1,0.9-0.1,1.4
			c0,0.5-0.1,0.9-0.1,1.4v0c-0.8,7-1.1,10.8-1.1,11.5c0,0.3,0.1,0.6,0.3,0.8c0.2,0.2,0.4,0.3,0.7,0.3c0.2,0,0.4-0.1,0.6-0.3l0,0
			c0,0,0,0,0,0c0,0,0,0,0,0h0c0.2-0.2,0.3-0.5,0.4-1.7c0-0.4,0.1-1.4,0.3-2.8c0.2-1.5,0.3-3.4,0.6-5.9c0.1-1.3,0.2-2.1,0.2-2.6
			c0,0,0,0,0.1,0.1c0.6,0.8,0.9,1.4,1.2,1.8c0.5,0.9,0.9,1.2,1.3,1.2c0.2,0,0.5-0.1,0.7-0.4c0.1-0.2,0.4-0.5,0.8-1l0.2-0.2
			c0.2-0.3,0.5-0.6,0.7-1c0.1-0.2,0.3-0.4,0.4-0.7c0.1,0.6,0.2,1.4,0.4,2.3c0.2,1.4,0.5,3.2,0.7,5.3c0.2,1.7,0.4,3.1,0.6,4.1
			c0.3,1.4,0.4,1.7,0.5,1.8c0.1,0.1,0.2,0.2,0.3,0.3c0.1,0.1,0.2,0.1,0.3,0.1c0,0,0.1,0,0.1,0c0.2,0,0.4-0.1,0.6-0.3
			c0.2-0.2,0.3-0.4,0.3-0.7c0-0.1,0-0.2,0-0.4L336.9,282.2z"/>
		<path d="M347.7,272.1c-0.1-0.6-0.2-1.3-0.4-2c-0.2-0.7-0.5-1.3-0.8-1.9c-0.4-0.6-0.8-1.1-1.4-1.4c-0.6-0.4-1.3-0.6-2.1-0.6
			c-0.7,0-1.3,0.1-1.8,0.4c-0.5,0.2-1,0.6-1.3,1c-0.4,0.4-0.6,0.9-0.8,1.5c-0.2,0.5-0.3,1.1-0.4,1.8c0,0.4-0.1,0.9-0.1,1.4
			c0,0.5,0,1.1,0,1.7c0,0.4,0,0.7,0.1,0.9c0,0.2,0,0.6,0,1.2c0,0.6,0,1.2,0.1,1.9c0.1,0.6,0.2,1.2,0.4,1.9c0.1,0.5,0.2,0.9,0.4,1.2
			c0.1,0.3,0.3,0.6,0.5,0.9c0.2,0.3,0.4,0.5,0.6,0.7c0.2,0.2,0.5,0.4,0.7,0.6c0.6,0.4,1.2,0.6,2,0.6c1,0,1.9-0.3,2.6-1
			c0.5-0.5,0.9-1,1.1-1.6c0.3-0.6,0.5-1.2,0.6-1.9c0.1-0.6,0.2-1.3,0.2-2c0-0.7,0-1.3,0-1.9c0-0.8,0-1.4-0.1-2
			C347.7,272.9,347.7,272.5,347.7,272.1z M342.9,268.2c0.6,0,1,0.2,1.4,0.6c0.4,0.4,0.7,0.9,0.9,1.5c0.2,0.6,0.4,1.2,0.4,1.9
			c0.1,0.7,0.1,1.3,0.1,1.7c0,0.8,0,1.2,0.1,1.3l0,0l0,0.2c0,0.5,0,1.1-0.1,1.9c0,0.7-0.1,1.4-0.3,2.1c-0.2,0.6-0.5,1.2-0.8,1.6
			c-0.3,0.4-0.8,0.6-1.4,0.6c-0.3,0-0.6,0-0.8-0.1c-0.4-0.1-0.7-0.5-0.9-1.1c-0.3-0.7-0.5-1.4-0.6-2.2c-0.1-0.8-0.2-1.7-0.3-2.5
			c0-0.8-0.1-1.5-0.1-2c0-1.6,0.1-2.6,0.2-3.1c0.1-0.3,0.2-0.6,0.3-0.9c0.1-0.3,0.3-0.5,0.4-0.8c0.2-0.2,0.4-0.4,0.6-0.5
			C342.3,268.3,342.6,268.2,342.9,268.2z"/>
		<path d="M358,268.1c-0.2-0.1-0.4-0.2-0.8-0.2c-0.2,0-0.5,0.1-0.6,0.3c-0.1,0.2-0.2,0.4-0.2,0.6c0,0.2,0,0.4,0.1,0.4c0,0,0,0,0,0.2
			c0,0.2,0,0.4,0,0.7c0,0.3,0,0.9,0,1.7c0,0.8,0,2-0.1,3.3c0,1,0,1.8-0.1,2.4c0,0.6,0,1-0.1,1.2c0,0.3-0.1,0.5-0.2,0.8
			c-0.1,0.3-0.3,0.6-0.5,0.9c-0.2,0.3-0.4,0.5-0.7,0.6c-0.5,0.3-1,0.3-1.4,0c-0.2-0.1-0.4-0.3-0.6-0.5c-0.2-0.2-0.3-0.5-0.4-0.7
			c-0.1-0.3-0.2-0.5-0.3-0.8c-0.1-0.4-0.3-1.1-0.3-1.8c-0.1-0.8-0.2-1.7-0.2-2.8c-0.1-1.6-0.2-2.8-0.2-3.7c0-0.9-0.1-1.5-0.1-1.8
			c-0.1-0.7-0.2-1.1-0.5-1.3c-0.3-0.2-0.8-0.2-1.2,0.2l-0.1,0.1v0c-0.1,0.2-0.2,0.5-0.2,1c0,0.3,0,0.7,0,1.2l0.1,1.8
			c0,0.2,0,0.5,0.1,0.8l0.1,0.9c0,0.4,0.1,0.9,0.1,1.2c0,0.4,0,0.6,0,0.7c0,0.7,0.1,1.4,0.2,2.3c0.1,0.9,0.3,1.7,0.6,2.5
			c0.3,0.8,0.8,1.5,1.3,2.1c0.6,0.6,1.4,0.9,2.4,0.9c0.5,0,1-0.1,1.4-0.3c0.4-0.2,0.8-0.5,1.1-0.8c0.3-0.3,0.6-0.7,0.8-1.1
			c0.2-0.4,0.4-0.8,0.5-1.3c0.2-0.8,0.3-3.2,0.3-7.4c0-3.6-0.1-3.8-0.2-4C358.2,268.5,358.1,268.3,358,268.1z"/>
		<path d="M363.2,281.5v0.3c-0.2,0-0.5-0.1-0.8-0.1c-0.2,0-0.3,0-0.4,0c0-0.7,0-2.9-0.1-8.5c0-5.2-0.1-5.4-0.2-5.5
			c-0.2-0.6-0.7-0.7-0.9-0.7c-0.2,0-0.4,0.1-0.6,0.3c-0.1,0.1-0.3,0.3-0.3,6.9c0,2.6,0,4.5,0,5.9c0,1.8,0.1,2.2,0.1,2.4
			c0.1,0.3,0.2,0.6,0.3,0.8c0.1,0.2,0.3,0.4,0.5,0.5c0.1,0,0.2,0.1,0.4,0.1c0.2,0,0.4,0,0.6,0c0.2,0,0.4,0,0.6,0c0.2,0,0.3,0,0.4,0
			c0.3,0,0.5-0.1,0.8-0.2c0.3-0.2,0.4-0.5,0.4-0.8c0-0.3-0.1-0.5-0.4-0.7L363.2,281.5z"/>
		<path d="M373.5,272.5c-0.2-1.3-0.7-2.5-1.4-3.6c-0.6-0.8-1.3-1.5-2.1-2c-0.8-0.5-1.8-0.8-2.8-0.8c-0.2,0-0.3,0-0.4,0
			c-0.1,0-0.2,0-0.3,0.1c-0.3,0.1-0.6,0.3-0.7,0.5c-0.1,0.2-0.1,0.5-0.1,1c0,0.3,0,0.8,0,1.5c0,0.7,0.1,1.5,0.1,2.4
			c0,1,0.1,1.8,0.1,2.4c0,0.6,0,1,0.1,1.3c0.1,2.1,0.2,3.8,0.2,5.1c0,1.3,0.1,2.2,0.2,2.5c0.1,0.4,0.4,0.9,1.4,0.9h0.2
			c0.8,0,1.5-0.1,2.2-0.4c0.6-0.2,1.2-0.6,1.7-1.1c0.5-0.5,0.9-1,1.2-1.6c0.3-0.6,0.5-1.3,0.7-2.1c0.1-0.4,0.1-1.1,0.1-2.3
			C373.8,275,373.7,273.7,373.5,272.5z M368.2,281.7c0-0.2-0.1-0.5-0.1-1.2c-0.1-0.8-0.1-2-0.2-3.4c0-0.1,0-0.3,0-0.8l-0.1-5.7
			c0-0.6,0-1.1-0.1-1.5c0-0.4-0.1-0.7-0.1-1c0,0,0,0,0-0.1c0.1,0,0.2,0,0.4,0.1c0.8,0.3,1.5,0.7,1.9,1.2c0.5,0.6,0.9,1.2,1.2,1.9
			c0.3,0.7,0.5,1.5,0.5,2.4c0.1,0.8,0.1,1.7,0.1,2.4c0,1.5-0.1,2.1-0.1,2.3c-0.3,0.9-0.7,1.6-1.1,2.1c-0.5,0.5-1.1,0.8-1.9,1
			C368.4,281.7,368.3,281.7,368.2,281.7z"/>
	</g>
	<path d="M446.7,83.1c0-0.6-0.3-1.2-0.9-1.3c-1.3-0.2-2.6-0.3-4-0.3c-0.6,0-1.2,0-1.9,0.1c-0.7,0-1.4,0.1-2.1,0.2
		c-0.9,0.2-1.3,1.1-1.1,2c0.1,0.5,0.4,1.1,0.6,1.6c0.1,0.2,0.2,0.4,0.3,0.7c-12.5,3-28.5,6.2-38-4.9c-1-1.2-2.8,0.6-1.8,1.8
		c4.4,5.1,10.8,7.6,17.3,8.4c8,0.9,16-1,23.6-2.9c0.1,0.1,0.1,0.2,0.2,0.3c0.4,0.6,0.9,1.1,1.6,1.3c0.8,0.2,1.5,0,2.1-0.5
		c1-0.8,1.8-1.8,2.7-2.7c0.5-0.5,1-0.9,1.4-1.5C447.2,84.5,447.2,83.7,446.7,83.1z M438.6,84.1C438.6,84.1,438.5,84.1,438.6,84.1
		L438.6,84.1z"/>
	<path d="M393.4,321.2c-0.5-0.6-1-1.2-1.6-1.8c-1-1-2.9-3.1-4.4-2.1c-0.3,0.1-0.6,0.3-0.7,0.5c-0.5,1-0.9,2.1-1.4,3.1
		c-13.1-4.5-21.1-17.5-28-28.9c-0.8-1.4-3-0.1-2.2,1.3c7.2,11.9,15.6,25.2,29.2,29.9c-0.3,0.6-0.5,1.2-0.8,1.9
		c-0.2,0.4-0.2,0.8,0,1.3c0.2,0.4,0.6,0.7,1.1,0.6c1.9-0.1,3.7-0.4,5.6-0.7c0.8-0.1,1.7-0.2,2.5-0.5c0.9-0.3,2-0.9,2-2
		C394.7,322.7,393.9,321.8,393.4,321.2z"/>
	<path d="M163.6,253.6c-0.3-0.9-1.4-1.4-2.3-1.6c-0.9-0.2-1.8-0.2-2.7-0.1c-0.9,0.1-1.9,0.1-2.8,0.2c-1,0.1-2,0.2-2.9,0.7
		c-0.6,0.3-0.9,0.8-1,1.4c-0.1,0-0.2,0-0.3,0.1c-0.6,0.4-0.8,1.1-0.4,1.7c0.5,0.9,1,1.8,1.6,2.7c-16.7,13.1-26.8,33.5-27,54.7
		c-0.1,6.6,0.9,13.1,2.5,19.4c0.4,1.6,2.8,0.9,2.4-0.7c-2.7-10.9-3.2-22.1-0.7-33.2c2.3-9.9,6.8-19.3,13.1-27.2
		c3.3-4.1,7-7.8,11.1-11.1c0.5,0.7,1,1.3,1.6,1.9c0.4,0.5,1.3,0.5,1.8,0c1.3-1.3,2.5-2.7,3.6-4.2c0.5-0.7,1.1-1.4,1.6-2.2
		C163.2,255.5,163.9,254.6,163.6,253.6z"/>
</g>
</svg>
