<svg xmlns="http://www.w3.org/2000/svg" viewBox="0 0 34.29 37.52"><title>icon difficulty level</title><g id="Calque_1" data-name="Calque 1"><path d="M9.13,35.89q0-9.74,0-19.45a1.26,1.26,0,0,0-1.25-1.25,30,30,0,0,0-6,.83A1.28,1.28,0,0,0,1,17.23Q.57,26,0,34.76a1.06,1.06,0,0,0,.85,1.17,1.24,1.24,0,0,0,.4.08c2.25.13,4.37,1,6.63,1.13A1.06,1.06,0,0,0,9,36.54,1.21,1.21,0,0,0,9.13,35.89Zm-2.5-1.4c-1.36-.22-2.7-.6-4.06-.82q.5-7.71.86-15.43a26.67,26.67,0,0,1,3.19-.47Q6.62,26.13,6.63,34.49Z" style="fill:#1d1d1b"/><path d="M20.25,8.31a1.32,1.32,0,0,0-.59-.18c-2.13-.11-4.24-.43-6.37-.54A1.26,1.26,0,0,0,12,8.84l-.89,26.68a1.14,1.14,0,0,0,.26.8,1,1,0,0,0,1,.45c2.16-.12,4.27.48,6.43.35a1.2,1.2,0,0,0,.91-.45,1.23,1.23,0,0,0,.34-.8q.86-13.23.83-26.49A1.12,1.12,0,0,0,20.25,8.31Zm-2.6,26.31c-1.32,0-2.64-.28-4-.34q.41-12.06.8-24.1c1.31.1,2.61.25,3.91.36Q18.39,22.6,17.65,34.62Z" style="fill:#1d1d1b"/><path d="M34.27,2a.94.94,0,0,0-.9-.87C30.79.8,28.21.46,25.64,0a1.2,1.2,0,0,0-.57,0,1.18,1.18,0,0,0-1,1.18q-.37,17.06-1.48,34.1a1,1,0,0,0,.34.91,1.07,1.07,0,0,0,.91.34c2.68-.18,5.2,1.1,7.9.93a1.28,1.28,0,0,0,.57-.18A1.14,1.14,0,0,0,33,36.26q.15-17,1.31-33.91A1.17,1.17,0,0,0,34.27,2Zm-7.75.65c1.73.27,3.47.52,5.21.75Q30.67,19.19,30.5,35c-1.8-.14-3.55-.73-5.35-.88Q26.16,18.41,26.52,2.67Z" style="fill:#1d1d1b"/></g></svg>