<svg xmlns="http://www.w3.org/2000/svg" viewBox="0 0 39.18 38.05"><title>icon time needed</title><g id="Calque_1" data-name="Calque 1"><path d="M25.56,23.4c-.81-.43-1.66-.76-2.45-1.23A9.79,9.79,0,0,1,20.71,20Q20.13,13.53,20,7a1.25,1.25,0,0,0-2.5,0c.1,4.5.37,9,.78,13.45a1.43,1.43,0,0,0,.17.54,1.37,1.37,0,0,0,.2.35,12.58,12.58,0,0,0,3,2.84c.84.53,1.77.89,2.65,1.35C25.72,26.32,27,24.16,25.56,23.4Z" style="fill:#1d1d1b"/><path d="M18,.08C6.93,1.71-.69,12.2.31,23.14,1.35,34.59,11.53,38.61,22,38A18,18,0,0,0,39,17.9C37.67,7.08,29.18-.61,18.35,0c-1.59.09-1.61,2.59,0,2.5C27.63,2,34.5,7.91,36.36,17c2.12,10.35-6.09,18.63-16.14,18.54C11.1,35.44,3,31.84,2.72,21.7a18.94,18.94,0,0,1,16-19.21c1.58-.23.91-2.64-.67-2.41Z" style="fill:#1d1d1b"/></g></svg>