<?xml version="1.0" encoding="utf-8"?>
<!-- Generator: Adobe Illustrator 24.0.1, SVG Export Plug-In . SVG Version: 6.00 Build 0)  -->
<svg version="1.1" xmlns="http://www.w3.org/2000/svg" xmlns:xlink="http://www.w3.org/1999/xlink" x="0px" y="0px"
	 viewBox="0 0 1000 666" style="enable-background:new 0 0 1000 666;" xml:space="preserve">
<style type="text/css">
	.st0{fill:#95D2EF;}
	.st1{fill:#1E1E1C;}
	.st2{fill:#1E1E1C;stroke:#1E1E1C;stroke-width:0.25;stroke-miterlimit:10;}
	.st3{fill:#1E1E1C;stroke:#1E1E1C;stroke-width:0.15;stroke-miterlimit:10;}
	.st4{fill:#FFFFFF;}
	.st5{stroke:#1E1E1C;stroke-miterlimit:10;}
	.st6{fill:none;stroke:#1E1E1C;stroke-width:3;stroke-linecap:round;stroke-linejoin:round;stroke-miterlimit:10;}
</style>
<g id="Calque_2">
	<g>
		<path class="st0" d="M176.4,348c-2.7-1.5-5.4-3-8.4-3.7c-6.2-1.5-12.9,0.6-18.2,4.2c-15.9,10.5-21.6,31.7-19.6,50.7
			c2.8,26.2,18.4,50.4,40.3,65s49.7,19.7,75.6,15.3c2-0.3,4-0.8,5.6-2c2.5-1.9,3.2-5.4,3.6-8.5c2.2-18.4-2.7-37.1-11.2-53.6
			c-8.5-16.5-20.4-30.9-32.9-44.5c-9.6-10.4-21.2-21.2-35.4-21.2"/>
	</g>
	<g>
		<path class="st0" d="M729.4,355c-4.2,6.9-3.4,16.5,1.9,22.7s14.7,8.4,22.2,5.2c11.9-5,17-20.8,29.4-24.1c5-1.4,10.5-0.4,15.4-2.2
			c7-2.5,11.1-9.9,12.9-17.1c1.2-4.8,1.5-10.5-1.9-14.1c-2.8-2.9-7.1-3.6-11.2-3.8c-14.1-0.4-27.7,4.3-41.2,8.5
			c-5.9,1.8-12,3.6-17.1,7.2s-9.1,9.3-8.9,15.5"/>
	</g>
	<g>
		<path class="st0" d="M476.1,522.2c-4.7,3-10.7,1-16.2,0.3c-12.8-1.7-26.6,5.3-31.5,17.2c-4.8,11.9,1.3,27.6,13.4,31.8
			c6,2.1,12.6,1.5,18.9,1.5c13.6,0.1,26.9,3.6,40.4,5.6c13.5,2,27.7,2.5,40.2-2.9c12.5-5.4,22.7-18.1,21.4-31.6
			c-0.4-3.8-1.6-7.6-4-10.7c-4.5-5.8-12.1-8.1-19.3-9.1c-9.5-1.4-19.3-1.3-28.8,0.4"/>
	</g>
</g>
<g id="Calque_1">
	<g id="XMLID_2_">
		<g>
			<path class="st4" d="M515.7,513.2c1.1,10.9,2.3,21.8,3.4,32.8c-14.6,7.8-32.5,8.6-47.7,2.1c0.4-40,1.2-79.9,2.5-119.9
				c1.3-40.4,3.1-80.7,5.4-121c1.3-22.6,2.7-45.3,4.3-67.9c0-0.2,0-0.3,0-0.4c1.4,0.3,2.8,0.5,4.2,0.4h0c0.5,22.9,1.4,45.7,2.8,68.5
				c1.4,24.4,3.4,48.7,5.8,73c0.5,4.7,0.6,10.9,5.3,13.5c0.6,0.3,1.3,0.6,1.9,0.7C507.5,434.4,511.6,473.8,515.7,513.2z"/>
			<path class="st4" d="M511.8,249.4c7.3,7,7,17.4,5.7,26.7c-0.8,5.8-1.9,11.6-2.8,17.4c-0.9,6.2-1.8,12.4-2.6,18.6
				c-1.6,12.6-2.9,25.1-3.8,37.8c-1,13.8-1.7,27.6-2,41.4c-1.1,0.6-2.4,0.2-3.4-0.5c-1.5-1.1-2.1-3.3-2.4-5.1
				c-0.4-2.6-0.6-5.2-0.8-7.8c-0.3-2.6-0.5-5.3-0.8-7.9c-1-10.9-1.9-21.8-2.8-32.6c-1.6-21.9-2.9-43.7-3.8-65.6
				c-0.5-12.3-0.9-24.6-1.1-37c0-0.7,0.1-1.5,0.5-2c0.2-0.2,0.7-0.3,1.2-0.4c1,0,1.7,0.1,2.6,0.3
				C497.8,240.5,506.3,244.1,511.8,249.4z"/>
			<path class="st1" d="M491.2,212.2c-0.5,0-1.1,0-1.6,0.1c0,0,0,0,0,0c-0.1,0-0.3,0.1-0.4,0.1c-0.3,0-0.5,0.1-0.7,0.2
				c-0.5,0.1-0.9,0.3-1.4,0.5c-0.1,0-0.1,0.1-0.2,0.1c-0.1,0.1-0.3,0.1-0.4,0.2c-0.2,0.1-0.5,0.2-0.7,0.4c-0.2,0.1-0.4,0.3-0.6,0.4
				c-0.1,0.1-0.2,0.1-0.3,0.2c0,0,0,0-0.1,0c0,0,0,0,0,0c-0.4,0.3-0.8,0.7-1.2,1.1c-0.2,0.2-0.3,0.4-0.5,0.6c0,0,0,0,0,0
				c-0.1,0.1-0.1,0.2-0.2,0.3c1.8,2.1,3.3,4.7,2.6,7.5c-0.8,3.1-3.9,4.5-6.8,5.2c0,0.1,0.1,0.3,0.1,0.4c0,0.2,0,0.3,0,0.5
				c0,0,0,0.1,0,0.2c0,0.1,0,0.3,0,0.3c0,0.1,0,0.2,0.1,0.3c0.1,0.2,0.1,0.5,0.2,0.7c0,0.1,0.1,0.2,0.1,0.2c0.1,0.1,0.1,0.3,0.2,0.4
				c0.1,0.3,0.3,0.5,0.5,0.7c0,0,0,0.1,0,0.1c0,0,0,0,0,0c0.1,0.1,0.2,0.2,0.3,0.3c0.2,0.2,0.4,0.4,0.6,0.6c0,0.1,0.1,0.1,0.2,0.1
				c0,0,0.2,0.1,0.2,0.1c0.5,0.3,1.2,0.7,1.6,0.9c0.3,0.1,1.1,0.4,1.6,0.5c0.3,0.1,0.6,0.1,0.9,0.2c0.1,0,0.2,0,0.2,0
				c0.2,0,0.3,0,0.5,0c0.2,0,0.4,0,0.5,0c0.3-0.3,0.6-0.4,0.9-0.5c0-0.1,0-0.2,0-0.4c0.1-2.7,1.3-5.3,4.1-5.9c2-0.4,4,0.1,6,0.4
				c0.6,0.1,1.2,0.7,1.3,1.3c0.2,0.8,0.4,1.7,0.8,2.4c0.1-0.2,0.2-0.4,0.4-0.6c0.3-0.2,0.5-0.5,0.7-0.7c0,0,0.1-0.2,0.2-0.2
				c0-0.1,0.1-0.2,0.2-0.2c0.2-0.3,0.3-0.5,0.5-0.8c0.1-0.1,0.1-0.3,0.2-0.4c0,0,0.1-0.1,0.1-0.2c0.2-0.5,0.4-1.1,0.5-1.6
				c0-0.1,0-0.3,0.1-0.4c0-0.1,0-0.2,0-0.2c0-0.3,0-0.6,0-0.8c0-2.2-0.6-4.2-2.1-5.7c-0.3-0.3-0.5-0.6-0.5-1c-0.1,0-0.1,0-0.2,0
				c-3.7,0.7-7-1-7.7-4.8c-0.2-1-0.2-2-0.2-3.1C491.6,212.2,491.4,212.2,491.2,212.2z M496.2,216c0.2,0.3,0.2,0.2,0.5,0.4
				c0.1,0,0.5,0.2,0.5,0.2c0.4,0.1,0.8,0,1.2,0c1.5-0.2,3-0.6,4.4-0.9c1.7-0.3,3.5-0.6,5.1-1.4c3-1.3,5.8-3,8.7-4.5
				c2.9-1.6,5.8-3.3,8.7-5c5.7-3.4,11.2-7,16.7-10.7c11.1-7.4,22-15,32.7-22.9c16.4-12.1,32.3-24.8,48.6-36.9
				c-5.8,2.7-11.6,5.3-17.5,7.9c-21,9.3-42.2,18-63.6,26.1c-5.4,2-10.8,4.1-16.2,6c-2.7,1-5.3,1.9-8,2.9c-2.2,0.8-4.5,1.7-6.3,3.3
				c-1.8,1.7-3,3.9-4.1,6.1c-1.3,2.7-2.6,5.3-4,8c-2.6,5.3-5.2,10.5-7.8,15.8c0,0.2-0.1,0.3-0.1,0.5c0,0.2-0.1,0.4-0.1,0.7
				c0,0.1,0,0.1,0,0.1c0,0,0,0,0,0.1c0,0.1,0,0.2,0,0.3c-0.1,0.7-0.1,1.3,0,2c0,0.1,0,0.3,0,0.4c0,0.1,0,0.3,0.1,0.3
				c0,0.1,0.2,0.6,0.2,0.7c0,0,0,0,0,0C496,215.6,496.2,216,496.2,216z M642,123.3c0.6,0.8,0.6,2-0.6,2.5
				c-12.9,9.1-25.4,18.7-37.9,28.3c-22,16.9-44.2,33.6-67.6,48.6c-5.8,3.7-11.8,7.3-17.8,10.6c-3,1.6-6,3.4-9.1,4.7
				c-1.6,0.6-3.3,1.1-5,1.4c3.5,4.5,3.2,11.6-1.1,15.6c-0.4,0.4-1,0.6-1.5,0.5c2.3,3,5.6,5.1,8.5,7.3c3.4,2.6,6.7,5.4,8.9,9.2
				c4.8,8.5,3.5,18.9,2,28.1c-3.8,23.8-7,47.6-8.7,71.6c-0.9,12-1.5,24.1-1.8,36.2c0,1.4,0.2,3.3-0.2,4.7c-0.3,1.1-1.5,1.8-2.5,2.2
				c-0.1,0-0.2,0.1-0.3,0.1c1.1,10.9,2.3,21.9,3.4,32.8c4.1,39.8,8.2,79.6,12.3,119.4c0.1,0.6-0.4,1.3-0.9,1.6
				c-16.3,9.2-36.5,10-53.5,2.3c-0.6-0.3-0.9-1-0.9-1.6c0.2-22.7,0.6-45.3,1.1-68c0.9-40.4,2.3-80.7,4.1-121.1
				c1.8-40.3,4.2-80.7,7-120.9c0-0.7,0.4-1.2,0.9-1.5c-3.1-1.7-5.5-4.7-5.5-8.4c-3,0.2-6.1,0.1-9.1-0.2c-4.4-0.4-8.8-0.8-13.2-1.1
				c-4.1-0.4-8.1-0.7-12.2-1.1c-3.6-0.3-7.3-0.7-10.8-1.8c-6.3-2-11-6.5-16-10.6c-9.9-8-21-14.4-32-20.8
				c-11.2-6.4-22.5-12.7-32.9-20.3c-4.9-3.6-9.6-7.4-13.8-11.7c-2-2.1-4.2-4.4-5-7.3c-0.9-3.1,0.6-5.7,3.2-7.4
				c0.8-0.5,1.5-0.4,2,0.1c9,6.5,19.2,10.9,29.5,14.8c10,3.9,20,7.4,30,11.3c10.1,4,20.1,8.2,30.1,12.6
				c18.9,8.4,37.4,17.7,55.3,27.8c2.9-3.8,7.7-5.9,12.4-5.3c3-6.1,6-12.2,9.1-18.2c2.6-5.3,4.8-11.4,10.2-14.5
				c2.2-1.3,4.6-2.1,7-2.9c2.7-1,5.4-2,8.1-2.9c5.4-2,10.8-4,16.2-6.1c10.9-4.2,21.8-8.5,32.6-12.9c21.5-8.9,42.7-18.3,63.7-28.4
				C640.5,121.9,641.5,122.4,642,123.3z M519.1,546c-1.1-10.9-2.3-21.8-3.4-32.8c-4.1-39.4-8.2-78.8-12.2-118.2
				c-0.7-0.2-1.3-0.4-1.9-0.7c-4.7-2.5-4.9-8.8-5.3-13.5c-2.4-24.3-4.3-48.6-5.8-73c-1.4-22.8-2.3-45.6-2.8-68.5h0
				c-1.4,0.1-2.8-0.1-4.2-0.4c0,0.1,0,0.3,0,0.4c-1.6,22.6-3,45.2-4.3,67.9c-2.3,40.3-4,80.7-5.4,121c-1.3,39.9-2.1,79.9-2.5,119.9
				C486.5,554.6,504.5,553.8,519.1,546z M517.5,276.1c1.3-9.3,1.6-19.7-5.7-26.7c-5.5-5.3-14-8.9-16.2-16.8
				c-0.9-0.2-1.6-0.3-2.6-0.3c-0.5,0-1,0.2-1.2,0.4c-0.4,0.4-0.5,1.2-0.5,2c0.3,12.3,0.6,24.7,1.1,37c0.9,21.9,2.1,43.8,3.8,65.6
				c0.8,10.9,1.7,21.8,2.8,32.6c0.2,2.6,0.5,5.3,0.8,7.9c0.3,2.6,0.4,5.2,0.8,7.8c0.3,1.8,0.8,3.9,2.4,5.1c1,0.7,2.4,1.1,3.4,0.5
				c0.3-13.8,1-27.6,2-41.4c1-12.6,2.3-25.2,3.8-37.8c0.8-6.2,1.7-12.4,2.6-18.6C515.6,287.7,516.7,281.9,517.5,276.1z M481.8,223.3
				c1.2-1.9-1.2-4.4-2.5-5.6c-10.2-5.8-20.5-11.2-30.9-16.4c-19.3-9.6-39.1-18.3-59.2-26c-9.9-3.8-19.9-7.3-29.7-11.2
				c-8.7-3.5-17.4-7.4-25.1-12.9c-0.5,0.5-0.8,1.1-0.7,1.9c0.1,1.3,1.1,2.6,1.8,3.6c1.9,2.4,4.2,4.6,6.5,6.6
				c4.7,4.2,9.9,8,15.2,11.5c19.8,13.1,41.9,22.7,60.3,38c4.5,3.8,8.9,7.7,14.7,9.3c3.3,0.9,6.8,1.1,10.2,1.4
				c3.7,0.3,7.4,0.6,11,0.9c3.8,0.3,7.5,0.7,11.3,1c3.2,0.3,6.4,0.6,9.6,0.4c1.6-0.1,3.2-0.3,4.7-0.8
				C479.9,224.6,481.2,224.2,481.8,223.3z"/>
		</g>
	</g>
	<g id="XMLID_3_">
		<g>
			<path class="st4" d="M855.7,322.8c0.2,1.4,0,1.8-1.4,2.3c-1.5,0.6-3,0.6-4.6,0.6c-2,0-4-0.1-6-0.1c-8.1-0.1-16.2,0.1-24.2,0.6
				c-7.6,0.5-15.3,1-22.8,2.3c-3.5,0.6-7,1.6-10.3,3c-3.2,1.4-6.1,3.2-8.9,5.3c-3,2.2-6.1,4.7-9.8,5.8c-2.8,0.8-6.2,0.9-8.7-0.9
				c-0.2-2.7,0.3-5.5,0.7-8.1c0.5-2.7,1-5.4,1.4-8.1c0.6-0.3,1.3-0.7,1.8-1.1c24-2,48-2.5,72.1-2.9c6.8-0.1,13.7-0.3,20.5-0.5
				C855.6,321.6,855.6,322.2,855.7,322.8z"/>
			<path class="st4" d="M769.4,346c0,0,0.1,0,0.1,0c-0.5,8-1.9,17.4-9.7,21.3c-2.4,1.2-5.1,1.8-7.7,2.5c-2.8,0.7-5.6,1.3-8.5,1.8
				c-5.8,1.1-11.6,1.8-17.4,2.1c-11.6,0.7-23.3,0.1-34.8-2c-2.9-0.5-5.8-1.1-8.7-1.8c-2.5-0.6-5.1-1.2-7.5-2.2
				c-2.2-0.9-4.2-2.2-5.4-4.2c-1.4-2.3-2-4.9-2.6-7.4c-2.8-11.4-4.2-23-4.3-34.7c0.6,0.2,1.3,0.4,1.9,0.5c2.3,0.4,4.6,0.5,6.8,0.7
				c9.6,0.9,19.3,1.8,28.9,2.8c16.7,1.6,33.9,4.2,50.6,0.9c2.2-0.4,4.3-1,6.4-1.7c0,0,0.1,0.1,0.1,0.1c-0.4,3.5-1.3,7-1.8,10.5
				c-0.3,1.9-0.5,3.8-0.5,5.7c0,0.8,0,1.5,0.2,2.3c0.2,1.1,1.4,1.8,2.3,2.4C761.2,347.4,765.7,347.3,769.4,346z"/>
			<path class="st1" d="M860.7,311.6c1,0.2,1.6,1.4,1.3,2.3c-0.6,1.9-1.5,3.6-2.8,5c0,0.1,0,0.1,0,0.2c-0.4,2,0.7,4.1,0.1,6.1
				c-0.7,2.2-3.1,3.3-5.2,3.8c-2.5,0.6-5,0.4-7.5,0.4c-3,0-5.9-0.1-8.9,0c-10.5,0.1-20.9,0.6-31.3,1.7c-4.6,0.5-9.2,1-13.6,2.3
				c-4.5,1.2-8.5,3.2-12.3,5.9c-2.4,1.7-4.7,3.5-7.2,5c0,0,0,0,0,0.1c-0.3,5.4-0.8,11-2.8,16c-2.2,5.3-5.9,9.2-11.3,11.2
				c-5.7,2.1-11.9,3.2-17.9,4.2c-6.2,1-12.4,1.6-18.7,1.9c-12.3,0.5-24.8-0.6-36.8-3.2c-3-0.6-5.9-1.3-8.8-2.2
				c-2.5-0.8-5-1.7-7.2-3.3c-4.6-3.5-5.8-9.4-7-14.8c-2.8-12.5-4-25.3-3.8-38.1c0-0.3,0.1-0.6,0.2-0.9c0.4-2.2,1.9-4.3,3.4-5.8
				c4.3-4.1,10.9-6,16.6-7.2c5-1,10.2-1.5,15.3-1.6c0.1,0,0.3,0,0.5,0c0.3,0,0.5,0,0.8,0c2.7,0,5.5,0.1,8.2,0.3
				c0.2,0,0.4,0.1,0.5,0.1c8.9,0.4,17.7,0.8,26.6,1.1c9.5,0.4,19.1,0.4,28.5,1.7c3.8,0.5,8,1.1,11.1,3.6c1.9,1.5,2.9,3.7,2.7,5.8
				c0.5-0.1,0.9-0.2,1.4-0.3c3.3-0.5,6.6-0.5,9.9-0.6c3.7-0.1,7.3-0.2,11-0.3c7.3-0.2,14.6-0.4,21.9-0.7c7.3-0.2,14.6-0.5,21.9-0.7
				C846.7,310.4,853.8,310.2,860.7,311.6z M855.5,317.4c0.8-0.8,1.5-1.6,2-2.5c-7.1-1.1-14.3-0.6-21.4-0.4
				c-14.3,0.4-28.5,0.9-42.8,1.3c-3.7,0.1-7.3,0.2-11,0.3c-3,0.1-6.2,0.1-9.1,1c-2.1,0.6-3.8,1.9-5.4,3.2c4-0.3,7.9-0.6,11.8-0.8
				C805,318.1,830.3,318,855.5,317.4z M854.3,325.1c1.4-0.5,1.6-0.9,1.4-2.3c-0.1-0.6-0.1-1.1-0.2-1.7c-6.8,0.2-13.7,0.3-20.5,0.5
				c-24,0.5-48.1,0.9-72.1,2.9c-0.6,0.4-1.2,0.8-1.8,1.1c-0.4,2.7-0.9,5.4-1.4,8.1c-0.5,2.7-0.9,5.4-0.7,8.1
				c2.5,1.8,5.8,1.7,8.7,0.9c3.7-1.1,6.8-3.6,9.8-5.8c2.8-2.1,5.7-3.9,8.9-5.3c3.3-1.4,6.8-2.3,10.3-3c7.5-1.4,15.2-1.9,22.8-2.3
				c8.1-0.5,16.1-0.7,24.2-0.6c2,0,4,0.1,6,0.1C851.2,325.7,852.8,325.6,854.3,325.1z M764.5,317.5c1.8-1,6.6-3.2,5.2-6
				c-1.4-2.7-5.9-3.3-8.6-3.8c-4.2-0.8-8.6-1-12.9-1.2c-17.5-0.8-35-1.5-52.5-2.2c-6.4,0-12.9,0.7-19.1,2.3
				c-2.6,0.7-5.2,1.6-7.6,2.8c-2.3,1.2-4.8,2.8-5.8,5.4c-0.5,1.1-0.5,2.4,0.8,2.9c1.7,0.7,3.9,0.6,5.8,0.8c4.4,0.4,8.7,0.8,13.1,1.3
				c8.9,0.9,17.8,1.7,26.7,2.6c14.8,1.4,30.3,3.2,44.8-0.9C757.9,320.5,761.3,319.2,764.5,317.5z M769.5,345.9c0,0-0.1,0-0.1,0
				c-3.7,1.3-8.1,1.4-11.6-0.6c-1-0.6-2.1-1.3-2.3-2.4c-0.1-0.7-0.2-1.5-0.2-2.3c0-1.9,0.2-3.8,0.5-5.7c0.5-3.5,1.3-7,1.8-10.5
				c0,0-0.1-0.1-0.1-0.1c-2.1,0.7-4.2,1.2-6.4,1.7c-16.6,3.3-33.9,0.7-50.6-0.9c-9.6-0.9-19.3-1.8-28.9-2.8
				c-2.3-0.2-4.6-0.4-6.8-0.7c-0.6-0.1-1.3-0.3-1.9-0.5c0.1,11.7,1.5,23.3,4.3,34.7c0.6,2.6,1.2,5.2,2.6,7.4c1.3,2,3.3,3.4,5.4,4.2
				c2.4,1,5,1.6,7.5,2.2c2.9,0.7,5.8,1.3,8.7,1.8c11.5,2.1,23.2,2.7,34.8,2c5.8-0.4,11.7-1.1,17.4-2.1c2.9-0.5,5.7-1.2,8.5-1.8
				c2.6-0.7,5.3-1.3,7.7-2.5C767.6,363.3,769,353.9,769.5,345.9z"/>
		</g>
	</g>
	<path class="st1" d="M858.4,313.9c0.4,1.4,0.9,2.8,1.3,4.2c0.4,1.3,0.5,2.4,0.2,3.7c0,0.1-0.2,0.4,0,0.1c0,0.1-0.1,0.2-0.2,0.3
		c-0.1,0.1-0.1,0.2-0.2,0.3c0.1-0.2,0.1-0.2,0,0c-0.1,0.1-0.2,0.2-0.2,0.2c-0.2,0.2,0.2-0.1,0,0c-0.2,0.1-0.4,0.3-0.6,0.4
		c-0.1,0.1-0.2,0.1-0.3,0.2c0,0-0.4,0.2-0.2,0.1c0.2-0.1-0.2,0.1-0.2,0.1c-0.1,0.1-0.3,0.1-0.4,0.2c-0.7,0.3-1.3,0.5-2,0.8
		c-0.9,0.4-1.1,1.8-0.7,2.6c0.6,1,1.6,1.1,2.6,0.7c0.6-0.2-0.3,0.1,0.2-0.1c0.2-0.1,0.3-0.1,0.5-0.2c0.3-0.1,0.6-0.2,0.9-0.3
		c0.6-0.3,1.3-0.5,1.9-0.9c1.2-0.7,2.2-1.8,2.6-3.2c1.1-3.4-0.6-6.8-1.5-10c-0.3-1-1.3-1.6-2.3-1.3
		C858.7,311.9,858.1,312.9,858.4,313.9L858.4,313.9z"/>
	<g>
		<g id="XMLID_1_">
			<g>
				<path class="st4" d="M323.8,448.8c-2.6,4.5-4.7,9.2-8.2,13c-0.4,0.5-0.8,1-1.4,1.3c-2.5,1.5-4.9,3.3-7.7,4.6
					c-6.3,2.7-12.8,4.5-19.4,5.9c-4.5,0.9-9.3,0.7-14,0.8c-6,0-11.9-1.1-17.6-2.9c-3.6-1.1-7.3-1.7-10.9-2.9
					c-3.9-1.3-7.8-2.8-11.6-4.5c-8.3-3.7-15.7-9-23.5-13.7c-1.1-0.6-2.2-1.4-3.3-2c-4-2.1-7.4-5-10.9-7.8c-4.6-3.6-8-8.2-11.9-12.5
					c-1.2-1.3-1.7-3.2-2.6-4.8c0.1-0.1,0.2-0.1,0.4-0.2c0.2,0.3,0.4,0.5,0.6,0.8c1.9,2.5,3.7,5,5.6,7.5c0.7,0.9,1.6,1.7,2.5,2.4
					c3.7,2.7,7.4,5.3,11.1,7.9c2.6,1.8,5.1,3.5,7.7,5.3c7.1,4.8,15,7.6,23,10.3c1.7,0.6,3.4,1.4,5.1,2.1c6.8,2.6,13.4,5.7,20.3,7.8
					c6.5,2,13.3,3.2,20.1,2.6c4.8-0.4,9.6-1.3,14.3-2c0.8-0.1,1.6-0.3,2.4-0.4c2.4-0.1,4.7-0.7,6.9-1.9c0.7-0.4,1.5-0.5,2.3-0.8
					c1.7-0.8,3.5-1.5,5.2-2.4c1.2-0.6,2.3-1.4,3.6-1.9c1.8-0.8,3.2-1.9,4.5-3.3c2.4-2.4,4.9-4.8,6.6-7.7
					C323.4,449.3,323.6,449,323.8,448.8z"/>
				<path class="st4" d="M326.5,429.8c0,4.2-1.5,7.8-3.1,11.5c-1.5,3.4-3.2,6.6-5.6,9.3c-2.4,2.7-4.6,5.7-8.3,6.9
					c-0.1,0-0.1,0.1-0.2,0.1c-3.1,2.1-6.5,3.3-9.9,4.7c-2.3,0.9-4.7,1.2-7.1,1.6c-4,0.7-7.9,1.4-11.9,2c-1.5,0.2-3,0.2-5.2,0.3
					c-8-0.5-16.3-1.9-24.3-5.1c-8.6-3.4-16.9-7.3-25.7-10.2c-6.4-2.1-12.2-5.5-17.7-9.4c-5-3.5-10.1-6.9-14.9-10.6
					c-2.3-1.8-4.1-4.4-5.9-6.7c-1.6-2-2.8-4.2-4.3-6.2c-4-5.4-2.9-14.2,1.6-17.7c2.5-2,4.9-4.1,7.4-6c0.9-0.7,2.2-0.7,2.8-2
					c0.2-0.4,1.2-0.4,1.9-0.6c2.6-0.8,5.2-1.3,7.6-2.3c6.6-2.8,13.5-4.3,20.6-4.3c3.9,0,7.9-0.1,11.7-1.1c2.9-0.8,5.6-2.1,8.4-3
					c1.9-0.7,4-1.2,5.9-1.8c0.9-0.3,1.9-0.7,2.8-1c0.7-0.2,1.5-0.3,2.3-0.3c3.3,0.3,6.6,0.8,9.9,1c6,0.3,11.9,1.2,17.7,2.8
					c2.2,0.6,4.3,1.7,6.4,2.7c3.7,1.8,7.5,3.6,11.1,5.7c3.2,1.8,6.2,4,9.1,6.2c3.6,2.7,6.6,6.1,9.6,9.5c2.1,2.5,3.9,5.3,5,8.6
					C325.6,419.1,326.5,424.4,326.5,429.8z M298.9,440.6c4.1-4,4.9-9.1,4.1-14.4c-1.1-7.1-5.5-12.6-10.2-17.7c-2-2.2-4.6-4-7-5.8
					c-5.3-4.1-11.4-6.5-18-7.7c-3.4-0.6-6.8-1-10.1-1.7c-4.1-0.8-8.1-1.2-12.3-1.1c-2,0-4,0.4-6.1,0.2c-4.5-0.5-8.4,1.6-12.4,3.3
					c-3.7,1.5-6.6,4.2-9.3,7.1c-4.2,4.3-4.7,9.7-3.8,15.2c0.5,2.9,2.2,5.3,4.1,7.5c4.2,4.6,8.8,8.8,14.3,11.9c2.7,1.5,5.4,2.9,8.3,4
					c3.9,1.7,7.8,3.4,11.9,4.7c8.7,2.7,17.7,2.8,26.7,3.1c1.3,0,2.6,0.1,4,0c3.9-0.3,7.6-1.3,10.7-3.8
					C295.6,443.9,297.2,442.2,298.9,440.6z"/>
				<path class="st4" d="M260.4,337.4c0.7,8.1-0.4,16.2-1.7,24.2c-0.4,2.6-1.6,5-2.5,7.5c-0.2,0.7-0.6,1.3-0.8,2
					c-0.3,1.4-1.2,2.2-2.5,2.6c-1.4,0.4-2.9,0.7-4.3,1.1c-1.7,0.5-3.4,1.2-5.1,1.8c-3.4,1.2-6.7,2.8-10.2,3.5
					c-3.3,0.7-6.7,0.8-10.1,0.8c-7.4,0.1-14.5,1.5-21.1,4.6c-3.2,1.5-6.7,1.9-10,2.8c-0.6,0.2-1.7-0.3-2.2-0.8
					c-2.9-3.2-6-6.3-8.4-9.8c-7.3-10.5-13.3-21.6-17-33.9c-2.4-8.1-5-16.2-6.3-24.6c-0.6-4.1-0.8-8.4-1.1-12.5
					c-0.2-3.4-0.1-6.7-0.3-10.1c-0.5-8.8,1.3-17.2,4.1-25.5c2.6-7.6,6.1-14.9,10.8-21.4c1.2-1.7,3-3.3,4.8-4.5
					c5.6-3.6,11.6-6.4,18.1-7.7c3.3-0.7,6.7-0.6,10.1,0c3,0.6,6.1,0.9,9.1,1.3c4.9,0.6,8.8,3.2,12.6,6c6.5,4.8,11.7,10.9,15.9,17.8
					c4.9,8.1,9.5,16.4,11.8,25.7c2.3,9.3,4,18.7,4.9,28.3c0.3,3.4,0.9,6.7,1.1,10.1C260.6,330.1,260.4,333.8,260.4,337.4z"/>
				<path class="st4" d="M327.5,442.4c-0.7,1.5-1.5,3.1-2.2,4.6c-0.1-0.1-0.2-0.1-0.3-0.2c0.8-1.5,1.5-3.1,2.3-4.6
					C327.3,442.2,327.4,442.3,327.5,442.4z"/>
				<path d="M325.3,447c0.7-1.5,1.5-3.1,2.2-4.6c-0.1-0.1-0.2-0.1-0.3-0.2c-0.8,1.5-1.5,3.1-2.3,4.6
					C325.1,446.9,325.2,446.9,325.3,447z M323.8,448.8c-0.2,0.2-0.5,0.4-0.6,0.7c-1.8,3-4.2,5.3-6.6,7.7c-1.4,1.3-2.8,2.5-4.5,3.3
					c-1.2,0.5-2.4,1.3-3.6,1.9c-1.7,0.8-3.5,1.6-5.2,2.4c-0.7,0.3-1.6,0.4-2.3,0.8c-2.2,1.2-4.4,1.8-6.9,1.9c-0.8,0-1.6,0.3-2.4,0.4
					c-4.8,0.7-9.5,1.6-14.3,2c-6.8,0.6-13.6-0.6-20.1-2.6c-6.9-2.1-13.6-5.2-20.3-7.8c-1.7-0.7-3.4-1.5-5.1-2.1
					c-8-2.7-15.9-5.5-23-10.3c-2.6-1.8-5.2-3.5-7.7-5.3c-3.7-2.6-7.5-5.2-11.1-7.9c-0.9-0.7-1.8-1.5-2.5-2.4c-1.9-2.5-3.7-5-5.6-7.5
					c-0.2-0.3-0.4-0.5-0.6-0.8c-0.1,0.1-0.2,0.1-0.4,0.2c0.8,1.6,1.4,3.5,2.6,4.8c3.9,4.3,7.3,8.9,11.9,12.5
					c3.5,2.8,6.9,5.7,10.9,7.8c1.1,0.6,2.2,1.3,3.3,2c7.8,4.7,15.2,9.9,23.5,13.7c3.8,1.7,7.7,3.2,11.6,4.5
					c3.6,1.2,7.3,1.8,10.9,2.9c5.8,1.8,11.6,2.9,17.6,2.9c4.7,0,9.5,0.2,14-0.8c6.6-1.4,13.1-3.2,19.4-5.9c2.8-1.2,5.1-3,7.7-4.6
					c0.5-0.3,0.9-0.9,1.4-1.3C319.1,458,321.3,453.3,323.8,448.8z M331.9,437.8c0.3,3.9-1.1,7.4-3.1,10.7c-2.2,3.8-4.3,7.7-6.7,11.3
					c-1.9,2.8-4.1,5.5-7,7.6c-2.9,2.1-6.1,3.4-9.2,4.9c-2,1-4.2,1.5-6.4,2.1c-3.6,1-7.2,2.1-10.8,3c-1.6,0.4-3.3,0.5-5,0.6
					c-5,0.1-10,0.4-15,0.2c-3.4-0.2-6.8-0.9-10.1-1.7c-5-1.2-10-2.5-14.9-4.1c-4.1-1.3-8.1-2.9-12.1-4.6c-7.4-3.2-14-7.8-20.9-12
					c-2.4-1.5-4.7-3-7.2-4.3c-3.6-1.9-6.6-4.6-9.8-7c-5.1-3.8-8.9-8.9-13.1-13.6c-2.6-2.9-3.6-6.6-4.1-10.3
					c-0.4-2.8-0.5-5.7-0.7-8.6c-0.3-6.4,1.6-12,6.9-16c1.8-1.4,3.5-3,5.4-4.5c-1-1.2-1.8-2.4-2.9-3.4c-4.7-4.4-8-9.9-11.5-15.3
					c-9.4-14.5-14.2-30.7-18.2-47.3c-1.3-5.6-1.9-11.3-2-17c-0.1-5.7-0.2-11.4-0.3-17.1c-0.1-6.4,1.5-12.5,3.3-18.6
					c2.5-8.3,6.2-16.1,10.8-23.4c2-3.1,4.4-5.7,7.6-7.7c5.4-3.2,11-5.9,17.1-7.5c4.6-1.2,9.2-1.3,13.9-0.4c3.4,0.7,6.9,0.8,10.3,1.4
					c4.8,0.9,8.7,3.5,12.5,6.3c9,6.6,15.3,15.3,20.6,25c1.8,3.3,3.4,6.8,5.1,10.2c3.1,6.3,4.5,13.1,5.7,19.9
					c1.4,7.9,2.3,16,3.5,23.9c1.3,8.5,0.9,17.1,0.8,25.6c0,3.8-0.7,7.6-1.3,11.3c-0.5,3.1-1,6.1-1.8,9.1c-0.6,2.3-1.8,4.5-2.6,6.8
					c-0.1,0.3-0.2,0.5-0.4,1c3.3,0.2,6.4,0.3,9.5,0.7c4.5,0.6,9.1,1.4,13.6,2c3.4,0.5,6.4,2.1,9.5,3.6c3.8,1.9,7.7,3.7,11.4,5.9
					c3.4,2,6.5,4.3,9.7,6.6c3.7,2.8,6.8,6.2,9.8,9.7c2.5,2.9,4.5,6.2,5.8,9.9c1.6,4.6,2.3,9.3,3,14C331,430.3,331.6,434,331.9,437.8
					z M323.4,441.2c1.6-3.7,3.1-7.3,3.1-11.5c0-5.4-0.8-10.6-2.6-15.8c-1.1-3.2-2.8-6.1-5-8.6c-2.9-3.4-5.9-6.8-9.6-9.5
					c-2.9-2.2-5.9-4.4-9.1-6.2c-3.6-2.1-7.3-3.9-11.1-5.7c-2.1-1-4.2-2.1-6.4-2.7c-5.8-1.6-11.7-2.4-17.7-2.8
					c-3.3-0.2-6.6-0.7-9.9-1c-0.8-0.1-1.5,0.1-2.3,0.3c-1,0.3-1.9,0.7-2.8,1c-2,0.6-4,1.1-5.9,1.8c-2.8,1-5.6,2.2-8.4,3
					c-3.8,1-7.7,1-11.7,1.1c-7.1,0.1-14,1.5-20.6,4.3c-2.4,1-5.1,1.6-7.6,2.3c-0.6,0.2-1.7,0.2-1.9,0.6c-0.6,1.3-1.9,1.3-2.8,2
					c-2.5,2-4.9,4.1-7.4,6c-4.5,3.6-5.6,12.3-1.6,17.7c1.5,2,2.7,4.2,4.3,6.2c1.9,2.3,3.6,4.9,5.9,6.7c4.8,3.8,9.9,7.1,14.9,10.6
					c5.5,3.9,11.3,7.3,17.7,9.4c8.8,2.9,17.1,6.8,25.7,10.2c8.1,3.2,16.4,4.6,24.3,5.1c2.1-0.1,3.7-0.1,5.2-0.3
					c4-0.6,7.9-1.4,11.9-2c2.4-0.4,4.7-0.7,7.1-1.6c3.4-1.4,6.8-2.6,9.9-4.7c0.1,0,0.1-0.1,0.2-0.1c3.7-1.2,5.9-4.2,8.3-6.9
					C320.1,447.8,321.9,444.6,323.4,441.2z M258.7,361.5c1.3-8,2.4-16,1.7-24.2c0-3.6,0.2-7.2,0-10.8c-0.2-3.4-0.8-6.7-1.1-10.1
					c-0.9-9.6-2.6-19-4.9-28.3c-2.3-9.3-6.9-17.6-11.8-25.7c-4.2-6.9-9.3-13-15.9-17.8c-3.8-2.8-7.7-5.4-12.6-6
					c-3.1-0.3-6.1-0.7-9.1-1.3c-3.4-0.6-6.8-0.7-10.1,0c-6.5,1.3-12.5,4.1-18.1,7.7c-1.8,1.2-3.5,2.7-4.8,4.5
					c-4.7,6.6-8.2,13.8-10.8,21.4c-2.8,8.3-4.6,16.7-4.1,25.5c0.2,3.4,0.1,6.7,0.3,10.1c0.3,4.2,0.4,8.4,1.1,12.5
					c1.2,8.4,3.8,16.5,6.3,24.6c3.7,12.3,9.7,23.5,17,33.9c2.5,3.5,5.5,6.6,8.4,9.8c0.5,0.5,1.6,1,2.2,0.8c3.3-1,6.8-1.3,10-2.8
					c6.7-3.1,13.8-4.5,21.1-4.6c3.4-0.1,6.8-0.1,10.1-0.8c3.5-0.8,6.8-2.3,10.2-3.5c1.7-0.6,3.3-1.2,5.1-1.8
					c1.4-0.4,2.8-0.7,4.3-1.1c1.3-0.4,2.2-1.2,2.5-2.6c0.1-0.7,0.5-1.3,0.8-2C257.1,366.5,258.3,364.1,258.7,361.5z"/>
				<path d="M303,426.2c0.8,5.3,0,10.4-4.1,14.4c-1.6,1.6-3.3,3.3-5.1,4.7c-3.1,2.5-6.8,3.5-10.7,3.8c-1.3,0.1-2.6,0-4,0
					c-9-0.3-18-0.5-26.7-3.1c-4.1-1.3-8-3-11.9-4.7c-2.8-1.2-5.6-2.5-8.3-4c-5.5-3.1-10.1-7.3-14.3-11.9c-1.9-2.1-3.6-4.6-4.1-7.5
					c-0.9-5.5-0.4-10.9,3.8-15.2c2.7-2.8,5.6-5.6,9.3-7.1c4-1.6,7.9-3.7,12.4-3.3c2.1,0.2,4.1-0.1,6.1-0.2c4.1-0.1,8.2,0.3,12.3,1.1
					c3.4,0.7,6.8,1,10.1,1.7c6.6,1.2,12.6,3.6,18,7.7c2.4,1.9,5,3.6,7,5.8C297.4,413.6,301.9,419.1,303,426.2z M299,432.9
					c0.9-4.8,0-9.2-2.6-13.3c-3.4-5.5-7.6-10.2-13-13.9c-4.9-3.4-10.1-5.7-15.9-6.9c-3.4-0.7-6.9-1-10.3-1.7
					c-4.3-0.9-8.6-1.2-13-1.1c-1.5,0-2.9,0-4.4,0c-2.1,0.1-4,0.4-6,1c-5,1.4-9.2,3.9-12.8,7.6c-1.7,1.8-3.1,3.8-3.5,6.3
					c-0.2,1.5-0.2,3-0.1,4.4c0.1,1.1,0.3,2.2,0.8,3.2c1.3,3.1,3.8,5.3,6,7.6c3.9,4,8.5,7.1,13.4,9.6c1.7,0.9,3.4,1.6,5.1,2.3
					c3.6,1.4,7.2,3.1,10.9,4.2c8.3,2.5,16.8,2.7,25.4,2.9c0.8,0,1.5,0,2.3,0c4.7,0.1,8.7-1.3,12-4.8c0.7-0.7,1.5-1.4,2.2-2.1
					C297.1,436.9,298.6,435.2,299,432.9z"/>
			</g>
		</g>
	</g>
	<path class="st1" d="M206.9,459.4c-1.3-0.7-2.7-1.1-4.2-1.3c-0.7-0.1-1.3-0.1-2-0.1c-0.8,0.1-1.6,0.1-2.3,0.6
		c-0.7,0.5-1.1,1.3-1.1,2.1c-0.1,0.3-0.1,0.7,0.1,1c0,0,0,0,0,0c0.1,0.3,0.2,0.6,0.4,0.8c0.1,0.2,0.3,0.4,0.4,0.5
		c-7.7,6.2-13.1,15.2-14.9,24.9c-0.3,1.6,2.1,2.2,2.4,0.7c1.7-9.3,6.8-17.8,14.1-23.7c0.5,0.5,1,1.1,1.6,1.5c0.5,0.4,1.3,0.5,1.8,0
		c1.6-1.6,3-3.4,4.2-5.3C207.7,460.5,207.5,459.7,206.9,459.4z M203,462.5c0.1,0,0.2,0.1,0.3,0.1c-0.1,0.1-0.2,0.2-0.3,0.3
		C203,462.8,203,462.7,203,462.5z M200.1,460.6c0,0.2,0,0.5,0.1,0.7c0,0,0,0.1,0,0.1c0,0,0,0.1,0,0.1c0,0,0,0,0,0
		c-0.2-0.2-0.3-0.5-0.5-0.8c0,0,0,0,0,0C199.9,460.7,200,460.6,200.1,460.6C200.1,460.6,200.1,460.6,200.1,460.6z"/>
	<path class="st1" d="M528.7,158.2c-1.2-1.6-3.2-1.9-4.8-0.8c-0.3,0.2-0.5,0.3-0.7,0.5c-7.4-8.9-11-20.6-9.8-32.1
		c0.2-1.6-2.3-1.6-2.5,0c-1.2,11.9,2.5,24.1,10.1,33.3c-0.1,0.1-0.2,0.2-0.2,0.4c0,0,0,0-0.1,0.1c0,0-0.1,0.1-0.1,0.1
		c-0.1,0-0.1,0-0.2,0c-0.7,0-1.3,0.6-1.3,1.3c0,0.4,0.2,0.7,0.4,0.9c0,0.1,0.1,0.2,0.2,0.3c1.3,1.6,3.1,2.8,5.1,3.5
		c1,0.3,2.2,0.6,3.2,0.3c1.3-0.3,1.8-1.6,1.8-2.9C529.9,161.4,529.7,159.5,528.7,158.2z"/>
	<path class="st1" d="M839,345.9c0.3-1.1-0.2-2.1-0.9-3c-1.4-1.9-2.8-3.9-4.2-5.8c-0.4-0.6-1.2-0.7-1.8-0.4c0,0-0.1,0-0.1-0.1
		c-0.6-0.2-1.4,0.2-1.5,0.9c-0.4,2.1-0.9,4.2-1.3,6.2c-0.2,0.9-0.5,2-0.2,2.9c0.3,1,1.2,1.6,2.2,1.8c1,0.2,2,0.2,3,0.1
		c3.2,13.6,2.6,27.9-1.8,41.2c-0.5,1.5,1.9,2.2,2.4,0.7c4.5-13.7,5.1-28.5,1.8-42.5c0.2-0.1,0.4-0.1,0.5-0.2
		C837.9,347.4,838.8,346.8,839,345.9z"/>
	<g>
		<path class="st1" d="M133.4,503.7c-0.5,0-1,0-1.5,0c-3.5,0.1-3.8,0.2-3.9,0.2c-0.4,0.1-0.6,0.4-0.6,0.8c0,0.3,0.2,0.6,0.5,0.7
			c0.2,0.1,0.4,0.2,1.6,0.2h0.7l0,4.2c0,2.1,0,4.2,0,6.4c0,2.4,0.1,2.5,0.2,2.7c0.2,0.2,0.4,0.4,0.7,0.4c0.1,0,0.5,0,0.6-0.2
			c0.2-0.2,0.2-0.2,0.2-7.2c0-3.9,0-5.6,0-6.3l0.1,0c0.4,0,0.8,0,1.2-0.1c0.7,0,0.7-0.1,0.9-0.1c0.4-0.2,0.5-0.4,0.6-0.6
			c0.1-0.3,0-0.6-0.2-0.8C134.2,503.8,133.9,503.7,133.4,503.7z"/>
		<path class="st1" d="M144.1,506.4c-0.5-1.6-1.3-2.6-2.5-3.1c-0.3-0.1-0.8-0.2-1.4-0.2c-0.3,0-0.5,0-0.7,0h0
			c-0.7,0.1-1.3,0.4-1.9,0.9c-0.8,0.8-1.3,1.9-1.4,3.2c-0.1,0.8-0.1,1.7-0.1,2.9c0,0.4,0,0.6,0.1,0.7c0,0.1,0,0.4,0,1.2
			c0,1.2,0.1,2.3,0.4,3.4c0.2,0.8,0.5,1.5,0.8,1.9c0.3,0.5,0.7,0.9,1.2,1.2c0.5,0.3,1.1,0.5,1.8,0.5c0.9,0,1.7-0.3,2.3-0.9
			c0.7-0.7,1.3-1.7,1.5-2.9c0.2-1.1,0.3-2.3,0.3-3.8c0-1.4-0.1-2.5-0.1-3.1C144.5,507.8,144.4,507.1,144.1,506.4z M139.7,517.2
			c-0.4-0.2-0.7-0.6-0.9-1.2c-0.3-0.7-0.5-1.7-0.7-3c-0.1-0.8-0.1-1.8-0.1-3.1c0-1.4,0-2.4,0.1-2.9c0.2-1.3,0.8-2,1.7-2.2
			c0.2,0,0.3,0,0.4,0c0.5,0,0.9,0.2,1.3,0.5l0,0c0.4,0.4,0.7,1,1,1.8c0.2,0.9,0.4,1.9,0.4,3c0,0.8,0,1.1,0.1,1.3l0,0.1
			c0,1.2-0.1,2.3-0.3,3.3c-0.2,0.9-0.5,1.6-1,2.1c-0.3,0.3-0.7,0.4-1.2,0.4C140.1,517.3,139.8,517.3,139.7,517.2z"/>
		<path class="st1" d="M148.1,510.6c0-2.5-0.1-4-0.1-4.7l0-1.4l-0.3-0.3c-0.2-0.2-0.4-0.3-0.6-0.3c-0.9,0-0.9,1.2-0.9,1.6l0,0.3
			c0,0.2,0,1.2,0.1,5.2c0.1,7.1,0.2,7.4,0.3,7.6c0.1,0.2,0.2,0.4,0.4,0.5c0.1,0.1,0.3,0.1,0.4,0.1c0.1,0,0.3,0,0.4-0.1
			c0.2-0.1,0.4-0.3,0.4-0.5c0-0.1,0.1-0.3,0.1-0.8c0,0,0-0.7,0-2.1C148.2,514.7,148.2,513,148.1,510.6z"/>
		<path class="st1" d="M151.9,517.4c-0.1,0-0.3,0-0.4,0c0-0.7-0.1-2.6-0.1-8c-0.1-4.9-0.1-4.9-0.1-5c-0.2-0.6-0.6-0.7-0.8-0.7
			c-0.2,0-0.4,0.1-0.5,0.2c-0.2,0.2-0.2,0.2-0.2,6.4c0,7.1,0.1,7.5,0.1,7.6c0.1,0.4,0.2,1,0.7,1.2c0.1,0.1,0.1,0.1,1.2,0.1
			c0.2,0,0.5,0,0.7,0c0.2,0,0.4,0,0.6-0.2c0.3-0.2,0.4-0.4,0.4-0.7c0-0.2,0-0.4-0.3-0.7C152.9,517.5,152.6,517.4,151.9,517.4z"/>
		<path class="st1" d="M159.5,504.6c0.3-0.5,0.1-0.9-0.1-1.1c-0.2-0.2-0.5-0.3-1.3-0.3c-0.4,0-0.8,0-1.1,0h-0.4c-0.2,0-0.3,0-0.4,0
			c-0.2,0-0.4,0-0.6,0.1l-0.1,0c-0.1,0-0.2,0.1-0.3,0.1c-0.1,0.1-0.1,0.1-0.2,0.2l-0.1,0.1c0,0.1-0.1,0.2-0.1,2.2
			c0,2.1,0,4.6,0.1,7.6c0.1,4.5,0.2,4.7,0.2,4.8c0.1,0.3,0.4,0.5,0.7,0.6c0.1,0,0.4,0,1.5,0c0,0,0,0,0,0l1.7,0l0.1-0.3
			c0.2-0.3,0.3-0.6,0.2-0.8c-0.1-0.3-0.3-0.5-0.6-0.6c-0.1,0-0.4-0.1-1.2-0.1c-0.4,0-0.6,0-0.8,0c0-0.2,0-0.5-0.1-1.1
			c0-1-0.1-1.8-0.1-2.6c0-0.4,0-0.7,0-0.9l0-0.2c0.4,0,0.8-0.1,1-0.5c0.1-0.1,0.1-0.3,0.1-0.5c0-0.3-0.1-0.9-1.2-0.9
			c0-0.2,0-0.9-0.1-3.1l0-2.5c0.3,0,0.6,0,0.9,0C159.1,505,159.4,504.9,159.5,504.6z"/>
		<path class="st1" d="M167.4,503.7c-0.5,0-1,0-1.5,0c-3.5,0.1-3.8,0.2-3.9,0.2c-0.4,0.1-0.6,0.4-0.6,0.8c0,0.3,0.2,0.6,0.5,0.7
			c0.2,0.1,0.4,0.2,1.6,0.2h0.7l0,4.2c0,2.1,0,4.2,0,6.4c0,2.4,0.1,2.5,0.2,2.7c0.2,0.2,0.4,0.4,0.7,0.4c0.1,0,0.5,0,0.6-0.2
			c0.2-0.2,0.2-0.2,0.2-7.2c0-3.9,0-5.6,0-6.3l0.1,0c0.4,0,0.8,0,1.2-0.1c0.7,0,0.7-0.1,0.9-0.1c0.4-0.2,0.5-0.4,0.6-0.6
			c0.1-0.3,0-0.6-0.2-0.8C168.2,503.8,167.9,503.7,167.4,503.7z"/>
		<path class="st1" d="M180.2,509c-1.5-1.4-1.7-1.7-1.8-1.8c-0.1-0.2-0.1-0.4-0.1-0.6c0-0.5,0.2-0.9,0.5-1.3c0.2-0.2,0.6-0.5,1-0.6
			c0.4-0.2,0.5-0.2,0.6-0.3c0.1-0.1,0.3-0.3,0.3-0.6c0-0.4-0.3-0.8-0.9-0.8c-0.2,0-0.4,0-0.6,0.1c-0.7,0.2-1.3,0.6-1.9,1.2
			c-0.5,0.6-0.8,1.4-0.8,2.2c0,0.2,0,0.4,0,0.5c0.1,0.8,0.5,1.5,1.2,2.1c0.1,0.1,0.6,0.6,1.4,1.3c0.5,0.5,0.9,0.9,1,1.1
			c0.2,0.2,0.3,0.5,0.4,0.8c0.2,0.5,0.3,1.1,0.3,1.8c0,0.4,0,0.6-0.1,0.9c-0.1,0.5-0.4,1-0.8,1.4c-0.4,0.4-0.9,0.7-1.4,0.8
			c-1.4,0.3-1.6,0.4-1.7,0.5c-0.1,0.1-0.3,0.3-0.3,0.7c0,0.2,0,0.4,0.1,0.5c0.1,0.2,0.4,0.3,0.7,0.3c0.4,0,0.8-0.1,0.9-0.1
			c0.1,0,0.3-0.1,0.8-0.2c0.5-0.1,0.8-0.3,1-0.4c0.4-0.2,0.8-0.5,1.1-0.8c1-1,1.5-2.1,1.5-3.5c0-1.6-0.4-2.9-1.1-3.9
			C181.4,510.2,181.3,510.1,180.2,509z"/>
		<path class="st1" d="M188.7,504.6c0.3-0.5,0.1-0.9-0.1-1.1c-0.2-0.2-0.5-0.3-1.3-0.3c-0.4,0-0.8,0-1.1,0h-0.4c-0.2,0-0.3,0-0.4,0
			c-0.2,0-0.4,0-0.6,0.1l-0.1,0c-0.1,0-0.2,0.1-0.3,0.1c-0.1,0.1-0.1,0.1-0.2,0.2l-0.1,0.1c0,0.1-0.1,0.2-0.1,2.2
			c0,2.1,0,4.6,0.1,7.6c0.1,4.5,0.2,4.7,0.2,4.8c0.1,0.3,0.4,0.5,0.7,0.6c0.1,0,0.4,0,1.5,0c0,0,0,0,0,0l1.7,0l0.1-0.3
			c0.2-0.3,0.3-0.6,0.2-0.8c-0.1-0.3-0.3-0.5-0.6-0.6c-0.1,0-0.4-0.1-1.2-0.1c-0.4,0-0.6,0-0.8,0c0-0.2,0-0.5-0.1-1.1
			c0-1-0.1-1.8-0.1-2.6c0-0.4,0-0.7,0-0.9l0-0.2c0.4,0,0.8-0.1,1-0.5c0.1-0.1,0.1-0.3,0.1-0.5c0-0.3-0.1-0.9-1.2-0.9
			c0-0.2,0-0.9-0.1-3.1l0-2.5c0.3,0,0.6,0,0.9,0C188.2,505,188.5,504.9,188.7,504.6z"/>
		<path class="st1" d="M196.4,508.4c-1-3.9-1.2-4.1-1.4-4.2c-0.2-0.2-0.6-0.3-1.3,0.1c-0.3,0.2-0.6,0.5-0.7,0.9
			c0,0.1-0.2,0.9-1.2,5.9c-0.8,3.8-1.2,5.9-1.3,6.6c-0.1,0.5-0.1,0.7-0.1,0.8c0,0.1,0,0.3,0.1,0.4c0.2,0.4,0.6,0.4,0.7,0.4
			c0.3,0,0.6-0.2,0.7-0.5c0-0.1,0.1-0.2,0.5-2c0.2-1.1,0.5-2.2,0.7-3.3c0.1-0.6,0.2-1,0.2-1.3c0,0,0.1,0,0.1,0c1.5,0,1.9,0,1.9,0
			c0,0,0.1,0.2,0.3,0.9c1.3,5.2,1.5,5.7,1.6,5.9c0.1,0.3,0.3,0.5,0.6,0.6c0.1,0,0.2,0,0.2,0c0.1,0,0.3,0,0.4-0.1
			c0.3-0.2,0.4-0.4,0.4-0.7c0-0.1,0-0.4-0.6-2.8C197.5,512.7,196.9,510.2,196.4,508.4z M193.8,510.4c0.1-0.3,0.2-1,0.4-2.1
			c0.1-0.3,0.1-0.6,0.2-0.9c0,0.1,0,0.1,0,0.2c0.1,0.4,0.2,0.8,0.4,1.4c0.2,0.6,0.3,1,0.3,1.1c0,0.1,0.1,0.2,0.1,0.3
			c-0.2,0-0.4,0-0.6,0L193.8,510.4z"/>
		<path class="st1" d="M206.7,503.7c-0.5,0-1,0-1.5,0c-3.5,0.1-3.8,0.2-3.9,0.2c-0.4,0.1-0.6,0.4-0.6,0.8c0,0.3,0.2,0.6,0.5,0.7
			c0.2,0.1,0.4,0.2,1.6,0.2h0.7l0,4.2c0,2.1,0,4.2,0,6.4c0,2.4,0.1,2.5,0.2,2.7c0.2,0.2,0.4,0.4,0.7,0.4c0.1,0,0.5,0,0.6-0.2
			c0.2-0.2,0.2-0.2,0.2-7.2c0-3.9,0-5.6,0-6.3l0.1,0c0.4,0,0.8,0,1.2-0.1c0.7,0,0.7-0.1,0.9-0.1c0.4-0.2,0.5-0.4,0.6-0.6
			c0.1-0.3,0-0.6-0.2-0.8C207.5,503.8,207.2,503.7,206.7,503.7z"/>
		<path class="st1" d="M214.5,510.3c0-0.1-0.2-0.2-1.3-1.3c-1.5-1.4-1.7-1.7-1.8-1.8c-0.1-0.2-0.1-0.4-0.1-0.6
			c0-0.5,0.2-0.9,0.5-1.3c0.2-0.2,0.6-0.5,1-0.6c0.4-0.2,0.5-0.2,0.6-0.3c0.1-0.1,0.3-0.3,0.3-0.6c0-0.4-0.3-0.8-0.9-0.8
			c-0.2,0-0.4,0-0.6,0.1c-0.7,0.2-1.3,0.6-1.9,1.2c-0.5,0.6-0.8,1.4-0.8,2.2c0,0.2,0,0.4,0,0.5c0.1,0.8,0.5,1.5,1.2,2.1
			c0.1,0.1,0.6,0.6,1.4,1.3c0.5,0.5,0.9,0.9,1,1.1c0.2,0.2,0.3,0.5,0.4,0.8c0.2,0.5,0.3,1.1,0.3,1.8c0,0.4,0,0.6-0.1,0.9
			c-0.1,0.5-0.4,1-0.8,1.4c-0.4,0.4-0.9,0.7-1.4,0.8c-1.4,0.3-1.6,0.4-1.7,0.5c-0.1,0.1-0.3,0.3-0.3,0.7c0,0.2,0,0.4,0.1,0.5
			c0.1,0.2,0.4,0.3,0.7,0.3c0.4,0,0.8-0.1,0.9-0.1c0.1,0,0.3-0.1,0.8-0.2c0.5-0.1,0.8-0.3,1-0.4c0.4-0.2,0.8-0.5,1.1-0.8
			c1-1,1.5-2.1,1.5-3.5C215.7,512.6,215.3,511.3,214.5,510.3z"/>
	</g>
	<g>
		<path class="st1" d="M473.2,96.8c-0.2,0-0.5,0.1-0.7,0.4l0,0c-0.1,0.2-0.2,0.5-0.2,1c-0.3,2.1-0.7,4.3-1.1,6.4
			c-0.5,2.5-0.8,3.9-0.9,4.7c-0.7-1.1-1.2-1.9-1.4-2.5c-0.1-0.3-0.3-0.5-0.5-0.6c-0.3-0.1-0.6-0.1-0.7,0c-0.1,0.1-0.3,0.2-0.5,0.5
			c0,0.1-0.1,0.4-0.7,1.7c-0.3,0.6-0.4,1.1-0.6,1.4c-0.4-0.9-0.8-2.3-1.3-4.1c-0.5-1.8-1-3.5-1.3-5c-0.7-3.1-0.8-3.2-1-3.3
			c-0.2-0.2-0.5-0.2-0.6-0.2c-0.2,0-0.4,0.1-0.5,0.4c-0.1,0.1-0.1,0.3-0.1,0.4c0,0.1,0,0.2,0.4,2c0.7,3.2,1.5,6.3,2.5,9.2
			c0.5,1.6,0.9,2.6,1.2,3c0.2,0.3,0.4,0.4,0.5,0.4c0,0,0.1,0,0.1,0c0.2,0,0.4-0.1,0.6-0.3c0.3-0.2,0.7-0.8,1.7-3.4c0,0,0-0.1,0-0.1
			c0.1,0.1,0.2,0.3,0.4,0.6l1.1,1.9c0.3,0.6,0.6,1.1,1.1,1.1c0.7,0,0.9-0.8,0.9-1.2c0.2-0.7,0.6-3,1.3-7.1c1.1-6.1,1.1-6.4,1.1-6.6
			C473.9,97,473.5,96.8,473.2,96.8z"/>
		<path class="st1" d="M477.4,103.9c0-2.5-0.1-4-0.1-4.7l0-1.4l-0.3-0.3c-0.2-0.2-0.4-0.3-0.6-0.3c-0.9,0-0.9,1.2-0.9,1.6l0,0.3
			c0,0.2,0,1.2,0.1,5.2c0.1,7.1,0.2,7.4,0.3,7.6c0.1,0.2,0.2,0.4,0.4,0.5c0.1,0.1,0.3,0.1,0.4,0.1c0.1,0,0.3,0,0.4-0.1
			c0.2-0.1,0.4-0.3,0.4-0.5c0-0.1,0.1-0.3,0.1-0.8c0,0,0-0.7,0-2.1C477.4,108.1,477.4,106.4,477.4,103.9z"/>
		<path class="st1" d="M486.1,97.9c-0.2-0.8-0.7-0.9-0.9-0.9c-0.1,0-0.5,0.1-0.7,0.5c-0.1,0.2-0.1,0.4-0.1,0.7
			c0.1,1,0.2,2.5,0.3,4.5l0.1,2.1c0.1,1,0.1,2,0.2,2.8c-0.5-1.2-1.2-2.8-2-4.8c-1.6-4.1-2.1-4.9-2.4-5.2c-0.2-0.2-0.5-0.4-0.8-0.4
			c-0.3,0-0.7,0.1-0.8,1.1v0.1c0,0.7,0.1,3.1,0.3,7c0.3,6,0.3,6.1,0.3,6.3c0.2,0.7,0.6,0.8,0.9,0.8c0.2,0,0.4-0.1,0.7-0.5
			c0.1-0.1,0.1-0.2,0.1-0.8c0-1.1-0.1-3.9-0.3-8.1c0-0.3,0-0.6,0-0.9c0.6,1.6,1.3,3.3,2.1,5.2c1,2.3,1.5,3.6,1.8,4
			c0.3,0.6,0.5,0.9,0.8,1c0.1,0.1,0.2,0.1,0.4,0.1c0.2,0,0.3,0,0.4-0.1c0.4-0.2,0.5-0.7,0.5-1.7c0-0.7,0-1.7-0.1-2.9
			C486.5,101.8,486.2,98.6,486.1,97.9z"/>
		<path class="st1" d="M494.2,98.9c-0.2-0.3-0.5-0.6-0.8-0.9c-0.4-0.4-0.7-0.6-1-0.8c-0.9-0.5-1.8-0.8-2.7-0.8c-0.3,0-0.5,0-0.6,0.1
			c-0.4,0.1-0.6,0.4-0.6,0.5c-0.1,0.2-0.1,0.4-0.1,0.8c0,0.6,0,1.9,0.1,3.7c0.1,1.8,0.1,2.9,0.1,3.3c0.1,4.1,0.2,6.4,0.4,7.1
			c0.1,0.3,0.3,0.7,1.2,0.8h0.2c1,0,1.9-0.2,2.7-0.7c1.3-0.8,2.2-2.1,2.5-4c0.1-0.4,0.1-1,0.1-2.1c0-1.2,0-2-0.1-2.5
			C495.4,101.5,494.9,100,494.2,98.9z M490.6,110.8c0-0.4-0.1-1.4-0.2-4.3c0-0.2,0-0.9-0.1-2.3c0-1.4-0.1-2.6-0.1-3.7
			c0-1-0.1-1.8-0.2-2.2c0-0.1,0-0.1,0-0.1c0.1,0,0.2,0,0.4,0.1l0,0c0.8,0.2,1.4,0.7,2,1.3c0.8,1,1.4,2.6,1.5,4.7c0,0.6,0,1,0,1.4
			c0,1.4-0.1,2-0.1,2.2c-0.4,1.7-1.3,2.6-2.9,2.9C490.8,110.7,490.7,110.8,490.6,110.8z M489.2,96.8L489.2,96.8L489.2,96.8
			L489.2,96.8z"/>
		<path class="st1" d="M509.7,97.1c-0.5,0-1,0-1.5,0c-3.5,0.1-3.8,0.2-3.9,0.2c-0.4,0.1-0.6,0.4-0.6,0.8c0,0.3,0.2,0.6,0.5,0.7
			c0.2,0.1,0.4,0.2,1.6,0.2h0.7l0,4.2c0,2.1,0,4.2,0,6.4c0,2.4,0.1,2.5,0.2,2.7c0.2,0.2,0.4,0.4,0.7,0.4c0.1,0,0.4,0,0.7-0.2
			c0.2-0.2,0.2-0.5,0.2-7.2c0-3.9,0-5.6,0-6.3l0.1,0c0.4,0,0.8,0,1.2-0.1c0.6,0,0.7-0.1,0.9-0.1c0.4-0.2,0.5-0.4,0.6-0.6
			c0.1-0.3,0-0.6-0.2-0.8C510.5,97.2,510.2,97.1,509.7,97.1z"/>
		<path class="st1" d="M519.7,98c-0.3,0-0.5,0.2-0.7,0.5c-0.1,0.2-0.1,0.5,0,0.7c0,0,0,0.2,0,0.9c0,0.6,0,2.1-0.1,4.7
			c0,1.8-0.1,2.9-0.1,3.3c0,0.3-0.1,0.7-0.3,1c-0.4,1-1,1.4-1.7,1.4c-0.3,0-0.6-0.1-0.9-0.4c-0.5-0.4-0.8-1-1-1.7
			c-0.2-0.9-0.4-2.3-0.5-4.3c-0.2-3-0.3-4.6-0.3-5.1c-0.1-0.7-0.2-1-0.4-1.2c-0.1-0.1-0.5-0.2-1,0.2l0,0c-0.2,0.2-0.3,0.5-0.3,1
			c0,0.6,0,1.5,0.1,2.8c0,0.3,0,0.8,0.1,1.3c0,0.5,0.1,1,0.1,1.4c0,0.3,0,0.6,0,0.8c0.1,2.3,0.5,3.9,1.1,5c0.5,1,1.2,1.6,1.9,1.9
			c0.3,0.1,0.6,0.2,1.2,0.2c0.5,0,0.9-0.1,1.3-0.3c0.5-0.3,1-0.7,1.4-1.2c0.4-0.5,0.7-1.1,0.9-1.7c0.1-0.4,0.3-1.6,0.3-6.8
			c0-3.3-0.1-3.5-0.1-3.7C520.5,98,519.9,98,519.7,98z"/>
		<path class="st1" d="M527.2,107.3c-0.4-0.8-0.8-1.3-1.2-1.5l-0.3-0.2c0.5-0.3,0.9-0.7,1.3-1.2c0.5-0.6,0.7-1.2,0.8-1.7
			c0-0.1,0-0.3,0-0.7c0-0.8-0.1-1.4-0.2-2c-0.2-0.9-0.7-1.8-1.4-2.6c-0.6-0.6-1.3-1.1-2-1.3c-0.4-0.1-0.7-0.2-1-0.2
			c-0.4,0-0.6,0.2-0.7,0.3l-0.1,0.1v0c-0.1,0.2-0.1,0.8-0.1,2.8c0,1.9,0,3.7-0.1,5.3c0,0.6,0,1.4,0,2.4c0,1.3,0,2.1,0,2.7
			c0,1.1,0.1,1.8,0.1,2.1c0.1,0.4,0.2,0.7,0.6,0.9c0.1,0,0.2,0.1,0.4,0.1c0.3,0,0.6-0.2,0.8-0.5c0.1-0.1,0.1-0.2,0.1-1
			c0-0.8,0-1.6,0-2.2c0-0.8,0-1.7,0-2.4c0.7,0.4,1.2,1.1,1.6,1.9c0.2,0.5,0.5,1.1,0.7,1.9c0.6,1.8,0.7,1.9,0.8,1.9
			c0.3,0.3,0.8,0.3,1.2,0c0.2-0.2,0.3-0.4,0.3-0.7c0-0.2-0.1-0.6-0.5-1.7C527.8,108.7,527.5,107.8,527.2,107.3z M525.1,103.9
			c-0.1,0-0.3,0.1-0.8,0.3c0,0-0.1,0-0.1,0V104c0-2.4,0-4.2,0.1-5.6c0-0.1,0-0.2,0-0.3c1.3,0.7,1.9,2,1.9,3.7c0,0.5,0,0.7,0,0.7
			c0,0,0,0.2-0.4,0.6C525.4,103.7,525.2,103.9,525.1,103.9z"/>
		<path class="st1" d="M534.8,105.7c-0.4-0.5-1-0.9-1.7-1.3c1.2-1,1.8-2.2,1.8-3.7c0-1.4-0.5-2.6-1.5-3.4c-0.8-0.6-1.5-1-2.1-1
			c-0.5,0-0.8,0.2-1,0.6c-0.1,0.1-0.1,0.4-0.1,3.5c0,4.7,0.1,8.2,0.2,10.6c0,0.5,0,0.7,0.1,0.8c0.1,0.4,0.5,0.7,0.9,0.7
			c0,0,0.1,0,0.2,0c0.1,0,0.2,0,0.2,0c1,0,1.9-0.3,2.6-0.8c0.8-0.5,1.3-1.2,1.4-2c0-0.2,0.1-0.5,0.1-0.7c0-0.6-0.1-1.1-0.2-1.5
			C535.6,106.8,535.3,106.2,534.8,105.7z M532.1,110.6c0-0.2,0-0.5,0-1c0-0.7,0-1.5-0.1-2.4c0-0.8,0-1.3,0-1.4c0,0,0,0,0,0
			c0.6,0.3,1.1,0.7,1.5,1.2c0.4,0.5,0.6,1.1,0.6,1.8c0,0.4-0.1,0.8-0.4,1C533.3,110.3,532.7,110.6,532.1,110.6z M532.8,102.1
			c0,0.1-0.2,0.4-0.7,0.8c0,0-0.1,0.1-0.1,0.1c0-0.4,0-1.1,0-2.2v-2.3c0.2,0.1,0.3,0.3,0.5,0.5c0.2,0.3,0.4,0.6,0.5,0.9
			c0,0.1,0.1,0.4,0.1,0.8C533.1,101.2,533,101.6,532.8,102.1z"/>
		<path class="st1" d="M539.4,103.9c0-2.5-0.1-4-0.1-4.7l0-1.4l-0.3-0.3c-0.2-0.2-0.4-0.3-0.6-0.3c-0.9,0-0.9,1.2-0.9,1.6l0,0.3
			c0,0.2,0,1.2,0.1,5.2c0.1,7.1,0.2,7.4,0.3,7.6c0.1,0.2,0.2,0.4,0.4,0.5c0.1,0.1,0.3,0.1,0.4,0.1c0.1,0,0.3,0,0.4-0.1
			c0.2-0.1,0.4-0.3,0.4-0.5c0-0.1,0.1-0.3,0.1-0.8c0,0,0-0.7,0-2.1C539.5,108.1,539.4,106.4,539.4,103.9z"/>
		<path class="st1" d="M548.1,97.9c-0.2-0.8-0.7-0.9-0.9-0.9c-0.1,0-0.5,0.1-0.7,0.5c-0.1,0.2-0.1,0.4-0.1,0.7
			c0.1,1,0.2,2.5,0.3,4.5l0.1,2.1c0.1,1,0.1,2,0.2,2.8c-0.5-1.2-1.2-2.8-2-4.8c-1.6-4.1-2.1-4.9-2.4-5.2c-0.2-0.2-0.5-0.4-0.8-0.4
			c-0.3,0-0.7,0.1-0.8,1.1v0.1c0,0.7,0.1,3.1,0.3,7c0.3,6,0.3,6.1,0.3,6.3c0.2,0.7,0.6,0.8,0.9,0.8c0.2,0,0.4-0.1,0.7-0.5
			c0.1-0.1,0.1-0.2,0.1-0.8c0-1.1-0.1-3.9-0.3-8.1c0-0.3,0-0.6,0-0.9c0.6,1.6,1.3,3.3,2.1,5.2c1,2.3,1.5,3.6,1.8,4
			c0.3,0.6,0.5,0.9,0.8,1c0.1,0.1,0.2,0.1,0.4,0.1c0.2,0,0.3,0,0.4-0.1c0.4-0.2,0.5-0.7,0.5-1.7c0-0.7,0-1.7-0.1-2.9
			C548.5,101.8,548.3,98.6,548.1,97.9z"/>
		<path class="st1" d="M554.9,98c0.3-0.5,0.1-0.9-0.1-1.1c-0.2-0.2-0.5-0.3-1.3-0.3c-0.4,0-0.8,0-1.1,0h-0.4c-0.2,0-0.3,0-0.4,0
			c-0.1,0-0.4,0-0.6,0.1l-0.1,0c-0.1,0-0.2,0.1-0.3,0.1c-0.1,0.1-0.2,0.1-0.2,0.2l-0.1,0.1c0,0.1-0.1,0.2-0.1,2.2
			c0,2.1,0,4.6,0.1,7.6c0.1,4.5,0.2,4.7,0.2,4.8c0.1,0.3,0.4,0.5,0.7,0.6c0.1,0,0.4,0,1.5,0c0,0,0,0,0,0l1.7,0l0.1-0.3
			c0.2-0.3,0.3-0.6,0.2-0.8c-0.1-0.3-0.3-0.5-0.6-0.6c-0.1,0-0.4-0.1-1.2-0.1c-0.4,0-0.6,0-0.8,0c0-0.2,0-0.5-0.1-1.1
			c0-1-0.1-1.8-0.1-2.6c0-0.4,0-0.7,0-0.9l0-0.2c0.4,0,0.8-0.1,1-0.5c0.1-0.1,0.1-0.3,0.1-0.5c0-0.3-0.1-0.9-1.2-0.9
			c0-0.2,0-0.9-0.1-3.1l0-2.5c0.3,0,0.6,0,0.9,0C554.5,98.4,554.8,98.3,554.9,98z"/>
		<path class="st1" d="M561.7,103.6c0-0.1-0.2-0.2-1.3-1.3c-1.5-1.4-1.7-1.7-1.8-1.8c-0.1-0.2-0.1-0.4-0.1-0.6
			c0-0.5,0.2-0.9,0.5-1.3c0.2-0.2,0.6-0.5,1-0.6c0.4-0.1,0.5-0.2,0.6-0.3c0.1-0.1,0.3-0.3,0.3-0.6c0-0.4-0.3-0.8-0.9-0.8
			c-0.2,0-0.4,0-0.6,0.1c-0.7,0.2-1.3,0.6-1.9,1.2c-0.5,0.6-0.8,1.4-0.8,2.2c0,0.2,0,0.4,0,0.5c0.1,0.8,0.5,1.5,1.2,2.1
			c0.1,0.1,0.6,0.6,1.4,1.3c0.5,0.5,0.9,0.9,1,1.1c0.2,0.2,0.3,0.5,0.4,0.8c0.2,0.5,0.3,1.1,0.3,1.8c0,0.4,0,0.6-0.1,0.9
			c-0.1,0.5-0.4,1-0.8,1.4c-0.4,0.4-0.9,0.6-1.4,0.8c-1.4,0.3-1.6,0.4-1.7,0.5c-0.1,0.1-0.3,0.3-0.3,0.7c0,0.2,0,0.4,0.1,0.5
			c0.1,0.2,0.4,0.3,0.7,0.3c0.4,0,0.8-0.1,0.9-0.1c0.1,0,0.3-0.1,0.8-0.2c0.5-0.1,0.8-0.3,1-0.4c0.4-0.2,0.8-0.5,1.1-0.8
			c1-1,1.5-2.1,1.5-3.5C562.8,105.9,562.4,104.6,561.7,103.6z"/>
	</g>
	<g>
		<path class="st1" d="M788,406c-1-0.7-1.8-1-2.5-1l-0.2,0c-0.2,0-0.7,0.2-0.8,0.8c0,0.1,0,0.2,0,0.8c0,0.9,0,2.1,0.1,3.6
			c0,0.9,0.1,2.7,0.1,5.6c0.1,4.6,0.1,4.8,0.1,4.9c0.1,0.3,0.1,0.5,0.3,0.6c0.2,0.2,0.5,0.3,0.6,0.3c0.3,0,0.6-0.1,0.8-0.4l0.2-0.2
			l-0.1-4.4c0-0.8,0-1.1,0-1.2c0.1,0,0.2-0.2,0.5-0.3c0.4-0.2,0.7-0.5,1.1-0.8c0.6-0.5,1.1-1,1.4-1.5c0.3-0.5,0.5-1.1,0.6-1.7
			c0-0.2,0.1-0.5,0.1-0.8c0-0.8-0.2-1.6-0.6-2.4C789.2,407.1,788.7,406.5,788,406z M788.4,410.4c0,0.2,0,0.4-0.1,0.6
			c-0.2,0.7-0.6,1.3-1.3,1.9c-0.2,0.2-0.4,0.3-0.5,0.4c0-0.5-0.1-1.3-0.1-2.6c0-0.4,0-1-0.1-1.8c0-0.8,0-1.3-0.1-1.5l0-0.3
			c1,0.5,1.7,1.2,2,2.1C788.3,409.5,788.4,409.9,788.4,410.4z"/>
		<path class="st1" d="M797.7,410.8c-1-3.9-1.2-4.1-1.4-4.2c-0.2-0.2-0.6-0.3-1.3,0.1c-0.3,0.2-0.6,0.5-0.7,0.9
			c0,0.1-0.2,0.9-1.2,5.9c-0.8,3.8-1.2,5.9-1.3,6.6c-0.1,0.5-0.1,0.7-0.1,0.8c0,0.1,0,0.3,0.1,0.4c0.2,0.4,0.6,0.4,0.7,0.4
			c0.3,0,0.6-0.2,0.7-0.5c0-0.1,0.1-0.2,0.5-2c0.2-1.1,0.5-2.2,0.7-3.3c0.1-0.6,0.2-1,0.2-1.3c0,0,0.1,0,0.1,0c1.5,0,1.9,0,1.9,0
			c0,0,0.1,0.2,0.3,0.9c1.3,5.2,1.5,5.7,1.6,5.9c0.1,0.3,0.3,0.5,0.6,0.6c0.1,0,0.2,0,0.2,0c0.1,0,0.3,0,0.4-0.1
			c0.3-0.2,0.4-0.4,0.4-0.7c0-0.1,0-0.4-0.6-2.8C798.8,415.1,798.2,412.6,797.7,410.8z M795.1,412.8c0.1-0.3,0.2-1,0.4-2.1
			c0.1-0.3,0.1-0.6,0.2-0.9c0,0.1,0,0.1,0,0.2c0.1,0.4,0.2,0.8,0.4,1.4c0.2,0.6,0.3,1,0.3,1.1c0,0.1,0.1,0.2,0.1,0.3
			c-0.2,0-0.4,0-0.6,0L795.1,412.8z"/>
		<path class="st1" d="M809,406.9c-0.2-0.8-0.7-0.9-0.9-0.9c-0.1,0-0.5,0.1-0.7,0.5c-0.1,0.2-0.1,0.4-0.1,0.7c0.1,1,0.2,2.5,0.3,4.5
			l0.1,2.1c0.1,1,0.1,2,0.2,2.8c-0.5-1.2-1.2-2.8-2-4.8c-1.6-4.1-2.1-4.9-2.4-5.2c-0.3-0.3-0.6-0.4-0.8-0.4c-0.3,0-0.7,0.1-0.8,1.1
			v0.1c0,0.7,0.1,3.1,0.3,7c0.3,6,0.3,6.1,0.3,6.3c0.2,0.7,0.6,0.8,0.9,0.8c0.2,0,0.4-0.1,0.7-0.5c0.1-0.1,0.1-0.2,0.1-0.8
			c0-1.1-0.1-3.9-0.3-8.1c0-0.3,0-0.6,0-0.9c0.6,1.6,1.3,3.3,2.1,5.2c1,2.3,1.5,3.6,1.8,4c0.3,0.6,0.5,0.9,0.8,1
			c0.1,0,0.2,0.1,0.4,0.1c0.2,0,0.3,0,0.4-0.1c0.4-0.2,0.5-0.7,0.5-1.7c0-0.7,0-1.7-0.1-2.9C809.3,410.9,809.1,407.6,809,406.9z"/>
		<path class="st1" d="M823.5,406.4c-0.4-0.4-0.8-0.4-1.1-0.2l0,0c-0.3,0.2-0.4,0.7-0.4,1c0,0.2,0,0.8,0.1,1.9
			c0.1,1.5,0.1,2.4,0.1,2.9v0.5h-3.1V410c0-3-0.1-3.1-0.2-3.3c-0.2-0.3-0.4-0.5-0.7-0.5c-0.4,0-0.7,0.2-0.8,0.6
			c-0.1,0.1-0.1,0.2-0.1,7.2v7l0.1,0.1c0.3,0.3,0.5,0.4,0.8,0.4c0.2,0,0.4-0.1,0.6-0.4c0.1-0.2,0.1-0.2,0.2-3.9l0-3h3.3
			c0,0.1,0,0.3,0,0.5c0,0.6,0.1,1.7,0.1,3.1c0,1.5,0.1,2.5,0.1,2.9c0.1,0.5,0.3,0.9,0.6,1.1c0.2,0.1,0.3,0.1,0.4,0.1
			c0.1,0,0.2,0,0.2,0c0.2,0,0.4-0.2,0.5-0.5l0-0.1c0-0.1,0-0.3,0-0.4c0-0.6-0.2-3.9-0.5-9.9C823.8,406.8,823.7,406.6,823.5,406.4z"
			/>
		<path class="st1" d="M832,410.8c-1-3.9-1.2-4.1-1.4-4.2c-0.2-0.2-0.6-0.3-1.3,0.1c-0.3,0.2-0.6,0.5-0.7,0.9c0,0.1-0.2,0.9-1.2,5.9
			c-0.8,3.8-1.2,5.9-1.3,6.6c-0.1,0.5-0.1,0.7-0.1,0.8c0,0.1,0,0.3,0.1,0.4c0.2,0.4,0.6,0.4,0.7,0.4c0.3,0,0.6-0.2,0.7-0.5
			c0-0.1,0.1-0.2,0.5-2c0.2-1.1,0.5-2.2,0.7-3.3c0.1-0.6,0.2-1,0.2-1.3c0,0,0.1,0,0.1,0c1.5,0,1.9,0,1.9,0c0,0,0.1,0.2,0.3,0.9
			c1.3,5.2,1.5,5.7,1.6,5.9c0.1,0.3,0.3,0.5,0.6,0.6c0.1,0,0.2,0,0.2,0c0.1,0,0.3,0,0.4-0.1c0.3-0.2,0.4-0.4,0.4-0.7
			c0-0.1,0-0.4-0.6-2.8C833.1,415.1,832.5,412.6,832,410.8z M829.4,412.8c0.1-0.3,0.2-1,0.4-2.1c0.1-0.3,0.1-0.6,0.2-0.9
			c0,0.1,0,0.1,0,0.2c0.1,0.4,0.2,0.8,0.4,1.4c0.2,0.6,0.3,1,0.3,1.1c0,0.1,0.1,0.2,0.1,0.3c-0.2,0-0.4,0-0.6,0L829.4,412.8z"/>
		<path class="st1" d="M843.3,406.9c-0.2-0.8-0.7-0.9-0.9-0.9c-0.1,0-0.5,0.1-0.7,0.5c-0.1,0.2-0.1,0.4-0.1,0.7
			c0.1,1,0.2,2.5,0.3,4.5l0.1,2.1c0.1,1,0.1,2,0.2,2.8c-0.5-1.2-1.2-2.8-2-4.8c-1.6-4.1-2.1-4.9-2.4-5.2c-0.3-0.3-0.6-0.4-0.8-0.4
			c-0.3,0-0.7,0.1-0.8,1.1v0.1c0,0.7,0.1,3.1,0.3,7c0.3,6,0.3,6.1,0.3,6.3c0.2,0.7,0.6,0.8,0.9,0.8c0.2,0,0.4-0.1,0.7-0.5
			c0.1-0.1,0.1-0.2,0.1-0.8c0-1.1-0.1-3.9-0.3-8.1c0-0.3,0-0.6,0-0.9c0.6,1.6,1.3,3.3,2.1,5.2c1,2.3,1.5,3.6,1.8,4
			c0.3,0.6,0.5,0.9,0.8,1c0.1,0,0.2,0.1,0.4,0.1c0.2,0,0.3,0,0.4-0.1c0.4-0.2,0.5-0.7,0.5-1.7c0-0.7,0-1.7-0.1-2.9
			C843.6,410.9,843.4,407.6,843.3,406.9z"/>
		<path class="st1" d="M851.4,407.9c-0.2-0.3-0.5-0.6-0.8-0.9c-0.4-0.4-0.7-0.6-1-0.8c-0.9-0.5-1.8-0.8-2.7-0.8
			c-0.3,0-0.5,0-0.6,0.1c-0.4,0.1-0.6,0.4-0.6,0.5c-0.1,0.2-0.1,0.4-0.1,0.8c0,0.6,0,1.9,0.1,3.7c0.1,1.8,0.1,2.9,0.1,3.3
			c0.1,4.1,0.2,6.4,0.4,7.1c0.1,0.3,0.3,0.7,1.2,0.8h0.2c1,0,1.9-0.2,2.7-0.7c1.3-0.8,2.2-2.1,2.5-4c0.1-0.4,0.1-1,0.1-2.1
			c0-1.2,0-2-0.1-2.5C852.6,410.5,852.1,409.1,851.4,407.9z M847.8,419.8c0-0.4-0.1-1.4-0.2-4.3c0-0.2,0-0.9-0.1-2.3
			c0-1.4-0.1-2.6-0.1-3.7c0-1-0.1-1.8-0.2-2.2c0-0.1,0-0.1,0-0.1c0.1,0,0.2,0,0.4,0.1l0,0c0.8,0.2,1.5,0.7,2,1.3
			c0.8,1,1.4,2.6,1.5,4.7c0,0.6,0,1,0,1.4c0,1.4-0.1,2-0.1,2.2c-0.4,1.7-1.3,2.6-2.9,2.9C848,419.8,847.9,419.8,847.8,419.8z
			 M846.4,405.9L846.4,405.9L846.4,405.9L846.4,405.9z"/>
		<path class="st1" d="M856.6,419.8c-0.1,0-0.3,0-0.4,0c0-0.7-0.1-2.6-0.1-8c-0.1-4.9-0.1-4.9-0.1-5c-0.2-0.6-0.6-0.7-0.8-0.7
			c-0.2,0-0.4,0.1-0.5,0.2c-0.2,0.2-0.2,0.2-0.2,6.4c0,7.1,0.1,7.5,0.1,7.6c0.1,0.4,0.2,1,0.7,1.2c0.1,0.1,0.1,0.1,1.2,0.1
			c0.2,0,0.5,0,0.7,0c0.2,0,0.4,0,0.6-0.2c0.3-0.2,0.4-0.4,0.4-0.7c0-0.2,0-0.4-0.3-0.7C857.6,419.9,857.3,419.8,856.6,419.8z"/>
		<path class="st1" d="M864.2,407c0.3-0.5,0.1-0.9-0.1-1.1c-0.2-0.2-0.5-0.3-1.3-0.3c-0.4,0-0.8,0-1.1,0h-0.4c-0.2,0-0.3,0-0.4,0
			c-0.2,0-0.4,0-0.6,0.1l-0.1,0c-0.1,0-0.2,0.1-0.3,0.1c-0.1,0.1-0.1,0.1-0.2,0.2l-0.1,0.1c0,0.1-0.1,0.2-0.1,2.2
			c0,2.1,0,4.6,0.1,7.6c0.1,4.5,0.2,4.7,0.2,4.8c0.1,0.3,0.4,0.5,0.7,0.6c0.1,0,0.4,0,1.5,0c0,0,0,0,0,0l1.7,0l0.1-0.3
			c0.2-0.3,0.3-0.6,0.2-0.8c-0.1-0.3-0.3-0.5-0.6-0.6c-0.1,0-0.4-0.1-1.2-0.1c-0.4,0-0.6,0-0.8,0c0-0.2,0-0.5-0.1-1.1
			c0-1-0.1-1.8-0.1-2.6c0-0.4,0-0.7,0-0.9l0-0.2c0.4,0,0.8-0.1,1-0.5c0.1-0.1,0.1-0.3,0.1-0.5c0-0.3-0.1-0.9-1.2-0.9
			c0-0.2,0-0.9-0.1-3.1l0-2.5c0.3,0,0.6,0,0.9,0C863.8,407.4,864.1,407.3,864.2,407z"/>
		<path class="st1" d="M871,412.7c0-0.1-0.2-0.2-1.3-1.3c-1.5-1.4-1.7-1.7-1.8-1.8c-0.1-0.2-0.1-0.4-0.1-0.6c0-0.5,0.2-0.9,0.5-1.3
			c0.2-0.2,0.6-0.5,1-0.6c0.4-0.2,0.5-0.2,0.6-0.3c0.1-0.1,0.3-0.3,0.3-0.6c0-0.4-0.3-0.8-0.9-0.8c-0.2,0-0.4,0-0.6,0.1
			c-0.7,0.2-1.3,0.6-1.9,1.2c-0.5,0.6-0.8,1.4-0.8,2.2c0,0.2,0,0.4,0,0.5c0.1,0.8,0.5,1.5,1.2,2.1c0.1,0.1,0.6,0.6,1.4,1.3
			c0.5,0.5,0.9,0.9,1,1.1c0.2,0.2,0.3,0.5,0.4,0.8c0.2,0.5,0.3,1.1,0.3,1.8c0,0.4,0,0.6-0.1,0.9c-0.1,0.5-0.4,1-0.8,1.4
			c-0.4,0.4-0.9,0.7-1.4,0.8c-1.4,0.3-1.6,0.4-1.7,0.5c-0.1,0.1-0.3,0.3-0.3,0.7c0,0.2,0,0.4,0.1,0.5c0.1,0.2,0.4,0.3,0.7,0.3
			c0.4,0,0.8-0.1,0.9-0.1c0.1,0,0.3-0.1,0.8-0.2c0.5-0.1,0.8-0.3,1-0.4c0.4-0.2,0.8-0.5,1.1-0.8c1-1,1.5-2.1,1.5-3.5
			C872.1,415,871.7,413.7,871,412.7z"/>
	</g>
</g>
</svg>
