<svg xmlns="http://www.w3.org/2000/svg" viewBox="0 0 243.5 49.04"><path d="M243.5 20.2c-.51 12.08 0 12.3-2.79 18.94-2.84 6.8-13.85 7.2-21.91 8.18-9.11 1.11-18.3 2.2-27.46 1.51-8.11-.62-16-2.62-24-4.19C115.18 34.31 59.69 42.32 8.2 29.43a13.31 13.31 0 0 1-4.61-1.81C1.13 25.83.49 22.76.18 20-.38 14.91.13 8.87 5 6.21c2.13-1.16 4.71-1.42 7.19-1.63a779 779 0 0 1 78.47-2.85c9.69.14 19.39.46 29.07.14 8.19-.27 16.35-1 24.53-1.4C172.49-1 200.79 1.16 229 3.3c6.83.51 14.54 4.59 14.53 16.9" fill="#798bc5" data-name="Calque 1"/></svg>