<svg height="32" viewBox="0 0 95 32" width="95" xmlns="http://www.w3.org/2000/svg"><path d="M1.648 30.672c.288 0 .592-.16.912-.48l-.096-5.184v-3.107c.006-1.428.054-2.232.144-2.413.128-.224.544-.56 1.248-1.008.672-.448 1.36-.96 2.064-1.536 1.152-.96 1.992-1.856 2.52-2.688s.888-1.792 1.08-2.88c.064-.288.096-.736.096-1.344 0-1.44-.344-2.832-1.032-4.176S6.96 3.44 5.776 2.64C4.016 1.488 2.56.912 1.408.912h-.192C.8.976.528 1.296.4 1.872c-.032.096-.048.496-.048 1.2v.32c.008 1.63.072 3.796.192 6.496.064 1.696.128 5.264.192 10.704.064 5.792.128 8.864.192 9.216.064.32.144.528.24.624.16.16.32.24.48.24zm.96-13.296H2.56c-.064 0-.192-2.192-.384-6.576-.032-.768-.072-1.92-.12-3.456s-.088-2.48-.12-2.832L1.888 2.64h.288c.16 0 .496.096 1.008.288 2.272.992 3.76 2.576 4.464 4.752.224.736.336 1.584.336 2.544 0 .544-.048 1.008-.144 1.392-.352 1.472-1.296 2.848-2.832 4.128-1.024.832-1.824 1.376-2.4 1.632zM15.04 31.008c.448.16.768.064.96-.288.032-.064.048-.56.048-1.488 0-1.568-.016-2.992-.048-4.272-.032-2.016-.048-3.92-.048-5.712.064-.16.192-.24.384-.24.256 0 .608.144 1.056.432 1.44.96 2.592 2.32 3.456 4.08.416.96.88 2.192 1.392 3.696.704 2.08 1.136 3.168 1.296 3.264.288.256.608.24.96-.048.16-.16.24-.352.24-.576 0-.48-.272-1.44-.816-2.88-.8-2.24-1.456-3.84-1.968-4.8-.672-1.312-1.312-2.176-1.92-2.592a1.468 1.468 0 0 1-.264-.192l-.528-.456a19.36 19.36 0 0 0-.792-.648c0-.064.272-.24.816-.528.928-.48 1.776-1.208 2.544-2.184s1.232-1.944 1.392-2.904c.032-.16.048-.528.048-1.104 0-1.408-.112-2.608-.336-3.6-.32-1.632-1.152-3.12-2.496-4.464C19.36 2.416 18.208 1.648 16.96 1.2c-.576-.224-1.072-.336-1.488-.336-.288 0-.496.08-.624.24 0 .032-.016.064-.048.096-.128.128-.208 1.824-.24 5.088 0 3.616-.048 7.04-.144 10.272-.032 1.12-.048 2.656-.048 4.608 0 2.4.016 4.096.048 5.088.064 2.08.128 3.368.192 3.864s.208.792.432.888zm1.008-13.872v-2.991c.006-3.973.038-7.152.096-9.537.032-1.28.128-1.92.288-1.92.064 0 .32.112.768.336 2.976 1.568 4.464 4.288 4.464 8.16 0 .832-.04 1.392-.12 1.68s-.344.752-.792 1.392c-.608.928-1.136 1.52-1.584 1.776-.128.064-.656.264-1.584.6s-1.44.504-1.536.504zm20.928 13.68c1.568 0 2.848-.48 3.84-1.44 1.28-1.184 2.16-2.88 2.64-5.088.384-1.984.576-4.352.576-7.104-.032-2.688-.112-4.648-.24-5.88s-.4-2.488-.816-3.768c-.896-2.784-2.304-4.576-4.224-5.376-.48-.224-1.216-.336-2.208-.336-.544 0-.96.016-1.248.048-1.152.128-2.16.624-3.024 1.488-1.376 1.312-2.176 3.184-2.4 5.616-.16 1.44-.24 3.28-.24 5.52 0 .64.016.976.048 1.008.096.032.144.944.144 2.736 0 2.144.272 4.256.816 6.336.416 1.504.864 2.648 1.344 3.432s1.168 1.448 2.064 1.992 1.872.816 2.928.816zm-.144-1.68c-.768 0-1.36-.096-1.776-.288-.96-.448-1.728-1.376-2.304-2.784s-1.024-3.424-1.344-6.048c-.16-1.536-.24-3.536-.24-6 0-2.848.096-4.752.288-5.712.512-2.816 1.856-4.48 4.032-4.992.384-.064.688-.096.912-.096 1.184 0 2.24.432 3.168 1.296.928.832 1.64 2.168 2.136 4.008s.744 3.816.744 5.928c0 1.44.032 2.192.096 2.256l.048.384c0 2.368-.176 4.528-.528 6.48-.416 2.016-1.168 3.52-2.256 4.512-.736.704-1.728 1.056-2.976 1.056zm30.192 1.824c.288 0 .464-.048.528-.144.096-.096.16-4.464.192-13.104s.064-12.976.096-13.008l1.104-.048c.736-.032 1.496-.072 2.28-.12s1.224-.088 1.32-.12c.288-.128.464-.304.528-.528s0-.432-.192-.624c-.128-.128-.528-.192-1.2-.192-.96 0-1.888.016-2.784.048-4.448.096-6.912.208-7.392.336-.288.064-.432.256-.432.576 0 .256.112.432.336.528.256.128 1.136.192 2.64.192h2.304l-.048 9.024a1554.82 1554.82 0 0 0-.048 12.336c0 2.88.064 4.4.192 4.56.128.192.32.288.576.288zm12.048-.192a.48.48 0 0 0 .576 0c.192-.096.32-.232.384-.408s.096-.584.096-1.224c0-.064-.032-1.408-.096-4.032-.064-1.824-.144-5.104-.24-9.84s-.16-7.728-.192-8.976l-.048-2.352-.288-.288c-.192-.192-.368-.288-.528-.288-.48 0-.72.704-.72 2.112v.576c.032.512.112 3.824.24 9.936.128 8.992.272 13.76.432 14.304a.925.925 0 0 0 .384.48zm7.008-.096c.288 0 .592-.16.912-.48l-.096-5.184v-3.107c.006-1.428.054-2.232.144-2.413.128-.224.544-.56 1.248-1.008.672-.448 1.36-.96 2.064-1.536 1.152-.96 1.992-1.856 2.52-2.688s.888-1.792 1.08-2.88c.064-.288.096-.736.096-1.344 0-1.44-.344-2.832-1.032-4.176S91.392 3.44 90.208 2.64C88.448 1.488 86.992.912 85.84.912h-.192c-.416.064-.688.384-.816.96-.032.096-.048.496-.048 1.2v.32c.008 1.63.072 3.796.192 6.496.064 1.696.128 5.264.192 10.704.064 5.792.128 8.864.192 9.216.064.32.144.528.24.624.16.16.32.24.48.24zm.96-13.296h-.048c-.064 0-.192-2.192-.384-6.576-.032-.768-.072-1.92-.12-3.456s-.088-2.48-.12-2.832L86.32 2.64h.288c.16 0 .496.096 1.008.288 2.272.992 3.76 2.576 4.464 4.752.224.736.336 1.584.336 2.544 0 .544-.048 1.008-.144 1.392-.352 1.472-1.296 2.848-2.832 4.128-1.024.832-1.824 1.376-2.4 1.632z" fill="#202020"/></svg>